<?xml version="1.0" encoding="UTF-8" standalone="no"?>
<!-- Created with Inkscape (http://www.inkscape.org/) -->

<svg
   xmlns:dc="http://purl.org/dc/elements/1.1/"
   xmlns:cc="http://creativecommons.org/ns#"
   xmlns:rdf="http://www.w3.org/1999/02/22-rdf-syntax-ns#"
   xmlns:svg="http://www.w3.org/2000/svg"
   xmlns="http://www.w3.org/2000/svg"
   xmlns:sodipodi="http://sodipodi.sourceforge.net/DTD/sodipodi-0.dtd"
   xmlns:inkscape="http://www.inkscape.org/namespaces/inkscape"
   version="1.1"
   width="24"
   height="24"
   id="svg4460"
   inkscape:version="0.91 r13725"
   sodipodi:docname="araignee.svg">
  <sodipodi:namedview
     pagecolor="#ffffff"
     bordercolor="#666666"
     borderopacity="1"
     objecttolerance="10"
     gridtolerance="10"
     guidetolerance="10"
     inkscape:pageopacity="0"
     inkscape:pageshadow="2"
     inkscape:window-width="1280"
     inkscape:window-height="972"
     id="namedview11"
     showgrid="false"
     inkscape:zoom="0.30729166"
     inkscape:cx="516.48887"
     inkscape:cy="-339.1629"
     inkscape:window-x="-8"
     inkscape:window-y="-8"
     inkscape:window-maximized="1"
     inkscape:current-layer="svg4460" />
  <defs
     id="defs4462" />
  <metadata
     id="metadata4465">
    <rdf:RDF>
      <cc:Work
         rdf:about="">
        <dc:format>image/svg+xml</dc:format>
        <dc:type
           rdf:resource="http://purl.org/dc/dcmitype/StillImage" />
        <dc:title></dc:title>
      </cc:Work>
    </rdf:RDF>
  </metadata>
  <path
     inkscape:connector-curvature="0"
     unicode="U"
     horiz-adv-x="1896"
     d="M 1.4727,13.5413 2.62091,14.7644 5.17941,12.2933 Q 7.47582,13.4914 8.4493,14.053 L 5.32917,13.4914 Q 5.22933,13.4789 5.14197,13.4789 4.73011,13.4789 4.49298,13.8534 L 1.93448,17.5101 3.33229,18.4711 5.5663,15.2512 6.71451,15.4633 Q 5.51638,16.8736 5.51638,18.6084 5.51638,20.83 7.3635,22.415 9.21061,24 11.84399,24 14.45242,24 16.30577,22.415 18.15913,20.83 18.15913,18.6084 18.15913,16.9735 17.11077,15.6131 L 18.54602,15.4384 20.33073,18.3713 21.76599,17.4727 19.69423,14.078 Q 19.4571,13.6786 19.03276,13.6786 18.95788,13.6786 18.883,13.6911 15.63807,14.103 15.37598,14.1279 16.98596,13.2543 18.79563,12.2933 L 21.35414,14.7644 22.5273,13.5413 19.54446,10.6583 Q 19.28237,10.4087 18.98284,10.4087 18.78315,10.4087 18.57098,10.5211 L 15.35102,12.1934 Q 16.52418,10.8955 17.95944,9.3729 L 21.66615,11.3697 22.45242,9.8846 18.18409,7.5632 Q 17.95944,7.4384 17.75975,7.4384 17.43526,7.4384 17.16069,7.7379 L 14.35258,10.6833 Q 13.5663,9.9719 12.46802,9.8097 L 12.46802,0 11.25741,0 11.25741,9.8346 Q 10.33385,10.0094 9.62247,10.6583 L 7.06396,7.8128 Q 6.80187,7.5133 6.48986,7.5133 6.29017,7.5133 6.078,7.6381 L 1.54758,9.8846 2.32137,11.3947 6.25273,9.4228 Q 8.66147,12.0811 8.59906,12.1934 L 5.40406,10.5211 Q 5.19189,10.4087 4.9922,10.4087 4.69267,10.4087 4.43058,10.6583 Z M 7.35102,19.2449 Q 7.71295,19.3947 8.47426,19.5944 L 9.32293,21.2668 10.10921,19.8814 Q 10.73323,19.9563 11.08268,19.9563 L 11.23245,19.9563 12.89236,19.9314 Q 13.09204,19.9314 13.81591,19.8565 L 14.47738,21.2668 15.50078,19.5694 Q 16.23713,19.4197 16.81123,19.2699 16.4493,21.0546 14.20281,22.0281 L 13.42902,21.4415 12.81747,22.3401 Q 12.40562,22.39 12.00624,22.39 11.49454,22.39 10.98284,22.3401 L 10.25897,21.2668 9.52262,21.9532 Q 8.91108,21.6661 8.47426,21.2917 7.40094,20.3931 7.35102,19.2449 Z M 7.76287,17.0484 Q 7.76287,16.6115 8.06864,16.2933 8.37442,15.975 8.83619,15.975 9.27301,15.975 9.59126,16.2933 9.90952,16.6115 9.90952,17.0484 9.90952,17.5101 9.59126,17.8159 9.27301,18.1217 8.83619,18.1217 8.37442,18.1217 8.06864,17.8159 7.76287,17.5101 7.76287,17.0484 Z M 14.15289,17.1732 Q 14.15289,16.7363 14.47114,16.4181 14.78939,16.0998 15.22621,16.0998 15.68799,16.0998 15.99376,16.4181 16.29953,16.7363 16.29953,17.1732 16.29953,17.6349 15.99376,17.9407 15.68799,18.2465 15.22621,18.2465 14.78939,18.2465 14.47114,17.9407 14.15289,17.6349 14.15289,17.1732 Z"
     id="path118" />
</svg>
