<?xml version="1.0" encoding="UTF-8" standalone="no"?>
<!-- Created with Inkscape (http://www.inkscape.org/) -->

<svg
   xmlns:dc="http://purl.org/dc/elements/1.1/"
   xmlns:cc="http://creativecommons.org/ns#"
   xmlns:rdf="http://www.w3.org/1999/02/22-rdf-syntax-ns#"
   xmlns:svg="http://www.w3.org/2000/svg"
   xmlns="http://www.w3.org/2000/svg"
   xmlns:sodipodi="http://sodipodi.sourceforge.net/DTD/sodipodi-0.dtd"
   xmlns:inkscape="http://www.inkscape.org/namespaces/inkscape"
   version="1.1"
   width="24"
   height="24"
   id="svg4460"
   inkscape:version="0.91 r13725"
   sodipodi:docname="arme-epees.svg">
  <sodipodi:namedview
     pagecolor="#ffffff"
     bordercolor="#666666"
     borderopacity="1"
     objecttolerance="10"
     gridtolerance="10"
     guidetolerance="10"
     inkscape:pageopacity="0"
     inkscape:pageshadow="2"
     inkscape:window-width="1280"
     inkscape:window-height="972"
     id="namedview11"
     showgrid="false"
     inkscape:zoom="0.30729166"
     inkscape:cx="67.404118"
     inkscape:cy="-49.535779"
     inkscape:window-x="-8"
     inkscape:window-y="-8"
     inkscape:window-maximized="1"
     inkscape:current-layer="svg4460" />
  <defs
     id="defs4462" />
  <metadata
     id="metadata4465">
    <rdf:RDF>
      <cc:Work
         rdf:about="">
        <dc:format>image/svg+xml</dc:format>
        <dc:type
           rdf:resource="http://purl.org/dc/dcmitype/StillImage" />
        <dc:title></dc:title>
      </cc:Work>
    </rdf:RDF>
  </metadata>
  <path
     inkscape:connector-curvature="0"
     unicode="4"
     horiz-adv-x="2365"
     d="M 4.5806279e-4,20.59288 Q 4.5806279e-4,20.84078 0.12975806,21.07798 0.37775806,21.45538 0.78745806,21.44458 0.89525806,21.44458 1.0354581,21.40148 L 5.3156581,18.70608 5.8655581,19.46078 Q 5.8439581,19.73028 5.6930581,20.17238 5.5420581,20.61438 5.5420581,20.95938 5.5636581,21.25048 5.6499581,21.44458 5.8978581,21.95128 6.5339581,22.02678 6.2860581,21.71408 6.2860581,21.40148 6.2860581,20.91628 6.7064581,20.51738 7.9463581,19.52548 7.9463581,18.09154 7.9463581,17.69262 7.8385581,17.29371 10.134958,15.77352 11.989458,14.29646 13.865358,15.77352 16.161858,17.29371 16.054058,17.69262 16.043258,18.09154 16.043258,19.52548 17.283158,20.51738 17.703658,20.91628 17.703658,21.40148 17.703658,21.71408 17.466458,22.02678 18.415158,21.91898 18.458358,20.95938 18.436758,20.60358 18.291158,20.16698 18.145658,19.73028 18.124058,19.46078 L 18.673958,18.70608 22.954158,21.40148 Q 23.083558,21.44458 23.202158,21.44458 23.622658,21.44458 23.859858,21.07798 23.989258,20.83008 23.999958,20.59288 23.999958,20.22628 23.730458,20.01068 L 19.784458,17.25058 20.398958,16.46353 Q 20.646958,16.35572 21.094358,16.28564 21.541858,16.21556 21.876058,16.06462 22.447458,15.75196 22.447458,15.15897 22.447458,14.94334 22.361258,14.71693 22.070158,15.30992 21.433958,15.30992 21.218358,15.30992 20.970358,15.24523 20.107858,14.76006 19.202258,14.76006 18.145658,14.76006 17.326258,15.46086 15.665958,14.26411 13.930058,12.7008 18.501458,8.65774 19.072858,5.63892 19.180658,4.98125 19.180658,4.26968 19.180658,2.58776 18.479858,1.97322 16.140258,6.63082 11.989458,10.84638 7.8601581,6.63082 5.5205581,1.97322 4.8089581,2.58776 4.8089581,4.26968 4.8089581,4.98125 4.9167581,5.63892 5.4881581,8.66852 10.059558,12.7008 8.3129581,14.26411 6.6417581,15.46086 5.8224581,14.74928 4.7873581,14.76006 3.8817581,14.76006 2.9976581,15.24523 2.7820581,15.30992 2.5556581,15.30992 1.8979581,15.30992 1.6284581,14.71693 1.5421581,14.93256 1.5421581,15.15897 1.5421581,15.75196 2.1135581,16.06462 2.4478581,16.21556 2.9006581,16.28025 3.3534581,16.34494 3.5906581,16.46353 L 4.1944581,17.25058 0.25915806,20.01068 Q -0.01034194,20.22628 4.5806279e-4,20.59288 Z"
     id="path52" />
</svg>
