<?xml version="1.0" encoding="UTF-8" standalone="no"?>
<!-- Created with Inkscape (http://www.inkscape.org/) -->

<svg
   xmlns:dc="http://purl.org/dc/elements/1.1/"
   xmlns:cc="http://creativecommons.org/ns#"
   xmlns:rdf="http://www.w3.org/1999/02/22-rdf-syntax-ns#"
   xmlns:svg="http://www.w3.org/2000/svg"
   xmlns="http://www.w3.org/2000/svg"
   xmlns:sodipodi="http://sodipodi.sourceforge.net/DTD/sodipodi-0.dtd"
   xmlns:inkscape="http://www.inkscape.org/namespaces/inkscape"
   version="1.1"
   width="24"
   height="24"
   id="svg4460"
   inkscape:version="0.91 r13725"
   sodipodi:docname="hache.svg">
  <sodipodi:namedview
     pagecolor="#ffffff"
     bordercolor="#666666"
     borderopacity="1"
     objecttolerance="10"
     gridtolerance="10"
     guidetolerance="10"
     inkscape:pageopacity="0"
     inkscape:pageshadow="2"
     inkscape:window-width="1280"
     inkscape:window-height="972"
     id="namedview11"
     showgrid="false"
     inkscape:zoom="13.906433"
     inkscape:cx="3.3585776"
     inkscape:cy="2.9536354"
     inkscape:window-x="-8"
     inkscape:window-y="-8"
     inkscape:window-maximized="1"
     inkscape:current-layer="svg4460" />
  <defs
     id="defs4462" />
  <metadata
     id="metadata4465">
    <rdf:RDF>
      <cc:Work
         rdf:about="">
        <dc:format>image/svg+xml</dc:format>
        <dc:type
           rdf:resource="http://purl.org/dc/dcmitype/StillImage" />
        <dc:title></dc:title>
      </cc:Work>
    </rdf:RDF>
  </metadata>
  <path
     id="path3696"
     style="fill:#ffa500;fill-opacity:1;stroke:none"
     d="M 2.2685158e-7,20.8553 8.4077112,9.7848 Q 8.1470952,9.5808 7.9657972,9.4562 7.6371932,9.2296 7.5918692,8.8556 7.5238822,8.4817 7.7505052,8.1758 L 12.135659,2.4195 Q 12.396275,2.0683 12.83819,2.0796 13.098807,2.0796 13.857993,2.6122 L 14.673836,1.5697 16.758767,3.1447 16.158216,3.9379 Q 19.682203,5.6376 23.228852,6.0682 24.022033,6.1815 23.99937,6.952 23.99937,7.8132 23.625443,9.0596 22.91158,11.4958 21.240236,13.6997 19.568892,15.9036 17.449967,17.2747 16.362177,17.9659 15.580328,18.2265 15.444354,18.2718 15.297049,18.2718 14.719161,18.2718 14.481207,17.7166 13.1328,14.3966 10.379331,11.5411 L 2.0962622,22.4303 Z M 14.039292,13.2634 Q 15.047764,14.7252 15.738964,16.2322 18.039187,15.0538 19.857836,12.6516 21.676485,10.2494 22.141062,7.6659 20.475384,7.3599 18.775711,6.8387 18.730387,7.8358 18.288472,8.459 17.846557,9.0823 16.957062,9.2239 16.067567,9.3655 15.738964,9.7848 15.410361,10.204 15.410361,10.612 15.410361,10.7253 15.444354,10.9859 15.478348,11.2465 15.478348,11.3825 15.478348,11.8471 15.2064,12.3116 14.80981,12.9575 14.039292,13.2634 Z"
     inkscape:connector-curvature="0" />
</svg>
