<?xml version="1.0" encoding="UTF-8" standalone="no"?>
<!-- Created with Inkscape (http://www.inkscape.org/) -->

<svg
   xmlns:dc="http://purl.org/dc/elements/1.1/"
   xmlns:cc="http://creativecommons.org/ns#"
   xmlns:rdf="http://www.w3.org/1999/02/22-rdf-syntax-ns#"
   xmlns:svg="http://www.w3.org/2000/svg"
   xmlns="http://www.w3.org/2000/svg"
   xmlns:sodipodi="http://sodipodi.sourceforge.net/DTD/sodipodi-0.dtd"
   xmlns:inkscape="http://www.inkscape.org/namespaces/inkscape"
   version="1.1"
   width="24"
   height="24"
   id="svg4460"
   inkscape:version="0.91 r13725"
   sodipodi:docname="fleau.svg">
  <sodipodi:namedview
     pagecolor="#ffffff"
     bordercolor="#666666"
     borderopacity="1"
     objecttolerance="10"
     gridtolerance="10"
     guidetolerance="10"
     inkscape:pageopacity="0"
     inkscape:pageshadow="2"
     inkscape:window-width="1280"
     inkscape:window-height="972"
     id="namedview11"
     showgrid="false"
     inkscape:zoom="13.906433"
     inkscape:cx="3.3585776"
     inkscape:cy="2.9536354"
     inkscape:window-x="-8"
     inkscape:window-y="-8"
     inkscape:window-maximized="1"
     inkscape:current-layer="svg4460" />
  <defs
     id="defs4462" />
  <metadata
     id="metadata4465">
    <rdf:RDF>
      <cc:Work
         rdf:about="">
        <dc:format>image/svg+xml</dc:format>
        <dc:type
           rdf:resource="http://purl.org/dc/dcmitype/StillImage" />
        <dc:title></dc:title>
      </cc:Work>
    </rdf:RDF>
  </metadata>
  <path
     id="path3696"
     style="fill:#ffa500;fill-opacity:1;stroke:none"
     d="M 0,19.42155 Q 0.011418,19.03335 0.239772,18.67935 L 10.435775,3.80215 Q 10.835395,3.24265 11.531874,3.24265 11.954329,3.24265 12.274025,3.47105 12.856327,3.84775 12.867745,4.55565 12.867745,4.97815 12.627973,5.29785 L 11.977165,6.25695 12.513796,7.75265 14.272122,7.66125 Q 14.922931,7.63845 14.968601,8.28925 L 15.059943,9.71645 16.46432,9.69365 Q 16.932445,9.69365 17.092293,10.11615 L 17.560419,11.36065 Q 17.720266,11.29215 17.891532,11.23505 L 18.359657,9.31685 19.318744,11.02955 Q 19.901047,11.05235 20.414843,11.28075 L 22.081827,10.29875 21.56803,12.03425 Q 22.036156,12.50245 22.287345,13.10755 L 24,13.55285 22.595623,14.42055 Q 22.618459,14.95725 22.447193,15.49385 L 23.55471,16.92105 21.842055,16.65845 Q 21.396765,17.24075 20.768792,17.57185 L 20.506185,19.37585 19.501427,17.99435 Q 18.782112,18.06285 18.074215,17.88015 L 16.704091,18.88485 16.932445,17.27505 Q 16.372978,16.82975 16.019029,16.20175 L 14.340628,15.96195 15.61941,14.95725 Q 15.550904,14.37495 15.665081,13.79265 L 14.637488,12.61655 16.133206,12.61655 Q 16.293054,12.38825 16.46432,12.19415 L 16.019029,11.02955 14.454805,11.05235 Q 13.826832,11.07515 13.781161,10.44725 L 13.678402,9.02005 12.114177,9.11135 Q 11.623216,9.13415 11.440533,8.68885 L 11.040913,7.59275 2.409134,20.19795 Q 2.009515,20.75735 1.335871,20.75735 0.913416,20.75735 0.582303,20.51765 0,20.11805 0,19.42155 Z M 17.628925,13.76975 Q 17.628925,14.14655 17.885823,14.39775 18.142721,14.64895 18.519505,14.64895 18.896289,14.64895 19.164605,14.38065 19.432921,14.11225 19.432921,13.73555 19.432921,13.35875 19.176023,13.09615 18.919125,12.83355 18.542341,12.83355 18.165557,12.83355 17.897241,13.10185 17.628925,13.37015 17.628925,13.76975 Z"
     inkscape:connector-curvature="0" />
</svg>
