<?xml version="1.0" encoding="UTF-8" standalone="no"?>
<!-- Created with Inkscape (http://www.inkscape.org/) -->

<svg
   xmlns:dc="http://purl.org/dc/elements/1.1/"
   xmlns:cc="http://creativecommons.org/ns#"
   xmlns:rdf="http://www.w3.org/1999/02/22-rdf-syntax-ns#"
   xmlns:svg="http://www.w3.org/2000/svg"
   xmlns="http://www.w3.org/2000/svg"
   xmlns:sodipodi="http://sodipodi.sourceforge.net/DTD/sodipodi-0.dtd"
   xmlns:inkscape="http://www.inkscape.org/namespaces/inkscape"
   version="1.1"
   width="24"
   height="24"
   id="svg4460"
   inkscape:version="0.91 r13725"
   sodipodi:docname="bougie.svg">
  <sodipodi:namedview
     pagecolor="#ffffff"
     bordercolor="#666666"
     borderopacity="1"
     objecttolerance="10"
     gridtolerance="10"
     guidetolerance="10"
     inkscape:pageopacity="0"
     inkscape:pageshadow="2"
     inkscape:window-width="1280"
     inkscape:window-height="972"
     id="namedview11"
     showgrid="false"
     inkscape:zoom="0.30729166"
     inkscape:cx="67.404118"
     inkscape:cy="-49.535779"
     inkscape:window-x="-8"
     inkscape:window-y="-8"
     inkscape:window-maximized="1"
     inkscape:current-layer="svg4460" />
  <defs
     id="defs4462" />
  <metadata
     id="metadata4465">
    <rdf:RDF>
      <cc:Work
         rdf:about="">
        <dc:format>image/svg+xml</dc:format>
        <dc:type
           rdf:resource="http://purl.org/dc/dcmitype/StillImage" />
        <dc:title></dc:title>
      </cc:Work>
    </rdf:RDF>
  </metadata>
  <path
     inkscape:connector-curvature="0"
     unicode="7"
     horiz-adv-x="1345"
     d="M 6.69145,12.513 Q 6.69145,13.171 6.98141,13.6617 7.41636,14.3643 8.17472,14.3643 8.33086,14.3643 8.50929,14.3197 L 9.06691,23.4535 Q 9.74721,23.9777 11.68773,24 12.2342,24 12.71375,23.9331 13.87361,23.7546 14.43123,23.3197 L 15.08922,17.1524 Q 16.30483,17.1078 16.98513,16.1264 17.30855,15.6468 17.30855,15.1004 17.30855,14.6877 17.13569,14.3587 16.96283,14.0297 16.78439,13.7063 16.67286,13.4498 16.71747,12.8364 16.80669,11.3532 15.9145,10.5502 15.15613,9.8922 12.64684,9.7472 12.69145,9.5465 12.73606,9.4349 L 12.71375,9.4349 Q 14.54275,9.0223 14.54275,7.4721 14.54275,6.8141 14.0855,5.5093 13.88476,4.9182 12.12268,0 L 10.02602,3.6134 Q 8.95539,5.5539 8.94424,6.8253 8.94424,7.7621 9.49628,8.4814 10.04833,9.2007 10.98513,9.4349 10.96283,9.5688 10.92937,9.7249 8.46468,9.8364 7.67286,10.461 6.69145,11.2639 6.69145,12.513 Z M 8.17472,12.513 Q 8.19703,11.9665 8.59294,11.6487 8.98885,11.3309 10.81784,11.2416 10.81784,11.5874 10.84015,11.8773 L 12.53532,11.8104 12.53532,11.2416 Q 14.52045,11.3309 14.93309,11.6989 15.2342,11.9219 15.2342,12.3792 L 15.2342,12.7918 Q 15.2119,13.0929 15.20074,13.2268 15.20074,14.0967 15.63569,14.71 15.79182,14.9331 15.80297,15.1004 15.80297,15.1673 15.78067,15.2342 15.55762,15.6468 15.06691,15.6468 14.72119,15.5576 14.72119,15.0335 L 14.72119,14.6766 14.72119,14.3197 Q 14.72119,13.5167 14.30297,13.0985 13.88476,12.6803 13.10409,12.7472 12.42379,12.7918 11.66543,13.3606 11.23048,13.684 11.00744,13.684 10.89591,13.684 10.50558,13.3606 9.6803,12.6803 8.98885,12.6803 8.62082,12.6803 8.24164,12.8364 8.17472,12.7026 8.17472,12.513 Z M 10.98513,7.2156 Q 10.98513,6.0335 11.66543,5.052 12.60223,6.4238 12.60223,7.2156 12.60223,8.0409 11.73234,8.1301 10.97398,8.1524 10.98513,7.2156 Z"
     id="path58" />
</svg>
