<?xml version="1.0" encoding="UTF-8" standalone="no"?>
<!-- Created with Inkscape (http://www.inkscape.org/) -->

<svg
   xmlns:dc="http://purl.org/dc/elements/1.1/"
   xmlns:cc="http://creativecommons.org/ns#"
   xmlns:rdf="http://www.w3.org/1999/02/22-rdf-syntax-ns#"
   xmlns:svg="http://www.w3.org/2000/svg"
   xmlns="http://www.w3.org/2000/svg"
   xmlns:sodipodi="http://sodipodi.sourceforge.net/DTD/sodipodi-0.dtd"
   xmlns:inkscape="http://www.inkscape.org/namespaces/inkscape"
   version="1.1"
   width="24"
   height="24"
   id="svg4460"
   inkscape:version="0.91 r13725"
   sodipodi:docname="bougie.svg">
  <sodipodi:namedview
     pagecolor="#ffffff"
     bordercolor="#666666"
     borderopacity="1"
     objecttolerance="10"
     gridtolerance="10"
     guidetolerance="10"
     inkscape:pageopacity="0"
     inkscape:pageshadow="2"
     inkscape:window-width="1280"
     inkscape:window-height="972"
     id="namedview11"
     showgrid="false"
     inkscape:zoom="13.906433"
     inkscape:cx="3.3585776"
     inkscape:cy="2.9536354"
     inkscape:window-x="-8"
     inkscape:window-y="-8"
     inkscape:window-maximized="1"
     inkscape:current-layer="svg4460" />
  <defs
     id="defs4462" />
  <metadata
     id="metadata4465">
    <rdf:RDF>
      <cc:Work
         rdf:about="">
        <dc:format>image/svg+xml</dc:format>
        <dc:type
           rdf:resource="http://purl.org/dc/dcmitype/StillImage" />
        <dc:title></dc:title>
      </cc:Work>
    </rdf:RDF>
  </metadata>
  <path
     id="path3696"
     style="fill:#ffa500;fill-opacity:1;stroke:none"
     d="M 4.476415,19.841303 Q 4.476415,20.272903 4.768025,20.634503 6.179425,23.643903 10.261995,23.643903 12.244955,23.643903 13.598035,22.757403 13.761335,23.422303 14.461205,23.888803 14.776145,24.098803 15.102755,23.912203 15.441025,23.725503 15.441025,23.328903 15.441025,22.990703 15.190235,22.815703 14.939445,22.640703 14.892795,22.500803 L 14.939445,22.454103 Q 15.009435,22.384103 16.035905,22.255803 L 16.945735,22.139203 Q 19.500255,21.497603 19.523585,19.654603 19.523585,18.219903 18.042195,17.765003 17.657275,17.625003 17.237355,17.625003 16.047575,17.625003 14.869465,18.604803 14.076275,18.079903 12.618215,17.788303 L 12.979815,14.568903 Q 14.052945,14.522303 14.624505,13.659102 14.892795,13.274202 14.892795,12.819302 14.892795,12.411002 14.618675,11.938602 14.344565,11.466202 14.391215,10.883002 14.484535,9.5882024 13.703015,8.9350024 13.038135,8.3634024 10.810225,8.2584024 10.833555,8.0951024 10.856885,8.0018024 12.524905,7.6869024 12.524905,6.3221024 12.524905,5.7506024 12.116645,4.6541024 11.953345,4.1526024 10.425295,2.4211498e-6 L 8.605635,3.0561024 Q 7.672485,4.7008024 7.672485,5.7739024 7.672485,6.6138024 8.185715,7.2203024 8.698955,7.8269024 9.515465,8.0252024 9.492135,8.1418024 9.492135,8.2351024 7.275885,8.3051024 6.576025,8.8533024 5.712845,9.5182024 5.712845,10.603002 5.712845,11.221202 6.051115,11.676102 6.412715,12.201002 7.007605,12.201002 7.147575,12.201002 7.299215,12.154402 L 7.649155,17.765003 Q 4.476415,18.313203 4.476415,19.841303 Z M 5.794505,19.841303 Q 6.062785,19.386403 7.730805,19.059803 L 7.800795,19.899603 Q 8.372345,20.354503 10.040365,20.377803 10.518615,20.377803 10.950195,20.296203 11.953345,20.156203 12.408255,19.794603 L 12.478245,19.083103 Q 14.076275,19.421403 14.321235,19.841303 14.157925,20.156203 13.119795,20.447803 11.836695,20.821103 10.063695,20.821103 8.267365,20.821103 6.984275,20.447803 5.957805,20.156203 5.794505,19.841303 Z M 7.007605,10.626302 Q 7.030935,10.148102 7.380865,9.8740024 7.730805,9.5999024 9.398825,9.5532024 L 9.398825,10.078102 10.681915,10.008102 10.681915,9.5532024 Q 12.478245,9.6232024 12.863175,9.9381024 13.131455,10.124802 13.119795,10.509702 13.119795,10.626302 13.096465,10.865502 13.073135,11.104602 13.073135,11.221202 13.073135,11.956102 13.481385,12.492702 13.598035,12.679302 13.598035,12.795902 13.598035,12.842602 13.574705,12.900902 13.388075,13.262502 12.956485,13.274202 12.664875,13.180902 12.664875,12.749302 L 12.664875,12.446002 Q 12.688205,12.259402 12.699865,12.154402 12.699865,11.466202 12.326605,11.104602 11.953345,10.743002 11.265135,10.789602 10.693585,10.836302 10.017045,11.314502 9.655445,11.582802 9.468815,11.582802 9.398825,11.582802 8.827265,11.162902 8.255705,10.743002 7.730805,10.743002 7.415865,10.743002 7.054265,10.883002 7.007605,10.766302 7.007605,10.626302 Z M 9.445485,6.1355024 Q 9.445485,5.1090024 10.040365,4.2692024 10.833555,5.4123024 10.833555,6.1122024 10.833555,6.8004024 10.087025,6.8937024 9.445485,6.9170024 9.445485,6.1355024 Z M 15.231065,21.042703 Q 15.371035,20.809403 15.580995,20.226203 L 15.557665,20.226203 Q 15.627655,20.016203 15.627655,19.841303 15.627655,19.794603 15.604325,19.654603 16.444165,18.919803 17.237355,18.919803 18.263825,18.919803 18.240495,19.654603 18.205505,20.494503 16.630795,20.879403 L 15.942595,20.972703 Q 15.709305,20.996103 15.231065,21.042703 Z"
     inkscape:connector-curvature="0" />
</svg>
