<?xml version="1.0" encoding="UTF-8" standalone="no"?>
<!-- Created with Inkscape (http://www.inkscape.org/) -->

<svg
   xmlns:dc="http://purl.org/dc/elements/1.1/"
   xmlns:cc="http://creativecommons.org/ns#"
   xmlns:rdf="http://www.w3.org/1999/02/22-rdf-syntax-ns#"
   xmlns:svg="http://www.w3.org/2000/svg"
   xmlns="http://www.w3.org/2000/svg"
   xmlns:sodipodi="http://sodipodi.sourceforge.net/DTD/sodipodi-0.dtd"
   xmlns:inkscape="http://www.inkscape.org/namespaces/inkscape"
   version="1.1"
   width="24"
   height="24"
   id="svg4460"
   inkscape:version="0.91 r13725"
   sodipodi:docname="chat.svg">
  <sodipodi:namedview
     pagecolor="#ffffff"
     bordercolor="#666666"
     borderopacity="1"
     objecttolerance="10"
     gridtolerance="10"
     guidetolerance="10"
     inkscape:pageopacity="0"
     inkscape:pageshadow="2"
     inkscape:window-width="1280"
     inkscape:window-height="972"
     id="namedview11"
     showgrid="false"
     inkscape:zoom="13.906433"
     inkscape:cx="3.3585776"
     inkscape:cy="2.9536354"
     inkscape:window-x="-8"
     inkscape:window-y="-8"
     inkscape:window-maximized="1"
     inkscape:current-layer="svg4460" />
  <defs
     id="defs4462" />
  <metadata
     id="metadata4465">
    <rdf:RDF>
      <cc:Work
         rdf:about="">
        <dc:format>image/svg+xml</dc:format>
        <dc:type
           rdf:resource="http://purl.org/dc/dcmitype/StillImage" />
        <dc:title></dc:title>
      </cc:Work>
    </rdf:RDF>
  </metadata>
  <path
     id="path3696"
     style="fill:#ffa500;fill-opacity:1;stroke:none"
     d="M 4.0172224e-4,2.1413 Q -0.01169828,1.0284 0.33910172,1.0284 0.81087172,1.355 1.3068317,2.3832 2.5406817,4.863 3.7866317,10.5847 7.7543017,9.9678 11.443762,9.8952 L 11.540532,9.7984 Q 13.790492,3.98 14.467902,3.9921 15.012242,3.9921 16.318672,7.2702 16.887212,7.1977 17.383172,7.1856 17.854942,7.2097 18.423482,7.2944 19.838782,4.0767 20.383122,4.0646 21.048432,4.0888 23.032272,9.8468 24.000002,11.129 24.000002,12.6169 23.951612,14.504 22.487932,15.9132 21.024242,17.3225 18.798472,17.7217 20.165382,20.649 20.165382,21.8345 20.165382,22.4998 19.669422,22.4998 19.125082,22.403 18.532352,21.9313 17.141242,20.8426 15.846912,18.1209 L 14.830802,18.1209 Q 14.758222,22.6571 13.318722,22.9716 12.895342,22.8748 12.580832,22.3547 11.867142,21.1208 11.818752,18.0725 L 7.4276917,17.8426 Q 7.7785017,19.5724 7.7785017,20.7458 7.7785017,22.524 7.0768917,22.7538 6.7260917,22.6813 6.3873917,22.2095 5.4922417,21.1208 4.5487117,18.2418 4.3551717,22.5724 2.8430917,22.5724 2.6979417,22.5724 2.6011617,22.524 1.5850517,21.7256 1.5850517,17.2499 1.5850517,14.8911 1.8995617,11.7218 -0.01169828,4.6574 4.0172224e-4,2.1413 Z M 13.318722,12.0968 Q 13.318722,12.5443 13.633242,12.8649 13.947752,13.1855 14.395322,13.1855 14.842892,13.1855 15.163452,12.877 15.484012,12.5685 15.484012,12.121 15.508202,11.6734 15.181602,11.3528 14.854992,11.0323 14.419512,11.0323 13.971942,11.0081 13.645332,11.3165 13.318722,11.625 13.318722,12.0968 Z M 15.895292,14.4556 Q 16.016262,15.6411 17.975902,15.7136 18.496062,15.6894 18.895242,15.5685 19.838782,15.2177 20.068612,14.4314 19.524272,14.8306 19.028312,14.8185 18.411382,14.8185 18.012192,14.2741 17.564622,14.8427 16.911412,14.8427 16.415452,14.8427 15.895292,14.4556 Z M 20.407322,12.0726 Q 20.383122,12.5201 20.691582,12.8407 21.000052,13.1613 21.447622,13.1613 21.919392,13.1613 22.227852,12.8528 22.536312,12.5443 22.560502,12.0968 22.560502,11.6492 22.252042,11.3286 21.943582,11.0081 21.496012,11.0081 21.048432,11.0081 20.727872,11.3165 20.407322,11.625 20.407322,12.0726 Z"
     inkscape:connector-curvature="0" />
</svg>
