<?xml version="1.0" encoding="UTF-8" standalone="no"?>
<!-- Created with Inkscape (http://www.inkscape.org/) -->

<svg
   xmlns:dc="http://purl.org/dc/elements/1.1/"
   xmlns:cc="http://creativecommons.org/ns#"
   xmlns:rdf="http://www.w3.org/1999/02/22-rdf-syntax-ns#"
   xmlns:svg="http://www.w3.org/2000/svg"
   xmlns="http://www.w3.org/2000/svg"
   xmlns:sodipodi="http://sodipodi.sourceforge.net/DTD/sodipodi-0.dtd"
   xmlns:inkscape="http://www.inkscape.org/namespaces/inkscape"
   version="1.1"
   width="24"
   height="24"
   id="svg4460"
   inkscape:version="0.91 r13725"
   sodipodi:docname="chauve_souris.svg">
  <sodipodi:namedview
     pagecolor="#ffffff"
     bordercolor="#666666"
     borderopacity="1"
     objecttolerance="10"
     gridtolerance="10"
     guidetolerance="10"
     inkscape:pageopacity="0"
     inkscape:pageshadow="2"
     inkscape:window-width="1280"
     inkscape:window-height="972"
     id="namedview11"
     showgrid="false"
     inkscape:zoom="0.21728802"
     inkscape:cx="-254.03195"
     inkscape:cy="209.89923"
     inkscape:window-x="-8"
     inkscape:window-y="-8"
     inkscape:window-maximized="1"
     inkscape:current-layer="svg4460" />
  <defs
     id="defs4462" />
  <metadata
     id="metadata4465">
    <rdf:RDF>
      <cc:Work
         rdf:about="">
        <dc:format>image/svg+xml</dc:format>
        <dc:type
           rdf:resource="http://purl.org/dc/dcmitype/StillImage" />
        <dc:title></dc:title>
      </cc:Work>
    </rdf:RDF>
  </metadata>
  <path
     inkscape:connector-curvature="0"
     unicode="n"
     horiz-adv-x="2973"
     d="M -5.0000001e-7,14.62168 Q 1.1860935,14.15542 2.1431485,14.15542 2.5930465,14.15542 2.8629855,14.23722 3.9427395,14.74438 3.9427395,15.72597 3.9427395,15.79959 3.9345595,15.86503 4.7689155,15.17791 5.6278115,15.17791 5.9795495,15.17791 6.2413085,15.29243 6.5276065,15.45603 6.7484655,15.69325 7.2638035,16.28221 7.3537825,17.1002 8.1063395,15.99591 9.1288335,15.99591 9.3333325,15.99591 9.4805725,16.04499 9.6114515,16.26585 9.7423305,16.47035 10.094069,16.95296 10.568506,17.25562 11.255623,17.6728 12.122698,17.6728 12.695296,17.64008 13.161553,17.49284 14.249488,17.10838 14.601226,16.15133 14.715745,16.13497 14.871165,16.13497 16.057259,16.13497 16.64622,17.37014 16.7771,16.14315 17.75051,15.56237 18.02045,15.44785 18.38855,15.44785 19.2229,15.44785 20.06544,16.13497 20.05726,16.06135 20.05726,15.99591 20.05726,15.01431 21.13701,14.50716 21.40695,14.42536 21.85685,14.42536 22.8139,14.42536 24,14.89161 21.33333,10.5317 19.7546,10.5317 19.70552,10.5317 19.64826,10.53988 18.91206,10.80981 16.46626,12.60123 16.41718,11.39877 15.361962,10.4908 14.895705,6.4499 14.265848,6.33538 L 14.224948,6.33538 Q 13.644171,6.33538 12.629856,9.41104 12.376278,9.39468 12.155418,9.39468 11.86912,9.39468 11.525561,9.4274 10.527606,6.3272 9.9304695,6.3272 9.9059305,6.3272 9.8813905,6.33538 9.2597135,6.4499 8.7934555,10.63804 7.9018405,11.47239 7.8527605,12.56033 5.1370135,10.54806 4.3517375,10.26994 4.3026575,10.26176 4.2453985,10.26176 2.6666665,10.26176 -5.0000001e-7,14.62168 Z M 9.0797545,12.09407 Q 9.0797545,11.79141 9.2965235,11.57464 9.5132915,11.35787 9.8159505,11.35787 10.118608,11.35787 10.335377,11.57464 10.552146,11.79141 10.552146,12.09407 10.552146,12.41309 10.335377,12.62168 10.118608,12.83026 9.8159505,12.83026 9.5132915,12.83026 9.2965235,12.62168 9.0797545,12.41309 9.0797545,12.09407 Z M 10.413087,13.5501 Q 11.067484,13.96728 11.8773,13.96728 12.850715,13.96728 13.78323,13.40286 13.635991,14.42536 12.024539,14.5726 11.607361,14.55624 11.288343,14.45808 10.535787,14.22086 10.413087,13.5501 Z M 13.529652,12.09407 Q 13.529652,11.79141 13.75051,11.57464 13.971369,11.35787 14.265848,11.35787 14.568506,11.35787 14.789365,11.57464 15.010224,11.79141 15.010224,12.09407 15.010224,12.41309 14.789365,12.62168 14.568506,12.83026 14.265848,12.83026 13.963189,12.83026 13.74642,12.62168 13.529652,12.41309 13.529652,12.09407 Z"
     id="path168" />
</svg>
