<?xml version="1.0" encoding="UTF-8" standalone="no"?>
<!-- Created with Inkscape (http://www.inkscape.org/) -->

<svg
   xmlns:dc="http://purl.org/dc/elements/1.1/"
   xmlns:cc="http://creativecommons.org/ns#"
   xmlns:rdf="http://www.w3.org/1999/02/22-rdf-syntax-ns#"
   xmlns:svg="http://www.w3.org/2000/svg"
   xmlns="http://www.w3.org/2000/svg"
   xmlns:sodipodi="http://sodipodi.sourceforge.net/DTD/sodipodi-0.dtd"
   xmlns:inkscape="http://www.inkscape.org/namespaces/inkscape"
   version="1.1"
   width="24"
   height="24"
   id="svg4460"
   inkscape:version="0.91 r13725"
   sodipodi:docname="coeur-mort.svg">
  <sodipodi:namedview
     pagecolor="#ffffff"
     bordercolor="#666666"
     borderopacity="1"
     objecttolerance="10"
     gridtolerance="10"
     guidetolerance="10"
     inkscape:pageopacity="0"
     inkscape:pageshadow="2"
     inkscape:window-width="1280"
     inkscape:window-height="972"
     id="namedview11"
     showgrid="false"
     inkscape:zoom="0.21728802"
     inkscape:cx="-254.03195"
     inkscape:cy="209.89923"
     inkscape:window-x="-8"
     inkscape:window-y="-8"
     inkscape:window-maximized="1"
     inkscape:current-layer="svg4460" />
  <defs
     id="defs4462" />
  <metadata
     id="metadata4465">
    <rdf:RDF>
      <cc:Work
         rdf:about="">
        <dc:format>image/svg+xml</dc:format>
        <dc:type
           rdf:resource="http://purl.org/dc/dcmitype/StillImage" />
        <dc:title></dc:title>
      </cc:Work>
    </rdf:RDF>
  </metadata>
  <path
     inkscape:connector-curvature="0"
     unicode="f"
     horiz-adv-x="2025"
     d="M 0.01417,6.956315 Q 0.34002,9.166465 1.60094,11.631635 4.67532,17.553715 12.02834,23.900825 19.33884,17.539545 22.41322,11.631635 23.68831,9.166465 24,6.956315 L 24,6.616295 Q 24,3.556075 22.01653,1.671785 20.34475,0.099175 18.2196,0.099175 17.6954,0.099175 17.12869,0.198345 14.11098,0.736715 12.02834,4.080285 9.52066,0.113335 5.86541,0.113335 L 5.83707,0.113335 Q 3.3719,0.113335 1.65762,1.997635 0,3.839435 0,6.559615 0,6.757965 0.01417,6.956315 Z M 5.7804,11.914995 Q 5.7804,9.449825 7.69303,7.763875 9.47816,6.148755 11.98583,6.148755 L 12.02834,6.148755 Q 14.49351,6.148755 16.36364,7.799285 18.23377,9.449825 18.23377,11.914995 18.23377,13.360095 17.26328,14.465165 16.2928,15.570245 14.49351,16.037775 L 14.49351,16.236125 Q 14.49351,16.703655 14.17473,17.064935 13.85596,17.426205 13.38843,17.454545 12.9209,17.511215 12.69421,17.312865 12.34002,17.567885 11.92916,17.582055 11.46163,17.582055 11.12161,17.284535 10.89492,17.511215 10.39906,17.454545 9.95986,17.426205 9.62692,17.064935 9.29398,16.703655 9.29398,16.236125 L 9.29398,15.981105 Q 5.7804,14.932705 5.7804,11.914995 Z M 7.6647,11.447455 Q 7.6647,12.255015 8.16057,12.857145 8.65643,13.459265 9.37898,13.459265 10.0732,13.459265 10.56907,12.864225 11.06494,12.269185 11.06494,11.447455 11.06494,10.611565 10.56907,10.030695 10.0732,9.449825 9.37898,9.449825 8.65643,9.449825 8.16057,10.030695 7.6647,10.611565 7.6647,11.447455 Z M 11.26328,14.592675 Q 11.26328,15.145215 12.02834,15.145215 12.66588,15.145215 12.66588,14.649345 12.66588,14.323495 12.44628,13.962215 12.22668,13.600945 12,13.600945 11.80165,13.600945 11.53247,13.933885 11.26328,14.266825 11.26328,14.592675 Z M 12.80756,11.447455 Q 12.80756,12.255015 13.30342,12.857145 13.79929,13.459265 14.49351,13.459265 15.21606,13.459265 15.71192,12.864225 16.20779,12.269185 16.20779,11.447455 16.20779,10.611565 15.71192,10.030695 15.21606,9.449825 14.49351,9.449825 13.79929,9.449825 13.30342,10.030695 12.80756,10.611565 12.80756,11.447455 Z"
     id="path152" />
</svg>
