<?xml version="1.0" encoding="UTF-8" standalone="no"?>
<!-- Created with Inkscape (http://www.inkscape.org/) -->

<svg
   xmlns:dc="http://purl.org/dc/elements/1.1/"
   xmlns:cc="http://creativecommons.org/ns#"
   xmlns:rdf="http://www.w3.org/1999/02/22-rdf-syntax-ns#"
   xmlns:svg="http://www.w3.org/2000/svg"
   xmlns="http://www.w3.org/2000/svg"
   xmlns:sodipodi="http://sodipodi.sourceforge.net/DTD/sodipodi-0.dtd"
   xmlns:inkscape="http://www.inkscape.org/namespaces/inkscape"
   version="1.1"
   width="24"
   height="24"
   id="svg4460"
   inkscape:version="0.91 r13725"
   sodipodi:docname="des.svg">
  <sodipodi:namedview
     pagecolor="#ffffff"
     bordercolor="#666666"
     borderopacity="1"
     objecttolerance="10"
     gridtolerance="10"
     guidetolerance="10"
     inkscape:pageopacity="0"
     inkscape:pageshadow="2"
     inkscape:window-width="1280"
     inkscape:window-height="972"
     id="namedview11"
     showgrid="false"
     inkscape:zoom="13.906433"
     inkscape:cx="3.3585776"
     inkscape:cy="2.9536354"
     inkscape:window-x="-8"
     inkscape:window-y="-8"
     inkscape:window-maximized="1"
     inkscape:current-layer="svg4460" />
  <defs
     id="defs4462" />
  <metadata
     id="metadata4465">
    <rdf:RDF>
      <cc:Work
         rdf:about="">
        <dc:format>image/svg+xml</dc:format>
        <dc:type
           rdf:resource="http://purl.org/dc/dcmitype/StillImage" />
        <dc:title></dc:title>
      </cc:Work>
    </rdf:RDF>
  </metadata>
  <path
     id="path3696"
     style="fill:#ffa500;fill-opacity:1;stroke:none"
     d="M 0,10.939309 0.06639,17.27951 Q 0.13278,21.76081 4.04979,22.72351 L 12.48133,23.88531 Q 13.361,23.98491 14.14108,23.98491 17.54357,23.98491 19.43568,22.20901 L 21.9917,19.38741 Q 23.9668,17.99321 23.93361,12.698609 L 23.93361,6.6405093 Q 24,6.1260093 24,5.6944093 24,1.5783093 19.3361,0.7318093 L 11.80083,0.0181093 Q 8.39834,-0.0482907 6.58921,1.3459093 L 2.78838,4.2671093 Q 0.09959,5.5617093 0,10.939309 Z M 2.43983,10.524309 Q 2.43983,9.7774093 3.00415,9.3376093 3.56846,8.8978093 4.34855,8.9974093 5.16183,9.0969093 5.70954,9.6944093 6.25726,10.292009 6.25726,11.038809 6.25726,11.785709 5.69295,12.242209 5.12863,12.698609 4.34855,12.599009 3.56846,12.499409 3.00415,11.885309 2.43983,11.271209 2.43983,10.524309 Z M 2.62241,18.67371 Q 2.6556,17.92681 3.19502,17.47041 3.73444,17.01401 4.54772,17.11351 5.3278,17.21311 5.87552,17.82721 6.42324,18.44131 6.42324,19.18821 6.42324,19.93511 5.85892,20.37491 5.29461,20.81481 4.51452,20.71521 3.73444,20.61561 3.17842,20.02641 2.62241,19.43721 2.62241,18.67371 Z M 6.80498,15.28781 Q 6.83817,14.54091 7.37759,14.07621 7.91701,13.611509 8.73029,13.711009 9.51037,13.810609 10.05809,14.42471 10.60581,15.03881 10.60581,15.78571 10.60581,16.53261 10.04149,16.98081 9.47718,17.42891 8.6971,17.32931 7.91701,17.22971 7.361,16.63221 6.80498,16.03471 6.80498,15.28781 Z M 9.75934,3.4538093 Q 9.75934,2.9725093 10.55602,2.6156093 11.3527,2.2588093 12.51452,2.2588093 13.64315,2.2588093 14.44813,2.6156093 15.25311,2.9725093 15.25311,3.4538093 15.25311,3.9351093 14.43983,4.2754093 13.62656,4.6156093 12.51452,4.6156093 11.3527,4.6156093 10.55602,4.2754093 9.75934,3.9351093 9.75934,3.4538093 Z M 11.3195,11.653009 Q 11.3195,10.906109 11.88382,10.457909 12.44813,10.009809 13.22822,10.109409 14.04149,10.209009 14.58091,10.806509 15.12033,11.404009 15.12033,12.150909 15.12033,12.897809 14.56432,13.362509 14.0083,13.827209 13.22822,13.711009 12.44813,13.611509 11.88382,13.005709 11.3195,12.399809 11.3195,11.653009 Z M 11.51867,19.80231 Q 11.55187,19.05541 12.09959,18.59901 12.6473,18.14261 13.46058,18.24221 14.24066,18.34181 14.78838,18.95591 15.3361,19.57001 15.3361,20.31691 15.3361,21.06371 14.77178,21.52021 14.20747,21.97661 13.42739,21.84381 12.6473,21.74421 12.08299,21.14671 11.51867,20.54921 11.51867,19.80231 Z M 17.57676,10.856309 Q 17.57676,8.5824093 18.22407,8.5824093 18.87137,8.5824093 18.87137,10.856309 18.87137,13.179909 18.22407,13.179909 17.57676,13.179909 17.57676,10.856309 Z M 19.71784,12.632209 Q 19.71784,10.590709 20.29876,10.590709 20.91286,10.590709 20.89627,12.632209 20.91286,14.67371 20.29876,14.67371 19.71784,14.67371 19.71784,12.632209 Z M 21.69295,14.35831 Q 21.69295,12.316909 22.29046,12.316909 22.87137,12.316909 22.87137,14.35831 22.87137,16.39981 22.29046,16.39981 21.67635,16.39981 21.69295,14.35831 Z"
     inkscape:connector-curvature="0" />
</svg>
