<?xml version="1.0" encoding="UTF-8" standalone="no"?>
<!-- Created with Inkscape (http://www.inkscape.org/) -->

<svg
   xmlns:dc="http://purl.org/dc/elements/1.1/"
   xmlns:cc="http://creativecommons.org/ns#"
   xmlns:rdf="http://www.w3.org/1999/02/22-rdf-syntax-ns#"
   xmlns:svg="http://www.w3.org/2000/svg"
   xmlns="http://www.w3.org/2000/svg"
   xmlns:sodipodi="http://sodipodi.sourceforge.net/DTD/sodipodi-0.dtd"
   xmlns:inkscape="http://www.inkscape.org/namespaces/inkscape"
   version="1.1"
   width="24"
   height="24"
   id="svg4460"
   inkscape:version="0.91 r13725"
   sodipodi:docname="pentacle.svg">
  <sodipodi:namedview
     pagecolor="#ffffff"
     bordercolor="#666666"
     borderopacity="1"
     objecttolerance="10"
     gridtolerance="10"
     guidetolerance="10"
     inkscape:pageopacity="0"
     inkscape:pageshadow="2"
     inkscape:window-width="1280"
     inkscape:window-height="972"
     id="namedview11"
     showgrid="false"
     inkscape:zoom="0.21728802"
     inkscape:cx="-254.03195"
     inkscape:cy="209.89923"
     inkscape:window-x="-8"
     inkscape:window-y="-8"
     inkscape:window-maximized="1"
     inkscape:current-layer="svg4460" />
  <defs
     id="defs4462" />
  <metadata
     id="metadata4465">
    <rdf:RDF>
      <cc:Work
         rdf:about="">
        <dc:format>image/svg+xml</dc:format>
        <dc:type
           rdf:resource="http://purl.org/dc/dcmitype/StillImage" />
        <dc:title></dc:title>
      </cc:Work>
    </rdf:RDF>
  </metadata>
  <path
     inkscape:connector-curvature="0"
     unicode="h"
     horiz-adv-x="2148"
     d="M -0.569535,9.4305 Q -0.569535,10.0265 -0.079465,10.3576 L 6.291395,14.9934 3.854305,22.5166 Q 3.801325,22.6755 3.801325,22.8609 3.801325,23.3245 4.139075,23.6623 4.476825,24 4.966885,24 5.324505,24 5.642385,23.7881 L 12.013245,19.1523 18.384105,23.7881 Q 18.688745,24 19.072845,24 19.536425,24 19.874175,23.6623 20.211925,23.3245 20.211925,22.8609 20.211925,22.6755 20.158945,22.5166 L 17.735105,14.9934 24.119205,10.3576 Q 24.569535,10.0397 24.569535,9.457 24.569535,8.9404 24.231795,8.6026 23.894045,8.2649 23.430465,8.2649 L 15.536425,8.2649 13.099335,0.7815 Q 12.860925,0 12.013245,0 11.178805,0 10.900665,0.7815 L 8.463575,8.2649 0.596025,8.2649 Q 0.105965,8.2649 -0.231785,8.6093 -0.569535,8.9536 -0.569535,9.4305 Z M 4.145695,10.5695 7.735105,10.5695 7.046355,12.6887 Z M 7.165565,19.8278 8.238415,16.4371 10.039735,17.7351 Z M 9.006625,14.1325 10.145695,10.5695 13.854305,10.5695 15.019865,14.1325 12.013245,16.3046 Z M 10.900665,8.2649 12.013245,4.8742 13.125825,8.2649 10.900665,8.2649 Z M 13.973515,17.7351 15.761595,16.4371 16.874175,19.8278 Z M 16.304635,10.5695 19.880795,10.5695 16.980135,12.6887 Z"
     id="path156" />
</svg>
