<?xml version="1.0" encoding="UTF-8" standalone="no"?>
<!-- Created with Inkscape (http://www.inkscape.org/) -->

<svg
   xmlns:dc="http://purl.org/dc/elements/1.1/"
   xmlns:cc="http://creativecommons.org/ns#"
   xmlns:rdf="http://www.w3.org/1999/02/22-rdf-syntax-ns#"
   xmlns:svg="http://www.w3.org/2000/svg"
   xmlns="http://www.w3.org/2000/svg"
   xmlns:sodipodi="http://sodipodi.sourceforge.net/DTD/sodipodi-0.dtd"
   xmlns:inkscape="http://www.inkscape.org/namespaces/inkscape"
   version="1.1"
   width="24"
   height="24"
   id="svg4460"
   inkscape:version="0.91 r13725"
   sodipodi:docname="etoile-os.svg">
  <sodipodi:namedview
     pagecolor="#ffffff"
     bordercolor="#666666"
     borderopacity="1"
     objecttolerance="10"
     gridtolerance="10"
     guidetolerance="10"
     inkscape:pageopacity="0"
     inkscape:pageshadow="2"
     inkscape:window-width="1280"
     inkscape:window-height="972"
     id="namedview11"
     showgrid="false"
     inkscape:zoom="0.30729166"
     inkscape:cx="272.42107"
     inkscape:cy="-283.84087"
     inkscape:window-x="-8"
     inkscape:window-y="-8"
     inkscape:window-maximized="1"
     inkscape:current-layer="svg4460" />
  <defs
     id="defs4462" />
  <metadata
     id="metadata4465">
    <rdf:RDF>
      <cc:Work
         rdf:about="">
        <dc:format>image/svg+xml</dc:format>
        <dc:type
           rdf:resource="http://purl.org/dc/dcmitype/StillImage" />
        <dc:title></dc:title>
      </cc:Work>
    </rdf:RDF>
  </metadata>
  <path
     inkscape:connector-curvature="0"
     unicode="G"
     horiz-adv-x="2170"
     d="M 0,9.294175 5.99701,15.147835 4.57541,23.414635 12.00597,19.496265 19.42459,23.414635 18.00299,15.147835 24,9.294175 15.70931,8.099555 12.00597,0.585365 8.29069,8.099555 Z M 7.92036,16.641115 Q 7.89647,15.852665 8.78049,15.852665 9.05525,15.852665 9.34196,15.924345 L 11.15779,14.120455 9.29418,12.256845 Q 9.10304,12.280735 8.85217,12.280735 7.9323,12.280735 7.9323,11.635645 7.9323,11.563965 7.94425,11.480335 8.03982,10.894975 8.61324,10.894975 8.80438,10.894975 9.01941,10.966655 8.94774,10.751615 8.94774,10.548535 8.94774,9.987055 9.5331,9.891485 L 9.61672,9.891485 Q 10.34545,9.891485 10.34545,10.739675 10.34545,10.978595 10.27377,11.277255 L 12.13738,13.140865 13.96516,11.277255 Q 13.89348,10.978595 13.89348,10.739675 13.89348,9.891485 14.61025,9.891485 L 14.70582,9.891485 Q 15.31508,9.987055 15.31508,10.548535 15.31508,10.739675 15.21951,10.966655 15.45844,10.894975 15.64958,10.894975 16.18716,10.894975 16.31857,11.480335 16.33051,11.552015 16.33051,11.611745 16.33051,12.280735 15.41065,12.280735 L 15.38676,12.280735 Q 15.17173,12.280735 14.94475,12.256845 L 13.08114,14.120455 14.92086,15.900445 Q 15.21951,15.828775 15.45844,15.828775 16.34246,15.828775 16.31857,16.641115 16.1991,17.250375 15.64958,17.250375 15.45844,17.250375 15.21951,17.154805 15.31508,17.393725 15.31508,17.596815 15.31508,18.134395 14.70582,18.253855 14.63415,18.265805 14.57442,18.265805 13.89348,18.265805 13.89348,17.322055 13.89348,17.107015 13.94126,16.903935 L 12.13738,15.076155 10.32155,16.903935 Q 10.34545,17.095075 10.34545,17.322055 10.34545,18.265805 9.66451,18.265805 9.60478,18.265805 9.5331,18.253855 8.94774,18.134395 8.94774,17.596815 8.94774,17.405675 9.01941,17.154805 8.78049,17.250375 8.61324,17.250375 8.05177,17.250375 7.92036,16.641115 Z"
     id="path90" />
</svg>
