<?xml version="1.0" encoding="UTF-8" standalone="no"?>
<!-- Created with Inkscape (http://www.inkscape.org/) -->

<svg
   xmlns:dc="http://purl.org/dc/elements/1.1/"
   xmlns:cc="http://creativecommons.org/ns#"
   xmlns:rdf="http://www.w3.org/1999/02/22-rdf-syntax-ns#"
   xmlns:svg="http://www.w3.org/2000/svg"
   xmlns="http://www.w3.org/2000/svg"
   xmlns:sodipodi="http://sodipodi.sourceforge.net/DTD/sodipodi-0.dtd"
   xmlns:inkscape="http://www.inkscape.org/namespaces/inkscape"
   version="1.1"
   width="24"
   height="24"
   id="svg4460"
   inkscape:version="0.91 r13725"
   sodipodi:docname="face-fumeur.svg">
  <sodipodi:namedview
     pagecolor="#ffffff"
     bordercolor="#666666"
     borderopacity="1"
     objecttolerance="10"
     gridtolerance="10"
     guidetolerance="10"
     inkscape:pageopacity="0"
     inkscape:pageshadow="2"
     inkscape:window-width="1280"
     inkscape:window-height="972"
     id="namedview11"
     showgrid="false"
     inkscape:zoom="0.21728802"
     inkscape:cx="-254.03195"
     inkscape:cy="209.89923"
     inkscape:window-x="-8"
     inkscape:window-y="-8"
     inkscape:window-maximized="1"
     inkscape:current-layer="svg4460" />
  <defs
     id="defs4462" />
  <metadata
     id="metadata4465">
    <rdf:RDF>
      <cc:Work
         rdf:about="">
        <dc:format>image/svg+xml</dc:format>
        <dc:type
           rdf:resource="http://purl.org/dc/dcmitype/StillImage" />
        <dc:title></dc:title>
      </cc:Work>
    </rdf:RDF>
  </metadata>
  <path
     inkscape:connector-curvature="0"
     unicode="j"
     horiz-adv-x="2109"
     d="M 0.975425,17.535 Q 1.043475,18.7259 2.064275,18.7259 L 2.143665,18.7259 Q 2.052925,19.1002 2.052925,19.4631 2.052925,20.5747 2.880905,21.3233 3.708885,21.9471 4.321365,21.9471 L 4.366725,21.9471 Q 3.720225,21.4367 3.606805,19.9055 3.595465,19.8034 3.595465,19.6673 3.595465,19.2817 3.697545,18.6919 3.833645,17.8866 3.833645,17.5803 3.833645,16.8658 3.413985,16.4915 2.903595,16.0265 2.347825,16.0265 1.792065,16.0265 1.395085,16.4575 0.998105,16.8885 0.975425,17.535 Z M 5.115315,21.4594 5.580335,23.138 8.665405,22.276 Q 11.126655,24 14.381855,24 17.954635,24 20.489605,21.9868 23.024575,19.9735 23.024575,17.138 23.024575,14.0756 20.143665,12.034 22.003785,6.828 22.003785,3.8563 22.003785,2.3932 21.402645,1.3043 20.654065,0 19.281665,0 17.398865,0 16.446125,2.3025 15.640835,4.2079 15.640835,8.6767 L 15.640835,8.8015 Q 15.640835,9.5728 15.663515,10.3894 14.948965,10.2987 14.381855,10.2873 13.383745,10.2873 12.317585,10.5028 12.340265,9.6408 12.340265,8.8015 12.340265,4.2306 11.546315,2.3025 10.593575,0 8.688095,0 7.338375,0 6.601135,1.3043 5.999995,2.3932 5.999995,3.8563 5.999995,7.0208 8.018905,12.5217 5.739135,14.4726 5.739135,17.138 5.739135,19.1796 7.156895,20.8809 Z M 8.574665,15.0737 11.807185,15.9811 Q 11.137995,16.9338 10.151225,16.9338 9.924385,16.9338 9.742915,16.8885 8.574665,16.4008 8.574665,15.0737 Z M 8.688095,19.2136 Q 8.994325,19.4405 9.833645,19.724 L 9.810965,20.1437 9.062385,20.3478 Q 8.710775,19.7013 8.688095,19.2136 Z M 11.035915,21.9244 11.126655,19.9962 Q 11.943285,20.121 12.918715,20.1437 L 12.850665,22.344 Q 11.829865,22.2306 11.035915,21.9244 Z M 14.155005,22.4348 14.223065,20.121 Q 15.062385,20.0983 15.731565,19.9509 L 16.105865,22.276 Q 15.391305,22.4121 14.642725,22.4348 L 14.155005,22.4348 Z M 16.446125,15.845 19.678635,14.9376 Q 19.678635,16.2647 18.521735,16.7524 18.340265,16.8204 18.102075,16.8204 17.126655,16.8204 16.446125,15.845 Z M 16.990545,19.6106 Q 17.705105,19.3497 18.351605,18.9754 L 18.986765,20.8582 Q 18.272215,21.5047 17.353495,21.879 Z M 19.497165,18.2382 Q 20.030245,17.8412 21.096405,16.6276 20.960305,18.0794 19.962195,19.7013 Z"
     id="path160" />
</svg>
