<?xml version="1.0" encoding="UTF-8" standalone="no"?>
<!-- Created with Inkscape (http://www.inkscape.org/) -->

<svg
   xmlns:dc="http://purl.org/dc/elements/1.1/"
   xmlns:cc="http://creativecommons.org/ns#"
   xmlns:rdf="http://www.w3.org/1999/02/22-rdf-syntax-ns#"
   xmlns:svg="http://www.w3.org/2000/svg"
   xmlns="http://www.w3.org/2000/svg"
   xmlns:sodipodi="http://sodipodi.sourceforge.net/DTD/sodipodi-0.dtd"
   xmlns:inkscape="http://www.inkscape.org/namespaces/inkscape"
   version="1.1"
   width="24"
   height="24"
   id="svg4460"
   inkscape:version="0.91 r13725"
   sodipodi:docname="face-bouffon.svg">
  <sodipodi:namedview
     pagecolor="#ffffff"
     bordercolor="#666666"
     borderopacity="1"
     objecttolerance="10"
     gridtolerance="10"
     guidetolerance="10"
     inkscape:pageopacity="0"
     inkscape:pageshadow="2"
     inkscape:window-width="1280"
     inkscape:window-height="972"
     id="namedview11"
     showgrid="false"
     inkscape:zoom="0.21728802"
     inkscape:cx="-254.03195"
     inkscape:cy="209.89923"
     inkscape:window-x="-8"
     inkscape:window-y="-8"
     inkscape:window-maximized="1"
     inkscape:current-layer="svg4460" />
  <defs
     id="defs4462" />
  <metadata
     id="metadata4465">
    <rdf:RDF>
      <cc:Work
         rdf:about="">
        <dc:format>image/svg+xml</dc:format>
        <dc:type
           rdf:resource="http://purl.org/dc/dcmitype/StillImage" />
        <dc:title></dc:title>
      </cc:Work>
    </rdf:RDF>
  </metadata>
  <path
     inkscape:connector-curvature="0"
     unicode="`"
     horiz-adv-x="2230"
     d="M 0,6.6806273 Q 0,7.3383273 0.46039,7.8046973 0.92078,8.2710673 1.56652,8.2710673 2.22422,8.2710673 2.69058,7.8046973 3.15695,7.3383273 3.15695,6.6806273 3.15695,6.5132173 3.10912,6.3338473 L 6.3139,5.6522273 6.50523,9.8375773 Q 3.65919,11.846547 3.03737,15.326367 2.9417,15.888407 2.92975,16.426517 2.92975,19.272557 5.6562,20.910827 8.10762,22.381677 11.68311,22.381677 15.09118,22.381677 17.67414,20.779287 20.46039,19.045357 20.47235,16.522187 20.47235,15.936237 20.29297,15.326367 19.47982,12.336837 17.45889,10.447447 L 17.67414,5.6522273 20.86697,6.3338473 Q 20.84305,6.5012573 20.83109,6.6806273 20.83109,7.3383273 21.29746,7.8046973 21.76383,8.2710673 22.40957,8.2710673 23.06726,8.2710673 23.53363,7.8046973 24,7.3383273 24,6.6806273 24,6.0229373 23.53363,5.5565673 23.06726,5.0901973 22.40957,5.0901973 21.54858,5.0901973 21.08221,5.8196473 16.92078,1.3592573 15.66517,1.6342973 14.44544,1.8734573 12.04185,8.2949773 L 11.94619,8.2949773 Q 9.5426,1.8734573 8.32287,1.6342973 7.07922,1.3951273 2.90583,5.8196473 2.43946,5.0901973 1.56652,5.0901973 0.93274,5.0901973 0.46637,5.5565673 0,6.0229373 0,6.6806273 Z M 5.52466,15.146997 Q 5.52466,14.561047 5.9432,14.160447 6.36173,13.759857 6.94768,13.759857 7.53363,13.759857 7.94021,14.160447 8.34679,14.561047 8.34679,15.146997 8.34679,15.732947 7.94021,16.139527 7.53363,16.546097 6.94768,16.546097 6.36173,16.546097 5.9432,16.145507 5.52466,15.744907 5.52466,15.146997 Z M 8.53812,18.244157 Q 9.78176,19.057307 11.28849,19.045357 13.13004,19.045357 14.88789,17.969117 14.61286,19.894387 11.57549,20.169417 10.78625,20.169417 10.18834,19.978087 8.76532,19.511717 8.53812,18.244157 Z M 15.05531,15.003497 Q 15.05531,14.417547 15.46188,14.010977 15.86846,13.604397 16.45441,13.604397 17.04036,13.604397 17.44694,14.010977 17.85351,14.417547 17.85351,15.003497 17.85351,15.589447 17.44694,15.996027 17.04036,16.402607 16.45441,16.402607 15.86846,16.402607 15.46188,15.996027 15.05531,15.589447 15.05531,15.003497 Z"
     id="path140" />
</svg>
