<?xml version="1.0" encoding="UTF-8" standalone="no"?>
<!-- Created with Inkscape (http://www.inkscape.org/) -->

<svg
   xmlns:dc="http://purl.org/dc/elements/1.1/"
   xmlns:cc="http://creativecommons.org/ns#"
   xmlns:rdf="http://www.w3.org/1999/02/22-rdf-syntax-ns#"
   xmlns:svg="http://www.w3.org/2000/svg"
   xmlns="http://www.w3.org/2000/svg"
   xmlns:sodipodi="http://sodipodi.sourceforge.net/DTD/sodipodi-0.dtd"
   xmlns:inkscape="http://www.inkscape.org/namespaces/inkscape"
   version="1.1"
   width="24"
   height="24"
   id="svg4460"
   inkscape:version="0.91 r13725"
   sodipodi:docname="face-coupee.svg">
  <sodipodi:namedview
     pagecolor="#ffffff"
     bordercolor="#666666"
     borderopacity="1"
     objecttolerance="10"
     gridtolerance="10"
     guidetolerance="10"
     inkscape:pageopacity="0"
     inkscape:pageshadow="2"
     inkscape:window-width="1280"
     inkscape:window-height="972"
     id="namedview11"
     showgrid="false"
     inkscape:zoom="0.30729166"
     inkscape:cx="272.42107"
     inkscape:cy="-283.84087"
     inkscape:window-x="-8"
     inkscape:window-y="-8"
     inkscape:window-maximized="1"
     inkscape:current-layer="svg4460" />
  <defs
     id="defs4462" />
  <metadata
     id="metadata4465">
    <rdf:RDF>
      <cc:Work
         rdf:about="">
        <dc:format>image/svg+xml</dc:format>
        <dc:type
           rdf:resource="http://purl.org/dc/dcmitype/StillImage" />
        <dc:title></dc:title>
      </cc:Work>
    </rdf:RDF>
  </metadata>
  <path
     inkscape:connector-curvature="0"
     unicode="L"
     horiz-adv-x="1683"
     d="M 2.403995,12 Q 2.403995,23.8135 12.006655,24 11.953385,24 12.299665,24 12.326305,23.374 12.352945,22.8013 L 11.180905,22.8812 11.074365,21.7358 12.406215,21.6293 Q 12.406215,20.9767 12.432855,20.1376 L 11.993345,20.1376 Q 6.732515,20.1376 5.347395,17.0744 8.024415,18.273 12.193115,18.273 L 12.379575,18.273 12.459485,18.2464 12.459485,15.8757 11.021085,15.5427 11.234185,14.424 12.459485,14.677 Q 12.432855,13.6648 12.432855,12.7991 L 10.887905,12.9323 10.794675,11.7603 12.406215,11.6271 Q 12.379575,10.6149 12.352945,9.3363 L 10.941175,9.6027 10.714765,8.4573 12.299665,8.1243 12.246395,6.0866 11.100995,6.1398 11.047725,4.9678 12.193115,4.9145 12.113205,3.303 10.741395,2.9967 10.994455,1.8779 12.059935,2.1043 11.966705,0 Q 7.984465,0.0266 5.194225,3.5294 2.403995,7.0322 2.403995,12 Z M 4.827965,9.3363 Q 4.827965,8.737 5.247505,8.3108 5.667035,7.8846 6.266375,7.8846 6.892345,7.8846 7.318535,8.3041 7.744725,8.7236 7.744725,9.3363 7.744725,9.9356 7.318535,10.3552 6.892345,10.7747 6.266375,10.7747 5.667035,10.7747 5.247505,10.3552 4.827965,9.9356 4.827965,9.3363 Z M 12.539405,0.0533 12.659265,2.2109 14.017755,2.4772 13.778025,3.6226 12.712545,3.4095 12.765815,4.8879 13.831295,4.8346 13.884575,6.0067 12.819085,6.0599 12.899005,8.0178 13.911205,7.8047 14.150945,8.9501 12.925635,9.1898 Q 12.952275,10.3085 12.978915,11.5605 L 13.831295,11.5072 13.937845,12.6526 13.005545,12.7458 Q 13.032185,13.7847 13.032185,14.7836 L 14.017755,14.9967 13.778025,16.1554 13.032185,15.9822 13.032185,18.2198 Q 14.177575,18.0599 15.243065,17.727 17.746945,16.9678 19.398445,15.4895 18.905655,17.9667 15.895675,19.2852 14.670365,19.8313 13.005545,20.071 13.005545,20.9101 12.978915,21.576 L 14.124305,21.4695 14.230855,22.6415 12.952275,22.7481 Q 12.925635,23.2142 12.872365,24 17.813545,23.7869 19.877915,20.2974 21.596005,17.434 21.596005,12 21.596005,7.232 18.965595,3.7625 16.335185,0.293 12.539405,0.0533 Z M 16.335185,8.2708 Q 16.335185,7.6715 16.774695,7.2453 17.214205,6.8191 17.813545,6.8191 18.412875,6.8191 18.832405,7.2453 19.251945,7.6715 19.251945,8.2708 19.251945,8.8701 18.832405,9.303 18.412875,9.7358 17.813545,9.7358 17.214205,9.7358 16.774695,9.303 16.335185,8.8701 16.335185,8.2708 Z"
     id="path100" />
</svg>
