<?xml version="1.0" encoding="UTF-8" standalone="no"?>
<!-- Created with Inkscape (http://www.inkscape.org/) -->

<svg
   xmlns:dc="http://purl.org/dc/elements/1.1/"
   xmlns:cc="http://creativecommons.org/ns#"
   xmlns:rdf="http://www.w3.org/1999/02/22-rdf-syntax-ns#"
   xmlns:svg="http://www.w3.org/2000/svg"
   xmlns="http://www.w3.org/2000/svg"
   xmlns:sodipodi="http://sodipodi.sourceforge.net/DTD/sodipodi-0.dtd"
   xmlns:inkscape="http://www.inkscape.org/namespaces/inkscape"
   version="1.1"
   width="24"
   height="24"
   id="svg4460"
   inkscape:version="0.91 r13725"
   sodipodi:docname="face-cuir.svg">
  <sodipodi:namedview
     pagecolor="#ffffff"
     bordercolor="#666666"
     borderopacity="1"
     objecttolerance="10"
     gridtolerance="10"
     guidetolerance="10"
     inkscape:pageopacity="0"
     inkscape:pageshadow="2"
     inkscape:window-width="1280"
     inkscape:window-height="972"
     id="namedview11"
     showgrid="false"
     inkscape:zoom="0.21728802"
     inkscape:cx="-254.03195"
     inkscape:cy="209.89923"
     inkscape:window-x="-8"
     inkscape:window-y="-8"
     inkscape:window-maximized="1"
     inkscape:current-layer="svg4460" />
  <defs
     id="defs4462" />
  <metadata
     id="metadata4465">
    <rdf:RDF>
      <cc:Work
         rdf:about="">
        <dc:format>image/svg+xml</dc:format>
        <dc:type
           rdf:resource="http://purl.org/dc/dcmitype/StillImage" />
        <dc:title></dc:title>
      </cc:Work>
    </rdf:RDF>
  </metadata>
  <path
     inkscape:connector-curvature="0"
     unicode="l"
     horiz-adv-x="1753"
     d="M 2.2166,13.9461 Q 2.2166,19.6196 3.65475,21.5855 4.48598,22.7202 7.03243,23.3799 9.38098,24 12.29686,24 15.00165,24 17.1127,23.459 19.40846,22.8917 20.31885,21.8626 21.7834,20.1605 21.7834,14.685 L 21.7834,14.4871 Q 20.87301,14.3683 19.97581,14.2628 L 19.97581,15.2655 18.84112,15.2655 18.84112,14.1045 Q 17.37658,13.867 16.37383,13.6427 L 15.85926,14.5399 14.86971,13.9725 15.21275,13.3524 Q 14.48708,13.1149 14.24959,12.8906 13.81418,12.5607 13.48433,10.0539 L 12.48158,10.1067 12.4288,8.9456 13.37878,8.9192 Q 13.27322,7.89 13.19406,6.597 L 11.98021,6.7026 11.86146,5.5415 13.1149,5.436 Q 13.06212,4.4596 12.99615,3.2721 L 11.67674,3.2721 11.67674,2.1374 12.94337,2.1374 Q 12.91699,1.1347 12.86421,0.0528 12.11215,0 11.34689,0 6.70258,0 5.02694,2.0847 3.65475,3.7603 2.8895,7.2435 2.2166,10.3837 2.2166,13.9461 Z M 5.1061,9.5129 Q 5.1061,8.9192 5.52831,8.497 5.95052,8.0748 6.54425,8.0748 7.13799,8.0748 7.56679,8.497 7.9956,8.9192 7.9956,9.5129 7.9956,10.133 7.56679,10.5553 7.13799,10.9775 6.54425,10.9775 5.95052,10.9775 5.52831,10.5553 5.1061,10.133 5.1061,9.5129 Z M 5.13249,16.3474 Q 7.58658,17.6668 11.65036,17.8648 16.03078,17.8648 19.56679,16.7301 17.73282,20.055 11.80868,20.3189 10.13304,20.2397 8.86641,19.8307 5.79219,18.8279 5.13249,16.3474 Z M 13.45794,0.1056 13.53711,2.1374 14.53985,2.1374 14.53985,3.2721 13.56349,3.2721 Q 13.61627,4.3277 13.70863,5.3832 L 14.89609,5.2776 15.00165,6.4387 13.76141,6.5443 Q 13.86696,7.8373 13.94612,8.8664 L 15.18636,8.8136 15.23914,9.9747 14.07806,10.0275 Q 14.31556,12.2177 14.56624,12.4222 14.81693,12.6267 15.51622,12.8378 L 16.13634,11.7031 17.13909,12.2705 16.67729,13.1017 Q 17.57449,13.3128 18.84112,13.5107 L 18.84112,12.6267 19.97581,12.6267 19.97581,13.669 Q 20.89939,13.801 21.7834,13.9197 21.73062,10.4101 21.1105,7.1644 20.46399,3.8131 19.56679,2.5992 18.19461,0.6861 13.45794,0.1056 Z M 16.51896,8.4838 Q 16.51896,7.89 16.93458,7.4612 17.35019,7.0324 17.94392,7.0324 18.56404,7.0324 18.98625,7.4612 19.40846,7.89 19.40846,8.4838 19.40846,9.0775 18.98625,9.4997 18.56404,9.9219 17.94392,9.9219 17.35019,9.9219 16.93458,9.4997 16.51896,9.0775 16.51896,8.4838 Z"
     id="path164" />
</svg>
