<?xml version="1.0" encoding="UTF-8" standalone="no"?>
<!-- Created with Inkscape (http://www.inkscape.org/) -->

<svg
   xmlns:dc="http://purl.org/dc/elements/1.1/"
   xmlns:cc="http://creativecommons.org/ns#"
   xmlns:rdf="http://www.w3.org/1999/02/22-rdf-syntax-ns#"
   xmlns:svg="http://www.w3.org/2000/svg"
   xmlns="http://www.w3.org/2000/svg"
   xmlns:sodipodi="http://sodipodi.sourceforge.net/DTD/sodipodi-0.dtd"
   xmlns:inkscape="http://www.inkscape.org/namespaces/inkscape"
   version="1.1"
   width="24"
   height="24"
   id="svg4460"
   inkscape:version="0.91 r13725"
   sodipodi:docname="fantome-citrouille.svg">
  <sodipodi:namedview
     pagecolor="#ffffff"
     bordercolor="#666666"
     borderopacity="1"
     objecttolerance="10"
     gridtolerance="10"
     guidetolerance="10"
     inkscape:pageopacity="0"
     inkscape:pageshadow="2"
     inkscape:window-width="1280"
     inkscape:window-height="972"
     id="namedview11"
     showgrid="false"
     inkscape:zoom="0.30729166"
     inkscape:cx="272.42107"
     inkscape:cy="-283.84087"
     inkscape:window-x="-8"
     inkscape:window-y="-8"
     inkscape:window-maximized="1"
     inkscape:current-layer="svg4460" />
  <defs
     id="defs4462" />
  <metadata
     id="metadata4465">
    <rdf:RDF>
      <cc:Work
         rdf:about="">
        <dc:format>image/svg+xml</dc:format>
        <dc:type
           rdf:resource="http://purl.org/dc/dcmitype/StillImage" />
        <dc:title></dc:title>
      </cc:Work>
    </rdf:RDF>
  </metadata>
  <path
     inkscape:connector-curvature="0"
     unicode="I"
     horiz-adv-x="1630"
     d="M 2.88692,8.7273 Q 2.88692,9.3259 2.99335,9.9246 3.40577,12.3725 5.2816,14.1951 6.97118,15.8581 8.42129,15.8581 8.58093,15.8581 8.76719,15.8049 6.89135,17.1353 6.53215,18.3991 6.50555,18.5588 6.50555,18.7184 6.50555,19.6763 7.64967,19.6763 7.86253,19.6763 8.14191,19.6231 L 6.65189,24 Q 8.04878,23.0554 9.29934,23.0554 L 9.33925,23.0554 Q 9.83149,23.0554 10.16408,23.1619 11.30821,23.6541 12.58537,23.6541 13.72949,23.6541 14.54102,23.2417 15.00665,23.0288 15.71175,23.0288 16.52328,23.0288 17.34812,23.3149 18.17295,23.6009 18.38581,23.9202 17.70732,19.4235 14.90022,15.6984 15.23282,15.8581 15.5255,15.8581 16.97561,15.8581 18.63858,14.1951 20.4612,12.3725 20.98005,9.9246 21.11308,9.2461 21.11308,8.5809 21.11308,6.2927 19.73614,4.6031 18.3592,2.9135 16.77606,2.9135 15.65854,2.9135 14.68736,3.8182 14.00887,3.2993 13.21064,3.0865 13.051,0.9579 11.33481,0 L 10.13747,0.8514 Q 11.30821,1.6098 11.49446,2.9667 10.32373,3.0998 9.31264,3.8448 8.30155,2.9135 7.15743,2.9135 5.54767,2.9135 4.27051,4.6031 2.88692,6.3459 2.88692,8.7273 Z M 6.31929,6.8115 10.2173,8.1552 Q 9.72506,9.4856 8.4479,9.4856 8.08869,9.4856 7.82262,9.3792 6.29269,8.7539 6.29269,7.2373 6.29269,7.0377 6.31929,6.8115 Z M 6.81153,10.7894 8.55433,11.9601 9.96453,10.7894 11.88027,12.133 13.86253,10.7095 15.41907,12.0399 17.24169,10.8958 16.43016,12.612 7.46342,12.612 Z M 9.77827,15.153 9.8581,15.0732 9.8847,15.0998 Q 9.8581,15.1264 9.77827,15.153 Z M 14.03548,8.1552 17.92018,6.8115 Q 17.94679,7.0111 17.94679,7.2106 17.94679,8.7406 16.43016,9.3792 16.12417,9.4856 15.80488,9.4856 14.50111,9.4856 14.03548,8.1552 Z"
     id="path94" />
</svg>
