<?xml version="1.0" encoding="UTF-8" standalone="no"?>
<!-- Created with Inkscape (http://www.inkscape.org/) -->

<svg
   xmlns:dc="http://purl.org/dc/elements/1.1/"
   xmlns:cc="http://creativecommons.org/ns#"
   xmlns:rdf="http://www.w3.org/1999/02/22-rdf-syntax-ns#"
   xmlns:svg="http://www.w3.org/2000/svg"
   xmlns="http://www.w3.org/2000/svg"
   xmlns:sodipodi="http://sodipodi.sourceforge.net/DTD/sodipodi-0.dtd"
   xmlns:inkscape="http://www.inkscape.org/namespaces/inkscape"
   version="1.1"
   width="24"
   height="24"
   id="svg4460"
   inkscape:version="0.91 r13725"
   sodipodi:docname="fantome.svg">
  <sodipodi:namedview
     pagecolor="#ffffff"
     bordercolor="#666666"
     borderopacity="1"
     objecttolerance="10"
     gridtolerance="10"
     guidetolerance="10"
     inkscape:pageopacity="0"
     inkscape:pageshadow="2"
     inkscape:window-width="1280"
     inkscape:window-height="972"
     id="namedview11"
     showgrid="false"
     inkscape:zoom="13.906433"
     inkscape:cx="3.3585776"
     inkscape:cy="2.9536354"
     inkscape:window-x="-8"
     inkscape:window-y="-8"
     inkscape:window-maximized="1"
     inkscape:current-layer="svg4460" />
  <defs
     id="defs4462" />
  <metadata
     id="metadata4465">
    <rdf:RDF>
      <cc:Work
         rdf:about="">
        <dc:format>image/svg+xml</dc:format>
        <dc:type
           rdf:resource="http://purl.org/dc/dcmitype/StillImage" />
        <dc:title></dc:title>
      </cc:Work>
    </rdf:RDF>
  </metadata>
  <path
     id="path3696"
     style="fill:#ffa500;fill-opacity:1;stroke:none"
     d="M 1.34397,14.390325 Q 1.34397,13.235726 3.460743,12.129226 3.316418,11.143026 3.268309,10.012426 3.123984,5.3339257 5.529408,2.6879257 7.718344,0.29452573 11.446752,0.02992573 15.139078,-0.27077427 17.91734,2.4474257 20.90007,5.3339257 20.90007,9.9884257 20.90007,10.878426 20.7798,11.804526 22.65603,12.886926 22.65603,13.921226 22.65603,14.270025 22.3794,14.618825 21.98251,15.087925 21.41723,15.087925 20.87601,15.087925 20.16641,14.618825 20.16641,14.666925 20.11831,14.739125 19.13208,17.060325 17.32801,18.852425 12.99825,23.110025 5.288866,24.000025 7.309422,22.304125 7.153069,20.524125 6.912527,19.092925 5.902249,17.565525 4.543184,15.568925 4.206425,14.787225 3.292364,15.581025 2.546682,15.581025 1.981407,15.581025 1.620594,15.087925 1.34397,14.763125 1.34397,14.390325 Z M 7.285368,9.4712257 Q 7.622127,10.529626 8.704568,11.684226 L 9.450249,10.938526 10.749179,12.369726 11.939864,11.070826 13.238793,12.718526 14.080691,10.938526 15.37962,12.249526 16.19746,10.108626 17.62869,11.311326 17.98951,9.3870257 18.63897,9.8561257 Q 18.8314,9.3389257 19.10803,7.9678257 17.48437,9.9162257 13.96042,10.457426 13.467308,10.505526 12.793789,10.505526 9.762955,10.505526 7.285368,9.4712257 Z M 7.622127,7.1500257 Q 7.622127,7.6431257 7.958887,7.9738257 8.295646,8.3046257 8.752676,8.3046257 9.245788,8.3046257 9.582548,7.9738257 9.919307,7.6431257 9.919307,7.1500257 9.919307,6.6809257 9.582548,6.3502257 9.245788,6.0194257 8.752676,6.0194257 8.283619,6.0194257 7.952873,6.3502257 7.622127,6.6809257 7.622127,7.1500257 Z M 15.56003,5.5985257 Q 15.56003,6.0675257 15.89077,6.3983257 16.22152,6.7290257 16.69058,6.7290257 17.15963,6.7290257 17.49038,6.3983257 17.82113,6.0675257 17.82113,5.5985257 17.82113,5.1294257 17.49038,4.7987257 17.15963,4.4679257 16.69058,4.4679257 16.22152,4.4679257 15.89077,4.7987257 15.56003,5.1294257 15.56003,5.5985257 Z"
     inkscape:connector-curvature="0" />
</svg>
