<?xml version="1.0" encoding="UTF-8" standalone="no"?>
<!-- Created with Inkscape (http://www.inkscape.org/) -->

<svg
   xmlns:dc="http://purl.org/dc/elements/1.1/"
   xmlns:cc="http://creativecommons.org/ns#"
   xmlns:rdf="http://www.w3.org/1999/02/22-rdf-syntax-ns#"
   xmlns:svg="http://www.w3.org/2000/svg"
   xmlns="http://www.w3.org/2000/svg"
   xmlns:sodipodi="http://sodipodi.sourceforge.net/DTD/sodipodi-0.dtd"
   xmlns:inkscape="http://www.inkscape.org/namespaces/inkscape"
   version="1.1"
   width="24"
   height="24"
   id="svg4460"
   inkscape:version="0.91 r13725"
   sodipodi:docname="lezard.svg">
  <sodipodi:namedview
     pagecolor="#ffffff"
     bordercolor="#666666"
     borderopacity="1"
     objecttolerance="10"
     gridtolerance="10"
     guidetolerance="10"
     inkscape:pageopacity="0"
     inkscape:pageshadow="2"
     inkscape:window-width="1280"
     inkscape:window-height="972"
     id="namedview11"
     showgrid="false"
     inkscape:zoom="0.25356886"
     inkscape:cx="-347.30226"
     inkscape:cy="-513.50533"
     inkscape:window-x="-8"
     inkscape:window-y="-8"
     inkscape:window-maximized="1"
     inkscape:current-layer="svg4460" />
  <defs
     id="defs4462" />
  <metadata
     id="metadata4465">
    <rdf:RDF>
      <cc:Work
         rdf:about="">
        <dc:format>image/svg+xml</dc:format>
        <dc:type
           rdf:resource="http://purl.org/dc/dcmitype/StillImage" />
        <dc:title></dc:title>
      </cc:Work>
    </rdf:RDF>
  </metadata>
  <path
     inkscape:connector-curvature="0"
     unicode="p"
     horiz-adv-x="2314"
     d="M 24,11.09235 22.69698,11.59345 22.80835,12.89655 21.71694,12.67375 21.1935,13.72065 20.65893,11.93875 19.2,11.09235 17.60742,12.82965 Q 18.04176,12.76285 18.4761,12.76285 20.3471,12.76285 21.65012,14.24405 22.80835,15.56935 22.80835,17.44035 22.80835,19.35595 21.73921,20.49185 20.258,22.03985 17.90812,22.03985 16.62738,22.03985 15.44687,21.47195 14.33318,20.94845 13.6761,19.75685 13.11926,18.76565 13.11926,17.66305 13.11926,17.46265 13.14153,17.25105 L 10.88074,18.48725 11.33736,20.12435 12.9522,21.03755 11.81624,21.31595 11.77169,22.40745 10.5355,21.99535 9.74478,23.14245 9.23248,21.36055 Q 8.7536,20.46955 8.48631,18.85475 8.47517,18.79905 8.47517,18.74335 8.47517,17.61855 11.97216,16.57165 9.32158,15.70305 7.61763,14.28865 7.46172,15.11275 7.13875,15.41905 6.81578,15.72525 6.06961,15.72525 5.00046,15.72525 3.4413,15.02365 L 2.89559,16.90575 2.34988,15.65845 1.04687,15.85895 1.45893,14.48905 0,14.13275 1.13596,13.30855 Q 1.63712,12.94105 2.43898,12.85195 2.8065,12.87425 3.28538,12.98565 4.46589,13.30855 6.04733,14.19955 L 6.29234,12.89655 Q 5.11183,11.25935 5.11183,9.17675 5.11183,8.60885 5.20093,7.99625 5.70209,4.79995 8.89838,2.72855 11.79397,0.85755 15.10162,0.85755 17.34014,0.85755 18.69884,1.79305 20.26914,2.90675 20.28028,4.12065 20.28028,4.75545 19.87935,5.17865 19.47842,5.60185 18.99954,5.60185 18.45383,5.60185 18.45383,5.16755 18.45383,5.03385 18.5652,4.64405 18.67657,4.25425 18.67657,4.02045 18.67657,2.95125 16.6051,2.36105 15.92575,2.18285 15.14617,2.17165 13.43109,2.17165 11.56009,3.25195 9.44408,4.48815 9.44408,6.10305 9.44408,6.62645 9.92297,7.08305 10.26821,7.40605 11.22599,7.99625 L 13.18608,8.26355 Q 12.96334,7.04965 12.9522,6.10305 12.9522,5.01155 13.23063,4.49925 13.38654,4.22085 14.1884,3.54155 L 15.36891,2.79535 15.19072,4.27655 16.62738,4.38795 15.94803,5.53505 16.92807,6.49275 14.55592,6.39255 Q 14.71183,7.17215 14.71183,7.78465 14.71183,9.28815 13.95452,9.72245 L 13.82088,9.76705 Q 15.30209,10.92525 16.53828,12.48445 18.63202,8.80925 19.86821,8.80925 20.00186,8.80925 20.11323,8.86495 20.54756,9.06545 20.93736,9.26585 21.85058,9.78935 22.37401,10.32385 Z M 20.88724,15.43015 Q 20.65893,15.17955 20.32483,15.17955 19.56752,15.17955 19.56752,15.94805 19.56752,16.27095 19.80696,16.52155 20.0464,16.77215 20.36937,16.77215 21.11555,16.77215 21.11555,16.02595 21.11555,15.68075 20.88724,15.43015 Z M 17.08399,19.62315 Q 17.08399,19.30025 16.84455,19.04965 16.6051,18.79905 16.28213,18.79905 15.53596,18.79905 15.53596,19.55635 15.53596,19.90165 15.7587,20.15215 15.98144,20.40275 16.32668,20.40275 17.08399,20.40275 17.08399,19.62315 Z"
     id="path172" />
</svg>
