<?xml version="1.0" encoding="UTF-8" standalone="no"?>
<!-- Created with Inkscape (http://www.inkscape.org/) -->

<svg
   xmlns:dc="http://purl.org/dc/elements/1.1/"
   xmlns:cc="http://creativecommons.org/ns#"
   xmlns:rdf="http://www.w3.org/1999/02/22-rdf-syntax-ns#"
   xmlns:svg="http://www.w3.org/2000/svg"
   xmlns="http://www.w3.org/2000/svg"
   xmlns:sodipodi="http://sodipodi.sourceforge.net/DTD/sodipodi-0.dtd"
   xmlns:inkscape="http://www.inkscape.org/namespaces/inkscape"
   version="1.1"
   width="24"
   height="24"
   id="svg4460"
   inkscape:version="0.91 r13725"
   sodipodi:docname="prisonnier.svg">
  <sodipodi:namedview
     pagecolor="#ffffff"
     bordercolor="#666666"
     borderopacity="1"
     objecttolerance="10"
     gridtolerance="10"
     guidetolerance="10"
     inkscape:pageopacity="0"
     inkscape:pageshadow="2"
     inkscape:window-width="1280"
     inkscape:window-height="972"
     id="namedview11"
     showgrid="false"
     inkscape:zoom="13.906433"
     inkscape:cx="3.3585776"
     inkscape:cy="2.9536354"
     inkscape:window-x="-8"
     inkscape:window-y="-8"
     inkscape:window-maximized="1"
     inkscape:current-layer="svg4460" />
  <defs
     id="defs4462" />
  <metadata
     id="metadata4465">
    <rdf:RDF>
      <cc:Work
         rdf:about="">
        <dc:format>image/svg+xml</dc:format>
        <dc:type
           rdf:resource="http://purl.org/dc/dcmitype/StillImage" />
        <dc:title></dc:title>
      </cc:Work>
    </rdf:RDF>
  </metadata>
  <path
     inkscape:connector-curvature="0"
     unicode="|"
     horiz-adv-x="2603"
     d="M 0,17.96807 Q 0,17.06427 0.6336,16.41588 1.2673,15.7675 2.1711,15.7675 3.0946,15.7675 3.7282,16.41097 4.3619,17.05444 4.3619,17.96807 L 4.3619,18.1449 4.5289,18.16455 4.9906,17.70283 Q 5.1871,17.50635 5.472,17.56529 L 6.2972,17.76177 7.0242,17.18215 Q 7.201,17.02497 7.4466,17.05444 L 8.4486,17.26075 Q 8.7139,16.97585 9.0086,16.74007 9.2542,16.0524 9.3524,14.44126 8.3307,14.76545 7.6431,14.76545 6.6607,14.76545 6.5624,14.09742 6.5428,13.97953 6.5428,13.842 6.5428,12.43717 9.1167,11.80843 9.0577,11.58248 8.93,11.1797 L 8.6746,10.29554 Q 8.5763,9.93205 8.5665,9.29349 8.5665,7.31887 9.6963,5.91404 11.4253,3.74294 15.2861,3.74294 19.147,3.74294 20.8072,5.83545 21.7896,7.10274 21.7896,8.89071 21.7896,9.47032 21.6029,10.35448 21.3377,11.60213 21.3279,11.84773 24,12.614 24,14.03848 24,14.94229 22.8997,14.94229 22.212,14.94229 21.1805,14.62792 21.2002,15.71838 21.3868,16.65166 21.4654,16.82849 21.5637,16.9955 22.4085,17.70283 22.4085,18.48874 22.4085,19.69709 20.6598,20.08023 19.9918,20.21777 19.1371,20.21777 16.8678,20.21777 15.9345,19.51044 15.5317,19.2059 15.1879,18.95047 14.7458,19.31396 14.4413,19.60868 13.7929,20.25706 11.386,20.25706 9.9419,20.25706 9.1167,20.01146 8.7335,19.91322 8.4879,19.77569 8.0262,19.49079 7.9083,19.04871 7.869,18.85223 7.869,18.64593 7.869,18.44945 7.928,18.20385 L 7.4859,18.12526 6.7589,18.70487 Q 6.5624,18.86206 6.3168,18.81294 L 5.5113,18.62628 5.0692,19.08801 Q 4.8727,19.26484 4.6075,19.23537 L 4.0475,19.1273 Q 3.3991,20.149 2.1711,20.15882 1.2673,20.15882 0.6336,19.51535 0,18.87188 0,17.96807 Z M 0.8645,17.62423 Q 0.8645,17.90913 1.0757,18.11543 1.2869,18.32174 1.5718,18.32174 1.8567,18.32174 2.063,18.11052 2.2693,17.89931 2.2693,17.62423 2.2693,17.31969 2.0581,17.1183 1.8469,16.91691 1.5718,16.91691 1.2673,16.91691 1.0659,17.1183 0.8645,17.31969 0.8645,17.62423 Z M 9.9615,9.73557 Q 9.9812,9.84364 10.0008,10.00082 L 10.2169,10.73762 Q 10.3348,11.08146 10.5411,11.82808 12.8301,12.17192 15.3942,12.23086 17.9091,12.27016 19.9329,11.86738 20.0311,10.94392 20.2964,9.87311 18.4298,10.29554 15.2665,10.29554 11.946,10.29554 9.9615,9.73557 Z M 10.4625,16.61236 Q 12.3291,17.03479 15.2665,16.9955 18.0467,16.97585 20.0016,16.61236 19.8445,15.7282 19.815,14.76545 17.7028,15.12894 15.2665,15.14859 12.8301,15.16824 10.6983,14.7851 10.6197,15.87556 10.4625,16.61236 Z M 11.6512,7.10274 Q 11.6512,7.46623 11.8919,7.70692 12.1326,7.94761 12.4961,7.94761 12.84,7.94761 13.0905,7.70201 13.341,7.45641 13.341,7.10274 13.341,6.7589 13.0905,6.50839 12.84,6.25788 12.4961,6.25788 12.1326,6.25788 11.8919,6.50839 11.6512,6.7589 11.6512,7.10274 Z M 16.9562,6.47401 Q 16.9562,6.81785 17.2116,7.06836 17.467,7.31887 17.8011,7.31887 18.1449,7.31887 18.3954,7.06836 18.6459,6.81785 18.6459,6.47401 18.6459,6.11052 18.3954,5.86001 18.1449,5.6095 17.8011,5.6095 17.4572,5.6095 17.2067,5.86001 16.9562,6.11052 16.9562,6.47401 Z"
     id="path196" />
</svg>
