<?xml version="1.0" encoding="UTF-8" standalone="no"?>
<!-- Created with Inkscape (http://www.inkscape.org/) -->

<svg
   xmlns:dc="http://purl.org/dc/elements/1.1/"
   xmlns:cc="http://creativecommons.org/ns#"
   xmlns:rdf="http://www.w3.org/1999/02/22-rdf-syntax-ns#"
   xmlns:svg="http://www.w3.org/2000/svg"
   xmlns="http://www.w3.org/2000/svg"
   xmlns:sodipodi="http://sodipodi.sourceforge.net/DTD/sodipodi-0.dtd"
   xmlns:inkscape="http://www.inkscape.org/namespaces/inkscape"
   version="1.1"
   width="24"
   height="24"
   id="svg4460"
   inkscape:version="0.91 r13725"
   sodipodi:docname="diable.svg">
  <sodipodi:namedview
     pagecolor="#ffffff"
     bordercolor="#666666"
     borderopacity="1"
     objecttolerance="10"
     gridtolerance="10"
     guidetolerance="10"
     inkscape:pageopacity="0"
     inkscape:pageshadow="2"
     inkscape:window-width="1280"
     inkscape:window-height="972"
     id="namedview11"
     showgrid="false"
     inkscape:zoom="0.71720103"
     inkscape:cx="-176.69654"
     inkscape:cy="-114.98501"
     inkscape:window-x="-8"
     inkscape:window-y="-8"
     inkscape:window-maximized="1"
     inkscape:current-layer="svg4460" />
  <defs
     id="defs4462" />
  <metadata
     id="metadata4465">
    <rdf:RDF>
      <cc:Work
         rdf:about="">
        <dc:format>image/svg+xml</dc:format>
        <dc:type
           rdf:resource="http://purl.org/dc/dcmitype/StillImage" />
        <dc:title></dc:title>
      </cc:Work>
    </rdf:RDF>
  </metadata>
  <path
     inkscape:connector-curvature="0"
     unicode="w"
     horiz-adv-x="2277"
     d="M 0,3.62025 1.08271,9.32705 Q 1.15038,9.67665 1.45489,9.87965 1.7594,10.08275 2.1203,10.01505 L 4.34211,9.57515 Q 5.57143,14.93235 6.32707,22.83835 L 8.06391,22.66915 Q 7.95113,21.43985 7.43233,17.33455 8.00752,17.37965 8.59398,17.37965 10.55639,17.37965 12.56391,16.96245 12.40601,17.44735 12.40601,17.98875 12.40601,19.60145 13.66917,20.57145 L 12.49624,22.86085 14.04135,23.66165 15.33835,21.16915 Q 15.49624,21.19175 15.47368,21.19175 15.75564,21.19175 16.04887,21.12405 L 16.8609,23.63905 18.54135,23.08645 17.65038,20.41355 Q 18.7782,21.45115 20.07519,21.45115 L 20.23308,21.45115 Q 21.84586,21.38345 23.09774,19.95115 L 24,21.10145 23.88722,17.72935 20.78571,18.60905 22.03759,19.13905 Q 21.18045,20.08645 20.16541,20.13155 L 20.04135,20.13155 Q 19.1391,20.13155 18.31579,19.18425 18.54135,18.60905 18.54135,17.98875 18.54135,17.59395 18.45113,17.19925 18.80075,17.24435 19.19549,17.24435 20.44737,17.24435 21.6203,16.73685 22.98496,16.13905 23.76316,15.02255 L 22.33083,14.00755 Q 21.82331,14.75185 20.85338,15.16915 20.04135,15.50755 19.26316,15.50755 L 19.21805,15.50755 Q 18.99248,15.50755 18.80075,15.46245 20.30075,14.79695 21.19173,13.64095 22.08271,12.48495 22.08271,11.09775 22.08271,9.18045 20.39098,7.72555 20.18797,5.50375 19.99624,3.31575 19.69173,0.45115 19.19549,0.33835 L 19.16165,0.33835 Q 18.68797,0.33835 18.18045,2.58275 17.36842,6.21425 17.34586,6.29325 16.92857,6.22555 16.53383,6.15785 15.94737,6.06765 15.58647,6.06765 L 15.45113,6.06765 Q 14.57143,6.18045 13.37594,6.33835 12.93609,4.53385 12.49624,2.71805 11.96617,0.56395 11.51504,0.56395 L 11.4812,0.56395 Q 10.92857,0.67665 10.64662,3.57515 10.46617,5.77445 10.27444,7.96245 8.81955,9.34965 8.81955,11.09775 8.81955,12.41725 9.6203,13.52815 10.42105,14.63905 11.77444,15.32705 10.16165,15.63155 8.59398,15.63155 7.88346,15.63155 7.20677,15.56395 6.65414,11.84215 6.04511,9.22555 L 7.99624,8.86465 Q 8.34586,8.79695 8.54887,8.50375 8.75188,8.21055 8.68421,7.87215 L 7.82707,2.16545 6.1015,2.43605 6.83459,7.30825 5.70677,7.52255 4.73684,2.62785 3.02256,2.96615 3.96992,7.87215 2.62782,8.12025 1.70301,3.29325 Z M 10.69173,10.21805 Q 10.69173,9.77815 10.9906,9.46805 11.28947,9.15785 11.72932,9.15785 12.16917,9.15785 12.48496,9.47365 12.80075,9.78945 12.80075,10.21805 12.80075,10.63535 12.48496,10.95115 12.16917,11.26695 11.72932,11.26695 11.28947,11.26695 10.9906,10.95115 10.69173,10.63535 10.69173,10.21805 Z M 12.67669,12.15785 Q 13.69173,12.80075 14.92105,12.81205 16.42105,12.81205 17.85338,11.95485 17.6391,13.53385 15.14662,13.73685 14.50376,13.73685 14.0188,13.56765 12.86842,13.19545 12.67669,12.15785 Z M 17.71805,10.21805 Q 17.71805,9.77815 18.01692,9.46805 18.31579,9.15785 18.75564,9.15785 19.19549,9.15785 19.49436,9.47365 19.79323,9.78945 19.79323,10.21805 19.79323,10.63535 19.49436,10.95115 19.19549,11.26695 18.75564,11.26695 18.31579,11.26695 18.01692,10.95115 17.71805,10.63535 17.71805,10.21805 Z"
     id="path186" />
</svg>
