<?xml version="1.0" encoding="UTF-8" standalone="no"?>
<!-- Created with Inkscape (http://www.inkscape.org/) -->

<svg
   xmlns:dc="http://purl.org/dc/elements/1.1/"
   xmlns:cc="http://creativecommons.org/ns#"
   xmlns:rdf="http://www.w3.org/1999/02/22-rdf-syntax-ns#"
   xmlns:svg="http://www.w3.org/2000/svg"
   xmlns="http://www.w3.org/2000/svg"
   xmlns:sodipodi="http://sodipodi.sourceforge.net/DTD/sodipodi-0.dtd"
   xmlns:inkscape="http://www.inkscape.org/namespaces/inkscape"
   version="1.1"
   width="24"
   height="24"
   id="svg4460"
   inkscape:version="0.91 r13725"
   sodipodi:docname="bouffon-frappeur.svg">
  <sodipodi:namedview
     pagecolor="#ffffff"
     bordercolor="#666666"
     borderopacity="1"
     objecttolerance="10"
     gridtolerance="10"
     guidetolerance="10"
     inkscape:pageopacity="0"
     inkscape:pageshadow="2"
     inkscape:window-width="1280"
     inkscape:window-height="972"
     id="namedview11"
     showgrid="false"
     inkscape:zoom="0.30729166"
     inkscape:cx="-290.56199"
     inkscape:cy="-20.247642"
     inkscape:window-x="-8"
     inkscape:window-y="-8"
     inkscape:window-maximized="1"
     inkscape:current-layer="svg4460" />
  <defs
     id="defs4462" />
  <metadata
     id="metadata4465">
    <rdf:RDF>
      <cc:Work
         rdf:about="">
        <dc:format>image/svg+xml</dc:format>
        <dc:type
           rdf:resource="http://purl.org/dc/dcmitype/StillImage" />
        <dc:title></dc:title>
      </cc:Work>
    </rdf:RDF>
  </metadata>
  <path
     inkscape:connector-curvature="0"
     unicode="@"
     horiz-adv-x="2011"
     d="M 1.18045,14.245494 Q 1.18045,15.037094 2.845,16.084694 4.36986,16.922794 5.89472,17.749194 6.27885,17.981994 6.68626,18.342894 6.68626,19.006394 7.21006,19.017994 7.89684,19.017994 9.35186,17.842294 9.01429,18.889994 9.37514,19.704794 9.51482,20.088894 9.85239,20.368294 9.35186,22.032794 9.28202,22.544994 8.68837,22.777794 8.68837,23.208494 8.68837,23.394694 8.78149,23.545994 9.07249,23.999994 10.05027,23.999994 11.57513,23.999994 11.71482,23.138594 11.80794,22.521694 11.7381,21.020094 12.09894,21.043394 12.42487,20.996794 12.35503,22.521694 12.44815,23.138594 12.58783,23.999994 14.12433,23.999994 15.12539,23.999994 15.38147,23.545994 15.47459,23.406394 15.48623,23.208494 15.48623,22.777794 14.88095,22.544994 14.8111,22.021194 14.2873,20.251894 15.17195,19.518494 14.95079,18.226494 16.1148,19.087794 16.69681,19.087794 17.2439,19.087794 17.2439,18.435994 17.67459,18.005294 18.10528,17.749194 19.63014,16.911094 21.155,16.084694 22.81955,15.037094 22.81955,14.245494 22.81955,13.861394 22.52273,13.552894 22.2259,13.244494 21.86505,13.244494 21.0968,13.244494 19.7931,14.606394 18.67564,15.840194 17.55819,17.085694 17.26718,17.399994 16.92962,17.656094 16.24285,16.724894 14.12433,15.816994 16.10316,15.339694 17.3603,14.245494 18.74549,13.058194 18.74549,11.521694 18.74549,11.067794 18.6058,10.625394 17.96559,8.2857936 16.40581,6.8539936 L 16.58041,3.1407936 19.05977,3.6645936 Q 19.01321,3.8042936 19.01321,3.9206936 19.01321,4.4211936 19.36824,4.7820936 19.72326,5.1428936 20.24707,5.1428936 20.7476,5.1428936 21.10844,4.7820936 21.46929,4.4211936 21.46929,3.9206936 21.46929,3.4201936 21.10844,3.0650936 20.7476,2.7100936 20.24707,2.7100936 19.58358,2.7100936 19.19945,3.2571936 15.98676,-0.17670639 15.03227,0.00959361 14.07777,0.19579361 12.21534,5.1661936 L 12.1455,5.1661936 Q 10.28307,0.20749361 9.32858,0.00959361 8.37408,-0.17670639 5.16139,3.2571936 4.80055,2.7100936 4.13706,2.7100936 3.61325,2.7100936 3.2524,3.0650936 2.89156,3.4201936 2.89156,3.9206936 2.89156,4.4211936 3.2524,4.7820936 3.61325,5.1428936 4.13706,5.1428936 4.63758,5.1428936 4.99261,4.7820936 5.34764,4.4211936 5.34764,3.9206936 5.34764,3.8042936 5.32436,3.6645936 L 7.78043,3.1407936 7.92012,6.3767936 Q 5.75504,7.9015936 5.25451,10.625394 5.18467,11.056094 5.18467,11.451894 5.18467,13.139694 6.46509,14.315394 7.62911,15.386294 9.61958,15.816994 7.64075,16.701594 6.96562,17.586294 5.8016,16.317494 4.63758,15.037094 2.99632,13.244494 2.15823,13.244494 1.7741,13.244494 1.47727,13.552894 1.18045,13.861394 1.18045,14.245494 Z M 7.18678,10.404294 Q 7.18678,9.9502936 7.50689,9.6301936 7.82699,9.3100936 8.28096,9.3100936 8.73493,9.3100936 9.04339,9.6301936 9.35186,9.9502936 9.35186,10.404294 9.35186,10.858194 9.04339,11.178294 8.73493,11.498394 8.28096,11.498394 7.82699,11.498394 7.50689,11.178294 7.18678,10.858194 7.18678,10.404294 Z M 10.28307,12.860294 Q 10.76032,12.976694 11.33069,12.976694 12.49471,12.988394 13.78677,12.627494 13.64709,14.012694 12.21534,14.292094 10.76032,14.338594 10.28307,12.860294 Z M 14.55502,10.357694 Q 14.55502,9.9036936 14.87513,9.5952936 15.19523,9.2867936 15.62592,9.2867936 16.07988,9.2867936 16.39999,9.5952936 16.72009,9.9036936 16.72009,10.357694 16.72009,10.811694 16.39999,11.131794 16.07988,11.451894 15.62592,11.451894 15.19523,11.451894 14.87513,11.131794 14.55502,10.811694 14.55502,10.357694 Z"
     id="path76" />
</svg>
