<?xml version="1.0" encoding="UTF-8" standalone="no"?>
<!-- Created with Inkscape (http://www.inkscape.org/) -->

<svg
   xmlns:dc="http://purl.org/dc/elements/1.1/"
   xmlns:cc="http://creativecommons.org/ns#"
   xmlns:rdf="http://www.w3.org/1999/02/22-rdf-syntax-ns#"
   xmlns:svg="http://www.w3.org/2000/svg"
   xmlns="http://www.w3.org/2000/svg"
   xmlns:sodipodi="http://sodipodi.sourceforge.net/DTD/sodipodi-0.dtd"
   xmlns:inkscape="http://www.inkscape.org/namespaces/inkscape"
   version="1.1"
   width="24"
   height="24"
   id="svg4460"
   inkscape:version="0.91 r13725"
   sodipodi:docname="mort.svg">
  <sodipodi:namedview
     pagecolor="#ffffff"
     bordercolor="#666666"
     borderopacity="1"
     objecttolerance="10"
     gridtolerance="10"
     guidetolerance="10"
     inkscape:pageopacity="0"
     inkscape:pageshadow="2"
     inkscape:window-width="1280"
     inkscape:window-height="972"
     id="namedview11"
     showgrid="false"
     inkscape:zoom="0.25356886"
     inkscape:cx="-347.30226"
     inkscape:cy="-513.50533"
     inkscape:window-x="-8"
     inkscape:window-y="-8"
     inkscape:window-maximized="1"
     inkscape:current-layer="svg4460" />
  <defs
     id="defs4462" />
  <metadata
     id="metadata4465">
    <rdf:RDF>
      <cc:Work
         rdf:about="">
        <dc:format>image/svg+xml</dc:format>
        <dc:type
           rdf:resource="http://purl.org/dc/dcmitype/StillImage" />
        <dc:title></dc:title>
      </cc:Work>
    </rdf:RDF>
  </metadata>
  <path
     inkscape:connector-curvature="0"
     unicode="r"
     horiz-adv-x="2465"
     d="M 24,8.35495 Q 21.08191,5.27305 14.3959,4.53585 L 15.40956,11.95905 Q 16.2901,12.25595 16.2901,13.05465 16.2901,13.65875 15.69625,14.01705 L 16.79181,22.04435 15.25597,22.25945 14.10922,13.99665 Q 14.00683,13.91465 13.91468,13.84305 13.67918,14.44715 12.68601,16.55635 L 12.03072,15.12285 11.25256,16.42325 10.56655,15.06145 Q 10.42321,15.83965 10.18771,16.65875 9.62457,18.63485 8.80546,20.45735 9.10239,20.69285 9.09215,20.95905 9.09215,21.25595 8.80546,21.50175 8.52901,21.66555 8.00683,21.92155 6.72696,22.50515 4.35154,23.32425 L 4.12628,22.74065 2.40614,22.80205 3.58362,21.79865 2.52901,21.62455 3.58362,20.45735 Q 1.80205,15.68605 1.80205,13.41295 L 1.80205,13.21845 Q 1.86348,12.63485 2.15017,12.00005 0,10.44375 0,8.05805 0,5.62115 2.00683,3.19455 4.1058,0.67575 6.43003,0.67575 8.71331,0.67575 10.7099,3.25595 12.61433,5.73385 12.61433,8.21165 12.61433,10.22865 11.00683,11.64165 13.06485,12.08195 13.85324,12.13315 L 12.70648,3.65535 12.51195,2.10925 Q 13.77133,1.81235 14.94881,1.81235 18.91126,1.81235 21.87031,5.07855 23.08874,6.44025 24,8.35495 Z M 11.00683,7.37205 Q 11.00683,5.50855 9.57338,4.21845 8.22184,2.98975 6.33788,2.98975 L 6.30717,2.98975 Q 4.44369,2.98975 3.06143,4.21845 1.61775,5.51875 1.60751,7.37205 1.60751,8.45735 2.34471,9.29695 3.08191,10.13655 4.44369,10.47445 L 4.44369,10.63825 Q 4.44369,10.99665 4.6843,11.26795 4.92491,11.53925 5.28328,11.55975 5.62116,11.60075 5.80546,11.45735 6.06143,11.64165 6.3686,11.64165 6.70648,11.64165 6.9727,11.43685 7.157,11.60075 7.5256,11.55975 7.88396,11.53925 8.12457,11.26795 8.36519,10.99665 8.36519,10.63825 L 8.36519,10.43345 Q 11.00683,9.65535 11.00683,7.37205 Z M 9.59386,7.01365 Q 9.59386,7.63825 9.22014,8.07855 8.84642,8.51875 8.32423,8.51875 7.78157,8.51875 7.40273,8.07855 7.02389,7.63825 7.02389,7.01365 7.02389,6.38905 7.40273,5.94375 7.78157,5.49835 8.32423,5.49835 8.84642,5.49835 9.22014,5.93855 9.59386,6.37885 9.59386,7.01365 Z M 6.87031,9.37885 Q 6.87031,9.79865 6.30717,9.79865 5.82594,9.79865 5.82594,9.44025 5.82594,9.18435 5.98464,8.91815 6.14334,8.65185 6.32764,8.65185 6.49147,8.65185 6.68089,8.89255 6.87031,9.13315 6.87031,9.37885 Z M 5.72355,7.01365 Q 5.72355,7.63825 5.34471,8.07855 4.96587,8.51875 4.44369,8.51875 3.90102,8.51875 3.52218,8.07855 3.14334,7.63825 3.14334,7.01365 3.14334,6.38905 3.52218,5.94375 3.90102,5.49835 4.44369,5.49835 4.96587,5.49835 5.34471,5.93855 5.72355,6.37885 5.72355,7.01365 Z"
     id="path176" />
</svg>
