<?xml version="1.0" encoding="UTF-8" standalone="no"?>
<!-- Created with Inkscape (http://www.inkscape.org/) -->

<svg
   xmlns:dc="http://purl.org/dc/elements/1.1/"
   xmlns:cc="http://creativecommons.org/ns#"
   xmlns:rdf="http://www.w3.org/1999/02/22-rdf-syntax-ns#"
   xmlns:svg="http://www.w3.org/2000/svg"
   xmlns="http://www.w3.org/2000/svg"
   xmlns:sodipodi="http://sodipodi.sourceforge.net/DTD/sodipodi-0.dtd"
   xmlns:inkscape="http://www.inkscape.org/namespaces/inkscape"
   version="1.1"
   width="24"
   height="24"
   id="svg4460"
   inkscape:version="0.91 r13725"
   sodipodi:docname="bouffon.svg">
  <sodipodi:namedview
     pagecolor="#ffffff"
     bordercolor="#666666"
     borderopacity="1"
     objecttolerance="10"
     gridtolerance="10"
     guidetolerance="10"
     inkscape:pageopacity="0"
     inkscape:pageshadow="2"
     inkscape:window-width="1280"
     inkscape:window-height="972"
     id="namedview11"
     showgrid="false"
     inkscape:zoom="0.30729166"
     inkscape:cx="516.48887"
     inkscape:cy="-339.1629"
     inkscape:window-x="-8"
     inkscape:window-y="-8"
     inkscape:window-maximized="1"
     inkscape:current-layer="svg4460" />
  <defs
     id="defs4462" />
  <metadata
     id="metadata4465">
    <rdf:RDF>
      <cc:Work
         rdf:about="">
        <dc:format>image/svg+xml</dc:format>
        <dc:type
           rdf:resource="http://purl.org/dc/dcmitype/StillImage" />
        <dc:title></dc:title>
      </cc:Work>
    </rdf:RDF>
  </metadata>
  <path
     inkscape:connector-curvature="0"
     unicode="T"
     horiz-adv-x="1669"
     d="M 2.90738,5.94035 Q 2.90738,6.70644 3.44741,7.26531 3.98744,7.82418 4.75353,7.82418 5.51962,7.82418 6.0785,7.27159 6.63736,6.719 6.63736,5.94035 6.63736,5.55102 6.48666,5.19937 L 9.04867,4.16954 Q 8.87284,4.65934 8.64678,6.60597 8.49608,8.06279 8.49608,8.86656 8.49608,9.04239 8.50864,9.18053 L 8.89796,9.08006 Q 8.77237,9.67033 8.77237,10.21036 8.77237,12.14443 9.78964,13.63265 10.80691,15.12088 12.62795,15.82418 L 10.36735,17.67033 Q 10.21664,17.64521 10.0785,17.64521 9.62638,17.64521 9.26217,17.94662 8.77237,18.34851 8.77237,19.00157 8.77237,19.46625 9.04867,19.85557 9.46311,20.37049 10.12873,20.37049 10.59341,20.37049 10.98273,20.05652 11.47253,19.66719 11.47253,19.03925 L 12.16327,18.38619 Q 12.2135,19.51648 12.89168,20.32025 L 12.57771,21.67661 Q 10.98273,21.70173 10.292,22.40502 9.87755,22.8697 9.87755,23.2967 9.87755,23.68603 10.21664,23.94976 L 14.17269,24 Q 14.78807,23.5102 14.78807,22.97017 14.78807,22.48038 14.29828,22.0157 L 14.56201,21.19937 Q 14.71272,21.22449 14.73784,21.22449 14.9639,21.22449 15.22763,21.1617 L 15.45369,22.19152 Q 15.15228,22.56829 15.15228,22.94506 15.15228,23.5102 15.76766,24 L 19.72371,23.94976 Q 20.0628,23.69859 20.0628,23.2967 20.0628,22.85714 19.64835,22.40502 18.98273,21.71429 17.40032,21.71429 L 17.18682,21.71429 16.84773,19.95604 Q 17.33752,19.18995 17.33752,18.23548 L 17.33752,18.21036 18.24176,19.03925 Q 18.24176,19.55416 18.58713,19.94976 18.9325,20.34537 19.44741,20.3956 19.52277,20.40816 19.58556,20.40816 20.0628,20.40816 20.45212,20.10675 20.89168,19.7551 20.94192,19.18995 20.95448,19.08948 20.95448,19.00157 20.95448,18.54945 20.65306,18.18524 20.28886,17.74568 19.72371,17.69545 19.573,17.67033 19.37206,17.69545 L 17.21193,15.7865 Q 18.88226,15.34694 19.98744,13.99058 21.09262,12.63422 21.09262,10.80063 21.09262,9.59498 20.67818,8.25746 20.26374,6.91994 19.54788,6.14129 L 20.13815,5.99058 Q 17.14914,2.03454 13.29357,0 10.54317,0.10047 8.92308,0.97959 7.79278,1.67033 5.73313,4.34537 5.26845,4.09419 4.75353,4.09419 3.98744,4.09419 3.44741,4.63422 2.90738,5.17425 2.90738,5.94035 Z M 11.32182,10.10989 Q 11.32182,9.67033 11.65463,9.33752 11.98744,9.00471 12.45212,9.00471 12.9168,9.00471 13.23705,9.33752 13.5573,9.67033 13.5573,10.10989 13.5573,10.57457 13.23705,10.90738 12.9168,11.24019 12.45212,11.24019 11.98744,11.24019 11.65463,10.90738 11.32182,10.57457 11.32182,10.10989 Z M 13.5573,12.16954 Q 14.6876,12.78493 15.94349,12.78493 17.14914,12.78493 18.15385,12.14443 18.12873,13.5887 16.33281,13.7394 15.69231,13.7394 15.15228,13.57614 13.89639,13.18681 13.5573,12.16954 Z M 17.1617,8.74097 Q 17.1617,8.2763 17.49451,7.95604 17.82732,7.63579 18.292,7.63579 18.75667,7.63579 19.07693,7.95604 19.39718,8.2763 19.39718,8.74097 19.39718,9.20565 19.07693,9.5259 18.75667,9.84615 18.292,9.84615 17.82732,9.84615 17.49451,9.5259 17.1617,9.20565 17.1617,8.74097 Z"
     id="path116" />
</svg>
