<?xml version="1.0" encoding="UTF-8" standalone="no"?>
<!-- Created with Inkscape (http://www.inkscape.org/) -->

<svg
   xmlns:dc="http://purl.org/dc/elements/1.1/"
   xmlns:cc="http://creativecommons.org/ns#"
   xmlns:rdf="http://www.w3.org/1999/02/22-rdf-syntax-ns#"
   xmlns:svg="http://www.w3.org/2000/svg"
   xmlns="http://www.w3.org/2000/svg"
   xmlns:sodipodi="http://sodipodi.sourceforge.net/DTD/sodipodi-0.dtd"
   xmlns:inkscape="http://www.inkscape.org/namespaces/inkscape"
   version="1.1"
   width="24"
   height="24"
   id="svg4460"
   inkscape:version="0.91 r13725"
   sodipodi:docname="bonhomme.svg">
  <sodipodi:namedview
     pagecolor="#ffffff"
     bordercolor="#666666"
     borderopacity="1"
     objecttolerance="10"
     gridtolerance="10"
     guidetolerance="10"
     inkscape:pageopacity="0"
     inkscape:pageshadow="2"
     inkscape:window-width="1280"
     inkscape:window-height="972"
     id="namedview11"
     showgrid="false"
     inkscape:zoom="0.25356886"
     inkscape:cx="-347.30226"
     inkscape:cy="-513.50533"
     inkscape:window-x="-8"
     inkscape:window-y="-8"
     inkscape:window-maximized="1"
     inkscape:current-layer="svg4460" />
  <defs
     id="defs4462" />
  <metadata
     id="metadata4465">
    <rdf:RDF>
      <cc:Work
         rdf:about="">
        <dc:format>image/svg+xml</dc:format>
        <dc:type
           rdf:resource="http://purl.org/dc/dcmitype/StillImage" />
        <dc:title></dc:title>
      </cc:Work>
    </rdf:RDF>
  </metadata>
  <path
     inkscape:connector-curvature="0"
     unicode="t"
     horiz-adv-x="1619"
     d="M 3.08466,16.4885 Q 3.08466,17.0426 3.47255,17.4366 3.86044,17.8307 4.41457,17.8307 5.25193,17.8307 5.59672,17.0795 L 7.08671,16.6485 Q 6.96357,17.0795 6.96357,17.4982 6.96357,18.5818 7.56696,19.3946 L 6.74192,19.9733 Q 5.96614,19.0375 5.15341,18.9143 L 4.98102,18.9143 Q 3.94664,18.9143 3.88507,19.7517 L 6.10159,22.9287 Q 6.29862,22.9779 6.55721,22.9779 7.7763,22.9779 7.7763,21.7096 L 7.7763,21.5865 7.6901,21.4141 9.08158,20.3797 Q 9.30323,20.4289 9.51257,20.4289 9.84505,20.4289 10.14059,20.3304 10.28835,20.4043 11.39661,21.1062 10.90405,21.9559 10.90405,22.6701 10.90405,22.8302 10.92868,22.9779 11.50744,24 11.9138,24 11.95075,24 11.98769,23.9877 L 14.1057,21.0077 Q 14.00718,19.4684 13.09595,19.4684 12.8743,19.4684 12.68343,19.5546 12.49256,19.6408 12.40636,19.7024 12.45562,19.727 12.49256,19.727 12.46793,19.7517 12.45562,19.7763 12.02463,19.4684 11.85223,19.4438 11.67984,19.4192 11.53207,19.2714 12.06157,18.4956 12.06157,17.4982 12.06157,17.3504 12.03694,17.1288 L 13.12058,17.5228 Q 13.36686,18.5326 14.40123,18.5326 14.95536,18.5326 15.34941,18.1447 15.74346,17.7568 15.74346,17.2027 15.74346,16.2914 14.88148,15.9343 14.64751,15.8481 14.41355,15.8481 L 13.87173,15.959 11.70446,15.0847 Q 13.3176,14.8014 14.32735,13.1637 15.28784,11.6244 15.28784,9.765 15.28784,9.2355 15.18933,8.6814 L 15.53412,8.7799 Q 15.54643,8.6075 15.54643,8.3858 15.54643,7.6224 15.41098,6.3294 15.31247,5.3935 15.02925,3.9897 L 17.50436,4.9749 Q 17.35659,5.3073 17.35659,5.6768 17.35659,6.4033 17.87378,6.9328 18.39097,7.4623 19.1175,7.4623 19.86865,7.4623 20.392,6.9328 20.91534,6.4033 20.91534,5.6768 20.91534,4.9502 20.392,4.4146 19.86865,3.8789 19.1175,3.8789 18.63725,3.8789 18.20626,4.1621 16.23602,1.5885 15.14007,0.9359 14.70908,0.6896 14.13032,0.5049 12.73884,0.0739 10.97794,0 9.89431,0.5541 8.85993,1.3422 6.36019,3.1524 4.4392,5.7014 L 4.99333,5.8492 Q 3.57722,7.4377 3.47871,10.0852 L 3.47871,10.3191 Q 3.47871,11.9938 4.48846,13.2868 5.42432,14.4936 6.79118,14.9615 L 5.17804,15.4048 Q 4.82093,15.1585 4.41457,15.1585 3.86044,15.1585 3.47255,15.5464 3.08466,15.9343 3.08466,16.4885 Z M 5.44895,8.5459 Q 5.44895,8.1149 5.76296,7.8009 6.07696,7.4869 6.50795,7.4869 6.96357,7.4869 7.27758,7.8071 7.59159,8.1272 7.59159,8.5459 7.59159,9.0015 7.27758,9.3155 6.96357,9.6296 6.50795,9.6296 6.07696,9.6296 5.76296,9.3155 5.44895,9.0015 5.44895,8.5459 Z M 7.06208,11.6491 Q 7.94869,12.1539 8.79836,12.1539 10.05439,12.1539 11.00257,11.1934 10.69472,13.0898 8.98307,13.1637 8.4782,13.1144 8.09646,12.942 7.18522,12.5357 7.06208,11.6491 Z M 11.24885,9.765 Q 11.24885,9.334 11.55054,9.02 11.85223,8.706 12.30785,8.706 12.73884,8.706 13.05285,9.02 13.36686,9.334 13.36686,9.765 13.36686,10.2206 13.05285,10.5223 12.73884,10.824 12.30785,10.824 11.85223,10.824 11.55054,10.5223 11.24885,10.2206 11.24885,9.765 Z"
     id="path180" />
</svg>
