<?xml version="1.0" encoding="UTF-8" standalone="no"?>
<!-- Created with Inkscape (http://www.inkscape.org/) -->

<svg
   xmlns:dc="http://purl.org/dc/elements/1.1/"
   xmlns:cc="http://creativecommons.org/ns#"
   xmlns:rdf="http://www.w3.org/1999/02/22-rdf-syntax-ns#"
   xmlns:svg="http://www.w3.org/2000/svg"
   xmlns="http://www.w3.org/2000/svg"
   xmlns:sodipodi="http://sodipodi.sourceforge.net/DTD/sodipodi-0.dtd"
   xmlns:inkscape="http://www.inkscape.org/namespaces/inkscape"
   version="1.1"
   width="24"
   height="24"
   id="svg4460"
   inkscape:version="0.91 r13725"
   sodipodi:docname="fantomee-lapin.svg">
  <sodipodi:namedview
     pagecolor="#ffffff"
     bordercolor="#666666"
     borderopacity="1"
     objecttolerance="10"
     gridtolerance="10"
     guidetolerance="10"
     inkscape:pageopacity="0"
     inkscape:pageshadow="2"
     inkscape:window-width="1280"
     inkscape:window-height="972"
     id="namedview11"
     showgrid="false"
     inkscape:zoom="0.30729167"
     inkscape:cx="81.107252"
     inkscape:cy="-63.814506"
     inkscape:window-x="-8"
     inkscape:window-y="-8"
     inkscape:window-maximized="1"
     inkscape:current-layer="svg4460" />
  <defs
     id="defs4462" />
  <metadata
     id="metadata4465">
    <rdf:RDF>
      <cc:Work
         rdf:about="">
        <dc:format>image/svg+xml</dc:format>
        <dc:type
           rdf:resource="http://purl.org/dc/dcmitype/StillImage" />
        <dc:title></dc:title>
      </cc:Work>
    </rdf:RDF>
  </metadata>
  <path
     inkscape:connector-curvature="0"
     unicode="x"
     horiz-adv-x="1603"
     d="M 3.95149,11.0933 Q 3.95149,12.5597 4.94776,13.7966 5.94403,15.0336 7.58955,15.7052 5.94403,16.8022 4.75746,18.459 L 6.12313,19.444 Q 6.78358,18.5261 7.64552,17.7873 7.62313,17.9888 7.62313,18.1567 7.62313,19.9254 9.01119,20.9104 L 8.30597,23.5634 9.9291,24 10.62313,21.459 10.77985,21.4813 Q 10.98134,21.4813 11.2388,21.4366 L 11.69776,24 13.37686,23.709 12.91791,21.1567 Q 14.13806,22.209 15.50373,22.209 16.90298,22.209 18.48134,21.0448 L 18.78358,22.3097 20.04851,19.3209 16.99254,18.8396 17.91045,19.903 Q 16.55597,20.9664 15.51492,20.9664 15.39179,20.9664 15.27985,20.9552 14.29477,20.8209 13.46642,19.9478 13.97015,19.1418 13.97015,18.1567 13.97015,17.8993 13.90298,17.6082 14.86567,18.1343 16.07462,18.9179 L 16.99254,17.5187 Q 15.20149,16.3545 13.94776,15.7052 15.62686,15.0448 16.61754,13.8022 17.60821,12.5597 17.60821,11.0933 17.60821,9.1007 15.85074,7.6119 15.67164,5.3172 15.45895,3.0448 15.15671,0.0896 14.63059,0 L 14.58582,0 Q 14.10448,0 13.60074,2.2948 12.75,6.0336 12.70522,6.1455 10.6903,5.9664 10.77985,5.9552 10.43283,5.9776 8.63059,6.1679 8.19403,4.3097 7.73507,2.4291 7.18656,0.2239 6.71642,0.2239 L 6.68283,0.2239 Q 6.11194,0.3358 5.8097,3.3022 5.63059,5.5746 5.4403,7.8358 3.95149,9.2575 3.95149,11.0933 Z M 5.94403,10.153 Q 5.94403,9.7164 6.26306,9.3974 6.58209,9.0784 7.01865,9.0784 7.47761,9.0784 7.80224,9.3974 8.12686,9.7164 8.12686,10.153 8.12686,10.6119 7.80224,10.9366 7.47761,11.2612 7.01865,11.2612 6.58209,11.2612 6.26306,10.9366 5.94403,10.6119 5.94403,10.153 Z M 7.14179,12.5597 Q 8.28358,12.9739 9.77239,12.9739 12.06716,12.9739 14.47388,12.1231 13.99254,14.2164 10.73507,14.4403 9.77239,14.4179 9.06716,14.2388 7.36567,13.7799 7.14179,12.5597 Z M 13.14179,10.153 Q 13.14179,9.7164 13.46082,9.3974 13.77985,9.0784 14.2388,9.0784 14.67537,9.0784 15,9.3974 15.32462,9.7164 15.32462,10.153 15.32462,10.6119 15,10.9366 14.67537,11.2612 14.2388,11.2612 13.77985,11.2612 13.46082,10.9366 13.14179,10.6119 13.14179,10.153 Z"
     id="path188" />
</svg>
