<?xml version="1.0" encoding="UTF-8" standalone="no"?>
<!-- Created with Inkscape (http://www.inkscape.org/) -->

<svg
   xmlns:dc="http://purl.org/dc/elements/1.1/"
   xmlns:cc="http://creativecommons.org/ns#"
   xmlns:rdf="http://www.w3.org/1999/02/22-rdf-syntax-ns#"
   xmlns:svg="http://www.w3.org/2000/svg"
   xmlns="http://www.w3.org/2000/svg"
   xmlns:sodipodi="http://sodipodi.sourceforge.net/DTD/sodipodi-0.dtd"
   xmlns:inkscape="http://www.inkscape.org/namespaces/inkscape"
   version="1.1"
   width="24"
   height="24"
   id="svg4460"
   inkscape:version="0.91 r13725"
   sodipodi:docname="maison.svg">
  <sodipodi:namedview
     pagecolor="#ffffff"
     bordercolor="#666666"
     borderopacity="1"
     objecttolerance="10"
     gridtolerance="10"
     guidetolerance="10"
     inkscape:pageopacity="0"
     inkscape:pageshadow="2"
     inkscape:window-width="1280"
     inkscape:window-height="972"
     id="namedview11"
     showgrid="false"
     inkscape:zoom="1.2291667"
     inkscape:cx="-129.17741"
     inkscape:cy="-88.440471"
     inkscape:window-x="-8"
     inkscape:window-y="-8"
     inkscape:window-maximized="1"
     inkscape:current-layer="svg4460" />
  <defs
     id="defs4462" />
  <metadata
     id="metadata4465">
    <rdf:RDF>
      <cc:Work
         rdf:about="">
        <dc:format>image/svg+xml</dc:format>
        <dc:type
           rdf:resource="http://purl.org/dc/dcmitype/StillImage" />
        <dc:title></dc:title>
      </cc:Work>
    </rdf:RDF>
  </metadata>
  <path
     inkscape:connector-curvature="0"
     unicode="~"
     horiz-adv-x="2156"
     d="M 0.583625,15.5553 Q 0.583625,17.0442 1.167245,16.9251 1.655585,16.7583 1.774695,16.2462 1.774695,15.9722 1.798515,15.7102 2.143925,16.7583 2.584615,16.7583 3.072955,16.7583 3.537475,15.2695 L 5.681395,23.7261 18.294795,24 20.117125,15.2695 Q 20.676925,17.0203 21.343925,17.0203 21.617865,17.0203 21.772705,16.6868 21.844175,16.5201 21.927545,16.3414 21.975185,16.6154 22.094295,16.8298 22.308685,17.2467 22.808935,17.4134 23.416375,17.5325 23.416375,16.1509 23.416375,15.8293 23.368735,15.4362 L 11.684365,0 0.631265,14.7097 Q 0.583625,15.1742 0.583625,15.5553 Z M 6.824815,15.2457 Q 7.194045,15.5196 7.992065,15.8531 L 8.778165,18.4377 9.707195,16.3414 Q 10.314645,16.4367 10.850625,16.4844 L 11.708195,18.533 12.577665,16.4129 Q 13.066005,16.3653 13.554345,16.2938 L 14.411915,18.2948 15.317125,15.8055 Q 16.067495,15.5672 16.674945,15.2933 16.293795,18.3186 13.947395,19.9266 L 13.197025,18.3424 12.506205,20.4625 Q 12.089335,20.534 11.684365,20.534 11.124565,20.5578 10.612405,20.4387 L 9.850125,18.2948 9.064025,19.8313 Q 8.456575,19.3429 7.992065,18.7117 6.872455,17.199 6.824815,15.2457 Z M 6.896285,13.1494 Q 6.896285,12.661 7.241685,12.3156 7.587095,11.9702 8.075435,11.9702 8.563775,11.9702 8.903225,12.3156 9.242685,12.661 9.242685,13.1494 9.242685,13.6377 8.897275,13.9772 8.551865,14.3166 8.075435,14.3166 7.587095,14.3166 7.241685,13.9772 6.896285,13.6377 6.896285,13.1494 Z M 9.195035,9.9454 9.195035,8.7067 10.755335,8.7067 10.755335,9.9454 9.195035,9.9454 Z M 9.195035,7.3132 9.195035,6.8486 Q 9.635735,6.1459 10.755335,5.8481 L 10.755335,7.2893 Z M 12.530025,9.9454 12.530025,8.6829 14.042685,8.6829 14.042685,9.9454 12.530025,9.9454 Z M 12.530025,7.2893 12.530025,5.8958 Q 12.851615,5.9911 13.113655,6.1221 13.768735,6.4437 14.042685,6.8486 L 14.042685,7.2893 12.530025,7.2893 Z M 13.852115,13.2447 Q 13.852115,12.7563 14.191565,12.4169 14.531015,12.0774 15.019355,12.0774 15.507695,12.0774 15.853105,12.4169 16.198515,12.7563 16.198515,13.2447 16.198515,13.733 15.853105,14.0725 15.507695,14.4119 15.019355,14.4119 14.531015,14.4119 14.191565,14.0725 13.852115,13.733 13.852115,13.2447 Z"
     id="path200" />
</svg>
