<?xml version="1.0" encoding="UTF-8" standalone="no"?>
<!-- Created with Inkscape (http://www.inkscape.org/) -->

<svg
   xmlns:dc="http://purl.org/dc/elements/1.1/"
   xmlns:cc="http://creativecommons.org/ns#"
   xmlns:rdf="http://www.w3.org/1999/02/22-rdf-syntax-ns#"
   xmlns:svg="http://www.w3.org/2000/svg"
   xmlns="http://www.w3.org/2000/svg"
   xmlns:sodipodi="http://sodipodi.sourceforge.net/DTD/sodipodi-0.dtd"
   xmlns:inkscape="http://www.inkscape.org/namespaces/inkscape"
   version="1.1"
   width="24"
   height="24"
   id="svg4460"
   inkscape:version="0.91 r13725"
   sodipodi:docname="plume.svg">
  <sodipodi:namedview
     pagecolor="#ffffff"
     bordercolor="#666666"
     borderopacity="1"
     objecttolerance="10"
     gridtolerance="10"
     guidetolerance="10"
     inkscape:pageopacity="0"
     inkscape:pageshadow="2"
     inkscape:window-width="1280"
     inkscape:window-height="972"
     id="namedview11"
     showgrid="false"
     inkscape:zoom="13.906433"
     inkscape:cx="3.3585776"
     inkscape:cy="2.9536354"
     inkscape:window-x="-8"
     inkscape:window-y="-8"
     inkscape:window-maximized="1"
     inkscape:current-layer="svg4460" />
  <defs
     id="defs4462" />
  <metadata
     id="metadata4465">
    <rdf:RDF>
      <cc:Work
         rdf:about="">
        <dc:format>image/svg+xml</dc:format>
        <dc:type
           rdf:resource="http://purl.org/dc/dcmitype/StillImage" />
        <dc:title></dc:title>
      </cc:Work>
    </rdf:RDF>
  </metadata>
  <path
     id="path3696"
     style="fill:#ffa500;fill-opacity:1;stroke:none"
     d="M 1.7153422e-4,4.19905 Q -0.01280847,2.17425 0.94770153,1.69395 1.4798815,1.43435 1.9860915,1.43435 2.8427715,1.43435 3.8552015,2.25205 4.6469715,3.01785 5.4517315,3.79665 6.0617815,4.35485 8.1580315,6.78855 10.254292,9.22225 10.877322,9.70905 11.500362,10.19575 14.797252,13.15515 L 15.043872,16.12755 15.550082,13.44075 16.796152,14.55705 Q 16.822112,15.51755 16.744242,17.54245 L 17.990312,16.28335 17.587932,17.82795 18.976782,17.98375 18.236922,19.09995 Q 20.261792,20.21625 22.299632,20.81335 23.156302,20.99505 24.000002,21.15085 L 23.818282,22.56565 Q 22.883732,22.40985 21.949172,22.21515 19.846432,21.68295 17.912432,20.67055 L 17.808592,21.20275 16.536562,20.25515 15.627962,21.33255 15.498172,20.21625 14.433812,21.39745 13.369462,20.48885 14.005482,18.23035 13.979522,18.23035 12.201272,20.33305 Q 11.617182,19.95665 11.033082,19.47645 9.6572115,18.30825 8.4500815,16.95835 L 9.4365515,15.28385 7.7102315,16.47805 Q 7.0482515,15.97185 6.2435015,15.21895 4.3354515,13.46675 2.0120515,10.80585 L 3.2970615,8.84585 1.3500815,9.93615 Q 0.84386153,8.94975 0.45447153,7.35315 1.7153422e-4,5.60085 1.7153422e-4,4.19905 Z"
     inkscape:connector-curvature="0" />
</svg>
