<?xml version="1.0" encoding="UTF-8" standalone="no"?>
<!-- Created with Inkscape (http://www.inkscape.org/) -->

<svg
   xmlns:dc="http://purl.org/dc/elements/1.1/"
   xmlns:cc="http://creativecommons.org/ns#"
   xmlns:rdf="http://www.w3.org/1999/02/22-rdf-syntax-ns#"
   xmlns:svg="http://www.w3.org/2000/svg"
   xmlns="http://www.w3.org/2000/svg"
   xmlns:sodipodi="http://sodipodi.sourceforge.net/DTD/sodipodi-0.dtd"
   xmlns:inkscape="http://www.inkscape.org/namespaces/inkscape"
   version="1.1"
   width="24"
   height="24"
   id="svg4460"
   inkscape:version="0.91 r13725"
   sodipodi:docname="potion-mort.svg">
  <sodipodi:namedview
     pagecolor="#ffffff"
     bordercolor="#666666"
     borderopacity="1"
     objecttolerance="10"
     gridtolerance="10"
     guidetolerance="10"
     inkscape:pageopacity="0"
     inkscape:pageshadow="2"
     inkscape:window-width="1280"
     inkscape:window-height="972"
     id="namedview11"
     showgrid="false"
     inkscape:zoom="0.30729166"
     inkscape:cx="67.404118"
     inkscape:cy="-49.535779"
     inkscape:window-x="-8"
     inkscape:window-y="-8"
     inkscape:window-maximized="1"
     inkscape:current-layer="svg4460" />
  <defs
     id="defs4462" />
  <metadata
     id="metadata4465">
    <rdf:RDF>
      <cc:Work
         rdf:about="">
        <dc:format>image/svg+xml</dc:format>
        <dc:type
           rdf:resource="http://purl.org/dc/dcmitype/StillImage" />
        <dc:title></dc:title>
      </cc:Work>
    </rdf:RDF>
  </metadata>
  <path
     inkscape:connector-curvature="0"
     unicode="6"
     horiz-adv-x="1669"
     d="M 3.4349377,15.9531 Q 3.4349377,19.7015 5.9168177,21.9019 8.2963477,24 12.006368,24 15.703598,24 18.057538,21.9019 20.577798,19.7015 20.564998,15.9531 20.564998,12.8827 18.959458,10.2793 17.353918,7.6759 14.808068,6.3966 L 14.808068,5.5267 Q 16.611908,4.9254 16.611908,3.9531 16.611908,2.7761 14.181208,2.2004 L 14.181208,1.3945 Q 14.181208,0.8188 13.771828,0.4094 13.362438,0 12.786748,0 L 11.289948,0 Q 10.714258,0 10.311268,0.4094 9.9082877,0.8188 9.9082877,1.3945 L 9.9082877,2.2004 Q 7.3880277,2.7505 7.3880277,3.9531 7.3880277,4.9254 9.1918677,5.5267 L 9.1918677,6.3966 Q 6.6204377,7.6759 5.0276877,10.2857 3.4349377,12.8955 3.4349377,15.9531 Z M 6.7355777,16.1706 Q 6.7355777,14.1237 8.3091377,12.7036 9.8059377,11.3731 11.865638,11.3731 13.938138,11.3731 15.486108,12.7484 17.034088,14.1237 17.034088,16.1706 17.034088,18.7676 13.938138,19.548 L 13.938138,19.7271 Q 13.938138,20.1237 13.663078,20.4243 13.388028,20.7249 13.017028,20.7505 12.620438,20.7761 12.441338,20.6226 12.147088,20.8273 11.814468,20.8273 11.443468,20.8273 11.136428,20.597 10.957328,20.7761 10.560738,20.7505 10.164148,20.7249 9.9018877,20.4243 9.6396277,20.1237 9.6396277,19.7271 L 9.6396277,19.5224 Q 6.7355777,18.6525 6.7355777,16.1706 Z M 8.2835477,15.774 Q 8.2835477,16.452 8.6993277,16.9382 9.1151077,17.4243 9.6907977,17.4243 10.266498,17.4243 10.688668,16.9382 11.110848,16.452 11.110848,15.774 11.110848,15.0959 10.688668,14.6098 10.266498,14.1237 9.6907977,14.1237 9.1151077,14.1237 8.6993277,14.6098 8.2835477,15.0959 8.2835477,15.774 Z M 11.264358,18.3454 Q 11.264358,18.8188 11.891228,18.8188 12.390158,18.8188 12.390158,18.4222 12.390158,18.1279 12.230248,17.8401 12.070328,17.5522 11.865638,17.5522 11.686538,17.5522 11.475448,17.8145 11.264358,18.0768 11.264358,18.3454 Z M 12.530888,15.774 Q 12.530888,16.452 12.946668,16.9382 13.362438,17.4243 13.938138,17.4243 14.513828,17.4243 14.936008,16.9382 15.358178,16.452 15.358178,15.774 15.358178,15.0959 14.936008,14.6098 14.513828,14.1237 13.938138,14.1237 13.362438,14.1237 12.946668,14.6098 12.530888,15.0959 12.530888,15.774 Z"
     id="path56" />
</svg>
