<?xml version="1.0" encoding="UTF-8" standalone="no"?>
<!-- Created with Inkscape (http://www.inkscape.org/) -->

<svg
   xmlns:dc="http://purl.org/dc/elements/1.1/"
   xmlns:cc="http://creativecommons.org/ns#"
   xmlns:rdf="http://www.w3.org/1999/02/22-rdf-syntax-ns#"
   xmlns:svg="http://www.w3.org/2000/svg"
   xmlns="http://www.w3.org/2000/svg"
   xmlns:sodipodi="http://sodipodi.sourceforge.net/DTD/sodipodi-0.dtd"
   xmlns:inkscape="http://www.inkscape.org/namespaces/inkscape"
   version="1.1"
   width="24"
   height="24"
   id="svg4460"
   inkscape:version="0.91 r13725"
   sodipodi:docname="serpents.svg">
  <sodipodi:namedview
     pagecolor="#ffffff"
     bordercolor="#666666"
     borderopacity="1"
     objecttolerance="10"
     gridtolerance="10"
     guidetolerance="10"
     inkscape:pageopacity="0"
     inkscape:pageshadow="2"
     inkscape:window-width="1280"
     inkscape:window-height="972"
     id="namedview11"
     showgrid="false"
     inkscape:zoom="0.30729167"
     inkscape:cx="81.107252"
     inkscape:cy="-63.814506"
     inkscape:window-x="-8"
     inkscape:window-y="-8"
     inkscape:window-maximized="1"
     inkscape:current-layer="svg4460" />
  <defs
     id="defs4462" />
  <metadata
     id="metadata4465">
    <rdf:RDF>
      <cc:Work
         rdf:about="">
        <dc:format>image/svg+xml</dc:format>
        <dc:type
           rdf:resource="http://purl.org/dc/dcmitype/StillImage" />
        <dc:title></dc:title>
      </cc:Work>
    </rdf:RDF>
  </metadata>
  <path
     inkscape:connector-curvature="0"
     unicode="{"
     horiz-adv-x="2074"
     d="M 0,4.16385 Q 0,6.96625 3.70559,8.52025 4.60875,8.90545 5.71113,9.25075 2.36414,10.41945 2.58993,12.10625 2.82899,14.03205 7.62369,15.50635 6.29551,16.31655 6.28223,17.29935 6.28223,18.41505 7.37134,19.29165 7.39789,19.31825 9.41672,20.54015 10.53238,21.24405 10.5855,21.90815 10.61206,22.89095 9.85501,23.99335 10.94411,23.66135 11.99336,23.01045 12.51134,23.31605 14.14499,23.99335 13.4145,22.87765 13.4145,21.90815 13.46762,21.25735 14.60985,20.54015 16.62866,19.31825 16.65523,19.29165 17.74432,18.41505 17.70449,17.29935 17.70449,16.31655 16.40288,15.50635 21.15771,14.03205 21.41007,12.10625 21.62258,10.41945 18.27559,9.25075 19.39125,8.89215 20.32098,8.52025 23.98672,6.96625 24,4.16385 24,2.75595 22.90426,1.61375 21.80852,0.47145 19.98893,0.11285 19.33813,0.00665 18.55451,0.00665 15.45988,0.00665 14.19812,1.87935 L 16.53569,3.40675 14.74267,5.01385 17.33259,5.63815 Q 16.81461,6.07635 11.99336,7.45765 L 11.59491,7.35135 Q 8.46044,6.42165 8.22136,6.34205 7.07914,5.98345 6.66741,5.63815 L 9.2839,5.01385 7.45102,3.40675 9.7886,1.87935 Q 8.54012,0.00665 5.44548,0.00665 4.68843,0.00665 3.99779,0.11285 2.17819,0.47145 1.0891,1.61375 0,2.75595 0,4.16385 Z M 3.70559,2.78245 Q 3.70559,2.39735 3.97787,2.12505 4.25014,1.85285 4.64859,1.85285 5.03375,1.85285 5.30603,2.12505 5.57831,2.39735 5.57831,2.78245 5.57831,3.16765 5.30603,3.43335 5.03375,3.69895 4.64859,3.69895 4.23685,3.69895 3.97122,3.42665 3.70559,3.15435 3.70559,2.78245 Z M 7.99557,11.99995 Q 7.96901,11.42895 11.99336,10.67185 16.01771,11.42895 15.99114,11.99995 15.99114,12.49145 14.76923,12.95625 14.14499,13.22195 11.99336,13.84615 9.86829,13.22195 9.21749,12.95625 8.02214,12.49145 7.99557,11.99995 Z M 10.53238,17.65795 Q 10.55893,17.24625 11.99336,16.78145 13.46762,17.24625 13.46762,17.65795 13.52075,18.36185 11.99336,19.37135 10.49253,18.36185 10.53238,17.65795 Z M 18.44825,2.78245 Q 18.44825,2.39735 18.72053,2.12505 18.9928,1.85285 19.3647,1.85285 19.74986,1.85285 20.02213,2.12505 20.29441,2.39735 20.29441,2.78245 20.29441,3.16765 20.02213,3.43335 19.74986,3.69895 19.3647,3.69895 18.97952,3.69895 18.71389,3.42665 18.44825,3.15435 18.44825,2.78245 Z"
     id="path194" />
</svg>
