<?xml version="1.0" encoding="UTF-8" standalone="no"?>
<!-- Created with Inkscape (http://www.inkscape.org/) -->

<svg
   xmlns:dc="http://purl.org/dc/elements/1.1/"
   xmlns:cc="http://creativecommons.org/ns#"
   xmlns:rdf="http://www.w3.org/1999/02/22-rdf-syntax-ns#"
   xmlns:svg="http://www.w3.org/2000/svg"
   xmlns="http://www.w3.org/2000/svg"
   xmlns:sodipodi="http://sodipodi.sourceforge.net/DTD/sodipodi-0.dtd"
   xmlns:inkscape="http://www.inkscape.org/namespaces/inkscape"
   version="1.1"
   width="24"
   height="24"
   id="svg4460"
   inkscape:version="0.91 r13725"
   sodipodi:docname="serpent-cerlce.svg">
  <sodipodi:namedview
     pagecolor="#ffffff"
     bordercolor="#666666"
     borderopacity="1"
     objecttolerance="10"
     gridtolerance="10"
     guidetolerance="10"
     inkscape:pageopacity="0"
     inkscape:pageshadow="2"
     inkscape:window-width="1280"
     inkscape:window-height="972"
     id="namedview11"
     showgrid="false"
     inkscape:zoom="0.21728802"
     inkscape:cx="496.12447"
     inkscape:cy="58.027072"
     inkscape:window-x="-8"
     inkscape:window-y="-8"
     inkscape:window-maximized="1"
     inkscape:current-layer="svg4460" />
  <defs
     id="defs4462" />
  <metadata
     id="metadata4465">
    <rdf:RDF>
      <cc:Work
         rdf:about="">
        <dc:format>image/svg+xml</dc:format>
        <dc:type
           rdf:resource="http://purl.org/dc/dcmitype/StillImage" />
        <dc:title></dc:title>
      </cc:Work>
    </rdf:RDF>
  </metadata>
  <path
     inkscape:connector-curvature="0"
     unicode="["
     horiz-adv-x="2148"
     d="M 0,11.19625 Q 0,14.38605 1.70886,16.71515 4.0886,19.98105 8.65823,20.42415 9.27848,20.47475 9.89874,20.47475 13.26583,20.47475 15.55696,18.71515 17.58228,17.13295 18.12659,14.75315 18.35443,13.71525 18.35443,12.67725 18.35443,10.34815 17.29114,8.65185 16.12659,6.81645 14.02532,6.37345 13.32911,6.22155 12.62026,6.22155 11.48102,6.22155 10.49367,6.63925 9.94937,6.51265 9.43039,6.49995 7.74684,6.49995 6.58228,7.98095 5.49367,9.36085 5.49367,11.09495 5.49367,13.06965 7.05064,14.09495 7.93671,14.68985 9,14.68985 10.50633,14.68985 11.89874,13.55065 13.16455,12.51265 13.32911,11.42405 13.43039,10.70255 13.35443,10.03165 13.8481,10.15815 14.1519,10.65185 14.64557,11.42405 14.64557,12.70255 14.64557,13.32285 14.51899,13.91775 14.22785,15.10755 13.08861,15.89245 11.82278,16.77845 9.8481,16.76575 9.43039,16.76575 9,16.74045 6.12659,16.44935 4.72152,14.53795 3.70886,13.15825 3.70886,11.17095 3.70886,10.25945 3.93671,9.22155 4.58228,6.23425 7.36709,4.94305 9.29114,4.03165 11.92405,4.04425 12.49367,4.04425 13.03798,4.09495 16.64557,4.38615 18.74684,7.01895 20.32912,8.96835 20.32912,11.84185 20.32912,12.63925 20.18987,13.50005 19.5443,18.00635 16.97469,20.08225 15.05064,21.63925 11.22785,22.20885 10.78481,22.62665 10.78481,22.96835 10.78481,23.38605 11.4557,23.56335 11.82278,23.63925 12.56962,23.63925 16.01266,23.63925 18.87342,21.95575 23.10127,19.46205 23.84811,14.01905 24,12.90505 24,11.86715 24,7.63925 21.64558,4.68985 19.9114,2.56325 17.31646,1.42405 14.8481,0.36075 11.97468,0.36075 7.82278,0.36075 4.82279,2.14555 1.21519,4.27215 0.31645,8.44935 0,9.87975 0,11.19625 Z M 7.05064,8.84175 Q 7.05064,8.06965 7.79747,8.05695 8.54431,8.05695 8.55697,8.84175 8.54431,9.61395 7.79747,9.61395 7.05064,9.61395 7.05064,8.84175 Z M 10.49367,11.22155 Q 10.49367,10.44935 11.25317,10.44935 12,10.44935 12,11.22155 12,12.00635 11.25317,12.00635 10.50633,12.00635 10.49367,11.22155 Z"
     id="path130" />
</svg>
