<?xml version="1.0" encoding="UTF-8" standalone="no"?>
<!-- Created with Inkscape (http://www.inkscape.org/) -->

<svg
   xmlns:dc="http://purl.org/dc/elements/1.1/"
   xmlns:cc="http://creativecommons.org/ns#"
   xmlns:rdf="http://www.w3.org/1999/02/22-rdf-syntax-ns#"
   xmlns:svg="http://www.w3.org/2000/svg"
   xmlns="http://www.w3.org/2000/svg"
   xmlns:sodipodi="http://sodipodi.sourceforge.net/DTD/sodipodi-0.dtd"
   xmlns:inkscape="http://www.inkscape.org/namespaces/inkscape"
   version="1.1"
   width="24"
   height="24"
   id="svg4460"
   inkscape:version="0.91 r13725"
   sodipodi:docname="sorciere.svg">
  <sodipodi:namedview
     pagecolor="#ffffff"
     bordercolor="#666666"
     borderopacity="1"
     objecttolerance="10"
     gridtolerance="10"
     guidetolerance="10"
     inkscape:pageopacity="0"
     inkscape:pageshadow="2"
     inkscape:window-width="1280"
     inkscape:window-height="972"
     id="namedview11"
     showgrid="false"
     inkscape:zoom="13.906433"
     inkscape:cx="3.3585776"
     inkscape:cy="2.9536354"
     inkscape:window-x="-8"
     inkscape:window-y="-8"
     inkscape:window-maximized="1"
     inkscape:current-layer="svg4460" />
  <defs
     id="defs4462" />
  <metadata
     id="metadata4465">
    <rdf:RDF>
      <cc:Work
         rdf:about="">
        <dc:format>image/svg+xml</dc:format>
        <dc:type
           rdf:resource="http://purl.org/dc/dcmitype/StillImage" />
        <dc:title></dc:title>
      </cc:Work>
    </rdf:RDF>
  </metadata>
  <path
     id="path3696"
     style="fill:#ffa500;fill-opacity:1;stroke:none"
     d="M 3.171831,23.3239 Q 3.171831,23.6056 3.938028,23.6056 4.309859,23.6056 5.673239,23.4648 7.03662,23.3239 7.83662,23.3239 8.940845,23.3239 9.707042,23.538 11.183099,24 12.501408,24 13.030986,24 14.033803,23.7465 15.03662,23.493 15.521127,23.493 15.678873,23.493 16.174648,23.5831 16.501408,23.6507 16.816901,23.5155 17.256338,23.3127 17.256338,22.9521 17.256338,22.6479 16.974648,22.1296 16.647887,21.2056 15.870423,19.0986 17.042254,19.538 18.202817,19.538 18.619718,19.538 18.8,19.4254 L 18.202817,23.7183 18.912676,23.831 20.11831,17.6225 Q 20.828169,17.3408 20.828169,16.5859 20.828169,16.1239 20.495775,15.7915 20.16338,15.4592 19.701408,15.4592 19.239437,15.4592 18.91831,15.7915 18.597183,16.1239 18.597183,16.5859 18.597183,17.1831 19.08169,17.5099 L 18.935211,18.5239 Q 18.292958,17.7577 15.735211,16.7324 16.794366,15.5606 16.794366,14.0507 16.794366,13.6113 16.704225,13.1718 20.332394,12.9915 20.276056,12.1352 20.208451,11.8535 19.814085,11.6507 18.912676,11.1437 16.68169,10.9634 L 12.726761,0.6423 Q 12.467606,0 12.107042,0 11.735211,0 11.464789,0.6873 11.239437,1.1718 7.442254,10.6366 4.230986,10.8394 4.028169,11.8085 4.050704,12.8225 7.487324,13.1042 7.228169,13.6789 7.239437,14.3324 7.239437,15.5606 8.16338,16.9127 7.701408,17.5099 7.521127,18.3437 7.171831,19.9775 6.935211,20.4845 6.653521,21.2282 6.033803,21.6676 5.752113,21.893 4.332394,22.569 3.183099,23.0761 3.171831,23.3239 Z M 8.805634,14.2761 Q 8.805634,13.9268 9.047887,13.7014 9.290141,13.4761 9.639437,13.4761 9.966197,13.4761 10.208451,13.707 10.450704,13.938 10.450704,14.2761 10.450704,14.6254 10.208451,14.8563 9.966197,15.0873 9.639437,15.0873 9.290141,15.0873 9.047887,14.8563 8.805634,14.6254 8.805634,14.2761 Z M 11.183099,15.8761 Q 12.016901,16.1014 12.985916,15.9437 12.940845,16.5859 12.039437,16.5408 11.138028,16.2592 11.183099,15.8761 Z M 13.797183,14.4676 Q 13.797183,14.1408 14.039437,13.8986 14.28169,13.6563 14.597183,13.6563 14.946479,13.6563 15.177465,13.8986 15.408451,14.1408 15.408451,14.4676 15.408451,14.8169 15.177465,15.0479 14.946479,15.2789 14.597183,15.2789 14.270423,15.2789 14.033803,15.0479 13.797183,14.8169 13.797183,14.4676 Z"
     inkscape:connector-curvature="0" />
</svg>
