<?xml version="1.0" encoding="UTF-8" standalone="no"?>
<!-- Created with Inkscape (http://www.inkscape.org/) -->

<svg
   xmlns:dc="http://purl.org/dc/elements/1.1/"
   xmlns:cc="http://creativecommons.org/ns#"
   xmlns:rdf="http://www.w3.org/1999/02/22-rdf-syntax-ns#"
   xmlns:svg="http://www.w3.org/2000/svg"
   xmlns="http://www.w3.org/2000/svg"
   xmlns:sodipodi="http://sodipodi.sourceforge.net/DTD/sodipodi-0.dtd"
   xmlns:inkscape="http://www.inkscape.org/namespaces/inkscape"
   version="1.1"
   width="24"
   height="24"
   id="svg4460"
   inkscape:version="0.91 r13725"
   sodipodi:docname="tache.svg">
  <sodipodi:namedview
     pagecolor="#ffffff"
     bordercolor="#666666"
     borderopacity="1"
     objecttolerance="10"
     gridtolerance="10"
     guidetolerance="10"
     inkscape:pageopacity="0"
     inkscape:pageshadow="2"
     inkscape:window-width="1280"
     inkscape:window-height="972"
     id="namedview11"
     showgrid="false"
     inkscape:zoom="13.906433"
     inkscape:cx="3.3585776"
     inkscape:cy="2.9536354"
     inkscape:window-x="-8"
     inkscape:window-y="-8"
     inkscape:window-maximized="1"
     inkscape:current-layer="svg4460" />
  <defs
     id="defs4462" />
  <metadata
     id="metadata4465">
    <rdf:RDF>
      <cc:Work
         rdf:about="">
        <dc:format>image/svg+xml</dc:format>
        <dc:type
           rdf:resource="http://purl.org/dc/dcmitype/StillImage" />
        <dc:title></dc:title>
      </cc:Work>
    </rdf:RDF>
  </metadata>
  <path
     id="path3696"
     style="fill:#ffa500;fill-opacity:1;stroke:none"
     d="M 0,13.33335 Q 0,13.97705 0.472906,14.44995 0.945813,14.92285 1.589491,14.92285 2.259442,14.92285 2.719212,14.44995 3.178982,13.97705 3.178982,13.33335 3.178982,12.68965 2.719212,12.21675 2.259442,11.74385 1.589491,11.74385 0.945813,11.74385 0.472906,12.21675 0,12.68965 0,13.33335 Z M 3.980296,12.82105 Q 3.980296,13.17575 5.20197,13.65515 6.423645,14.13465 6.47619,14.43675 6.555008,14.76525 5.793103,15.71755 5.031199,16.66995 5.031199,16.95895 5.031199,17.33995 5.753695,17.33995 5.990148,17.33995 6.600985,17.27425 7.211823,17.20855 7.474548,17.20855 8.197044,17.20855 8.210181,17.74715 8.210181,18.12805 7.89491,19.27095 7.579639,20.41385 7.579639,20.78165 7.579639,21.24135 7.881773,21.24135 8.236453,21.24135 9.576355,20.16425 10.837438,19.13955 11.192118,19.25785 11.494253,19.33665 12.026273,20.55835 12.558292,21.77995 12.939245,21.77995 13.293924,21.77995 13.773399,20.57145 14.252874,19.36295 14.555008,19.28405 14.883415,19.20525 16.210181,20.28905 17.536946,21.37275 17.891626,21.37275 18.12808,21.37275 18.12808,21.03125 18.12808,20.65025 17.766831,19.49425 17.405583,18.33825 17.405583,17.98355 17.405583,17.55005 17.891626,17.55005 18.27258,17.55005 19.30378,17.79315 20.33498,18.03615 20.71593,18.03615 21.22824,18.03615 21.22824,17.74715 21.22824,17.36615 20.24302,16.14455 19.2578,14.92285 19.33662,14.56815 19.41544,14.26605 21.30049,13.73405 23.18555,13.20195 23.18555,12.82105 23.18555,12.49265 21.35961,12.01975 19.45484,11.50745 19.4023,11.20525 19.32348,10.90315 20.08539,9.93765 20.84729,8.97215 20.84729,8.68315 20.84729,8.30215 20.12479,8.30215 19.88834,8.30215 19.2775,8.36785 18.66667,8.43355 18.40394,8.43355 17.707718,8.43355 17.707718,7.92115 17.707718,7.51395 18.04269,6.26605 18.37767,5.01805 18.40394,4.58455 18.56158,4.63715 18.71921,4.63715 19.20525,4.63715 19.5665,4.28905 19.92775,3.94095 19.92775,3.42855 19.92775,2.94255 19.5665,2.58125 19.20525,2.22005 18.71921,2.22005 18.2069,2.22005 17.858785,2.58125 17.510673,2.94255 17.510673,3.42855 17.510673,3.83585 17.73399,4.13795 17.471264,4.32185 16.091954,5.55665 15.014778,6.50245 14.686371,6.42365 14.384236,6.34485 13.852217,5.10345 13.320197,3.86205 12.939245,3.86205 12.584565,3.86205 12.10509,5.08375 11.625616,6.30545 11.323481,6.37115 10.995074,6.44995 10.08867,5.71435 9.090312,4.93925 8.801314,4.93925 8.420361,4.93925 8.420361,5.63545 8.420361,5.89825 8.486043,6.49595 8.551724,7.09365 8.551724,7.35635 8.551724,8.07885 8.065681,8.09195 7.658456,8.09195 6.47619,7.71105 5.293924,7.33005 4.926108,7.33005 4.518883,7.33005 4.518883,7.63225 4.518883,8.01315 5.569787,9.37935 6.62069,10.74555 6.541872,11.07395 6.436782,11.40235 5.208539,11.92115 3.980296,12.44005 3.980296,12.82105 Z M 21.54351,19.03445 Q 21.54351,19.54685 21.89819,19.90805 22.25287,20.26935 22.76519,20.26935 23.2775,20.26935 23.63875,19.90805 24,19.54685 24,19.03445 24,18.52215 23.63875,18.17405 23.2775,17.82595 22.76519,17.82595 22.25287,17.82595 21.89819,18.17405 21.54351,18.52215 21.54351,19.03445 Z"
     inkscape:connector-curvature="0" />
</svg>
