<?xml version="1.0" encoding="UTF-8" standalone="no"?>
<!-- Created with Inkscape (http://www.inkscape.org/) -->

<svg
   xmlns:dc="http://purl.org/dc/elements/1.1/"
   xmlns:cc="http://creativecommons.org/ns#"
   xmlns:rdf="http://www.w3.org/1999/02/22-rdf-syntax-ns#"
   xmlns:svg="http://www.w3.org/2000/svg"
   xmlns="http://www.w3.org/2000/svg"
   xmlns:sodipodi="http://sodipodi.sourceforge.net/DTD/sodipodi-0.dtd"
   xmlns:inkscape="http://www.inkscape.org/namespaces/inkscape"
   version="1.1"
   width="24"
   height="24"
   id="svg4460"
   inkscape:version="0.91 r13725"
   sodipodi:docname="tete-mort.svg">
  <sodipodi:namedview
     pagecolor="#ffffff"
     bordercolor="#666666"
     borderopacity="1"
     objecttolerance="10"
     gridtolerance="10"
     guidetolerance="10"
     inkscape:pageopacity="0"
     inkscape:pageshadow="2"
     inkscape:window-width="1280"
     inkscape:window-height="972"
     id="namedview11"
     showgrid="false"
     inkscape:zoom="0.30729166"
     inkscape:cx="-290.56199"
     inkscape:cy="-20.247642"
     inkscape:window-x="-8"
     inkscape:window-y="-8"
     inkscape:window-maximized="1"
     inkscape:current-layer="svg4460" />
  <defs
     id="defs4462" />
  <metadata
     id="metadata4465">
    <rdf:RDF>
      <cc:Work
         rdf:about="">
        <dc:format>image/svg+xml</dc:format>
        <dc:type
           rdf:resource="http://purl.org/dc/dcmitype/StillImage" />
        <dc:title></dc:title>
      </cc:Work>
    </rdf:RDF>
  </metadata>
  <path
     inkscape:connector-curvature="0"
     unicode="B"
     horiz-adv-x="1988"
     d="M 0.252415,10.92894 Q 0.252415,13.64412 1.985215,15.6498 3.718025,17.65549 6.869815,18.61057 L 6.869815,19.08812 Q 6.869815,20.47982 8.971005,20.65719 9.121095,20.67084 9.271175,20.67084 9.953385,20.67084 10.335415,20.34338 11.003975,20.84821 11.849915,20.84821 12.654915,20.84821 13.296185,20.37067 13.664585,20.67084 14.292215,20.67084 14.428655,20.67084 14.578735,20.65719 16.679935,20.49346 16.679935,19.08812 L 16.679935,18.71973 Q 20.090955,17.81922 21.919275,15.75895 23.747585,13.69869 23.747585,10.95622 23.747585,10.31495 23.638425,9.64639 22.997155,5.53951 19.927235,2.85162 16.652645,0 12.013645,0 7.320065,0 4.072765,2.85162 0.975555,5.53951 0.361565,9.64639 0.252415,10.31495 0.252415,10.92894 Z M 3.799885,10.05571 Q 3.799885,8.48664 4.734505,7.38829 5.669125,6.28994 7.006255,6.28994 8.343375,6.28994 9.284815,7.39511 10.226265,8.50028 10.226265,10.05571 10.226265,11.62479 9.284815,12.72996 8.343375,13.83513 7.006255,13.83513 5.669125,13.83513 4.734505,12.72996 3.799885,11.62479 3.799885,10.05571 Z M 7.401935,23.22229 Q 7.879475,23.91814 11.317795,24 L 11.699825,24 Q 13.227965,24 14.415005,23.80898 15.861285,23.61796 16.038655,23.22229 16.038655,21.59864 14.469585,21.48948 14.346785,21.47584 14.223985,21.47584 13.514495,21.47584 13.132465,21.76236 12.491185,21.35304 11.672545,21.35304 L 11.617965,21.35304 Q 10.812965,21.35304 10.144395,21.73508 9.803295,21.47584 9.148375,21.47584 9.011935,21.47584 8.861855,21.48948 7.415575,21.59864 7.401935,23.22229 Z M 10.621945,15.94997 Q 10.621945,15.33599 11.092665,14.722 11.563385,14.10802 11.986355,14.10802 12.436615,14.10802 12.825465,14.79704 13.214325,15.48607 13.214325,16.10006 13.214325,17.0415 12.013645,17.0415 11.235925,17.0415 10.840245,16.60489 10.621945,16.3593 10.621945,15.94997 Z M 13.487205,10.05571 Q 13.487205,8.48664 14.428655,7.38829 15.370095,6.28994 16.707215,6.28994 18.017055,6.28994 18.972145,7.39511 19.927235,8.50028 19.927235,10.05571 19.927235,11.62479 18.972145,12.72996 18.017055,13.83513 16.707215,13.83513 15.370095,13.83513 14.428655,12.72996 13.487205,11.62479 13.487205,10.05571 Z"
     id="path80" />
</svg>
