<?xml version="1.0" encoding="UTF-8" standalone="no"?>
<!-- Created with Inkscape (http://www.inkscape.org/) -->

<svg
   xmlns:dc="http://purl.org/dc/elements/1.1/"
   xmlns:cc="http://creativecommons.org/ns#"
   xmlns:rdf="http://www.w3.org/1999/02/22-rdf-syntax-ns#"
   xmlns:svg="http://www.w3.org/2000/svg"
   xmlns="http://www.w3.org/2000/svg"
   xmlns:sodipodi="http://sodipodi.sourceforge.net/DTD/sodipodi-0.dtd"
   xmlns:inkscape="http://www.inkscape.org/namespaces/inkscape"
   version="1.1"
   width="24"
   height="24"
   id="svg4460"
   inkscape:version="0.91 r13725"
   sodipodi:docname="face-roi.svg">
  <sodipodi:namedview
     pagecolor="#ffffff"
     bordercolor="#666666"
     borderopacity="1"
     objecttolerance="10"
     gridtolerance="10"
     guidetolerance="10"
     inkscape:pageopacity="0"
     inkscape:pageshadow="2"
     inkscape:window-width="1280"
     inkscape:window-height="972"
     id="namedview11"
     showgrid="false"
     inkscape:zoom="0.30729166"
     inkscape:cx="949.30244"
     inkscape:cy="-189.46799"
     inkscape:window-x="-8"
     inkscape:window-y="-8"
     inkscape:window-maximized="1"
     inkscape:current-layer="svg4460" />
  <defs
     id="defs4462" />
  <metadata
     id="metadata4465">
    <rdf:RDF>
      <cc:Work
         rdf:about="">
        <dc:format>image/svg+xml</dc:format>
        <dc:type
           rdf:resource="http://purl.org/dc/dcmitype/StillImage" />
        <dc:title></dc:title>
      </cc:Work>
    </rdf:RDF>
  </metadata>
  <path
     inkscape:connector-curvature="0"
     unicode="d"
     horiz-adv-x="1918"
     d="M 1.51066,14.7655 Q 1.51066,17.1655 3.057868,18.9746 4.605076,20.7838 7.419289,21.6122 L 7.419289,22.0508 Q 7.419289,22.8183 7.95533,23.2873 8.491371,23.7563 9.295432,23.8294 9.429442,23.8416 9.551269,23.8416 10.172589,23.8416 10.513706,23.5249 11.11066,24 11.86599,24 12.584772,24 13.15736,23.5736 13.486294,23.8416 14.0467,23.8416 14.168527,23.8416 14.31472,23.8294 15.143147,23.7563 15.660913,23.2934 16.17868,22.8305 16.17868,22.0508 L 16.17868,21.7096 Q 19.224365,20.9421 20.869035,19.0416 22.48934,17.2142 22.48934,14.7655 22.48934,12.4142 21.149238,10.0508 19.821319,7.7482 17.82335,6.4569 L 18.201015,3.4234 Q 18.322842,3.4721 18.456852,3.4721 18.883248,3.4721 19.181725,3.1736 19.480203,2.8751 19.480203,2.4487 19.480203,2.0223 19.175634,1.7239 18.871065,1.4254 18.456852,1.4254 18.030456,1.4254 17.731979,1.7239 17.433502,2.0223 17.433502,2.4487 17.433502,2.7777 17.652791,3.0701 16.324873,3.9228 15.033502,3.9228 14.704568,3.9228 14.387817,3.8376 13.169543,3.6183 12.365482,1.9736 13.035533,1.7299 13.035533,1.0234 13.035533,0.597 12.737056,0.2985 12.438579,0 12.012183,0 11.585787,0 11.28731,0.2985 10.988833,0.597 10.988833,1.0234 10.988833,1.7178 11.671066,1.9736 10.903553,3.6183 9.673097,3.8376 9.344162,3.9107 8.990863,3.9228 7.699492,3.9228 6.395939,3.0701 6.590863,2.7655 6.603046,2.4487 6.603046,2.0223 6.304569,1.7239 6.006091,1.4254 5.579696,1.4254 5.1533,1.4254 4.854822,1.7239 4.556345,2.0223 4.556345,2.4487 4.556345,2.8751 4.854822,3.1736 5.1533,3.4721 5.579696,3.4721 5.701523,3.4721 5.847716,3.4234 L 6.103553,6.4569 Q 4.337056,7.5533 3.149239,9.4538 1.961421,11.3543 1.608122,13.6203 1.51066,14.1929 1.51066,14.7655 Z M 4.678173,13.998 Q 4.678173,12.597 5.51269,11.6102 6.347208,10.6234 7.5533,10.6234 8.722843,10.6234 9.569543,11.6102 10.416244,12.597 10.416244,13.998 10.416244,15.399 9.569543,16.3797 8.722843,17.3604 7.5533,17.3604 6.359391,17.3604 5.518782,16.3797 4.678173,15.399 4.678173,13.998 Z M 10.769543,19.2609 Q 10.769543,18.7127 11.189848,18.1645 11.610152,17.6162 11.987817,17.6162 12.389848,17.6162 12.737056,18.2254 13.084264,18.8345 13.084264,19.3827 13.084264,20.2112 12.012183,20.2112 11.317767,20.2112 10.964467,19.8335 10.769543,19.6142 10.769543,19.2609 Z M 13.340102,13.998 Q 13.340102,12.597 14.174619,11.6102 15.009137,10.6234 16.203045,10.6234 17.372588,10.6234 18.22538,11.6102 19.078172,12.597 19.078172,13.998 19.078172,15.399 18.22538,16.3797 17.372588,17.3604 16.203045,17.3604 15.009137,17.3604 14.174619,16.3797 13.340102,15.399 13.340102,13.998 Z"
     id="path148" />
</svg>
