<?xml version="1.0" encoding="UTF-8" standalone="no"?>
<!-- Created with Inkscape (http://www.inkscape.org/) -->

<svg
   xmlns:dc="http://purl.org/dc/elements/1.1/"
   xmlns:cc="http://creativecommons.org/ns#"
   xmlns:rdf="http://www.w3.org/1999/02/22-rdf-syntax-ns#"
   xmlns:svg="http://www.w3.org/2000/svg"
   xmlns="http://www.w3.org/2000/svg"
   xmlns:sodipodi="http://sodipodi.sourceforge.net/DTD/sodipodi-0.dtd"
   xmlns:inkscape="http://www.inkscape.org/namespaces/inkscape"
   version="1.1"
   width="24"
   height="24"
   id="svg4460"
   inkscape:version="0.91 r13725"
   sodipodi:docname="tete-mort.svg">
  <sodipodi:namedview
     pagecolor="#ffffff"
     bordercolor="#666666"
     borderopacity="1"
     objecttolerance="10"
     gridtolerance="10"
     guidetolerance="10"
     inkscape:pageopacity="0"
     inkscape:pageshadow="2"
     inkscape:window-width="1280"
     inkscape:window-height="972"
     id="namedview11"
     showgrid="false"
     inkscape:zoom="13.906433"
     inkscape:cx="3.3585776"
     inkscape:cy="2.9536354"
     inkscape:window-x="-8"
     inkscape:window-y="-8"
     inkscape:window-maximized="1"
     inkscape:current-layer="svg4460" />
  <defs
     id="defs4462" />
  <metadata
     id="metadata4465">
    <rdf:RDF>
      <cc:Work
         rdf:about="">
        <dc:format>image/svg+xml</dc:format>
        <dc:type
           rdf:resource="http://purl.org/dc/dcmitype/StillImage" />
        <dc:title></dc:title>
      </cc:Work>
    </rdf:RDF>
  </metadata>
  <path
     inkscape:connector-curvature="0"
     unicode="b"
     horiz-adv-x="1806"
     d="M 3.023435,20.8008 Q 3.023435,21.8086 4.347655,21.8789 3.820315,22.4062 3.820315,22.9102 3.820315,23.4375 4.347655,23.8008 4.687495,23.9883 4.992185,24 5.976565,24 6.410155,22.3125 L 11.999995,20.2734 17.589845,22.3125 Q 18.023435,23.9883 19.031245,24 19.324215,24 19.652345,23.8008 20.203125,23.4375 20.203125,22.9102 20.203125,22.4062 19.675775,21.8789 20.976565,21.8086 20.976565,20.8008 20.976565,20.6133 20.929685,20.4375 20.636715,19.6523 19.898435,19.6523 L 19.874995,19.6523 Q 19.230465,19.6523 18.363275,20.2734 L 15.164065,19.1016 18.410155,17.918 Q 19.230465,18.4453 19.921875,18.457 20.695315,18.457 20.929685,17.6602 20.976565,17.4961 20.976565,17.2969 20.976565,16.2891 19.675775,16.2187 20.203125,15.6914 20.203125,15.1875 20.203125,14.6602 19.652345,14.2969 19.359375,14.1562 19.054685,14.1562 17.999995,14.1562 17.613275,15.8555 L 11.999995,17.9531 6.386715,15.9023 Q 5.999995,14.1562 4.957025,14.1562 L 4.945315,14.1562 Q 4.628905,14.1562 4.347655,14.2969 3.820315,14.6602 3.820315,15.1875 3.820315,15.6914 4.347655,16.2187 3.023435,16.2891 3.023435,17.2969 3.023435,17.4844 3.070315,17.6602 3.339845,18.457 4.078125,18.457 4.769525,18.457 5.589845,17.918 L 8.859375,19.1016 5.636715,20.25 Q 4.792965,19.6523 4.148435,19.6523 3.374995,19.6523 3.070315,20.4375 3.023435,20.6016 3.023435,20.8008 Z M 3.070315,8.1562 Q 3.070315,10.1719 4.388665,11.6836 5.707025,13.1953 8.109375,13.8867 L 8.109375,14.25 Q 8.109375,14.918 8.566405,15.375 9.023435,15.832 9.691405,15.8789 9.785155,15.8906 9.878905,15.8906 10.429685,15.8906 10.722655,15.6445 11.249995,16.0312 11.906245,16.0312 12.503905,16.0312 13.007815,15.668 13.289065,15.8906 13.769525,15.8906 13.874995,15.8906 13.992185,15.8789 14.660155,15.8086 15.117185,15.3633 15.574215,14.918 15.574215,14.25 L 15.574215,13.9922 Q 18.164065,13.3242 19.582025,11.7305 20.953125,10.2187 20.953125,8.1562 20.953125,7.6992 20.859375,7.1953 20.378905,4.125 18.023435,2.1328 15.550775,0 11.999995,0 8.449215,0 5.976565,2.1094 3.621095,4.125 3.164065,7.1953 3.070315,7.6992 3.070315,8.1562 Z M 5.765625,7.5117 Q 5.765625,6.3398 6.480465,5.5078 7.195315,4.6758 8.203125,4.6758 9.210935,4.6758 9.931635,5.502 10.652345,6.3281 10.652345,7.5117 10.652345,8.6836 9.931635,9.5098 9.210935,10.3359 8.203125,10.3359 7.195315,10.3359 6.480465,9.5098 5.765625,8.6836 5.765625,7.5117 Z M 10.968745,11.918 Q 10.968745,11.4609 11.314455,11.0098 11.660155,10.5586 11.999995,10.5586 12.339845,10.5586 12.638665,11.0625 12.937495,11.5664 12.937495,12.0234 12.937495,12.7148 12.023435,12.7148 11.425775,12.7148 11.132805,12.3984 10.968745,12.2109 10.968745,11.918 Z M 13.148435,7.5117 Q 13.148435,6.3398 13.857415,5.5078 14.566405,4.6758 15.574215,4.6758 16.605465,4.6758 17.314455,5.502 18.023435,6.3281 18.023435,7.5117 18.023435,8.6836 17.314455,9.5098 16.605465,10.3359 15.574215,10.3359 14.566405,10.3359 13.857415,9.5098 13.148435,8.6836 13.148435,7.5117 Z"
     id="path144" />
</svg>
