<?xml version="1.0" encoding="UTF-8" standalone="no"?>
<!-- Created with Inkscape (http://www.inkscape.org/) -->

<svg
   xmlns:dc="http://purl.org/dc/elements/1.1/"
   xmlns:cc="http://creativecommons.org/ns#"
   xmlns:rdf="http://www.w3.org/1999/02/22-rdf-syntax-ns#"
   xmlns:svg="http://www.w3.org/2000/svg"
   xmlns="http://www.w3.org/2000/svg"
   xmlns:sodipodi="http://sodipodi.sourceforge.net/DTD/sodipodi-0.dtd"
   xmlns:inkscape="http://www.inkscape.org/namespaces/inkscape"
   version="1.1"
   width="24"
   height="24"
   id="svg4460"
   inkscape:version="0.91 r13725"
   sodipodi:docname="face-corne.svg">
  <sodipodi:namedview
     pagecolor="#ffffff"
     bordercolor="#666666"
     borderopacity="1"
     objecttolerance="10"
     gridtolerance="10"
     guidetolerance="10"
     inkscape:pageopacity="0"
     inkscape:pageshadow="2"
     inkscape:window-width="1280"
     inkscape:window-height="972"
     id="namedview11"
     showgrid="false"
     inkscape:zoom="0.21728802"
     inkscape:cx="-254.03195"
     inkscape:cy="209.89923"
     inkscape:window-x="-8"
     inkscape:window-y="-8"
     inkscape:window-maximized="1"
     inkscape:current-layer="svg4460" />
  <defs
     id="defs4462" />
  <metadata
     id="metadata4465">
    <rdf:RDF>
      <cc:Work
         rdf:about="">
        <dc:format>image/svg+xml</dc:format>
        <dc:type
           rdf:resource="http://purl.org/dc/dcmitype/StillImage" />
        <dc:title></dc:title>
      </cc:Work>
    </rdf:RDF>
  </metadata>
  <path
     inkscape:connector-curvature="0"
     unicode="a"
     horiz-adv-x="2064"
     d="M 0.47084,4.95016 Q 0.45811,5.19194 0.45811,5.421 0.45811,9.17497 3.95758,11.10923 3.0159,12.9544 3.0159,14.77413 3.0159,16.73383 4.193,18.26087 5.37009,19.78791 7.50795,20.56416 8.15694,24 8.60233,24 8.94592,24 9.67126,22.60021 9.84941,22.62566 9.95122,22.65111 10.05302,22.66384 10.1421,22.66384 10.70201,22.66384 11.02015,22.38388 11.54189,22.77837 12.19088,22.77837 12.83987,22.77837 13.33616,22.40933 13.65429,22.66384 14.16331,22.66384 14.25238,22.66384 14.35419,22.65111 14.53234,22.62566 14.72322,22.60021 15.44857,23.9491 15.79215,23.9491 16.21209,23.9491 16.86108,20.61506 19.10074,19.83881 20.29692,18.29905 21.49311,16.75928 21.49311,14.77413 21.49311,12.83987 20.42418,10.86744 23.54189,8.92047 23.54189,5.43372 23.54189,5.19194 23.52916,4.95016 23.37646,3.53765 22.82927,2.53234 21.53128,0.07635 18.6299,0 20.50053,1.43796 20.51325,3.57582 20.51325,4.02121 20.42418,4.37752 19.92789,6.17179 17.14104,7.45705 14.95228,6.20997 12.26723,6.20997 9.42948,6.20997 7.16437,7.58431 4.11028,6.28632 3.58854,4.37752 3.48674,4.00848 3.48674,3.57582 3.48674,1.43796 5.39554,0 2.48144,0.07635 1.19618,2.53234 0.64899,3.55037 0.47084,4.95016 Z M 5.80275,14.09968 Q 5.80275,12.87805 6.54719,12.00636 7.29162,11.13468 8.3351,11.13468 9.37858,11.13468 10.12301,12.00636 10.86744,12.87805 10.86744,14.09968 10.86744,15.32132 10.12301,16.19936 9.37858,17.07741 8.3351,17.07741 7.29162,17.07741 6.54719,16.19936 5.80275,15.32132 5.80275,14.09968 Z M 11.17285,18.74443 Q 11.17285,18.2736 11.54189,17.79003 11.91092,17.30647 12.24178,17.30647 12.61081,17.30647 12.90986,17.82821 13.20891,18.34995 13.20891,18.84624 13.20891,19.59703 12.26723,19.59703 11.64369,19.59703 11.36373,19.24072 11.18558,19.06257 11.17285,18.74443 Z M 13.41251,14.09968 Q 13.41251,12.87805 14.15694,12.00636 14.90138,11.13468 15.94486,11.13468 17.01378,11.13468 17.75822,12.00636 18.50265,12.87805 18.50265,14.09968 18.50265,15.32132 17.75822,16.19936 17.01378,17.07741 15.94486,17.07741 14.90138,17.07741 14.15694,16.19936 13.41251,15.32132 13.41251,14.09968 Z"
     id="path142" />
</svg>
