<?xml version="1.0" encoding="UTF-8" standalone="no"?>
<!-- Created with Inkscape (http://www.inkscape.org/) -->

<svg
   xmlns:dc="http://purl.org/dc/elements/1.1/"
   xmlns:cc="http://creativecommons.org/ns#"
   xmlns:rdf="http://www.w3.org/1999/02/22-rdf-syntax-ns#"
   xmlns:svg="http://www.w3.org/2000/svg"
   xmlns="http://www.w3.org/2000/svg"
   xmlns:sodipodi="http://sodipodi.sourceforge.net/DTD/sodipodi-0.dtd"
   xmlns:inkscape="http://www.inkscape.org/namespaces/inkscape"
   version="1.1"
   width="24"
   height="24"
   id="svg4460"
   inkscape:version="0.91 r13725"
   sodipodi:docname="tete-croix.svg">
  <sodipodi:namedview
     pagecolor="#ffffff"
     bordercolor="#666666"
     borderopacity="1"
     objecttolerance="10"
     gridtolerance="10"
     guidetolerance="10"
     inkscape:pageopacity="0"
     inkscape:pageshadow="2"
     inkscape:window-width="1280"
     inkscape:window-height="972"
     id="namedview11"
     showgrid="false"
     inkscape:zoom="0.30729166"
     inkscape:cx="-290.56199"
     inkscape:cy="-20.247642"
     inkscape:window-x="-8"
     inkscape:window-y="-8"
     inkscape:window-maximized="1"
     inkscape:current-layer="svg4460" />
  <defs
     id="defs4462" />
  <metadata
     id="metadata4465">
    <rdf:RDF>
      <cc:Work
         rdf:about="">
        <dc:format>image/svg+xml</dc:format>
        <dc:type
           rdf:resource="http://purl.org/dc/dcmitype/StillImage" />
        <dc:title></dc:title>
      </cc:Work>
    </rdf:RDF>
  </metadata>
  <path
     inkscape:connector-curvature="0"
     unicode="A"
     horiz-adv-x="2209"
     d="M 0.02447,3.688075 Q 0,3.847105 0,3.993885 0,5.510705 2.07951,5.510705 L 2.10398,5.510705 Q 2.60551,5.510705 3.08257,5.437315 L 5.07645,7.418965 Q 3.40061,9.620795 3.40061,12.152905 3.40061,14.782875 5.52905,16.458725 L 3.25382,18.587155 Q 2.60551,18.440365 2.05505,18.440365 0.12232,18.440365 0.12232,20.140675 L 0.12232,20.262995 Q 0.62386,21.596335 1.60244,21.596335 2.05505,21.596335 2.58104,21.425085 2.38532,21.951075 2.37309,22.379205 2.37309,22.954125 2.76453,23.363915 3.15597,23.773705 3.73089,23.847095 3.90214,23.871555 4.06116,23.871555 5.52905,23.871555 5.52905,21.792055 5.52905,21.290515 5.45566,20.825695 L 8.29358,18.036695 8.29358,18.195715 Q 8.29358,19.529055 9.84709,19.639145 9.94496,19.651375 10.03058,19.651375 10.5688,19.651375 10.85016,19.394505 11.35168,19.773705 11.97554,19.773705 12.57492,19.773705 13.05199,19.418955 13.3211,19.651375 13.79817,19.651375 13.89602,19.651375 14.00611,19.639145 15.55963,19.492355 15.55963,18.195715 15.53517,17.840975 15.55963,17.792045 L 18.69113,20.850155 Q 18.59327,21.302755 18.58103,21.816515 18.58103,23.896025 20.11009,23.896025 20.25688,23.896025 20.4159,23.871555 21.737,23.370035 21.737,22.415905 21.737,21.951075 21.54128,21.425085 22.09174,21.620795 22.51988,21.620795 23.0948,21.620795 23.51071,21.247705 23.9266,20.874625 24,20.262995 L 24,20.140675 Q 24,18.489305 22.09174,18.489305 21.54128,18.489305 20.84403,18.636085 L 18.58103,16.483185 Q 20.75841,14.807345 20.77065,12.177375 20.77065,9.620795 19.0581,7.394495 L 20.9419,5.535165 Q 21.41896,5.608565 21.92049,5.608565 24,5.608565 24,4.116205 24,3.957185 23.97553,3.785935 23.47401,2.452595 22.49541,2.452595 22.06727,2.452595 21.54128,2.660555 21.71253,2.110095 21.71253,1.681955 21.71253,1.107045 21.33944,0.691135 20.96636,0.275235 20.39144,0.201835 L 20.26911,0.201835 Q 18.61773,0.201835 18.6055,2.110095 18.6055,2.660555 18.76452,3.357795 L 16.7584,5.339445 Q 14.70337,4.091745 12.09786,4.079505 9.46789,4.079505 7.36392,5.363915 L 5.25994,3.259945 Q 5.40672,2.587155 5.40672,2.000005 5.40672,0.103975 3.77981,0.103975 L 3.63303,0.103975 Q 2.27523,0.605505 2.27523,1.584105 2.27523,2.036695 2.47094,2.562695 1.94495,2.366975 1.52906,2.354745 0.92966,2.354745 0.51376,2.733955 0.09785,3.113155 0.02447,3.688075 Z M 6.00611,11.529055 Q 6.00611,10.354745 6.70948,9.535165 7.41284,8.715595 8.39144,8.715595 9.3945,8.715595 10.07951,9.529055 10.76452,10.342505 10.76452,11.529055 10.76452,12.678895 10.07951,13.492355 9.3945,14.305805 8.39144,14.305805 7.41284,14.305805 6.70948,13.492355 6.00611,12.678895 6.00611,11.529055 Z M 11.07033,15.883795 Q 11.07033,15.431195 11.40673,14.966365 11.74312,14.501525 12.07339,14.501525 12.40367,14.501525 12.69113,15.003065 12.97859,15.504585 12.97859,15.981645 12.97859,16.666675 12.09786,16.666675 11.52293,16.666675 11.21713,16.360855 11.07033,16.165135 11.07033,15.883795 Z M 13.17431,11.529055 Q 13.17431,10.354745 13.87767,9.535165 14.58104,8.715595 15.55963,8.715595 16.53823,8.715595 17.23547,9.529055 17.93272,10.342505 17.93272,11.529055 17.93272,12.678895 17.22936,13.492355 16.526,14.305805 15.55963,14.305805 14.58104,14.305805 13.87767,13.492355 13.17431,12.678895 13.17431,11.529055 Z"
     id="path78" />
</svg>
