<?xml version="1.0" encoding="UTF-8" standalone="no"?>
<!-- Created with Inkscape (http://www.inkscape.org/) -->

<svg
   xmlns:dc="http://purl.org/dc/elements/1.1/"
   xmlns:cc="http://creativecommons.org/ns#"
   xmlns:rdf="http://www.w3.org/1999/02/22-rdf-syntax-ns#"
   xmlns:svg="http://www.w3.org/2000/svg"
   xmlns="http://www.w3.org/2000/svg"
   xmlns:sodipodi="http://sodipodi.sourceforge.net/DTD/sodipodi-0.dtd"
   xmlns:inkscape="http://www.inkscape.org/namespaces/inkscape"
   version="1.1"
   width="24"
   height="24"
   id="svg4460"
   inkscape:version="0.91 r13725"
   sodipodi:docname="toile.svg">
  <sodipodi:namedview
     pagecolor="#ffffff"
     bordercolor="#666666"
     borderopacity="1"
     objecttolerance="10"
     gridtolerance="10"
     guidetolerance="10"
     inkscape:pageopacity="0"
     inkscape:pageshadow="2"
     inkscape:window-width="1280"
     inkscape:window-height="972"
     id="namedview11"
     showgrid="false"
     inkscape:zoom="0.25356886"
     inkscape:cx="-347.30226"
     inkscape:cy="-513.50533"
     inkscape:window-x="-8"
     inkscape:window-y="-8"
     inkscape:window-maximized="1"
     inkscape:current-layer="svg4460" />
  <defs
     id="defs4462" />
  <metadata
     id="metadata4465">
    <rdf:RDF>
      <cc:Work
         rdf:about="">
        <dc:format>image/svg+xml</dc:format>
        <dc:type
           rdf:resource="http://purl.org/dc/dcmitype/StillImage" />
        <dc:title></dc:title>
      </cc:Work>
    </rdf:RDF>
  </metadata>
  <path
     inkscape:connector-curvature="0"
     unicode="u"
     horiz-adv-x="2285"
     d="M 0,12.46495 0.88279,12.51205 Q 1.62433,13.35945 2.00098,14.78375 2.25993,15.89015 2.25993,17.04365 L 2.25993,17.14955 Q 2.25993,17.92645 2.16577,18.49145 L 0.69446,19.65665 1.82442,21.06915 3.75478,19.52725 Q 5.24963,19.52725 7.0152,20.56305 9.03973,21.74005 10.14615,22.74055 L 10.09907,23.84695 11.89995,23.94115 11.94703,22.76415 Q 13.58313,21.63415 15.44286,21.06325 17.3026,20.49245 19.52722,20.25695 L 20.77489,21.36345 21.97548,20.00985 20.79843,18.95045 Q 20.70427,18.46785 20.70427,17.91465 20.70427,16.76115 21.07504,15.76065 21.44581,14.76015 22.15204,14.00685 22.49338,13.71265 22.79941,13.43015 L 23.90584,13.47715 24,11.67635 22.68171,11.62925 Q 22.10495,9.99315 21.85189,8.42175 21.59882,6.85045 21.57528,5.35555 L 22.50515,4.61405 21.37518,3.18985 18.36194,5.60275 18.3384,5.60275 Q 17.92643,5.48505 17.46739,5.28495 16.43158,4.80235 15.37224,4.06085 13.97155,3.02505 12.9946,2.24815 L 13.06523,0.15305 11.25257,0.05885 11.20549,2.08335 Q 9.82835,2.88375 8.00392,3.57825 6.05002,4.29625 4.55517,4.68465 L 2.96616,3.26045 1.7538,4.63755 3.44875,6.10885 Q 3.10741,7.16825 2.55419,8.15695 1.83619,9.53405 0.64738,10.71115 L 0.07062,10.68755 Z M 2.96616,10.80525 Q 4.19029,9.26335 4.90829,7.38005 L 6.16773,8.51005 Q 6.09711,9.06325 5.87347,9.52235 5.48504,10.32275 4.93183,10.87595 Z M 3.10741,12.61795 5.3438,12.71215 Q 5.70868,13.12405 5.80284,13.50075 5.84993,13.73615 5.84993,14.11285 5.84993,14.71305 5.73222,15.65475 L 4.07258,16.97305 Q 4.04904,14.45415 3.10741,12.61795 Z M 5.6616,18.00885 7.15645,16.83175 Q 8.07455,17.06715 8.91025,17.45565 9.94605,17.93825 10.35802,18.71505 L 10.26385,20.51595 Q 9.25159,19.77445 7.92153,18.99755 6.79156,18.32665 5.6616,18.00885 Z M 6.16773,6.10885 Q 7.27415,5.76755 8.48651,5.30845 L 8.62776,5.26145 Q 9.95782,4.75525 11.08779,4.20205 L 11.01717,5.67335 Q 10.02845,6.17955 9.1692,6.55615 8.35704,6.90925 7.29769,6.89755 L 7.15645,6.89755 7.08583,6.89755 Z M 7.13291,10.97005 Q 7.49779,10.39335 7.68612,9.84015 L 9.06327,11.04075 Z M 7.47425,12.78275 9.22805,12.87695 7.66258,14.11285 Q 7.66258,13.33595 7.47425,12.78275 Z M 8.83963,15.47815 10.58166,14.11285 10.48749,16.27855 Q 9.8872,15.86665 8.83963,15.47815 Z M 8.91025,8.51005 Q 9.65179,8.34525 10.91123,7.74495 L 10.79353,10.15795 Z M 12.07651,20.56305 12.14713,18.97405 Q 13.08877,18.07945 14.01275,17.72045 14.93673,17.36145 16.17263,17.31435 L 17.73811,18.69155 Q 16.24326,18.92695 14.88965,19.33885 13.46542,19.77445 12.07651,20.56305 Z M 12.26484,16.61995 12.40608,13.98335 14.38352,15.72535 Q 13.23001,15.99605 12.26484,16.61995 Z M 12.60618,10.20505 12.70034,8.20405 Q 13.41834,8.71015 14.12457,8.96915 Z M 12.79451,6.00295 12.88867,4.43745 Q 13.53605,4.94365 14.3129,5.49685 15.48995,6.36785 16.72585,6.89755 L 15.83129,7.62725 Q 14.81903,7.41545 14.12457,6.96815 13.54782,6.60325 12.79451,6.00295 Z M 14.10103,13.07705 16.53752,13.17115 Q 15.97254,13.81855 15.78421,14.56005 Z M 14.14811,11.26435 16.77293,9.16925 Q 16.77293,10.39335 17.18489,11.38205 Z M 17.46739,16.03135 Q 17.44384,15.83125 17.44384,15.64295 17.44384,14.92495 17.80873,14.46595 18.3384,13.79505 19.02109,13.28885 L 20.36292,13.33595 Q 19.76263,14.13635 19.39774,15.10155 18.98578,16.16085 18.91515,17.31435 Z M 18.60912,9.55765 Q 18.58558,9.32225 18.58558,9.08685 18.58558,8.38055 18.75037,7.60375 L 19.83325,6.73275 Q 19.91564,7.74495 20.08043,8.73365 20.2923,10.11085 20.75135,11.54685 L 19.2565,11.47625 Q 18.67974,10.60525 18.60912,9.55765 Z"
     id="path182" />
</svg>
