<?xml version="1.0" encoding="UTF-8" standalone="no"?>
<!-- Created with Inkscape (http://www.inkscape.org/) -->

<svg
   xmlns:dc="http://purl.org/dc/elements/1.1/"
   xmlns:cc="http://creativecommons.org/ns#"
   xmlns:rdf="http://www.w3.org/1999/02/22-rdf-syntax-ns#"
   xmlns:svg="http://www.w3.org/2000/svg"
   xmlns="http://www.w3.org/2000/svg"
   xmlns:sodipodi="http://sodipodi.sourceforge.net/DTD/sodipodi-0.dtd"
   xmlns:inkscape="http://www.inkscape.org/namespaces/inkscape"
   version="1.0"
   width="580"
   height="580"
   id="svg2"
   sodipodi:version="0.32"
   inkscape:version="0.91 r13725"
   sodipodi:docname="theatre.svg"
   inkscape:output_extension="org.inkscape.output.svg.inkscape">
  <metadata
     id="metadata2975">
    <rdf:RDF>
      <cc:Work
         rdf:about="">
        <dc:format>image/svg+xml</dc:format>
        <dc:type
           rdf:resource="http://purl.org/dc/dcmitype/StillImage" />
        <cc:license
           rdf:resource="http://web.resource.org/cc/PublicDomain" />
        <dc:language>en</dc:language>
      </cc:Work>
    </rdf:RDF>
  </metadata>
  <sodipodi:namedview
     inkscape:window-height="947"
     inkscape:window-width="1048"
     inkscape:pageshadow="2"
     inkscape:pageopacity="0.0"
     guidetolerance="10.0"
     gridtolerance="10.0"
     objecttolerance="10.0"
     borderopacity="1.0"
     bordercolor="#666666"
     pagecolor="#ffffff"
     id="base"
     inkscape:zoom="0.92167712"
     inkscape:cx="364.08918"
     inkscape:cy="217.2494"
     inkscape:window-x="91"
     inkscape:window-y="25"
     inkscape:current-layer="svg2"
     showgrid="false"
     inkscape:window-maximized="0" />
  <defs
     id="defs4">
    <inkscape:perspective
       sodipodi:type="inkscape:persp3d"
       inkscape:vp_x="0 : 290 : 1"
       inkscape:vp_y="0 : 1000 : 0"
       inkscape:vp_z="580 : 290 : 1"
       inkscape:persp3d-origin="290 : 193.33333 : 1"
       id="perspective2441" />
    <inkscape:perspective
       id="perspective3452"
       inkscape:persp3d-origin="30 : 20 : 1"
       inkscape:vp_z="60 : 30 : 1"
       inkscape:vp_y="0 : 1000 : 0"
       inkscape:vp_x="0 : 30 : 1"
       sodipodi:type="inkscape:persp3d" />
    <symbol
       viewBox="244.5 110 489 219.9"
       id="symbol-university">
      <path
         id="path4460"
         d="M79,43l57,119c0,0,21-96,104-96s124,106,124,106l43-133l82-17L0,17L79,43z" />
      <path
         id="path4462"
         d="M94,176l-21,39"
         stroke-width="20"
         stroke="#000000"
         fill="none" />
      <path
         id="path4464"
         d="M300,19c0,10.5-22.6,19-50.5,19S199,29.5,199,19s22.6-19,50.5-19S300,8.5,300,19z" />
      <path
         id="path4466"
         d="M112,216l-16-38L64,88c0,0-9-8-4-35s16-24,16-24"
         stroke-width="20"
         stroke="#000000"
         ill="none" />
    </symbol>
    <inkscape:perspective
       id="perspective4471"
       inkscape:persp3d-origin="372.04724 : 350.78739 : 1"
       inkscape:vp_z="744.09448 : 526.18109 : 1"
       inkscape:vp_y="0 : 1000 : 0"
       inkscape:vp_x="0 : 526.18109 : 1"
       sodipodi:type="inkscape:persp3d" />
    <inkscape:perspective
       id="perspective4668"
       inkscape:persp3d-origin="6 : 4 : 1"
       inkscape:vp_z="12 : 6 : 1"
       inkscape:vp_y="0 : 1000 : 0"
       inkscape:vp_x="0 : 6 : 1"
       sodipodi:type="inkscape:persp3d" />
    <inkscape:perspective
       id="perspective2543"
       inkscape:persp3d-origin="372.04724 : 350.78739 : 1"
       inkscape:vp_z="744.09448 : 526.18109 : 1"
       inkscape:vp_y="0 : 1000 : 0"
       inkscape:vp_x="0 : 526.18109 : 1"
       sodipodi:type="inkscape:persp3d" />
  </defs>
  <g
     id="layer3"
     inkscape:label="Layout"
     style="display:none;stroke:#757575;stroke-opacity:1"
     transform="matrix(48.14969,0,0,48.14969,-536.27327,-33.306752)">
    <rect
       style="fill:none;stroke:#757575;stroke-width:0.10000000000000001;stroke-miterlimit:4;stroke-dasharray:none;stroke-opacity:1;display:inline"
       id="rect4134"
       width="10"
       height="10"
       x="1"
       y="1" />
    <rect
       style="fill:none;stroke:#757575;stroke-width:0.10000000000000001;stroke-miterlimit:4;stroke-dasharray:none;stroke-opacity:1;display:inline"
       id="rect4136"
       width="8"
       height="8"
       x="2"
       y="2" />
  </g>
  <path
     style="color:#000000;font-style:normal;font-variant:normal;font-weight:normal;font-stretch:normal;font-size:medium;line-height:normal;font-family:sans-serif;text-indent:0;text-align:start;text-decoration:none;text-decoration-line:none;text-decoration-style:solid;text-decoration-color:#000000;letter-spacing:normal;word-spacing:normal;text-transform:none;direction:ltr;block-progression:tb;writing-mode:lr-tb;baseline-shift:baseline;text-anchor:start;white-space:normal;clip-rule:nonzero;display:inline;overflow:visible;visibility:visible;opacity:1;isolation:auto;mix-blend-mode:normal;color-interpolation:sRGB;color-interpolation-filters:linearRGB;solid-color:#000000;solid-opacity:1;fill:#000080;fill-opacity:1;fill-rule:evenodd;stroke:none;stroke-width:20;stroke-linecap:butt;stroke-linejoin:miter;stroke-miterlimit:4;stroke-dasharray:none;stroke-dashoffset:0;stroke-opacity:1;color-rendering:auto;image-rendering:auto;shape-rendering:auto;text-rendering:auto;enable-background:accumulate"
     d="M 315.29688 81.890625 C 313.16264 81.889552 310.97589 82.133822 308.76758 82.699219 C 302.87873 84.206944 297.31208 88.219413 293.45117 93.888672 L 292.54688 95.216797 L 292.10352 96.759766 C 289.11784 107.16851 285.92728 117.60495 282.76562 128.11914 C 277.63719 123.42958 271.08254 120.95567 265.07227 120.96875 C 250.42861 121.00064 239.28367 130.14491 231.54102 137.39062 C 202.38454 159.77726 183.09337 174.51865 135.49219 187.34375 L 135.3457 187.38281 L 135.20312 187.42773 C 128.77366 189.36983 115.13814 189.51121 99.033203 188.20312 C 83.005852 186.90135 64.275594 184.54444 45.416016 183.20312 C 45.603313 183.22894 45.791834 183.24629 45.978516 183.27539 L 45.142578 183.18164 C 45.23388 183.18809 45.32472 183.19663 45.416016 183.20312 C 41.295061 182.6351 37.036564 182.87107 33.080078 184.8125 C 28.94377 186.84217 25.934175 190.7584 24.572266 194.42969 C 21.848447 201.77226 23.038436 208.40189 24.443359 215.26562 C 27.253207 228.99309 33.222966 244.56358 34.384766 250.87305 L 34.5 251.49805 L 34.693359 252.10352 C 55.872997 318.43318 80.418928 386.49982 124.56055 443.52734 L 124.78516 443.81641 L 125.03125 444.08984 C 150.6157 472.56333 186.61394 498.38711 228.76953 497.90625 L 229.12891 497.90234 L 229.48633 497.87109 C 264.40736 494.95929 292.55633 468.46245 301.95117 436.05273 C 315.00037 448.70426 331.95336 457.23997 350.90625 458.82031 L 351.26562 458.84961 L 351.625 458.85352 C 393.78398 459.33442 429.7662 433.48772 455.34766 405.01758 L 455.59375 404.74609 L 455.81836 404.45508 C 499.95804 347.43006 524.53427 279.3834 545.71484 213.05078 L 545.9082 212.44531 L 546.02344 211.82031 C 547.18601 205.50667 553.14927 189.93636 555.95312 176.20703 C 557.35506 169.34237 558.54154 162.71029 555.81445 155.36914 C 554.45091 151.69856 551.44065 147.78491 547.30469 145.75586 C 543.34853 143.81502 539.08993 143.57847 534.96875 144.14648 C 535.06003 144.13999 535.1509 144.13144 535.24219 144.125 L 534.40625 144.21875 C 534.59294 144.18965 534.78144 144.1723 534.96875 144.14648 C 516.10799 145.48791 497.3796 147.84751 481.35547 149.15234 C 465.25378 150.46349 451.62346 150.32451 445.19531 148.38281 L 445.05078 148.33984 L 444.90625 148.30078 C 397.3159 135.4786 378.00451 120.72511 348.85742 98.345703 C 343.0047 92.89687 335.12623 86.721334 325.39844 83.585938 C 322.89209 82.778109 320.20713 82.17893 317.41211 81.970703 C 316.71335 81.918646 316.00828 81.890983 315.29688 81.890625 z M 265.11523 140.96875 C 267.101 140.96443 268.08327 141.34183 269.6875 143.39648 C 271.12249 148.36165 272.58926 153.30597 274.06641 158.23438 C 272.24534 164.96939 270.53003 171.76215 268.96289 178.62109 C 268.80328 179.31276 268.64247 180.00403 268.48633 180.69727 C 268.26122 181.70514 268.0461 182.71755 267.82812 183.72852 C 267.57969 184.87464 267.31965 186.01528 267.08203 187.16602 L 266.99023 187.60742 L 266.93945 188.05664 C 263.4372 218.83366 261.31716 250.18631 261.85547 281.55469 C 261.87035 282.42195 261.89509 283.28897 261.91406 284.15625 C 261.94084 285.39258 261.96478 286.62894 262 287.86523 C 262.95321 321.32111 267.02576 354.75484 275.77344 387.48242 C 275.77498 387.48838 275.77775 387.49404 275.7793 387.5 C 276.11693 388.80472 276.48026 390.10464 276.85742 391.40234 C 277.08503 392.20166 277.3134 393.00177 277.56641 393.81836 C 277.539 393.70854 277.50796 393.60003 277.48047 393.49023 L 277.64453 394.08203 C 277.61658 393.99276 277.594 393.90743 277.56641 393.81836 C 278.06473 395.81567 278.64117 397.78751 279.28516 399.73242 C 281.15638 405.47346 283.62392 411.00375 286.60742 416.23242 C 286.16883 417.9663 285.74719 419.69106 285.27734 421.44727 L 285.26562 421.48633 L 285.25586 421.52734 C 284.76729 423.41633 284.22782 425.30528 283.64453 427.16797 L 283.54883 427.4707 L 283.47461 427.7793 C 277.14395 453.64964 254.46969 475.55414 228.09766 477.89258 C 194.70705 478.08091 163.36439 456.71049 140.17383 431 C 98.725755 377.33343 74.759366 311.81912 53.789062 246.1582 C 51.618524 235.3844 46.186731 221.7578 44.037109 211.25586 C 43.250032 207.41061 43.227837 204.72821 43.279297 203.0957 L 43.3125 203.10156 L 43.732422 203.13086 C 61.942686 204.41636 80.633022 206.77371 97.414062 208.13672 C 114.18476 209.49888 128.78866 210.24854 140.96094 206.57812 C 191.00697 193.0527 214.61494 175.60652 243.90234 153.11914 L 244.30469 152.81055 L 244.67383 152.46289 C 250.62312 146.85206 260.76633 140.97822 265.11523 140.96875 z M 376.47461 201.41602 C 379.3256 201.6543 381.22772 203.5283 382.52148 207.17969 C 383.94125 211.18669 383.1893 215.5066 381.07422 217.53711 L 380.86523 217.73633 L 380.66797 217.94922 C 367.87886 231.73492 347.87844 240.58241 330.54102 236.375 C 327.30191 235.04699 323.94529 231.42657 322.56836 227.31836 C 321.21545 223.28181 321.5982 219.8904 323.72266 217.23828 C 329.77737 212.22112 337.45826 209.72749 346.85547 207.85156 C 355.85824 206.05438 366.11735 204.8638 376.47461 201.41602 z M 442.60156 215.80664 C 447.51444 215.94314 451.73691 218.20866 455.48828 222.23438 C 459.48974 226.52847 462.41133 232.82545 463.22461 238.56055 L 463.40234 239.81445 L 463.88672 240.98438 C 466.41291 247.08088 469.31419 252.55093 470.74805 257.13281 C 472.18191 261.7147 472.32633 264.58913 470.85742 267.71094 L 470.83594 267.75586 L 470.81641 267.80078 C 470.15705 269.23896 469.21988 269.96868 467.01172 270.52148 C 464.80356 271.07429 461.61651 270.84118 459.40234 269.97266 L 458.72266 269.70508 L 458.01367 269.54102 C 443.04825 266.06435 432.15324 250.22272 431.8418 234.30469 L 431.82812 233.61914 L 431.7207 232.94141 C 431.14717 229.30457 431.83947 224.47113 433.49414 221.21094 C 435.14881 217.95074 436.89492 216.45042 439.81641 216.01562 L 440.03516 215.98242 L 440.25391 215.94141 C 440.64875 215.86456 441.06253 215.81928 441.50781 215.81055 L 441.55859 215.81055 L 441.60938 215.80859 C 441.9431 215.79867 442.27404 215.79754 442.60156 215.80664 z M 230.04102 229.99219 C 223.50997 229.99835 216.74792 232.82391 211.43164 236.33594 C 198.48046 243.84521 198.55873 262.89704 206.89258 273.8418 C 208.73147 277.17207 212.22247 279.78297 216.1543 279.68555 C 225.9196 278.83431 231.52212 269.23771 233.80078 260.69141 C 237.57214 252.23017 245.93124 243.26606 241.18555 233.48633 C 237.79521 230.99923 233.95964 229.98849 230.04102 229.99219 z M 115.48828 257.125 C 105.41497 256.86606 94.639261 264.60777 96.169922 275.40039 C 104.61641 287.0758 118.97903 291.40016 130.89453 298.43359 C 133.97097 299.60308 136.91442 301.1218 140.07227 302.07617 C 151.98004 307.23587 161.55081 291.41781 156.03711 281.40039 C 147.73024 270.26709 135.31577 262.74945 122.18945 258.64258 C 120.09947 257.66987 117.81289 257.18476 115.48828 257.125 z M 374.85547 321.38281 C 391.74559 321.7047 408.38844 332.35628 419.25781 346.47852 C 421.50984 350.62584 422.30991 356.81245 421.03125 361.92188 C 419.78564 366.89923 417.24019 370.26341 413.25977 371.90625 C 411.49065 372.18321 410.22584 371.76945 407.16406 369.70117 C 403.94173 367.52444 399.94134 363.68949 394.11914 360.55664 C 376.96871 349.68013 356.09487 349.80254 338.57031 355.9375 L 338.88477 355.83203 C 337.02048 356.41616 334.32078 356.44752 332.77148 355.97656 C 331.22219 355.5056 331.0966 355.35961 330.79688 354.49023 L 330.68555 354.16406 L 330.55078 353.8457 C 328.08824 348.03943 332.36955 339.18963 338.66992 335.35352 L 339.14062 335.06836 L 339.57617 334.73047 C 350.03221 326.66655 362.49573 321.44538 374.85547 321.38281 z M 251.01953 340.91602 C 240.66219 340.73665 239.42624 357.5356 232.73438 363.94922 C 221.72341 382.82252 200.59991 397.68396 177.99609 394.82617 C 168.3047 393.94484 156.45114 384.60164 148.15039 393.82422 C 155.64632 407.86733 170.53557 417.1122 186.12305 419.27734 C 198.94926 421.89396 211.24919 416.04995 223.61133 413.75 C 233.27827 411.27077 238.82871 402.70474 244.41797 395.21875 C 251.51286 386.79865 256.88121 376.87061 258.29688 365.82617 C 260.48397 357.54299 262.17012 346.14068 253.2168 341.18555 C 252.44091 341.01456 251.71002 340.92797 251.01953 340.91602 z "
     id="path3327" />
</svg>
