<?xml version="1.0" encoding="UTF-8" standalone="no"?>
<!-- Created with Inkscape (http://www.inkscape.org/) -->

<svg
   xmlns:dc="http://purl.org/dc/elements/1.1/"
   xmlns:cc="http://creativecommons.org/ns#"
   xmlns:rdf="http://www.w3.org/1999/02/22-rdf-syntax-ns#"
   xmlns:svg="http://www.w3.org/2000/svg"
   xmlns="http://www.w3.org/2000/svg"
   xmlns:sodipodi="http://sodipodi.sourceforge.net/DTD/sodipodi-0.dtd"
   xmlns:inkscape="http://www.inkscape.org/namespaces/inkscape"
   version="1.0"
   width="580"
   height="580"
   id="svg2"
   sodipodi:version="0.32"
   inkscape:version="0.91 r13725"
   sodipodi:docname="theme_park.svg"
   inkscape:output_extension="org.inkscape.output.svg.inkscape">
  <metadata
     id="metadata2975">
    <rdf:RDF>
      <cc:Work
         rdf:about="">
        <dc:format>image/svg+xml</dc:format>
        <dc:type
           rdf:resource="http://purl.org/dc/dcmitype/StillImage" />
        <cc:license
           rdf:resource="http://web.resource.org/cc/PublicDomain" />
        <dc:language>en</dc:language>
        <dc:title />
      </cc:Work>
    </rdf:RDF>
  </metadata>
  <sodipodi:namedview
     inkscape:window-height="972"
     inkscape:window-width="1280"
     inkscape:pageshadow="2"
     inkscape:pageopacity="0.0"
     guidetolerance="10.0"
     gridtolerance="10.0"
     objecttolerance="10.0"
     borderopacity="1.0"
     bordercolor="#666666"
     pagecolor="#ffffff"
     id="base"
     inkscape:zoom="0.92167712"
     inkscape:cx="191.95187"
     inkscape:cy="247.76225"
     inkscape:window-x="-8"
     inkscape:window-y="-8"
     inkscape:current-layer="svg2"
     showgrid="false"
     inkscape:window-maximized="1" />
  <defs
     id="defs4">
    <inkscape:perspective
       sodipodi:type="inkscape:persp3d"
       inkscape:vp_x="0 : 290 : 1"
       inkscape:vp_y="0 : 1000 : 0"
       inkscape:vp_z="580 : 290 : 1"
       inkscape:persp3d-origin="290 : 193.33333 : 1"
       id="perspective2441" />
    <inkscape:perspective
       id="perspective3452"
       inkscape:persp3d-origin="30 : 20 : 1"
       inkscape:vp_z="60 : 30 : 1"
       inkscape:vp_y="0 : 1000 : 0"
       inkscape:vp_x="0 : 30 : 1"
       sodipodi:type="inkscape:persp3d" />
    <symbol
       viewBox="244.5 110 489 219.9"
       id="symbol-university">
      <path
         id="path4460"
         d="M79,43l57,119c0,0,21-96,104-96s124,106,124,106l43-133l82-17L0,17L79,43z" />
      <path
         id="path4462"
         d="M94,176l-21,39"
         stroke-width="20"
         stroke="#000000"
         fill="none" />
      <path
         id="path4464"
         d="M300,19c0,10.5-22.6,19-50.5,19S199,29.5,199,19s22.6-19,50.5-19S300,8.5,300,19z" />
      <path
         id="path4466"
         d="M112,216l-16-38L64,88c0,0-9-8-4-35s16-24,16-24"
         stroke-width="20"
         stroke="#000000"
         ill="none" />
    </symbol>
    <inkscape:perspective
       id="perspective4471"
       inkscape:persp3d-origin="372.04724 : 350.78739 : 1"
       inkscape:vp_z="744.09448 : 526.18109 : 1"
       inkscape:vp_y="0 : 1000 : 0"
       inkscape:vp_x="0 : 526.18109 : 1"
       sodipodi:type="inkscape:persp3d" />
    <inkscape:perspective
       id="perspective4668"
       inkscape:persp3d-origin="6 : 4 : 1"
       inkscape:vp_z="12 : 6 : 1"
       inkscape:vp_y="0 : 1000 : 0"
       inkscape:vp_x="0 : 6 : 1"
       sodipodi:type="inkscape:persp3d" />
    <inkscape:perspective
       id="perspective2893"
       inkscape:persp3d-origin="0.5 : 0.33333333 : 1"
       inkscape:vp_z="1 : 0.5 : 1"
       inkscape:vp_y="0 : 1000 : 0"
       inkscape:vp_x="0 : 0.5 : 1"
       sodipodi:type="inkscape:persp3d" />
  </defs>
  <g
     id="layer3"
     inkscape:label="Layout"
     style="display:none;stroke:#757575;stroke-opacity:1"
     transform="matrix(48.14969,0,0,48.14969,-536.27327,-33.306752)">
    <rect
       style="fill:none;stroke:#757575;stroke-width:0.10000000000000001;stroke-miterlimit:4;stroke-dasharray:none;stroke-opacity:1;display:inline"
       id="rect4134"
       width="10"
       height="10"
       x="1"
       y="1" />
    <rect
       style="fill:none;stroke:#757575;stroke-width:0.10000000000000001;stroke-miterlimit:4;stroke-dasharray:none;stroke-opacity:1;display:inline"
       id="rect4136"
       width="8"
       height="8"
       x="2"
       y="2" />
  </g>
  <path
     style="color:#000000;font-style:normal;font-variant:normal;font-weight:normal;font-stretch:normal;font-size:medium;line-height:normal;font-family:sans-serif;text-indent:0;text-align:start;text-decoration:none;text-decoration-line:none;text-decoration-style:solid;text-decoration-color:#000000;letter-spacing:normal;word-spacing:normal;text-transform:none;direction:ltr;block-progression:tb;writing-mode:lr-tb;baseline-shift:baseline;text-anchor:start;white-space:normal;clip-rule:nonzero;display:inline;overflow:visible;visibility:visible;opacity:1;isolation:auto;mix-blend-mode:normal;color-interpolation:sRGB;color-interpolation-filters:linearRGB;solid-color:#000000;solid-opacity:1;fill:#000080;fill-opacity:1;fill-rule:nonzero;stroke:none;stroke-width:17.79999924;stroke-linecap:round;stroke-linejoin:round;stroke-miterlimit:4;stroke-dasharray:none;stroke-dashoffset:0;stroke-opacity:1;color-rendering:auto;image-rendering:auto;shape-rendering:auto;text-rendering:auto;enable-background:accumulate"
     d="M 288.60352,91.419922 C 280.8135,91.420458 274.49946,97.736126 274.5,105.52539 274.50054,113.31465 280.81426,119.62837 288.60352,119.62891 296.39278,119.62945 302.70844,113.31541 302.70898,105.52539 302.70952,97.735368 296.39354,91.419386 288.60352,91.419922 Z M 77.044922,94.558594 C 69.119161,94.688865 61.491482,95.741472 54.164062,97.660156 49.335772,98.843156 46.412297,103.7516 47.671797,108.5605 48.931296,113.3694 53.885527,116.21459 58.673828,114.87891 64.429403,113.37181 70.457691,112.4915 76.794922,112.32031 L 76.794922,112.76562 76.794922,179.73438 65.107422,179.73438 55.107422,179.73438 55.107422,199.73438 65.107422,199.73438 76.794922,199.73438 76.794922,247.73438 65.107422,247.73438 55.107422,247.73438 55.107422,267.73438 65.107422,267.73438 76.794922,267.73438 76.794922,315.73438 65.107422,315.73438 55.107422,315.73438 55.107422,335.73438 65.107422,335.73438 76.794922,335.73438 76.794922,383.73438 65.107422,383.73438 55.107422,383.73438 55.107422,403.73438 65.107422,403.73438 76.794922,403.73438 76.794922,451.73438 65.107422,451.73438 55.107422,451.73438 55.107422,471.73438 65.107422,471.73438 76.794922,471.73438 76.794922,484.51562 76.794922,494.51562 96.794922,494.51562 96.794922,484.51562 96.794922,471.73438 144.79492,471.73438 144.79492,484.51562 144.79492,494.51562 164.79492,494.51562 164.79492,484.51562 164.79492,471.73438 210.79492,471.73438 210.79492,484.51562 210.79492,494.51562 230.79492,494.51562 230.79492,484.51562 230.79492,471.73438 278.79492,471.73438 278.79492,484.51562 278.79492,494.51562 298.79492,494.51562 298.79492,484.51562 298.79492,471.73438 346.79492,471.73438 346.79492,484.51562 346.79492,494.51562 366.79492,494.51562 366.79492,484.51562 366.79492,471.73438 414.79492,471.73438 414.79492,484.51562 414.79492,494.51562 434.79492,494.51562 434.79492,484.51562 434.79492,471.73438 482.79492,471.73438 482.79492,484.51562 482.79492,494.51562 502.79492,494.51562 502.79492,484.51562 502.79492,407.07617 C 508.74959,407.57519 514.64338,407.905 520.48047,408.10742 525.44255,408.35439 529.64619,404.49139 529.81846,399.52616 529.99073,394.56093 526.06492,390.41589 521.09766,390.31836 488.81978,389.19901 457.17568,384.72682 420.50586,365.21289 412.33542,360.86497 403.90688,355.74813 395.18164,349.73828 396.16715,349.64972 397.13406,349.4154 398.05078,349.04297 404.09881,346.58112 411.72979,343.84287 418.78711,337.61523 425.84443,331.3876 431.54575,321.85616 434.65625,308.19922 435.45811,304.67965 434.30109,301.0011 431.62891,298.57422 L 423.73047,291.4043 C 429.25229,281.94121 422.47558,270.04619 411.51953,269.9707 408.49771,269.95712 405.5498,270.90442 403.10156,272.67578 L 394.85547,265.18945 396.2207,263.63672 C 407.96281,250.66356 398.83552,229.90915 381.33789,229.79492 375.37168,229.75619 369.69196,232.35023 365.81445,236.88477 L 364.8418,237.98828 C 363.17981,236.67332 361.14306,235.92031 359.02539,235.83789 358.58101,235.82128 358.13601,235.83433 357.69336,235.87695 343.61664,237.23578 333.31034,243.99373 327.33203,252.22461 321.35372,260.45549 318.866,269.26758 316.06836,276.29102 315.95614,276.57603 315.85708,276.86605 315.77148,277.16016 307.80717,268.23437 299.61735,258.61631 291.17383,248.2168 286.54734,242.51855 281.98441,237.00958 277.47656,231.66992 282.24302,229.95324 287.44653,227.67539 292.5,223.75977 299.94011,217.99488 306.23581,208.84679 310.21094,195.41602 311.23554,191.95449 310.31514,188.20944 307.80273,185.61719 L 300.52539,178.10938 301.76562,176.86914 C 311.08549,167.8073 304.40159,152.0208 291.4082,152.40625 287.70724,152.51616 284.19434,154.06212 281.61328,156.7168 L 280.68555,157.64453 273.19336,149.91406 277.96875,145.13867 C 291.21681,132.26213 281.71855,109.8243 263.25195,110.37305 257.99152,110.5289 252.99835,112.72637 249.33008,116.5 L 244.97461,120.85547 C 243.14906,119.23217 240.7925,118.33317 238.34961,118.32812 238.23891,118.32824 238.12822,118.33019 238.01758,118.33398 223.88285,118.79232 213.16683,124.87807 206.67578,132.71094 202.16752,138.15114 199.33105,143.96711 196.92773,149.30859 182.78547,137.4418 169.3068,127.66701 156.42188,119.82031 127.28897,102.07888 100.8222,94.16778 77.044922,94.558594 Z M 96.794922,114.05859 C 111.18077,116.85447 127.06001,123.08838 144.79492,133.60742 L 144.79492,138.76562 144.79492,179.73438 96.794922,179.73438 Z M 313.55859,132.81836 C 305.76818,132.81836 299.45258,139.13381 299.45312,146.92383 299.45366,154.71385 305.76895,161.02734 313.55859,161.02734 321.34823,161.02734 327.66352,154.71385 327.66406,146.92383 327.6646,139.13381 321.349,132.81836 313.55859,132.81836 Z M 164.79492,146.78516 C 177.2171,155.76056 190.3909,166.69043 204.33594,179.73438 L 164.79492,179.73438 Z M 96.794922,199.73438 144.79492,199.73438 144.79492,247.73438 96.794922,247.73438 Z M 164.79492,199.73438 210.79492,199.73438 210.79492,247.73438 164.79492,247.73438 Z M 230.79492,206.08984 C 242.60358,218.53956 254.90543,232.38523 267.7207,247.73438 L 230.79492,247.73438 Z M 403.71425,209.59577 C 395.50245,209.72269 389.60235,216.42866 390.09961,224.20312 390.59687,231.97758 397.30247,237.87619 405.07617,237.37891 412.84987,236.88163 418.73079,229.90624 418.25195,222.4043 417.77311,214.90236 411.92605,209.46885 403.71425,209.59577 Z M 431.26255,249.4478 C 423.05092,249.57529 417.15224,256.27901 417.64844,264.05273 418.14464,271.82645 424.84857,277.72666 432.62305,277.23047 440.39753,276.73428 446.28065,269.75619 445.80078,262.25391 445.32091,254.75163 439.47418,249.32032 431.26255,249.4478 Z M 96.794922,267.73438 144.79492,267.73438 144.79492,315.73438 96.794922,315.73438 Z M 164.79492,267.73438 210.79492,267.73438 210.79492,315.73438 164.79492,315.73438 Z M 230.79492,267.73438 270.41992,267.73438 278.79492,267.73438 278.79492,272.76562 278.79492,315.73438 230.79492,315.73438 Z M 298.79492,284.83594 C 308.71411,296.12242 318.32936,306.40071 327.66602,315.73438 L 298.79492,315.73438 Z M 96.794922,335.73438 144.79492,335.73438 144.79492,383.73438 96.794922,383.73438 Z M 164.79492,335.73438 210.79492,335.73438 210.79492,383.73438 164.79492,383.73438 Z M 230.79492,335.73438 278.79492,335.73438 278.79492,383.73438 230.79492,383.73438 Z M 298.79492,335.73438 330.41992,335.73438 346.79492,335.73438 346.79492,344.76562 346.79492,383.73438 298.79492,383.73438 Z M 366.79492,350.85352 C 382.59541,363.36737 397.64282,373.2097 412.14258,380.92578 413.02988,381.39796 413.91181,381.85244 414.79492,382.30859 L 414.79492,383.73438 366.79492,383.73438 Z M 96.794922,403.73438 144.79492,403.73438 144.79492,451.73438 96.794922,451.73438 Z M 164.79492,403.73438 210.79492,403.73438 210.79492,451.73438 164.79492,451.73438 Z M 230.79492,403.73438 278.79492,403.73438 278.79492,451.73438 230.79492,451.73438 Z M 298.79492,403.73438 346.79492,403.73438 346.79492,451.73438 298.79492,451.73438 Z M 366.79492,403.73438 414.79492,403.73438 414.79492,451.73438 366.79492,451.73438 Z M 434.79492,403.73438 446.41992,403.73438 477.36523,403.73438 C 479.18122,404.06701 480.99305,404.38639 482.79492,404.67383 L 482.79492,406.76562 482.79492,451.73438 434.79492,451.73438 Z"
     id="path2899"
     inkscape:connector-curvature="0"
     sodipodi:nodetypes="zzzzzscscccccccccccccccccccccccccccccccccccccccccccccccccccccccccccccccccccccccccccscsccsccccccccccccsccscsccccccccccccccscsscccccczzzzzcccccccccccccccccczzzzzzzzzzccccccccccccccccccccccccccccccccccccccccccccsccccccccccccccccccccccccccccccccccccc" />
</svg>
