<?xml version="1.0" encoding="UTF-8" standalone="no"?>
<!-- Created with Inkscape (http://www.inkscape.org/) -->

<svg
   xmlns:dc="http://purl.org/dc/elements/1.1/"
   xmlns:cc="http://creativecommons.org/ns#"
   xmlns:rdf="http://www.w3.org/1999/02/22-rdf-syntax-ns#"
   xmlns:svg="http://www.w3.org/2000/svg"
   xmlns="http://www.w3.org/2000/svg"
   xmlns:sodipodi="http://sodipodi.sourceforge.net/DTD/sodipodi-0.dtd"
   xmlns:inkscape="http://www.inkscape.org/namespaces/inkscape"
   version="1.0"
   width="580"
   height="580"
   id="svg2"
   sodipodi:version="0.32"
   inkscape:version="0.91 r13725"
   sodipodi:docname="castle.svg"
   inkscape:output_extension="org.inkscape.output.svg.inkscape">
  <metadata
     id="metadata2975">
    <rdf:RDF>
      <cc:Work
         rdf:about="">
        <dc:format>image/svg+xml</dc:format>
        <dc:type
           rdf:resource="http://purl.org/dc/dcmitype/StillImage" />
        <cc:license
           rdf:resource="http://web.resource.org/cc/PublicDomain" />
        <dc:language>en</dc:language>
      </cc:Work>
    </rdf:RDF>
  </metadata>
  <sodipodi:namedview
     inkscape:window-height="972"
     inkscape:window-width="1280"
     inkscape:pageshadow="2"
     inkscape:pageopacity="0.0"
     guidetolerance="10.0"
     gridtolerance="10.0"
     objecttolerance="10.0"
     borderopacity="1.0"
     bordercolor="#666666"
     pagecolor="#ffffff"
     id="base"
     inkscape:zoom="0.92167712"
     inkscape:cx="224.17815"
     inkscape:cy="198.73664"
     inkscape:window-x="-8"
     inkscape:window-y="-8"
     inkscape:current-layer="svg2"
     showgrid="false"
     inkscape:window-maximized="1" />
  <defs
     id="defs4">
    <inkscape:perspective
       sodipodi:type="inkscape:persp3d"
       inkscape:vp_x="0 : 290 : 1"
       inkscape:vp_y="0 : 1000 : 0"
       inkscape:vp_z="580 : 290 : 1"
       inkscape:persp3d-origin="290 : 193.33333 : 1"
       id="perspective2441" />
    <inkscape:perspective
       id="perspective3452"
       inkscape:persp3d-origin="30 : 20 : 1"
       inkscape:vp_z="60 : 30 : 1"
       inkscape:vp_y="0 : 1000 : 0"
       inkscape:vp_x="0 : 30 : 1"
       sodipodi:type="inkscape:persp3d" />
  </defs>
  <path
     style="fill:#000080;fill-opacity:1;fill-rule:evenodd;stroke:none;stroke-width:22.61511803;stroke-linecap:round;stroke-linejoin:round;stroke-dasharray:none;stroke-opacity:0.58139535"
     d="M 409.36914 45.103516 L 409.36914 104.00195 L 310.03516 104.00195 L 310.03516 46.228516 L 300.66016 46.228516 L 270.75391 46.228516 L 270.75391 104.00195 L 170.78125 104.00195 L 170.78125 47.179688 L 161.40625 47.179688 L 131.49805 47.179688 L 131.49805 104.00195 L 75.265625 104.00195 L 75.265625 113.20703 L 75.265625 142.96875 L 131.49805 142.96875 L 131.49805 228.00195 L 75.265625 228.00195 L 75.265625 237.20703 L 75.265625 266.96875 L 131.49805 266.96875 L 131.49805 352.00195 L 75.265625 352.00195 L 75.265625 361.20703 L 75.265625 390.96875 L 131.49805 390.96875 L 131.49805 474.9082 L 95.953125 474.9082 L 150.87109 534.74414 L 206.82812 474.9082 L 170.78125 474.9082 L 170.78125 390.96875 L 270.75391 390.96875 L 270.75391 475.79297 L 235.71484 475.79297 L 290.63086 535.62891 L 346.58984 475.79297 L 310.03516 475.79297 L 310.03516 390.96875 L 409.36914 390.96875 L 409.36914 475.79297 L 375.71484 475.79297 L 430.63086 535.62891 L 486.58984 475.79297 L 448.65039 475.79297 L 448.65039 390.96875 L 507.5625 390.96875 L 507.5625 352.00195 L 448.65039 352.00195 L 448.65039 266.96875 L 507.5625 266.96875 L 507.5625 228.00195 L 448.65039 228.00195 L 448.65039 142.96875 L 507.5625 142.96875 L 507.5625 104.00195 L 448.65039 104.00195 L 448.65039 45.103516 L 439.27539 45.103516 L 409.36914 45.103516 z M 170.78125 142.96875 L 270.75391 142.96875 L 270.75391 228.00195 L 170.78125 228.00195 L 170.78125 142.96875 z M 310.03516 142.96875 L 409.36914 142.96875 L 409.36914 228.00195 L 310.03516 228.00195 L 310.03516 142.96875 z M 170.78125 266.96875 L 270.75391 266.96875 L 270.75391 352.00195 L 170.78125 352.00195 L 170.78125 266.96875 z M 310.03516 266.96875 L 409.36914 266.96875 L 409.36914 352.00195 L 310.03516 352.00195 L 310.03516 266.96875 z "
     id="path837" />
</svg>
