<?xml version="1.0" encoding="UTF-8" standalone="no"?>
<!-- Created with Inkscape (http://www.inkscape.org/) -->

<svg
   xmlns:dc="http://purl.org/dc/elements/1.1/"
   xmlns:cc="http://creativecommons.org/ns#"
   xmlns:rdf="http://www.w3.org/1999/02/22-rdf-syntax-ns#"
   xmlns:svg="http://www.w3.org/2000/svg"
   xmlns="http://www.w3.org/2000/svg"
   xmlns:sodipodi="http://sodipodi.sourceforge.net/DTD/sodipodi-0.dtd"
   xmlns:inkscape="http://www.inkscape.org/namespaces/inkscape"
   version="1.0"
   width="580"
   height="580"
   id="svg2"
   sodipodi:version="0.32"
   inkscape:version="0.91 r13725"
   sodipodi:docname="art_gallery.svg"
   inkscape:output_extension="org.inkscape.output.svg.inkscape">
  <metadata
     id="metadata2975">
    <rdf:RDF>
      <cc:Work
         rdf:about="">
        <dc:format>image/svg+xml</dc:format>
        <dc:type
           rdf:resource="http://purl.org/dc/dcmitype/StillImage" />
        <cc:license
           rdf:resource="http://web.resource.org/cc/PublicDomain" />
        <dc:language>en</dc:language>
      </cc:Work>
    </rdf:RDF>
  </metadata>
  <sodipodi:namedview
     inkscape:window-height="972"
     inkscape:window-width="1280"
     inkscape:pageshadow="2"
     inkscape:pageopacity="0.0"
     guidetolerance="10.0"
     gridtolerance="10.0"
     objecttolerance="10.0"
     borderopacity="1.0"
     bordercolor="#666666"
     pagecolor="#ffffff"
     id="base"
     inkscape:zoom="0.65172414"
     inkscape:cx="284.87689"
     inkscape:cy="409.92214"
     inkscape:window-x="-8"
     inkscape:window-y="-8"
     inkscape:current-layer="svg2"
     showgrid="false"
     inkscape:window-maximized="1" />
  <defs
     id="defs4">
    <inkscape:perspective
       sodipodi:type="inkscape:persp3d"
       inkscape:vp_x="0 : 290 : 1"
       inkscape:vp_y="0 : 1000 : 0"
       inkscape:vp_z="580 : 290 : 1"
       inkscape:persp3d-origin="290 : 193.33333 : 1"
       id="perspective2441" />
    <inkscape:perspective
       id="perspective3452"
       inkscape:persp3d-origin="30 : 20 : 1"
       inkscape:vp_z="60 : 30 : 1"
       inkscape:vp_y="0 : 1000 : 0"
       inkscape:vp_x="0 : 30 : 1"
       sodipodi:type="inkscape:persp3d" />
  </defs>
  <path
     style="fill:#000080;fill-opacity:1;fill-rule:evenodd;stroke:none;stroke-width:22.61511803;stroke-linecap:round;stroke-linejoin:round;stroke-dasharray:none;stroke-opacity:0.58139535"
     d="M 293.67969 19.310547 L 74.585938 92.232422 L 28.113281 92.232422 L 28.113281 106.99414 L 28.113281 107.69922 L 24.453125 108.91797 L 28.113281 108.91797 L 28.113281 165.82422 L 62.951172 165.82422 L 62.951172 479.16211 L 54.205078 479.16211 L 23.160156 530.4668 L 557.64258 529.53711 L 528.55859 479.16211 L 519.81836 479.16211 L 519.81836 165.82422 L 554.04688 165.82422 L 554.04688 108.91797 L 557.89648 108.91797 L 554.04688 107.61328 L 554.04688 92.232422 L 508.69727 92.232422 L 293.67969 19.310547 z M 123.75 165.82422 L 459.24023 165.82422 L 459.24023 479.16211 L 123.75 479.16211 L 123.75 165.82422 z M 233.40625 177.31836 C 230.89465 186.5084 227.15035 198.15781 237.19531 210.27344 L 249.40234 207.52734 C 248.93521 202.394 251.83969 198.38305 247.12891 192.54492 C 240.53869 184.37757 237.43436 181.93134 233.40625 177.31836 z M 259.76953 178.59961 C 255.54416 187.36467 249.58366 198.40157 258.39258 211.72266 L 271.99023 210.61914 C 272.33709 205.47595 276.12868 201.8882 272.02344 195.48633 C 266.28035 186.53032 263.34262 183.69847 259.76953 178.59961 z M 250.16992 208.56641 L 237.39453 212.18945 L 247.89844 244.01953 C 246.80799 244.53675 245.70879 245.09061 244.59766 245.70117 C 242.88275 246.19377 239.26272 251.85135 235.95703 255.51367 C 225.27805 267.3449 223.31559 284.11774 230.93555 298.29102 C 238.856 313.02345 237.5248 323.18419 227.25977 326.34766 C 222.91264 327.68736 220.99919 327.32705 211.4043 323.55664 C 205.403 321.19831 198.33073 319.28767 195.70117 319.30469 C 188.27137 319.35281 181.10833 323.82486 177.20898 330.8125 C 174.2824 336.05714 173.77869 338.38387 173.74609 347.47656 C 173.70449 359.10227 175.12035 363.18838 184.57812 379.20703 C 194.18582 395.47952 208.40105 410.08561 224.79688 420.52148 C 236.06966 427.69652 256.80414 435.2842 269.15234 436.89844 C 276.53483 437.86354 286.29814 439.25081 299.67188 439.04102 L 305.00391 468.08789 C 305.61084 472.74133 315.99448 471.45334 315.81641 467.03906 L 310.99219 438.51172 C 311.33726 438.48479 311.70169 438.44709 312.05078 438.41797 L 318.63867 458.38086 C 319.89935 462.91347 329.15427 460.37534 328.32031 456.02734 L 322.40234 437.28711 C 325.46211 436.87816 328.62646 436.40507 331.96094 435.82031 C 355.45777 430.347 378.70429 415.5204 391.20898 401.18359 C 403.71361 386.84678 405.90811 380.4576 409.02734 365.06445 C 412.82724 346.31209 407.61312 320.55191 396.05859 300.94727 C 388.46956 288.07094 374.77351 272.85398 364.5 265.90625 C 346.9406 254.03119 315.36477 242.11889 294.80273 239.59961 C 288.82694 239.27163 283.01347 238.68068 277.16992 238.51367 L 272.64453 211.74805 L 258.28906 213.64453 L 262.99805 239.29688 C 262.02195 239.45522 261.03954 239.64546 260.05273 239.85938 L 250.16992 208.56641 z M 266.15625 256.49023 L 267.33594 262.92383 L 265.3418 256.60742 C 265.61152 256.56327 265.88344 256.52479 266.15625 256.49023 z M 280.72656 259.54492 C 287.32563 263.51744 291.74219 270.74733 291.74219 279.00977 C 291.74219 284.53834 289.76354 289.60825 286.47852 293.55078 L 280.72656 259.54492 z M 253.86914 262.10938 L 266.91016 301.63281 C 255.36636 300.55822 246.31055 290.83141 246.31055 279.00977 C 246.31055 272.29682 249.23182 266.26668 253.86914 262.10938 z M 332.76758 266.69531 C 333.24188 266.69252 333.74976 266.70612 334.32617 266.73242 C 341.06473 267.03998 347.14101 269.36133 349.70312 272.60156 C 352.64017 276.3159 356.90919 295.08365 356.0332 300.42773 C 355.33536 304.68508 345.89618 316.45703 343.17969 316.45703 C 342.54242 316.45703 341.29092 316.72406 340.38867 317.05273 C 339.48635 317.38138 336.79511 316.78916 334.42383 315.74414 C 332.05253 314.69903 328.61443 313.80312 326.7832 313.74414 C 321.17825 313.56361 317.61155 310.80104 314.87305 304.52539 C 310.64342 294.83272 311.33067 289.09464 317.50977 282.01172 C 320.38917 278.71111 324.16779 273.87161 325.91797 271.25586 C 328.36971 267.59171 329.44767 266.71487 332.76758 266.69531 z M 372.98633 323.38477 C 373.85305 323.39313 374.81902 323.45161 375.91016 323.53711 C 389.77719 324.62353 393.7884 330.0715 390.16992 342.89648 C 389.07983 346.76009 387.90996 352.35788 387.57227 355.36523 C 386.18471 367.72124 378.87225 373.20439 369.34961 368.99023 C 352.8753 361.69964 352.91331 361.71803 350.89453 353.0957 C 348.84779 344.35326 349.57748 342.47062 358.53516 333.52539 C 360.96332 331.10073 364.17852 327.71754 365.67383 326.01953 C 367.38247 324.07922 369.23041 323.34853 372.98633 323.38477 z M 208.63281 344.53125 C 208.75581 344.52502 208.8595 344.52424 208.97852 344.53125 C 210.56437 344.62457 215.74374 344.87056 220.48633 345.07031 C 225.2289 345.27011 229.80627 345.95743 230.66602 346.57227 C 232.73908 348.05471 238.34379 360.78806 238.34375 364.02539 C 238.34374 368.0632 234.99551 372.53874 226.89453 379.28516 C 220.4811 384.62614 218.50881 385.53906 213.46289 385.53906 C 207.41132 385.53908 202.62891 382.20759 202.62891 377.99609 C 202.62895 376.94844 201.19106 372.9994 199.43555 369.2207 C 196.64672 363.21781 196.41808 361.7224 197.56836 357.32812 C 199.17633 351.1858 204.82048 344.72433 208.63281 344.53125 z M 317.77734 364.66016 C 320.19519 364.68055 323.34239 365.74547 328.28516 367.68164 C 331.33398 368.87595 335.46941 370.35719 337.50195 370.99023 C 340.36043 371.88052 341.9605 373.90423 344.52539 379.90039 C 350.63681 394.18803 348.51562 400.89662 337.00195 403.72266 C 333.53334 404.57403 328.70819 406.20997 326.26367 407.37891 C 321.07703 409.8592 316.49217 409.8484 313.05078 407.67383 L 305.2168 382.86914 C 304.62892 375.63315 305.77727 374.31395 309.63867 369.89453 C 312.60938 366.49462 314.50126 364.82252 317.31641 364.67969 C 317.47169 364.67181 317.61613 364.65882 317.77734 364.66016 z M 266.80469 366.08398 C 269.46514 366.05522 271.72674 366.9611 275.92578 369.39258 C 282.54153 373.22345 288.85543 380.59326 288.85547 384.46094 C 288.85547 385.51182 287.74752 388.84681 286.39258 391.88867 C 285.03754 394.9305 283.91199 398.39293 283.89062 399.58594 C 283.86924 400.77893 282.43766 403.59998 280.7168 405.83984 C 277.97654 409.40703 276.52909 409.98129 269.07422 410.5918 C 262.01241 411.17009 260.45073 410.91922 259.81836 409.0332 C 259.39919 407.78301 256.53502 405.30957 253.44922 403.54883 C 249.64143 401.37612 247.28194 398.87395 246.15625 395.79492 C 242.58816 386.03484 245.82341 372.65666 251.98633 371.66406 C 253.62894 371.39956 255.82143 370.31525 256.85547 369.25977 C 257.88938 368.2043 261.08447 366.91472 263.9375 366.39258 C 265.00475 366.19727 265.91795 366.09355 266.80469 366.08398 z "
     id="path828" />
</svg>
