<?xml version="1.0" encoding="UTF-8" standalone="no"?>
<!-- Created with Inkscape (http://www.inkscape.org/) -->

<svg
   xmlns:dc="http://purl.org/dc/elements/1.1/"
   xmlns:cc="http://creativecommons.org/ns#"
   xmlns:rdf="http://www.w3.org/1999/02/22-rdf-syntax-ns#"
   xmlns:svg="http://www.w3.org/2000/svg"
   xmlns="http://www.w3.org/2000/svg"
   xmlns:sodipodi="http://sodipodi.sourceforge.net/DTD/sodipodi-0.dtd"
   xmlns:inkscape="http://www.inkscape.org/namespaces/inkscape"
   version="1.0"
   width="580"
   height="580"
   id="svg2"
   sodipodi:version="0.32"
   inkscape:version="0.91 r13725"
   sodipodi:docname="wayside_shrine.svg"
   inkscape:output_extension="org.inkscape.output.svg.inkscape">
  <metadata
     id="metadata2975">
    <rdf:RDF>
      <cc:Work
         rdf:about="">
        <dc:format>image/svg+xml</dc:format>
        <dc:type
           rdf:resource="http://purl.org/dc/dcmitype/StillImage" />
        <cc:license
           rdf:resource="http://web.resource.org/cc/PublicDomain" />
        <dc:language>en</dc:language>
        <dc:title />
      </cc:Work>
    </rdf:RDF>
  </metadata>
  <sodipodi:namedview
     inkscape:window-height="972"
     inkscape:window-width="1280"
     inkscape:pageshadow="2"
     inkscape:pageopacity="0.0"
     guidetolerance="10.0"
     gridtolerance="10.0"
     objecttolerance="10.0"
     borderopacity="1.0"
     bordercolor="#666666"
     pagecolor="#ffffff"
     id="base"
     inkscape:zoom="0.94452774"
     inkscape:cx="344.92695"
     inkscape:cy="334.83791"
     inkscape:window-x="-8"
     inkscape:window-y="-8"
     inkscape:current-layer="svg2"
     showgrid="false"
     inkscape:window-maximized="1" />
  <defs
     id="defs4">
    <inkscape:perspective
       sodipodi:type="inkscape:persp3d"
       inkscape:vp_x="0 : 290 : 1"
       inkscape:vp_y="0 : 1000 : 0"
       inkscape:vp_z="580 : 290 : 1"
       inkscape:persp3d-origin="290 : 193.33333 : 1"
       id="perspective2441" />
    <inkscape:perspective
       id="perspective2466"
       inkscape:persp3d-origin="372.04724 : 350.78739 : 1"
       inkscape:vp_z="744.09448 : 526.18109 : 1"
       inkscape:vp_y="0 : 1000 : 0"
       inkscape:vp_x="0 : 526.18109 : 1"
       sodipodi:type="inkscape:persp3d" />
    <inkscape:perspective
       id="perspective3333"
       inkscape:persp3d-origin="372.04724 : 350.78739 : 1"
       inkscape:vp_z="744.09448 : 526.18109 : 1"
       inkscape:vp_y="0 : 1000 : 0"
       inkscape:vp_x="0 : 526.18109 : 1"
       sodipodi:type="inkscape:persp3d" />
    <inkscape:perspective
       id="perspective3401"
       inkscape:persp3d-origin="372.04724 : 350.78739 : 1"
       inkscape:vp_z="744.09448 : 526.18109 : 1"
       inkscape:vp_y="0 : 1000 : 0"
       inkscape:vp_x="0 : 526.18109 : 1"
       sodipodi:type="inkscape:persp3d" />
    <inkscape:perspective
       id="perspective3464"
       inkscape:persp3d-origin="372.04724 : 350.78739 : 1"
       inkscape:vp_z="744.09448 : 526.18109 : 1"
       inkscape:vp_y="0 : 1000 : 0"
       inkscape:vp_x="0 : 526.18109 : 1"
       sodipodi:type="inkscape:persp3d" />
    <inkscape:perspective
       id="perspective3581"
       inkscape:persp3d-origin="225 : 150 : 1"
       inkscape:vp_z="450 : 225 : 1"
       inkscape:vp_y="0 : 1000 : 0"
       inkscape:vp_x="0 : 225 : 1"
       sodipodi:type="inkscape:persp3d" />
    <inkscape:perspective
       id="perspective4312"
       inkscape:persp3d-origin="225 : 150 : 1"
       inkscape:vp_z="450 : 225 : 1"
       inkscape:vp_y="0 : 1000 : 0"
       inkscape:vp_x="0 : 225 : 1"
       sodipodi:type="inkscape:persp3d" />
  </defs>
  <g
     transform="translate(1.9777315,2.9304584)"
     id="g6173">
    <rect
       y="340.70639"
       x="30.866087"
       height="184.55798"
       width="519.81635"
       id="rect2911"
       style="opacity:0.2;fill:#ffffff;fill-opacity:1;stroke:#ffffff;stroke-width:10.9733696;stroke-linecap:round;stroke-linejoin:round;stroke-miterlimit:4;stroke-opacity:1;stroke-dasharray:none" />
    <path
       style="color:#000000;font-style:normal;font-variant:normal;font-weight:normal;font-stretch:normal;font-size:medium;line-height:normal;font-family:sans-serif;text-indent:0;text-align:start;text-decoration:none;text-decoration-line:none;text-decoration-style:solid;text-decoration-color:#000000;letter-spacing:normal;word-spacing:normal;text-transform:none;direction:ltr;block-progression:tb;writing-mode:lr-tb;baseline-shift:baseline;text-anchor:start;white-space:normal;clip-rule:nonzero;display:inline;overflow:visible;visibility:visible;opacity:1;isolation:auto;mix-blend-mode:normal;color-interpolation:sRGB;color-interpolation-filters:linearRGB;solid-color:#000000;solid-opacity:1;fill:#000080;fill-opacity:1;fill-rule:nonzero;stroke:none;stroke-width:20;stroke-linecap:butt;stroke-linejoin:miter;stroke-miterlimit:4;stroke-dasharray:none;stroke-dashoffset:0;stroke-opacity:1;color-rendering:auto;image-rendering:auto;shape-rendering:auto;text-rendering:auto;enable-background:accumulate"
       d="M 303.17578 20.015625 C 302.1678 20.03805 301.17833 20.102337 300.2207 20.189453 C 270.07451 22.295997 258.60767 63.118545 283.11523 80.652344 C 306.66942 98.708593 341.8409 77.111537 336.22461 47.832031 C 333.55748 32.417464 321.35105 21.30005 306.24414 20.089844 C 305.21027 20.012636 304.18376 19.9932 303.17578 20.015625 z M 211.88867 57.833984 C 197.86364 58.027349 190.45609 74.517935 199.62695 85.130859 L 242.38867 136.04883 C 245.62835 139.90538 250.45156 142.07172 255.48633 141.93164 C 255.67852 141.92653 255.87061 141.91807 256.0625 141.90625 L 297.20312 139.32227 L 315.77148 212.0957 C 315.98386 212.92069 316.22423 213.73822 316.49219 214.54688 L 266.23633 259.88867 C 258.96503 266.0582 256.29308 276.09652 259.53516 285.06445 C 259.27573 296.97395 269.00281 306.69391 280.91211 306.42578 L 381.83594 305.33398 C 393.49234 305.36142 402.92068 295.85302 402.79492 284.19727 C 402.66917 272.54152 393.03787 263.23865 381.38477 263.51758 L 337.27344 263.99414 L 381.67773 231.08008 C 389.98034 225.10311 393.29461 214.33352 389.78906 204.72266 C 389.94819 200.9489 389.53732 197.17271 388.57031 193.52148 L 369.58203 119.09375 C 365.64066 102.68146 351.23767 90.912371 334.36914 90.320312 C 323.91828 89.975006 313.79632 94.000855 306.4375 101.42969 L 261.77148 107.80078 L 224.90234 63.902344 C 221.71759 59.999883 216.92525 57.765181 211.88867 57.833984 z M 23.677734 329.89453 L 23.677734 349.89453 L 560.74219 349.89453 L 560.74219 329.89453 L 23.677734 329.89453 z M 39.152344 422.16016 L 39.152344 441.62891 L 78.085938 441.62891 L 78.085938 422.16016 L 39.152344 422.16016 z M 117.01953 422.16016 L 117.01953 441.62891 L 155.95508 441.62891 L 155.95508 422.16016 L 117.01953 422.16016 z M 194.88867 422.16016 L 194.88867 441.62891 L 233.82227 441.62891 L 233.82227 422.16016 L 194.88867 422.16016 z M 272.75586 422.16016 L 272.75586 441.62891 L 311.68945 441.62891 L 311.68945 422.16016 L 272.75586 422.16016 z M 350.625 422.16016 L 350.625 441.62891 L 389.55859 441.62891 L 389.55859 422.16016 L 350.625 422.16016 z M 428.49219 422.16016 L 428.49219 441.62891 L 467.42578 441.62891 L 467.42578 422.16016 L 428.49219 422.16016 z M 506.35938 422.16016 L 506.35938 441.62891 L 545.29492 441.62891 L 545.29492 422.16016 L 506.35938 422.16016 z M 23.677734 517.89453 L 23.677734 537.89453 L 560.74219 537.89453 L 560.74219 517.89453 L 23.677734 517.89453 z "
       transform="translate(-1.9777315,-2.9304584)"
       id="path2921" />
  </g>
</svg>
