<?xml version="1.0" encoding="UTF-8" standalone="no"?>
<!-- Created with Inkscape (http://www.inkscape.org/) -->

<svg
   xmlns:dc="http://purl.org/dc/elements/1.1/"
   xmlns:cc="http://creativecommons.org/ns#"
   xmlns:rdf="http://www.w3.org/1999/02/22-rdf-syntax-ns#"
   xmlns:svg="http://www.w3.org/2000/svg"
   xmlns="http://www.w3.org/2000/svg"
   xmlns:sodipodi="http://sodipodi.sourceforge.net/DTD/sodipodi-0.dtd"
   xmlns:inkscape="http://www.inkscape.org/namespaces/inkscape"
   version="1.0"
   width="580"
   height="580"
   id="svg2"
   sodipodi:version="0.32"
   inkscape:version="0.91 r13725"
   sodipodi:docname="tourist-view_point.svg"
   inkscape:output_extension="org.inkscape.output.svg.inkscape">
  <metadata
     id="metadata2975">
    <rdf:RDF>
      <cc:Work
         rdf:about="">
        <dc:format>image/svg+xml</dc:format>
        <dc:type
           rdf:resource="http://purl.org/dc/dcmitype/StillImage" />
        <cc:license
           rdf:resource="http://web.resource.org/cc/PublicDomain" />
        <dc:language>en</dc:language>
      </cc:Work>
    </rdf:RDF>
  </metadata>
  <sodipodi:namedview
     inkscape:window-height="972"
     inkscape:window-width="1280"
     inkscape:pageshadow="2"
     inkscape:pageopacity="0.0"
     guidetolerance="10.0"
     gridtolerance="10.0"
     objecttolerance="10.0"
     borderopacity="1.0"
     bordercolor="#666666"
     pagecolor="#ffffff"
     id="base"
     inkscape:zoom="0.92167712"
     inkscape:cx="27.823719"
     inkscape:cy="376.42558"
     inkscape:window-x="-8"
     inkscape:window-y="-8"
     inkscape:current-layer="svg2"
     showgrid="false"
     inkscape:window-maximized="1" />
  <defs
     id="defs4">
    <inkscape:perspective
       sodipodi:type="inkscape:persp3d"
       inkscape:vp_x="0 : 290 : 1"
       inkscape:vp_y="0 : 1000 : 0"
       inkscape:vp_z="580 : 290 : 1"
       inkscape:persp3d-origin="290 : 193.33333 : 1"
       id="perspective3579" />
  </defs>
  <path
     style="color:#000000;font-style:normal;font-variant:normal;font-weight:normal;font-stretch:normal;font-size:medium;line-height:normal;font-family:sans-serif;text-indent:0;text-align:start;text-decoration:none;text-decoration-line:none;text-decoration-style:solid;text-decoration-color:#000000;letter-spacing:normal;word-spacing:normal;text-transform:none;direction:ltr;block-progression:tb;writing-mode:lr-tb;baseline-shift:baseline;text-anchor:start;white-space:normal;clip-rule:nonzero;display:inline;overflow:visible;visibility:visible;opacity:1;isolation:auto;mix-blend-mode:normal;color-interpolation:sRGB;color-interpolation-filters:linearRGB;solid-color:#000000;solid-opacity:1;fill:#000080;fill-opacity:1;fill-rule:nonzero;stroke:none;stroke-width:14;stroke-linecap:round;stroke-linejoin:round;stroke-miterlimit:4;stroke-dasharray:none;stroke-dashoffset:0;stroke-opacity:1;color-rendering:auto;image-rendering:auto;shape-rendering:auto;text-rendering:auto;enable-background:accumulate"
     d="M 395.3457 57.396484 C 391.92734 57.457757 388.89928 58.13308 386.14453 59.21875 C 378.79856 62.113859 372.75071 68.586791 367.91602 77.023438 C 358.24665 93.89673 354.57722 116.71079 352.56055 125.36133 C 344.88349 158.2922 339.46341 189.19689 336.07227 211.77539 C 335.02553 218.74468 334.51853 223.1349 333.85156 228.32812 C 337.34275 224.67545 340.29958 221.6095 344.91797 216.7207 C 360.02392 200.73038 380.55454 178.7264 402.60156 154.56836 C 409.24349 147.29046 426.36636 129.80497 434.44336 111.49414 C 438.48186 102.33872 440.10621 93.425308 437.97461 85.597656 C 435.84301 77.770003 430.06954 70.111876 416.24414 63.140625 C 407.82546 58.895632 401.04298 57.294361 395.3457 57.396484 z M 191.52734 57.564453 C 185.83006 57.462331 179.04563 59.063601 170.62695 63.308594 C 156.80154 70.279845 151.03004 77.937973 148.89844 85.765625 C 146.76684 93.593275 148.39119 102.50669 152.42969 111.66211 C 160.50669 129.97294 177.62955 147.45843 184.27148 154.73633 C 206.3185 178.89437 226.84913 200.89835 241.95508 216.88867 C 246.57347 221.77747 249.52834 224.84341 253.01953 228.49609 C 252.35256 223.30286 251.84752 218.91265 250.80078 211.94336 C 247.40964 189.36486 241.98956 158.46017 234.3125 125.5293 C 232.29583 116.87876 228.6264 94.064693 218.95703 77.191406 C 214.12234 68.754758 208.07253 62.281828 200.72656 59.386719 C 197.97182 58.301049 194.9457 57.625727 191.52734 57.564453 z M 71.027344 251.9375 C 69.756317 251.93854 68.495284 251.96938 67.246094 252.0332 C 57.252574 252.5438 48.561937 255.10108 42.529297 260.52539 C 36.496657 265.9497 32.252641 274.54967 32.244141 290.0332 C 32.235861 305.11859 36.387724 313.4226 42.277344 318.68164 C 48.166954 323.94068 56.669276 326.43129 66.378906 326.95508 C 85.798156 328.00264 107.8257 321.01903 116.45898 318.92969 C 149.32412 310.97598 179.3634 301.91875 201.05469 294.79297 C 207.75011 292.59346 211.89955 291.07 216.83789 289.33008 C 212.00533 287.85467 207.9377 286.5942 201.49414 284.66797 C 180.41844 278.36759 151.53152 269.92606 120.03906 261.09961 C 111.14454 258.60672 90.092741 251.92192 71.027344 251.9375 z M 509.95312 251.93945 C 491.50052 251.85119 471.63472 258.11156 463.54102 260.07031 C 430.67588 268.02402 400.6366 277.08125 378.94531 284.20703 C 372.24989 286.40654 368.10045 287.93 363.16211 289.66992 C 367.99467 291.14533 372.0623 292.4058 378.50586 294.33203 C 399.58156 300.63241 428.46848 309.07394 459.96094 317.90039 C 469.44843 320.55947 492.76687 327.988 512.75391 326.9668 C 522.74743 326.4562 531.43807 323.89892 537.4707 318.47461 C 543.50335 313.0503 547.74736 304.45033 547.75586 288.9668 C 547.76414 273.88141 543.61228 265.5774 537.72266 260.31836 C 531.83305 255.05932 523.33072 252.56871 513.62109 252.04492 C 512.40738 251.97945 511.18329 251.94534 509.95312 251.93945 z M 290 256.36523 C 271.42427 256.36523 256.36523 271.42427 256.36523 290 C 256.36523 308.57573 271.42427 323.63477 290 323.63477 C 308.57573 323.63477 323.63477 308.57573 323.63477 290 C 323.63477 271.42427 308.57573 256.36523 290 256.36523 z M 250.125 351.50391 C 246.63381 355.15658 243.67894 358.22448 239.06055 363.11328 C 223.9546 379.1036 203.42397 401.10758 181.37695 425.26562 C 174.73502 432.54352 157.61216 450.02901 149.53516 468.33984 C 145.49666 477.49527 143.87231 486.40672 146.00391 494.23438 C 148.13551 502.06203 153.90702 509.72016 167.73242 516.69141 C 181.20231 523.4834 190.488 523.51035 197.83398 520.61523 C 205.17995 517.72012 211.22781 511.2472 216.0625 502.81055 C 225.73187 485.93727 229.4013 463.12124 231.41797 454.4707 C 239.09503 421.53983 244.51511 390.63709 247.90625 368.05859 C 248.95299 361.08929 249.45803 356.69714 250.125 351.50391 z M 330.95898 351.67188 C 331.62595 356.8651 332.13099 361.25727 333.17773 368.22656 C 336.56887 390.80506 341.98896 421.7078 349.66602 454.63867 C 351.68269 463.28921 355.35211 486.10523 365.02148 502.97852 C 369.85617 511.41517 375.90403 517.88809 383.25 520.7832 C 390.59598 523.67832 399.87972 523.65136 413.34961 516.85938 C 427.17501 509.88813 432.94848 502.23 435.08008 494.40234 C 437.21168 486.57469 435.58733 477.66323 431.54883 468.50781 C 423.47183 450.19698 406.34896 432.70954 399.70703 425.43164 C 377.66001 401.2736 357.12939 379.26962 342.02344 363.2793 C 337.40505 358.3905 334.45017 355.32455 330.95898 351.67188 z "
     id="path6015-4" />
</svg>
