<?xml version="1.0" encoding="UTF-8" standalone="no"?>
<!-- Created with Inkscape (http://www.inkscape.org/) -->

<svg
   xmlns:dc="http://purl.org/dc/elements/1.1/"
   xmlns:cc="http://creativecommons.org/ns#"
   xmlns:rdf="http://www.w3.org/1999/02/22-rdf-syntax-ns#"
   xmlns:svg="http://www.w3.org/2000/svg"
   xmlns="http://www.w3.org/2000/svg"
   xmlns:sodipodi="http://sodipodi.sourceforge.net/DTD/sodipodi-0.dtd"
   xmlns:inkscape="http://www.inkscape.org/namespaces/inkscape"
   version="1.0"
   width="580"
   height="580"
   id="svg2"
   sodipodi:version="0.32"
   inkscape:version="0.91 r13725"
   sodipodi:docname="memorial.svg"
   inkscape:output_extension="org.inkscape.output.svg.inkscape">
  <metadata
     id="metadata2975">
    <rdf:RDF>
      <cc:Work
         rdf:about="">
        <dc:format>image/svg+xml</dc:format>
        <dc:type
           rdf:resource="http://purl.org/dc/dcmitype/StillImage" />
        <cc:license
           rdf:resource="http://web.resource.org/cc/PublicDomain" />
        <dc:language>en</dc:language>
        <dc:title />
      </cc:Work>
    </rdf:RDF>
  </metadata>
  <sodipodi:namedview
     inkscape:window-height="947"
     inkscape:window-width="1048"
     inkscape:pageshadow="2"
     inkscape:pageopacity="0.0"
     guidetolerance="10.0"
     gridtolerance="10.0"
     objecttolerance="10.0"
     borderopacity="1.0"
     bordercolor="#666666"
     pagecolor="#ffffff"
     id="base"
     inkscape:zoom="0.65172414"
     inkscape:cx="148.39548"
     inkscape:cy="170.17714"
     inkscape:window-x="11"
     inkscape:window-y="13"
     inkscape:current-layer="svg2"
     showgrid="false"
     inkscape:window-maximized="0" />
  <defs
     id="defs4">
    <inkscape:perspective
       sodipodi:type="inkscape:persp3d"
       inkscape:vp_x="0 : 290 : 1"
       inkscape:vp_y="0 : 1000 : 0"
       inkscape:vp_z="580 : 290 : 1"
       inkscape:persp3d-origin="290 : 193.33333 : 1"
       id="perspective2441" />
    <inkscape:perspective
       id="perspective3452"
       inkscape:persp3d-origin="30 : 20 : 1"
       inkscape:vp_z="60 : 30 : 1"
       inkscape:vp_y="0 : 1000 : 0"
       inkscape:vp_x="0 : 30 : 1"
       sodipodi:type="inkscape:persp3d" />
    <symbol
       viewBox="244.5 110 489 219.9"
       id="symbol-university">
      <path
         id="path4460"
         d="M79,43l57,119c0,0,21-96,104-96s124,106,124,106l43-133l82-17L0,17L79,43z" />
      <path
         id="path4462"
         d="M94,176l-21,39"
         stroke-width="20"
         stroke="#000000"
         fill="none" />
      <path
         id="path4464"
         d="M300,19c0,10.5-22.6,19-50.5,19S199,29.5,199,19s22.6-19,50.5-19S300,8.5,300,19z" />
      <path
         id="path4466"
         d="M112,216l-16-38L64,88c0,0-9-8-4-35s16-24,16-24"
         stroke-width="20"
         stroke="#000000"
         ill="none" />
    </symbol>
    <inkscape:perspective
       id="perspective4471"
       inkscape:persp3d-origin="372.04724 : 350.78739 : 1"
       inkscape:vp_z="744.09448 : 526.18109 : 1"
       inkscape:vp_y="0 : 1000 : 0"
       inkscape:vp_x="0 : 526.18109 : 1"
       sodipodi:type="inkscape:persp3d" />
    <inkscape:perspective
       id="perspective4668"
       inkscape:persp3d-origin="6 : 4 : 1"
       inkscape:vp_z="12 : 6 : 1"
       inkscape:vp_y="0 : 1000 : 0"
       inkscape:vp_x="0 : 6 : 1"
       sodipodi:type="inkscape:persp3d" />
    <inkscape:perspective
       id="perspective4904"
       inkscape:persp3d-origin="16 : 10.666667 : 1"
       inkscape:vp_z="32 : 16 : 1"
       inkscape:vp_y="0 : 1000 : 0"
       inkscape:vp_x="0 : 16 : 1"
       sodipodi:type="inkscape:persp3d" />
    <marker
       style="overflow:visible;"
       id="Arrow2Lend"
       refX="0.0"
       refY="0.0"
       orient="auto"
       inkscape:stockid="Arrow2Lend">
      <path
         transform="scale(1.1) rotate(180) translate(1,0)"
         d="M 8.7185878,4.0337352 L -2.2072895,0.016013256 L 8.7185884,-4.0017078 C 6.9730900,-1.6296469 6.9831476,1.6157441 8.7185878,4.0337352 z "
         style="font-size:12.0;fill-rule:evenodd;stroke-width:0.62500000;stroke-linejoin:round;"
         id="path4137" />
    </marker>
    <marker
       style="overflow:visible;"
       id="Arrow1Mend"
       refX="0.0"
       refY="0.0"
       orient="auto"
       inkscape:stockid="Arrow1Mend">
      <path
         transform="scale(0.4) rotate(180) translate(10,0)"
         style="fill-rule:evenodd;stroke:#000000;stroke-width:1.0pt;marker-start:none;"
         d="M 0.0,0.0 L 5.0,-5.0 L -12.5,0.0 L 5.0,5.0 L 0.0,0.0 z "
         id="path4125" />
    </marker>
    <marker
       style="overflow:visible"
       id="TriangleOutL"
       refX="0.0"
       refY="0.0"
       orient="auto"
       inkscape:stockid="TriangleOutL">
      <path
         transform="scale(0.8)"
         style="fill-rule:evenodd;stroke:#000000;stroke-width:1.0pt;marker-start:none"
         d="M 5.77,0.0 L -2.88,5.0 L -2.88,-5.0 L 5.77,0.0 z "
         id="path4214" />
    </marker>
    <marker
       style="overflow:visible;"
       id="Arrow1Lend"
       refX="0.0"
       refY="0.0"
       orient="auto"
       inkscape:stockid="Arrow1Lend">
      <path
         transform="scale(0.8) rotate(180) translate(12.5,0)"
         style="fill-rule:evenodd;stroke:#000000;stroke-width:1.0pt;marker-start:none;"
         d="M 0.0,0.0 L 5.0,-5.0 L -12.5,0.0 L 5.0,5.0 L 0.0,0.0 z "
         id="path4119" />
    </marker>
    <marker
       style="overflow:visible"
       id="Tail"
       refX="0.0"
       refY="0.0"
       orient="auto"
       inkscape:stockid="Tail">
      <g
         transform="scale(-1.2)"
         id="g4152">
        <path
           style="fill:none;fill-rule:evenodd;stroke:#000000;stroke-width:0.8;marker-start:none;marker-end:none;stroke-linecap:round"
           d="M -3.8048674,-3.9585227 L 0.54352094,0"
           id="path4154" />
        <path
           style="fill:none;fill-rule:evenodd;stroke:#000000;stroke-width:0.8;marker-start:none;marker-end:none;stroke-linecap:round"
           d="M -1.2866832,-3.9585227 L 3.0617053,0"
           id="path4156" />
        <path
           style="fill:none;fill-rule:evenodd;stroke:#000000;stroke-width:0.8;marker-start:none;marker-end:none;stroke-linecap:round"
           d="M 1.3053582,-3.9585227 L 5.6537466,0"
           id="path4158" />
        <path
           style="fill:none;fill-rule:evenodd;stroke:#000000;stroke-width:0.8;marker-start:none;marker-end:none;stroke-linecap:round"
           d="M -3.8048674,4.1775838 L 0.54352094,0.21974226"
           id="path4160" />
        <path
           style="fill:none;fill-rule:evenodd;stroke:#000000;stroke-width:0.8;marker-start:none;marker-end:none;stroke-linecap:round"
           d="M -1.2866832,4.1775838 L 3.0617053,0.21974226"
           id="path4162" />
        <path
           style="fill:none;fill-rule:evenodd;stroke:#000000;stroke-width:0.8;marker-start:none;marker-end:none;stroke-linecap:round"
           d="M 1.3053582,4.1775838 L 5.6537466,0.21974226"
           id="path4164" />
      </g>
    </marker>
    <marker
       style="overflow:visible"
       id="Arrow1Sstart"
       refX="0.0"
       refY="0.0"
       orient="auto"
       inkscape:stockid="Arrow1Sstart">
      <path
         transform="scale(0.2) translate(6,0)"
         style="fill-rule:evenodd;stroke:#000000;stroke-width:1.0pt;marker-start:none"
         d="M 0.0,0.0 L 5.0,-5.0 L -12.5,0.0 L 5.0,5.0 L 0.0,0.0 z "
         id="path4128" />
    </marker>
    <marker
       style="overflow:visible;"
       id="Arrow1Send"
       refX="0.0"
       refY="0.0"
       orient="auto"
       inkscape:stockid="Arrow1Send">
      <path
         transform="scale(0.2) rotate(180) translate(6,0)"
         style="fill-rule:evenodd;stroke:#000000;stroke-width:1.0pt;marker-start:none;"
         d="M 0.0,0.0 L 5.0,-5.0 L -12.5,0.0 L 5.0,5.0 L 0.0,0.0 z "
         id="path4131" />
    </marker>
    <marker
       style="overflow:visible"
       id="SemiCircleOut"
       refX="0.0"
       refY="0.0"
       orient="auto"
       inkscape:stockid="SemiCircleOut">
      <path
         transform="scale(0.6) translate(7.125493,0.763446)"
         style="fill-rule:evenodd;stroke:#000000;stroke-width:1.0pt;marker-start:none;marker-end:none"
         d="M -2.5,-0.80913858 C -2.5,1.9508614 -4.7400000,4.1908614 -7.5,4.1908614 L -7.5,-5.8091386 C -4.7400000,-5.8091386 -2.5,-3.5691386 -2.5,-0.80913858 z "
         id="path4235" />
    </marker>
    <marker
       style="overflow:visible;"
       id="Arrow2Send"
       refX="0.0"
       refY="0.0"
       orient="auto"
       inkscape:stockid="Arrow2Send">
      <path
         transform="scale(0.3) rotate(180) translate(-2.3,0)"
         d="M 8.7185878,4.0337352 L -2.2072895,0.016013256 L 8.7185884,-4.0017078 C 6.9730900,-1.6296469 6.9831476,1.6157441 8.7185878,4.0337352 z "
         style="font-size:12.0;fill-rule:evenodd;stroke-width:0.62500000;stroke-linejoin:round;"
         id="path4149" />
    </marker>
    <marker
       style="overflow:visible"
       id="TriangleOutS"
       refX="0.0"
       refY="0.0"
       orient="auto"
       inkscape:stockid="TriangleOutS">
      <path
         transform="scale(0.2)"
         style="fill-rule:evenodd;stroke:#000000;stroke-width:1.0pt;marker-start:none"
         d="M 5.77,0.0 L -2.88,5.0 L -2.88,-5.0 L 5.77,0.0 z "
         id="path4220" />
    </marker>
    <marker
       style="overflow:visible"
       id="CurveIn"
       refX="0.0"
       refY="0.0"
       orient="auto"
       inkscape:stockid="CurveIn">
      <path
         transform="scale(0.6)"
         style="fill-rule:evenodd;stroke:#000000;stroke-width:1.0pt;marker-start:none;marker-end:none;fill:none"
         d="M 4.6254930,-5.0456926 C 1.8654930,-5.0456926 -0.37450702,-2.8056926 -0.37450702,-0.045692580 C -0.37450702,2.7143074 1.8654930,4.9543074 4.6254930,4.9543074"
         id="path4238" />
    </marker>
    <marker
       orient="auto"
       refY="0"
       refX="0"
       id="InfiniteLineStart"
       inkscape:stockid="InfiniteLineStart"
       style="overflow:visible">
      <g
         transform="translate(-13,0)"
         id="g4298">
        <circle
           cx="3"
           cy="0"
           r="0.8"
           id="circle4300" />
        <circle
           cx="6.5"
           cy="0"
           r="0.8"
           id="circle4302" />
        <circle
           cx="10"
           cy="0"
           r="0.8"
           id="circle4304" />
      </g>
    </marker>
    <marker
       style="overflow:visible"
       id="StopS"
       refX="0.0"
       refY="0.0"
       orient="auto"
       inkscape:stockid="StopS">
      <path
         transform="scale(0.2)"
         style="fill:none;fill-opacity:0.75000000;fill-rule:evenodd;stroke:#000000;stroke-width:1.0pt"
         d="M 0.0,5.65 L 0.0,-5.65"
         id="path4229" />
    </marker>
    <marker
       style="overflow:visible"
       id="Arrow2Sstart"
       refX="0.0"
       refY="0.0"
       orient="auto"
       inkscape:stockid="Arrow2Sstart">
      <path
         transform="scale(0.3) translate(-2.3,0)"
         d="M 8.7185878,4.0337352 L -2.2072895,0.016013256 L 8.7185884,-4.0017078 C 6.9730900,-1.6296469 6.9831476,1.6157441 8.7185878,4.0337352 z "
         style="font-size:12.0;fill-rule:evenodd;stroke-width:0.62500000;stroke-linejoin:round"
         id="path4146" />
    </marker>
    <marker
       style="overflow:visible"
       id="DiamondS"
       refX="0.0"
       refY="0.0"
       orient="auto"
       inkscape:stockid="DiamondS">
      <path
         transform="scale(0.2)"
         style="fill-rule:evenodd;stroke:#000000;stroke-width:1.0pt;marker-start:none"
         d="M 0,-7.0710768 L -7.0710894,0 L 0,7.0710589 L 7.0710462,0 L 0,-7.0710768 z "
         id="path4202" />
    </marker>
    <marker
       orient="auto"
       refY="0"
       refX="0"
       id="RazorWire"
       inkscape:stockid="RazorWire">
       style=&quot;overflow:visible&quot;&gt;
      <path
   d="M 0.022727273,-0.74009011 L 0.022727273,0.69740989 L -7.7585227,3.0099099 L 10.678977,3.0099099 L 3.4914773,0.69740989 L 3.4914773,-0.74009011 L 10.741477,-2.8963401 L -7.7272727,-2.8963401 L 0.022727273,-0.74009011 z "
   style="fill:#808080;fill-opacity:1;fill-rule:evenodd;stroke:#000000;stroke-width:0.1pt"
   transform="scale(0.8,0.8)"
   id="path4286" />
</marker>
    <inkscape:perspective
       id="perspective5233"
       inkscape:persp3d-origin="16 : 10.666667 : 1"
       inkscape:vp_z="32 : 16 : 1"
       inkscape:vp_y="0 : 1000 : 0"
       inkscape:vp_x="0 : 16 : 1"
       sodipodi:type="inkscape:persp3d" />
    <inkscape:perspective
       id="perspective5412"
       inkscape:persp3d-origin="250 : 166.66667 : 1"
       inkscape:vp_z="500 : 250 : 1"
       inkscape:vp_y="0 : 1000 : 0"
       inkscape:vp_x="0 : 250 : 1"
       sodipodi:type="inkscape:persp3d" />
    <inkscape:perspective
       id="perspective5571"
       inkscape:persp3d-origin="202.85715 : 136.19048 : 1"
       inkscape:vp_z="405.71429 : 204.28572 : 1"
       inkscape:vp_y="0 : 1000 : 0"
       inkscape:vp_x="0 : 204.28572 : 1"
       sodipodi:type="inkscape:persp3d" />
    <inkscape:perspective
       id="perspective6552"
       inkscape:persp3d-origin="64 : 42.666667 : 1"
       inkscape:vp_z="128 : 64 : 1"
       inkscape:vp_y="0 : 1000 : 0"
       inkscape:vp_x="0 : 64 : 1"
       sodipodi:type="inkscape:persp3d" />
  </defs>
  <path
     style="color:#000000;font-style:normal;font-variant:normal;font-weight:normal;font-stretch:normal;font-size:medium;line-height:normal;font-family:'Bitstream Vera Sans';-inkscape-font-specification:'Bitstream Vera Sans';text-indent:0;text-align:start;text-decoration:none;text-decoration-line:none;letter-spacing:normal;word-spacing:normal;text-transform:none;direction:ltr;block-progression:tb;writing-mode:lr-tb;text-anchor:start;display:inline;overflow:visible;visibility:visible;opacity:1;fill:#000080;fill-opacity:1;stroke:none;stroke-width:35;marker:none;enable-background:accumulate"
     d="M 427.65625 30.351562 C 426.12048 30.352502 424.58411 30.463282 423.06055 30.6875 L 159.4375 30.6875 C 141.54748 30.314495 128.51792 48.316977 131.09375 65.277344 L 131.09375 431.0625 C 236.64026 432.7559 342.24082 431.75702 447.80469 431.3125 C 461.01504 435.49576 458.93406 424.52833 458.6875 415.52344 C 458.58733 295.75634 458.88773 175.97924 458.53711 56.21875 C 457.23065 40.525231 442.50203 30.342484 427.65625 30.351562 z M 215.3125 57.3125 C 231.57416 68.811234 199.50486 69.311192 215.3125 57.3125 z M 280.8125 57.375 C 291.28355 60.31281 278.88889 71.588803 276.5 64.25 C 272.58492 65.249225 263.26754 70.465279 274.74609 69.5 C 278.78704 79.017815 268.43353 74.41982 268.53125 80.107422 C 267.28519 85.145749 272.22047 96.365775 263.35156 93.78125 C 256.6018 94.296571 261.83022 82.83391 260.1875 78.242188 C 257.54857 67.681309 264.94435 50.195915 276.78125 60.90625 C 277.0538 58.95261 278.83049 57.305344 280.8125 57.375 z M 276.78125 60.90625 C 276.28805 63.943014 277.44292 64.247381 276.78125 60.90625 z M 233.81836 57.519531 C 242.88858 57.185907 241.09191 69.663652 232.53125 66 C 230.48433 70.741271 243.7402 69.409819 236.96484 76.84375 C 228.09207 74.187726 233.02233 85.334878 231.78125 90.310547 C 233.13564 96.717628 218.89142 94.818082 223.40625 87.441406 C 224.25999 78.208812 221.12666 67.830708 226.40625 59.71875 L 229.19922 58.121094 L 232.90625 57.59375 C 233.22159 57.555356 233.52577 57.530293 233.81836 57.519531 z M 243.5625 57.9375 C 252.52461 59.825691 247.43337 71.958799 248.78125 78.757812 C 249.80249 85.673268 249.28152 101.76135 240.5 89.9375 C 240.22132 79.391338 240.44884 68.83253 240.375 58.28125 C 241.43843 58.172392 242.48239 57.855817 243.5625 57.9375 z M 188.6875 58.59375 C 197.29283 60.434819 192.95501 71.664411 193.79297 78.578125 C 193.66976 72.241569 211.46584 64.230577 204.81836 75.826172 C 198.66605 81.36925 205.92359 87.145679 208.20117 92.835938 C 200.70315 104.69764 192.2947 75.186639 193.90625 88.023438 C 198.42507 95.353171 184.41717 97.266553 185.46875 91.142578 L 185.46875 58.9375 C 186.53602 58.780226 187.60527 58.602533 188.6875 58.59375 z M 193.79297 78.578125 C 193.79846 78.860416 193.82583 79.140308 193.90625 79.414062 C 193.85362 79.147585 193.82712 78.859916 193.79297 78.578125 z M 176.15625 59.03125 C 185.11533 60.96045 180.0292 73.04367 181.375 79.851562 C 182.40772 86.792217 181.85504 102.89092 173.0625 91.0625 C 172.85348 80.513749 173.02413 69.957881 172.96875 59.40625 C 174.03085 59.277352 175.07789 59.002762 176.15625 59.03125 z M 393.06445 59.054688 C 402.10569 58.750528 400.28503 71.18599 391.78125 67.5625 C 389.74216 72.28856 402.98497 70.980627 396.21484 78.40625 C 387.34207 75.750226 392.27233 86.897378 391.03125 91.873047 C 392.35211 98.25165 378.14109 96.331496 382.65625 88.972656 C 383.51746 79.749764 380.36228 69.381544 385.65625 61.28125 L 388.44922 59.667969 L 392.15625 59.125 C 392.47065 59.087709 392.7728 59.064499 393.06445 59.054688 z M 338.5 59.09375 C 346.22429 65.057998 345.93142 56.003692 353.71875 62.1875 C 354.69111 73.056594 353.90001 84.071638 354.15625 95 C 341.60274 98.107931 346.85294 81.873794 345.75 74.558594 C 345.09467 68.55857 347.83182 60.962563 342.28125 67.3125 C 329.07149 71.190697 349.04605 68.401529 343.59375 78.126953 C 335.17335 75.650326 337.51482 83.93628 337.375 89.740234 C 341.53778 96.96703 326.20598 97.922173 329 91.011719 C 329.92022 81.096619 326.60566 70.005089 332 61.21875 L 334.79297 59.621094 L 338.5 59.09375 z M 320.96875 59.1875 C 329.93086 61.075691 324.83962 73.208799 326.1875 80.007812 C 324.62419 84.770995 330.013 96.487297 322.04297 94.84375 C 310.4551 98.666839 299.45597 86.514165 307.71875 72.84375 C 317.13475 70.512019 319.30826 71.820916 317.8125 60.447266 C 317.06849 58.625421 320.18495 59.572462 320.96875 59.1875 z M 360.6875 59.53125 C 369.64323 61.428993 364.56228 73.551834 365.90625 80.351562 C 364.31472 73.005315 384.80549 65.191181 376.32031 77.652344 C 370.77531 83.11153 378.76032 88.814889 380.5625 94.40625 C 370.63734 104.50814 364.70544 74.811194 365.90625 89.996094 C 369.99111 97.156627 354.59077 97.79966 357.5 91.042969 L 357.5 59.90625 C 358.56343 59.787205 359.60936 59.505996 360.6875 59.53125 z M 414.5 59.53125 C 423.45573 61.428993 418.37478 73.551834 419.71875 80.351562 C 418.15544 85.114745 423.54425 96.831047 415.57422 95.1875 C 403.95347 99.041922 392.99013 86.862193 401.25 73.21875 C 410.66721 70.863857 412.83805 72.211222 411.34375 60.822266 C 410.60195 58.987344 413.71599 59.976047 414.5 59.53125 z M 345.76562 62.753906 C 345.72188 62.68831 345.67289 63.079936 345.75 64.125 C 345.84789 63.34232 345.80937 62.819502 345.76562 62.753906 z M 213.05273 69.222656 C 213.46046 69.198855 213.957 69.244751 214.5625 69.375 C 223.52461 71.263191 218.43337 83.396299 219.78125 90.195312 C 226.01277 102.67037 202.05397 110.58737 209.25 98 C 213.46021 91.75594 210.47384 82.922702 211.375 75.544922 C 211.73934 73.005857 210.19868 69.389268 213.05273 69.222656 z M 297.63086 69.244141 C 305.71782 69.566842 305.48647 79.630073 298.49219 77.369141 C 306.94961 83.180657 304.29343 100.83731 288.78125 93.59375 C 278.59559 82.106873 305.01044 91.240023 291.65625 83.9375 C 283.2736 81.114359 287.30751 68.150127 295.6875 69.34375 C 296.38165 69.250842 297.02936 69.220138 297.63086 69.244141 z M 298.49219 77.369141 C 297.69101 76.81861 296.79618 76.367104 295.79688 76.060547 C 296.78473 76.686304 297.68303 77.107577 298.49219 77.369141 z M 278.54297 69.300781 C 278.95336 69.274145 279.45425 69.315905 280.0625 69.4375 C 288.99815 71.376968 283.94913 83.456636 285.28125 90.257812 C 291.5357 102.75987 267.52856 110.66857 274.75 98.0625 C 278.91776 91.81944 275.94267 82.983799 276.84375 75.607422 C 277.19717 73.002954 275.67023 69.487237 278.54297 69.300781 z M 316.85742 77.261719 C 316.72197 77.253317 316.57159 77.259944 316.40625 77.28125 C 308.78593 86.05361 321.29645 93.455065 317.78125 79.113281 C 318.03753 78.077433 317.8056 77.320528 316.85742 77.261719 z M 410.06445 77.621094 C 409.9156 77.62044 409.75852 77.632749 409.59375 77.65625 C 402.73942 87.204313 414.73707 93.326682 411.3125 79.488281 C 411.71737 78.226808 411.10642 77.625667 410.06445 77.621094 z M 233.8125 108.0625 C 242.77158 109.9917 237.68545 122.07492 239.03125 128.88281 C 240.06397 135.82346 239.51129 151.92217 230.71875 140.09375 C 230.44007 129.54759 230.66759 118.98878 230.59375 108.4375 C 231.66746 108.31704 232.72356 108.03242 233.8125 108.0625 z M 245.5625 108.0625 C 254.52203 109.98214 249.43508 122.07847 250.78125 128.88281 C 249.19439 121.53384 269.6789 113.72372 261.19531 126.18359 C 255.65031 131.64277 263.63532 137.34614 265.4375 142.9375 C 255.51234 153.03939 249.58044 123.34244 250.78125 138.52734 C 254.86611 145.68787 239.46577 146.33091 242.375 139.57422 L 242.375 108.4375 C 243.43843 108.31846 244.48436 108.03725 245.5625 108.0625 z M 199.44141 108.27539 C 208.48791 107.98437 206.65429 120.37067 198.15625 116.78125 C 196.09322 121.51606 209.36582 120.17909 202.58984 127.59375 C 193.71707 124.93773 198.64733 136.08489 197.40625 141.06055 C 198.76064 147.46763 184.51642 145.56809 189.03125 138.19141 C 189.88467 128.95878 186.75252 118.58087 192.03125 110.46875 L 194.82422 108.87109 L 198.53125 108.34375 C 198.84586 108.30702 199.14958 108.28478 199.44141 108.27539 z M 221.625 108.3125 C 230.56065 110.25197 225.51163 122.33163 226.84375 129.13281 C 225.28044 133.89599 230.66925 145.6123 222.69922 143.96875 C 211.05964 147.82149 200.06958 135.6641 208.375 122 C 217.7685 119.62338 219.97247 121.00082 218.46875 109.60352 C 217.70051 107.73235 220.82937 108.77632 221.625 108.3125 z M 400.1875 108.96875 C 416.43811 120.46786 384.42466 121.02152 400.1875 108.96875 z M 291.1875 109 C 299.79611 110.81371 295.45361 122.06675 296.29102 128.97852 C 296.17139 122.6271 313.99095 114.65844 307.33984 126.22461 C 301.16281 131.76078 308.41566 137.54817 310.70117 143.24219 C 303.22438 155.09227 294.79183 125.58793 296.40625 138.42969 C 300.92621 145.74039 286.93863 147.68764 288 141.54883 L 288 109.34375 C 289.05581 109.17917 290.11586 109.01039 291.1875 109 z M 296.29102 128.97852 C 296.29637 129.26258 296.32529 129.54462 296.40625 129.82031 C 296.35308 129.55213 296.3254 129.26234 296.29102 128.97852 z M 322.6582 109.05273 C 331.69634 108.72818 329.90883 121.20239 321.375 117.53125 C 319.32808 122.27252 332.58395 120.94107 325.80859 128.375 C 316.93582 125.71898 321.86608 136.86614 320.625 141.8418 C 321.97939 148.24888 307.73517 146.34934 312.25 138.97266 C 313.10486 129.7403 309.96841 119.36146 315.25 111.25 L 318.04297 109.65234 L 321.75 109.125 C 322.06422 109.08692 322.36665 109.0632 322.6582 109.05273 z M 362.53125 109.84375 C 371.49336 111.73194 366.40212 123.86505 367.75 130.66406 C 366.18669 135.42724 371.5755 147.14355 363.60547 145.5 C 352.00103 149.30311 341.02396 137.17228 349.28125 123.5 C 358.69725 121.16827 360.87076 122.47717 359.375 111.10352 C 358.63099 109.28168 361.74745 110.22871 362.53125 109.84375 z M 374.3125 109.84375 C 382.88413 111.69373 378.60575 122.86786 379.41211 129.78125 C 379.34123 123.43944 397.07417 115.4975 390.44336 127.04492 C 384.29369 132.58655 391.54017 138.36936 393.8125 144.0625 C 386.37358 155.9424 377.88921 126.42329 379.53125 139.24219 C 384.04956 146.5771 370.06472 148.53508 371.09375 142.39258 L 371.09375 110.1875 C 372.16744 110.07681 373.22167 109.75787 374.3125 109.84375 z M 379.41211 129.78125 C 379.41544 130.07945 379.44474 130.37514 379.53125 130.66406 C 379.47591 130.38237 379.44695 130.08 379.41211 129.78125 z M 273.79492 118.58008 C 274.63351 118.54423 275.49572 118.72212 276.34375 119.1875 C 289.51783 119.06985 284.89307 137.32984 285.09375 144.3125 C 277.61855 143.56709 261.47679 146.93142 267.28125 132.4375 C 271.52268 129.74232 283.84737 125.49432 271.96875 126 C 263.17457 129.58659 267.92484 118.83103 273.79492 118.58008 z M 338.37891 120.4082 C 346.9634 120.77788 346.14414 132.06783 337.83398 127.91016 C 344.03171 132.04102 350.2685 145.49197 335.875 146.1875 C 323.84991 146.70177 327.11948 133.29045 336.5625 138.96875 C 331.63061 134.78475 319.32649 123.43432 336.4375 120.5 C 337.13089 120.40975 337.77819 120.38233 338.37891 120.4082 z M 337.83398 127.91016 C 337.40257 127.62262 336.97094 127.37528 336.54688 127.18555 C 336.99625 127.47146 337.42135 127.70371 337.83398 127.91016 z M 397.92773 120.91211 C 398.33547 120.88765 398.83202 120.93388 399.4375 121.0625 C 408.39961 122.95069 403.30837 135.0838 404.65625 141.88281 C 410.91734 154.36182 386.91937 162.27551 394.15625 149.65625 C 398.32212 143.40118 395.35059 134.60163 396.25 127.23242 C 396.61321 124.6853 395.07357 121.08332 397.92773 120.91211 z M 217.16211 126.39844 C 217.01246 126.39875 216.85423 126.41193 216.6875 126.4375 C 209.89329 135.99119 221.80954 142.09873 218.40625 128.26953 C 218.80148 127.01393 218.20963 126.39627 217.16211 126.39844 z M 358.41992 127.91797 C 358.28447 127.90957 358.13409 127.91619 357.96875 127.9375 C 350.34843 136.70985 362.85895 144.11132 359.34375 129.76953 C 359.60003 128.73368 359.3681 127.97678 358.41992 127.91797 z M 277.65625 132.875 C 267.37228 135.04718 280.0039 144.43264 277.65625 132.875 z M 334.625 209.5625 C 350.90519 221.08298 318.80027 221.58435 334.625 209.5625 z M 246.34961 209.95703 C 255.42283 209.62154 253.5866 222.06643 245.0625 218.4375 C 243.01558 223.17877 256.27145 221.84732 249.49609 229.28125 C 240.62332 226.62523 245.55358 237.77239 244.3125 242.74805 C 245.66689 249.15513 231.42267 247.25559 235.9375 239.87891 C 236.79236 230.64655 233.65591 220.26771 238.9375 212.15625 L 241.73047 210.55859 L 245.4375 210.03125 C 245.75303 209.99286 246.05692 209.96785 246.34961 209.95703 z M 352.84766 209.95898 C 361.89388 209.636 360.05886 222.05497 351.5625 218.4375 C 349.51558 223.17877 362.77145 221.84732 355.99609 229.28125 C 347.12332 226.62523 352.05358 237.77239 350.8125 242.74805 C 352.16689 249.15513 337.92267 247.25559 342.4375 239.87891 C 343.29978 230.64586 340.14164 220.26645 345.4375 212.15625 L 348.23047 210.55859 L 351.9375 210.03125 C 352.2521 209.99335 352.55584 209.9694 352.84766 209.95898 z M 274.96875 210.40625 C 283.92783 212.33545 278.8417 224.41867 280.1875 231.22656 C 281.22022 238.16721 280.66754 254.26592 271.875 242.4375 C 271.66598 231.88875 271.83663 221.33288 271.78125 210.78125 C 272.84335 210.65235 273.89039 210.37776 274.96875 210.40625 z M 286.71875 210.40625 C 295.30158 212.25443 291.01007 223.40966 291.81641 230.33008 C 291.77019 224.06903 309.4969 216.05909 302.87109 227.63086 C 296.6967 233.16558 303.93851 238.95934 306.21875 244.65625 C 298.77983 256.53616 290.29546 227.01704 291.9375 239.83594 C 296.45581 247.17085 282.47097 249.12883 283.5 242.98633 L 283.5 210.78125 C 284.57371 210.66079 285.62981 210.37617 286.71875 210.40625 z M 291.81641 230.33008 C 291.81865 230.63356 291.84688 230.93373 291.9375 231.22656 C 291.88098 230.94066 291.85175 230.63345 291.81641 230.33008 z M 315.60352 220.51953 C 316.44207 220.48351 317.30495 220.66075 318.15625 221.125 C 331.3512 220.97869 326.76627 239.25551 326.90625 246.25 C 319.44512 245.49288 303.3153 248.85526 309.09375 234.375 C 313.35725 231.71125 325.65124 227.39986 313.78125 227.9375 C 305.04954 231.50864 309.7336 220.77168 315.60352 220.51953 z M 262.50586 221.02539 C 270.60115 221.34705 270.35885 231.43158 263.3457 229.14453 C 271.81592 234.96 269.18283 252.61369 253.65625 245.375 C 243.43858 233.8941 269.89706 243.0187 256.53125 235.71875 C 248.12478 232.92727 252.19102 219.95595 260.5625 221.125 C 261.25672 221.03196 261.90432 221.00149 262.50586 221.02539 z M 263.3457 229.14453 C 262.54976 228.59806 261.66257 228.14858 260.67188 227.8418 C 261.65122 228.46235 262.54195 228.88242 263.3457 229.14453 z M 332.36523 221.49414 C 332.77274 221.46489 333.27004 221.50435 333.875 221.625 C 342.83453 223.54464 337.74758 235.64097 339.09375 242.44531 C 345.34263 254.94998 321.36969 262.86311 328.5625 250.25 C 332.77821 244.0212 329.78274 235.19238 330.6875 227.82617 C 331.04888 225.26461 329.51269 221.69889 332.36523 221.49414 z M 319.46875 234.8125 C 309.2458 236.99686 321.81436 246.35179 319.46875 234.8125 z M 253.125 259.84375 C 269.37877 271.42072 237.28017 271.82577 253.125 259.84375 z M 345 259.84375 C 355.93197 263.87631 341.89587 273.30574 340.5 266.8125 C 336.64666 267.85957 327.27527 273.04212 338.77734 272.09375 C 342.75594 281.65837 332.42949 276.941 332.5625 282.66992 C 331.31563 287.71786 336.25175 298.94914 327.38281 296.375 C 320.59439 296.91856 325.82777 285.44053 324.1875 280.83594 C 321.33708 270.13863 329.58598 252.35397 340.90625 263.90625 C 340.97496 261.74145 342.84393 259.79144 345 259.84375 z M 340.90625 263.90625 C 340.7382 265.46392 341.17779 265.65809 340.90625 263.90625 z M 382.19141 260.24414 C 391.23724 259.96343 389.40488 272.3331 380.90625 268.75 C 378.75672 273.49513 392.14462 272.12939 385.33984 279.5625 C 376.44891 276.89874 381.35302 288.03016 380.125 293.0293 C 381.47939 299.43638 367.23517 297.53684 371.75 290.16016 C 372.61008 280.92691 369.451 270.53056 374.78125 262.4375 L 377.57422 260.83984 L 381.28125 260.3125 C 381.59583 260.27616 381.89961 260.2532 382.19141 260.24414 z M 221.625 260.71875 C 230.58711 262.60694 225.49587 274.74005 226.84375 281.53906 C 225.28044 286.30224 230.66925 298.01855 222.69922 296.375 C 213.26981 298.40757 201.45862 292.82492 206.625 278.46875 C 211.74499 268.29077 222.42488 276.78554 218.46875 261.97852 C 217.72474 260.15668 220.8412 261.10371 221.625 260.71875 z M 239.91406 271.3418 C 248.50606 271.6934 247.68893 282.97714 239.40234 278.86523 C 245.62017 282.99985 251.75965 296.40505 237.4375 297.125 C 225.39212 297.66357 228.65738 284.23773 238.09375 289.90625 C 233.18893 285.7223 220.90132 274.3926 237.96875 271.4375 C 238.66388 271.34555 239.31194 271.31716 239.91406 271.3418 z M 239.40234 278.86523 C 238.95913 278.57052 238.51475 278.31553 238.07812 278.12305 C 238.54119 278.4178 238.9782 278.65477 239.40234 278.86523 z M 362.50586 271.3418 C 371.08679 271.70004 370.28172 282.97981 361.99609 278.86523 C 368.2139 282.99985 374.3534 296.40505 360.03125 297.125 C 347.98431 297.65841 351.25362 284.24444 360.6875 289.90625 C 355.77124 285.73079 343.49704 274.39819 360.5625 271.4375 C 361.2566 271.34613 361.90452 271.31669 362.50586 271.3418 z M 361.99609 278.86523 C 361.55288 278.57052 361.1085 278.31553 360.67188 278.12305 C 361.13496 278.41792 361.572 278.65463 361.99609 278.86523 z M 270.625 271.4375 C 282.43919 271.58864 283.98874 290.91051 270.61328 285.5 C 264.18975 292.96295 286.75908 284.84927 278 295.5625 C 260.16741 306.06209 252.3102 272.89702 270.625 271.4375 z M 292.84375 271.4375 C 311.7808 271.45848 302.79019 307.38945 285.91016 294.82227 C 278.84149 288.14378 281.0954 271.05986 292.84375 271.4375 z M 318.8125 271.4375 C 327.1886 275.25666 318.73684 282.3782 314.65625 282.34375 C 313.39735 287.48853 318.35109 298.84585 309.47656 296.375 C 302.57287 297.00258 307.82002 285.47953 306.1875 280.83594 C 303.7347 264.66619 311.74428 277.26192 318.8125 271.4375 z M 250.85547 271.7832 C 251.26593 271.76001 251.7665 271.80763 252.375 271.9375 C 261.3368 273.83564 256.24616 285.95526 257.59375 292.75781 C 263.83311 305.24221 239.84056 313.1471 247.0625 300.5625 C 251.2282 294.30048 248.25681 285.48614 249.15625 278.10742 C 249.51195 275.54038 247.98223 271.94558 250.85547 271.7832 z M 342.80859 271.81836 C 343.19559 271.80516 343.66103 271.84244 344.21875 271.9375 C 353.18086 273.82569 348.08962 285.9588 349.4375 292.75781 C 355.72197 305.24262 331.67556 313.14553 338.9375 300.5625 C 343.12939 293.93792 340.1152 284.79633 341.03125 277.07227 C 341.20931 274.4807 340.09964 271.91074 342.80859 271.81836 z M 270.5625 277.71875 C 262.06922 283.89137 278.94135 281.5522 270.5625 277.71875 z M 217.49414 278.81055 C 217.35533 278.79889 217.20144 278.79899 217.03125 278.8125 C 209.44816 287.82654 221.95378 294.84366 218.4375 280.67578 C 218.68851 279.57583 218.46579 278.89217 217.49414 278.81055 z M 292.75 278.875 C 283.06004 288.78496 301.46276 296.52847 292.75 278.875 z M 222.84375 310.15625 C 239.12395 321.67673 207.01902 322.17811 222.84375 310.15625 z M 276.38086 310.52148 C 285.44918 310.20485 283.62518 322.66627 275.09375 319.03125 C 273.05466 323.75731 286.29747 322.44938 279.52734 329.875 C 270.65457 327.21898 275.58483 338.36614 274.34375 343.3418 C 275.66461 349.72041 261.45359 347.80025 265.96875 340.44141 C 266.82256 331.21921 263.68902 320.85156 268.96875 312.75 L 271.76172 311.13672 L 275.46875 310.59375 C 275.78408 310.55597 276.08833 310.5317 276.38086 310.52148 z M 187.31445 310.52344 C 196.35349 310.22446 194.54882 322.66456 186.03125 319.03125 C 183.99216 323.75731 197.23497 322.44938 190.46484 329.875 C 181.59207 327.21898 186.52233 338.36614 185.28125 343.3418 C 186.60211 349.72041 172.39109 347.80025 176.90625 340.44141 C 177.76006 331.21921 174.62652 320.85156 179.90625 312.75 L 182.69922 311.13672 L 186.40625 310.59375 C 186.72054 310.55663 187.02287 310.53308 187.31445 310.52344 z M 196.9375 311 C 205.54653 312.82427 201.19975 324.08384 202.04297 330.99414 C 201.90338 324.6435 219.73974 316.65634 213.09961 328.23242 C 206.94994 333.77405 214.19642 339.55686 216.46875 345.25 C 209.03157 357.14719 200.53893 327.59344 202.15625 340.42969 C 206.67621 347.74039 192.68863 349.68764 193.75 343.54883 L 193.75 311.375 C 194.81343 311.25596 195.85936 310.97475 196.9375 311 z M 202.04297 330.99414 C 202.04909 331.27274 202.0773 331.54981 202.15625 331.82031 C 202.10422 331.55708 202.07693 331.27243 202.04297 330.99414 z M 233.84375 311 C 242.79916 312.90771 237.71882 325.01703 239.0625 331.82031 C 240.08066 338.75451 239.56817 354.85862 230.75 343.03125 C 230.54098 332.4825 230.71163 321.92663 230.65625 311.375 C 231.71835 311.2461 232.76539 310.97151 233.84375 311 z M 257.40625 311 C 266.36198 312.89774 261.28103 325.02058 262.625 331.82031 C 261.06169 336.58349 266.4505 348.2998 258.48047 346.65625 C 246.86232 350.5094 235.85894 338.33863 244.15625 324.6875 C 253.55886 322.32178 255.75251 323.68648 254.25 312.29102 C 253.5082 310.4561 256.62224 311.4448 257.40625 311 z M 366.9375 312.90625 C 386.17244 314.1639 379.89407 357.92174 359.81445 344.98438 C 353.08423 336.57056 352.40289 313.63908 366.9375 312.90625 z M 391.34375 312.90625 C 409.68752 314.66501 404.47052 350.64763 385.96875 347.15625 C 374.97256 338.85301 405.10715 336.42772 385.4375 335.6875 C 377.358 330.18715 380.07994 312.4812 391.34375 312.90625 z M 366.84375 320.625 C 358.42239 326.62093 369.50733 351.35208 369.4375 330.15625 C 368.97413 327.27522 370.46456 321.78178 366.84375 320.625 z M 391.40625 320.65625 C 382.56772 331.55737 401.08373 334.92093 391.40625 320.65625 z M 317.13477 321.10547 C 317.97425 321.07074 318.83733 321.25128 319.6875 321.71875 C 332.86157 321.60111 328.23682 339.86109 328.4375 346.84375 C 320.95754 346.01261 304.82493 349.51411 310.625 334.96875 C 314.87414 332.28845 327.1895 328.00392 315.3125 328.53125 C 306.52748 332.11866 311.25835 321.34857 317.13477 321.10547 z M 300.91016 321.61914 C 309.49188 321.96151 308.71587 333.28907 300.41602 329.1543 C 306.61132 333.2806 312.76112 346.69878 298.4375 347.40625 C 286.44515 347.99561 289.64565 334.51659 299.09375 340.21875 C 294.2559 336.01173 281.8543 324.70897 298.96875 321.71875 C 299.66206 321.62576 300.30918 321.59516 300.91016 321.61914 z M 300.41602 329.1543 C 299.97838 328.86281 299.54027 328.61084 299.10938 328.41992 C 299.56625 328.71073 299.99725 328.94568 300.41602 329.1543 z M 345.625 321.71875 C 362.33761 327.03148 349.46704 351.5201 340.53125 347.29102 C 341.55232 354.53812 340.79125 360.00272 332.1875 357.625 L 332.1875 322.625 C 338.82458 321.64057 339.45659 325.43612 345.625 321.71875 z M 220.58398 322.08203 C 220.99163 322.0548 221.4885 322.09674 222.09375 322.21875 C 231.04916 324.12646 225.96882 336.23578 227.3125 343.03906 C 233.56695 355.54112 209.55981 363.44982 216.78125 350.84375 C 220.99405 344.60351 218.00321 335.76578 218.90625 328.38867 C 219.26833 325.81249 217.73044 322.27263 220.58398 322.08203 z M 341.84375 328.90625 C 336.11931 335.79603 346.62151 346.29675 343.90625 330.1875 L 343.11133 329.22656 L 341.84375 328.90625 z M 252.94336 329.08984 C 252.7929 329.08984 252.63455 329.10127 252.46875 329.125 C 245.67428 338.74546 257.62707 344.75477 254.21875 330.95703 C 254.63015 329.67763 253.99659 329.08989 252.94336 329.08984 z M 321 335.40625 C 310.71703 337.53893 323.35544 346.97288 321 335.40625 z M 410.28125 338.0625 C 426.08166 349.44409 394.90926 350.05608 410.28125 338.0625 z M 267.59375 360.4375 C 283.82346 372.03342 251.73817 372.3894 267.59375 360.4375 z M 235.50586 360.83203 C 244.57515 360.49262 242.7622 372.97698 234.21875 369.3125 C 232.17183 374.05377 245.4277 372.72232 238.65234 380.15625 C 229.77957 377.50023 234.70983 388.64739 233.46875 393.62305 C 234.82314 400.03013 220.57892 398.13059 225.09375 390.75391 C 225.94749 381.52132 222.81416 371.14321 228.09375 363.03125 L 230.88672 361.43359 L 234.59375 360.90625 C 234.90909 360.86764 235.2133 360.84298 235.50586 360.83203 z M 285.78711 360.83203 C 294.85733 360.49841 293.06066 372.97615 284.5 369.3125 C 282.45308 374.05377 295.70895 372.72232 288.93359 380.15625 C 280.06082 377.50023 284.99108 388.64739 283.75 393.62305 C 285.10439 400.03013 270.86017 398.13059 275.375 390.75391 C 276.22874 381.52132 273.09541 371.14321 278.375 363.03125 L 281.16797 361.43359 L 284.875 360.90625 C 285.19034 360.86786 285.49452 360.84279 285.78711 360.83203 z M 336.4375 361.3125 C 345.35702 363.24479 340.2785 375.33573 341.625 382.13281 C 339.99838 374.77635 360.53686 366.93446 352.03906 379.40234 C 346.49406 384.86152 354.47907 390.56489 356.28125 396.15625 C 346.35624 406.25342 340.42088 376.56703 341.625 391.74609 C 345.72069 398.9178 330.32622 399.60062 333.21875 392.82422 L 333.21875 361.65625 C 334.29244 361.54556 335.34667 361.22662 336.4375 361.3125 z M 361.5625 361.3125 C 370.52461 363.20069 365.43337 375.3338 366.78125 382.13281 C 367.81501 389.06754 367.26067 405.15594 358.46875 393.3125 C 358.25973 382.76375 358.43038 372.20788 358.375 361.65625 C 359.43706 361.5367 360.48228 361.22864 361.5625 361.3125 z M 299.17969 371.40234 C 300.01567 371.36469 300.87352 371.54053 301.71875 372 C 314.90522 371.8883 310.33386 390.12673 310.46875 397.125 C 303.03015 396.37173 286.89094 399.74307 292.65625 385.28125 C 296.87855 382.57502 309.22854 378.26623 297.34375 378.84375 C 288.58646 382.3516 293.32781 371.66589 299.17969 371.40234 z M 323.03711 371.91406 C 332.59726 371.50081 332.03512 383.71885 323.44922 379.44922 C 329.67134 383.5798 335.81687 396.99906 321.46875 397.71875 C 309.45785 398.22365 312.7177 384.82273 322.15625 390.5 C 317.25936 386.3025 304.91814 375.00561 322.03125 372 C 322.37793 371.95594 322.71366 371.92804 323.03711 371.91406 z M 323.44922 379.44922 C 323.01132 379.15852 322.57216 378.90776 322.14062 378.7168 C 322.59775 379.00723 323.03013 379.24081 323.44922 379.44922 z M 251.65625 372 C 263.44098 372.16782 265.0315 391.50704 251.64453 386.09375 C 245.22018 393.55476 267.7435 385.44497 259.03125 396.15625 C 241.16741 406.64682 233.35897 373.494 251.65625 372 z M 265.32422 372.37695 C 265.73468 372.35376 266.23525 372.40138 266.84375 372.53125 C 275.76327 374.46354 270.68475 386.55448 272.03125 393.35156 C 278.32125 405.8328 254.30035 413.76287 261.53125 401.125 C 265.70185 394.89333 262.72224 386.06664 263.625 378.70117 C 263.9807 376.13413 262.45098 372.53933 265.32422 372.37695 z M 251.5625 378.3125 C 243.15476 384.53125 259.94803 382.08675 251.5625 378.3125 z M 303.03125 385.6875 C 292.7972 387.88309 305.38189 397.21952 303.03125 385.6875 z M 129.86719 442.20312 A 6.4729754 6.4729754 0 0 0 124.59766 444.91602 L 106.55859 470.19531 A 6.4729754 6.4729754 0 0 0 111.82812 480.42773 L 475.36523 480.42773 A 6.4729754 6.4729754 0 0 0 480.61133 470.16602 L 462.35352 444.88477 A 6.4729754 6.4729754 0 0 0 457.10742 442.20312 L 129.86719 442.20312 z M 107.82812 492.19336 A 6.4729754 6.4729754 0 0 0 101.35547 498.63281 L 101.13672 542.17188 A 6.4729754 6.4729754 0 0 0 107.60742 548.67773 L 479.36523 548.67773 A 6.4729754 6.4729754 0 0 0 485.83789 542.20508 L 485.83789 498.66602 A 6.4729754 6.4729754 0 0 0 479.36523 492.19336 L 107.82812 492.19336 z "
     id="path4458" />
</svg>
