<?xml version="1.0" encoding="UTF-8" standalone="no"?>
<!-- Created with Inkscape (http://www.inkscape.org/) -->

<svg
   xmlns:dc="http://purl.org/dc/elements/1.1/"
   xmlns:cc="http://creativecommons.org/ns#"
   xmlns:rdf="http://www.w3.org/1999/02/22-rdf-syntax-ns#"
   xmlns:svg="http://www.w3.org/2000/svg"
   xmlns="http://www.w3.org/2000/svg"
   xmlns:sodipodi="http://sodipodi.sourceforge.net/DTD/sodipodi-0.dtd"
   xmlns:inkscape="http://www.inkscape.org/namespaces/inkscape"
   version="1.0"
   width="580"
   height="580"
   id="svg2"
   sodipodi:version="0.32"
   inkscape:version="0.91 r13725"
   sodipodi:docname="windmill.svg"
   inkscape:output_extension="org.inkscape.output.svg.inkscape">
  <metadata
     id="metadata10">
    <rdf:RDF>
      <cc:Work
         rdf:about="">
        <dc:format>image/svg+xml</dc:format>
        <dc:type
           rdf:resource="http://purl.org/dc/dcmitype/StillImage" />
        <cc:license
           rdf:resource="http://web.resource.org/cc/PublicDomain" />
        <dc:language>en</dc:language>
      </cc:Work>
    </rdf:RDF>
  </metadata>
  <sodipodi:namedview
     inkscape:window-height="711"
     inkscape:window-width="1014"
     inkscape:pageshadow="2"
     inkscape:pageopacity="0.0"
     guidetolerance="10.0"
     gridtolerance="10.0"
     objecttolerance="10.0"
     borderopacity="1.0"
     bordercolor="#666666"
     pagecolor="#ffffff"
     id="base"
     showgrid="false"
     inkscape:zoom="0.70710678"
     inkscape:cx="1.9088018"
     inkscape:cy="388.59425"
     inkscape:window-x="1"
     inkscape:window-y="1"
     inkscape:current-layer="svg2"
     inkscape:window-maximized="0" />
  <defs
     id="defs4">
    <inkscape:perspective
       sodipodi:type="inkscape:persp3d"
       inkscape:vp_x="0 : 290 : 1"
       inkscape:vp_y="0 : 1000 : 0"
       inkscape:vp_z="580 : 290 : 1"
       inkscape:persp3d-origin="290 : 193.33333 : 1"
       id="perspective12" />
    <style
       type="text/css"
       id="style6">
   
    .fil0 {fill:#EF7900}
   
  </style>
    <inkscape:perspective
       id="perspective6807"
       inkscape:persp3d-origin="29.116032 : 19.410688 : 1"
       inkscape:vp_z="58.232063 : 29.116032 : 1"
       inkscape:vp_y="0 : 1000 : 0"
       inkscape:vp_x="0 : 29.116032 : 1"
       sodipodi:type="inkscape:persp3d" />
    <inkscape:perspective
       id="perspective6954"
       inkscape:persp3d-origin="290 : 193.33333 : 1"
       inkscape:vp_z="580 : 290 : 1"
       inkscape:vp_y="0 : 1000 : 0"
       inkscape:vp_x="0 : 290 : 1"
       sodipodi:type="inkscape:persp3d" />
    <inkscape:perspective
       id="perspective2541"
       inkscape:persp3d-origin="240 : 160 : 1"
       inkscape:vp_z="480 : 240 : 1"
       inkscape:vp_y="0 : 1000 : 0"
       inkscape:vp_x="0 : 240 : 1"
       sodipodi:type="inkscape:persp3d" />
    <inkscape:perspective
       id="perspective2750"
       inkscape:persp3d-origin="215 : 143.33333 : 1"
       inkscape:vp_z="430 : 215 : 1"
       inkscape:vp_y="0 : 1000 : 0"
       inkscape:vp_x="0 : 215 : 1"
       sodipodi:type="inkscape:persp3d" />
    <inkscape:perspective
       id="perspective3730"
       inkscape:persp3d-origin="88.929146 : 101.19778 : 1"
       inkscape:vp_z="177.85829 : 151.79668 : 1"
       inkscape:vp_y="0 : 1000 : 0"
       inkscape:vp_x="0 : 151.79668 : 1"
       sodipodi:type="inkscape:persp3d" />
    <inkscape:perspective
       id="perspective4168"
       inkscape:persp3d-origin="16 : 10.666667 : 1"
       inkscape:vp_z="32 : 16 : 1"
       inkscape:vp_y="0 : 1000 : 0"
       inkscape:vp_x="0 : 16 : 1"
       sodipodi:type="inkscape:persp3d" />
  </defs>
  <path
     style="opacity:1;fill:#000080;fill-opacity:1;fill-rule:evenodd;stroke:none;stroke-width:14.07240009px;stroke-linecap:butt;stroke-linejoin:miter;stroke-opacity:1"
     d="M 137.25977 27.722656 A 12.30123 12.30123 0 0 0 128.38867 31.033203 L 67.675781 87.847656 A 12.30123 12.30123 0 0 0 68.082031 106.17188 L 232.65039 247.07617 L 227.75781 275.85938 L 68.082031 412.57422 A 12.30123 12.30123 0 0 0 67.675781 430.89844 L 128.38867 487.71289 A 12.30123 12.30123 0 0 0 146.71094 486.00781 L 205.70117 405.58203 L 182.50391 542.01562 C 183.59315 546.00009 377.47573 542.01558 382.92188 544.67188 C 385.50293 545.93077 376.32454 472.14487 365.96875 394.22461 L 433.28711 486.00781 A 12.30123 12.30123 0 0 0 451.60938 487.71289 L 512.32227 430.89844 A 12.30123 12.30123 0 0 0 511.91797 412.57422 L 349.54688 273.55078 C 347.61811 259.64426 347.32993 257.61862 346.01367 248.21875 L 511.91797 106.17188 A 12.30123 12.30123 0 0 0 512.32227 87.847656 L 451.60938 31.033203 A 12.30123 12.30123 0 0 0 442.61719 27.728516 A 12.30123 12.30123 0 0 0 433.28711 32.738281 L 312.26367 197.74023 L 290.35938 183.97461 L 267.62305 197.58789 L 146.71094 32.738281 A 12.30123 12.30123 0 0 0 137.25977 27.722656 z M 290 227.05859 C 305.62138 227.05859 318.44141 239.87862 318.44141 255.5 C 318.44141 271.12138 305.62138 283.94141 290 283.94141 C 274.37862 283.94141 261.55859 271.12138 261.55859 255.5 C 261.55859 239.87862 274.37862 227.05859 290 227.05859 z M 290 241.69336 C 282.2885 241.69336 276.19336 247.7885 276.19336 255.5 C 276.19336 263.2115 282.2885 269.30664 290 269.30664 C 297.7115 269.30664 303.80664 263.2115 303.80664 255.5 C 303.80664 247.7885 297.7115 241.69336 290 241.69336 z "
     id="path3457" />
</svg>
