<?xml version="1.0" encoding="UTF-8" standalone="no"?>
<!-- Created with Inkscape (http://www.inkscape.org/) -->

<svg
   xmlns:dc="http://purl.org/dc/elements/1.1/"
   xmlns:cc="http://creativecommons.org/ns#"
   xmlns:rdf="http://www.w3.org/1999/02/22-rdf-syntax-ns#"
   xmlns:svg="http://www.w3.org/2000/svg"
   xmlns="http://www.w3.org/2000/svg"
   xmlns:sodipodi="http://sodipodi.sourceforge.net/DTD/sodipodi-0.dtd"
   xmlns:inkscape="http://www.inkscape.org/namespaces/inkscape"
   version="1.0"
   width="580"
   height="580"
   id="svg2"
   sodipodi:version="0.32"
   inkscape:version="0.91 r13725"
   sodipodi:docname="fountain.svg"
   inkscape:output_extension="org.inkscape.output.svg.inkscape">
  <metadata
     id="metadata1976">
    <rdf:RDF>
      <cc:Work
         rdf:about="">
        <dc:format>image/svg+xml</dc:format>
        <dc:type
           rdf:resource="http://purl.org/dc/dcmitype/StillImage" />
        <cc:license
           rdf:resource="http://web.resource.org/cc/PublicDomain" />
        <dc:language>en</dc:language>
      </cc:Work>
    </rdf:RDF>
  </metadata>
  <sodipodi:namedview
     inkscape:window-height="972"
     inkscape:window-width="1280"
     inkscape:pageshadow="2"
     inkscape:pageopacity="0.0"
     guidetolerance="10.0"
     gridtolerance="10.0"
     objecttolerance="10.0"
     borderopacity="1.0"
     bordercolor="#666666"
     pagecolor="#ffffff"
     id="base"
     inkscape:zoom="0.92167712"
     inkscape:cx="317.27461"
     inkscape:cy="95.051406"
     inkscape:window-x="-8"
     inkscape:window-y="-8"
     inkscape:current-layer="svg2"
     showgrid="false"
     inkscape:window-maximized="1" />
  <defs
     id="defs4">
    <inkscape:perspective
       sodipodi:type="inkscape:persp3d"
       inkscape:vp_x="0 : 290 : 1"
       inkscape:vp_y="0 : 1000 : 0"
       inkscape:vp_z="580 : 290 : 1"
       inkscape:persp3d-origin="290 : 193.33333 : 1"
       id="perspective3653" />
  </defs>
  <path
     style="fill:#000080;fill-opacity:1;fill-rule:evenodd"
     d="M 290.96875,45.5 C 277.73139,47.363599 282.33087,63.209138 281.5625,72.547555 282.94059,82.1846 277.84496,94.774017 286.46875,101.8125 296.14984,106.52868 303.06773,95.415145 300.75,86.724498 300.03591,74.592497 302.27912,62.069362 299.4375,50.21875 297.15756,47.318014 294.62382,45.947433 290.96875,45.5 Z M 290.96875,103.03125 C 277.7161,104.88225 282.33943,120.73967 281.5625,130.0788 282.94059,139.71585 277.84496,152.30527 286.46875,159.34375 296.16574,164.01426 303.06471,152.96157 300.75,144.25575 300.03591,132.12375 302.27912,119.60061 299.4375,107.75 297.15756,104.84926 294.62382,103.47868 290.96875,103.03125 Z M 171.28125,103.59375 C 162.45714,104.16852 151.02067,108.07988 148.20668,117.09246 147.12607,125.4738 158.29928,127.3859 162.78125,121.625 169.15315,116.26366 177.15564,119.62486 183.9375,121.6875 193.41037,120.16464 191.41085,107.08632 182.90625,105.8125 179.22578,104.32066 175.25342,103.55017 171.28125,103.59375 Z M 407.8125,103.59375 C 400.12609,103.52415 385.97019,107.35628 389.94311,117.44569 394.96988,126.9546 404.21882,115.77562 411.78125,119.21875 417.89746,121.42053 424.94035,129.64186 430.47046,121.64958 434.51412,111.31652 420.81072,106.01887 412.875,104.0625 411.20421,103.75733 409.51034,103.6046 407.8125,103.59375 Z M 384.28125,116.375 C 374.232,120.41141 371.24394,132.6859 365.45502,141.00949 359.75022,146.53151 361.97179,158.60935 371.37114,156.59872 379.62924,151.63076 381.45119,140.36451 387.49217,133.01102 391.90358,128.57289 395.22779,119.55919 387.249,117.00321 386.25975,116.79381 385.2705,116.5844 384.28125,116.375 Z M 196.5625,116.65625 C 187.5551,114.54682 184.28805,126.57237 190.9375,131.375 196.80491,139.17759 199.81737,149.0117 206.53125,156.0625 215.49774,160.18 220.84619,147.90401 214.5625,141.90625 209.02981,133.42454 205.49237,122.152 196.5625,116.65625 Z M 144.1875,121.59375 C 134.72985,126.23328 132.04856,138.24059 126.56208,146.57897 121.73331,151.88983 122.66403,163.47751 131.68083,162.25306 140.30557,159.88582 140.78259,148.2645 146.08896,141.96894 149.74016,136.23174 157.33291,127.31035 148.53125,122.15625 147.08333,121.96875 145.63542,121.78125 144.1875,121.59375 Z M 432.28125,121.71875 C 423.6133,124.61323 427.1781,134.26135 431.75,139.15625 437.32349,146.1682 438.72539,156.92478 446.20819,161.85915 454.82788,165.19963 458.89716,153.45671 453.53042,147.77956 448.38022,139.01721 444.94854,128.26736 436.65625,121.96875 435.19792,121.88542 433.73958,121.80208 432.28125,121.71875 Z M 216.3125,155.40625 C 206.73437,156.81081 209.25765,167.74251 213.32653,173.38313 217.86942,180.92129 218.52749,191.68115 225.68653,196.99805 233.65423,200.79867 238.9566,189.88287 234.11476,183.91834 229.69565,174.76475 227.33802,164.15139 220.5625,156.4375 219.14583,156.09375 217.72917,155.75 216.3125,155.40625 Z M 364.5625,155.59375 C 353.63877,155.06085 353.09807,168.90148 348.625,176.09375 345.75223,182.84519 338.88443,194.4782 349.5625,197.8125 360.34677,197.74493 359.96602,183.95012 364.59375,176.9375 367.2516,170.17088 375.24014,159.65477 364.5625,155.59375 Z M 290.96875,160.5625 C 277.72307,162.40831 282.33396,178.24668 281.5625,187.5788 282.95078,197.21122 277.82898,209.82667 286.46875,216.84375 296.15338,221.57727 303.06914,210.4848 300.75,201.787 300.03528,189.65531 302.27991,177.12978 299.4375,165.28125 297.15756,162.38051 294.62382,161.00993 290.96875,160.5625 Z M 454.84375,161.3125 C 445.25872,162.18503 447.02333,173.11003 450.81927,178.97048 455.07222,186.74692 455.0731,197.64769 462.00751,203.34537 469.9895,207.60411 475.61163,196.65982 471.00127,190.41775 467.217,181.09705 465.15754,170.65989 459.03125,162.59375 457.63542,162.16667 456.23958,161.73958 454.84375,161.3125 Z M 126.03125,161.4375 C 115.20986,161.49306 115.30832,175.27309 111.26426,182.63833 108.76417,189.57046 102.41813,201.53236 113.28125,204.375 124.04975,203.73209 122.94517,189.98496 127.23454,182.73158 129.52068,175.77623 137.02072,164.89043 126.03125,161.4375 Z M 234.25,196.9375 C 224.2609,197.53664 226.2911,209.14802 229.91689,215.17288 233.74238,222.91597 233.72465,233.51953 240.40611,239.17783 248.92313,243.67497 254.16628,231.72423 249.26959,225.36392 245.51156,216.46635 244.34768,206.10183 238.40625,198.34375 237.02083,197.875 235.63542,197.40625 234.25,196.9375 Z M 346.625,197 C 335.45074,197.54546 336.25526,211.89188 332.17689,219.60367 329.66859,226.32929 324.49754,237.87867 334.90625,240.25 345.77549,239.49344 344.40916,225.45127 348.53125,218.09375 350.75642,211.28211 357.54744,200.06563 346.625,197 Z M 110.28125,203.75 C 99.472675,204.67834 100.97159,218.58718 97.431085,226.13988 95.467891,233.17348 90.116593,245.59307 101.09375,247.5625 111.84929,246.24743 109.66416,232.48073 113.35842,224.94022 115.05078,217.78015 121.58741,206.22759 110.28125,203.75 Z M 470.59375,203.75 C 461.40337,203.60536 461.37373,214.40951 464.84375,220.40625 468.45252,228.72563 467.72755,239.83465 474.28012,246.25317 482.52109,251.26067 488.44119,239.62576 483.92324,232.99163 480.86402,223.83151 479.93771,213.57522 474.625,205.40625 473.28125,204.85417 471.9375,204.30208 470.59375,203.75 Z M 290.96875,218.0625 C 277.73308,219.96354 282.32816,235.76028 281.5625,245.11005 282.94662,254.74369 277.83621,267.35406 286.46875,274.375 296.16698,279.11652 303.05769,267.97988 300.75,259.287 300.03396,247.1659 302.28189,234.65035 299.4375,222.8125 297.16191,219.89551 294.63866,218.50512 290.96875,218.0625 Z M 248.9375,239.625 C 239.32578,239.62009 240.09387,250.80139 243.36497,256.93962 246.87145,265.09855 246.30855,275.94514 252.81864,282.1435 261.11126,287.06438 266.88724,275.41037 262.35775,268.8132 258.54064,259.76304 259.07749,247.58155 251.75675,240.77439 250.817,240.39126 249.87725,240.00813 248.9375,239.625 Z M 331.9375,239.625 C 321.02929,240.68735 322.5337,254.57003 318.97788,262.32449 316.89229,269.31049 311.759,281.4162 322.5625,283.4375 333.58349,281.97528 331.34118,267.67641 335.25424,259.93083 337.12023,253.07448 342.75683,241.97489 331.9375,239.625 Z M 201.0625,252.375 C 193.77479,252.31315 180.06415,257.56407 185.4652,266.6022 191.37699,274.09274 199.25763,261.83032 206.5,266.875 210.83314,270.75506 219.83224,273.89793 221.46716,265.88183 222.17559,256.61439 208.64468,252.46625 201.0625,252.375 Z M 375.21875,252.375 C 367.03467,252.72073 354.27559,257.00105 355.40625,266.9375 359.23214,274.84574 366.65958,269.07649 371.78125,266.34375 378.79509,262.8515 386.96324,274.55431 391.94121,265.77533 396.40237,256.69741 381.7291,252.27971 375.21875,252.375 Z M 179.46875,265.75 C 170.59552,271.98964 166.69764,283.19721 161.625,292.46875 157.80751,301.1387 171.97961,305.70098 174.375,296.78125 177.87824,288.08856 184.40377,280.95002 187.90625,272.40625 187.57375,267.873 183.95919,265.03582 179.46875,265.75 Z M 393.59375,265.84375 C 384.43356,270.17101 392.21637,279.17011 395.84375,284.46875 400.67978,290.10383 401.18018,301.10411 409.875,301.9375 419.22582,299.85242 414.79737,289.55476 411.14133,284.28846 406.56238,277.85581 403.83024,266.73099 395.0023,265.84375 L 393.6597,265.84375 393.59375,265.84375 Z M 221.9375,268.375 C 212.40749,272.50377 220.30664,282.10225 224.02966,287.476 228.86285,292.88593 230.22717,306.04361 239.58394,303.85352 249.14534,299.4042 240.08456,289.05299 237.03125,283.0625 232.86213,277.88868 230.2482,267.19588 221.9375,268.375 Z M 351.15625,268.40625 C 342.59932,274.79873 338.87133,285.84343 333.40625,294.78125 329.34721,303.18085 343.12345,308.37875 345.9375,299.6875 349.74787,290.91745 356.66111,283.69567 359.8125,274.75 359.28538,270.27532 355.60798,267.51399 351.15625,268.40625 Z M 290.96875,275.59375 C 277.73308,277.49479 282.32816,293.29153 281.5625,302.6413 282.94059,312.27835 277.84496,324.86777 286.46875,331.90625 296.14984,336.62243 303.06773,325.50889 300.75,316.81825 300.03396,304.69715 302.28189,292.1816 299.4375,280.34375 297.16191,277.42676 294.63866,276.03637 290.96875,275.59375 Z M 319.5625,282.96875 C 308.60536,284.61003 310.81387,298.60921 307.55509,306.62804 305.71392,313.58757 301.43741,325.69816 312.125,327.125 322.96758,325.32723 320.25153,311.34908 323.6875,303.5625 325.16252,296.521 330.72913,284.86862 319.5625,282.96875 Z M 261.3125,283.03125 C 251.89992,282.5231 251.83888,293.55939 254.88149,299.76948 258.07419,308.17419 257.0073,319.12267 263.29841,325.68652 271.39608,330.91959 277.66455,319.55205 273.38159,312.76104 270.54673,303.54024 270.33367,293.17884 265.28125,284.84375 263.95833,284.23958 262.63542,283.63542 261.3125,283.03125 Z M 163,300.875 C 153.21584,302.14517 153.62021,314.77702 149.92955,321.90211 147.42228,327.74406 144.11857,338.50497 153.59375,339.53125 162.90566,337.43445 161.36699,325.23389 165.3224,318.38217 167.60839,312.41086 172.6787,303.14803 163,300.875 Z M 414.1875,300.875 C 404.33141,302.622 409.17592,313.35535 411.8224,319.21158 415.59107,325.91107 414.21231,337.23789 422.96875,339.53125 433.39476,338.60463 429.03641,326.65951 426.46875,320.53125 423.07049,313.9578 423.20209,302.0367 414.1875,300.875 Z M 242.6875,303.1875 C 233.15931,305.18716 237.91873,315.63428 240.96875,321.1875 245.16804,327.77592 244.4728,339.59073 253.5625,341.34375 264.11212,339.55586 258.41131,327.84263 255.65625,321.71875 252.00316,315.65372 251.46472,303.70266 242.6875,303.1875 Z M 334.5,303.21875 C 324.53677,304.1622 324.43057,317.17401 320.24551,324.22137 317.43376,329.78462 314.00267,339.75536 322.96875,341.3125 332.80569,339.78671 331.83019,326.79678 336.43513,319.95346 339.11528,314.26336 343.6272,305.72954 334.5,303.21875 Z M 309.09375,326.8125 C 300.89433,326.47719 301.40861,338.47777 299.79737,339.18014 296.33716,329.04154 280.02807,333.51318 281.5625,344.06135 282.19734,357.95924 280.26503,344.51194 278.88341,338.09166 279.74586,330.01977 269.91762,322.50711 264.125,330.25 261.28978,337.28363 265.84672,344.55896 266.27539,351.70508 265.86194,345.38493 259.37606,336.61084 253.21265,342.81418 248.21226,349.87033 255.80824,358.26437 256.55312,365.85436 257.70156,371.9933 260.43008,382.63274 268.9375,378.6875 274.22079,372.72794 268.85069,367.62752 278.57559,370.74977 288.44134,369.62678 272.00305,370.53903 271.65662,376.73682 272.27345,382.46856 260.0434,377.86639 262.15625,387.1875 260.03272,391.2919 248.25501,387.76403 242.4313,388.94141 230.21932,389.57582 216.95649,387.67327 205.40025,389.89077 198.00438,395.12161 194.46953,401.95174 196.34961,411.02481 196.34961,419.51915 196.34961,428.01348 196.34961,436.50781 186.77647,437.13347 176.16464,435.25153 167.24595,437.45717 159.17073,442.22807 158.53847,450.08194 159.52344,458.60569 159.52344,469.81005 159.52344,481.0144 159.52344,492.21875 135.85109,501.9079 114.776,474.64357 91.026693,485.87969 81.10547,495.97175 54.204799,488.77696 51.988281,499.22978 51.988281,507.87389 51.988281,516.518 51.988281,525.16211 77.282743,529.29604 101.94992,504.03824 126.7198,520.27282 144.24188,530.60489 163.71886,523.06071 180.6542,515.73949 205.26383,503.54574 228.02241,531.04308 252.80322,520.90198 271.00376,513.81256 291.3565,510.3377 309.6724,519.24727 328.42172,528.70385 348.93871,523.40251 367.01608,515.36831 395.99,503.84225 423.65667,533.79125 452.58161,520.75187 474.41779,506.28496 495.42955,519.76593 517.38566,522.80687 524.38079,519.37013 518.96241,505.75562 520.66992,497.98358 522.38711,483.61233 495.62592,494.32365 487.22814,482.64827 464.93895,478.77415 444.60783,499.41131 421.95703,490.98047 421.95703,475.71354 421.95703,460.44662 421.95703,445.17969 416.91544,437.76029 410.05096,434.74101 401.20371,436.50781 395.0238,434.45365 380.22996,441.01342 380.5293,432.48001 379.90205,421.11276 381.78763,408.70466 379.57994,397.99205 374.3491,390.59618 367.51897,387.06133 358.4459,388.94141 343.73216,388.94141 329.01843,388.94141 314.30469,388.94141 319.19025,381.61699 301.83811,377.6268 312.86114,379.18193 320.90978,375.93605 319.10173,364.77574 322.64915,357.99936 324.95535,352.14626 328.57067,341.88159 319.25,340.59375 310.13801,345.56736 321.59917,328.67248 311.96698,327.69823 311.00924,327.40299 310.05149,327.10774 309.09375,326.8125 Z M 300.75,370.47852 C 307.66776,370.26833 305.28023,374.12545 300.75,370.47852 Z M 287.57422,387.77734 C 295.94943,387.94232 289.34542,390.96104 287.57422,387.77734 Z"
     id="path121"
     inkscape:connector-curvature="0" />
</svg>
