<?xml version="1.0" encoding="UTF-8" standalone="no"?>
<!-- Created with Inkscape (http://www.inkscape.org/) -->

<svg
   xmlns:dc="http://purl.org/dc/elements/1.1/"
   xmlns:cc="http://creativecommons.org/ns#"
   xmlns:rdf="http://www.w3.org/1999/02/22-rdf-syntax-ns#"
   xmlns:svg="http://www.w3.org/2000/svg"
   xmlns="http://www.w3.org/2000/svg"
   xmlns:sodipodi="http://sodipodi.sourceforge.net/DTD/sodipodi-0.dtd"
   xmlns:inkscape="http://www.inkscape.org/namespaces/inkscape"
   version="1.0"
   width="580"
   height="580"
   id="svg2"
   sodipodi:version="0.32"
   inkscape:version="0.91 r13725"
   sodipodi:docname="art_gallery2.svg"
   inkscape:output_extension="org.inkscape.output.svg.inkscape">
  <metadata
     id="metadata2975">
    <rdf:RDF>
      <cc:Work
         rdf:about="">
        <dc:format>image/svg+xml</dc:format>
        <dc:type
           rdf:resource="http://purl.org/dc/dcmitype/StillImage" />
        <cc:license
           rdf:resource="http://web.resource.org/cc/PublicDomain" />
        <dc:language>en</dc:language>
      </cc:Work>
    </rdf:RDF>
  </metadata>
  <sodipodi:namedview
     inkscape:window-height="972"
     inkscape:window-width="1280"
     inkscape:pageshadow="2"
     inkscape:pageopacity="0.0"
     guidetolerance="10.0"
     gridtolerance="10.0"
     objecttolerance="10.0"
     borderopacity="1.0"
     bordercolor="#666666"
     pagecolor="#ffffff"
     id="base"
     inkscape:zoom="0.65172414"
     inkscape:cx="277.72487"
     inkscape:cy="165.45312"
     inkscape:window-x="-8"
     inkscape:window-y="-8"
     inkscape:current-layer="svg2"
     showgrid="false"
     inkscape:window-maximized="1" />
  <defs
     id="defs4">
    <inkscape:perspective
       sodipodi:type="inkscape:persp3d"
       inkscape:vp_x="0 : 290 : 1"
       inkscape:vp_y="0 : 1000 : 0"
       inkscape:vp_z="580 : 290 : 1"
       inkscape:persp3d-origin="290 : 193.33333 : 1"
       id="perspective2441" />
    <inkscape:perspective
       id="perspective3452"
       inkscape:persp3d-origin="30 : 20 : 1"
       inkscape:vp_z="60 : 30 : 1"
       inkscape:vp_y="0 : 1000 : 0"
       inkscape:vp_x="0 : 30 : 1"
       sodipodi:type="inkscape:persp3d" />
  </defs>
  <path
     style="fill:#000080"
     d="M 233.14453 15.316406 C 225.16646 31.866035 213.91249 52.70345 230.54492 77.855469 L 256.21875 75.769531 C 256.87367 66.058483 264.03251 59.286814 256.28125 47.199219 C 245.43752 30.289071 239.891 24.943746 233.14453 15.316406 z M 150.04492 27.591797 C 147.98079 45.461355 144.31645 68.272267 166.52344 88.017578 L 188.52539 79.40625 C 186.18803 69.958584 190.46292 61.643402 180.00391 52.091797 C 165.37212 38.729408 158.88002 35.051646 150.04492 27.591797 z M 257.45312 77.904297 L 230.35156 81.484375 L 239.24219 129.91602 C 232.09185 131.07586 224.79599 132.99991 217.27344 135.98633 L 190.25 81.125 L 167.4375 91.53125 L 196.99219 149.63672 C 194.21374 153.16784 191.1418 157.26172 188.18359 160.53906 C 168.02023 182.87803 164.31365 214.54752 178.70117 241.30859 C 193.65605 269.12541 191.14349 288.30819 171.76172 294.28125 C 163.55375 296.81079 159.93872 296.13272 141.82227 289.01367 C 130.49102 284.56082 117.14075 280.95225 112.17578 280.98438 C 98.147309 281.07524 84.622261 289.51732 77.259766 302.71094 C 71.733975 312.61353 70.7803 317.00755 70.71875 334.17578 C 70.640204 356.12669 73.318211 363.84252 91.175781 394.08789 C 109.31641 424.81254 136.15379 452.39136 167.11133 472.0957 C 188.39589 485.64313 227.5443 499.96771 250.85938 503.01562 C 264.79801 504.83779 283.23434 507.46035 308.48438 507.06445 L 318.55273 561.9082 C 319.6987 570.69452 339.30497 568.26053 338.96875 559.92578 L 329.86133 506.06641 C 341.74695 505.13829 354.88297 503.53526 369.45117 500.98047 C 371.30543 500.54854 373.15665 500.0743 375.00781 499.58203 L 389.375 527.84375 C 393.02195 535.94364 409.54779 528.56464 406.75 520.6875 L 393.46289 493.70508 C 429.09277 480.4989 461.99923 457.73392 481.32031 435.58203 C 504.93073 408.5122 509.07531 396.44912 514.96484 367.38477 C 522.13955 331.97776 512.29307 283.33849 490.47656 246.32227 C 476.14744 222.01003 450.28839 193.27646 430.89062 180.1582 C 397.73609 157.73648 338.11493 135.24894 299.29102 130.49219 C 288.00859 129.87295 277.03272 128.75487 266 128.43945 L 257.45312 77.904297 z M 245.20312 162.38477 L 254.07227 210.69141 L 232.16016 166.20703 C 236.19913 164.27624 240.58859 162.96932 245.20312 162.38477 z M 272.71484 168.14648 C 285.17555 175.64697 293.51367 189.30117 293.51367 204.90234 C 293.51367 215.34182 289.77761 224.91511 283.57422 232.35938 L 272.71484 168.14648 z M 370.97656 181.64844 C 371.87212 181.64316 372.83158 181.67103 373.91992 181.7207 C 386.64322 182.30141 398.11156 186.68473 402.94922 192.80273 C 408.49476 199.81589 416.55632 235.24948 414.90234 245.33984 C 413.58471 253.37828 395.76191 275.60547 390.63281 275.60547 C 389.42956 275.60547 387.06879 276.11184 385.36523 276.73242 C 383.66152 277.35295 378.57886 276.23486 374.10156 274.26172 C 369.62424 272.28841 363.13533 270.59378 359.67773 270.48242 C 349.09481 270.14156 342.35621 264.92936 337.18555 253.08008 C 329.19944 234.77901 330.49709 223.94382 342.16406 210.57031 C 347.60077 204.33832 354.73644 195.19866 358.04102 190.25977 C 362.67024 183.34135 364.70813 181.68538 370.97656 181.64844 z M 213.86719 182.81445 L 246.83789 247.63477 C 224.94153 245.70469 207.73242 227.29488 207.73242 204.90234 C 207.73242 196.82279 209.97496 189.26608 213.86719 182.81445 z M 446.91211 288.68555 C 448.5486 288.70134 450.37534 288.81512 452.43555 288.97656 C 478.61839 291.02786 486.18959 301.31204 479.35742 325.52734 C 477.29919 332.82235 475.09073 343.39398 474.45312 349.07227 C 471.83324 372.40209 458.02496 382.75182 440.04492 374.79492 C 408.9392 361.02929 409.01484 361.06529 405.20312 344.78516 C 401.33861 328.27825 402.71364 324.72378 419.62695 307.83398 C 424.21164 303.25589 430.28213 296.87012 433.10547 293.66406 C 436.33161 290.00049 439.82042 288.61713 446.91211 288.68555 z M 136.5918 328.61719 C 136.82402 328.60542 137.02137 328.60396 137.24609 328.61719 C 140.24039 328.7934 150.01801 329.25564 158.97266 329.63281 C 167.92729 330.01005 176.57005 331.30591 178.19336 332.4668 C 182.10758 335.26586 192.68953 359.30935 192.68945 365.42188 C 192.68942 373.0458 186.36801 381.49622 171.07227 394.23438 C 158.96284 404.31887 155.23833 406.04297 145.71094 406.04297 C 134.28475 406.043 125.25586 399.75069 125.25586 391.79883 C 125.25594 389.8207 122.53926 382.36712 119.22461 375.23242 C 113.95894 363.89815 113.52735 361.07433 115.69922 352.77734 C 118.7353 341.17978 129.3936 328.98176 136.5918 328.61719 z M 342.67188 366.62109 C 347.2371 366.65959 353.17715 368.66846 362.50977 372.32422 C 368.26636 374.57923 376.07635 377.37894 379.91406 378.57422 C 385.31125 380.2552 388.33292 384.07491 393.17578 395.39648 C 404.71497 422.37346 400.70811 435.04101 378.96875 440.37695 C 372.41955 441.98446 363.31089 445.07414 358.69531 447.28125 C 339.73216 456.34959 325.00421 447.82493 322.03516 426.02539 C 316.89855 388.31192 316.89154 388.42189 327.30469 376.50391 C 332.91378 370.08441 336.48541 366.92593 341.80078 366.65625 C 342.09398 366.64137 342.36748 366.61856 342.67188 366.62109 z M 246.42578 369.30859 C 251.44908 369.25427 255.72009 370.96762 263.64844 375.55859 C 276.13987 382.7918 288.06437 396.70511 288.06445 404.00781 C 288.06445 405.99201 285.97237 412.28976 283.41406 418.0332 C 280.85557 423.77659 278.72979 430.31384 278.68945 432.56641 C 278.64905 434.81895 275.94453 440.14388 272.69531 444.37305 C 267.52133 451.10839 264.78869 452.19494 250.71289 453.34766 C 237.37924 454.43956 234.43229 453.96536 233.23828 450.4043 C 232.44682 448.04376 227.03735 443.3753 221.21094 440.05078 C 214.02132 435.94842 209.56686 431.22183 207.44141 425.4082 C 200.70437 406.97985 206.8128 381.71986 218.44922 379.8457 C 221.55069 379.34629 225.69018 377.29757 227.64258 375.30469 C 229.59474 373.31182 235.62676 370.87649 241.01367 369.89062 C 243.02878 369.52184 244.7515 369.32665 246.42578 369.30859 z "
     id="path4864" />
</svg>
