<?xml version="1.0" encoding="UTF-8" standalone="no"?>
<!-- Created with Inkscape (http://www.inkscape.org/) -->

<svg
   xmlns:dc="http://purl.org/dc/elements/1.1/"
   xmlns:cc="http://creativecommons.org/ns#"
   xmlns:rdf="http://www.w3.org/1999/02/22-rdf-syntax-ns#"
   xmlns:svg="http://www.w3.org/2000/svg"
   xmlns="http://www.w3.org/2000/svg"
   xmlns:sodipodi="http://sodipodi.sourceforge.net/DTD/sodipodi-0.dtd"
   xmlns:inkscape="http://www.inkscape.org/namespaces/inkscape"
   version="1.0"
   width="580"
   height="580"
   id="svg2"
   sodipodi:version="0.32"
   inkscape:version="0.91 r13725"
   sodipodi:docname="parking_car_paid.svg"
   inkscape:output_extension="org.inkscape.output.svg.inkscape">
  <metadata
     id="metadata10">
    <rdf:RDF>
      <cc:Work
         rdf:about="">
        <dc:format>image/svg+xml</dc:format>
        <dc:type
           rdf:resource="http://purl.org/dc/dcmitype/StillImage" />
        <cc:license
           rdf:resource="http://web.resource.org/cc/PublicDomain" />
        <dc:language>en</dc:language>
      </cc:Work>
    </rdf:RDF>
  </metadata>
  <sodipodi:namedview
     inkscape:window-height="1005"
     inkscape:window-width="1280"
     inkscape:pageshadow="2"
     inkscape:pageopacity="0.0"
     guidetolerance="10.0"
     gridtolerance="10.0"
     objecttolerance="10.0"
     borderopacity="1.0"
     bordercolor="#666666"
     pagecolor="#ffffff"
     id="base"
     showgrid="false"
     inkscape:zoom="0.70710678"
     inkscape:cx="129.72595"
     inkscape:cy="359.70629"
     inkscape:window-x="0"
     inkscape:window-y="0"
     inkscape:current-layer="svg2"
     inkscape:window-maximized="0" />
  <defs
     id="defs4">
    <inkscape:perspective
       sodipodi:type="inkscape:persp3d"
       inkscape:vp_x="0 : 290 : 1"
       inkscape:vp_y="0 : 1000 : 0"
       inkscape:vp_z="580 : 290 : 1"
       inkscape:persp3d-origin="290 : 193.33333 : 1"
       id="perspective12" />
    <style
       type="text/css"
       id="style6">
   
    .fil0 {fill:#EF7900}
   
  </style>
    <inkscape:perspective
       id="perspective6807"
       inkscape:persp3d-origin="29.116032 : 19.410688 : 1"
       inkscape:vp_z="58.232063 : 29.116032 : 1"
       inkscape:vp_y="0 : 1000 : 0"
       inkscape:vp_x="0 : 29.116032 : 1"
       sodipodi:type="inkscape:persp3d" />
    <inkscape:perspective
       id="perspective6954"
       inkscape:persp3d-origin="290 : 193.33333 : 1"
       inkscape:vp_z="580 : 290 : 1"
       inkscape:vp_y="0 : 1000 : 0"
       inkscape:vp_x="0 : 290 : 1"
       sodipodi:type="inkscape:persp3d" />
    <marker
       viewBox="0 0 10 10"
       refY="5"
       refX="10"
       orient="auto"
       markerWidth="4"
       markerUnits="strokeWidth"
       markerHeight="3"
       id="ArrowStart">
      <path
         id="path2295"
         d="M 10 0 L 0 5 L 10 10 z" />
    </marker>
    <marker
       viewBox="0 0 10 10"
       refY="5"
       refX="0"
       orient="auto"
       markerWidth="4"
       markerUnits="strokeWidth"
       markerHeight="3"
       id="ArrowEnd">
      <path
         id="path2292"
         d="M 0 0 L 10 5 L 0 10 z" />
    </marker>
    <inkscape:perspective
       id="perspective7597"
       inkscape:persp3d-origin="178.5405 : 158.483 : 1"
       inkscape:vp_z="357.08099 : 237.7245 : 1"
       inkscape:vp_y="0 : 1000 : 0"
       inkscape:vp_x="0 : 237.7245 : 1"
       sodipodi:type="inkscape:persp3d" />
  </defs>
  <path
     style="fill:#000080;stroke:none"
     d="M 455.15039 28.214844 C 446.87149 28.339883 440.25933 35.148721 440.37695 43.427734 L 440.37695 56.927734 C 420.29036 59.331942 405.07218 65.564592 394.75781 75.652344 C 383.32668 86.832656 377.61131 100.21459 377.61133 115.79883 C 377.61131 131.48018 383.38424 144.30537 394.92969 154.27539 C 405.33655 163.26248 420.49644 169.92092 440.37695 174.26758 L 440.37695 257.85352 C 431.21379 255.96563 423.66608 251.88418 417.73438 245.60547 C 410.41841 237.8617 405.56065 226.8261 403.16016 212.5 L 372.29492 217.14648 C 373.89526 236.21564 380.92679 251.04913 393.38672 261.64844 C 404.62662 271.20999 420.29984 277.35171 440.37695 280.09961 L 440.37695 308.4707 C 440.25862 316.83794 447.00888 323.68359 455.37695 323.68359 C 463.74502 323.68359 470.49528 316.83794 470.37695 308.4707 L 470.37695 280.25781 C 490.87076 278.49051 507.10684 271.83436 519.07031 260.26953 C 531.9873 247.78266 538.4471 233.02079 538.44727 215.98438 C 538.4471 199.33526 532.55903 185.87978 520.78516 175.61914 C 509.41978 165.71496 492.60617 158.79739 470.37695 154.8457 L 470.37695 79.394531 C 477.90902 81.346217 484.08313 84.694209 488.89258 89.445312 C 494.72231 95.204954 498.55173 103.02135 500.38086 112.89453 L 532.44531 108.97461 C 529.58736 93.09998 522.55779 80.757995 511.35547 71.949219 C 501.12903 63.908404 487.46168 58.863136 470.37695 56.791016 L 470.37695 43.427734 C 470.49709 34.971252 463.60676 28.087109 455.15039 28.214844 z M 47.878906 59.166016 L 47.878906 429.04102 L 96.826172 429.04102 L 96.826172 278.66992 L 191.69141 278.66992 C 244.00188 278.67007 280.16538 267.77836 300.18164 245.99609 C 320.19732 224.21418 330.20476 197.59651 330.20508 166.14258 C 330.20476 147.80888 326.46318 130.98829 318.97852 115.68164 C 311.49325 100.37562 301.61045 88.474991 289.33203 79.980469 C 277.05304 71.486644 261.83154 65.725258 243.66602 62.697266 C 230.71427 60.342812 211.95957 59.166385 187.40234 59.166016 L 47.878906 59.166016 z M 440.37695 79.330078 L 440.37695 148.67383 C 431.51276 145.76161 424.28914 142.00141 418.76367 137.36133 C 411.90495 131.60202 408.47455 123.73592 408.47461 113.76562 C 408.47455 105.05402 411.78982 97.382766 418.41992 90.751953 C 423.81129 85.36021 431.13043 81.553655 440.37695 79.330078 z M 96.826172 102.81445 L 191.43945 102.81445 C 213.64186 102.81477 228.86337 103.90745 237.10547 106.09375 C 249.88855 109.6263 260.19204 116.90107 268.01367 127.91797 C 275.83478 138.93547 279.74387 152.18198 279.74414 167.65625 C 279.74387 189.0181 273.10016 205.58548 259.8125 217.35938 C 246.52433 229.13369 224.06896 235.02168 192.44727 235.02148 L 96.826172 235.02148 L 96.826172 102.81445 z M 470.37695 180.5 C 483.47025 184.38238 492.64952 188.9737 497.89453 194.27734 C 503.7814 200.23047 506.72446 208.0946 506.72461 217.87109 C 506.72446 229.00286 502.83942 238.22307 495.06641 245.53125 C 488.39559 251.80298 480.16245 255.94842 470.37695 257.97852 L 470.37695 180.5 z M 277.58984 329.16602 C 260.43526 329.16602 251.33593 338.53174 247.13477 349.49414 L 224.83398 407.07617 C 215.99345 408.20976 200.32031 418.58771 200.32031 438.24609 L 200.32031 511.47266 L 222.02734 511.47266 L 222.02734 534.89062 C 222.02734 563.70219 262.80272 563.36288 262.80273 534.89062 L 262.80273 511.47266 L 336.14844 511.47266 L 336.17188 511.47266 L 409.51758 511.47266 L 409.51758 534.89062 C 409.51758 563.36288 450.29274 563.70219 450.29297 534.89062 L 450.29297 511.47266 L 471.99805 511.47266 L 471.99805 438.24609 C 471.99805 418.58772 456.32701 408.20976 447.48633 407.07617 L 425.16211 349.49414 C 420.96096 338.53174 411.85979 329.16602 394.70508 329.16602 L 363.17969 329.16602 L 309.49609 329.16602 L 277.58984 329.16602 z M 277.32812 350.13477 L 336.09961 350.13477 L 336.14844 350.13477 L 336.17188 350.13477 L 394.9668 350.13477 C 402.31842 350.20323 405.46779 354.80039 407.56836 361.16602 L 424.37695 406.48242 L 336.17188 406.48242 L 336.14844 406.48242 L 336.09961 406.48242 L 247.91797 406.48242 L 264.72852 361.16602 C 266.82911 354.80039 269.97573 350.20323 277.32812 350.13477 z M 243.06836 428.52148 C 253.47043 428.52148 261.89844 437.20027 261.89844 447.92188 C 261.89843 458.64348 253.47043 467.3457 243.06836 467.3457 C 232.66629 467.3457 224.23828 458.64346 224.23828 447.92188 C 224.23828 437.20028 232.66629 428.52148 243.06836 428.52148 z M 429.25195 428.52148 C 439.65402 428.52148 448.08206 437.20028 448.08203 447.92188 C 448.08199 458.64348 439.65402 467.3457 429.25195 467.3457 C 418.84988 467.3457 410.39844 458.64348 410.39844 447.92188 C 410.39844 437.20027 418.84988 428.52148 429.25195 428.52148 z "
     id="path2301" />
</svg>
