<?xml version="1.0" encoding="UTF-8" standalone="no"?>
<!-- Created with Inkscape (http://www.inkscape.org/) -->

<svg
   xmlns:dc="http://purl.org/dc/elements/1.1/"
   xmlns:cc="http://creativecommons.org/ns#"
   xmlns:rdf="http://www.w3.org/1999/02/22-rdf-syntax-ns#"
   xmlns:svg="http://www.w3.org/2000/svg"
   xmlns="http://www.w3.org/2000/svg"
   xmlns:sodipodi="http://sodipodi.sourceforge.net/DTD/sodipodi-0.dtd"
   xmlns:inkscape="http://www.inkscape.org/namespaces/inkscape"
   version="1.0"
   width="580"
   height="580"
   id="svg2"
   sodipodi:version="0.32"
   inkscape:version="0.91 r13725"
   sodipodi:docname="lighthouse.svg"
   inkscape:output_extension="org.inkscape.output.svg.inkscape">
  <metadata
     id="metadata2975">
    <rdf:RDF>
      <cc:Work
         rdf:about="">
        <dc:format>image/svg+xml</dc:format>
        <dc:type
           rdf:resource="http://purl.org/dc/dcmitype/StillImage" />
        <cc:license
           rdf:resource="http://web.resource.org/cc/PublicDomain" />
        <dc:language>en</dc:language>
      </cc:Work>
    </rdf:RDF>
  </metadata>
  <sodipodi:namedview
     inkscape:window-height="1005"
     inkscape:window-width="1280"
     inkscape:pageshadow="2"
     inkscape:pageopacity="0.0"
     guidetolerance="10.0"
     gridtolerance="10.0"
     objecttolerance="10.0"
     borderopacity="1.0"
     bordercolor="#666666"
     pagecolor="#ffffff"
     id="base"
     inkscape:zoom="0.92167712"
     inkscape:cx="259.74693"
     inkscape:cy="242.2248"
     inkscape:window-x="-4"
     inkscape:window-y="-4"
     inkscape:current-layer="svg2"
     showgrid="false"
     inkscape:window-maximized="0" />
  <defs
     id="defs4">
    <inkscape:perspective
       sodipodi:type="inkscape:persp3d"
       inkscape:vp_x="0 : 290 : 1"
       inkscape:vp_y="0 : 1000 : 0"
       inkscape:vp_z="580 : 290 : 1"
       inkscape:persp3d-origin="290 : 193.33333 : 1"
       id="perspective2441" />
    <inkscape:perspective
       id="perspective3452"
       inkscape:persp3d-origin="30 : 20 : 1"
       inkscape:vp_z="60 : 30 : 1"
       inkscape:vp_y="0 : 1000 : 0"
       inkscape:vp_x="0 : 30 : 1"
       sodipodi:type="inkscape:persp3d" />
    <symbol
       viewBox="244.5 110 489 219.9"
       id="symbol-university">
      <path
         id="path4460"
         d="M79,43l57,119c0,0,21-96,104-96s124,106,124,106l43-133l82-17L0,17L79,43z" />
      <path
         id="path4462"
         d="M94,176l-21,39"
         stroke-width="20"
         stroke="#000000"
         fill="none" />
      <path
         id="path4464"
         d="M300,19c0,10.5-22.6,19-50.5,19S199,29.5,199,19s22.6-19,50.5-19S300,8.5,300,19z" />
      <path
         id="path4466"
         d="M112,216l-16-38L64,88c0,0-9-8-4-35s16-24,16-24"
         stroke-width="20"
         stroke="#000000"
         ill="none" />
    </symbol>
    <inkscape:perspective
       id="perspective4471"
       inkscape:persp3d-origin="372.04724 : 350.78739 : 1"
       inkscape:vp_z="744.09448 : 526.18109 : 1"
       inkscape:vp_y="0 : 1000 : 0"
       inkscape:vp_x="0 : 526.18109 : 1"
       sodipodi:type="inkscape:persp3d" />
    <inkscape:perspective
       id="perspective4668"
       inkscape:persp3d-origin="6 : 4 : 1"
       inkscape:vp_z="12 : 6 : 1"
       inkscape:vp_y="0 : 1000 : 0"
       inkscape:vp_x="0 : 6 : 1"
       sodipodi:type="inkscape:persp3d" />
  </defs>
  <g
     id="layer3"
     inkscape:label="Layout"
     style="display:none;stroke:#757575;stroke-opacity:1"
     transform="matrix(48.14969,0,0,48.14969,-536.27327,-33.306752)">
    <rect
       style="fill:none;stroke:#757575;stroke-width:0.10000000000000001;stroke-miterlimit:4;stroke-dasharray:none;stroke-opacity:1;display:inline"
       id="rect4134"
       width="10"
       height="10"
       x="1"
       y="1" />
    <rect
       style="fill:none;stroke:#757575;stroke-width:0.10000000000000001;stroke-miterlimit:4;stroke-dasharray:none;stroke-opacity:1;display:inline"
       id="rect4136"
       width="8"
       height="8"
       x="2"
       y="2" />
  </g>
  <path
     style="color:#000000;font-style:normal;font-variant:normal;font-weight:normal;font-stretch:normal;font-size:40px;line-height:125%;font-family:NPSPICT3;-inkscape-font-specification:NPSPICT3;text-indent:0;text-align:start;text-decoration:none;text-decoration-line:none;text-decoration-style:solid;text-decoration-color:#000000;letter-spacing:normal;word-spacing:normal;text-transform:none;direction:ltr;block-progression:tb;writing-mode:lr-tb;baseline-shift:baseline;text-anchor:start;white-space:normal;clip-rule:nonzero;display:inline;overflow:visible;visibility:visible;opacity:1;isolation:auto;mix-blend-mode:normal;color-interpolation:sRGB;color-interpolation-filters:linearRGB;solid-color:#000000;solid-opacity:1;fill:#000080;fill-opacity:1;fill-rule:nonzero;stroke:none;stroke-width:10;stroke-linecap:butt;stroke-linejoin:round;stroke-miterlimit:4;stroke-dasharray:none;stroke-dashoffset:0;stroke-opacity:1;color-rendering:auto;image-rendering:auto;shape-rendering:auto;text-rendering:auto;enable-background:accumulate"
     d="M 291.25 29.900391 A 5.0005 5.0005 0 0 0 288.79102 30.53125 L 217.13672 70.472656 A 5.0005 5.0005 0 0 0 216.82617 70.662109 C 214.66989 72.078284 212.79633 74.930745 212.79688 77.78125 C 212.79667 79.594714 213.32723 81.852616 214.99609 83.521484 C 216.66496 85.190353 218.92281 85.721043 220.73633 85.720703 L 361.71484 85.720703 C 363.58541 85.720763 365.71479 85.366321 367.5625 83.828125 C 369.41082 82.289425 370.24572 79.762109 370.24609 77.78125 A 5.0005 5.0005 0 0 0 370.24609 77.779297 C 370.24521 74.947022 368.39827 72.099201 366.25391 70.675781 A 5.0005 5.0005 0 0 0 365.9082 70.464844 L 293.64453 30.523438 A 5.0005 5.0005 0 0 0 291.25 29.900391 z M 36.054688 74.902344 A 5.0005 5.0005 0 0 0 30.921875 79.935547 L 31.513672 165.69922 A 5.0005 5.0005 0 0 0 37.130859 170.625 L 239.79688 145.36719 A 5.0005 5.0005 0 0 0 244.17773 140.4043 L 244.17773 105.75195 A 5.0005 5.0005 0 0 0 239.80859 100.79102 L 36.552734 74.941406 A 5.0005 5.0005 0 0 0 36.054688 74.902344 z M 548.40039 74.902344 A 5.0005 5.0005 0 0 0 547.91406 74.941406 L 345.25 100.79102 A 5.0005 5.0005 0 0 0 340.88086 105.75195 L 340.88086 139.8125 A 5.0005 5.0005 0 0 0 345.25 144.77344 L 547.91406 170.62305 A 5.0005 5.0005 0 0 0 553.54688 165.66406 L 553.54688 79.900391 A 5.0005 5.0005 0 0 0 548.40039 74.902344 z M 292.43359 86.929688 C 272.34643 86.929683 255.9707 103.30736 255.9707 123.39453 C 255.9707 143.4817 272.34642 159.85743 292.43359 159.85742 C 312.52076 159.85742 328.89844 143.4817 328.89844 123.39453 C 328.89844 103.30736 312.52076 86.929688 292.43359 86.929688 z M 217.79688 162.67773 C 214.80996 162.67794 211.66849 163.50689 209.41602 165.76562 C 207.16354 168.02436 206.34164 171.16219 206.3418 174.15039 C 206.34164 177.1351 207.16565 180.27112 209.41992 182.52539 C 211.6742 184.77966 214.81217 185.60371 217.79688 185.60352 L 224.42383 185.60352 L 177.00391 543.01562 A 5.0005 5.0005 0 0 0 181.96094 548.67383 L 400.49023 548.67383 A 5.0005 5.0005 0 0 0 405.44922 543.02344 L 358.60938 185.60352 L 365.24609 185.60352 C 368.23061 185.60371 371.36698 184.77949 373.62109 182.52539 C 375.87521 180.27129 376.69896 177.13499 376.69922 174.15039 C 376.69896 171.1623 375.87926 168.02419 373.62695 165.76562 C 371.37464 163.50706 368.23282 162.67794 365.24609 162.67773 L 217.79688 162.67773 z "
     id="path4157" />
</svg>
