<?xml version="1.0" encoding="UTF-8" standalone="no"?>
<!-- Created with Inkscape (http://www.inkscape.org/) -->

<svg
   xmlns:dc="http://purl.org/dc/elements/1.1/"
   xmlns:cc="http://creativecommons.org/ns#"
   xmlns:rdf="http://www.w3.org/1999/02/22-rdf-syntax-ns#"
   xmlns:svg="http://www.w3.org/2000/svg"
   xmlns="http://www.w3.org/2000/svg"
   xmlns:sodipodi="http://sodipodi.sourceforge.net/DTD/sodipodi-0.dtd"
   xmlns:inkscape="http://www.inkscape.org/namespaces/inkscape"
   version="1.0"
   width="580"
   height="580"
   id="svg2"
   sodipodi:version="0.32"
   inkscape:version="0.91 r13725"
   sodipodi:docname="fuel.svg"
   inkscape:output_extension="org.inkscape.output.svg.inkscape">
  <metadata
     id="metadata10">
    <rdf:RDF>
      <cc:Work
         rdf:about="">
        <dc:format>image/svg+xml</dc:format>
        <dc:type
           rdf:resource="http://purl.org/dc/dcmitype/StillImage" />
        <cc:license
           rdf:resource="http://web.resource.org/cc/PublicDomain" />
        <dc:language>en</dc:language>
      </cc:Work>
    </rdf:RDF>
  </metadata>
  <sodipodi:namedview
     inkscape:window-height="1005"
     inkscape:window-width="1280"
     inkscape:pageshadow="2"
     inkscape:pageopacity="0.0"
     guidetolerance="10.0"
     gridtolerance="10.0"
     objecttolerance="10.0"
     borderopacity="1.0"
     bordercolor="#666666"
     pagecolor="#ffffff"
     id="base"
     showgrid="false"
     inkscape:zoom="0.70710678"
     inkscape:cx="160.64455"
     inkscape:cy="324.52355"
     inkscape:window-x="0"
     inkscape:window-y="0"
     inkscape:current-layer="svg2"
     inkscape:window-maximized="0" />
  <defs
     id="defs4">
    <inkscape:perspective
       sodipodi:type="inkscape:persp3d"
       inkscape:vp_x="0 : 290 : 1"
       inkscape:vp_y="0 : 1000 : 0"
       inkscape:vp_z="580 : 290 : 1"
       inkscape:persp3d-origin="290 : 193.33333 : 1"
       id="perspective12" />
    <style
       type="text/css"
       id="style6">
   
    .fil0 {fill:#EF7900}
   
  </style>
    <inkscape:perspective
       id="perspective6807"
       inkscape:persp3d-origin="29.116032 : 19.410688 : 1"
       inkscape:vp_z="58.232063 : 29.116032 : 1"
       inkscape:vp_y="0 : 1000 : 0"
       inkscape:vp_x="0 : 29.116032 : 1"
       sodipodi:type="inkscape:persp3d" />
    <inkscape:perspective
       id="perspective6954"
       inkscape:persp3d-origin="290 : 193.33333 : 1"
       inkscape:vp_z="580 : 290 : 1"
       inkscape:vp_y="0 : 1000 : 0"
       inkscape:vp_x="0 : 290 : 1"
       sodipodi:type="inkscape:persp3d" />
    <marker
       viewBox="0 0 10 10"
       refY="5"
       refX="10"
       orient="auto"
       markerWidth="4"
       markerUnits="strokeWidth"
       markerHeight="3"
       id="ArrowStart">
      <path
         id="path2295"
         d="M 10 0 L 0 5 L 10 10 z" />
    </marker>
    <marker
       viewBox="0 0 10 10"
       refY="5"
       refX="0"
       orient="auto"
       markerWidth="4"
       markerUnits="strokeWidth"
       markerHeight="3"
       id="ArrowEnd">
      <path
         id="path2292"
         d="M 0 0 L 10 5 L 0 10 z" />
    </marker>
    <inkscape:perspective
       id="perspective7597"
       inkscape:persp3d-origin="178.5405 : 158.483 : 1"
       inkscape:vp_z="357.08099 : 237.7245 : 1"
       inkscape:vp_y="0 : 1000 : 0"
       inkscape:vp_x="0 : 237.7245 : 1"
       sodipodi:type="inkscape:persp3d" />
    <marker
       viewBox="0 0 10 10"
       refY="5"
       refX="10"
       orient="auto"
       markerWidth="4"
       markerUnits="strokeWidth"
       markerHeight="3"
       id="marker8025">
      <path
         id="path8027"
         d="M 10,0 L 0,5 L 10,10 L 10,0 z " />
    </marker>
    <marker
       viewBox="0 0 10 10"
       refY="5"
       refX="0"
       orient="auto"
       markerWidth="4"
       markerUnits="strokeWidth"
       markerHeight="3"
       id="marker8021">
      <path
         id="path8023"
         d="M 0,0 L 10,5 L 0,10 L 0,0 z " />
    </marker>
    <inkscape:perspective
       id="perspective8018"
       inkscape:persp3d-origin="205.96652 : 131.6262 : 1"
       inkscape:vp_z="411.93304 : 197.4393 : 1"
       inkscape:vp_y="0 : 1000 : 0"
       inkscape:vp_x="0 : 197.4393 : 1"
       sodipodi:type="inkscape:persp3d" />
    <inkscape:perspective
       id="perspective8269"
       inkscape:persp3d-origin="99.087723 : 77.339676 : 1"
       inkscape:vp_z="198.17545 : 116.00951 : 1"
       inkscape:vp_y="0 : 1000 : 0"
       inkscape:vp_x="0 : 116.00951 : 1"
       sodipodi:type="inkscape:persp3d" />
  </defs>
  <path
     style="fill:#000080;fill-opacity:1;fill-rule:evenodd;stroke:none;stroke-width:1px;stroke-linecap:butt;stroke-linejoin:miter;stroke-opacity:1"
     d="M 249 111.75 C 240.51758 111.75 232.0625 117.88064 232.0625 127.6875 L 232.05273 144.46289 C 220.69144 143.04161 209.4961 145.97695 199.34961 176.14062 C 199.37708 193.42271 199.72426 210.86331 200.17969 228.35938 C 200.18536 228.33629 200.19159 228.31411 200.19727 228.29102 L 201.77344 281.83594 C 201.75713 281.86767 201.73313 281.91549 201.7168 281.94727 C 203.05757 330.10944 203.76326 377.95528 199.74414 423.4375 C 184.10227 468.50152 134.15731 454.66941 135.99219 412.68555 C 157.74878 367.25878 185.79005 312.93912 201.7168 281.94727 C 201.21973 264.09192 200.64404 246.19836 200.17969 228.35938 C 182.4864 300.34696 146.96363 341.66389 121.62695 402.71484 C 110.08744 464.28326 191.36009 493.3454 216.47656 430.07227 C 217.68314 425.63698 218.03272 420.76962 217.45312 416.07031 C 217.1816 413.86888 216.70667 285.20672 216.81055 220.01367 L 232.00781 220.10352 L 231.875 442.9375 L 249.3125 442.9375 L 249.46875 467.875 L 409.5625 467.78125 L 409.6875 442.9375 L 424.6875 443.0625 L 424.6875 124.4375 C 424.68751 117.64142 420.75087 111.75 413.34375 111.75 L 249 111.75 z M 275.78125 146.59375 L 380.6875 146.59375 C 386.49577 146.59375 391.06251 148.95926 391.0625 156.96875 L 391.0625 239.84375 C 391.0625 245.45746 388.06163 249.53125 381.65625 249.53125 L 276.0625 249.25 C 269.96423 249.25 264.71875 244.74463 264.71875 238.1875 L 265.25 156.6875 C 265.25 150.1638 269.76979 146.59375 275.78125 146.59375 z "
     id="path1897" />
</svg>
