<?xml version="1.0" encoding="UTF-8" standalone="no"?>
<!-- Created with Inkscape (http://www.inkscape.org/) -->

<svg
   xmlns:dc="http://purl.org/dc/elements/1.1/"
   xmlns:cc="http://creativecommons.org/ns#"
   xmlns:rdf="http://www.w3.org/1999/02/22-rdf-syntax-ns#"
   xmlns:svg="http://www.w3.org/2000/svg"
   xmlns="http://www.w3.org/2000/svg"
   xmlns:sodipodi="http://sodipodi.sourceforge.net/DTD/sodipodi-0.dtd"
   xmlns:inkscape="http://www.inkscape.org/namespaces/inkscape"
   version="1.0"
   width="580"
   height="580"
   id="svg2"
   sodipodi:version="0.32"
   inkscape:version="0.91 r13725"
   sodipodi:docname="helicopter.svg"
   inkscape:output_extension="org.inkscape.output.svg.inkscape">
  <metadata
     id="metadata1976">
    <rdf:RDF>
      <cc:Work
         rdf:about="">
        <dc:format>image/svg+xml</dc:format>
        <dc:type
           rdf:resource="http://purl.org/dc/dcmitype/StillImage" />
        <cc:license
           rdf:resource="http://web.resource.org/cc/PublicDomain" />
        <dc:language>en</dc:language>
        <dc:title />
      </cc:Work>
    </rdf:RDF>
  </metadata>
  <sodipodi:namedview
     inkscape:window-height="972"
     inkscape:window-width="1280"
     inkscape:pageshadow="2"
     inkscape:pageopacity="0.0"
     guidetolerance="10.0"
     gridtolerance="10.0"
     objecttolerance="10.0"
     borderopacity="1.0"
     bordercolor="#666666"
     pagecolor="#ffffff"
     id="base"
     inkscape:zoom="0.79627885"
     inkscape:cx="207.99221"
     inkscape:cy="128.01585"
     inkscape:window-x="-8"
     inkscape:window-y="-8"
     inkscape:current-layer="svg2"
     showgrid="false"
     inkscape:window-maximized="1" />
  <defs
     id="defs4">
    <inkscape:perspective
       sodipodi:type="inkscape:persp3d"
       inkscape:vp_x="0 : 290 : 1"
       inkscape:vp_y="0 : 1000 : 0"
       inkscape:vp_z="580 : 290 : 1"
       inkscape:persp3d-origin="290 : 193.33333 : 1"
       id="perspective3653" />
    <marker
       viewBox="0 0 10 10"
       refY="5"
       refX="10"
       orient="auto"
       markerWidth="4"
       markerUnits="strokeWidth"
       markerHeight="3"
       id="ArrowStart">
      <path
         id="path2111"
         d="M 10 0 L 0 5 L 10 10 z" />
    </marker>
    <marker
       viewBox="0 0 10 10"
       refY="5"
       refX="0"
       orient="auto"
       markerWidth="4"
       markerUnits="strokeWidth"
       markerHeight="3"
       id="ArrowEnd">
      <path
         id="path2108"
         d="M 0 0 L 10 5 L 0 10 z" />
    </marker>
    <inkscape:perspective
       id="perspective2512"
       inkscape:persp3d-origin="177.51199 : 145.02 : 1"
       inkscape:vp_z="355.02399 : 217.53 : 1"
       inkscape:vp_y="0 : 1000 : 0"
       inkscape:vp_x="0 : 217.53 : 1"
       sodipodi:type="inkscape:persp3d" />
    <inkscape:perspective
       id="perspective3305"
       inkscape:persp3d-origin="372.04724 : 350.78739 : 1"
       inkscape:vp_z="744.09448 : 526.18109 : 1"
       inkscape:vp_y="0 : 1000 : 0"
       inkscape:vp_x="0 : 526.18109 : 1"
       sodipodi:type="inkscape:persp3d" />
    <inkscape:perspective
       id="perspective3354"
       inkscape:persp3d-origin="372.04724 : 350.78739 : 1"
       inkscape:vp_z="744.09448 : 526.18109 : 1"
       inkscape:vp_y="0 : 1000 : 0"
       inkscape:vp_x="0 : 526.18109 : 1"
       sodipodi:type="inkscape:persp3d" />
    <inkscape:perspective
       id="perspective2866"
       inkscape:persp3d-origin="0.5 : 0.33333333 : 1"
       inkscape:vp_z="1 : 0.5 : 1"
       inkscape:vp_y="0 : 1000 : 0"
       inkscape:vp_x="0 : 0.5 : 1"
       sodipodi:type="inkscape:persp3d" />
  </defs>
  <path
     style="color:#000000;font-style:normal;font-variant:normal;font-weight:normal;font-stretch:normal;font-size:medium;line-height:normal;font-family:sans-serif;text-indent:0;text-align:start;text-decoration:none;text-decoration-line:none;text-decoration-style:solid;text-decoration-color:#000000;letter-spacing:normal;word-spacing:normal;text-transform:none;direction:ltr;block-progression:tb;writing-mode:lr-tb;baseline-shift:baseline;text-anchor:start;white-space:normal;clip-rule:nonzero;display:inline;overflow:visible;visibility:visible;opacity:1;isolation:auto;mix-blend-mode:normal;color-interpolation:sRGB;color-interpolation-filters:linearRGB;solid-color:#000000;solid-opacity:1;fill:#000080;fill-opacity:1;fill-rule:nonzero;stroke:none;stroke-width:27.77224159;stroke-linecap:round;stroke-linejoin:round;stroke-miterlimit:4;stroke-dasharray:none;stroke-dashoffset:0;stroke-opacity:1;color-rendering:auto;image-rendering:auto;shape-rendering:auto;text-rendering:auto;enable-background:accumulate"
     d="M 95.984375 157.39062 C 92.926068 157.41205 91.153015 160.86222 92.916016 163.36133 L 104.10547 179.21484 C 104.77967 180.16892 105.85644 180.75847 107.02344 180.8125 L 319.33398 190.71289 L 318.68555 222.47266 C 311.41293 223.13781 304.04609 225.87701 296.86523 229.19531 C 286.70741 233.88928 276.80485 239.85779 268.26562 243.51367 L 268.8125 246.73828 C 255.07833 248.91118 241.43504 250.62482 227.76953 250.85352 C 227.66724 250.85494 227.56499 250.85884 227.46289 250.86523 C 175.72906 254.26287 113.38537 256.59664 61.902344 254.32812 C 61.34392 254.30575 60.784997 254.35764 60.240234 254.48242 C 58.719419 254.08995 57.140484 253.82268 55.501953 253.72266 C 50.370199 240.03708 45.39721 226.18547 40.253906 212.35547 C 39.175311 209.45599 36.427492 207.51685 34.613281 207.5 C 34.434813 207.49754 23.005859 208.03906 23.005859 208.03906 C 17.676887 208.36572 14.385652 213.99761 16.716797 218.80078 L 16.667969 218.76953 C 23.148727 232.2863 29.407037 246.48596 35.996094 260.3457 C 27.416751 268.34276 23.908414 282.03641 30.287109 292.66797 C 34.801146 301.96228 44.706472 306.56873 54.435547 306.29102 L 68.886719 347.75977 C 71.590322 353.05418 81.649322 353.77819 86.810547 352.3418 C 91.872364 349.82644 95.512152 345.00947 92.738281 339.99609 C 86.371202 328.84195 81.203788 316.52122 75.830078 303.97461 C 139.82911 308.30728 228.8038 343.11272 299.17188 372.69141 C 299.30167 372.74593 299.43326 372.79608 299.56641 372.8418 C 337.2826 385.80329 377.69011 383.30548 415.40625 380.0293 C 415.57104 380.01557 415.73523 379.99537 415.89844 379.96875 C 425.44729 378.37558 436.87 377.18017 447.74219 373.63672 C 458.61437 370.09326 469.26799 363.8259 475.58203 352.26172 C 475.74561 351.96291 475.88474 351.65134 475.99805 351.33008 C 481.67797 335.16409 476.04015 318.6033 470.95898 305.54883 C 470.93165 305.47669 470.903 305.40507 470.87305 305.33398 C 456.01707 270.94636 423.48044 249.57015 388.57227 240.80469 L 386.76758 239.86914 C 375.38527 233.96352 353.617 222.99781 334.13477 222.48633 L 334.7832 190.66797 L 551.06641 178.94727 C 552.09905 178.89076 553.06367 178.41445 553.73633 177.62891 L 564.92773 164.57422 C 567.13549 161.99866 565.10421 158.0426 561.72461 158.33594 L 325.31445 178.82227 L 96.363281 157.40625 C 96.237319 157.39472 96.110859 157.3895 95.984375 157.39062 z M 56.267578 265.61914 C 58.1322 265.75169 59.624456 266.84982 61.353516 267.42578 C 68.031787 271.82376 71.03255 283.26224 64.160156 289.89648 C 56.224647 299.49198 38.885579 293.06441 39.017578 280.66406 C 38.56902 272.87197 45.106351 265.78298 55.443359 265.625 C 55.726682 265.60015 56.001204 265.60021 56.267578 265.61914 z M 376.94922 266.33984 C 379.61798 266.33587 382.45393 266.40638 385.56641 266.57617 C 401.78136 267.99089 418.56353 276.30398 428.9043 288.40625 C 429.05622 288.58437 429.21792 288.7539 429.38867 288.91406 C 439.1694 298.07841 444.97548 311.47838 447.2168 325.48438 C 428.70528 325.85154 411.74238 325.43989 393.48828 325.35742 C 383.72316 305.43581 373.33655 286.40543 363.69531 266.97266 C 365.52746 266.8339 367.49124 266.64516 369.33398 266.54883 C 371.77867 266.42104 374.28046 266.34382 376.94922 266.33984 z M 331.58203 269.17383 C 333.19044 271.29503 335.31377 274.63217 337.55469 279.24805 C 340.39856 285.10589 343.37152 292.30512 346.20117 299.625 C 350.50444 310.7569 353.65983 319.60232 356.66406 327.5332 C 339.80884 327.53807 320.00325 327.81534 304.01172 327.75391 C 303.77952 313.37701 303.32577 283.936 303.09375 269.44336 C 312.47775 269.34146 322.29869 269.28001 331.58203 269.17383 z M 257.92969 398.61328 A 13.887509 13.887509 0 1 0 257.92969 426.38672 L 455.86914 426.38672 A 13.887509 13.887509 0 1 0 455.86914 398.61328 L 257.92969 398.61328 z "
     id="path2872" />
</svg>
