<?xml version="1.0" encoding="UTF-8" standalone="no"?>
<!-- Created with Inkscape (http://www.inkscape.org/) -->

<svg
   xmlns:dc="http://purl.org/dc/elements/1.1/"
   xmlns:cc="http://creativecommons.org/ns#"
   xmlns:rdf="http://www.w3.org/1999/02/22-rdf-syntax-ns#"
   xmlns:svg="http://www.w3.org/2000/svg"
   xmlns="http://www.w3.org/2000/svg"
   xmlns:sodipodi="http://sodipodi.sourceforge.net/DTD/sodipodi-0.dtd"
   xmlns:inkscape="http://www.inkscape.org/namespaces/inkscape"
   version="1.0"
   width="580"
   height="580"
   id="svg2"
   sodipodi:version="0.32"
   inkscape:version="0.91 r13725"
   sodipodi:docname="car_share.svg"
   inkscape:output_extension="org.inkscape.output.svg.inkscape">
  <metadata
     id="metadata10">
    <rdf:RDF>
      <cc:Work
         rdf:about="">
        <dc:format>image/svg+xml</dc:format>
        <dc:type
           rdf:resource="http://purl.org/dc/dcmitype/StillImage" />
        <cc:license
           rdf:resource="http://web.resource.org/cc/PublicDomain" />
        <dc:language>en</dc:language>
      </cc:Work>
    </rdf:RDF>
  </metadata>
  <sodipodi:namedview
     inkscape:window-height="972"
     inkscape:window-width="1280"
     inkscape:pageshadow="2"
     inkscape:pageopacity="0.0"
     guidetolerance="10.0"
     gridtolerance="10.0"
     objecttolerance="10.0"
     borderopacity="1.0"
     bordercolor="#666666"
     pagecolor="#ffffff"
     id="base"
     showgrid="false"
     inkscape:zoom="0.70710678"
     inkscape:cx="368.72598"
     inkscape:cy="500.76913"
     inkscape:window-x="-8"
     inkscape:window-y="-8"
     inkscape:current-layer="svg2"
     inkscape:window-maximized="1" />
  <defs
     id="defs4">
    <inkscape:perspective
       sodipodi:type="inkscape:persp3d"
       inkscape:vp_x="0 : 290 : 1"
       inkscape:vp_y="0 : 1000 : 0"
       inkscape:vp_z="580 : 290 : 1"
       inkscape:persp3d-origin="290 : 193.33333 : 1"
       id="perspective12" />
    <style
       type="text/css"
       id="style6">
   
    .fil0 {fill:#EF7900}
   
  </style>
    <inkscape:perspective
       id="perspective6807"
       inkscape:persp3d-origin="29.116032 : 19.410688 : 1"
       inkscape:vp_z="58.232063 : 29.116032 : 1"
       inkscape:vp_y="0 : 1000 : 0"
       inkscape:vp_x="0 : 29.116032 : 1"
       sodipodi:type="inkscape:persp3d" />
    <inkscape:perspective
       id="perspective6954"
       inkscape:persp3d-origin="290 : 193.33333 : 1"
       inkscape:vp_z="580 : 290 : 1"
       inkscape:vp_y="0 : 1000 : 0"
       inkscape:vp_x="0 : 290 : 1"
       sodipodi:type="inkscape:persp3d" />
    <marker
       viewBox="0 0 10 10"
       refY="5"
       refX="10"
       orient="auto"
       markerWidth="4"
       markerUnits="strokeWidth"
       markerHeight="3"
       id="ArrowStart">
      <path
         id="path2295"
         d="M 10 0 L 0 5 L 10 10 z" />
    </marker>
    <marker
       viewBox="0 0 10 10"
       refY="5"
       refX="0"
       orient="auto"
       markerWidth="4"
       markerUnits="strokeWidth"
       markerHeight="3"
       id="ArrowEnd">
      <path
         id="path2292"
         d="M 0 0 L 10 5 L 0 10 z" />
    </marker>
    <inkscape:perspective
       id="perspective7597"
       inkscape:persp3d-origin="178.5405 : 158.483 : 1"
       inkscape:vp_z="357.08099 : 237.7245 : 1"
       inkscape:vp_y="0 : 1000 : 0"
       inkscape:vp_x="0 : 237.7245 : 1"
       sodipodi:type="inkscape:persp3d" />
  </defs>
  <path
     style="fill:#000080;stroke:none"
     d="M 170.99219,21.037109 C 159.11386,21.037109 149.80703,24.908741 141.88477,32.630859 133.96323,40.353724 129.99453,49.738474 129.99414,60.820312 129.99452,71.914957 133.96323,81.348148 141.88477,89.070312 149.80703,96.793113 159.11386,100.63672 170.99219,100.63672 182.87051,100.63672 192.17542,96.793113 200.09766,89.070312 208.01921,81.348148 211.95861,71.914957 211.95898,60.820312 211.95862,49.738474 208.01921,40.353724 200.09766,32.630859 192.17542,24.908741 182.87051,21.037109 170.99219,21.037109 Z M 398.99219,21.037109 C 387.11387,21.037109 377.80703,24.908741 369.88477,32.630859 361.96323,40.353724 357.99453,49.738475 357.99414,60.820312 357.99452,71.914957 361.96323,81.348149 369.88477,89.070312 377.80703,96.793113 387.11387,100.63672 398.99219,100.63672 410.87052,100.63672 420.17542,96.793113 428.09766,89.070312 436.01921,81.348149 439.95861,71.914957 439.95898,60.820312 439.95862,49.738475 436.01921,40.353724 428.09766,32.630859 420.17542,24.908741 410.87052,21.037109 398.99219,21.037109 Z M 196.62695,109.72852 C 190.80534,109.70684 181.94285,109.7503 168.23047,109.87695 131.66413,110.21469 130.36959,110.16484 129.07617,110.18945 110.35938,110.64147 95.546618,126.16941 95.976562,144.88672 L 96.6875,224.01367 C 96.413904,239.09341 106.12628,252.54207 120.52734,257.02344 L 120.52734,266.93359 120.52734,269.95117 170.99219,268.4707 221.48438,269.95117 221.48438,266.93359 221.48438,255.51562 C 234.01004,249.8278 241.8607,237.1401 241.36133,223.39258 L 240.65234,144.26562 C 240.71638,126.27379 226.725,111.36144 208.76562,110.2793 207.58557,109.98047 206.32964,109.76464 196.62695,109.72852 Z M 424.62695,109.72852 C 418.80534,109.70684 409.94285,109.7503 396.23047,109.87695 359.66412,110.21469 358.36959,110.16483 357.07617,110.18945 338.35938,110.64147 323.54662,126.16941 323.97656,144.88672 L 324.6875,224.01367 C 324.4139,239.09341 334.12627,252.54207 348.52734,257.02344 L 348.52734,266.93359 348.52734,269.95117 398.99219,268.4707 449.48438,269.95117 449.48438,266.93359 449.48438,255.51562 C 462.01004,249.8278 469.8607,237.1401 469.36133,223.39258 L 468.65234,144.26562 C 468.71637,126.27379 454.72501,111.36145 436.76562,110.2793 435.58557,109.98047 434.32964,109.76464 424.62695,109.72852 Z M 213.56445,281.96289 C 192.30217,281.96289 181.02355,293.57082 175.81641,307.1582 L 148.17578,378.5293 C 137.21837,379.93433 117.79492,392.79648 117.79492,417.16211 L 117.79492,507.92383 144.69922,507.92383 144.69922,536.94922 C 144.69922,572.65978 195.23632,572.23921 195.23633,536.94922 L 195.23633,507.92383 286.14453,507.92383 286.17383,507.92383 377.08398,507.92383 377.08398,536.94922 C 377.08398,572.23921 427.6208,572.65978 427.62109,536.94922 L 427.62109,507.92383 454.52539,507.92383 454.52539,417.16211 C 454.52539,392.7965 435.10213,379.93433 424.14453,378.5293 L 396.47266,307.1582 C 391.26553,293.57082 379.98705,281.96289 358.72461,281.96289 L 319.65039,281.96289 253.11133,281.96289 Z M 213.24219,307.95312 286.08594,307.95312 286.14453,307.95312 286.17383,307.95312 359.04883,307.95312 C 368.16081,308.03803 372.06442,313.73706 374.66797,321.62695 L 395.50195,377.79297 286.17383,377.79297 286.14453,377.79297 286.08594,377.79297 176.78906,377.79297 197.62305,321.62695 C 200.22663,313.73706 204.12925,308.03798 213.24219,307.95312 Z M 170.77734,405.10938 C 183.67021,405.10938 194.11719,415.86732 194.11719,429.15625 194.11718,442.44518 183.67021,453.23047 170.77734,453.23047 157.88447,453.23047 147.43945,442.44515 147.43945,429.15625 147.43945,415.86735 157.88447,405.10938 170.77734,405.10938 Z M 401.54297,405.10938 C 414.43583,405.10938 424.8809,415.86735 424.88086,429.15625 424.88081,442.44515 414.43583,453.23047 401.54297,453.23047 388.65011,453.23047 378.17383,442.44517 378.17383,429.15625 378.17383,415.86732 388.65011,405.10938 401.54297,405.10938 Z"
     id="path2301"
     inkscape:connector-curvature="0"
     sodipodi:nodetypes="sccsssccssccsssccssscccccccccccccssscccccccccccccssccsccssccccssccsccsccsccccccccccccczzzzzzzzzz" />
</svg>
