<?xml version="1.0" encoding="UTF-8" standalone="no"?>
<!-- Created with Inkscape (http://www.inkscape.org/) -->

<svg
   xmlns:dc="http://purl.org/dc/elements/1.1/"
   xmlns:cc="http://creativecommons.org/ns#"
   xmlns:rdf="http://www.w3.org/1999/02/22-rdf-syntax-ns#"
   xmlns:svg="http://www.w3.org/2000/svg"
   xmlns="http://www.w3.org/2000/svg"
   xmlns:sodipodi="http://sodipodi.sourceforge.net/DTD/sodipodi-0.dtd"
   xmlns:inkscape="http://www.inkscape.org/namespaces/inkscape"
   version="1.0"
   width="580"
   height="580"
   id="svg2"
   sodipodi:version="0.32"
   inkscape:version="0.91 r13725"
   sodipodi:docname="port.svg"
   inkscape:output_extension="org.inkscape.output.svg.inkscape">
  <metadata
     id="metadata2975">
    <rdf:RDF>
      <cc:Work
         rdf:about="">
        <dc:format>image/svg+xml</dc:format>
        <dc:type
           rdf:resource="http://purl.org/dc/dcmitype/StillImage" />
        <cc:license
           rdf:resource="http://web.resource.org/cc/PublicDomain" />
        <dc:language>en</dc:language>
      </cc:Work>
    </rdf:RDF>
  </metadata>
  <sodipodi:namedview
     inkscape:window-height="947"
     inkscape:window-width="1048"
     inkscape:pageshadow="2"
     inkscape:pageopacity="0.0"
     guidetolerance="10.0"
     gridtolerance="10.0"
     objecttolerance="10.0"
     borderopacity="1.0"
     bordercolor="#666666"
     pagecolor="#ffffff"
     id="base"
     inkscape:zoom="0.92167712"
     inkscape:cx="133.34691"
     inkscape:cy="281.19503"
     inkscape:window-x="91"
     inkscape:window-y="25"
     inkscape:current-layer="svg2"
     showgrid="false"
     inkscape:window-maximized="0" />
  <defs
     id="defs4">
    <inkscape:perspective
       sodipodi:type="inkscape:persp3d"
       inkscape:vp_x="0 : 290 : 1"
       inkscape:vp_y="0 : 1000 : 0"
       inkscape:vp_z="580 : 290 : 1"
       inkscape:persp3d-origin="290 : 193.33333 : 1"
       id="perspective2441" />
    <inkscape:perspective
       id="perspective3452"
       inkscape:persp3d-origin="30 : 20 : 1"
       inkscape:vp_z="60 : 30 : 1"
       inkscape:vp_y="0 : 1000 : 0"
       inkscape:vp_x="0 : 30 : 1"
       sodipodi:type="inkscape:persp3d" />
    <symbol
       viewBox="244.5 110 489 219.9"
       id="symbol-university">
      <path
         id="path4460"
         d="M79,43l57,119c0,0,21-96,104-96s124,106,124,106l43-133l82-17L0,17L79,43z" />
      <path
         id="path4462"
         d="M94,176l-21,39"
         stroke-width="20"
         stroke="#000000"
         fill="none" />
      <path
         id="path4464"
         d="M300,19c0,10.5-22.6,19-50.5,19S199,29.5,199,19s22.6-19,50.5-19S300,8.5,300,19z" />
      <path
         id="path4466"
         d="M112,216l-16-38L64,88c0,0-9-8-4-35s16-24,16-24"
         stroke-width="20"
         stroke="#000000"
         ill="none" />
    </symbol>
    <inkscape:perspective
       id="perspective4471"
       inkscape:persp3d-origin="372.04724 : 350.78739 : 1"
       inkscape:vp_z="744.09448 : 526.18109 : 1"
       inkscape:vp_y="0 : 1000 : 0"
       inkscape:vp_x="0 : 526.18109 : 1"
       sodipodi:type="inkscape:persp3d" />
    <inkscape:perspective
       id="perspective4668"
       inkscape:persp3d-origin="6 : 4 : 1"
       inkscape:vp_z="12 : 6 : 1"
       inkscape:vp_y="0 : 1000 : 0"
       inkscape:vp_x="0 : 6 : 1"
       sodipodi:type="inkscape:persp3d" />
    <marker
       viewBox="0 0 10 10"
       refY="5"
       refX="10"
       orient="auto"
       markerWidth="4"
       markerUnits="strokeWidth"
       markerHeight="3"
       id="ArrowStart">
      <path
         id="path3634"
         d="M 10 0 L 0 5 L 10 10 z" />
    </marker>
    <marker
       viewBox="0 0 10 10"
       refY="5"
       refX="0"
       orient="auto"
       markerWidth="4"
       markerUnits="strokeWidth"
       markerHeight="3"
       id="ArrowEnd">
      <path
         id="path3631"
         d="M 0 0 L 10 5 L 0 10 z" />
    </marker>
    <inkscape:perspective
       id="perspective2510"
       inkscape:persp3d-origin="306.082 : 204.39034 : 1"
       inkscape:vp_z="612.164 : 306.58551 : 1"
       inkscape:vp_y="0 : 1000 : 0"
       inkscape:vp_x="0 : 306.58551 : 1"
       sodipodi:type="inkscape:persp3d" />
  </defs>
  <g
     id="layer3"
     inkscape:label="Layout"
     style="display:none;stroke:#757575;stroke-opacity:1"
     transform="matrix(48.14969,0,0,48.14969,-536.27327,-33.306752)">
    <rect
       style="fill:none;stroke:#757575;stroke-width:0.10000000000000001;stroke-miterlimit:4;stroke-dasharray:none;stroke-opacity:1;display:inline"
       id="rect4134"
       width="10"
       height="10"
       x="1"
       y="1" />
    <rect
       style="fill:none;stroke:#757575;stroke-width:0.10000000000000001;stroke-miterlimit:4;stroke-dasharray:none;stroke-opacity:1;display:inline"
       id="rect4136"
       width="8"
       height="8"
       x="2"
       y="2" />
  </g>
  <g
     id="g3640"
     transform="matrix(1.088903,0,0,1.088903,-42.543252,-50.246524)">
    <g
       id="g3642">
      <path
         style="fill:#000080;stroke:none"
         d="M 256.4375 37.03125 L 256.4375 85.03125 L 200.65625 85.03125 L 200.65625 120.84375 L 160.84375 120.84375 L 160.84375 188.84375 L 140.1875 197.25 C 127.78816 202.5203 122.61441 213.59708 127.78125 225.71875 L 161.875 304.25 L 161.875 413.59375 C 139.78711 413.56834 120.9765 386.73546 80.78125 409.15625 C 80.781248 409.15626 69.280571 415.57315 51.84375 416 L 51.84375 462.875 C 65.469193 461.86341 71.989701 459.67635 82.3125 453.90625 C 93.273396 447.77792 113.32844 441.81474 137.09375 453.9375 C 160.86015 466.06026 181.00719 466.07292 201.15625 455.53125 C 221.30531 444.98958 238.86222 444.44989 257.71875 453.9375 C 281.48516 466.06026 300.13788 466.19668 324.09375 454.21875 C 343.42179 444.41862 360.78953 444.98958 380.9375 455.53125 C 401.08657 466.07292 421.23469 466.06026 445 453.9375 C 468.7653 441.81474 488.70199 447.9554 499.75 453.90625 C 509.45322 459.13191 516.27611 461.86341 530.25 462.875 L 530.25 415.5625 C 512.46495 415.13566 501.3125 408.71875 501.3125 408.71875 C 460.19226 386.28736 442.29114 413.59375 420.1875 413.59375 L 420.1875 304.25 L 454.3125 225.71875 C 459.47824 213.59709 454.30559 202.52029 441.90625 197.25 L 421.25 188.84375 L 421.25 120.84375 L 381.4375 120.84375 L 381.4375 85.03125 L 325.65625 85.03125 L 325.65625 37.03125 L 291.03125 37.03125 L 256.4375 37.03125 z M 230.09375 113.46875 L 291.03125 113.46875 L 352 113.46875 L 352 148.75 L 391.78125 148.75 L 391.78125 176.1875 L 291.03125 134.625 L 190.3125 176.1875 L 190.3125 148.75 L 230.09375 148.75 L 230.09375 113.46875 z M 108.09766 471.03711 C 98.940096 471.12708 90.185658 473.8148 81.03125 479.46484 C 81.03125 479.46484 72.001483 486.31641 52.101562 486.31641 L 52.101562 534.80664 C 64.65117 534.80664 74.451627 532.35588 82.890625 527.18359 C 93.599986 520.61969 113.57844 513.76873 137.34375 525.89258 C 161.10906 538.01534 181.25914 538.01542 201.4082 527.47266 C 221.55726 516.93099 232.72327 515.0317 257.20508 525.62891 C 280.97039 537.75166 304.47789 536.63542 324.62695 526.09375 C 349.10876 515.49655 360.53258 516.93099 380.68164 527.47266 C 400.83179 538.01542 420.97883 538.01534 444.74414 525.89258 C 468.50618 513.76873 487.84699 520.67958 498.57812 527.18359 C 507.56157 532.62811 516.54491 534.80664 529.98633 534.80664 L 529.98633 486.31641 C 509.73927 486.34907 501.05469 479.46484 501.05469 479.46484 C 480.13251 466.55045 460.95365 469.10561 434.60547 482.81055 C 419.57643 490.62451 395.74365 488.5696 378.87109 479.77344 C 355.62193 467.65177 342.45818 470.61463 318.0918 481.44922 C 299.21349 489.84248 282.176 489.83813 263.375 481.44922 C 239.02386 470.58414 226.46596 467.65177 203.2168 479.77344 C 186.34533 488.5696 162.1638 490.62451 147.13477 482.81055 C 132.3133 475.10152 119.87166 470.92143 108.09766 471.03711 z "
         transform="matrix(0.91835545,0,0,0.91835545,39.069827,46.144169)"
         id="path3644" />
    </g>
  </g>
</svg>
