<?xml version="1.0" encoding="UTF-8" standalone="no"?>
<!-- Created with Inkscape (http://www.inkscape.org/) -->

<svg
   xmlns:dc="http://purl.org/dc/elements/1.1/"
   xmlns:cc="http://creativecommons.org/ns#"
   xmlns:rdf="http://www.w3.org/1999/02/22-rdf-syntax-ns#"
   xmlns:svg="http://www.w3.org/2000/svg"
   xmlns="http://www.w3.org/2000/svg"
   xmlns:sodipodi="http://sodipodi.sourceforge.net/DTD/sodipodi-0.dtd"
   xmlns:inkscape="http://www.inkscape.org/namespaces/inkscape"
   version="1.0"
   width="580"
   height="580"
   id="svg2"
   sodipodi:version="0.32"
   inkscape:version="0.91 r13725"
   sodipodi:docname="rental_bicycle.svg"
   inkscape:output_extension="org.inkscape.output.svg.inkscape">
  <defs
     id="defs22">
    <inkscape:perspective
       sodipodi:type="inkscape:persp3d"
       inkscape:vp_x="0 : 290 : 1"
       inkscape:vp_y="0 : 1000 : 0"
       inkscape:vp_z="580 : 290 : 1"
       inkscape:persp3d-origin="290 : 193.33333 : 1"
       id="perspective24" />
  </defs>
  <metadata
     id="metadata10">
    <rdf:RDF>
      <cc:Work
         rdf:about="">
        <dc:format>image/svg+xml</dc:format>
        <dc:type
           rdf:resource="http://purl.org/dc/dcmitype/StillImage" />
        <cc:license
           rdf:resource="http://web.resource.org/cc/PublicDomain" />
        <dc:language>en</dc:language>
      </cc:Work>
    </rdf:RDF>
  </metadata>
  <sodipodi:namedview
     inkscape:window-height="972"
     inkscape:window-width="1280"
     inkscape:pageshadow="2"
     inkscape:pageopacity="0.0"
     guidetolerance="10.0"
     gridtolerance="10.0"
     objecttolerance="10.0"
     borderopacity="1.0"
     bordercolor="#666666"
     pagecolor="#ffffff"
     id="base"
     showgrid="false"
     inkscape:zoom="1"
     inkscape:cx="322.17542"
     inkscape:cy="251.95294"
     inkscape:window-x="-8"
     inkscape:window-y="-8"
     inkscape:current-layer="svg2"
     inkscape:window-maximized="1" />
  <path
     style="color:#000000;font-style:normal;font-variant:normal;font-weight:normal;font-stretch:normal;font-size:12px;line-height:normal;font-family:sans-serif;text-indent:0;text-align:start;text-decoration:none;text-decoration-line:none;text-decoration-style:solid;text-decoration-color:#000000;letter-spacing:normal;word-spacing:normal;text-transform:none;direction:ltr;block-progression:tb;writing-mode:lr-tb;baseline-shift:baseline;text-anchor:start;white-space:normal;clip-rule:nonzero;display:inline;overflow:visible;visibility:visible;opacity:1;isolation:auto;mix-blend-mode:normal;color-interpolation:sRGB;color-interpolation-filters:linearRGB;solid-color:#000000;solid-opacity:1;fill:#000080;fill-opacity:1;fill-rule:evenodd;stroke:none;stroke-width:26;stroke-linecap:butt;stroke-linejoin:miter;stroke-miterlimit:4;stroke-dasharray:none;stroke-dashoffset:0;stroke-opacity:1;color-rendering:auto;image-rendering:auto;shape-rendering:auto;text-rendering:auto;enable-background:accumulate"
     d="M 198.94531,49.648438 C 197.8797,49.636018 196.81326,49.644882 195.74609,49.675781 145.56845,49.400118 104.33937,100.54461 114.93945,149.56445 121.97775,190.29289 160.83415,223.3617 203.06055,219.26953 230.55964,217.53712 255.89957,201.57571 270.13477,178.32227 273.95313,175.66841 279.12204,175.92446 286.24805,176.56641 293.66948,177.23496 303.27983,178.13601 311.10352,171.4082 311.23862,171.29249 311.36831,171.17062 311.49219,171.04297 319.47389,162.78385 325.43302,153.96268 333.11914,150.39062 335.36034,151.42691 337.45207,153.08565 339.82227,155.65625 342.7111,158.78935 345.82726,162.86415 350.73047,165.84961 352.62019,167.00011 355.00043,166.97282 356.86328,165.7793 361.92973,162.53334 364.98215,158.07775 367.90234,155.02734 370.24225,152.5831 371.98482,151.22393 374.10156,150.76953 379.107,154.44425 383.55871,161.0822 391.22656,166.19336 393.13806,167.46715 395.62189,167.49014 397.55664,166.25195 402.76546,162.91921 405.9566,158.30569 409.0332,155.0957 411.54618,152.47377 413.46887,151.00018 415.77734,150.52539 417.94531,152.06442 420.11668,154.21141 422.61133,156.87891 425.58127,160.05462 429.05906,163.77353 434.25977,166.00781 436.33613,166.89953 438.74157,166.50142 440.41992,164.98828 451.15659,155.30466 462.39399,145.08914 471.75195,133.06055 472.54799,132.03678 472.97718,130.77534 472.9707,129.47852 472.9414,123.61906 469.15262,119.71391 466.1875,117.04297 463.22238,114.37202 460.53858,112.19146 459.68555,110.89258 459.40295,110.46141 459.06401,110.06993 458.67773,109.72852 455.76138,107.1547 452.36458,102.55677 447.83984,98.517578 443.42109,94.572989 436.89022,91.103112 429.32617,92.498047 429.39558,92.492631 429.46579,92.489912 429.53516,92.484375 L 428.7832,92.59375 C 428.96578,92.554624 429.14477,92.531501 429.32617,92.498047 414.67089,93.64155 399.04728,92.090238 383,92.71875 383.02669,92.718761 383.05339,92.718738 383.08008,92.71875 L 382.84766,92.722656 C 382.89862,92.720616 382.94905,92.720746 383,92.71875 345.80749,92.703793 308.519,93.551173 271.85547,91.855469 263.82993,84.060074 257.89397,70.75016 243.85938,63.589844 230.66358,54.856597 214.92953,49.834723 198.94531,49.648438 Z M 164.8796,112.66707 C 181.55052,112.65695 192.42325,138.4605 180.02734,150.23438 179.92402,150.33223 179.82435,150.43386 179.72852,150.53906 169.61987,161.66371 146.49913,158.02663 142.26367,143.15234 142.23075,143.03731 142.19428,142.92332 142.1543,142.81055 137.55141,129.76928 148.20868,112.6772 164.8796,112.66707 Z M 351.95508,240.62695 352.04883,265.02344 390.24609,265.09961 C 394.80416,265.1089 397.16705,271.51725 388.25781,274.00977 384.35467,275.09035 380.0078,279.74044 378.55273,285.5 377.09766,291.25959 378.18399,297.00299 380.3125,302.32422 380.79732,303.53629 381.78564,307.38223 383.16797,312.57031 L 209.75391,313.44727 199.51172,288.375 C 210.5225,285.87121 237.50341,279.46869 241.27734,275.87695 245.63957,271.90402 241.2782,265.92578 237.89844,265.92578 L 147.39648,265.92578 C 148.51527,285.90414 164.16348,290.22481 172.625,291.53516 L 182.63281,316.0332 C 181.53791,316.93031 180.62838,318.03224 179.95508,319.27734 L 149.60938,375.63477 C 138.63238,371.20664 126.65755,368.76172 114.13086,368.76172 61.630869,368.76172 18.78125,411.6133 18.78125,464.11328 18.78125,516.61327 61.630869,559.46484 114.13086,559.46484 163.49477,559.46484 204.32322,521.57876 209.02539,473.41016 L 231.83008,473.41016 C 234.40329,478.08149 238.61489,481.92838 243.79492,484.36523 L 234.23633,506.61523 217.09375,506.77148 C 213.41976,506.80492 210.46851,509.81038 210.50195,513.48437 210.53539,517.15836 213.54085,520.10961 217.21484,520.07617 L 255.69727,519.72266 C 259.41585,519.75247 262.43678,516.72823 262.40293,513.00969 262.36908,509.29116 259.29359,506.32242 255.57617,506.41992 L 244.64258,506.51953 253.03125,486.99219 C 254.24118,487.13628 255.47354,487.21875 256.72656,487.21875 271.95093,487.21875 284.39062,476.23194 284.39062,462.78516 284.39062,461.09109 284.19198,459.43687 283.81641,457.83789 L 402.00781,377.63867 C 403.03735,381.20594 404.05738,384.73903 405.05273,388.19141 383.27803,405.69494 369.29297,432.53043 369.29297,462.51953 369.29297,515.01951 412.14063,557.87109 464.64062,557.87109 517.14062,557.87109 559.99219,515.01951 559.99219,462.51953 559.99219,410.01955 517.14062,367.16992 464.64062,367.16992 451.7571,367.16992 439.45696,369.75548 428.22656,374.42578 427.08072,370.46233 426.16482,367.32052 424.99219,363.26758 420.57151,347.98845 416.06809,332.4772 412.27539,319.80273 408.53901,307.31637 405.08213,299.62731 403.94922,294.09375 403.06627,289.78117 408.52831,290.1509 414.28516,285.35352 418.63268,281.7306 422.32077,275.60997 423.44922,269.38086 424.3899,263.90279 423.22531,258.39982 420.67773,253.89258 411.82732,240.37176 403.19302,240.62695 391.76953,240.62695 376.74848,240.62695 351.95532,240.62642 351.95508,240.62695 Z M 389.37109,334.32031 C 391.3631,341.04415 393.43792,348.10717 395.63086,355.64258 L 303.14258,418.40234 C 308.14339,414.46069 305.28265,406.4218 298.91602,406.52539 L 260.43359,406.87891 C 256.70953,406.84189 253.68042,409.86891 253.71487,413.59299 253.74932,417.31707 256.8339,420.28754 260.55664,420.18164 L 271.41406,420.08203 263.26562,439.04883 C 262.48969,438.88129 261.69769,438.75154 260.89844,438.64258 L 218.63477,335.18555 Z M 192.90234,341.17383 235.99805,446.66797 C 234.49648,448.17289 233.19044,449.8327 232.13867,451.62891 L 208.66016,451.62891 C 205.09384,424.58755 190.11283,401.04959 168.74414,386.04102 Z M 464.64062,394.29883 C 502.47872,394.29883 532.86328,424.68143 532.86328,462.51953 532.86328,500.35762 502.47872,530.74219 464.64062,530.74219 426.80253,530.74219 396.42188,500.35762 396.42188,462.51953 396.42188,445.10132 402.87201,429.27388 413.51172,417.25195 414.61942,420.98855 415.77428,424.89583 416.61133,427.63672 417.81767,431.58693 418.42953,433.79848 419.44922,436.30859 L 419.87305,437.35352 420.49219,438.29883 C 420.93521,439.00764 425.28867,451.25766 437.05664,461.35156 L 437.1543,461.41797 437.2207,461.51562 C 445.67807,468.52047 452.97069,471.03153 457.57812,472.49414 462.4305,473.98602 469.07045,473.22111 472.28516,468.23438 474.83601,464.57529 472.59029,457.17117 467.75977,453.66211 465.85796,452.33285 460.37692,447.98024 453.64648,442.08984 447.64371,436.73052 447.15695,432.62869 443.57812,426.33203 443.66962,426.53554 442.67892,423.68071 441.55664,420.00586 440.40475,416.23406 438.90506,411.19731 437.1875,405.33203 436.80311,404.01933 436.22816,402.0166 435.82227,400.625 444.56645,396.57141 454.32256,394.29883 464.64062,394.29883 Z M 114.13086,395.89258 C 122.03915,395.89258 129.61445,397.23459 136.66211,399.67969 L 105.60547,457.35547 C 101.69992,464.61091 106.95354,473.40796 115.19336,473.41016 L 181.71289,473.41016 C 177.21165,506.80413 148.81151,532.33398 114.13086,532.33398 76.292764,532.33398 45.912109,501.95137 45.912109,464.11328 45.912109,426.27519 76.292764,395.89258 114.13086,395.89258 Z M 155.82617,410.0332 C 168.85899,420.07386 178.11231,434.734 181.20508,451.62891 L 133.42773,451.62891 Z M 302.35742,418.93555 274.00586,438.17383 281.81836,419.98828 299.03906,419.83008 C 300.20444,419.82769 301.34874,419.51922 302.35742,418.93555 Z"
     id="path596"
     inkscape:connector-curvature="0"
     sodipodi:nodetypes="sccccscccsccscccscscccssccsccccccccccsccccccccccssccccscccccssscccccsccscccsscccsssscssssccsccccccsccccccccccccsssscscccccccccccsscssccccsssccccccccc" />
</svg>
