<?xml version="1.0" encoding="UTF-8" standalone="no"?>
<svg
   xmlns:dc="http://purl.org/dc/elements/1.1/"
   xmlns:cc="http://creativecommons.org/ns#"
   xmlns:rdf="http://www.w3.org/1999/02/22-rdf-syntax-ns#"
   xmlns:svg="http://www.w3.org/2000/svg"
   xmlns="http://www.w3.org/2000/svg"
   id="svg2"
   height="580"
   width="580"
   version="1.0">
  <metadata
     id="metadata2975">
    <rdf:RDF>
      <cc:Work
         rdf:about="">
        <dc:format>image/svg+xml</dc:format>
        <dc:type
           rdf:resource="http://purl.org/dc/dcmitype/StillImage" />
        <cc:license
           rdf:resource="http://web.resource.org/cc/PublicDomain" />
        <dc:language>en</dc:language>
        <dc:title></dc:title>
      </cc:Work>
    </rdf:RDF>
  </metadata>
  <defs
     id="defs4" />
  <g
     transform="matrix(48.14969,0,0,48.14969,-536.27327,-33.306752)"
     style="display:none;stroke:#757575;stroke-opacity:1"
     id="layer3">
    <rect
       y="1"
       x="1"
       height="10"
       width="10"
       id="rect4134"
       style="fill:none;stroke:#757575;stroke-width:0.10000000000000001;stroke-miterlimit:4;stroke-dasharray:none;stroke-opacity:1;display:inline" />
    <rect
       y="2"
       x="2"
       height="8"
       width="8"
       id="rect4136"
       style="fill:none;stroke:#757575;stroke-width:0.10000000000000001;stroke-miterlimit:4;stroke-dasharray:none;stroke-opacity:1;display:inline" />
  </g>
  <g
     style="fill:none;fill-opacity:1;stroke:#ffffff;stroke-opacity:1;stroke-width:20;stroke-miterlimit:4;stroke-dasharray:none;stroke-linejoin:round"
     transform="translate(68.799779,58.552307)"
     id="g1970">
    <path
       id="path1972"
       d="M 221.01367,-16.076172 C 191.63191,-16.371783 171.0446,13.335706 176.90625,40.693359 176.73731,81.072622 177.24493,117.86016 176.56641,157.68945 163.35138,167.45472 146.02776,174.2527 129.9375,186.52344 L 130.70703,185.99219 C 83.95422,215.17947 35.357572,242.48218 -11.046875,273.63672 -20.179134,282.47979 -20.683098,300.02074 -20.373047,310.875 -18.344477,320.21452 -21.348292,333.99255 -19.884766,341.91016 -18.10115,351.23078 -10.533803,357.4951 -2.9375,359.60352 3.8433009,361.48558 11.256398,360.7327 17.673828,356.84961 71.895054,340.05756 124.99594,320.89822 178.65039,304.58789 178.80895,322.59399 179.3379,340.37467 178.81641,357.76367 L 178.83789,357.33984 C 178.32404,364.43985 178.65771,370.23462 178.19141,373.82227 173.0528,378.91923 165.93948,383.5654 158.28711,389.05664 149.7834,395.15879 140.52194,402.70079 135.28125,414.63477 130.94012,427.81121 133.90668,442.77356 133.26953,455.1582 135.43096,472.72781 152.21314,483.55725 166.31836,477.32227 L 165.09375,477.80273 C 181.85688,472.46568 199.3281,467.83792 216.64062,461.52148 L 216.64648,461.51953 C 222.59434,459.35565 229.42234,460.03516 236.0332,462.93164 236.39021,463.0883 236.75607,463.22395 237.12891,463.33789 254.973,468.78124 274.79806,478.53706 297.82617,478.21875 306.99529,477.24985 313.85322,466.18605 315.10742,458.47266 314.59928,445.80618 316.70063,431.63879 314.7832,420.60156 313.24065,412.16875 308.87072,402.99399 300.06055,397.33594 L 300.92773,397.96094 C 289.99426,389.15636 278.98083,381.67689 269.69531,373.33398 269.12041,350.21529 268.61542,326.65174 269.4375,304.25781 288.07933,310.28526 306.66315,315.80734 324.58594,322.16602 324.65727,322.19157 324.72889,322.21631 324.80078,322.24023 364.3664,335.2704 404.06604,349.77407 445.28516,360.25391 446.63338,360.59683 448.03831,360.6547 449.41016,360.42383 458.48213,358.89646 464.67283,351.55758 466.98047,344.61328 468.88671,322.14088 470.43992,291.87877 461.70117,277.04688 461.01414,275.94761 460.11994,274.99239 459.06836,274.23438 423.8498,248.83105 385.60795,229.80325 350.65625,207.28711 350.56666,207.22968 350.47615,207.17368 350.38477,207.11914 323.03977,190.71203 295.72702,174.25702 268.44336,157.75391 266.01646,110.84456 269.17157,20.627405 265.02344,13.035156 264.88461,12.190024 264.6378,11.366226 264.28906,10.583984 256.73662,-6.3572627 239.252,-16.728895 221.01367,-16.076172 Z M 221.57422,3.8984375 C 231.09044,3.4995309 241.21213,9.399562 245.49414,17.777344 250.87171,28.311315 245.66271,80.479306 247.10348,162.81294 247.59898,165.66201 251.47343,170.86958 253.94727,172.36719 282.63054,189.7249 311.34994,207.02196 340.0957,224.26953 L 339.82422,224.09961 C 375.32787,246.97132 412.44945,265.6292 445.4375,289.11523 446.02543,299.31182 450.86246,329.09031 448.00195,338.30664 447.68009,339.2752 447.4909,339.72805 447.27148,340.05078 408.37414,329.95627 370.04016,316.0826 331.05664,303.24414 L 331.27344,303.31836 C 308.37056,295.19284 285.36029,288.85765 263.25,281.26172 257.01429,279.1201 250.44878,283.49291 250.02148,290.07227 248.15701,318.81086 249.07326,349.30281 249.78516,378.15234 249.84954,380.78154 250.94698,383.27957 252.83984,385.10547 264.48416,396.3333 277.35846,404.65974 288.38477,413.53906 292.35034,416.30177 294.43415,420.66776 295.10938,424.19922 293.67998,433.54375 296.53221,446.42764 295.31836,455.58008 294.92505,463.92986 247.09031,445.48481 242.96484,444.20898 L 244.05859,444.61328 C 233.79827,440.11784 221.55429,438.44699 209.79688,442.72852 L 209.79102,442.73047 C 193.61388,448.63303 176.4118,453.21122 159.02734,458.74609 156.27512,460.06684 153.75898,457.08511 153.26367,454.86523 153.87722,442.01604 152.34407,430.86597 154.07812,421.82617 157.15363,415.48585 162.61834,410.56578 169.94727,405.30664 177.61622,399.8035 187.01335,394.24974 194.87109,385.43555 200.45663,377.9901 198.28745,367.34451 198.78711,358.78516 198.79727,358.64405 198.80443,358.50274 198.80859,358.36133 199.49524,335.4654 198.29544,313.07573 198.53125,291.16992 198.60244,284.45023 192.15835,279.57397 185.71094,281.46875 126.58843,298.85127 69.077425,320.0329 10.970703,337.99805 7.4383656,339.69 2.3379365,341.52418 0.04296875,338.70117 0.96100229,328.41852 -0.10667189,318.7888 -0.3828125,310.23047 -0.65171777,301.89638 -0.0625311,294.883 2.5605469,288.65039 47.374755,258.74534 94.860342,231.94882 141.29688,202.95898 141.56153,202.79399 141.81832,202.61671 142.06641,202.42773 156.31004,191.56527 175.77352,184.68929 192.94727,170.32617 195.16614,168.46997 196.47254,165.7439 196.5293,162.85156 L 196.59961,37.386719 C 192.92312,22.87691 205.82,3.6382082 220.98047,3.9042969 221.1784,3.9082208 221.3764,3.9062668 221.57422,3.8984375 Z"
       style="color:#000000;font-style:normal;font-variant:normal;font-weight:normal;font-stretch:normal;font-size:medium;line-height:normal;font-family:sans-serif;text-indent:0;text-align:start;text-decoration:none;text-decoration-line:none;text-decoration-style:solid;text-decoration-color:#000000;letter-spacing:normal;word-spacing:normal;text-transform:none;direction:ltr;block-progression:tb;writing-mode:lr-tb;baseline-shift:baseline;text-anchor:start;white-space:normal;clip-rule:nonzero;display:inline;overflow:visible;visibility:visible;opacity:1;isolation:auto;mix-blend-mode:normal;color-interpolation:sRGB;color-interpolation-filters:linearRGB;solid-color:#000000;solid-opacity:1;fill:#000080;fill-opacity:1;fill-rule:nonzero;stroke:none;stroke-width:20;stroke-linecap:butt;stroke-linejoin:round;stroke-miterlimit:4;stroke-dasharray:none;stroke-dashoffset:0;stroke-opacity:1;color-rendering:auto;image-rendering:auto;shape-rendering:auto;text-rendering:auto;enable-background:accumulate" />
  </g>
</svg>
