<?xml version="1.0" encoding="UTF-8" standalone="no"?>
<!-- Created with Inkscape (http://www.inkscape.org/) -->

<svg
   xmlns:dc="http://purl.org/dc/elements/1.1/"
   xmlns:cc="http://creativecommons.org/ns#"
   xmlns:rdf="http://www.w3.org/1999/02/22-rdf-syntax-ns#"
   xmlns:svg="http://www.w3.org/2000/svg"
   xmlns="http://www.w3.org/2000/svg"
   xmlns:sodipodi="http://sodipodi.sourceforge.net/DTD/sodipodi-0.dtd"
   xmlns:inkscape="http://www.inkscape.org/namespaces/inkscape"
   version="1.0"
   width="580"
   height="580"
   id="svg2"
   sodipodi:version="0.32"
   inkscape:version="0.91 r13725"
   sodipodi:docname="rental_car.svg"
   inkscape:output_extension="org.inkscape.output.svg.inkscape">
  <defs
     id="defs22">
    <inkscape:perspective
       sodipodi:type="inkscape:persp3d"
       inkscape:vp_x="0 : 290 : 1"
       inkscape:vp_y="0 : 1000 : 0"
       inkscape:vp_z="580 : 290 : 1"
       inkscape:persp3d-origin="290 : 193.33333 : 1"
       id="perspective24" />
  </defs>
  <metadata
     id="metadata10">
    <rdf:RDF>
      <cc:Work
         rdf:about="">
        <dc:format>image/svg+xml</dc:format>
        <dc:type
           rdf:resource="http://purl.org/dc/dcmitype/StillImage" />
        <cc:license
           rdf:resource="http://web.resource.org/cc/PublicDomain" />
        <dc:language>en</dc:language>
      </cc:Work>
    </rdf:RDF>
  </metadata>
  <sodipodi:namedview
     inkscape:window-height="972"
     inkscape:window-width="1280"
     inkscape:pageshadow="2"
     inkscape:pageopacity="0.0"
     guidetolerance="10.0"
     gridtolerance="10.0"
     objecttolerance="10.0"
     borderopacity="1.0"
     bordercolor="#666666"
     pagecolor="#ffffff"
     id="base"
     showgrid="false"
     inkscape:zoom="0.70710678"
     inkscape:cx="417.27182"
     inkscape:cy="415.25176"
     inkscape:window-x="-8"
     inkscape:window-y="-8"
     inkscape:current-layer="svg2"
     inkscape:window-maximized="1" />
  <path
     style="color:#000000;font-style:normal;font-variant:normal;font-weight:normal;font-stretch:normal;font-size:medium;line-height:normal;font-family:sans-serif;text-indent:0;text-align:start;text-decoration:none;text-decoration-line:none;text-decoration-style:solid;text-decoration-color:#000000;letter-spacing:normal;word-spacing:normal;text-transform:none;direction:ltr;block-progression:tb;writing-mode:lr-tb;baseline-shift:baseline;text-anchor:start;white-space:normal;clip-rule:nonzero;display:inline;overflow:visible;visibility:visible;opacity:1;isolation:auto;mix-blend-mode:normal;color-interpolation:sRGB;color-interpolation-filters:linearRGB;solid-color:#000000;solid-opacity:1;fill:#000080;fill-opacity:1;fill-rule:nonzero;stroke:none;stroke-width:11.57569408;stroke-linecap:round;stroke-linejoin:round;stroke-miterlimit:4;stroke-dasharray:none;stroke-dashoffset:0;stroke-opacity:1;color-rendering:auto;image-rendering:auto;shape-rendering:auto;text-rendering:auto;enable-background:accumulate"
     d="M 202.94531,39.648438 C 201.8797,39.636018 200.81326,39.644882 199.74609,39.675781 149.56845,39.400118 108.33937,90.544612 118.93945,139.56445 125.97775,180.29289 164.83415,213.3617 207.06055,209.26953 234.55964,207.53712 259.89957,191.57571 274.13477,168.32227 277.95313,165.66841 283.12204,165.92446 290.24805,166.56641 297.66948,167.23496 307.27983,168.13601 315.10352,161.4082 315.23862,161.29249 315.36831,161.17062 315.49219,161.04297 323.47389,152.78385 329.43302,143.96268 337.11914,140.39062 339.36034,141.42691 341.45207,143.08565 343.82227,145.65625 346.7111,148.78935 349.82726,152.86415 354.73047,155.84961 356.62019,157.00011 359.00043,156.97282 360.86328,155.7793 365.92973,152.53334 368.98215,148.07775 371.90234,145.02734 374.24225,142.5831 375.98482,141.22393 378.10156,140.76953 383.107,144.44425 387.55871,151.0822 395.22656,156.19336 397.13806,157.46715 399.62189,157.49014 401.55664,156.25195 406.76546,152.91921 409.9566,148.30569 413.0332,145.0957 415.54618,142.47377 417.46887,141.00018 419.77734,140.52539 421.94531,142.06442 424.11668,144.21141 426.61133,146.87891 429.58127,150.05462 433.05906,153.77353 438.25977,156.00781 440.33613,156.89953 442.74157,156.50142 444.41992,154.98828 455.15659,145.30466 466.39399,135.08914 475.75195,123.06055 476.54799,122.03678 476.97718,120.77534 476.9707,119.47852 476.9414,113.61906 473.15262,109.71391 470.1875,107.04297 467.22238,104.37202 464.53858,102.19146 463.68555,100.89258 463.40295,100.46141 463.06401,100.06993 462.67773,99.728516 459.76138,97.154698 456.36458,92.556768 451.83984,88.517578 447.42109,84.572989 440.89022,81.103112 433.32617,82.498047 418.67089,83.64155 403.04728,82.090238 387,82.71875 349.80749,82.703793 312.519,83.551173 275.85547,81.855469 267.82993,74.060074 261.89397,60.75016 247.85938,53.589844 234.66358,44.856597 218.92953,39.834723 202.94531,39.648438 Z M 166.37695,102.97266 C 166.83399,102.98219 167.29386,103.0102 167.75781,103.05664 167.99729,103.08007 168.23799,103.08855 168.47852,103.08203 185.55052,102.65694 196.42325,128.4605 184.02734,140.23438 183.92402,140.33223 183.82435,140.43386 183.72852,140.53906 173.61987,151.66371 150.49913,148.02663 146.26367,133.15234 146.23075,133.03731 146.19428,132.92332 146.1543,132.81055 141.55141,119.76928 152.20868,102.6772 166.37695,102.97266 Z M 215.57031,239.19336 C 191.79563,239.19336 179.18376,252.17234 173.36133,267.36523 L 142.45312,347.16992 C 130.20096,348.74098 108.48242,363.12442 108.48242,390.36914 L 108.48242,491.85352 138.56445,491.85352 138.56445,524.31055 C 138.56445,564.24075 195.0742,563.77048 195.07422,524.31055 L 195.07422,491.85352 296.72656,491.85352 296.75781,491.85352 398.41016,491.85352 398.41016,524.31055 C 398.41016,563.77048 454.9196,564.24075 454.91992,524.31055 L 454.91992,491.85352 485.00195,491.85352 485.00195,390.36914 C 485.00195,363.12444 463.28363,348.74098 451.03125,347.16992 L 420.08984,267.36523 C 414.26743,252.17234 401.65572,239.19336 377.88086,239.19336 L 334.18945,239.19336 259.78906,239.19336 Z M 215.20703,268.25586 296.66016,268.25586 296.72656,268.25586 296.75781,268.25586 378.24414,268.25586 C 388.43281,268.35074 392.79583,274.72274 395.70703,283.54492 L 419.00391,346.34766 296.75781,346.34766 296.72656,346.34766 296.66016,346.34766 174.44727,346.34766 197.74414,283.54492 C 200.65537,274.72274 205.01729,268.35074 215.20703,268.25586 Z M 167.72656,376.89062 C 182.14287,376.89062 193.82227,388.92013 193.82227,403.7793 193.82227,418.63847 182.14287,430.69922 167.72656,430.69922 153.31024,430.69922 141.62891,418.63845 141.62891,403.7793 141.62891,388.92015 153.31024,376.89062 167.72656,376.89062 Z M 425.75781,376.89062 C 440.17413,376.89062 451.85552,388.92015 451.85547,403.7793 451.85543,418.63845 440.17413,430.69922 425.75781,430.69922 411.34149,430.69922 399.62891,418.63847 399.62891,403.7793 399.62891,388.92013 411.34149,376.89062 425.75781,376.89062 Z"
     id="path2307"
     inkscape:connector-curvature="0"
     sodipodi:nodetypes="sccccscccsccscccscscccssccsccccssccccccssccsccssccccssccsccsccsccccccccccccczzzzzzzzzz" />
</svg>
