<?xml version="1.0" encoding="UTF-8" standalone="no"?>
<!-- Created with Inkscape (http://www.inkscape.org/) -->

<svg
   xmlns:dc="http://purl.org/dc/elements/1.1/"
   xmlns:cc="http://creativecommons.org/ns#"
   xmlns:rdf="http://www.w3.org/1999/02/22-rdf-syntax-ns#"
   xmlns:svg="http://www.w3.org/2000/svg"
   xmlns="http://www.w3.org/2000/svg"
   xmlns:sodipodi="http://sodipodi.sourceforge.net/DTD/sodipodi-0.dtd"
   xmlns:inkscape="http://www.inkscape.org/namespaces/inkscape"
   version="1.0"
   width="580"
   height="580"
   id="svg2"
   sodipodi:version="0.32"
   inkscape:version="0.91 r13725"
   sodipodi:docname="parking_bicycle.svg"
   inkscape:output_extension="org.inkscape.output.svg.inkscape">
  <defs
     id="defs22">
    <inkscape:perspective
       sodipodi:type="inkscape:persp3d"
       inkscape:vp_x="0 : 290 : 1"
       inkscape:vp_y="0 : 1000 : 0"
       inkscape:vp_z="580 : 290 : 1"
       inkscape:persp3d-origin="290 : 193.33333 : 1"
       id="perspective24" />
  </defs>
  <metadata
     id="metadata10">
    <rdf:RDF>
      <cc:Work
         rdf:about="">
        <dc:format>image/svg+xml</dc:format>
        <dc:type
           rdf:resource="http://purl.org/dc/dcmitype/StillImage" />
        <cc:license
           rdf:resource="http://web.resource.org/cc/PublicDomain" />
        <dc:language>en</dc:language>
      </cc:Work>
    </rdf:RDF>
  </metadata>
  <sodipodi:namedview
     inkscape:window-height="972"
     inkscape:window-width="1280"
     inkscape:pageshadow="2"
     inkscape:pageopacity="0.0"
     guidetolerance="10.0"
     gridtolerance="10.0"
     objecttolerance="10.0"
     borderopacity="1.0"
     bordercolor="#666666"
     pagecolor="#ffffff"
     id="base"
     showgrid="false"
     inkscape:zoom="1"
     inkscape:cx="434.04977"
     inkscape:cy="323.02466"
     inkscape:window-x="-8"
     inkscape:window-y="-8"
     inkscape:current-layer="svg2"
     inkscape:window-maximized="1" />
  <path
     style="color:#000000;font-style:normal;font-variant:normal;font-weight:normal;font-stretch:normal;font-size:12px;line-height:normal;font-family:sans-serif;text-indent:0;text-align:start;text-decoration:none;text-decoration-line:none;text-decoration-style:solid;text-decoration-color:#000000;letter-spacing:normal;word-spacing:normal;text-transform:none;direction:ltr;block-progression:tb;writing-mode:lr-tb;baseline-shift:baseline;text-anchor:start;white-space:normal;clip-rule:nonzero;display:inline;overflow:visible;visibility:visible;opacity:1;isolation:auto;mix-blend-mode:normal;color-interpolation:sRGB;color-interpolation-filters:linearRGB;solid-color:#000000;solid-opacity:1;fill:#000080;fill-opacity:1;fill-rule:evenodd;stroke:none;stroke-width:26;stroke-linecap:butt;stroke-linejoin:miter;stroke-miterlimit:4;stroke-dasharray:none;stroke-dashoffset:0;stroke-opacity:1;color-rendering:auto;image-rendering:auto;shape-rendering:auto;text-rendering:auto;enable-background:accumulate"
     d="M 49.755859 54.722656 L 49.755859 424.59766 L 98.703125 424.59766 L 98.703125 274.22461 L 193.56836 274.22461 C 245.87883 274.22476 282.04233 263.335 302.05859 241.55273 C 322.07427 219.77082 332.08171 193.15315 332.08203 161.69922 C 332.08171 143.36552 328.34013 126.54493 320.85547 111.23828 C 313.3702 95.932271 303.4874 84.031629 291.20898 75.537109 C 278.92999 67.043279 263.70849 61.281896 245.54297 58.253906 C 232.59122 55.899456 213.83653 54.723016 189.2793 54.722656 L 49.755859 54.722656 z M 98.703125 98.371094 L 193.31641 98.371094 C 215.51882 98.371414 230.74032 99.464091 238.98242 101.65039 C 251.7655 105.18293 262.06704 112.45771 269.88867 123.47461 C 277.70978 134.49211 281.62082 147.73862 281.62109 163.21289 C 281.62082 184.57474 274.97711 201.14213 261.68945 212.91602 C 248.40128 224.69034 225.94591 230.57637 194.32422 230.57617 L 98.703125 230.57617 L 98.703125 98.371094 z M 388.73828 296.61523 L 388.81055 315.73047 L 418.73828 315.79102 C 422.30968 315.7983 424.16233 320.82047 417.18164 322.77344 C 414.1234 323.62011 410.71626 327.26258 409.57617 331.77539 C 408.43607 336.28822 409.28928 340.78962 410.95703 344.95898 C 411.33692 345.90872 412.11023 348.92112 413.19336 352.98633 L 277.31836 353.67188 L 269.29297 334.02734 C 277.91949 332.06574 299.06045 327.0507 302.01758 324.23633 C 305.43553 321.1234 302.01729 316.4375 299.36914 316.4375 L 228.45898 316.4375 C 229.33556 332.0905 241.59452 335.47704 248.22461 336.50391 L 256.06641 355.69922 A 8.5342691 8.5342691 0 0 0 253.96875 358.24023 L 230.18359 402.41211 C 221.5834 398.94296 212.2089 397.01367 202.39453 397.01367 C 161.25906 397.01367 127.68555 430.58914 127.68555 471.72461 C 127.68555 512.86009 161.25906 546.43555 202.39453 546.43555 C 241.07185 546.43555 273.05677 516.75021 276.74219 479.00977 L 294.61523 479.00977 C 296.63156 482.67007 299.93542 485.68046 303.99414 487.58984 L 296.50195 505.02734 L 283.06836 505.15039 A 5.2125473 5.2125473 0 1 0 283.16406 515.57227 L 313.31641 515.29688 A 5.2125473 5.2125473 0 1 0 313.2207 504.87305 L 304.65234 504.95117 L 311.23242 489.63867 C 312.18027 489.75156 313.13948 489.83008 314.12109 489.83008 C 326.04989 489.83008 335.79883 481.21958 335.79883 470.68359 C 335.79883 469.35615 335.64398 468.05953 335.34961 466.80664 L 427.95703 403.9668 C 428.73809 406.66448 429.52706 409.38458 430.35156 412.24414 C 413.28837 425.95894 402.32227 446.9777 402.32227 470.47656 C 402.32227 511.61203 435.89578 545.1875 477.03125 545.1875 C 518.16672 545.1875 551.74023 511.61203 551.74023 470.47656 C 551.74023 429.34109 518.16672 395.76562 477.03125 395.76562 C 466.93632 395.76562 457.30161 397.79743 448.50195 401.45703 C 447.60359 398.34962 446.88423 395.88664 445.96484 392.70898 C 442.50109 380.73728 438.97171 368.5832 436 358.65234 C 433.07242 348.86886 430.36423 342.84354 429.47656 338.50781 C 428.78474 335.12876 433.06549 335.41907 437.57617 331.66016 C 440.9826 328.82149 443.87168 324.02719 444.75586 319.14648 C 445.49291 314.85423 444.58009 310.54134 442.58398 307.00977 C 435.64939 296.41576 428.88427 296.61523 419.93359 296.61523 C 408.1641 296.61523 388.73847 296.61482 388.73828 296.61523 z M 418.05273 370.02734 C 419.61344 375.29566 421.23895 380.8302 422.95703 386.73438 L 350.70703 435.76172 A 5.2127467 5.2127467 0 0 0 347.17969 426.60352 L 317.02734 426.87891 A 5.2127467 5.2127467 0 1 0 317.12305 437.30273 L 325.63086 437.22461 L 319.23828 452.10352 C 318.63467 451.97316 318.02224 451.86757 317.40039 451.7832 L 284.27734 370.70312 L 418.05273 370.02734 z M 264.11523 375.39844 L 297.88477 458.05859 C 296.7071 459.238 295.67982 460.53515 294.85547 461.94336 L 276.43945 461.94336 C 273.644 440.7587 261.91794 422.32524 245.17773 410.56641 L 264.11523 375.39844 z M 477.03125 417.02344 C 506.67865 417.02344 530.48438 440.82916 530.48438 470.47656 C 530.48438 500.12396 506.67865 523.92969 477.03125 523.92969 C 447.38385 523.92969 423.57812 500.12396 423.57812 470.47656 C 423.57812 456.82789 428.63304 444.42577 436.9707 435.00586 C 437.83868 437.93381 438.74254 440.99683 439.39844 443.14453 C 440.34365 446.23965 440.82213 447.97269 441.62109 449.93945 L 441.95312 450.75781 L 442.4375 451.49805 C 442.78462 452.05342 446.19738 461.65164 455.41797 469.56055 L 455.49414 469.61328 L 455.54492 469.68945 C 462.17155 475.17797 467.886 477.14696 471.49609 478.29297 C 475.29809 479.4619 480.5007 478.86236 483.01953 474.95508 C 485.0182 472.08807 483.25754 466.28462 479.47266 463.53516 C 477.98253 462.49364 473.68954 459.08407 468.41602 454.46875 C 463.71265 450.26955 463.33147 447.05473 460.52734 442.12109 C 460.59904 442.28055 459.82271 440.04539 458.94336 437.16602 C 458.04082 434.21069 456.86529 430.26361 455.51953 425.66797 C 455.21827 424.63917 454.76928 423.06916 454.45117 421.97852 C 461.3023 418.80265 468.94712 417.02344 477.03125 417.02344 z M 202.39453 418.27148 C 208.5904 418.27148 214.52524 419.32282 220.04688 421.23828 L 195.71289 466.42969 A 8.5342691 8.5342691 0 0 0 203.22656 479.00977 L 255.3457 479.00977 C 251.81885 505.17493 229.56794 525.17773 202.39453 525.17773 C 172.74713 525.17773 148.94141 501.372 148.94141 471.72461 C 148.94141 442.07722 172.74713 418.27148 202.39453 418.27148 z M 235.0625 429.35156 C 245.27453 437.21883 252.52611 448.70509 254.94922 461.94336 L 217.51367 461.94336 L 235.0625 429.35156 z M 349.71289 436.43555 L 327.66016 451.40039 L 333.7832 437.15039 L 347.27539 437.02734 A 5.2127467 5.2127467 0 0 0 349.71289 436.43555 z "
     id="path596" />
</svg>
