<?xml version="1.0" encoding="UTF-8" standalone="no"?>
<!-- Created with Inkscape (http://www.inkscape.org/) -->

<svg
   xmlns:dc="http://purl.org/dc/elements/1.1/"
   xmlns:cc="http://creativecommons.org/ns#"
   xmlns:rdf="http://www.w3.org/1999/02/22-rdf-syntax-ns#"
   xmlns:svg="http://www.w3.org/2000/svg"
   xmlns="http://www.w3.org/2000/svg"
   xmlns:sodipodi="http://sodipodi.sourceforge.net/DTD/sodipodi-0.dtd"
   xmlns:inkscape="http://www.inkscape.org/namespaces/inkscape"
   version="1.0"
   width="580"
   height="580"
   id="svg2"
   sodipodi:version="0.32"
   inkscape:version="0.91 r13725"
   sodipodi:docname="parking_disabled.svg"
   inkscape:output_extension="org.inkscape.output.svg.inkscape">
  <metadata
     id="metadata10">
    <rdf:RDF>
      <cc:Work
         rdf:about="">
        <dc:format>image/svg+xml</dc:format>
        <dc:type
           rdf:resource="http://purl.org/dc/dcmitype/StillImage" />
        <cc:license
           rdf:resource="http://web.resource.org/cc/PublicDomain" />
        <dc:language>en</dc:language>
      </cc:Work>
    </rdf:RDF>
  </metadata>
  <sodipodi:namedview
     inkscape:window-height="1003"
     inkscape:window-width="1400"
     inkscape:pageshadow="2"
     inkscape:pageopacity="0.0"
     guidetolerance="10.0"
     gridtolerance="10.0"
     objecttolerance="10.0"
     borderopacity="1.0"
     bordercolor="#666666"
     pagecolor="#ffffff"
     id="base"
     showgrid="false"
     inkscape:zoom="1"
     inkscape:cx="550.04475"
     inkscape:cy="188.00123"
     inkscape:window-x="0"
     inkscape:window-y="0"
     inkscape:current-layer="svg2"
     inkscape:window-maximized="0" />
  <defs
     id="defs4">
    <inkscape:perspective
       sodipodi:type="inkscape:persp3d"
       inkscape:vp_x="0 : 290 : 1"
       inkscape:vp_y="0 : 1000 : 0"
       inkscape:vp_z="580 : 290 : 1"
       inkscape:persp3d-origin="290 : 193.33333 : 1"
       id="perspective12" />
    <style
       type="text/css"
       id="style6">
   
    .fil0 {fill:#EF7900}
   
  </style>
    <inkscape:perspective
       id="perspective6807"
       inkscape:persp3d-origin="29.116032 : 19.410688 : 1"
       inkscape:vp_z="58.232063 : 29.116032 : 1"
       inkscape:vp_y="0 : 1000 : 0"
       inkscape:vp_x="0 : 29.116032 : 1"
       sodipodi:type="inkscape:persp3d" />
    <inkscape:perspective
       id="perspective6954"
       inkscape:persp3d-origin="290 : 193.33333 : 1"
       inkscape:vp_z="580 : 290 : 1"
       inkscape:vp_y="0 : 1000 : 0"
       inkscape:vp_x="0 : 290 : 1"
       sodipodi:type="inkscape:persp3d" />
    <inkscape:perspective
       id="perspective2541"
       inkscape:persp3d-origin="240 : 160 : 1"
       inkscape:vp_z="480 : 240 : 1"
       inkscape:vp_y="0 : 1000 : 0"
       inkscape:vp_x="0 : 240 : 1"
       sodipodi:type="inkscape:persp3d" />
  </defs>
  <path
     style="fill:#000080"
     d="M 51.169922 52.822266 L 51.169922 422.69727 L 100.11719 422.69727 L 100.11719 272.32617 L 194.98242 272.32617 C 247.29289 272.32632 283.4564 261.43461 303.47266 239.65234 C 323.48834 217.87043 333.49577 191.25276 333.49609 159.79883 C 333.49577 141.46513 329.75419 124.64454 322.26953 109.33789 C 314.78426 94.031876 304.90147 82.131239 292.62305 73.636719 C 280.34406 65.142889 265.12255 59.383459 246.95703 56.355469 C 234.00528 54.001019 215.25059 52.822626 190.69336 52.822266 L 51.169922 52.822266 z M 100.11719 96.470703 L 194.73047 96.470703 C 216.93288 96.471023 232.15438 97.5637 240.39648 99.75 C 253.17956 103.28254 263.4811 110.55732 271.30273 121.57422 C 279.12384 132.59172 283.03489 145.83823 283.03516 161.3125 C 283.03489 182.67435 276.39118 199.24173 263.10352 211.01562 C 249.81535 222.78994 227.35997 228.67793 195.73828 228.67773 L 100.11719 228.67773 L 100.11719 96.470703 z M 370.51758 260.02734 C 367.85835 260.08337 365.19086 260.58976 362.61719 261.61523 C 345.97942 266.33698 339.71362 288.31973 351.67578 300.47656 C 352.0296 340.88548 352.17883 381.29701 352.77148 421.70312 C 371.99577 421.70576 438.47871 419.37495 451.17383 422.16797 C 463.94757 447.58098 494.70019 510.08611 498.13086 515.46289 C 511.73697 510.95965 533.09098 500.7781 546.62109 496.06641 C 547.31962 496.64601 547.15938 477.18182 540.84961 477.70898 C 535.09094 478.06536 524.09148 486.34573 508.94141 488.11719 C 494.51891 459.87837 480.77324 431.08392 466.48633 402.68359 C 441.62566 402.66451 400.94381 402.7333 376.02344 402.61719 C 376.13592 401.82813 372.16365 392.57525 377.10156 381.53711 L 443.30469 381.53711 L 443.30469 360.45703 C 420.77554 360.15894 398.07743 361.44253 375.68359 359.70117 C 374.67501 343.73603 375.04253 327.6923 375.44141 311.70508 C 380.994 304.15713 397.44991 300.82594 396.72852 287.13672 C 398.99076 272.51544 384.8774 259.72482 370.51758 260.02734 z M 330.22266 362.35938 C 299.97375 376.89345 277.12744 406.84792 275.43555 439.94727 C 271.9446 469.14099 285.04365 498.6671 307.71484 517.78125 C 323.56883 531.5555 344.34896 540.14604 374.0625 543.34375 C 407.09788 545.54964 439.79291 530.0014 460.19922 505.21094 C 472.27205 497.10352 460.34642 478.7267 454.75195 474.38672 C 441.37079 495.51309 421.23271 514.0704 395.81055 520.25 C 361.9036 529.47577 323.89065 510.56296 308.86719 480.41406 C 294.6659 453.88063 299.58819 418.36377 322.05469 397.54297 C 325.23794 393.15683 333.93217 391.41518 332.65234 385.07031 C 331.79346 377.75708 335.02322 366.6599 330.22266 362.35938 z "
     id="path1631" />
</svg>
