<?xml version="1.0" encoding="UTF-8" standalone="no"?>
<svg
   xmlns:dc="http://purl.org/dc/elements/1.1/"
   xmlns:cc="http://creativecommons.org/ns#"
   xmlns:rdf="http://www.w3.org/1999/02/22-rdf-syntax-ns#"
   xmlns:svg="http://www.w3.org/2000/svg"
   xmlns="http://www.w3.org/2000/svg"
   id="svg2"
   height="580"
   width="580"
   version="1.0">
  <defs
     id="defs22" />
  <metadata
     id="metadata10">
    <rdf:RDF>
      <cc:Work
         rdf:about="">
        <dc:format>image/svg+xml</dc:format>
        <dc:type
           rdf:resource="http://purl.org/dc/dcmitype/StillImage" />
        <cc:license
           rdf:resource="http://web.resource.org/cc/PublicDomain" />
        <dc:language>en</dc:language>
        <dc:title></dc:title>
      </cc:Work>
    </rdf:RDF>
  </metadata>
  <g
     style="fill:#ffffff;fill-opacity:1"
     transform="matrix(0.37201227,0.48692872,-0.48692872,0.37201227,456.55732,-47.568442)"
     id="g1970">
    <path
       id="path1972"
       transform="matrix(0.99073101,-1.2967728,1.2967728,0.99073101,-390.64004,639.17863)"
       d="M 526.78516,54.292969 C 523.75627,54.343719 520.55953,55.389759 517.45117,57.755859 L 447.50391,111.19336 315.78906,59.978516 290.11914,79.589844 395.94531,152.06445 344.01562,191.73828 309.57617,182.93945 289.27344,198.45117 326.39453,224.78516 342.04492,267.52344 362.34766,252.01172 362.73438,216.23828 414.66406,176.56445 456.76172,297.70898 482.43164,278.09766 466.58008,136.16211 536.06055,83.078125 C 549.90124,72.525172 539.91034,54.07305 526.78516,54.292969 Z M 68.689453,225.14844 C 58.368531,225.14896 50.001598,233.51502 50,243.83594 L 50,524.16406 C 49.850682,534.5901 58.261375,543.12209 68.688477,543.12209 79.115578,543.12209 87.526271,534.5901 87.376953,524.16406 L 87.376953,262.52539 240.62305,262.52539 240.62305,524.16406 C 240.47367,534.59014 248.88438,543.1222 259.31153,543.1222 269.73867,543.1222 278.14938,534.59014 278,524.16406 L 278,243.83594 C 277.9984,233.51502 269.63147,225.14896 259.31055,225.14844 Z"
       style="fill:#000080;fill-opacity:1;stroke:none" />
  </g>
</svg>
