<?xml version="1.0" encoding="UTF-8" standalone="no"?>
<!-- Created with Inkscape (http://www.inkscape.org/) -->

<svg
   xmlns:dc="http://purl.org/dc/elements/1.1/"
   xmlns:cc="http://creativecommons.org/ns#"
   xmlns:rdf="http://www.w3.org/1999/02/22-rdf-syntax-ns#"
   xmlns:svg="http://www.w3.org/2000/svg"
   xmlns="http://www.w3.org/2000/svg"
   xmlns:sodipodi="http://sodipodi.sourceforge.net/DTD/sodipodi-0.dtd"
   xmlns:inkscape="http://www.inkscape.org/namespaces/inkscape"
   version="1.0"
   width="580"
   height="580"
   id="svg2"
   sodipodi:version="0.32"
   inkscape:version="0.91 r13725"
   sodipodi:docname="train_station2.svg"
   inkscape:output_extension="org.inkscape.output.svg.inkscape">
  <defs
     id="defs22">
    <inkscape:perspective
       sodipodi:type="inkscape:persp3d"
       inkscape:vp_x="0 : 290 : 1"
       inkscape:vp_y="0 : 1000 : 0"
       inkscape:vp_z="580 : 290 : 1"
       inkscape:persp3d-origin="290 : 193.33333 : 1"
       id="perspective24" />
    <marker
       viewBox="0 0 10 10"
       refY="5"
       refX="10"
       orient="auto"
       markerWidth="4"
       markerUnits="strokeWidth"
       markerHeight="3"
       id="ArrowStart">
      <path
         id="path3568"
         d="M 10 0 L 0 5 L 10 10 z" />
    </marker>
    <marker
       viewBox="0 0 10 10"
       refY="5"
       refX="0"
       orient="auto"
       markerWidth="4"
       markerUnits="strokeWidth"
       markerHeight="3"
       id="ArrowEnd">
      <path
         id="path3565"
         d="M 0 0 L 10 5 L 0 10 z" />
    </marker>
    <inkscape:perspective
       id="perspective2683"
       inkscape:persp3d-origin="306.082 : 204.39034 : 1"
       inkscape:vp_z="612.164 : 306.58551 : 1"
       inkscape:vp_y="0 : 1000 : 0"
       inkscape:vp_x="0 : 306.58551 : 1"
       sodipodi:type="inkscape:persp3d" />
  </defs>
  <metadata
     id="metadata10">
    <rdf:RDF>
      <cc:Work
         rdf:about="">
        <dc:format>image/svg+xml</dc:format>
        <dc:type
           rdf:resource="http://purl.org/dc/dcmitype/StillImage" />
        <cc:license
           rdf:resource="http://web.resource.org/cc/PublicDomain" />
        <dc:language>en</dc:language>
      </cc:Work>
    </rdf:RDF>
  </metadata>
  <sodipodi:namedview
     inkscape:window-height="1005"
     inkscape:window-width="1280"
     inkscape:pageshadow="2"
     inkscape:pageopacity="0.0"
     guidetolerance="10.0"
     gridtolerance="10.0"
     objecttolerance="10.0"
     borderopacity="1.0"
     bordercolor="#666666"
     pagecolor="#ffffff"
     id="base"
     showgrid="false"
     inkscape:zoom="0.70710678"
     inkscape:cx="396.05862"
     inkscape:cy="415.25176"
     inkscape:window-x="0"
     inkscape:window-y="0"
     inkscape:current-layer="svg2"
     inkscape:window-maximized="0" />
  <g
     id="g3574"
     transform="matrix(1.2317123,0,0,1.2317123,-81.360132,-113.23274)">
    <g
       id="g3576">
      <path
         style="fill:#000080;stroke:none"
         d="M 295.5625,77.1875 213.03125,77.25 C 174.59259,77.249989 146.3125,108.11801 146.3125,141.75 L 146.3125,379.96875 C 146.31253,412.55139 171.80358,439.27577 197.4375,443.40625 L 120.5625,558.71875 164.9375,558.71875 219.90625,478.125 295.1875,478.125 295.25,478.125 295.3125,478.125 370.59375,478.125 425.5625,558.71875 469.9375,558.71875 393.0625,443.40625 C 418.69638,439.27575 444.21875,412.55141 444.21875,379.96875 L 444.21875,141.75 C 444.21871,108.11804 415.90738,77.25 377.46875,77.25 Z M 262.875,91 295.1875,91 295.25,91 295.3125,91 327.625,91 C 333.47317,91 338.5625,95.90183 338.5625,101.75 L 338.5625,120.6875 C 338.5625,126.53567 333.75166,131.5625 327.625,131.5625 L 295.3125,131.5625 295.25,131.5625 295.1875,131.5625 262.875,131.5625 C 256.74835,131.5625 251.9375,126.53567 251.9375,120.6875 L 251.9375,101.75 C 251.9375,95.90183 257.02682,91.000003 262.875,91 Z M 215.25,144.40625 295.1875,144.40625 295.3125,144.40625 375.25,144.40625 C 396.97176,144.40626 408.50001,159.95825 408.5,177.78125 L 408.5,220.65625 C 408.66931,241.26409 393.62996,253.90625 375.25,253.90625 L 295.3125,253.90625 295.25,253.90625 295.1875,253.90625 215.25,253.90625 C 196.87003,253.90625 181.83068,241.26409 182,220.65625 L 182,177.78125 C 181.99999,159.95825 193.52822,144.40625 215.25,144.40625 Z M 211.625,350.15625 C 227.78266,350.15623 240.90625,363.24917 240.90625,379.40625 240.90625,395.56333 227.78268,408.65626 211.625,408.65625 195.46732,408.65624 182.37502,395.56337 182.375,379.40625 182.37498,363.24913 195.46734,350.15626 211.625,350.15625 Z M 378.1875,350.15625 C 394.34515,350.15624 407.43751,363.24915 407.4375,379.40625 407.43749,395.56335 394.34518,408.65626 378.1875,408.65625 362.02982,408.65623 348.93751,395.56336 348.9375,379.40625 348.93749,363.24914 362.02985,350.15626 378.1875,350.15625 Z"
         transform="matrix(0.8977168,0,0,0.8977168,40.710583,46.777129)"
         id="path3578"
         inkscape:connector-curvature="0"
         sodipodi:nodetypes="ccsscccccccccccssccscccsssscccsssssccsscscccscsszzzzzzzzzz" />
    </g>
    <g
       id="g3584" />
  </g>
</svg>
