<?xml version="1.0" encoding="UTF-8" standalone="no"?>
<!-- Created with Inkscape (http://www.inkscape.org/) -->

<svg
   xmlns:dc="http://purl.org/dc/elements/1.1/"
   xmlns:cc="http://creativecommons.org/ns#"
   xmlns:rdf="http://www.w3.org/1999/02/22-rdf-syntax-ns#"
   xmlns:svg="http://www.w3.org/2000/svg"
   xmlns="http://www.w3.org/2000/svg"
   xmlns:sodipodi="http://sodipodi.sourceforge.net/DTD/sodipodi-0.dtd"
   xmlns:inkscape="http://www.inkscape.org/namespaces/inkscape"
   version="1.0"
   width="580"
   height="580"
   id="svg2"
   sodipodi:version="0.32"
   inkscape:version="0.91 r13725"
   sodipodi:docname="taxi_rank.svg"
   inkscape:output_extension="org.inkscape.output.svg.inkscape">
  <defs
     id="defs22">
    <inkscape:perspective
       sodipodi:type="inkscape:persp3d"
       inkscape:vp_x="0 : 290 : 1"
       inkscape:vp_y="0 : 1000 : 0"
       inkscape:vp_z="580 : 290 : 1"
       inkscape:persp3d-origin="290 : 193.33333 : 1"
       id="perspective24" />
    <marker
       viewBox="0 0 10 10"
       refY="5"
       refX="10"
       orient="auto"
       markerWidth="4"
       markerUnits="strokeWidth"
       markerHeight="3"
       id="ArrowStart">
      <path
         id="path3568"
         d="M 10 0 L 0 5 L 10 10 z" />
    </marker>
    <marker
       viewBox="0 0 10 10"
       refY="5"
       refX="0"
       orient="auto"
       markerWidth="4"
       markerUnits="strokeWidth"
       markerHeight="3"
       id="ArrowEnd">
      <path
         id="path3565"
         d="M 0 0 L 10 5 L 0 10 z" />
    </marker>
    <inkscape:perspective
       id="perspective2683"
       inkscape:persp3d-origin="306.082 : 204.39034 : 1"
       inkscape:vp_z="612.164 : 306.58551 : 1"
       inkscape:vp_y="0 : 1000 : 0"
       inkscape:vp_x="0 : 306.58551 : 1"
       sodipodi:type="inkscape:persp3d" />
    <marker
       viewBox="0 0 10 10"
       refY="5"
       refX="10"
       orient="auto"
       markerWidth="4"
       markerUnits="strokeWidth"
       markerHeight="3"
       id="marker2959">
      <path
         id="path2626"
         d="M 10 0 L 0 5 L 10 10 z" />
    </marker>
    <marker
       viewBox="0 0 10 10"
       refY="5"
       refX="0"
       orient="auto"
       markerWidth="4"
       markerUnits="strokeWidth"
       markerHeight="3"
       id="marker2956">
      <path
         id="path2623"
         d="M 0 0 L 10 5 L 0 10 z" />
    </marker>
    <inkscape:perspective
       id="perspective2953"
       inkscape:persp3d-origin="306.082 : 204.39034 : 1"
       inkscape:vp_z="612.164 : 306.58551 : 1"
       inkscape:vp_y="0 : 1000 : 0"
       inkscape:vp_x="0 : 306.58551 : 1"
       sodipodi:type="inkscape:persp3d" />
    <marker
       viewBox="0 0 10 10"
       refY="5"
       refX="10"
       orient="auto"
       markerWidth="4"
       markerUnits="strokeWidth"
       markerHeight="3"
       id="marker3077">
      <path
         id="path3298"
         d="M 10 0 L 0 5 L 10 10 z" />
    </marker>
    <marker
       viewBox="0 0 10 10"
       refY="5"
       refX="0"
       orient="auto"
       markerWidth="4"
       markerUnits="strokeWidth"
       markerHeight="3"
       id="marker3074">
      <path
         id="path3295"
         d="M 0 0 L 10 5 L 0 10 z" />
    </marker>
    <inkscape:perspective
       id="perspective3071"
       inkscape:persp3d-origin="180.936 : 163.92867 : 1"
       inkscape:vp_z="361.87201 : 245.89301 : 1"
       inkscape:vp_y="0 : 1000 : 0"
       inkscape:vp_x="0 : 245.89301 : 1"
       sodipodi:type="inkscape:persp3d" />
    <marker
       viewBox="0 0 10 10"
       refY="5"
       refX="10"
       orient="auto"
       markerWidth="4"
       markerUnits="strokeWidth"
       markerHeight="3"
       id="marker3188">
      <path
         id="path3318"
         d="M 10 0 L 0 5 L 10 10 z" />
    </marker>
    <marker
       viewBox="0 0 10 10"
       refY="5"
       refX="0"
       orient="auto"
       markerWidth="4"
       markerUnits="strokeWidth"
       markerHeight="3"
       id="marker3185">
      <path
         id="path3315"
         d="M 0 0 L 10 5 L 0 10 z" />
    </marker>
    <inkscape:perspective
       id="perspective3182"
       inkscape:persp3d-origin="306.082 : 204.39034 : 1"
       inkscape:vp_z="612.164 : 306.58551 : 1"
       inkscape:vp_y="0 : 1000 : 0"
       inkscape:vp_x="0 : 306.58551 : 1"
       sodipodi:type="inkscape:persp3d" />
  </defs>
  <metadata
     id="metadata10">
    <rdf:RDF>
      <cc:Work
         rdf:about="">
        <dc:format>image/svg+xml</dc:format>
        <dc:type
           rdf:resource="http://purl.org/dc/dcmitype/StillImage" />
        <cc:license
           rdf:resource="http://web.resource.org/cc/PublicDomain" />
        <dc:language>en</dc:language>
      </cc:Work>
    </rdf:RDF>
  </metadata>
  <sodipodi:namedview
     inkscape:window-height="1005"
     inkscape:window-width="1280"
     inkscape:pageshadow="2"
     inkscape:pageopacity="0.0"
     guidetolerance="10.0"
     gridtolerance="10.0"
     objecttolerance="10.0"
     borderopacity="1.0"
     bordercolor="#666666"
     pagecolor="#ffffff"
     id="base"
     showgrid="false"
     inkscape:zoom="0.70710678"
     inkscape:cx="396.05862"
     inkscape:cy="415.25176"
     inkscape:window-x="0"
     inkscape:window-y="0"
     inkscape:current-layer="svg2"
     inkscape:window-maximized="0" />
  <g
     id="g3324"
     transform="translate(-12.51126,-134.23929)">
    <path
       style="fill:#000080;stroke:none"
       d="M 267.59375,26.625 C 260.09375,26.625 255.46876,30.937502 255.46875,39.4375 L 255.46875,60.6875 209.9375,60.6875 C 185.4375,60.6875 172.43751,73.9375 166.4375,89.4375 L 134.5625,170.84375 C 121.9365,172.44675 99.59375,187.11024 99.59375,214.90625 L 99.59375,318.46875 130.59375,318.46875 130.59375,351.5625 C 130.59375,392.2985 188.81249,391.81949 188.8125,351.5625 L 188.8125,318.46875 293.5625,318.46875 293.625,318.46875 398.34375,318.46875 398.34375,351.5625 C 398.34375,391.8195 456.59374,392.29849 456.59375,351.5625 L 456.59375,318.46875 487.5625,318.46875 487.5625,214.90625 C 487.5625,187.11025 465.1885,172.44675 452.5625,170.84375 L 420.6875,89.4375 C 414.6875,73.9375 401.68749,60.6875 377.1875,60.6875 L 332.1875,60.6875 332.1875,39.4375 C 332.1875,30.9375 327.5625,26.624997 320.0625,26.625 L 293.625,26.625 293.5625,26.625 Z M 209.5625,90.34375 293.5,90.34375 293.5625,90.34375 293.625,90.34375 377.5625,90.34375 C 388.06249,90.44075 392.5625,96.9375 395.5625,105.9375 L 419.5625,168.90625 293.625,168.90625 293.5625,168.90625 293.5,168.90625 167.5625,168.90625 191.5625,105.9375 C 194.5625,96.9375 199.0625,90.44075 209.5625,90.34375 Z M 160.625,200.28125 C 175.48099,200.28125 187.53125,212.55975 187.53125,227.71875 187.53125,242.87774 175.48101,255.1875 160.625,255.1875 145.76899,255.1875 133.71875,242.87775 133.71875,227.71875 133.71875,212.55975 145.769,200.28125 160.625,200.28125 Z M 426.5,200.28125 C 441.3555,200.28125 453.40625,212.55974 453.40625,227.71875 453.40625,242.87776 441.35551,255.1875 426.5,255.1875 411.64449,255.1875 399.62501,242.87775 399.625,227.71875 399.62499,212.55975 411.6445,200.28125 426.5,200.28125 Z M 104.96875,426.89648 104.96875,452.35156 137.45312,452.35156 137.45312,529.97656 169.30469,529.97656 169.30469,452.35156 201.78906,452.35156 201.78906,426.89648 Z M 244.60938,426.89648 205.86719,529.97656 238.42188,529.97656 243.41406,512.95898 279.69531,512.95898 284.75781,529.97656 318.08594,529.97656 353.45312,529.97656 373.84375,496.85938 394.16406,529.97656 429.95312,529.97656 394.86719,476.82031 426.92969,426.89648 392.19531,426.89648 374.47656,458.60938 356.19531,426.89648 321.10938,426.89648 353.45312,476.25781 318.00977,529.77344 279.34375,426.89648 Z M 441.41406,426.89648 441.41406,529.97656 473.33594,529.97656 473.33594,426.89648 Z M 261.625,453.61523 273.01562,490.67188 250.30469,490.67188 Z"
       transform="translate(12.51126,134.23929)"
       id="path3326"
       inkscape:connector-curvature="0"
       sodipodi:nodetypes="sscsccsccssccccssccsccscssccsccccccccccccczzzzzzzzzzccccccccccccccccccccccccccccccccccccccc" />
    <g
       id="g3328">
      <g
         id="g3332">
        <g
           id="g3334">
          <path
             id="path3338"
             style="fill:#000000;stroke:none"
             d="" />
        </g>
        <g
           id="g3340">
          <path
             id="path3344"
             style="fill:#000000;stroke:none"
             d="" />
        </g>
      </g>
    </g>
  </g>
</svg>
