<?xml version="1.0" encoding="UTF-8" standalone="no"?>
<!-- Created with Inkscape (http://www.inkscape.org/) -->

<svg
   xmlns:dc="http://purl.org/dc/elements/1.1/"
   xmlns:cc="http://creativecommons.org/ns#"
   xmlns:rdf="http://www.w3.org/1999/02/22-rdf-syntax-ns#"
   xmlns:svg="http://www.w3.org/2000/svg"
   xmlns="http://www.w3.org/2000/svg"
   xmlns:xlink="http://www.w3.org/1999/xlink"
   xmlns:sodipodi="http://sodipodi.sourceforge.net/DTD/sodipodi-0.dtd"
   xmlns:inkscape="http://www.inkscape.org/namespaces/inkscape"
   version="1.0"
   width="580"
   height="580"
   id="svg2"
   sodipodi:version="0.32"
   inkscape:version="0.91 r13725"
   sodipodi:docname="firestation3.svg"
   inkscape:output_extension="org.inkscape.output.svg.inkscape">
  <metadata
     id="metadata1976">
    <rdf:RDF>
      <cc:Work
         rdf:about="">
        <dc:format>image/svg+xml</dc:format>
        <dc:type
           rdf:resource="http://purl.org/dc/dcmitype/StillImage" />
        <cc:license
           rdf:resource="http://web.resource.org/cc/PublicDomain" />
        <dc:language>en</dc:language>
      </cc:Work>
    </rdf:RDF>
  </metadata>
  <sodipodi:namedview
     inkscape:window-height="972"
     inkscape:window-width="1280"
     inkscape:pageshadow="2"
     inkscape:pageopacity="0.0"
     guidetolerance="10.0"
     gridtolerance="10.0"
     objecttolerance="10.0"
     borderopacity="1.0"
     bordercolor="#666666"
     pagecolor="#ffffff"
     id="base"
     inkscape:zoom="1.1952453"
     inkscape:cx="176.0661"
     inkscape:cy="290.00963"
     inkscape:window-x="-8"
     inkscape:window-y="-8"
     inkscape:current-layer="svg2"
     showgrid="false"
     inkscape:window-maximized="1" />
  <defs
     id="defs4">
    <inkscape:perspective
       sodipodi:type="inkscape:persp3d"
       inkscape:vp_x="0 : 290 : 1"
       inkscape:vp_y="0 : 1000 : 0"
       inkscape:vp_z="580 : 290 : 1"
       inkscape:persp3d-origin="290 : 193.33333 : 1"
       id="perspective3653" />
    <marker
       viewBox="0 0 10 10"
       refY="5"
       refX="10"
       orient="auto"
       markerWidth="4"
       markerUnits="strokeWidth"
       markerHeight="3"
       id="ArrowStart">
      <path
         id="path2111"
         d="M 10 0 L 0 5 L 10 10 z" />
    </marker>
    <marker
       viewBox="0 0 10 10"
       refY="5"
       refX="0"
       orient="auto"
       markerWidth="4"
       markerUnits="strokeWidth"
       markerHeight="3"
       id="ArrowEnd">
      <path
         id="path2108"
         d="M 0 0 L 10 5 L 0 10 z" />
    </marker>
    <inkscape:perspective
       id="perspective2512"
       inkscape:persp3d-origin="177.51199 : 145.02 : 1"
       inkscape:vp_z="355.02399 : 217.53 : 1"
       inkscape:vp_y="0 : 1000 : 0"
       inkscape:vp_x="0 : 217.53 : 1"
       sodipodi:type="inkscape:persp3d" />
    <inkscape:perspective
       id="perspective3305"
       inkscape:persp3d-origin="372.04724 : 350.78739 : 1"
       inkscape:vp_z="744.09448 : 526.18109 : 1"
       inkscape:vp_y="0 : 1000 : 0"
       inkscape:vp_x="0 : 526.18109 : 1"
       sodipodi:type="inkscape:persp3d" />
    <inkscape:perspective
       id="perspective3354"
       inkscape:persp3d-origin="372.04724 : 350.78739 : 1"
       inkscape:vp_z="744.09448 : 526.18109 : 1"
       inkscape:vp_y="0 : 1000 : 0"
       inkscape:vp_x="0 : 526.18109 : 1"
       sodipodi:type="inkscape:persp3d" />
    <inkscape:perspective
       id="perspective3569"
       inkscape:persp3d-origin="372.04724 : 350.78739 : 1"
       inkscape:vp_z="744.09448 : 526.18109 : 1"
       inkscape:vp_y="0 : 1000 : 0"
       inkscape:vp_x="0 : 526.18109 : 1"
       sodipodi:type="inkscape:persp3d" />
    <inkscape:perspective
       id="perspective3604"
       inkscape:persp3d-origin="372.04724 : 350.78739 : 1"
       inkscape:vp_z="744.09448 : 526.18109 : 1"
       inkscape:vp_y="0 : 1000 : 0"
       inkscape:vp_x="0 : 526.18109 : 1"
       sodipodi:type="inkscape:persp3d" />
    <inkscape:perspective
       id="perspective4346"
       inkscape:persp3d-origin="372.04724 : 350.78739 : 1"
       inkscape:vp_z="744.09448 : 526.18109 : 1"
       inkscape:vp_y="0 : 1000 : 0"
       inkscape:vp_x="0 : 526.18109 : 1"
       sodipodi:type="inkscape:persp3d" />
  </defs>
  <g
     id="g2117"
     transform="matrix(1.1975036,0,0,1.1975036,80.128205,34.575832)"
     style="fill:#000000">
    <g
       id="g2119"
       style="fill:#000000">
      <g
         id="g2121"
         style="fill:#000000">
        <path
           id="path2125"
           style="fill:#000000;stroke:none"
           d="" />
      </g>
      <g
         id="g2127"
         style="fill:#000000">
        <path
           id="path2131"
           style="fill:#000000;stroke:none"
           d="" />
      </g>
    </g>
  </g>
  <image
     sodipodi:absref="D:\Viglino\SVG\SJJB-SVG-Icons-20111021\svg\amenity\pastedpic_10102008_233747.png"
     xlink:href="pastedpic_10102008_233747.png"
     y="573.99469"
     x="-1801.1931"
     id="image3356"
     height="190"
     width="239" />
  <path
     style="color:#000000;font-style:normal;font-variant:normal;font-weight:normal;font-stretch:normal;font-size:medium;line-height:normal;font-family:sans-serif;text-indent:0;text-align:start;text-decoration:none;text-decoration-line:none;text-decoration-style:solid;text-decoration-color:#000000;letter-spacing:normal;word-spacing:normal;text-transform:none;direction:ltr;block-progression:tb;writing-mode:lr-tb;baseline-shift:baseline;text-anchor:start;white-space:normal;clip-rule:nonzero;display:inline;overflow:visible;visibility:visible;opacity:1;isolation:auto;mix-blend-mode:normal;color-interpolation:sRGB;color-interpolation-filters:linearRGB;solid-color:#000000;solid-opacity:1;fill:#ff0000;fill-opacity:1;fill-rule:nonzero;stroke:none;stroke-width:9.5004673;stroke-linecap:round;stroke-linejoin:round;stroke-miterlimit:4;stroke-dasharray:none;stroke-dashoffset:0;stroke-opacity:1;color-rendering:auto;image-rendering:auto;shape-rendering:auto;text-rendering:auto;enable-background:accumulate"
     d="M 290.48047 20.052734 C 289.49018 20.054306 288.50355 20.064016 287.51953 20.082031 C 261.00005 20.161659 239.92961 36.446247 219.78516 47.623047 C 196.98789 59.546328 170.84112 64.713799 145.07227 63.253906 A 4.7507087 4.7507087 0 0 0 144.62109 63.25 C 140.70379 63.39954 135.35099 63.411792 130.14258 64.902344 C 124.93417 66.392895 119.35694 70.106451 117.66797 76.705078 A 4.7507087 4.7507087 0 0 0 117.62695 76.871094 C 116.18025 83.506508 119.02322 89.249593 122.25977 93.363281 C 125.49631 97.476969 129.1866 100.74292 131.15039 103.52734 A 4.7507087 4.7507087 0 0 0 131.42188 103.875 C 142.91523 117.3295 154.58648 130.50481 166.73242 143.37305 A 4.7507087 4.7507087 0 0 0 174.05078 142.87305 C 173.74681 143.29833 174.15049 142.80608 174.90625 142.32617 C 175.66201 141.84626 176.70035 141.27769 177.83594 140.43555 C 178.97153 139.59341 180.7576 138.40575 181.14453 135.41211 C 181.33799 133.91529 180.8497 132.26466 180.12305 131.16406 C 179.55123 130.29798 178.8968 129.67615 178.19922 129.14453 C 164.94726 113.39921 150.42592 99.125276 139.11328 83.03125 C 139.13922 82.984636 139.11078 82.799416 139.14062 82.753906 C 139.26257 82.567962 139.61707 82.215357 140.38867 81.871094 C 141.93188 81.182567 144.91194 80.882192 146.88086 81.105469 A 4.7507087 4.7507087 0 0 0 147.45117 81.136719 C 167.78111 80.980605 190.32619 82.412645 210.43945 71.529297 C 238.70111 58.62319 263.33263 38.156442 292.78516 37.869141 C 321.0991 38.450353 345.36811 57.324292 371.77734 71.060547 C 390.48434 81.632461 411.60927 89.490865 433.99219 88.802734 C 437.90799 89.090798 441.71186 88.864871 444.79102 89.1875 C 447.48513 89.469786 449.25316 90.156703 450.66797 91.369141 C 450.66954 91.570347 450.80404 91.885551 450.73633 92.099609 C 450.59039 92.560953 450.14652 93.315645 449.29492 94.246094 C 447.65814 96.034436 444.71951 98.037343 442.27734 101.2168 C 430.57687 112.93728 418.82586 124.61081 407.05859 136.26172 A 4.7507087 4.7507087 0 0 0 408.55664 144.01367 C 408.04617 143.79866 409.779 145.23152 411.62109 146.94141 C 412.54214 147.79635 413.58871 148.82022 415.58008 149.44531 C 417.57144 150.0704 420.77297 149.34933 422.4043 147.72852 A 4.7507087 4.7507087 0 0 0 422.4668 147.66602 C 438.39998 131.23737 456.0718 115.89057 471.0293 97.507812 A 4.7507087 4.7507087 0 0 0 471.80859 96.128906 C 473.41439 91.701273 473.24141 86.812242 471.28906 82.501953 C 469.39159 78.312809 465.19581 74.629864 459.76562 74.167969 C 440.84188 69.956209 422.14655 71.954606 405.70898 66.791016 A 4.7507087 4.7507087 0 0 0 405.50977 66.732422 C 373.44807 58.172694 347.47724 30.551531 311.56836 21.990234 A 4.7507087 4.7507087 0 0 0 311.45898 21.964844 C 304.4824 20.476012 297.41247 20.041733 290.48047 20.052734 z M 277.375 55.679688 C 247.61874 176.50715 301.94596 175.44511 332.08008 246.45898 C 353.2168 136.95823 289.9846 161.59637 277.375 55.679688 z M 89.841797 106.5332 C 88.857914 106.52602 87.912367 106.54691 87.003906 106.56641 L 87.007812 106.56445 C 87.00161 106.56436 86.996436 106.56649 86.990234 106.56641 C 86.943393 106.56741 86.884516 106.56345 86.837891 106.56445 A 4.7507087 4.7507087 0 0 0 85.419922 106.81445 C 80.600273 107.42246 76.862478 110.77123 75.146484 114.33984 C 73.29221 118.19603 72.816532 122.28192 72.826172 125.69922 C 71.067573 143.63091 71.449995 161.2865 64.677734 176.3125 A 4.7507087 4.7507087 0 0 0 64.535156 176.66016 C 52.609744 209.9196 23.447738 238.55587 19.480469 278.40234 A 4.7507087 4.7507087 0 0 0 19.480469 278.41211 C 16.747767 306.39969 30.605287 331.04932 42.525391 353.30469 C 55.826183 378.24375 66.892822 405.24861 64.306641 432.9375 A 4.7507087 4.7507087 0 0 0 64.291016 433.1582 C 64.095612 437.34191 63.95262 442.6767 65.210938 447.91406 C 66.469255 453.15142 69.570718 458.72433 75.589844 461.2207 A 4.7507087 4.7507087 0 0 0 76.158203 461.41602 C 81.665193 462.91952 86.636435 460.68668 90.085938 458.2793 C 93.535438 455.87191 96.270989 453.25163 98.333984 452.12305 A 4.7507087 4.7507087 0 0 0 98.880859 451.77539 C 114.16257 440.46338 128.19305 428.01196 142.08398 415.43555 A 4.7507087 4.7507087 0 0 0 141.91602 408.24805 C 142.04048 408.35062 141.47414 407.73201 140.89453 406.82812 C 140.31492 405.92425 139.6606 404.77179 138.67383 403.54883 C 137.68706 402.32586 136.07639 400.45473 132.99219 400.39648 C 130.23817 400.34447 128.25357 402.02031 126.92383 403.79883 C 112.26282 415.91394 98.686115 428.93225 83.820312 439.52344 C 83.811616 439.51696 83.767439 439.52409 83.757812 439.51758 C 83.614638 439.42075 83.283396 439.08726 82.966797 438.34375 C 82.333598 436.85673 82.114581 433.96397 82.394531 432.24219 A 4.7507087 4.7507087 0 0 0 82.455078 431.61328 C 82.954335 413.91988 82.756418 394.89827 73.876953 377.78125 C 60.374389 346.62128 38.568467 319.45285 37.158203 287.17188 C 37.128859 257.69781 56.443943 232.26112 71.162109 205.45508 C 81.857779 186.91084 90.146075 165.98165 89.400391 143.51172 C 89.400107 143.50318 89.400677 143.49486 89.400391 143.48633 C 89.680551 139.91085 89.435655 136.42265 89.708984 133.77539 C 89.95452 131.39732 90.465599 130.24515 91.470703 129.36914 C 91.855307 129.35102 92.270699 129.25519 92.662109 129.41406 C 93.289012 129.66853 94.165032 130.27538 95.177734 131.25195 C 97.116517 133.12156 99.221137 136.21889 102.63867 138.6875 C 114.11377 149.92835 125.12539 161.75497 137.17188 172.97852 A 4.7507087 4.7507087 0 0 0 144.15625 172.42383 C 145.00288 171.33782 147.19089 169.72196 148.91602 166.72266 C 149.77858 165.22301 150.55397 162.73037 149.68164 160.26953 C 148.96464 158.24687 147.46798 156.96756 145.81445 155.94336 C 129.64386 139.70813 114.18164 122.14805 95.394531 107.64258 A 4.7507087 4.7507087 0 0 0 92.910156 106.66992 C 91.847897 106.57566 90.82568 106.54039 89.841797 106.5332 z M 498.27148 117.8125 C 496.84273 117.82571 495.56805 117.90921 494.50391 117.87695 A 4.7507087 4.7507087 0 0 0 492.28711 118.35156 C 483.22087 122.75314 478.76714 130.65674 473.28516 134.31836 A 4.7507087 4.7507087 0 0 0 472.69922 134.7793 C 461.22078 145.39181 449.41503 155.7978 437.98828 166.75781 A 4.7507087 4.7507087 0 0 0 438.60352 174.11328 C 438.18421 173.82778 438.7001 174.23512 439.20508 175.01172 C 439.71005 175.78831 440.30911 176.85733 441.14062 178.00391 C 441.97215 179.15049 442.96218 180.8036 445.79102 181.4668 C 447.20544 181.79839 448.97217 181.51723 450.20312 180.83984 C 451.16281 180.31174 451.82069 179.64757 452.39453 178.95312 C 467.32994 165.84349 480.92443 151.51768 496.25781 140.19141 C 496.26617 140.19765 496.33006 140.18378 496.33984 140.18945 C 496.43954 140.24723 496.74745 140.50391 497.06836 141.16992 C 497.71019 142.50195 497.96897 145.26517 497.68555 146.70508 A 4.7507087 4.7507087 0 0 0 497.59766 147.51367 C 497.16433 166.27913 497.9682 186.29906 507.23828 204.28516 C 520.57159 235.99461 541.35358 264.48198 542.5332 297.29102 C 541.69847 325.47766 522.72228 349.48842 508.36914 375.28906 C 497.95613 392.82724 490.03 412.93948 490.80469 434.42969 C 490.44963 438.19998 490.66721 441.90886 490.32031 444.78125 C 490.00289 447.40959 489.3803 448.79194 488.14062 449.81836 C 486.86688 450.04908 486.05133 449.67657 484.29688 448.13281 C 482.30198 446.37751 480.13815 443.44724 476.9668 441.02344 C 466.10569 430.66568 455.24134 420.3107 444.375 409.95898 A 4.7507087 4.7507087 0 0 0 436.73828 411.51367 C 436.91882 411.09608 436.66588 411.59993 436.06836 412.19531 C 435.47084 412.7907 434.61394 413.53711 433.71094 414.56055 C 432.80793 415.58398 431.4808 416.99365 431.45117 419.7207 C 431.4249 422.13921 433.09213 424.27522 434.79883 425.46094 C 451.46208 440.89941 466.89165 458.61358 485.94141 472.57031 A 4.7507087 4.7507087 0 0 0 487.96094 473.42383 C 493.52938 474.3609 498.65093 471.85523 501.81445 468.22656 C 504.86181 464.73116 506.52984 460.24081 506.55078 455.61914 C 509.04218 438.59811 507.97967 421.95783 513.96875 407.76367 A 4.7507087 4.7507087 0 0 0 514.10938 407.38281 C 524.05214 376.75264 549.11158 351.30853 557.95312 316.93555 A 4.7507087 4.7507087 0 0 0 557.98242 316.81445 C 563.62296 292.24077 557.74439 266.73869 546.27148 245.27734 C 531.47328 214.16873 513.77474 183.1963 515.3457 149.50586 A 4.7507087 4.7507087 0 0 0 515.3457 149.05859 C 514.96126 141.00168 516.63214 128.66285 507.95508 120.17773 A 4.7507087 4.7507087 0 0 0 506.43164 119.17773 C 504.05424 118.20535 501.78263 117.90158 499.75 117.83008 C 499.24184 117.8122 498.74774 117.8081 498.27148 117.8125 z M 247.49414 135.20898 C 228.76718 203.81416 254.81791 236.7091 253.00977 286.91406 C 226.78738 240.48962 200.78756 199.38506 175.7793 182.09961 C 196.39526 223.64799 169.49514 273.54575 160.26367 313.97656 C 147.10431 371.61023 164.92663 410.17318 194.16797 426.66602 C 193.72548 398.58249 202.95272 373.76071 208.41797 367.82227 C 215.62217 418.57163 223.8725 449.67336 264.04297 479.99219 C 268.09447 416.0719 288.18642 432.6159 295.30469 353.11133 C 324.62449 401.53413 318.93199 449.95806 304.49805 498.38086 C 330.32401 475.29844 358.9159 456.26653 394.60156 353.11133 L 387.24609 430.34375 C 409.97411 374.76191 474.82358 319.5624 361.04297 164.17188 C 372.34191 254.30025 349.18726 266.24747 338.05664 302.54492 C 311.88846 225.34429 260.34397 220.08234 247.49414 135.20898 z M 161.09961 431.41992 C 160.77545 431.41889 160.43784 431.44154 160.08594 431.49023 C 157.59061 431.83552 155.81316 433.58069 154.69531 435.41797 L 152.97266 437.19727 A 4.7507087 4.7507087 0 0 0 152.82031 437.36133 C 138.82522 453.22032 120.85911 466.64403 108.0293 485.64453 A 4.7507087 4.7507087 0 0 0 107.42578 486.91211 C 105.68321 492.6009 107.69279 498.29706 111.23047 502.02734 C 114.65631 505.63971 119.52454 507.86284 124.75391 507.67969 C 141.75354 509.85043 158.36074 508.81841 172.54297 514.85156 A 4.7507087 4.7507087 0 0 0 172.94141 515.00195 C 202.09211 524.43245 226.84387 547.77461 259.20117 557.24023 A 4.7507087 4.7507087 0 0 0 259.32812 557.27539 C 287.30339 564.62608 316.95706 558.50348 341.26367 544.29883 C 370.39284 530.10672 400.19467 515.02826 431.85742 517.06641 A 4.7507087 4.7507087 0 0 0 432.40039 517.07031 C 439.98956 516.6887 450.98403 517.83527 459.19336 510.63867 A 4.7507087 4.7507087 0 0 0 460.29492 509.22266 C 464.18774 501.57379 462.08326 492.26103 455.52148 486.86914 C 442.09599 470.94147 427.58961 455.9034 414.20312 440.39844 A 4.7507087 4.7507087 0 0 0 406.52148 441.08203 C 407.10176 440.10287 406.81443 440.71236 406.0918 441.1543 C 405.36917 441.59623 404.32423 442.14311 403.2207 442.8457 C 402.11718 443.5483 400.51223 443.94872 399.55273 447.06836 C 399.07298 448.62818 399.55461 450.9503 400.50781 452.17773 C 401.13576 452.98634 401.77745 453.4483 402.41797 453.82422 C 415.16642 468.49048 429.38536 481.8598 440.48828 496.90234 C 440.4861 496.98049 440.5678 497.21744 440.54883 497.26367 C 440.50803 497.36311 440.29484 497.70278 439.68359 498.0957 C 438.4611 498.88154 435.79272 499.37763 434.52734 499.17188 A 4.7507087 4.7507087 0 0 0 434.10352 499.12305 C 410.8568 497.4644 387.32487 501.45167 366.3418 512.23633 C 366.3301 512.24234 366.31834 512.24789 366.30664 512.25391 C 337.21608 525.85033 309.26925 544.24476 278.23438 542.43555 C 247.04398 540.31116 221.71315 517.6847 192.01758 503.29297 C 175.79631 495.08336 157.87275 491.29497 139.88086 491.48047 L 139.82422 491.48047 C 136.95857 491.4762 133.54774 491.46142 131.47461 490.90039 C 130.43144 490.61808 129.84561 490.24375 129.64062 490.03711 C 129.51852 489.91401 129.49545 489.59076 129.43945 489.38086 C 129.86179 487.70523 130.9488 486.20286 132.98438 484.2832 C 135.12065 482.26858 138.04837 480.08067 140.42773 476.74219 C 150.76273 466.05758 161.04892 455.34933 171.37109 444.70117 A 4.7507087 4.7507087 0 0 0 170.13867 437.17383 C 170.24499 437.2287 168.44095 435.30816 166.01953 433.39258 C 165.1115 432.67423 163.81181 431.74406 162.03125 431.48828 C 161.73449 431.44565 161.42377 431.42095 161.09961 431.41992 z "
     id="path4227" />
</svg>
