<?xml version="1.0" encoding="UTF-8" standalone="no"?>
<!-- Created with Inkscape (http://www.inkscape.org/) -->

<svg
   xmlns:dc="http://purl.org/dc/elements/1.1/"
   xmlns:cc="http://creativecommons.org/ns#"
   xmlns:rdf="http://www.w3.org/1999/02/22-rdf-syntax-ns#"
   xmlns:svg="http://www.w3.org/2000/svg"
   xmlns="http://www.w3.org/2000/svg"
   xmlns:sodipodi="http://sodipodi.sourceforge.net/DTD/sodipodi-0.dtd"
   xmlns:inkscape="http://www.inkscape.org/namespaces/inkscape"
   version="1.0"
   width="580"
   height="580"
   id="svg2"
   sodipodi:version="0.32"
   inkscape:version="0.91 r13725"
   sodipodi:docname="police2.svg"
   inkscape:output_extension="org.inkscape.output.svg.inkscape">
  <metadata
     id="metadata1976">
    <rdf:RDF>
      <cc:Work
         rdf:about="">
        <dc:format>image/svg+xml</dc:format>
        <dc:type
           rdf:resource="http://purl.org/dc/dcmitype/StillImage" />
        <cc:license
           rdf:resource="http://web.resource.org/cc/PublicDomain" />
        <dc:language>en</dc:language>
      </cc:Work>
    </rdf:RDF>
  </metadata>
  <sodipodi:namedview
     inkscape:window-height="972"
     inkscape:window-width="1280"
     inkscape:pageshadow="2"
     inkscape:pageopacity="0.0"
     guidetolerance="10.0"
     gridtolerance="10.0"
     objecttolerance="10.0"
     borderopacity="1.0"
     bordercolor="#666666"
     pagecolor="#ffffff"
     id="base"
     inkscape:zoom="0.39813944"
     inkscape:cx="-201.91791"
     inkscape:cy="745.44073"
     inkscape:window-x="-8"
     inkscape:window-y="-8"
     inkscape:current-layer="svg2"
     showgrid="false"
     inkscape:window-maximized="1" />
  <defs
     id="defs4">
    <inkscape:perspective
       sodipodi:type="inkscape:persp3d"
       inkscape:vp_x="0 : 290 : 1"
       inkscape:vp_y="0 : 1000 : 0"
       inkscape:vp_z="580 : 290 : 1"
       inkscape:persp3d-origin="290 : 193.33333 : 1"
       id="perspective3653" />
    <marker
       viewBox="0 0 10 10"
       refY="5"
       refX="10"
       orient="auto"
       markerWidth="4"
       markerUnits="strokeWidth"
       markerHeight="3"
       id="ArrowStart">
      <path
         id="path2111"
         d="M 10 0 L 0 5 L 10 10 z" />
    </marker>
    <marker
       viewBox="0 0 10 10"
       refY="5"
       refX="0"
       orient="auto"
       markerWidth="4"
       markerUnits="strokeWidth"
       markerHeight="3"
       id="ArrowEnd">
      <path
         id="path2108"
         d="M 0 0 L 10 5 L 0 10 z" />
    </marker>
    <inkscape:perspective
       id="perspective2512"
       inkscape:persp3d-origin="177.51199 : 145.02 : 1"
       inkscape:vp_z="355.02399 : 217.53 : 1"
       inkscape:vp_y="0 : 1000 : 0"
       inkscape:vp_x="0 : 217.53 : 1"
       sodipodi:type="inkscape:persp3d" />
    <inkscape:perspective
       id="perspective3305"
       inkscape:persp3d-origin="372.04724 : 350.78739 : 1"
       inkscape:vp_z="744.09448 : 526.18109 : 1"
       inkscape:vp_y="0 : 1000 : 0"
       inkscape:vp_x="0 : 526.18109 : 1"
       sodipodi:type="inkscape:persp3d" />
    <inkscape:perspective
       id="perspective3354"
       inkscape:persp3d-origin="372.04724 : 350.78739 : 1"
       inkscape:vp_z="744.09448 : 526.18109 : 1"
       inkscape:vp_y="0 : 1000 : 0"
       inkscape:vp_x="0 : 526.18109 : 1"
       sodipodi:type="inkscape:persp3d" />
  </defs>
  <path
     style="fill:#000080;fill-opacity:1;stroke:none"
     d="M 288.67773 16.996094 C 287.8106 16.972199 286.95261 17.051507 286.11719 17.21875 A 8.0008 8.0008 0 0 0 282.75977 18.759766 C 267.72964 30.513718 252.1447 41.170104 234.94336 46.011719 A 8.0008 8.0008 0 0 0 234.69141 46.087891 C 201.03979 56.767224 162.62666 52.350981 131.58203 35.414062 A 8.0008 8.0008 0 0 0 128.29492 34.457031 C 121.41386 33.986889 116.01482 37.621823 112.63672 40.552734 C 109.25862 43.483646 106.85997 45.902416 105.4707 46.642578 A 8.0008 8.0008 0 0 0 104.12109 47.548828 C 89.238587 59.910617 73.250151 71.871379 58.611328 85.796875 A 8.0008 8.0008 0 0 0 56.835938 88.298828 C 54.199986 94.129178 56.429575 100.23542 58.193359 103.40039 C 59.957144 106.56536 61.00246 108.51705 61.009766 108.55859 A 8.0008 8.0008 0 0 0 61.607422 110.48438 C 75.177128 140.31254 88.831072 171.01683 83.404297 201.50391 A 8.0008 8.0008 0 0 0 83.361328 201.77734 C 77.619005 242.04503 51.388221 278.78889 43.326172 323.63672 A 8.0008 8.0008 0 0 0 43.294922 323.82812 C 34.310668 381.88423 60.092993 444.37144 110.61133 476.01953 C 167.46632 515.42229 235.35511 528.46279 290.74414 561.85156 A 8.0008 8.0008 0 0 0 291.45703 562.23242 C 298.1773 565.408 305.38851 562.98021 309.51562 560.45703 C 313.64274 557.93386 316.64892 555.51931 317.84961 555.03906 A 8.0008 8.0008 0 0 0 319.02734 554.45312 C 371.96022 522.3569 436.54752 506.76445 488.73242 465.32227 C 519.33232 442.41635 539.77137 407.45948 545.55078 369.75977 C 551.58133 334.48542 544.8898 297.84037 527.91797 266.6582 C 512.33929 233.33907 495.55516 199.90164 498.7168 165.15625 C 501.22418 139.73926 513.26967 115.29328 523.07617 89.394531 A 8.0008 8.0008 0 0 0 523.5918 86.691406 C 523.69952 80.032971 518.93639 75.06892 515.69922 72.791016 C 512.46205 70.513111 510.17207 69.042652 510.00586 68.839844 A 8.0008 8.0008 0 0 0 508.65234 67.535156 C 491.88731 54.822249 474.98506 40.426758 455.67773 29.240234 A 8.0008 8.0008 0 0 0 449.96094 28.347656 C 435.45696 31.513647 426.32862 40.369309 417.77148 41.908203 A 8.0008 8.0008 0 0 0 416.67383 42.185547 C 375.87619 55.684104 327.74165 46.945418 294.78125 19.164062 A 8.0008 8.0008 0 0 0 293.04297 18.048828 C 291.88419 17.501156 290.71028 17.18108 289.54688 17.054688 C 289.25601 17.023089 288.96678 17.004059 288.67773 16.996094 z M 288.42773 34.509766 C 325.61042 63.528191 376.83536 72.113996 421.44141 57.453125 C 434.35588 54.878695 443.0493 47.816492 450.68945 45.013672 C 467.04662 54.949047 482.51827 67.776097 498.62695 80.009766 C 501.74801 83.338113 504.88472 84.745821 506.49219 85.876953 C 506.9326 86.186856 507.03604 86.245024 507.09766 86.271484 C 507.10717 86.246887 507.11744 86.221861 507.12695 86.197266 C 507.12998 86.241738 507.17923 86.306514 507.09766 86.271484 C 497.77879 110.36031 485.56931 135.31603 482.78711 163.63086 A 8.0008 8.0008 0 0 0 482.78125 163.6875 C 479.07077 204.38778 498.08123 240.61377 513.50195 273.60352 A 8.0008 8.0008 0 0 0 513.73047 274.05469 C 529.13436 302.22523 535.19102 335.50968 529.76953 367.12891 A 8.0008 8.0008 0 0 0 529.74805 367.27344 C 524.61306 400.87949 506.19793 432.29029 479.08398 452.56055 A 8.0008 8.0008 0 0 0 478.89648 452.70703 C 430.3608 491.30204 366.75693 506.87979 310.98047 540.63281 C 306.33417 542.70202 303.36297 545.46589 301.16992 546.80664 C 298.93604 548.17236 299.17548 548.17838 298.38086 547.78906 C 239.76767 512.65001 172.50178 499.57387 119.42578 462.67188 A 8.0008 8.0008 0 0 0 119.10547 462.45898 C 74.642913 434.60464 51.139735 378.05261 59.095703 326.375 C 66.325199 286.32742 92.669648 249.44545 99.171875 204.1875 C 105.6193 167.69369 89.866293 133.96396 76.367188 104.30078 C 75.241713 99.932795 73.091815 97.267544 72.169922 95.613281 C 72.023068 95.349764 72.053827 95.45862 71.957031 95.300781 C 85.030408 83.174208 99.661305 72.028761 114.02148 60.117188 C 118.31879 57.567692 121.00351 54.477631 123.12305 52.638672 C 124.76641 51.212855 125.56223 50.785029 126.29883 50.609375 C 160.67357 68.573005 202.12129 73.163859 239.4082 61.369141 C 258.15741 56.063264 274.01523 45.513419 288.42773 34.509766 z M 244.17188 91.412109 C 239.5324 91.25829 235.22035 92.941273 232.67578 96.382812 L 231.00391 98.644531 L 202.81836 101.06836 C 202.74835 101.07438 202.68108 101.0889 202.61133 101.0957 L 200.74609 99.654297 C 198.48761 97.910464 195.71266 97.153501 192.83203 97.283203 C 188.03099 97.499374 182.93518 100.17891 179.43555 104.85938 L 160.32031 130.42383 C 154.72095 137.91259 155.07299 148.03339 161.0957 152.68359 L 166.88281 157.15039 C 167.40324 157.55223 167.95913 157.88337 168.5293 158.18164 L 177.60156 184.0332 C 175.28101 187.346 174.10363 191.72289 174.6875 196.2832 L 178.2207 223.87695 C 161.30265 229.31466 137.53313 239.7756 134.66211 256.29297 C 134.57611 256.78774 134.50678 257.26723 134.43164 257.75195 C 134.12981 258.30316 133.89459 258.91749 133.69922 259.56445 C 85.37356 283.06001 64.837941 341.68455 88.121094 390.17773 C 103.53111 422.27313 132.5092 445.72677 165.32031 449.57227 C 167.56185 450.94424 170.33265 452.04774 173.77148 452.75586 C 173.84312 452.77061 173.91098 452.7785 173.98242 452.79297 A 26.092972 26.092972 0 0 0 178.18555 453.48438 C 192.86772 455.41336 203.83166 451.09513 218.8125 443.90234 C 269.88301 419.38188 293.90927 354.21505 269.38867 303.14453 C 262.16277 288.09468 252.10654 275.63669 240.21094 266.17383 C 237.29058 253.18202 224.00717 240.24063 212.73438 231.26758 C 213.94282 228.47328 214.45173 225.23814 214.02539 221.9082 L 210.16211 191.74023 C 209.22604 184.42908 204.04515 178.69079 197.94336 177.48047 L 188.73047 151.22656 L 207.30859 126.38086 C 208.36727 124.96496 209.21075 123.45546 209.8457 121.90625 L 230.37109 120.14258 C 231.40355 121.3532 232.60568 122.47643 233.97852 123.45898 L 259.93555 142.03711 C 260.71332 142.59376 261.52218 143.0705 262.34375 143.50195 C 260.29824 157.68395 259.53566 175.89134 266.19727 187.23633 C 263.97516 202.27456 265.14437 218.24403 270.15039 234.17188 C 287.13656 288.21749 349.20448 319.3886 403.25 302.40234 C 419.10162 297.42029 430.05635 293.0829 439.45898 281.64648 A 26.092974 26.092974 0 0 0 442.0625 278.26172 C 442.10383 278.20368 442.14622 278.15211 442.1875 278.09375 C 444.21566 275.22606 445.48625 272.52637 446.18555 269.99219 C 467.51554 244.76742 472.65113 207.84454 461.97656 173.88086 C 445.84741 122.56201 390.80052 93.783739 339.45898 109.64453 C 338.87434 109.30559 338.28446 109.01662 337.6875 108.82031 C 337.3014 108.51763 336.92238 108.2147 336.52148 107.91211 C 331.92368 104.44179 326.00707 103.17975 319.57031 103.32617 C 306.95141 103.61323 292.35427 109.31077 281.73047 114.39453 C 281.44713 114.168 281.17014 113.93669 280.87109 113.72266 L 254.91406 95.144531 C 251.58738 92.763617 247.78036 91.531747 244.17188 91.412109 z M 249.64453 107.41602 C 249.98444 107.53707 250.33615 107.67419 250.70312 107.82812 C 250.59127 108.32955 250.45118 108.82356 250.2793 109.30859 C 250.43162 109.91993 250.5543 110.54111 250.60938 111.18164 L 250.7793 107.85742 C 256.41108 110.243 264.93019 116.2711 269.33008 120.92969 C 267.93992 121.73885 266.94531 122.33594 266.94531 122.33594 L 266.59961 122.79492 C 266.59961 122.79492 265.84715 125.42541 264.89258 129.66016 C 259.21132 127.51435 249.84806 120.93703 245.30664 116.01562 C 247.61815 114.21896 249.36198 111.89716 250.2793 109.30859 C 250.11738 108.65873 249.9078 108.02667 249.64453 107.41602 z M 189.53125 114.24219 C 190.81556 116.6622 192.87322 118.69285 195.41602 120.11523 C 193.6964 125.47026 186.63638 135.30174 181.32617 140.14844 C 179.17865 138.66214 176.75499 137.75252 174.29492 137.5332 C 173.40109 138.01666 172.57989 138.60813 171.83398 139.28906 C 171.82838 139.12911 171.82236 139.0105 171.81641 138.83984 C 171.80365 138.47401 171.85869 138.04554 171.96484 137.57227 L 172.24023 137.51562 C 172.15174 137.52217 172.06301 137.51888 171.97461 137.52734 C 173.25017 131.98227 182.07786 119.84984 187.72461 115.45117 C 187.72132 115.82772 187.7212 116.20556 187.75391 116.58594 L 187.81641 115.37695 C 188.42863 114.90625 189.01049 114.50736 189.53125 114.24219 z M 172.24023 137.51562 C 172.92476 137.46502 173.61075 137.47221 174.29492 137.5332 C 174.8488 137.23362 175.41907 136.96081 176.02539 136.74805 L 172.24023 137.51562 z M 366.82812 140.41211 C 394.13205 140.32832 417.55152 158.56767 426.51953 187.10156 C 433.47509 209.23227 430.60462 225.9392 418.75586 238.03516 A 26.092974 26.092974 0 0 0 403.75195 243.81445 C 395.89629 248.51352 391.87092 257.60932 381.68555 260.81055 C 349.13954 271.03958 320.05126 254.24913 309.82227 221.70312 C 307.4564 214.17559 306.36201 206.86852 306.45703 199.94922 C 313.11334 196.34523 319.73388 189.63819 326.79102 179.64648 L 332.54297 172.15234 L 338.12109 164.63672 C 344.8062 156.33871 349.17864 149.04567 351.2832 142.41797 C 356.55335 141.08749 361.75818 140.42767 366.82812 140.41211 z M 332.54297 172.15234 L 328.82812 177.1582 L 336.28516 167.27734 L 332.54297 172.15234 z M 195.58594 193.6875 C 195.68143 193.7728 195.75091 193.83394 195.85156 193.92383 C 199.49372 197.17645 202.12688 215.8809 200.18359 222.13672 C 197.56036 220.39774 195.88867 219.38867 195.88867 219.38867 L 195.32227 219.29102 C 195.32227 219.29102 193.54551 219.64804 190.71289 220.33789 C 188.33312 213.66094 187.02323 201.22333 188.48438 196.19922 C 189.5499 196.56666 190.64263 196.79437 191.74414 196.89258 C 193.22756 196.09022 194.52267 195.00164 195.58594 193.6875 z M 191.74414 196.89258 C 191.19026 197.19216 190.61999 197.46498 190.01367 197.67773 L 193.79297 196.91016 C 193.11038 196.96028 192.42636 196.9534 191.74414 196.89258 z M 193.79297 196.91016 C 194.84521 196.83288 195.89198 196.63404 196.91406 196.27539 L 193.79297 196.91016 z M 147.45703 291.57422 C 153.52193 294.9761 161.69712 297.31452 172.24805 298.80664 L 181.50977 300.49414 L 190.77734 302.02734 C 202.75685 304.50201 212.17327 304.87675 219.49609 302.96094 C 224.2929 307.94871 228.48508 314.03123 231.90039 321.14453 C 246.66656 351.89895 236.89899 384.03268 206.14453 398.79883 C 196.51972 403.41998 187.3649 399.52903 178.41797 401.46484 A 26.092972 26.092972 0 0 0 163.51562 407.49414 C 146.59839 406.75725 133.08604 396.51878 123.04492 375.60547 C 107.69517 343.63562 117.07903 308.36189 147.45703 291.57422 z M 181.50977 300.49414 L 175.39453 299.48242 L 187.58789 301.60156 L 181.50977 300.49414 z "
     id="path4198" />
</svg>
