<?xml version="1.0" encoding="UTF-8" standalone="no"?>
<!-- Created with Inkscape (http://www.inkscape.org/) -->

<svg
   xmlns:dc="http://purl.org/dc/elements/1.1/"
   xmlns:cc="http://creativecommons.org/ns#"
   xmlns:rdf="http://www.w3.org/1999/02/22-rdf-syntax-ns#"
   xmlns:svg="http://www.w3.org/2000/svg"
   xmlns="http://www.w3.org/2000/svg"
   xmlns:sodipodi="http://sodipodi.sourceforge.net/DTD/sodipodi-0.dtd"
   xmlns:inkscape="http://www.inkscape.org/namespaces/inkscape"
   version="1.0"
   width="580"
   height="580"
   id="svg2"
   sodipodi:version="0.32"
   inkscape:version="0.91 r13725"
   sodipodi:docname="public_building.svg"
   inkscape:output_extension="org.inkscape.output.svg.inkscape">
  <metadata
     id="metadata2975">
    <rdf:RDF>
      <cc:Work
         rdf:about="">
        <dc:format>image/svg+xml</dc:format>
        <dc:type
           rdf:resource="http://purl.org/dc/dcmitype/StillImage" />
        <cc:license
           rdf:resource="http://web.resource.org/cc/PublicDomain" />
        <dc:language>en</dc:language>
        <dc:title />
      </cc:Work>
    </rdf:RDF>
  </metadata>
  <sodipodi:namedview
     inkscape:window-height="972"
     inkscape:window-width="1280"
     inkscape:pageshadow="2"
     inkscape:pageopacity="0.0"
     guidetolerance="10.0"
     gridtolerance="10.0"
     objecttolerance="10.0"
     borderopacity="1.0"
     bordercolor="#666666"
     pagecolor="#ffffff"
     id="base"
     inkscape:zoom="0.46083856"
     inkscape:cx="-118.92455"
     inkscape:cy="403.69123"
     inkscape:window-x="-8"
     inkscape:window-y="-8"
     inkscape:current-layer="svg2"
     showgrid="false"
     inkscape:window-maximized="1" />
  <defs
     id="defs4">
    <inkscape:perspective
       sodipodi:type="inkscape:persp3d"
       inkscape:vp_x="0 : 290 : 1"
       inkscape:vp_y="0 : 1000 : 0"
       inkscape:vp_z="580 : 290 : 1"
       inkscape:persp3d-origin="290 : 193.33333 : 1"
       id="perspective2441" />
    <inkscape:perspective
       id="perspective3452"
       inkscape:persp3d-origin="30 : 20 : 1"
       inkscape:vp_z="60 : 30 : 1"
       inkscape:vp_y="0 : 1000 : 0"
       inkscape:vp_x="0 : 30 : 1"
       sodipodi:type="inkscape:persp3d" />
    <symbol
       viewBox="244.5 110 489 219.9"
       id="symbol-university">
      <path
         id="path4460"
         d="M79,43l57,119c0,0,21-96,104-96s124,106,124,106l43-133l82-17L0,17L79,43z" />
      <path
         id="path4462"
         d="M94,176l-21,39"
         stroke-width="20"
         stroke="#000000"
         fill="none" />
      <path
         id="path4464"
         d="M300,19c0,10.5-22.6,19-50.5,19S199,29.5,199,19s22.6-19,50.5-19S300,8.5,300,19z" />
      <path
         id="path4466"
         d="M112,216l-16-38L64,88c0,0-9-8-4-35s16-24,16-24"
         stroke-width="20"
         stroke="#000000"
         ill="none" />
    </symbol>
    <inkscape:perspective
       id="perspective4471"
       inkscape:persp3d-origin="372.04724 : 350.78739 : 1"
       inkscape:vp_z="744.09448 : 526.18109 : 1"
       inkscape:vp_y="0 : 1000 : 0"
       inkscape:vp_x="0 : 526.18109 : 1"
       sodipodi:type="inkscape:persp3d" />
    <inkscape:perspective
       id="perspective4668"
       inkscape:persp3d-origin="6 : 4 : 1"
       inkscape:vp_z="12 : 6 : 1"
       inkscape:vp_y="0 : 1000 : 0"
       inkscape:vp_x="0 : 6 : 1"
       sodipodi:type="inkscape:persp3d" />
    <inkscape:perspective
       id="perspective4904"
       inkscape:persp3d-origin="16 : 10.666667 : 1"
       inkscape:vp_z="32 : 16 : 1"
       inkscape:vp_y="0 : 1000 : 0"
       inkscape:vp_x="0 : 16 : 1"
       sodipodi:type="inkscape:persp3d" />
  </defs>
  <g
     id="layer3"
     inkscape:label="Layout"
     style="display:none;stroke:#757575;stroke-opacity:1"
     transform="matrix(48.14969,0,0,48.14969,-536.27327,-33.306752)">
    <rect
       style="fill:none;stroke:#757575;stroke-width:0.10000000000000001;stroke-miterlimit:4;stroke-dasharray:none;stroke-opacity:1;display:inline"
       id="rect4134"
       width="10"
       height="10"
       x="1"
       y="1" />
    <rect
       style="fill:none;stroke:#757575;stroke-width:0.10000000000000001;stroke-miterlimit:4;stroke-dasharray:none;stroke-opacity:1;display:inline"
       id="rect4136"
       width="8"
       height="8"
       x="2"
       y="2" />
  </g>
  <path
     style="color:#000000;font-style:normal;font-variant:normal;font-weight:normal;font-stretch:normal;font-size:12px;line-height:normal;font-family:sans-serif;text-indent:0;text-align:start;text-decoration:none;text-decoration-line:none;text-decoration-style:solid;text-decoration-color:#000000;letter-spacing:normal;word-spacing:normal;text-transform:none;direction:ltr;block-progression:tb;writing-mode:lr-tb;baseline-shift:baseline;text-anchor:start;white-space:normal;clip-rule:nonzero;display:inline;overflow:visible;visibility:visible;opacity:1;isolation:auto;mix-blend-mode:normal;color-interpolation:sRGB;color-interpolation-filters:linearRGB;solid-color:#000000;solid-opacity:1;fill:#000080;fill-opacity:1;fill-rule:evenodd;stroke:none;stroke-width:20;stroke-linecap:butt;stroke-linejoin:round;stroke-miterlimit:4;stroke-dasharray:none;stroke-dashoffset:0;stroke-opacity:1;color-rendering:auto;image-rendering:auto;shape-rendering:auto;text-rendering:auto;enable-background:accumulate"
     d="M 286.94336 24.001953 A 10.001 10.001 0 0 0 280.91992 26.142578 L 280.88672 26.044922 L 28.826172 217.95312 A 10.001 10.001 0 0 0 34.884766 235.9082 L 75.296875 235.9082 L 75.296875 543.76953 A 10.001 10.001 0 0 0 85.296875 553.76953 L 236.53125 553.76953 L 340.8125 553.76953 L 488.5918 553.76953 A 10.001 10.001 0 0 0 498.5918 543.76953 L 498.5918 235.9082 L 539.00391 235.9082 A 10.001 10.001 0 0 0 545.0625 217.95312 L 293.00195 26.044922 L 292.99805 26.058594 A 10.001 10.001 0 0 0 286.94336 24.001953 z M 286.94531 46.570312 L 509.35938 215.9082 L 488.5918 215.9082 A 10.001 10.001 0 0 0 478.5918 225.9082 L 478.5918 533.76953 L 340.8125 533.76953 L 236.53125 533.76953 L 95.296875 533.76953 L 95.296875 225.9082 A 10.001 10.001 0 0 0 85.296875 215.9082 L 64.527344 215.9082 L 286.94531 46.570312 z M 184.81836 163.5 C 179.64306 163.50019 175.1343 165.37465 171.30078 169.11133 C 167.4676 172.84836 165.55291 177.38953 165.55273 182.75195 C 165.55291 188.12056 167.4676 192.68518 171.30078 196.42188 C 175.1343 200.15888 179.64306 202.01773 184.81836 202.01758 C 185.00918 202.01758 185.196 202.00665 185.38477 202.00195 C 185.57567 202.00684 185.77183 202.01763 185.96484 202.01758 C 191.14013 202.01773 195.63328 200.15888 199.4668 196.42188 C 203.29998 192.68518 205.21662 188.12056 205.2168 182.75195 C 205.21662 177.38953 203.29998 172.84836 199.4668 169.11133 C 195.63328 165.37465 191.14013 163.50019 185.96484 163.5 C 185.77188 163.5 185.57561 163.51077 185.38477 163.51562 C 185.19606 163.51087 185.00912 163.5 184.81836 163.5 z M 284.81836 163.5 C 279.64306 163.50019 275.1343 165.37465 271.30078 169.11133 C 267.4676 172.84836 265.55291 177.38953 265.55273 182.75195 C 265.55291 188.12056 267.4676 192.68518 271.30078 196.42188 C 275.1343 200.15888 279.64306 202.01773 284.81836 202.01758 C 285.00918 202.01758 285.196 202.00665 285.38477 202.00195 C 285.57567 202.00684 285.77183 202.01763 285.96484 202.01758 C 291.14013 202.01773 295.63328 200.15888 299.4668 196.42188 C 303.29998 192.68518 305.21662 188.12056 305.2168 182.75195 C 305.21662 177.38953 303.29998 172.84836 299.4668 169.11133 C 295.63328 165.37465 291.14013 163.50019 285.96484 163.5 C 285.77188 163.5 285.57561 163.51077 285.38477 163.51562 C 285.19606 163.51087 285.00912 163.5 284.81836 163.5 z M 384.81836 163.5 C 379.64306 163.50019 375.1343 165.37465 371.30078 169.11133 C 367.4676 172.84836 365.55291 177.38953 365.55273 182.75195 C 365.55291 188.12056 367.4676 192.68518 371.30078 196.42188 C 375.1343 200.15888 379.64306 202.01773 384.81836 202.01758 C 385.00918 202.01758 385.196 202.00665 385.38477 202.00195 C 385.57567 202.00684 385.77183 202.01763 385.96484 202.01758 C 391.14013 202.01773 395.63328 200.15888 399.4668 196.42188 C 403.29998 192.68518 405.21662 188.12056 405.2168 182.75195 C 405.21662 177.38953 403.29998 172.84836 399.4668 169.11133 C 395.63328 165.37465 391.14013 163.50019 385.96484 163.5 C 385.77188 163.5 385.57561 163.51077 385.38477 163.51562 C 385.19606 163.51087 385.00912 163.5 384.81836 163.5 z M 170.1543 206.33008 C 168.99057 206.33011 167.94294 206.46249 166.99805 206.71484 A 16.417375 16.417375 0 0 0 165.10352 206.64062 A 16.417375 16.417375 0 0 0 149.08398 223.43359 L 149.42578 261.71875 A 16.417375 16.417375 0 0 0 160.96484 277.4668 L 160.96484 282.49414 L 160.96484 283.94727 L 185.38477 283.22852 L 209.82031 283.94727 L 209.82031 282.49414 L 209.82031 276.75195 A 16.417375 16.417375 0 0 0 219.44531 261.42578 L 219.10156 223.13867 A 16.417375 16.417375 0 0 0 203.64453 206.67578 C 202.7369 206.44829 201.73381 206.33011 200.62891 206.33008 L 170.1543 206.33008 z M 270.1543 206.33008 C 268.99057 206.33011 267.94294 206.46249 266.99805 206.71484 A 16.417375 16.417375 0 0 0 265.10352 206.64062 A 16.417375 16.417375 0 0 0 249.08398 223.43359 L 249.42578 261.71875 A 16.417375 16.417375 0 0 0 260.96484 277.4668 L 260.96484 282.49414 L 260.96484 283.94727 L 285.38477 283.22852 L 309.82031 283.94727 L 309.82031 282.49414 L 309.82031 276.75195 A 16.417375 16.417375 0 0 0 319.44531 261.42578 L 319.10156 223.13867 A 16.417375 16.417375 0 0 0 303.64453 206.67578 C 302.7369 206.44829 301.73381 206.33011 300.62891 206.33008 L 270.1543 206.33008 z M 370.1543 206.33008 C 368.99057 206.33011 367.94294 206.46249 366.99805 206.71484 A 16.417375 16.417375 0 0 0 365.10352 206.64062 A 16.417375 16.417375 0 0 0 349.08398 223.43359 L 349.42578 261.71875 A 16.417375 16.417375 0 0 0 360.96484 277.4668 L 360.96484 282.49414 L 360.96484 283.94727 L 385.38477 283.22852 L 409.82031 283.94727 L 409.82031 282.49414 L 409.82031 276.75195 A 16.417375 16.417375 0 0 0 419.44531 261.42578 L 419.10156 223.13867 A 16.417375 16.417375 0 0 0 403.64453 206.67578 C 402.7369 206.44829 401.73381 206.33011 400.62891 206.33008 L 370.1543 206.33008 z M 202.98242 303.83594 C 193.71112 303.83628 185.63321 307.1946 178.76562 313.88867 C 171.89867 320.58341 168.46713 328.71769 168.4668 338.32422 C 168.46713 347.94183 171.89867 356.11837 178.76562 362.8125 C 185.63321 369.50718 193.71112 372.83816 202.98242 372.83789 C 203.32427 372.8379 203.65792 372.81896 203.99609 372.81055 C 204.33809 372.81931 204.69134 372.83797 205.03711 372.83789 C 214.30841 372.83816 222.35703 369.50718 229.22461 362.8125 C 236.09157 356.11837 239.52507 347.94183 239.52539 338.32422 C 239.52508 328.71769 236.09157 320.58341 229.22461 313.88867 C 222.35703 307.1946 214.30841 303.83628 205.03711 303.83594 C 204.69143 303.83595 204.33799 303.85461 203.99609 303.86328 C 203.65803 303.85478 203.32417 303.83595 202.98242 303.83594 z M 369.5332 303.83594 C 360.26189 303.83628 352.18594 307.1946 345.31836 313.88867 C 338.45141 320.58341 335.01791 328.71769 335.01758 338.32422 C 335.0179 347.94183 338.45141 356.11837 345.31836 362.8125 C 352.18594 369.50718 360.26189 372.83816 369.5332 372.83789 C 369.87505 372.8379 370.20871 372.81896 370.54688 372.81055 C 370.88888 372.81931 371.24212 372.83797 371.58789 372.83789 C 380.85919 372.83816 388.90781 369.50718 395.77539 362.8125 C 402.64234 356.11837 406.07585 347.94183 406.07617 338.32422 C 406.07586 328.71769 402.64234 320.58341 395.77539 313.88867 C 388.90781 307.1946 380.85919 303.83628 371.58789 303.83594 C 371.24221 303.83595 370.88878 303.85461 370.54688 303.86328 C 370.20882 303.85478 369.87495 303.83595 369.5332 303.83594 z M 176.71289 380.56445 C 174.62939 380.56451 172.75249 380.80432 171.06055 381.25586 A 29.410978 29.410978 0 0 0 167.66211 381.12109 A 29.410978 29.410978 0 0 0 138.96484 411.20312 L 139.57812 479.79102 A 29.410978 29.410978 0 0 0 160.24805 507.96875 L 160.24805 517.00977 L 160.24805 519.61133 L 203.99609 518.32422 L 247.76953 519.61133 L 247.76953 517.00977 L 247.76953 506.69531 A 29.410978 29.410978 0 0 0 265.01367 479.26562 L 264.39844 410.67773 A 29.410978 29.410978 0 0 0 236.70508 381.18359 C 235.0796 380.77637 233.28525 380.5645 231.30664 380.56445 L 176.71289 380.56445 z M 343.26367 380.56445 C 341.17968 380.56451 339.30358 380.80411 337.61133 381.25586 A 29.410978 29.410978 0 0 0 334.21289 381.12109 A 29.410978 29.410978 0 0 0 305.51562 411.20312 L 306.12891 479.79102 A 29.410978 29.410978 0 0 0 326.79883 507.96875 L 326.79883 517.00977 L 326.79883 519.61133 L 370.54688 518.32422 L 414.32031 519.61133 L 414.32031 517.00977 L 414.32031 506.69531 A 29.410978 29.410978 0 0 0 431.56445 479.26562 L 430.94922 410.67773 A 29.410978 29.410978 0 0 0 403.25586 381.18359 C 401.63038 380.77637 399.83603 380.5645 397.85742 380.56445 L 343.26367 380.56445 z "
     id="path3198" />
</svg>
