<?xml version="1.0" encoding="UTF-8" standalone="no"?>
<!-- Created with Inkscape (http://www.inkscape.org/) -->

<svg
   xmlns:dc="http://purl.org/dc/elements/1.1/"
   xmlns:cc="http://creativecommons.org/ns#"
   xmlns:rdf="http://www.w3.org/1999/02/22-rdf-syntax-ns#"
   xmlns:svg="http://www.w3.org/2000/svg"
   xmlns="http://www.w3.org/2000/svg"
   xmlns:sodipodi="http://sodipodi.sourceforge.net/DTD/sodipodi-0.dtd"
   xmlns:inkscape="http://www.inkscape.org/namespaces/inkscape"
   version="1.0"
   width="580"
   height="580"
   id="svg2"
   sodipodi:version="0.32"
   inkscape:version="0.91 r13725"
   sodipodi:docname="police.svg"
   inkscape:output_extension="org.inkscape.output.svg.inkscape">
  <metadata
     id="metadata1976">
    <rdf:RDF>
      <cc:Work
         rdf:about="">
        <dc:format>image/svg+xml</dc:format>
        <dc:type
           rdf:resource="http://purl.org/dc/dcmitype/StillImage" />
        <cc:license
           rdf:resource="http://web.resource.org/cc/PublicDomain" />
        <dc:language>en</dc:language>
      </cc:Work>
    </rdf:RDF>
  </metadata>
  <sodipodi:namedview
     inkscape:window-height="721"
     inkscape:window-width="1024"
     inkscape:pageshadow="2"
     inkscape:pageopacity="0.0"
     guidetolerance="10.0"
     gridtolerance="10.0"
     objecttolerance="10.0"
     borderopacity="1.0"
     bordercolor="#666666"
     pagecolor="#ffffff"
     id="base"
     inkscape:zoom="0.79627887"
     inkscape:cx="243.00225"
     inkscape:cy="266.79381"
     inkscape:window-x="-4"
     inkscape:window-y="-4"
     inkscape:current-layer="svg2"
     showgrid="false"
     inkscape:window-maximized="0" />
  <defs
     id="defs4">
    <inkscape:perspective
       sodipodi:type="inkscape:persp3d"
       inkscape:vp_x="0 : 290 : 1"
       inkscape:vp_y="0 : 1000 : 0"
       inkscape:vp_z="580 : 290 : 1"
       inkscape:persp3d-origin="290 : 193.33333 : 1"
       id="perspective3653" />
    <marker
       viewBox="0 0 10 10"
       refY="5"
       refX="10"
       orient="auto"
       markerWidth="4"
       markerUnits="strokeWidth"
       markerHeight="3"
       id="ArrowStart">
      <path
         id="path2111"
         d="M 10 0 L 0 5 L 10 10 z" />
    </marker>
    <marker
       viewBox="0 0 10 10"
       refY="5"
       refX="0"
       orient="auto"
       markerWidth="4"
       markerUnits="strokeWidth"
       markerHeight="3"
       id="ArrowEnd">
      <path
         id="path2108"
         d="M 0 0 L 10 5 L 0 10 z" />
    </marker>
    <inkscape:perspective
       id="perspective2512"
       inkscape:persp3d-origin="177.51199 : 145.02 : 1"
       inkscape:vp_z="355.02399 : 217.53 : 1"
       inkscape:vp_y="0 : 1000 : 0"
       inkscape:vp_x="0 : 217.53 : 1"
       sodipodi:type="inkscape:persp3d" />
    <inkscape:perspective
       id="perspective3305"
       inkscape:persp3d-origin="372.04724 : 350.78739 : 1"
       inkscape:vp_z="744.09448 : 526.18109 : 1"
       inkscape:vp_y="0 : 1000 : 0"
       inkscape:vp_x="0 : 526.18109 : 1"
       sodipodi:type="inkscape:persp3d" />
    <inkscape:perspective
       id="perspective3354"
       inkscape:persp3d-origin="372.04724 : 350.78739 : 1"
       inkscape:vp_z="744.09448 : 526.18109 : 1"
       inkscape:vp_y="0 : 1000 : 0"
       inkscape:vp_x="0 : 526.18109 : 1"
       sodipodi:type="inkscape:persp3d" />
  </defs>
  <path
     style="opacity:1;fill:#000080;fill-opacity:1;stroke:none;stroke-width:12;stroke-linecap:round;stroke-linejoin:round;stroke-miterlimit:4;stroke-dasharray:none;stroke-dashoffset:0;stroke-opacity:1"
     d="M 250.44336 45.021484 C 244.40101 45.120925 238.87293 47.480258 235.52539 52.007812 L 233.43555 54.835938 C 232.60012 54.825499 231.75662 54.852668 230.90625 54.925781 L 188.38477 58.582031 C 188.28519 58.590593 188.1871 58.603595 188.08789 58.613281 L 185.47656 56.597656 C 182.57142 54.354517 179.05783 53.274176 175.37891 53.25 C 168.35551 53.203846 160.72872 57.006012 155.57227 63.902344 L 128.74805 99.775391 C 120.89067 110.28411 121.38644 124.48626 129.83789 131.01172 L 137.95703 137.2793 C 138.69426 137.84854 139.47295 138.33859 140.28125 138.75977 L 153 175.00195 C 149.74382 179.65045 148.09088 185.79243 148.91016 192.19141 L 153.86914 230.9043 C 130.13072 238.53749 96.771355 253.2332 92.744141 276.40234 C 92.623393 277.09702 92.525408 277.7706 92.419922 278.45117 C 91.992288 279.23301 91.642779 280.08747 91.367188 281.00586 C 23.570882 313.98418 -5.2329937 396.23666 27.435547 464.27734 C 49.058297 509.31242 89.717324 542.21938 135.75586 547.61914 C 138.9029 549.54697 142.79477 551.09716 147.625 552.0918 C 147.62956 552.09274 147.63411 552.09281 147.63867 552.09375 A 36.615356 36.615356 0 0 0 152.79102 552.99414 C 173.92162 556.04802 189.45322 549.93076 210.82812 539.66797 C 282.49361 505.25927 316.20968 413.81393 281.80078 342.14844 C 271.66153 321.03078 257.54875 303.55401 240.85742 290.27539 C 236.76388 272.04485 218.1214 253.87196 202.30273 241.2793 C 203.99611 237.36011 204.70917 232.82189 204.11133 228.15234 L 198.69141 185.81836 C 197.37798 175.55991 190.10639 167.50997 181.54492 165.81055 L 168.61523 128.9668 L 194.68555 94.101562 C 196.17114 92.114682 197.35503 89.996249 198.24609 87.822266 L 231.9375 84.925781 C 233.46152 86.787271 235.2681 88.509393 237.35352 90.001953 L 273.77734 116.07227 C 275.10183 117.02021 276.48138 117.83792 277.89258 118.52734 C 274.52265 138.9391 272.45478 167.48612 282.57031 184.72266 C 279.44843 205.83066 281.08451 228.24603 288.11133 250.60352 C 311.94743 326.44385 399.04654 370.18388 474.88672 346.34766 C 497.2358 339.3235 512.65454 333.24074 525.89062 317.02148 A 36.615356 36.615356 0 0 0 529.30469 312.54492 C 529.37865 312.44124 529.4535 312.3427 529.52734 312.23828 C 532.36364 308.22793 534.14355 304.45177 535.12695 300.90625 C 565.07844 265.50855 572.28007 213.67258 557.29688 166 C 534.66552 93.992755 457.43066 53.610364 385.39062 75.853516 C 384.56473 75.37367 383.72821 74.978384 382.88477 74.701172 C 382.34311 74.276549 381.81046 73.852228 381.24805 73.427734 C 363.16282 59.777376 330.56707 70.476688 308.04102 80.796875 C 306.63034 79.17417 305.00736 77.662755 303.15625 76.337891 L 266.73242 50.267578 C 262.06421 46.926524 256.72186 45.199133 251.6582 45.03125 C 251.2513 45.017759 250.84618 45.014855 250.44336 45.021484 z M 255.25977 66.642578 C 255.41773 66.633772 255.59219 66.643064 255.76562 66.650391 L 255.72266 67.474609 C 255.7737 67.201154 255.81765 66.926535 255.85547 66.650391 C 263.41538 67.085445 284.75253 82.041735 289.85156 90.033203 C 285.93938 92.223978 283.61719 93.667969 283.61719 93.667969 L 283.12891 94.3125 C 283.12891 94.3125 282.61435 96.15426 281.88281 99.101562 C 273.03254 96.278949 256.00614 84.029489 250.98047 76.792969 C 252.76065 74.808794 254.14744 72.560835 255.00391 70.140625 C 254.70966 68.959045 254.29165 67.819418 253.76172 66.732422 C 254.24726 66.703297 254.69076 66.674299 255.25977 66.642578 z M 255.00391 70.140625 C 255.21738 70.997859 255.372 71.875293 255.44922 72.773438 L 255.72266 67.474609 C 255.55352 68.380647 255.31166 69.270959 255.00391 70.140625 z M 169.71289 77.072266 C 171.51454 80.47038 174.42652 83.309454 177.99609 85.306641 C 175.58771 92.812715 165.67733 106.61984 158.22461 113.42188 C 155.20859 111.33459 151.80462 110.04265 148.34961 109.73633 C 147.10095 110.4116 145.94731 111.22969 144.9043 112.17969 C 144.89688 111.96761 144.88872 111.81133 144.88086 111.58594 C 144.86294 111.07207 144.93862 110.46963 145.08789 109.80469 L 145.58203 109.70508 C 145.42293 109.71584 145.26436 109.72505 145.10547 109.74023 C 146.89803 101.96103 159.27003 84.948262 167.19141 78.769531 C 167.18699 79.295983 167.20037 79.825643 167.24609 80.357422 L 167.33398 78.660156 C 168.17986 78.009923 168.99116 77.443161 169.71289 77.072266 z M 145.58203 109.70508 C 146.50399 109.6427 147.42834 109.65465 148.34961 109.73633 C 149.12653 109.31617 149.93666 108.94686 150.78711 108.64844 L 145.58203 109.70508 z M 423.77734 119.0332 C 462.09197 118.91563 494.95653 144.51016 507.54102 184.55078 C 517.30248 215.60915 513.26578 239.05214 496.63281 256.02539 A 36.615356 36.615356 0 0 0 475.5957 264.13477 C 464.56975 270.72785 458.91946 283.49167 444.625 287.98438 C 398.95431 302.33841 358.13719 278.77613 343.7832 233.10547 C 340.46325 222.54227 338.92914 212.28974 339.0625 202.58008 C 348.40279 197.52269 357.69099 188.11242 367.59375 174.0918 L 375.60156 163.66016 L 383.49219 153.02734 C 392.87648 141.37891 399.02179 131.13845 401.96875 121.83594 C 409.3628 119.96961 416.66414 119.05503 423.77734 119.0332 z M 375.60156 163.66016 L 370.45312 170.59766 L 380.91797 156.73438 L 375.60156 163.66016 z M 178.24023 188.55273 C 178.37293 188.67125 178.46959 188.75603 178.60938 188.88086 C 183.72063 193.44546 187.41758 219.69597 184.68945 228.47266 C 181.0087 226.03266 178.66211 224.61719 178.66211 224.61719 L 177.86523 224.47852 C 177.86523 224.47852 175.37036 224.98037 171.39258 225.94922 C 168.05463 216.57356 166.22182 199.12351 168.27148 192.07617 C 169.7688 192.59231 171.30564 192.92526 172.85352 193.0625 C 174.93616 191.93631 176.74766 190.39771 178.24023 188.55273 z M 172.85352 193.0625 C 172.07675 193.48254 171.26628 193.85203 170.41602 194.15039 L 175.62109 193.09375 C 174.69914 193.15612 173.77478 193.14418 172.85352 193.0625 z M 175.62109 193.09375 C 177.13117 192.99159 178.63316 192.69817 180.09961 192.18359 L 175.62109 193.09375 z M 110.69531 325.91016 C 119.20627 330.68478 130.67891 333.96648 145.48633 336.06055 L 158.45508 338.42383 L 171.48828 340.58008 C 188.30549 344.0541 201.5212 344.5788 211.79883 341.88672 C 218.5275 348.88493 224.40419 357.42746 229.19531 367.40625 C 249.91616 410.56285 236.20939 455.65417 193.05273 476.375 C 179.4668 482.898 166.54944 477.3395 153.92383 480.16992 A 36.615356 36.615356 0 0 0 133.23047 488.57812 C 109.49221 487.54321 90.53129 473.17602 76.441406 443.83008 C 54.901674 398.968 68.066957 349.46774 110.69531 325.91016 z M 158.45508 338.42383 L 149.90234 337.00781 L 167.01367 339.98242 L 158.45508 338.42383 z "
     id="path4259" />
</svg>
