<?xml version="1.0" encoding="UTF-8" standalone="no"?>
<!-- Created with Inkscape (http://www.inkscape.org/) -->

<svg
   xmlns:dc="http://purl.org/dc/elements/1.1/"
   xmlns:cc="http://creativecommons.org/ns#"
   xmlns:rdf="http://www.w3.org/1999/02/22-rdf-syntax-ns#"
   xmlns:svg="http://www.w3.org/2000/svg"
   xmlns="http://www.w3.org/2000/svg"
   xmlns:sodipodi="http://sodipodi.sourceforge.net/DTD/sodipodi-0.dtd"
   xmlns:inkscape="http://www.inkscape.org/namespaces/inkscape"
   version="1.0"
   width="580"
   height="580"
   id="svg2"
   sodipodi:version="0.32"
   inkscape:version="0.91 r13725"
   sodipodi:docname="prison.svg"
   inkscape:output_extension="org.inkscape.output.svg.inkscape">
  <metadata
     id="metadata10">
    <rdf:RDF>
      <cc:Work
         rdf:about="">
        <dc:format>image/svg+xml</dc:format>
        <dc:type
           rdf:resource="http://purl.org/dc/dcmitype/StillImage" />
        <cc:license
           rdf:resource="http://web.resource.org/cc/PublicDomain" />
        <dc:language>en</dc:language>
      </cc:Work>
    </rdf:RDF>
  </metadata>
  <sodipodi:namedview
     inkscape:window-height="972"
     inkscape:window-width="1280"
     inkscape:pageshadow="2"
     inkscape:pageopacity="0.0"
     guidetolerance="10.0"
     gridtolerance="10.0"
     objecttolerance="10.0"
     borderopacity="1.0"
     bordercolor="#666666"
     pagecolor="#ffffff"
     id="base"
     showgrid="false"
     inkscape:zoom="2.8284271"
     inkscape:cx="299.62002"
     inkscape:cy="149.42053"
     inkscape:window-x="-8"
     inkscape:window-y="-8"
     inkscape:current-layer="svg2"
     inkscape:window-maximized="1" />
  <defs
     id="defs4">
    <inkscape:perspective
       sodipodi:type="inkscape:persp3d"
       inkscape:vp_x="0 : 290 : 1"
       inkscape:vp_y="0 : 1000 : 0"
       inkscape:vp_z="580 : 290 : 1"
       inkscape:persp3d-origin="290 : 193.33333 : 1"
       id="perspective12" />
    <style
       type="text/css"
       id="style6">
   
    .fil0 {fill:#EF7900}
   
  </style>
    <inkscape:perspective
       id="perspective6807"
       inkscape:persp3d-origin="29.116032 : 19.410688 : 1"
       inkscape:vp_z="58.232063 : 29.116032 : 1"
       inkscape:vp_y="0 : 1000 : 0"
       inkscape:vp_x="0 : 29.116032 : 1"
       sodipodi:type="inkscape:persp3d" />
    <inkscape:perspective
       id="perspective6954"
       inkscape:persp3d-origin="290 : 193.33333 : 1"
       inkscape:vp_z="580 : 290 : 1"
       inkscape:vp_y="0 : 1000 : 0"
       inkscape:vp_x="0 : 290 : 1"
       sodipodi:type="inkscape:persp3d" />
    <marker
       viewBox="0 0 10 10"
       refY="5"
       refX="10"
       orient="auto"
       markerWidth="4"
       markerUnits="strokeWidth"
       markerHeight="3"
       id="ArrowStart">
      <path
         id="path2295"
         d="M 10 0 L 0 5 L 10 10 z" />
    </marker>
    <marker
       viewBox="0 0 10 10"
       refY="5"
       refX="0"
       orient="auto"
       markerWidth="4"
       markerUnits="strokeWidth"
       markerHeight="3"
       id="ArrowEnd">
      <path
         id="path2292"
         d="M 0 0 L 10 5 L 0 10 z" />
    </marker>
    <inkscape:perspective
       id="perspective7597"
       inkscape:persp3d-origin="178.5405 : 158.483 : 1"
       inkscape:vp_z="357.08099 : 237.7245 : 1"
       inkscape:vp_y="0 : 1000 : 0"
       inkscape:vp_x="0 : 237.7245 : 1"
       sodipodi:type="inkscape:persp3d" />
  </defs>
  <g
     id="g2319"
     transform="translate(879.29125,36.805119)"
     style="fill:#000080">
    <path
       id="path2323"
       style="fill:#000080;stroke:none"
       d="" />
  </g>
  <g
     id="g2325"
     transform="translate(879.29125,36.805119)"
     style="fill:#000080">
    <path
       id="path2329"
       style="fill:#000080;stroke:none"
       d="" />
  </g>
  <path
     style="color:#000000;font-style:normal;font-variant:normal;font-weight:normal;font-stretch:normal;font-size:medium;line-height:normal;font-family:sans-serif;text-indent:0;text-align:start;text-decoration:none;text-decoration-line:none;text-decoration-style:solid;text-decoration-color:#000000;letter-spacing:normal;word-spacing:normal;text-transform:none;direction:ltr;block-progression:tb;writing-mode:lr-tb;baseline-shift:baseline;text-anchor:start;white-space:normal;clip-rule:nonzero;display:inline;overflow:visible;visibility:visible;opacity:1;isolation:auto;mix-blend-mode:normal;color-interpolation:sRGB;color-interpolation-filters:linearRGB;solid-color:#000000;solid-opacity:1;fill:#000080;fill-opacity:1;fill-rule:nonzero;stroke:none;stroke-width:13.24478531;stroke-linecap:round;stroke-linejoin:round;stroke-miterlimit:4;stroke-dasharray:none;stroke-dashoffset:0;stroke-opacity:1;color-rendering:auto;image-rendering:auto;shape-rendering:auto;text-rendering:auto;enable-background:accumulate"
     d="M 54.052734,22.732422 C 50.068684,22.733167 47.014477,26.271466 47.595703,30.212891 47.785798,31.502817 47.557437,34.740798 47.386719,38.234375 47.261752,40.791693 46.918959,43.710657 47.994141,46.84375 47.744573,47.549496 47.616455,48.292444 47.615234,49.041016 L 47.615234,534.20117 C 47.504814,534.86671 47.498226,535.54534 47.595703,536.21289 47.608561,536.30014 47.606058,536.46186 47.615234,536.56641 L 47.615234,539.63281 C 47.559181,540.99661 47.467908,542.57291 47.386719,544.23438 47.216001,547.72794 46.626695,551.89458 49.822266,556.36328 51.048045,558.07715 53.025705,559.09399 55.132812,559.09375 L 528.30859,559.09375 C 532.29252,559.09402 535.3476,555.55671 534.76758,551.61523 534.57748,550.3253 534.80389,547.08733 534.97461,543.59375 535.08618,541.31052 535.37026,538.73763 534.66602,535.98242 L 534.66602,48.015625 C 534.84809,47.228668 534.88252,46.414757 534.76758,45.615234 534.57748,44.325297 534.80389,41.087327 534.97461,37.59375 535.14533,34.100173 535.73465,29.93159 532.53906,25.462891 531.31328,23.749019 529.33562,22.732186 527.22852,22.732422 Z M 77.976562,53.09375 199.62695,53.09375 199.62695,236.12109 C 207.25532,232.56045 215.71904,230.47136 224.66992,230.25977 226.44574,230.21781 228.21039,230.25705 229.9668,230.36719 L 229.9668,174.21875 C 233.49256,184.98065 239.60266,194.64502 248.34766,203.16992 263.01137,217.46446 280.2761,224.5748 300.07227,224.57422 300.80221,224.57423 301.51622,224.55519 302.23828,224.53711 302.96852,224.55561 303.70115,224.57424 304.43945,224.57422 324.23563,224.5748 341.42613,217.46447 356.08984,203.16992 363.25438,196.18571 368.65378,188.43787 372.31445,179.94922 L 372.31445,230.36133 C 383.1625,231.03937 393.60832,234.51712 402.6543,240.39844 L 402.6543,53.09375 504.30469,53.09375 504.30469,528.73242 402.6543,528.73242 402.6543,494.71484 372.30757,520.42874 372.31445,501.53711 372.31445,230.36133 C 372.18789,230.35342 372.06221,230.33918 371.93555,230.33203 368.49968,229.48463 364.7,229.06847 360.5293,229.06836 L 243.98047,229.06836 C 239.5258,229.06848 235.46989,229.54695 231.85352,230.51367 231.22564,230.45637 230.59652,230.40668 229.9668,230.36719 L 229.9668,501.38672 229.95474,520.43631 C 226.82138,519.46298 202.6161,499.05894 199.62695,497.58594 L 199.62695,528.73242 77.976562,528.73242 Z M 199.62695,497.58594 199.62695,445.09375 C 199.6309,441.83487 202.00502,439.06313 205.22461,438.55859 212.00018,436.69524 215.7008,430.3526 216.7793,422.22266 L 216.77734,413.79883 C 216.6521,412.84411 216.51375,411.99277 216.34961,411.25977 216.33486,411.19163 216.32118,411.12326 216.30859,411.05469 215.69135,407.82428 214.1322,404.20724 212.08594,401.61133 210.03968,399.01542 207.75974,397.53251 205.30664,397.17969 202.04715,396.71064 199.62737,393.91807 199.62695,390.625 L 199.62695,236.12109 C 177.71957,246.34668 162.75554,268.80197 163.3457,294.50781 L 164.64453,440.94336 C 164.51377,463.5976 176.59932,484.55741 196.26367,495.80664 197.36923,496.43908 198.49361,497.02744 199.62695,497.58594 Z M 402.6543,494.71484 C 421.61392,483.01621 432.99079,462.14552 432.4668,439.82422 L 431.20312,293.35352 C 431.2923,276.38411 424.50746,260.08787 412.39844,248.19922 409.39849,245.25387 406.12564,242.65536 402.6543,240.39844 L 402.6543,390.6875 C 402.654,393.8159 400.46474,396.51746 397.4043,397.16602 393.97278,397.89329 391.52246,399.77701 389.46094,402.81055 387.39941,405.84408 385.99349,410.03422 385.51953,414.26758 L 385.55078,421.52734 C 385.73784,425.09466 387.15998,429.54636 389.36914,432.83398 391.5783,436.12161 394.25943,438.07872 397.06445,438.52148 400.28313,439.02982 402.65383,441.80393 402.6543,445.0625 Z M 229.9668,53.09375 372.31445,53.09375 372.31445,121.87305 C 368.65378,113.41684 363.25433,105.6977 356.08984,98.712891 341.42614,84.419641 324.23562,77.237055 304.43945,77.236328 303.70137,77.236351 302.9683,77.290067 302.23828,77.308594 301.51645,77.290483 300.80199,77.236351 300.07227,77.236328 280.27611,77.237055 263.01137,84.419641 248.34766,98.712891 239.60253,107.23869 233.49253,116.85987 229.9668,127.58203 Z M 229.9668,520.42383 372.31445,520.42383 372.31445,528.73242 229.9668,528.73242 Z"
     id="path4187"
     inkscape:connector-curvature="0"
     sodipodi:nodetypes="ccsccccccsccccscccscccccccccscccscccccccccccccccccccccccccccccscccccsccccscccsccscccccccccccccccccc" />
</svg>
