<?xml version="1.0" encoding="UTF-8" standalone="no"?>
<!-- Created with Inkscape (http://www.inkscape.org/) -->

<svg
   xmlns:dc="http://purl.org/dc/elements/1.1/"
   xmlns:cc="http://creativecommons.org/ns#"
   xmlns:rdf="http://www.w3.org/1999/02/22-rdf-syntax-ns#"
   xmlns:svg="http://www.w3.org/2000/svg"
   xmlns="http://www.w3.org/2000/svg"
   xmlns:sodipodi="http://sodipodi.sourceforge.net/DTD/sodipodi-0.dtd"
   xmlns:inkscape="http://www.inkscape.org/namespaces/inkscape"
   version="1.0"
   width="580"
   height="580"
   id="svg2"
   sodipodi:version="0.32"
   inkscape:version="0.91 r13725"
   sodipodi:docname="post_office.svg"
   inkscape:output_extension="org.inkscape.output.svg.inkscape">
  <defs
     id="defs3263">
    <inkscape:perspective
       sodipodi:type="inkscape:persp3d"
       inkscape:vp_x="0 : 290 : 1"
       inkscape:vp_y="0 : 1000 : 0"
       inkscape:vp_z="580 : 290 : 1"
       inkscape:persp3d-origin="290 : 193.33333 : 1"
       id="perspective3265" />
  </defs>
  <metadata
     id="metadata2975">
    <rdf:RDF>
      <cc:Work
         rdf:about="">
        <dc:format>image/svg+xml</dc:format>
        <dc:type
           rdf:resource="http://purl.org/dc/dcmitype/StillImage" />
        <cc:license
           rdf:resource="http://web.resource.org/cc/PublicDomain" />
        <dc:language>en</dc:language>
      </cc:Work>
    </rdf:RDF>
  </metadata>
  <sodipodi:namedview
     inkscape:window-height="947"
     inkscape:window-width="1048"
     inkscape:pageshadow="2"
     inkscape:pageopacity="0.0"
     guidetolerance="10.0"
     gridtolerance="10.0"
     objecttolerance="10.0"
     borderopacity="1.0"
     bordercolor="#666666"
     pagecolor="#ffffff"
     id="base"
     inkscape:zoom="0.92167712"
     inkscape:cx="280.21577"
     inkscape:cy="102.9553"
     inkscape:window-x="91"
     inkscape:window-y="25"
     inkscape:current-layer="svg2"
     showgrid="false"
     showguides="false"
     inkscape:window-maximized="0" />
  <g
     id="layer3"
     inkscape:label="Layout"
     style="display:none;stroke:#757575;stroke-opacity:1"
     transform="matrix(48.14969,0,0,48.14969,-536.27327,-33.306752)">
    <rect
       style="fill:none;stroke:#757575;stroke-width:0.10000000000000001;stroke-miterlimit:4;stroke-dasharray:none;stroke-opacity:1;display:inline"
       id="rect4134"
       width="10"
       height="10"
       x="1"
       y="1" />
    <rect
       style="fill:none;stroke:#757575;stroke-width:0.10000000000000001;stroke-miterlimit:4;stroke-dasharray:none;stroke-opacity:1;display:inline"
       id="rect4136"
       width="8"
       height="8"
       x="2"
       y="2" />
  </g>
  <path
     style="color:#000000;font-style:normal;font-variant:normal;font-weight:normal;font-stretch:normal;font-size:medium;line-height:normal;font-family:sans-serif;text-indent:0;text-align:start;text-decoration:none;text-decoration-line:none;text-decoration-style:solid;text-decoration-color:#000000;letter-spacing:normal;word-spacing:normal;text-transform:none;direction:ltr;block-progression:tb;writing-mode:lr-tb;baseline-shift:baseline;text-anchor:start;white-space:normal;clip-rule:nonzero;display:inline;overflow:visible;visibility:visible;opacity:1;isolation:auto;mix-blend-mode:normal;color-interpolation:sRGB;color-interpolation-filters:linearRGB;solid-color:#000000;solid-opacity:1;fill:#000080;fill-opacity:1;fill-rule:nonzero;stroke:none;stroke-width:25.1376152;stroke-linecap:butt;stroke-linejoin:miter;stroke-miterlimit:4;stroke-dasharray:none;stroke-dashoffset:0;stroke-opacity:1;color-rendering:auto;image-rendering:auto;shape-rendering:auto;text-rendering:auto;enable-background:accumulate"
     d="M 291.31445 7.3027344 C 133.96457 7.3027344 6.1523438 135.11693 6.1523438 292.4668 C 6.1523438 449.81668 133.96457 577.62891 291.31445 577.62891 C 448.66432 577.62891 576.47656 449.81668 576.47656 292.4668 C 576.47656 135.11693 448.66432 7.3027344 291.31445 7.3027344 z M 291.31445 31.107422 C 435.79976 31.107422 552.67188 147.9815 552.67188 292.4668 C 552.67188 436.95211 435.79976 553.82422 291.31445 553.82422 C 146.82914 553.82422 29.957031 436.95211 29.957031 292.4668 C 29.957031 147.9815 146.82914 31.107422 291.31445 31.107422 z M 105.70312 147.3125 L 105.70312 429.68164 L 477.52734 429.68164 L 477.52734 147.3125 L 105.70312 147.3125 z M 149.5 173.87305 L 431.85547 173.87305 L 313.05078 292.22266 C 307.14471 298.12861 299.68901 301.08216 290.68359 301.08203 C 281.36489 301.08216 273.59734 297.9727 267.37891 291.75391 L 149.5 173.87305 z M 131.79688 192.04688 L 228.24609 288.9668 L 131.79688 385.41602 L 131.79688 192.04688 z M 450.49609 192.04688 L 450.49609 385.41602 L 354.04688 288.9668 L 450.49609 192.04688 z M 245.94922 307.13867 L 250.14453 311.33398 C 261.33029 322.20724 274.8429 327.64269 290.68359 327.64258 C 306.52382 327.64269 319.8805 322.20724 330.75391 311.33398 L 334.94922 307.13867 L 431.85547 403.58984 L 149.0293 403.58984 L 245.94922 307.13867 z "
     id="path4147" />
</svg>
