<?xml version="1.0" encoding="UTF-8" standalone="no"?>
<!-- Created with Inkscape (http://www.inkscape.org/) -->

<svg
   xmlns:dc="http://purl.org/dc/elements/1.1/"
   xmlns:cc="http://creativecommons.org/ns#"
   xmlns:rdf="http://www.w3.org/1999/02/22-rdf-syntax-ns#"
   xmlns:svg="http://www.w3.org/2000/svg"
   xmlns="http://www.w3.org/2000/svg"
   xmlns:sodipodi="http://sodipodi.sourceforge.net/DTD/sodipodi-0.dtd"
   xmlns:inkscape="http://www.inkscape.org/namespaces/inkscape"
   version="1.0"
   width="580"
   height="580"
   id="svg2"
   sodipodi:version="0.32"
   inkscape:version="0.91 r13725"
   sodipodi:docname="public_building2.svg"
   inkscape:output_extension="org.inkscape.output.svg.inkscape">
  <metadata
     id="metadata2975">
    <rdf:RDF>
      <cc:Work
         rdf:about="">
        <dc:format>image/svg+xml</dc:format>
        <dc:type
           rdf:resource="http://purl.org/dc/dcmitype/StillImage" />
        <cc:license
           rdf:resource="http://web.resource.org/cc/PublicDomain" />
        <dc:language>en</dc:language>
        <dc:title />
      </cc:Work>
    </rdf:RDF>
  </metadata>
  <sodipodi:namedview
     inkscape:window-height="972"
     inkscape:window-width="1280"
     inkscape:pageshadow="2"
     inkscape:pageopacity="0.0"
     guidetolerance="10.0"
     gridtolerance="10.0"
     objecttolerance="10.0"
     borderopacity="1.0"
     bordercolor="#666666"
     pagecolor="#ffffff"
     id="base"
     inkscape:zoom="0.65172416"
     inkscape:cx="-50.733098"
     inkscape:cy="356.19651"
     inkscape:window-x="-8"
     inkscape:window-y="-8"
     inkscape:current-layer="svg2"
     showgrid="false"
     inkscape:window-maximized="1" />
  <defs
     id="defs4">
    <inkscape:perspective
       sodipodi:type="inkscape:persp3d"
       inkscape:vp_x="0 : 290 : 1"
       inkscape:vp_y="0 : 1000 : 0"
       inkscape:vp_z="580 : 290 : 1"
       inkscape:persp3d-origin="290 : 193.33333 : 1"
       id="perspective2441" />
    <inkscape:perspective
       id="perspective3452"
       inkscape:persp3d-origin="30 : 20 : 1"
       inkscape:vp_z="60 : 30 : 1"
       inkscape:vp_y="0 : 1000 : 0"
       inkscape:vp_x="0 : 30 : 1"
       sodipodi:type="inkscape:persp3d" />
    <symbol
       viewBox="244.5 110 489 219.9"
       id="symbol-university">
      <path
         id="path4460"
         d="M79,43l57,119c0,0,21-96,104-96s124,106,124,106l43-133l82-17L0,17L79,43z" />
      <path
         id="path4462"
         d="M94,176l-21,39"
         stroke-width="20"
         stroke="#000000"
         fill="none" />
      <path
         id="path4464"
         d="M300,19c0,10.5-22.6,19-50.5,19S199,29.5,199,19s22.6-19,50.5-19S300,8.5,300,19z" />
      <path
         id="path4466"
         d="M112,216l-16-38L64,88c0,0-9-8-4-35s16-24,16-24"
         stroke-width="20"
         stroke="#000000"
         ill="none" />
    </symbol>
    <inkscape:perspective
       id="perspective4471"
       inkscape:persp3d-origin="372.04724 : 350.78739 : 1"
       inkscape:vp_z="744.09448 : 526.18109 : 1"
       inkscape:vp_y="0 : 1000 : 0"
       inkscape:vp_x="0 : 526.18109 : 1"
       sodipodi:type="inkscape:persp3d" />
    <inkscape:perspective
       id="perspective4668"
       inkscape:persp3d-origin="6 : 4 : 1"
       inkscape:vp_z="12 : 6 : 1"
       inkscape:vp_y="0 : 1000 : 0"
       inkscape:vp_x="0 : 6 : 1"
       sodipodi:type="inkscape:persp3d" />
    <inkscape:perspective
       id="perspective4904"
       inkscape:persp3d-origin="16 : 10.666667 : 1"
       inkscape:vp_z="32 : 16 : 1"
       inkscape:vp_y="0 : 1000 : 0"
       inkscape:vp_x="0 : 16 : 1"
       sodipodi:type="inkscape:persp3d" />
  </defs>
  <g
     id="layer3"
     inkscape:label="Layout"
     style="display:none;stroke:#757575;stroke-opacity:1"
     transform="matrix(48.14969,0,0,48.14969,-536.27327,-33.306752)">
    <rect
       style="fill:none;stroke:#757575;stroke-width:0.10000000000000001;stroke-miterlimit:4;stroke-dasharray:none;stroke-opacity:1;display:inline"
       id="rect4134"
       width="10"
       height="10"
       x="1"
       y="1" />
    <rect
       style="fill:none;stroke:#757575;stroke-width:0.10000000000000001;stroke-miterlimit:4;stroke-dasharray:none;stroke-opacity:1;display:inline"
       id="rect4136"
       width="8"
       height="8"
       x="2"
       y="2" />
  </g>
  <path
     style="font-style:normal;font-variant:normal;font-weight:normal;font-stretch:normal;font-size:40px;line-height:125%;font-family:NPSPICT3;-inkscape-font-specification:NPSPICT3;text-align:start;writing-mode:lr-tb;text-anchor:start;fill:#000080;fill-opacity:1;stroke:none"
     d="M 288.69531 15.183594 A 7.4953927 7.4953927 0 0 0 284.17969 16.791016 L 284.1543 16.716797 L 95.246094 160.54297 A 7.4953927 7.4953927 0 0 0 99.785156 174.00195 L 130.07227 174.00195 L 130.07227 297.0332 C 125.72249 295.54026 121.10866 294.78338 116.21875 294.7832 C 115.7867 294.78322 115.3453 294.80751 114.91797 294.81836 C 114.49543 294.80773 114.07754 294.78321 113.65039 294.7832 C 102.06221 294.78363 91.968531 298.98271 83.384766 307.34961 C 74.801781 315.71733 70.510176 325.88345 70.509766 337.89062 C 70.510172 349.91165 74.801782 360.13303 83.384766 368.5 C 91.96853 376.86766 102.06221 381.03159 113.65039 381.03125 C 114.07766 381.03126 114.4953 381.0066 114.91797 380.99609 C 115.34544 381.00704 115.78658 381.03136 116.21875 381.03125 C 121.10855 381.03139 125.72257 380.2807 130.07227 378.79492 L 130.07227 390.68555 L 80.816406 390.68555 C 78.210323 390.68561 75.864006 390.98557 73.748047 391.55078 A 36.760687 36.760687 0 0 0 69.503906 391.38281 A 36.760687 36.760687 0 0 0 33.636719 428.98242 L 34.402344 514.71094 A 36.760687 36.760687 0 0 0 60.238281 549.94141 L 60.238281 561.22852 L 60.238281 564.48242 L 114.91797 562.87305 L 169.63086 564.48242 L 169.63086 561.22852 L 169.63086 548.34766 A 36.760687 36.760687 0 0 0 191.18359 514.05273 L 190.41602 428.32422 A 36.760687 36.760687 0 0 0 186.74609 412.22656 L 250.91406 412.22656 L 257.40234 412.22656 L 257.40234 440.87109 L 223.08398 440.87109 A 4.634107 4.634107 0 0 0 219.48047 448.41992 C 242.68174 477.1077 265.91691 505.76475 289.13281 534.43359 A 4.634107 4.634107 0 0 0 296.33984 534.42578 C 318.18726 507.32985 340.02503 480.22731 361.875 453.13672 L 364.30664 450.125 A 4.634107 4.634107 0 0 0 360.70312 442.58008 L 328.33594 442.58008 C 328.23737 432.46274 328.13783 422.34457 328.03711 412.22656 L 329.06836 412.22656 L 393.24805 412.22656 A 36.760687 36.760687 0 0 0 389.63672 428.98242 L 390.40234 514.71094 A 36.760687 36.760687 0 0 0 416.23828 549.94141 L 416.23828 561.22852 L 416.23828 564.48242 L 470.91797 562.87305 L 525.63086 564.48242 L 525.63086 561.22852 L 525.63086 548.34766 A 36.760687 36.760687 0 0 0 547.18359 514.05273 L 546.41602 428.32422 A 36.760687 36.760687 0 0 0 511.80664 391.46094 C 509.77375 390.95117 507.52962 390.68561 505.05469 390.68555 L 447.31836 390.68555 L 447.31836 374.75977 C 454.01302 378.93795 461.45615 381.03149 469.65039 381.03125 C 470.07766 381.03126 470.4953 381.0066 470.91797 380.99609 C 471.34544 381.00704 471.78658 381.03136 472.21875 381.03125 C 483.80693 381.03159 493.8674 376.86766 502.45117 368.5 C 511.03415 360.13303 515.32577 349.91165 515.32617 337.89062 C 515.32578 325.88345 511.03415 315.71733 502.45117 307.34961 C 493.8674 298.98271 483.80693 294.78363 472.21875 294.7832 C 471.7867 294.78322 471.3453 294.80751 470.91797 294.81836 C 470.49543 294.80773 470.07754 294.78321 469.65039 294.7832 C 461.45637 294.78351 454.01287 296.89232 447.31836 301.08008 L 447.31836 174.00195 L 477.60547 174.00195 A 7.4953927 7.4953927 0 0 0 482.14453 160.54297 L 293.23438 16.716797 L 293.23047 16.726562 A 7.4953927 7.4953927 0 0 0 288.69531 15.183594 z M 288.69531 32.099609 L 455.38672 159.01172 L 439.82227 159.01172 A 7.4953927 7.4953927 0 0 0 432.32812 166.50781 L 432.32812 316.17773 C 428.45598 322.59455 426.51004 329.82544 426.50977 337.89062 C 426.51003 345.96497 428.45612 353.22234 432.32812 359.65625 L 432.32812 391.00391 C 431.42623 391.13849 430.57508 391.32986 429.74805 391.55078 A 36.760687 36.760687 0 0 0 425.50391 391.38281 A 36.760687 36.760687 0 0 0 406.55078 397.23828 L 329.06836 397.23828 L 328.00586 397.23828 C 328.11705 386.10458 328.22747 374.97103 328.33594 363.83789 L 360.70312 363.83789 A 4.634107 4.634107 0 0 0 364.30664 356.29297 L 361.87695 353.2832 C 340.02641 326.19189 318.18783 299.08883 296.33984 271.99219 A 4.634107 4.634107 0 0 0 292.69727 270.26758 A 4.634107 4.634107 0 0 0 289.13281 271.98438 C 265.91691 300.65321 242.68174 329.31027 219.48047 357.99805 A 4.634107 4.634107 0 0 0 223.08398 365.54688 L 257.40234 365.54688 L 257.40234 397.23828 L 250.91406 397.23828 L 173.56641 397.23828 A 36.760687 36.760687 0 0 0 155.80664 391.46094 C 153.77375 390.95117 151.52962 390.68561 149.05469 390.68555 L 145.0625 390.68555 L 145.0625 369.79688 C 145.52881 369.37443 145.99328 368.94637 146.45117 368.5 C 155.03415 360.13303 159.32577 349.91165 159.32617 337.89062 C 159.32578 325.88345 155.03415 315.71733 146.45117 307.34961 C 145.99323 306.90324 145.52886 306.47342 145.0625 306.05078 L 145.0625 166.50781 A 7.4953927 7.4953927 0 0 0 137.56641 159.01172 L 122.00391 159.01172 L 288.69531 32.099609 z "
     id="path8791" />
</svg>
