<?xml version="1.0" encoding="UTF-8" standalone="no"?>
<!-- Created with Inkscape (http://www.inkscape.org/) -->

<svg
   xmlns:dc="http://purl.org/dc/elements/1.1/"
   xmlns:cc="http://creativecommons.org/ns#"
   xmlns:rdf="http://www.w3.org/1999/02/22-rdf-syntax-ns#"
   xmlns:svg="http://www.w3.org/2000/svg"
   xmlns="http://www.w3.org/2000/svg"
   xmlns:sodipodi="http://sodipodi.sourceforge.net/DTD/sodipodi-0.dtd"
   xmlns:inkscape="http://www.inkscape.org/namespaces/inkscape"
   version="1.0"
   width="580"
   height="580"
   id="svg2"
   sodipodi:version="0.32"
   inkscape:version="0.91 r13725"
   sodipodi:docname="toilets_women.svg"
   inkscape:output_extension="org.inkscape.output.svg.inkscape">
  <metadata
     id="metadata2975">
    <rdf:RDF>
      <cc:Work
         rdf:about="">
        <dc:format>image/svg+xml</dc:format>
        <dc:type
           rdf:resource="http://purl.org/dc/dcmitype/StillImage" />
        <cc:license
           rdf:resource="http://web.resource.org/cc/PublicDomain" />
        <dc:language>en</dc:language>
      </cc:Work>
    </rdf:RDF>
  </metadata>
  <sodipodi:namedview
     inkscape:window-height="972"
     inkscape:window-width="1280"
     inkscape:pageshadow="2"
     inkscape:pageopacity="0.0"
     guidetolerance="10.0"
     gridtolerance="10.0"
     objecttolerance="10.0"
     borderopacity="1.0"
     bordercolor="#666666"
     pagecolor="#ffffff"
     id="base"
     inkscape:zoom="0.92167712"
     inkscape:cx="133.34691"
     inkscape:cy="281.19503"
     inkscape:window-x="-8"
     inkscape:window-y="-8"
     inkscape:current-layer="svg2"
     showgrid="false"
     inkscape:window-maximized="1" />
  <defs
     id="defs4">
    <inkscape:perspective
       sodipodi:type="inkscape:persp3d"
       inkscape:vp_x="0 : 290 : 1"
       inkscape:vp_y="0 : 1000 : 0"
       inkscape:vp_z="580 : 290 : 1"
       inkscape:persp3d-origin="290 : 193.33333 : 1"
       id="perspective2441" />
    <inkscape:perspective
       id="perspective3452"
       inkscape:persp3d-origin="30 : 20 : 1"
       inkscape:vp_z="60 : 30 : 1"
       inkscape:vp_y="0 : 1000 : 0"
       inkscape:vp_x="0 : 30 : 1"
       sodipodi:type="inkscape:persp3d" />
    <symbol
       viewBox="244.5 110 489 219.9"
       id="symbol-university">
      <path
         id="path4460"
         d="M79,43l57,119c0,0,21-96,104-96s124,106,124,106l43-133l82-17L0,17L79,43z" />
      <path
         id="path4462"
         d="M94,176l-21,39"
         stroke-width="20"
         stroke="#000000"
         fill="none" />
      <path
         id="path4464"
         d="M300,19c0,10.5-22.6,19-50.5,19S199,29.5,199,19s22.6-19,50.5-19S300,8.5,300,19z" />
      <path
         id="path4466"
         d="M112,216l-16-38L64,88c0,0-9-8-4-35s16-24,16-24"
         stroke-width="20"
         stroke="#000000"
         ill="none" />
    </symbol>
    <inkscape:perspective
       id="perspective4471"
       inkscape:persp3d-origin="372.04724 : 350.78739 : 1"
       inkscape:vp_z="744.09448 : 526.18109 : 1"
       inkscape:vp_y="0 : 1000 : 0"
       inkscape:vp_x="0 : 526.18109 : 1"
       sodipodi:type="inkscape:persp3d" />
    <inkscape:perspective
       id="perspective4668"
       inkscape:persp3d-origin="6 : 4 : 1"
       inkscape:vp_z="12 : 6 : 1"
       inkscape:vp_y="0 : 1000 : 0"
       inkscape:vp_x="0 : 6 : 1"
       sodipodi:type="inkscape:persp3d" />
  </defs>
  <g
     id="layer3"
     inkscape:label="Layout"
     style="display:none;stroke:#757575;stroke-opacity:1"
     transform="matrix(48.14969,0,0,48.14969,-536.27327,-33.306752)">
    <rect
       style="fill:none;stroke:#757575;stroke-width:0.10000000000000001;stroke-miterlimit:4;stroke-dasharray:none;stroke-opacity:1;display:inline"
       id="rect4134"
       width="10"
       height="10"
       x="1"
       y="1" />
    <rect
       style="fill:none;stroke:#757575;stroke-width:0.10000000000000001;stroke-miterlimit:4;stroke-dasharray:none;stroke-opacity:1;display:inline"
       id="rect4136"
       width="8"
       height="8"
       x="2"
       y="2" />
  </g>
  <path
     style="font-size:40px;font-style:normal;font-variant:normal;font-weight:normal;font-stretch:normal;text-align:start;line-height:125%;writing-mode:lr-tb;text-anchor:start;fill:#000080;fill-opacity:1;stroke:none;stroke-width:1px;stroke-linecap:butt;stroke-linejoin:miter;stroke-opacity:1;font-family:NPSPICT3;-inkscape-font-specification:NPSPICT3"
     d="M 155.52734 27.269531 C 143.90548 27.270043 133.86825 31.493696 125.41406 39.939453 C 116.95958 48.386222 112.73229 58.684749 112.73242 70.837891 C 112.73229 82.460034 116.95958 92.495596 125.41406 100.94141 C 133.86825 109.38813 143.90548 113.60979 155.52734 113.60938 C 167.66464 113.60979 177.96147 109.38813 186.41602 100.94141 C 194.87014 92.495596 199.09742 82.460034 199.09766 70.837891 C 199.09742 58.684749 194.87014 48.386222 186.41602 39.939453 C 177.96147 31.493696 167.66464 27.270043 155.52734 27.269531 z M 111.16016 122.33789 C 97.94255 122.33831 86.055763 127.09379 75.498047 136.60352 C 67.567467 143.98635 62.287444 152.17404 59.660156 161.16797 L 23.199219 282.375 C 22.151438 285.01874 21.628839 287.3965 21.628906 289.50781 C 21.628839 301.66165 27.69642 307.73851 39.833984 307.73828 C 48.29629 307.73851 53.850561 302.98302 56.494141 293.47266 L 89.763672 182.54297 L 107.96875 182.54297 L 53.302734 379.8125 L 106.39648 379.8125 L 106.39648 533.51367 C 106.39635 547.24692 112.99773 554.1152 126.19922 554.11523 C 139.40037 554.1152 146.00177 547.24692 146.00195 533.51367 L 146.00195 379.03906 L 165.82812 379.03906 L 165.82812 534.3125 C 165.82793 547.51384 172.42736 554.1152 185.62891 554.11523 C 198.83 554.1152 205.43141 547.51384 205.43164 534.3125 L 205.43164 379.8125 L 258.50195 379.8125 L 203.0625 182.54297 L 222.06641 182.54297 L 255.33594 293.47266 C 257.97914 302.98302 263.52412 307.73851 271.9707 307.73828 C 284.12399 307.73851 290.20084 301.66165 290.20117 289.50781 C 290.20084 286.86457 289.6763 284.48681 288.62891 282.375 L 252.16797 161.16797 C 249.52418 152.70595 243.45661 144.51825 233.96289 136.60352 C 222.34095 127.09379 209.66271 122.33831 195.92969 122.33789 L 111.16016 122.33789 z M 494.07617 415.95508 C 473.7548 415.95521 458.03944 421.56653 446.93164 432.78906 C 435.82379 444.0118 430.27148 460.06956 430.27148 480.96484 C 430.27148 496.63641 433.42765 509.49521 439.74219 519.54102 C 446.0567 529.58689 453.56291 536.60607 462.25977 540.5957 C 470.95656 544.58534 482.16495 546.58008 495.88477 546.58008 C 507.19344 546.58008 516.50696 544.94395 523.82617 541.67188 C 531.14518 538.39981 537.27401 533.5485 542.21094 527.11914 C 547.14764 520.68982 550.76423 512.68234 553.06055 503.0957 L 518.875 492.76172 C 517.15276 500.74103 514.38374 506.82707 510.56641 511.01758 C 506.7489 515.20817 501.10903 517.30275 493.64648 517.30273 C 485.95417 517.30275 479.98423 514.70494 475.73633 509.50977 C 471.48832 504.31467 469.36323 494.71386 469.36328 480.70703 C 469.36323 469.39835 471.14202 461.1036 474.70117 455.82227 C 479.40831 448.70417 486.18303 445.14463 495.02344 445.14453 C 498.92689 445.14463 502.45788 445.94941 505.61523 447.55664 C 508.77241 449.16407 511.44158 451.46036 513.62305 454.44531 C 514.94327 456.22495 516.20652 459.03677 517.41211 462.88281 L 551.85352 455.21875 C 547.43322 441.90093 540.67472 432.02712 531.57617 425.59766 C 522.4774 419.16844 509.97722 415.95521 494.07617 415.95508 z M 245.48438 418.10742 L 273.55469 544.33984 L 311.78711 544.33984 L 333.83008 464.86328 L 355.96094 544.33984 L 394.19141 544.33984 L 422.00391 418.10742 L 385.15039 418.10742 L 371.80469 488.62891 L 352.25781 418.10742 L 315.31836 418.10742 L 295.85742 488.62891 L 282.50977 418.10742 L 245.48438 418.10742 z "
     id="flowRoot3192" />
</svg>
