<?xml version="1.0" encoding="UTF-8" standalone="no"?>
<!-- Created with Inkscape (http://www.inkscape.org/) -->

<svg
   xmlns:dc="http://purl.org/dc/elements/1.1/"
   xmlns:cc="http://creativecommons.org/ns#"
   xmlns:rdf="http://www.w3.org/1999/02/22-rdf-syntax-ns#"
   xmlns:svg="http://www.w3.org/2000/svg"
   xmlns="http://www.w3.org/2000/svg"
   xmlns:sodipodi="http://sodipodi.sourceforge.net/DTD/sodipodi-0.dtd"
   xmlns:inkscape="http://www.inkscape.org/namespaces/inkscape"
   version="1.0"
   width="580"
   height="580"
   id="svg2"
   sodipodi:version="0.32"
   inkscape:version="0.91 r13725"
   sodipodi:docname="fountain2.svg"
   inkscape:output_extension="org.inkscape.output.svg.inkscape">
  <metadata
     id="metadata2975">
    <rdf:RDF>
      <cc:Work
         rdf:about="">
        <dc:format>image/svg+xml</dc:format>
        <dc:type
           rdf:resource="http://purl.org/dc/dcmitype/StillImage" />
        <cc:license
           rdf:resource="http://web.resource.org/cc/PublicDomain" />
        <dc:language>en</dc:language>
        <dc:title />
      </cc:Work>
    </rdf:RDF>
  </metadata>
  <sodipodi:namedview
     inkscape:window-height="972"
     inkscape:window-width="1280"
     inkscape:pageshadow="2"
     inkscape:pageopacity="0.0"
     guidetolerance="10.0"
     gridtolerance="10.0"
     objecttolerance="10.0"
     borderopacity="1.0"
     bordercolor="#666666"
     pagecolor="#ffffff"
     id="base"
     inkscape:zoom="0.92167712"
     inkscape:cx="209.38864"
     inkscape:cy="282.49756"
     inkscape:window-x="-8"
     inkscape:window-y="-8"
     inkscape:current-layer="svg2"
     showgrid="false"
     inkscape:window-maximized="1" />
  <defs
     id="defs4">
    <inkscape:perspective
       sodipodi:type="inkscape:persp3d"
       inkscape:vp_x="0 : 290 : 1"
       inkscape:vp_y="0 : 1000 : 0"
       inkscape:vp_z="580 : 290 : 1"
       inkscape:persp3d-origin="290 : 193.33333 : 1"
       id="perspective2441" />
    <inkscape:perspective
       id="perspective3452"
       inkscape:persp3d-origin="30 : 20 : 1"
       inkscape:vp_z="60 : 30 : 1"
       inkscape:vp_y="0 : 1000 : 0"
       inkscape:vp_x="0 : 30 : 1"
       sodipodi:type="inkscape:persp3d" />
    <symbol
       viewBox="244.5 110 489 219.9"
       id="symbol-university">
      <path
         id="path4460"
         d="M79,43l57,119c0,0,21-96,104-96s124,106,124,106l43-133l82-17L0,17L79,43z" />
      <path
         id="path4462"
         d="M94,176l-21,39"
         stroke-width="20"
         stroke="#000000"
         fill="none" />
      <path
         id="path4464"
         d="M300,19c0,10.5-22.6,19-50.5,19S199,29.5,199,19s22.6-19,50.5-19S300,8.5,300,19z" />
      <path
         id="path4466"
         d="M112,216l-16-38L64,88c0,0-9-8-4-35s16-24,16-24"
         stroke-width="20"
         stroke="#000000"
         ill="none" />
    </symbol>
    <inkscape:perspective
       id="perspective4471"
       inkscape:persp3d-origin="372.04724 : 350.78739 : 1"
       inkscape:vp_z="744.09448 : 526.18109 : 1"
       inkscape:vp_y="0 : 1000 : 0"
       inkscape:vp_x="0 : 526.18109 : 1"
       sodipodi:type="inkscape:persp3d" />
    <inkscape:perspective
       id="perspective4668"
       inkscape:persp3d-origin="6 : 4 : 1"
       inkscape:vp_z="12 : 6 : 1"
       inkscape:vp_y="0 : 1000 : 0"
       inkscape:vp_x="0 : 6 : 1"
       sodipodi:type="inkscape:persp3d" />
    <inkscape:perspective
       id="perspective4725"
       inkscape:persp3d-origin="0.5 : 0.33333333 : 1"
       inkscape:vp_z="1 : 0.5 : 1"
       inkscape:vp_y="0 : 1000 : 0"
       inkscape:vp_x="0 : 0.5 : 1"
       sodipodi:type="inkscape:persp3d" />
    <inkscape:perspective
       id="perspective6330"
       inkscape:persp3d-origin="0.5 : 0.33333333 : 1"
       inkscape:vp_z="1 : 0.5 : 1"
       inkscape:vp_y="0 : 1000 : 0"
       inkscape:vp_x="0 : 0.5 : 1"
       sodipodi:type="inkscape:persp3d" />
    <inkscape:perspective
       id="perspective6376"
       inkscape:persp3d-origin="0.5 : 0.33333333 : 1"
       inkscape:vp_z="1 : 0.5 : 1"
       inkscape:vp_y="0 : 1000 : 0"
       inkscape:vp_x="0 : 0.5 : 1"
       sodipodi:type="inkscape:persp3d" />
    <inkscape:perspective
       id="perspective6376-2"
       inkscape:persp3d-origin="0.5 : 0.33333333 : 1"
       inkscape:vp_z="1 : 0.5 : 1"
       inkscape:vp_y="0 : 1000 : 0"
       inkscape:vp_x="0 : 0.5 : 1"
       sodipodi:type="inkscape:persp3d" />
    <inkscape:perspective
       id="perspective6407"
       inkscape:persp3d-origin="0.5 : 0.33333333 : 1"
       inkscape:vp_z="1 : 0.5 : 1"
       inkscape:vp_y="0 : 1000 : 0"
       inkscape:vp_x="0 : 0.5 : 1"
       sodipodi:type="inkscape:persp3d" />
    <inkscape:perspective
       id="perspective6629"
       inkscape:persp3d-origin="0.5 : 0.33333333 : 1"
       inkscape:vp_z="1 : 0.5 : 1"
       inkscape:vp_y="0 : 1000 : 0"
       inkscape:vp_x="0 : 0.5 : 1"
       sodipodi:type="inkscape:persp3d" />
    <inkscape:perspective
       id="perspective6660"
       inkscape:persp3d-origin="0.5 : 0.33333333 : 1"
       inkscape:vp_z="1 : 0.5 : 1"
       inkscape:vp_y="0 : 1000 : 0"
       inkscape:vp_x="0 : 0.5 : 1"
       sodipodi:type="inkscape:persp3d" />
    <inkscape:perspective
       id="perspective8099"
       inkscape:persp3d-origin="0.5 : 0.33333333 : 1"
       inkscape:vp_z="1 : 0.5 : 1"
       inkscape:vp_y="0 : 1000 : 0"
       inkscape:vp_x="0 : 0.5 : 1"
       sodipodi:type="inkscape:persp3d" />
  </defs>
  <g
     id="layer3"
     inkscape:label="Layout"
     style="display:none;stroke:#757575;stroke-opacity:1"
     transform="matrix(48.14969,0,0,48.14969,-536.27327,-33.306752)">
    <rect
       style="fill:none;stroke:#757575;stroke-width:0.10000000000000001;stroke-miterlimit:4;stroke-dasharray:none;stroke-opacity:1;display:inline"
       id="rect4134"
       width="10"
       height="10"
       x="1"
       y="1" />
    <rect
       style="fill:none;stroke:#757575;stroke-width:0.10000000000000001;stroke-miterlimit:4;stroke-dasharray:none;stroke-opacity:1;display:inline"
       id="rect4136"
       width="8"
       height="8"
       x="2"
       y="2" />
  </g>
  <path
     style="color:#000000;font-style:normal;font-variant:normal;font-weight:normal;font-stretch:normal;font-size:medium;line-height:normal;font-family:'Berliner Grotesk Light';-inkscape-font-specification:'Berliner Grotesk Light';text-indent:0;text-align:start;text-decoration:none;text-decoration-line:none;letter-spacing:normal;word-spacing:normal;text-transform:none;direction:ltr;block-progression:tb;writing-mode:lr-tb;text-anchor:start;display:inline;overflow:visible;visibility:visible;fill:#000080;fill-opacity:1;stroke:none;stroke-width:0.50700003;marker:none;enable-background:accumulate"
     d="M 246.62695 38.212891 C 243.65483 38.165416 240.49478 39.166412 238.25781 40.652344 C 231.09945 45.439261 226.25021 52.358475 222.62891 62.830078 C 219.71187 71.264847 213.18998 93.38386 207.87891 120.76758 C 202.56787 148.1513 202.52848 163.82826 200.74414 187.59961 C 203.50861 163.68632 208.56613 148.53341 214.83789 122.36328 C 221.86336 96.888644 232.68567 76.49229 237.37891 68.763672 C 240.66072 63.359317 242.74724 59.533889 244.38477 59.501953 C 247.08867 59.501953 249.99988 67.767105 252.57031 77.550781 C 249.53236 90.204016 245.81838 108.45821 244.54102 119.92578 C 242.77853 135.74851 240.9827 180.31055 241.20312 180.31055 C 241.20312 180.31055 248.65668 131.05843 250.4707 120.11133 C 251.54171 113.64808 253.79816 103.44383 256.35156 93.707031 C 256.52818 94.52658 256.72006 95.392635 256.88672 96.175781 C 264.24153 130.73934 270.97183 187.34181 276.30664 272.80078 C 274.02312 258.85901 271.58865 247.49737 269.13281 238.1582 C 267.28006 231.11444 266.03202 224.47808 263.87109 219.84375 C 261.71017 215.20942 258.70105 211.44466 254.39844 208.64844 C 252.24694 207.26453 250.0262 206.44953 247.03125 206.62695 L 247.03125 206.59766 L 247.0293 206.59766 L 247.0293 206.54883 C 244.03445 206.90367 241.60707 208.14441 239.66211 209.63477 C 236.95769 211.68239 235.00417 214.0718 233.32812 216.88281 C 229.61003 213.08149 225.49248 210.32066 220.7168 208.65234 C 215.32298 206.77164 209.11678 206.52325 203.87695 208.65234 L 203.87695 208.62695 L 203.87695 208.625 L 203.87695 208.60938 L 203.87695 208.58203 C 203.20252 208.85607 202.54455 209.15323 201.89844 209.46875 C 200.13692 208.71186 198.3446 208.07481 196.50977 207.5957 L 196.50977 207.58398 L 196.50977 207.57812 L 196.50977 207.56641 C 190.78074 206.07864 184.80049 206.19817 178.96094 207.63477 C 178.84577 207.60858 178.73256 207.57417 178.61719 207.54883 L 178.61719 207.56641 C 164.82961 204.51471 150.15517 208.70222 137.56836 217.74023 C 124.98155 226.7605 113.83146 240.95713 102.83594 259.45898 C 80.844932 296.46621 60.939535 361.18505 54.855469 390.54883 C 48.771404 419.91616 41.74908 454.02792 38.804688 479.35352 C 44.038629 455.10311 53.730225 418.63436 61.779297 390.67578 C 69.828335 362.71366 94.296599 299.33841 115.33789 267.61133 C 125.85145 251.7622 137.03285 239.40118 146.4707 232.1875 C 140.8399 239.78212 135.48578 248.90087 130.20117 259.45898 C 111.71897 296.38814 98.921909 345.31603 91.71875 388.41602 C 84.515591 431.51247 81.013672 481.29102 81.013672 481.29102 C 81.013672 481.29102 89.882166 432.92101 98.125 390.04102 C 106.36783 347.16458 123.02497 301.13673 140.31055 266.5957 C 148.95333 249.32518 163.20615 237.82391 171.24805 230.98242 C 174.19283 228.47591 176.95531 226.63642 179.58594 225.38281 C 180.97046 225.88793 182.41086 226.49665 183.89258 227.19141 C 178.27278 235.85521 173.13569 246.98091 168.0918 260.47852 C 154.3568 297.23027 142.87088 349.91149 136.11328 394.13281 C 129.35568 438.35413 128.18945 474.62891 128.18945 474.62891 C 128.18945 474.62891 134.92342 440.13558 144.76758 395.4707 C 154.61174 350.79517 169.41662 301.31452 182.39062 266.59961 C 187.24781 253.60182 193.00506 243.27222 198.04883 236.10156 C 205.27831 241.81768 212.83346 249.64328 219.98828 259.9707 C 219.8804 260.4996 219.77207 260.99187 219.66406 261.5293 C 212.35592 297.89071 204.89912 353.55881 199.66602 425.35547 L 199.34375 473.34961 L 209.37305 426.35938 C 214.04028 362.32834 222.86964 311.41251 229.73633 276.23242 C 232.96539 282.46871 236.01819 289.33971 238.80469 296.90625 C 249.71102 326.51946 261.12394 365.26693 270.65625 413.19922 C 273.44262 433.12463 276.01289 454.67264 278.37695 477.86914 C 271.54861 478.12006 264.5271 478.64308 257.2793 479.49805 L 257.41406 479.75 C 185.60714 488.90628 134.97756 525.44516 69.333984 523.33203 L 69.333984 538.07031 L 288.60352 538.07031 L 507.875 538.07031 L 507.875 523.33203 C 442.23084 525.44518 391.60091 488.90587 319.79297 479.75 L 319.92773 479.49805 C 312.68012 478.6431 305.6602 478.12007 298.83203 477.86914 C 301.19609 454.67264 303.76636 433.12463 306.55273 413.19922 C 316.08505 365.26693 327.49796 326.51946 338.4043 296.90625 C 341.1908 289.33971 344.24359 282.46871 347.47266 276.23242 C 354.33934 311.41251 363.16675 362.32838 367.83398 426.35938 L 377.86523 473.34961 L 377.54102 425.35547 C 372.30792 353.55881 364.85306 297.89071 357.54492 261.5293 C 357.43692 260.99187 357.32858 260.4996 357.2207 259.9707 C 364.37553 249.64328 371.93067 241.81768 379.16016 236.10156 C 384.20392 243.27222 389.96118 253.60183 394.81836 266.59961 C 407.79236 301.31452 422.59725 350.79517 432.44141 395.4707 C 442.28557 440.13558 449.01953 474.62891 449.01953 474.62891 C 449.01953 474.62891 447.8533 438.35413 441.0957 394.13281 C 434.3381 349.91149 422.85219 297.23027 409.11719 260.47852 C 404.0733 246.98091 398.9362 235.85521 393.31641 227.19141 C 394.79768 226.49688 396.23891 225.88977 397.62305 225.38477 C 400.25298 226.63835 403.01507 228.47665 405.95898 230.98242 C 414.00088 237.82391 428.25566 249.32518 436.89844 266.5957 C 454.18402 301.13673 470.84115 347.16458 479.08398 390.04102 C 487.32681 432.92101 496.19531 481.29102 496.19531 481.29102 C 496.19531 481.29102 492.69339 431.51247 485.49023 388.41602 C 478.28708 345.31603 465.49001 296.38814 447.00781 259.45898 C 441.7232 248.90087 436.36908 239.78212 430.73828 232.1875 C 440.17614 239.40118 451.35753 251.7622 461.87109 267.61133 C 482.91238 299.33841 507.38065 362.71366 515.42969 390.67578 C 523.47876 418.63436 533.17036 455.10311 538.4043 479.35352 C 535.45991 454.02792 528.43759 419.91616 522.35352 390.54883 C 516.26946 361.18505 496.36405 296.46621 474.37305 259.45898 C 463.37753 240.95713 452.22744 226.7605 439.64062 217.74023 C 427.05381 208.70222 412.37938 204.51471 398.5918 207.56641 L 398.5918 207.54883 C 398.47643 207.57417 398.36322 207.60858 398.24805 207.63477 C 392.40849 206.19817 386.42825 206.07864 380.69922 207.56641 L 380.69922 207.57812 L 380.69922 207.58398 L 380.69922 207.5957 C 378.86475 208.07471 377.07173 208.71206 375.31055 209.46875 C 374.66444 209.15323 374.00646 208.85607 373.33203 208.58203 L 373.33203 208.60938 L 373.33203 208.625 L 373.33203 208.62695 L 373.33203 208.65234 C 368.0922 206.52325 361.88601 206.77164 356.49219 208.65234 C 351.7165 210.32066 347.59895 213.08149 343.88086 216.88281 C 342.20482 214.0718 340.25129 211.68239 337.54688 209.63477 C 335.60191 208.14441 333.17454 206.90367 330.17969 206.54883 L 330.17969 206.59766 L 330.17773 206.59766 L 330.17773 206.62695 C 327.18278 206.44953 324.96205 207.26453 322.81055 208.64844 C 318.50794 211.44466 315.49881 215.20942 313.33789 219.84375 C 311.17696 224.47808 309.92892 231.11444 308.07617 238.1582 C 305.62034 247.49737 303.18586 258.85901 300.90234 272.80078 C 306.23715 187.34181 312.9655 130.73934 320.32031 96.175781 C 320.48721 95.391506 320.67858 94.523902 320.85547 93.703125 C 323.40932 103.44116 325.66712 113.64716 326.73828 120.11133 C 328.5523 131.05843 336.00586 180.31055 336.00586 180.31055 C 336.22629 180.31055 334.43046 135.74851 332.66797 119.92578 C 331.39055 108.45768 327.67671 90.202124 324.63867 77.548828 C 327.20898 67.765999 330.1205 59.501953 332.82422 59.501953 C 334.46175 59.533889 336.54827 63.359317 339.83008 68.763672 C 344.52332 76.49229 355.34562 96.888644 362.37109 122.36328 C 368.64285 148.53341 373.69842 163.68632 376.46289 187.59961 C 374.67855 163.82826 374.63916 148.1513 369.32812 120.76758 C 364.01706 93.38386 357.49517 71.264847 354.57812 62.830078 C 350.95683 52.358475 346.10953 45.439261 338.95117 40.652344 C 335.37203 38.274853 329.4283 37.139758 325.67578 39.552734 L 325.67578 39.544922 L 325.67578 39.542969 C 321.9231 41.955945 320.44509 45.595256 318.52734 49.523438 C 318.04739 50.505764 317.57207 51.534523 317.10547 52.613281 C 315.45835 48.11487 313.83503 44.370925 312.48828 42.876953 C 309.86537 39.970737 309.32016 38.45241 304.83594 38.445312 C 300.44224 38.438359 291.29138 49.594391 288.60352 82.949219 C 285.91564 49.594467 276.76674 38.438359 272.37305 38.445312 C 267.88883 38.45241 267.34361 39.970737 264.7207 42.876953 C 263.37373 44.371178 261.74897 48.115802 260.10156 52.615234 C 259.63473 51.535894 259.16184 50.50625 258.68164 49.523438 C 256.76389 45.595256 255.28588 41.955945 251.5332 39.542969 L 251.5332 39.544922 L 251.5332 39.552734 C 250.12601 38.647868 248.41023 38.241376 246.62695 38.212891 z M 272.9043 60.421875 C 275.61455 60.414778 278.89421 68.706252 281.56445 107.46289 C 282.74084 124.53926 283.28881 163.82857 283.70117 220.11328 C 279.39177 157.62653 274.36931 112.90616 268.89453 83.898438 C 267.75737 77.873292 266.55343 72.582075 265.28711 67.890625 C 268.09979 62.965301 271.00744 60.426842 272.9043 60.421875 z M 304.30273 60.421875 C 306.19959 60.426842 309.1092 62.965301 311.92188 67.890625 C 310.65555 72.582075 309.45162 77.873292 308.31445 83.898438 C 302.83875 112.91106 297.81379 157.6412 293.50391 220.14453 C 293.91629 163.84261 294.46598 124.54244 295.64258 107.46289 C 298.31282 68.706252 301.59248 60.414778 304.30273 60.421875 z M 247.03125 225.91602 C 247.41959 226.51926 247.65598 225.91625 248.08203 226.94531 C 249.60404 230.20993 253.57623 235.803 256.46094 241.88867 C 262.27738 254.15936 266.57386 273.23466 269.67969 298.16992 C 271.60624 313.63624 273.6301 331.46936 275.60547 351.69141 C 272.24776 330.79572 268.66162 312.31049 264.92188 296.16211 C 259.01449 270.65554 253.01307 250.51413 245.97656 236.125 C 245.2962 234.73371 244.61042 233.40536 243.91992 232.10938 C 244.69262 230.56925 245.41302 229.13842 245.97852 227.93945 C 246.59082 226.66199 246.50416 226.69669 247.03125 225.91602 z M 330.17773 225.91602 C 330.70482 226.69669 330.61817 226.66199 331.23047 227.93945 C 331.79596 229.13842 332.51636 230.56925 333.28906 232.10938 C 332.59856 233.40536 331.91279 234.73371 331.23242 236.125 C 324.19591 250.51413 318.19449 270.65554 312.28711 296.16211 C 308.54931 312.30209 304.96363 330.77592 301.60742 351.6582 C 303.58174 331.45018 305.60383 313.62757 307.5293 298.16992 C 310.63513 273.23466 314.93161 254.15936 320.74805 241.88867 C 323.63276 235.803 327.60299 230.20993 329.125 226.94531 C 329.55105 225.91625 329.78939 226.51926 330.17773 225.91602 z M 350.56836 231.43164 C 350.45482 231.59141 350.33975 231.7471 350.22656 231.9082 C 350.2143 231.87021 350.20173 231.83479 350.18945 231.79688 C 350.3155 231.67165 350.44213 231.55323 350.56836 231.43164 z M 226.64258 231.43359 C 226.76815 231.55456 226.89415 231.6723 227.01953 231.79688 C 227.00726 231.83479 226.99469 231.87021 226.98242 231.9082 C 226.86976 231.74785 226.75559 231.59262 226.64258 231.43359 z M 236.91797 247.70117 C 242.17474 258.85355 248.61443 273.94102 253.41992 292.04297 C 248.0071 274.89208 242.60496 260.32696 236.66797 248.37695 C 236.75136 248.15162 236.83406 247.92369 236.91797 247.70117 z M 340.29102 247.70117 C 340.37492 247.92369 340.45762 248.15162 340.54102 248.37695 C 334.60176 260.33152 329.1981 274.90307 323.7832 292.0625 C 328.58925 273.95186 335.03235 258.85756 340.29102 247.70117 z "
     id="path2853" />
</svg>
