<?xml version="1.0" encoding="UTF-8" standalone="no"?>
<!-- Created with Inkscape (http://www.inkscape.org/) -->

<svg
   xmlns:dc="http://purl.org/dc/elements/1.1/"
   xmlns:cc="http://creativecommons.org/ns#"
   xmlns:rdf="http://www.w3.org/1999/02/22-rdf-syntax-ns#"
   xmlns:svg="http://www.w3.org/2000/svg"
   xmlns="http://www.w3.org/2000/svg"
   xmlns:sodipodi="http://sodipodi.sourceforge.net/DTD/sodipodi-0.dtd"
   xmlns:inkscape="http://www.inkscape.org/namespaces/inkscape"
   version="1.0"
   width="580"
   height="580"
   id="svg2"
   sodipodi:version="0.32"
   inkscape:version="0.91 r13725"
   sodipodi:docname="waste_bin.svg"
   inkscape:output_extension="org.inkscape.output.svg.inkscape">
  <defs
     id="defs22">
    <inkscape:perspective
       sodipodi:type="inkscape:persp3d"
       inkscape:vp_x="0 : 290 : 1"
       inkscape:vp_y="0 : 1000 : 0"
       inkscape:vp_z="580 : 290 : 1"
       inkscape:persp3d-origin="290 : 193.33333 : 1"
       id="perspective24" />
    <marker
       viewBox="0 0 10 10"
       refY="5"
       refX="10"
       orient="auto"
       markerWidth="4"
       markerUnits="strokeWidth"
       markerHeight="3"
       id="ArrowStart">
      <path
         id="path3568"
         d="M 10 0 L 0 5 L 10 10 z" />
    </marker>
    <marker
       viewBox="0 0 10 10"
       refY="5"
       refX="0"
       orient="auto"
       markerWidth="4"
       markerUnits="strokeWidth"
       markerHeight="3"
       id="ArrowEnd">
      <path
         id="path3565"
         d="M 0 0 L 10 5 L 0 10 z" />
    </marker>
    <inkscape:perspective
       id="perspective2683"
       inkscape:persp3d-origin="306.082 : 204.39034 : 1"
       inkscape:vp_z="612.164 : 306.58551 : 1"
       inkscape:vp_y="0 : 1000 : 0"
       inkscape:vp_x="0 : 306.58551 : 1"
       sodipodi:type="inkscape:persp3d" />
    <marker
       viewBox="0 0 10 10"
       refY="5"
       refX="10"
       orient="auto"
       markerWidth="4"
       markerUnits="strokeWidth"
       markerHeight="3"
       id="marker2959">
      <path
         id="path2626"
         d="M 10 0 L 0 5 L 10 10 z" />
    </marker>
    <marker
       viewBox="0 0 10 10"
       refY="5"
       refX="0"
       orient="auto"
       markerWidth="4"
       markerUnits="strokeWidth"
       markerHeight="3"
       id="marker2956">
      <path
         id="path2623"
         d="M 0 0 L 10 5 L 0 10 z" />
    </marker>
    <inkscape:perspective
       id="perspective2953"
       inkscape:persp3d-origin="306.082 : 204.39034 : 1"
       inkscape:vp_z="612.164 : 306.58551 : 1"
       inkscape:vp_y="0 : 1000 : 0"
       inkscape:vp_x="0 : 306.58551 : 1"
       sodipodi:type="inkscape:persp3d" />
    <marker
       viewBox="0 0 10 10"
       refY="5"
       refX="10"
       orient="auto"
       markerWidth="4"
       markerUnits="strokeWidth"
       markerHeight="3"
       id="marker3077">
      <path
         id="path3298"
         d="M 10 0 L 0 5 L 10 10 z" />
    </marker>
    <marker
       viewBox="0 0 10 10"
       refY="5"
       refX="0"
       orient="auto"
       markerWidth="4"
       markerUnits="strokeWidth"
       markerHeight="3"
       id="marker3074">
      <path
         id="path3295"
         d="M 0 0 L 10 5 L 0 10 z" />
    </marker>
    <inkscape:perspective
       id="perspective3071"
       inkscape:persp3d-origin="180.936 : 163.92867 : 1"
       inkscape:vp_z="361.87201 : 245.89301 : 1"
       inkscape:vp_y="0 : 1000 : 0"
       inkscape:vp_x="0 : 245.89301 : 1"
       sodipodi:type="inkscape:persp3d" />
  </defs>
  <metadata
     id="metadata10">
    <rdf:RDF>
      <cc:Work
         rdf:about="">
        <dc:format>image/svg+xml</dc:format>
        <dc:type
           rdf:resource="http://purl.org/dc/dcmitype/StillImage" />
        <cc:license
           rdf:resource="http://web.resource.org/cc/PublicDomain" />
        <dc:language>en</dc:language>
      </cc:Work>
    </rdf:RDF>
  </metadata>
  <sodipodi:namedview
     inkscape:window-height="1005"
     inkscape:window-width="1280"
     inkscape:pageshadow="2"
     inkscape:pageopacity="0.0"
     guidetolerance="10.0"
     gridtolerance="10.0"
     objecttolerance="10.0"
     borderopacity="1.0"
     bordercolor="#666666"
     pagecolor="#ffffff"
     id="base"
     showgrid="false"
     inkscape:zoom="0.70710678"
     inkscape:cx="396.05862"
     inkscape:cy="415.25176"
     inkscape:window-x="-4"
     inkscape:window-y="-4"
     inkscape:current-layer="svg2"
     inkscape:window-maximized="0" />
  <path
     inkscape:connector-curvature="0"
     d=""
     style="fill:#ffffff;stroke:none;marker-end:"
     id="path2323" />
  <path
     inkscape:connector-curvature="0"
     d=""
     style="fill:#ffffff;stroke:none;marker-end:"
     id="path2329" />
  <path
     style="fill:#000080;stroke:none"
     d="M 374.55859,44.193359 C 352.00759,44.193359 333.72461,62.477795 333.72461,85.029297 333.72461,107.5808 352.00759,125.86328 374.55859,125.86328 397.10959,125.86328 415.39258,107.5808 415.39258,85.029297 415.39258,62.477795 397.10959,44.193359 374.55859,44.193359 Z M 345.0625,137.34961 C 327.8405,137.34961 315.33984,144.16602 304.83984,159.16602 L 268.08984,212.7207 204.32031,212.7207 C 178.69631,212.7207 180.13384,249.06055 203.83984,249.06055 L 277.33984,249.06055 C 283.09084,249.06055 290.09028,246.91611 294.11328,240.91211 L 322.08984,200.91602 322.33984,512.66602 C 322.33984,543.85002 368.19922,543.56417 368.19922,511.95117 L 368.22461,330.58594 377.15234,330.5 377.12305,511.86719 C 377.12305,543.47919 423.51562,544.27802 423.51562,512.66602 L 423.54297,199.60938 431.60156,199.60938 431.60156,311.4043 C 431.60156,338.2423 468.02148,338.24277 468.02148,311.88477 L 468.02148,189.58594 C 468.02148,156.70994 443.55283,137.34961 417.67383,137.34961 Z M 176.43945,263.01562 154.6875,284.76367 176.43945,306.51562 198.19141,284.76367 Z M 196.73047,304.09375 174.98047,325.8457 196.73047,347.59375 218.48047,325.8457 Z M 252.94531,329.59375 218.96094,507.04102 168.57812,507.04102 135.32227,329.66602 106.14844,329.66602 144.19727,535.75391 243.33984,535.75391 282.11719,329.59375 Z M 172.41016,362.25781 172.41016,392.11914 202.27148,392.11914 202.27148,362.25781 Z"
     id="path3304"
     inkscape:connector-curvature="0"
     sodipodi:nodetypes="zzzzzsccsssccccccccccssssscccccccccccccccccccccccc" />
  <path
     style="fill:#ffffff;stroke:none"
     id="path3316"
     d=""
     inkscape:connector-curvature="0" />
  <path
     style="fill:#ffffff;stroke:none"
     id="path3322"
     d=""
     inkscape:connector-curvature="0" />
  <path
     style="fill:#ffffff;stroke:none"
     id="path3328"
     d=""
     inkscape:connector-curvature="0" />
</svg>
