<?xml version="1.0" encoding="UTF-8" standalone="no"?>
<!-- Created with Inkscape (http://www.inkscape.org/) -->

<svg
   xmlns:dc="http://purl.org/dc/elements/1.1/"
   xmlns:cc="http://creativecommons.org/ns#"
   xmlns:rdf="http://www.w3.org/1999/02/22-rdf-syntax-ns#"
   xmlns:svg="http://www.w3.org/2000/svg"
   xmlns="http://www.w3.org/2000/svg"
   xmlns:sodipodi="http://sodipodi.sourceforge.net/DTD/sodipodi-0.dtd"
   xmlns:inkscape="http://www.inkscape.org/namespaces/inkscape"
   version="1.0"
   width="580"
   height="580"
   id="svg2"
   sodipodi:version="0.32"
   inkscape:version="0.91 r13725"
   sodipodi:docname="firestation2.svg"
   inkscape:output_extension="org.inkscape.output.svg.inkscape">
  <metadata
     id="metadata1976">
    <rdf:RDF>
      <cc:Work
         rdf:about="">
        <dc:format>image/svg+xml</dc:format>
        <dc:type
           rdf:resource="http://purl.org/dc/dcmitype/StillImage" />
        <cc:license
           rdf:resource="http://web.resource.org/cc/PublicDomain" />
        <dc:language>en</dc:language>
      </cc:Work>
    </rdf:RDF>
  </metadata>
  <sodipodi:namedview
     inkscape:window-height="972"
     inkscape:window-width="1280"
     inkscape:pageshadow="2"
     inkscape:pageopacity="0.0"
     guidetolerance="10.0"
     gridtolerance="10.0"
     objecttolerance="10.0"
     borderopacity="1.0"
     bordercolor="#666666"
     pagecolor="#ffffff"
     id="base"
     inkscape:zoom="0.84516606"
     inkscape:cx="128.03081"
     inkscape:cy="287.52613"
     inkscape:window-x="-8"
     inkscape:window-y="-8"
     inkscape:current-layer="svg2"
     showgrid="false"
     inkscape:window-maximized="1" />
  <defs
     id="defs4">
    <inkscape:perspective
       sodipodi:type="inkscape:persp3d"
       inkscape:vp_x="0 : 290 : 1"
       inkscape:vp_y="0 : 1000 : 0"
       inkscape:vp_z="580 : 290 : 1"
       inkscape:persp3d-origin="290 : 193.33333 : 1"
       id="perspective3653" />
    <marker
       viewBox="0 0 10 10"
       refY="5"
       refX="10"
       orient="auto"
       markerWidth="4"
       markerUnits="strokeWidth"
       markerHeight="3"
       id="ArrowStart">
      <path
         id="path2111"
         d="M 10 0 L 0 5 L 10 10 z" />
    </marker>
    <marker
       viewBox="0 0 10 10"
       refY="5"
       refX="0"
       orient="auto"
       markerWidth="4"
       markerUnits="strokeWidth"
       markerHeight="3"
       id="ArrowEnd">
      <path
         id="path2108"
         d="M 0 0 L 10 5 L 0 10 z" />
    </marker>
    <inkscape:perspective
       id="perspective2512"
       inkscape:persp3d-origin="177.51199 : 145.02 : 1"
       inkscape:vp_z="355.02399 : 217.53 : 1"
       inkscape:vp_y="0 : 1000 : 0"
       inkscape:vp_x="0 : 217.53 : 1"
       sodipodi:type="inkscape:persp3d" />
    <inkscape:perspective
       id="perspective3305"
       inkscape:persp3d-origin="372.04724 : 350.78739 : 1"
       inkscape:vp_z="744.09448 : 526.18109 : 1"
       inkscape:vp_y="0 : 1000 : 0"
       inkscape:vp_x="0 : 526.18109 : 1"
       sodipodi:type="inkscape:persp3d" />
    <inkscape:perspective
       id="perspective3354"
       inkscape:persp3d-origin="372.04724 : 350.78739 : 1"
       inkscape:vp_z="744.09448 : 526.18109 : 1"
       inkscape:vp_y="0 : 1000 : 0"
       inkscape:vp_x="0 : 526.18109 : 1"
       sodipodi:type="inkscape:persp3d" />
    <inkscape:perspective
       id="perspective3569"
       inkscape:persp3d-origin="372.04724 : 350.78739 : 1"
       inkscape:vp_z="744.09448 : 526.18109 : 1"
       inkscape:vp_y="0 : 1000 : 0"
       inkscape:vp_x="0 : 526.18109 : 1"
       sodipodi:type="inkscape:persp3d" />
    <inkscape:perspective
       id="perspective3604"
       inkscape:persp3d-origin="372.04724 : 350.78739 : 1"
       inkscape:vp_z="744.09448 : 526.18109 : 1"
       inkscape:vp_y="0 : 1000 : 0"
       inkscape:vp_x="0 : 526.18109 : 1"
       sodipodi:type="inkscape:persp3d" />
    <inkscape:perspective
       id="perspective4346"
       inkscape:persp3d-origin="372.04724 : 350.78739 : 1"
       inkscape:vp_z="744.09448 : 526.18109 : 1"
       inkscape:vp_y="0 : 1000 : 0"
       inkscape:vp_x="0 : 526.18109 : 1"
       sodipodi:type="inkscape:persp3d" />
  </defs>
  <path
     style="fill:#ff0000"
     d="M 289.92578 19.042969 C 276.25704 19.012239 260.33265 23.183613 248.91602 29.761719 C 247.34212 30.668567 244.43237 32.305562 242.44336 33.414062 C 240.45428 34.522565 235.32015 37.509615 231.04102 40.037109 C 219.09005 47.095997 208.56985 52.208315 200.54297 54.884766 C 184.56345 60.212917 170.35333 62.408905 152.76367 62.21875 C 137.7782 62.056747 130.90976 62.895692 125.5625 65.574219 C 121.74377 67.48708 119.58627 69.532285 117.99023 72.761719 C 116.75204 75.267017 116.62217 75.772798 116.47461 79.353516 C 116.29883 83.619249 116.73417 86.481374 117.90039 88.677734 C 118.69481 90.173755 121.18841 93.351578 125.08789 97.882812 C 126.38198 99.386534 128.56465 101.9818 129.95703 103.64453 C 131.34934 105.30725 134.224 108.62484 136.3125 111.00977 C 138.40101 113.39471 140.74344 116.11581 141.53906 117.06641 C 143.22476 119.08049 150.31504 126.98132 153.50586 130.40039 C 154.718 131.69918 157.87617 135.19614 160.51367 138.17969 C 160.90511 138.62248 161.31221 139.07274 161.70508 139.51562 C 156.15166 144.2291 150.85926 149.24083 145.85156 154.52539 C 129.71615 138.02912 113.64207 121.22879 96.103516 106.34766 C 94.7808 105.87008 92.886113 105.59627 90.818359 105.54492 C 87.372103 105.45932 83.444535 105.95591 80.810547 106.94141 C 74.277604 109.38569 71.714097 117.09382 70.833984 137.11133 C 70.111113 153.55483 69.980806 154.58506 67.033203 165.35156 C 64.40808 174.94027 61.690918 181.86611 55.837891 193.85938 C 51.484529 202.29913 46.919378 211.22873 41.197266 218.6543 C 41.197266 219.31348 38.468059 224.90446 37.574219 226.07812 C 36.423993 227.58847 28.669221 242.71066 26.824219 247.04297 C 21.792215 258.85901 19.241016 269.1546 18.390625 281.2832 C 17.600739 292.54884 18.958939 301.39533 23.707031 316.11523 C 25.63766 322.1006 29.996007 331.45471 38.554688 347.94922 C 50.83359 371.61327 53.957939 378.4492 57.589844 389.64062 C 62.577053 405.00808 63.556953 411.98091 63.349609 430.41211 C 63.262709 438.13506 63.371768 443.64045 63.617188 445.23047 C 65.303462 456.15414 70.965545 462.36624 79.800781 462.98828 C 82.460225 463.17554 82.732739 463.12657 85.205078 461.91992 C 88.605298 460.2604 90.806078 458.83274 97.796875 453.7832 C 103.2345 449.85546 106.13865 447.57705 113.26758 441.69727 C 114.89469 440.35522 117.13259 438.58381 118.22656 437.74805 C 119.32052 436.91235 121.44262 435.08213 122.94922 433.67969 C 124.45581 432.27719 127.68034 429.41271 130.13477 427.32422 C 133.41211 424.53546 135.91533 422.39294 138.29492 420.34375 C 142.89181 425.77515 147.77494 430.95555 152.91797 435.86719 C 143.75652 445.30052 134.29872 454.98898 127.9082 461.41602 C 109.04696 480.38505 107.23577 482.6258 106.25977 488.23047 C 105.30967 493.68643 106.35669 498.21136 109.37891 501.74219 C 113.66505 506.74963 120.48439 509.05908 132.51172 509.58008 C 152.05726 510.4268 154.95604 510.82698 166.51172 514.125 C 180.71326 518.17811 196.78734 525.84112 216.75586 538.05859 C 218.54601 539.15387 220.99795 540.59979 222.19141 541.26562 C 223.3848 541.93152 226.30846 543.6183 228.69531 545.03711 C 245.32659 554.92356 258.93428 559.58905 274.63281 560.77539 C 277.61374 561.00066 280.11482 561.26201 280.2168 561.36914 C 280.56349 561.7332 294.84862 561.12385 298.30078 560.59766 C 309.41135 558.90415 318.91327 556.10142 327.9668 551.80859 C 330.05531 550.8183 334.76948 548.58205 338.44922 546.84961 C 342.12889 545.1172 348.55541 542.03733 352.73242 539.98828 C 361.31488 535.778 370.91514 531.25515 372.80664 530.54688 C 373.50284 530.2862 375.29342 529.56641 376.78516 528.94336 C 387.02092 524.66846 395.32136 522.18055 407.16406 519.79688 C 416.21386 517.9754 415.95982 517.97346 428.90039 518.04492 C 440.23338 518.10752 440.86778 518.08416 445.53125 517.18359 C 450.68122 516.18905 456.65213 514.44247 458.15039 513.5 C 460.22636 512.19408 461.8381 509.56216 462.42773 506.52148 C 462.63981 505.42751 462.92014 502.51085 463.05078 500.01953 C 463.23966 496.41746 463.1814 495.22222 462.75391 494.19922 C 462.24391 492.97854 455.01018 484.36165 449.86523 478.8457 C 447.04819 475.82559 439.44311 467.30455 429.01953 455.53516 C 426.06991 452.20468 422.27844 448.00895 418.89258 444.29492 C 424.9175 439.22225 430.63493 433.79659 436.02148 428.05664 C 437.04806 429.05182 439.08612 431.01234 439.5625 431.48242 C 441.17496 433.07364 445.54991 437.31427 449.30078 440.89453 C 453.05156 444.47479 458.09743 449.28263 460.49609 451.58594 C 462.89483 453.88927 469.09103 459.75226 474.27539 464.62305 C 485.14641 474.83652 484.50718 474.46984 491.11328 474.27344 C 494.92225 474.1602 495.43123 474.05856 497.64648 472.9668 C 499.23538 472.18374 500.69439 471.1028 501.92188 469.75977 C 506.30644 464.96229 507.94543 458.92334 508.78125 444.69727 C 509.73207 428.51401 509.80421 427.97661 511.12695 422.09766 C 514.77456 405.88575 521.04108 391.0719 532.47852 371.64648 C 538.99108 360.58556 542.37696 354.85939 544.14844 351.95703 C 546.69056 347.79214 550.7527 340.00559 552.19727 336.54492 C 556.30183 326.71134 556.81508 325.33803 558.31445 319.35156 C 562.56598 302.37646 562.19611 286.46017 557.18555 269.82031 C 553.95136 259.07972 551.19079 252.77073 537.73438 225.1582 C 529.08646 207.41273 529.50578 208.35905 526.00586 199.14453 C 521.44409 187.13439 519.06681 178.88322 517.42383 169.41992 C 516.76826 165.64384 516.60897 162.80979 516.38281 151.03906 C 516.1289 137.82446 516.07889 136.89422 515.16602 132.77539 C 513.45648 125.06184 512.3167 122.39223 509.76172 120.03711 C 507.71362 118.14924 505.58093 117.47666 499.93164 116.97852 C 497.84959 116.79493 496.22118 116.70714 494.91406 116.74023 C 492.73551 116.79533 491.41776 117.18553 490.25195 117.95703 C 489.4535 118.48542 485.5501 121.85969 481.58008 125.4707 C 477.61006 129.0817 473.36352 132.92845 472.13672 133.99414 C 470.90993 135.05983 467.00409 138.641 463.4375 141.95117 C 450.76004 153.71738 445.92439 158.12954 442.05664 161.52148 C 441.97237 161.59539 441.89487 161.66449 441.80859 161.74023 C 436.88811 156.02242 431.65751 150.57929 426.12891 145.45117 C 429.18698 142.38385 431.97887 139.57759 435.55273 136.01172 C 458.0785 113.53638 470.42881 100.96722 471.24609 99.666016 C 473.29322 96.406598 473.44462 95.801929 473.47461 90.013672 C 473.49701 85.671461 473.35942 84.267983 472.79102 82.53125 C 471.92789 79.894029 469.61257 77.217795 467.08984 75.939453 C 460.49901 72.599614 454.36998 71.333939 441.16602 70.564453 C 425.56262 69.65514 422.67418 69.363439 415.89453 68.039062 C 405.5522 66.018716 395.29613 62.563871 384.20898 57.378906 C 379.88215 55.355447 378.01229 54.289946 365.44141 46.71875 C 360.84108 43.948062 355.38537 40.720652 353.29688 39.53125 C 351.20844 38.34185 347.62524 36.244102 345.33789 34.869141 C 333.96154 28.030758 318.842 22.028163 308.69336 20.318359 C 304.09586 19.54378 297.02648 19.058934 289.92578 19.042969 z M 292.19922 38.75 C 295.82956 38.712295 299.42552 38.919803 301.92383 39.382812 C 313.60165 41.54706 328.88015 47.509996 339.93359 54.201172 C 342.4016 55.69522 345.28899 57.348369 346.34766 57.882812 C 347.40625 58.417256 351.4611 60.668359 355.375 62.873047 C 359.28897 65.077737 363.31803 67.315656 364.3125 67.861328 C 365.30703 68.406996 368.30893 70.085073 370.99414 71.603516 C 381.92453 77.784521 393.44156 82.815593 403.80859 85.916016 C 411.32263 88.163205 415.30332 88.76764 425.42578 89.183594 C 442.47103 89.884001 449.84418 90.515111 450.3418 91.320312 C 450.4323 91.466761 446.57077 95.570383 441.75977 100.4375 C 435.08393 107.19124 422.27043 119.89228 409.99805 132.00195 C 377.78619 107.85051 338.06966 93.19124 295.0332 92.242188 C 295.67068 96.802944 296.2153 101.38185 297.26172 105.69336 C 297.93238 109.06174 298.84537 112.3269 299.93359 115.52344 C 393.07365 120.3796 467 197.31827 467 291.67578 C 467.00001 353.90435 434.84152 408.55004 386.22852 439.94531 C 386.21792 439.95431 386.20982 439.96611 386.19922 439.97461 C 385.41965 440.59889 384.56698 441.14256 383.67578 441.57812 C 383.61668 441.60703 383.55559 441.63987 383.49609 441.66797 C 374.18007 447.44532 364.28789 452.38329 353.91992 456.36719 C 345.40891 467.79533 335.746 478.26885 325.38281 488.11133 C 353.87535 483.07981 380.29426 471.9707 403.26562 456.18945 C 405.32437 458.40578 408.79097 462.22299 412.0332 465.83984 C 415.77756 470.01682 420.26105 474.8876 421.98242 476.67773 C 423.7038 478.46786 426.08622 481.07765 427.26758 482.46875 C 428.44901 483.85987 430.7317 486.39017 432.3457 488.08203 C 436.22741 492.15102 440.08121 496.80896 439.85938 497.16797 C 439.33909 498.00972 436.05727 498.22783 423.19922 498.20703 C 409.61312 498.18503 409.47865 498.17885 403.33398 499.24609 C 393.44079 500.9644 382.07062 504.27098 373.33984 507.97656 C 371.54969 508.73633 360.91192 513.9102 349.67383 519.46875 C 322.07862 533.11784 323.22104 532.61145 311.24805 536.57422 C 304.21897 538.90067 299.50334 540.06868 293.78711 540.91016 C 290.37755 541.41205 287.35938 541.60059 282.76953 541.5625 C 275.95877 541.506 276.12211 541.51564 270.50586 540.67188 C 263.1175 539.56192 248.29482 534.18774 240.09766 529.6543 C 236.84619 527.85605 225.51442 521.31679 225.07227 520.98438 C 224.33333 520.42885 204.12239 508.68566 199.41406 506.07617 C 192.48702 502.23696 182.30625 497.84731 174.02539 495.11914 C 165.22193 492.21889 160.90366 491.65255 139.13281 490.57617 C 134.4257 490.34341 130.38315 490.01679 130.13477 489.86328 C 129.80146 489.65729 129.929 489.27012 130.66992 488.37891 C 131.94271 486.84785 142.21179 476.15896 155.82227 462.1875 C 158.45352 459.48651 163.7008 454.06158 168.39258 449.21289 C 196.12829 470.77126 229.67876 485.18809 266.25977 489.65625 C 253.24311 480.8391 241.2222 470.26627 231.48633 457.94141 C 163.10393 433.66629 114.18945 368.43483 114.18945 291.67578 C 114.18945 205.70014 175.54866 134.19609 256.9043 118.49219 C 257.86147 110.32837 259.29285 102.24864 261.00391 94.349609 C 230.43969 98.912594 202.12488 110.44792 177.7168 127.26562 C 175.03752 124.19404 171.84929 120.54227 170.37305 118.84766 C 163.71371 111.20326 159.02431 105.844 156.74219 103.28906 C 155.74772 102.17564 153.61271 99.752916 152.02148 97.882812 C 150.43024 96.012708 148.38418 93.661121 147.47656 92.65625 C 146.5689 91.651376 145.4378 90.306085 144.95312 89.6875 C 144.46846 89.068914 143.03587 87.390752 141.77539 85.945312 C 139.79869 83.678582 139.5525 83.240482 139.99414 82.798828 C 140.59183 82.201153 144.68585 82.03638 164.87891 81.789062 C 184.17656 81.552707 185.87849 81.308788 199.0293 76.978516 C 206.58395 74.49095 212.4536 71.88432 221.65625 66.912109 C 229.29519 62.784745 238.20754 57.924019 242.08789 55.746094 C 251.7503 50.322833 261.92536 45.399059 267.03125 43.689453 C 271.1428 42.312785 278.33401 40.366667 282.26562 39.591797 C 284.90433 39.071737 288.56888 38.787705 292.19922 38.75 z M 278.65625 82.001953 C 251.67228 191.57235 300.93899 190.61006 328.26562 255.00781 C 347.43311 155.70887 290.09106 178.05075 278.65625 82.001953 z M 91.621094 129.74609 C 92.174694 129.64017 100.08591 137.37884 125.71094 163.1543 C 128.24389 165.70212 130.26385 167.75193 132.5625 170.07227 C 106.58745 203.76375 91.115234 245.9484 91.115234 291.67578 C 91.115234 333.16119 103.85201 371.72457 125.61328 403.67188 C 125.05081 404.15193 124.50515 404.60965 123.95898 405.08203 C 118.29313 409.98258 111.7006 415.61096 106.85352 419.66406 C 103.08716 422.81347 101.78767 423.93448 93.996094 430.65039 C 92.303593 432.10926 89.403467 434.54247 87.582031 436.08398 C 85.760664 437.62548 84.20225 438.90624 84.107422 438.90625 C 83.466639 438.90625 83.308156 435.84815 83.275391 421.89062 C 83.251051 411.49854 83.115902 405.29925 82.830078 403.62695 C 81.549079 396.13259 78.617258 386.50977 75.019531 377.9707 C 73.199792 373.65157 67.589083 362.61641 58.865234 346.13672 C 47.992445 325.59743 45.067152 319.19569 41.96875 309.07812 C 36.734215 291.98489 36.656288 280.81641 41.613281 264.77148 C 45.09679 253.49595 49.826052 243.60032 59.519531 227.32617 C 73.858492 203.25267 77.715996 195.90643 83.15625 182.39648 C 88.99944 167.88603 89.355943 165.64441 90.640625 135.83398 C 90.880308 130.27061 90.948537 129.87476 91.621094 129.74609 z M 496.20703 140.9043 C 496.25184 140.905 496.2865 140.91739 496.31055 140.94141 C 496.55187 141.18236 496.74115 146.98948 496.87305 157.27344 C 497.13319 177.55727 497.19607 177.96199 501.44727 191.54297 C 504.58198 201.55724 505.95807 204.60509 519.20508 231.30469 C 530.54147 254.15326 531.66314 256.69188 536.10156 269.10742 C 541.34055 283.76206 542.79162 295.23776 540.82227 306.46484 C 539.66413 313.06764 539.13306 315.03071 537.02148 320.53906 C 532.57104 332.14847 529.69552 337.69313 517.54102 358.07422 C 513.86389 364.24023 509.96303 370.82526 508.87109 372.71484 C 507.77911 374.60442 506.32581 377.13469 505.63477 378.32812 C 502.05055 384.51794 494.95736 400.40655 493.45898 405.61719 C 491.62777 411.98526 490.66866 418.1257 490.3418 425.69141 C 489.84134 437.27639 489.20962 447.28345 488.91602 448.28906 C 488.77087 448.78632 488.40843 449.24153 488.11328 449.29883 C 487.17867 449.48026 487.21194 449.51294 470.97852 434.00586 C 466.60592 429.82889 456.77926 420.47871 449.12305 413.21875 C 449.01118 413.11267 448.96104 413.06479 448.85156 412.96094 C 474.68999 379.32827 490.07423 337.26556 490.07422 291.67578 C 490.07422 249.53756 476.92895 210.41073 454.5332 178.16797 C 455.81204 177.01594 457.07646 175.88152 457.94336 175.12109 C 459.95777 173.35409 463.77962 169.85232 466.46484 167.3418 C 469.15004 164.8313 472.65484 161.63305 474.24609 160.24414 C 475.83733 158.85525 479.43887 155.61541 482.23438 153.02734 C 492.37853 143.63568 495.53497 140.89381 496.20703 140.9043 z M 251.55859 154.12305 C 234.57635 216.33652 258.20024 246.16583 256.56055 291.69336 C 232.78122 249.59412 209.20371 212.31956 186.52539 196.64453 C 205.22063 234.32199 180.82648 279.57233 172.45508 316.23633 C 160.52173 368.50047 176.68415 403.46951 203.20117 418.42578 C 202.79991 392.95869 211.16697 370.44962 216.12305 365.06445 C 222.65605 411.08566 230.13849 439.28906 266.56641 466.7832 C 270.24045 408.81813 288.45897 423.82202 294.91406 351.72461 C 321.50224 395.63602 316.34113 439.54757 303.25195 483.45898 C 326.67179 462.52708 352.6 445.2692 384.96094 351.72461 L 378.29102 421.75977 C 398.90155 371.35629 457.70741 321.30005 354.52734 180.38672 C 364.7736 262.11814 343.77722 272.95145 333.68359 305.86719 C 309.95341 235.85907 263.21125 231.08906 251.55859 154.12305 z M 281.75977 467.83008 C 280.94062 475.49259 280.71954 483.20452 281.16602 490.90234 C 282.96188 490.98624 284.76249 491.04422 286.57031 491.08008 C 288.85093 483.43237 291.01448 475.76189 292.86523 468.03711 C 292.10089 468.04711 291.34674 468.06641 290.58008 468.06641 C 287.62282 468.06641 284.68111 467.97354 281.75977 467.83008 z "
     id="path3575" />
</svg>
