<?xml version="1.0" encoding="UTF-8" standalone="no"?>
<!-- Created with Inkscape (http://www.inkscape.org/) -->

<svg
   xmlns:dc="http://purl.org/dc/elements/1.1/"
   xmlns:cc="http://creativecommons.org/ns#"
   xmlns:rdf="http://www.w3.org/1999/02/22-rdf-syntax-ns#"
   xmlns:svg="http://www.w3.org/2000/svg"
   xmlns="http://www.w3.org/2000/svg"
   xmlns:sodipodi="http://sodipodi.sourceforge.net/DTD/sodipodi-0.dtd"
   xmlns:inkscape="http://www.inkscape.org/namespaces/inkscape"
   version="1.1"
   width="24"
   height="24"
   id="svg4460"
   inkscape:version="0.91 r13725"
   sodipodi:docname="octopus.svg">
  <sodipodi:namedview
     pagecolor="#ffffff"
     bordercolor="#666666"
     borderopacity="1"
     objecttolerance="10"
     gridtolerance="10"
     guidetolerance="10"
     inkscape:pageopacity="0"
     inkscape:pageshadow="2"
     inkscape:window-width="1280"
     inkscape:window-height="972"
     id="namedview11"
     showgrid="false"
     inkscape:zoom="3.4766083"
     inkscape:cx="21.522174"
     inkscape:cy="38.918582"
     inkscape:window-x="-8"
     inkscape:window-y="-8"
     inkscape:window-maximized="1"
     inkscape:current-layer="svg4460" />
  <defs
     id="defs4462" />
  <metadata
     id="metadata4465">
    <rdf:RDF>
      <cc:Work
         rdf:about="">
        <dc:format>image/svg+xml</dc:format>
        <dc:type
           rdf:resource="http://purl.org/dc/dcmitype/StillImage" />
        <dc:title></dc:title>
      </cc:Work>
    </rdf:RDF>
  </metadata>
  <path
     style="color:#000000;display:inline;overflow:visible;visibility:visible;opacity:1;fill:#000000;fill-opacity:1;fill-rule:nonzero;stroke:none;stroke-width:0.5;stroke-linecap:round;stroke-linejoin:round;stroke-miterlimit:4;stroke-dasharray:none;stroke-dashoffset:0;stroke-opacity:1;marker:none;enable-background:accumulate"
     d="M 11.999759,-5.3426199e-8 C 8.5818108,-5.3426199e-8 5.8112518,2.7705589 5.8112518,6.1885069 5.8112518,8.3106599 6.9068938,10.937578 8.5553128,12.624806 8.3719718,12.61975 8.1929428,12.61703 8.0215708,12.616111 7.4474918,12.613034 6.9577778,12.630499 6.6695858,12.650406 5.9192288,13.025585 5.0150908,14.294527 4.8587278,14.866521 4.2304138,17.212577 4.9954918,19.608506 3.2091998,20.122792 1.7016888,20.547654 1.7885378,22.051478 3.1193578,22.099327 3.1193578,22.099327 5.2839358,22.248413 6.2435588,20.435791 7.0028528,18.962904 7.0096798,18.583256 7.4965238,16.935314 7.7383838,16.404246 7.7554998,15.753306 8.4905878,15.697806 8.5236088,17.485254 8.6176838,20.115678 7.4424248,22.197864 6.6977638,23.285787 7.6845598,24.575673 8.7026348,23.723254 8.7026348,23.723254 9.2403138,23.268619 9.7850928,22.451451 10.938727,20.693874 11.625087,18.800351 12.000242,16.693802 12.375401,18.800314 13.061291,20.693899 14.214908,22.451451 14.759687,23.268619 15.297366,23.723254 15.297366,23.723254 16.315441,24.575673 17.302238,23.285787 16.557576,22.197864 15.382318,20.115678 15.476392,17.485254 15.509413,15.697806 16.244501,15.753306 16.261617,16.404246 16.503478,16.935314 16.990321,18.583256 16.997148,18.962904 17.756442,20.435791 18.716066,22.248413 20.880642,22.099327 20.880642,22.099327 22.211463,22.051478 22.29831,20.547654 20.7908,20.122792 19.004511,19.608506 19.769586,17.212577 19.141273,14.866521 18.98491,14.294527 18.08029,13.025585 17.329932,12.650406 16.97111,12.625621 16.298415,12.605624 15.54081,12.623357 17.147587,10.936075 18.188749,8.3100699 18.188749,6.1885069 18.188749,2.7705589 15.417707,-5.3426199e-8 11.999759,-5.3426199e-8 Z M 9.6145848,7.3806109 C 9.6978198,7.4169759 9.7639488,7.4439329 9.8474028,7.4805969 10.279762,7.6705459 10.346951,7.7028229 10.703322,7.8621859 A 1.4226994,1.1381596 60 0 1 10.922615,8.1631109 1.4226994,1.1381596 60 0 1 11.151086,8.9958439 0.99478233,0.79035594 28.550241 0 0 10.171995,8.5137859 0.99478233,0.79035594 28.550241 0 0 9.8271158,8.5910699 0.99478233,0.79035594 28.550241 0 0 9.6126528,9.7078219 0.99478233,0.79035594 28.550241 0 0 10.080703,10.085547 1.4226994,1.1381596 60 0 1 8.9513928,9.3015989 1.4226994,1.1381596 60 0 1 9.2257508,7.5004009 1.4226994,1.1381596 60 0 1 9.6145848,7.3806109 Z M 14.406186,7.3825429 A 1.1381596,1.4226994 30 0 1 14.774251,7.5004009 1.1381596,1.4226994 30 0 1 15.048608,9.3015989 1.1381596,1.4226994 30 0 1 13.921713,10.084098 0.79035594,0.99478233 61.449759 0 0 14.387348,9.7078219 0.79035594,0.99478233 61.449759 0 0 14.172402,8.5910699 0.79035594,0.99478233 61.449759 0 0 13.828006,8.5137859 0.79035594,0.99478233 61.449759 0 0 12.848916,8.9948779 1.1381596,1.4226994 30 0 1 13.077386,8.1631109 1.1381596,1.4226994 30 0 1 13.287019,7.8747449 L 14.406186,7.3825429 Z"
     id="path3344"
     inkscape:connector-curvature="0" />
</svg>
