<?xml version="1.0" encoding="UTF-8" standalone="no"?>
<!-- Created with Inkscape (http://www.inkscape.org/) -->

<svg
   xmlns:dc="http://purl.org/dc/elements/1.1/"
   xmlns:cc="http://creativecommons.org/ns#"
   xmlns:rdf="http://www.w3.org/1999/02/22-rdf-syntax-ns#"
   xmlns:svg="http://www.w3.org/2000/svg"
   xmlns="http://www.w3.org/2000/svg"
   xmlns:sodipodi="http://sodipodi.sourceforge.net/DTD/sodipodi-0.dtd"
   xmlns:inkscape="http://www.inkscape.org/namespaces/inkscape"
   version="1.1"
   width="24"
   height="24"
   id="svg4460"
   inkscape:version="0.91 r13725"
   sodipodi:docname="perroquet.svg">
  <sodipodi:namedview
     pagecolor="#ffffff"
     bordercolor="#666666"
     borderopacity="1"
     objecttolerance="10"
     gridtolerance="10"
     guidetolerance="10"
     inkscape:pageopacity="0"
     inkscape:pageshadow="2"
     inkscape:window-width="1280"
     inkscape:window-height="972"
     id="namedview11"
     showgrid="false"
     inkscape:zoom="19.666666"
     inkscape:cx="1.3327309"
     inkscape:cy="18.87284"
     inkscape:window-x="-8"
     inkscape:window-y="-8"
     inkscape:window-maximized="1"
     inkscape:current-layer="svg4460"
     showguides="false" />
  <defs
     id="defs4462" />
  <metadata
     id="metadata4465">
    <rdf:RDF>
      <cc:Work
         rdf:about="">
        <dc:format>image/svg+xml</dc:format>
        <dc:type
           rdf:resource="http://purl.org/dc/dcmitype/StillImage" />
        <dc:title></dc:title>
      </cc:Work>
    </rdf:RDF>
  </metadata>
  <path
     style="color:#000000;display:inline;overflow:visible;visibility:visible;opacity:1;fill:#000000;fill-opacity:1;fill-rule:nonzero;stroke:none;stroke-width:1;stroke-linecap:round;stroke-linejoin:round;stroke-miterlimit:4;stroke-dasharray:none;stroke-dashoffset:0;stroke-opacity:1;marker:none;enable-background:accumulate"
     d="M 8.2523956,0.87362996 C 5.9037599,0.87362943 4.822698,0.34027624 4.7876565,2.0655693 2.8323331,2.7602471 3.0482711,5.9745613 3.8996446,6.8239506 4.1254717,5.2443675 5.0517399,5.7613548 5.7564498,5.7023643 6.5546183,6.4975932 6.0199062,7.4049935 5.4832095,7.7772695 3.5511322,8.5090913 4.4578709,16.082074 10.135031,17.8966 9.9723351,18.065657 9.8319441,18.241235 9.7389906,18.425409 9.089071,19.978789 10.600298,19.8235 11.873554,20.451077 11.402103,20.399849 11.201747,20.333235 10.513236,20.367917 9.8871801,20.399453 9.2238681,20.487933 8.6621697,20.802905 8.1004725,21.117876 7.9295866,21.874983 8.7080884,22.715571 10.061379,21.499445 10.494529,21.364472 12.662769,21.583324 14.212983,21.89159 14.099941,21.878786 13.500771,20.837021 12.965982,19.808762 11.481111,19.850612 12.324742,19.252738 13.543408,19.825956 14.830099,19.583303 15.86123,19.34855 17.948953,19.106222 19.233977,23.455202 20.517123,23.93528 21.301602,22.650731 19.644025,20.095818 19.101312,16.580832 18.145437,12.726335 16.886585,7.4740884 13.296533,6.4768781 13.701068,6.0064127 13.435276,4.9001288 12.760962,3.4387783 11.991293,1.7707762 10.625646,0.87362996 8.2523956,0.87362996 Z M 7.316819,1.9376441 C 7.4072946,1.9370319 7.4961118,1.9470739 7.580847,1.9674961 8.0992647,2.090884 8.3574584,2.5671338 8.1576908,3.0315103 7.9577656,3.4968242 7.3740141,3.7738722 6.8547703,3.6498754 6.3363526,3.5264874 6.0781591,3.0502376 6.2779268,2.5858611 6.4404361,2.206959 6.86572,1.9416031 7.316819,1.9376441 Z M 11.280918,8.0132787 C 13.424652,7.9898919 14.008916,9.4904517 14.668331,10.521183 15.829898,12.351147 16.70233,14.986895 17.718035,17.508381 17.912811,17.984492 17.218759,18.390156 16.641835,18.137406 13.107944,16.369659 7.8258149,14.338851 7.9330721,10.697673 8.0461924,8.7606769 9.1371836,8.0366655 11.280918,8.0132787 Z"
     id="path4133"
     inkscape:connector-curvature="0"
     sodipodi:nodetypes="scccccccssccccccccsscccccczccccz" />
</svg>
