<?xml version="1.0" encoding="UTF-8" standalone="no"?>
<!-- Created with Inkscape (http://www.inkscape.org/) -->

<svg
   xmlns:dc="http://purl.org/dc/elements/1.1/"
   xmlns:cc="http://creativecommons.org/ns#"
   xmlns:rdf="http://www.w3.org/1999/02/22-rdf-syntax-ns#"
   xmlns:svg="http://www.w3.org/2000/svg"
   xmlns="http://www.w3.org/2000/svg"
   xmlns:sodipodi="http://sodipodi.sourceforge.net/DTD/sodipodi-0.dtd"
   xmlns:inkscape="http://www.inkscape.org/namespaces/inkscape"
   version="1.1"
   width="24"
   height="24"
   id="svg4460"
   inkscape:version="0.91 r13725"
   sodipodi:docname="calmar.svg">
  <sodipodi:namedview
     pagecolor="#ffffff"
     bordercolor="#666666"
     borderopacity="1"
     objecttolerance="10"
     gridtolerance="10"
     guidetolerance="10"
     inkscape:pageopacity="0"
     inkscape:pageshadow="2"
     inkscape:window-width="1280"
     inkscape:window-height="972"
     id="namedview11"
     showgrid="false"
     inkscape:zoom="9.8333331"
     inkscape:cx="9.7652829"
     inkscape:cy="18.715423"
     inkscape:window-x="-8"
     inkscape:window-y="-8"
     inkscape:window-maximized="1"
     inkscape:current-layer="svg4460" />
  <defs
     id="defs4462" />
  <metadata
     id="metadata4465">
    <rdf:RDF>
      <cc:Work
         rdf:about="">
        <dc:format>image/svg+xml</dc:format>
        <dc:type
           rdf:resource="http://purl.org/dc/dcmitype/StillImage" />
        <dc:title></dc:title>
      </cc:Work>
    </rdf:RDF>
  </metadata>
  <path
     style="fill:#000000;fill-opacity:1;fill-rule:evenodd;stroke:none;stroke-width:1px;stroke-linecap:butt;stroke-linejoin:miter;stroke-opacity:1"
     d="M 11.980469 0.20117188 C 10.719609 0.99004088 9.9735956 2.192787 9.5253906 3.5625 C 9.0525606 5.007466 8.9082451 6.6064176 8.8144531 7.9472656 C 8.6973561 9.6212696 8.364743 10.798757 8.109375 11.613281 C 7.981691 12.020544 7.8746069 12.337408 7.8261719 12.560547 C 7.7777379 12.783686 7.7946701 12.880332 7.8144531 12.917969 C 7.8110101 12.911419 7.9357387 13.033254 8.1992188 13.123047 C 8.4626987 13.212841 8.8353434 13.289335 9.2558594 13.345703 C 10.096891 13.458439 11.134381 13.496094 12 13.496094 C 12.865619 13.496094 13.903109 13.458439 14.744141 13.345703 C 15.164657 13.289335 15.537301 13.212841 15.800781 13.123047 C 16.064261 13.033254 16.18899 12.911419 16.185547 12.917969 C 16.205313 12.880365 16.2223 12.783686 16.173828 12.560547 C 16.125355 12.337408 16.01837 12.02055 15.890625 11.613281 C 15.635134 10.798745 15.300692 9.6212886 15.183594 7.9472656 C 15.090913 6.6223086 14.867 5.0011935 14.347656 3.5390625 C 13.857446 2.1589535 13.097071 0.95102388 11.980469 0.20117188 z M 14.359375 1.7148438 C 14.641821 2.2124207 14.877477 2.7403021 15.070312 3.2832031 C 15.625793 4.8470721 15.855544 6.5274383 15.951172 7.8945312 C 15.997143 8.5517303 16.076476 9.1200427 16.171875 9.6210938 C 17.438618 8.8556298 18.494096 7.6606841 19.388672 6.0488281 C 17.843967 4.5811721 16.172758 3.1174018 14.359375 1.7148438 z M 9.3925781 1.90625 C 7.6748561 3.250108 6.0853511 4.6483291 4.6113281 6.0488281 C 5.5059041 7.6606841 6.561382 8.8556298 7.828125 9.6210938 C 7.92344 9.1200607 8.0028581 8.5517102 8.0488281 7.8945312 C 8.1433451 6.5433293 8.2845829 4.8838108 8.7949219 3.3242188 C 8.9538189 2.8386308 9.1491761 2.360685 9.3925781 1.90625 z M 10.064453 9.8847656 C 10.132043 9.9142951 10.184186 9.9350715 10.251953 9.9648438 C 10.603041 10.119088 10.657882 10.147937 10.947266 10.277344 A 1.155274 0.9242193 60 0 1 11.125 10.521484 A 1.155274 0.9242193 60 0 1 11.310547 11.197266 A 0.80779271 0.64179243 28.550241 0 0 10.515625 10.804688 A 0.80779271 0.64179243 28.550241 0 0 10.236328 10.867188 A 0.80779271 0.64179243 28.550241 0 0 10.0625 11.775391 A 0.80779271 0.64179243 28.550241 0 0 10.441406 12.082031 A 1.155274 0.9242193 60 0 1 9.5234375 11.445312 A 1.155274 0.9242193 60 0 1 9.7480469 9.9824219 A 1.155274 0.9242193 60 0 1 10.064453 9.8847656 z M 13.953125 9.8867188 A 0.9242193 1.155274 30 0 1 14.251953 9.9824219 A 0.9242193 1.155274 30 0 1 14.476562 11.445312 A 0.9242193 1.155274 30 0 1 13.560547 12.080078 A 0.64179243 0.80779271 61.449759 0 0 13.9375 11.775391 A 0.64179243 0.80779271 61.449759 0 0 13.763672 10.867188 A 0.64179243 0.80779271 61.449759 0 0 13.484375 10.804688 A 0.64179243 0.80779271 61.449759 0 0 12.689453 11.197266 A 0.9242193 1.155274 30 0 1 12.875 10.521484 A 0.9242193 1.155274 30 0 1 13.044922 10.285156 L 13.953125 9.8867188 z M 1.9023438 11.148438 C 1.1423957 11.170032 0.59581375 11.651351 0.33984375 12.080078 C 0.06680875 12.537386 0.0078125 12.990234 0.0078125 12.990234 C -0.1055085 13.785631 1.0879529 13.955567 1.2011719 13.160156 C 1.2011719 13.160156 1.2413249 12.919841 1.3730469 12.699219 C 1.5047679 12.478598 1.6090845 12.333084 1.9921875 12.353516 C 2.3539005 12.372807 2.5321416 12.460979 2.6503906 12.566406 C 2.7686396 12.671833 2.8558806 12.830204 2.9160156 13.09375 C 3.0362866 13.620843 2.9707609 14.496377 2.9042969 15.421875 C 2.8378319 16.347373 2.7712421 17.333242 3.0800781 18.232422 C 3.3889131 19.131602 4.2040006 19.885281 5.4785156 20.044922 C 5.5087856 20.048801 5.5398035 20.049574 5.5703125 20.048828 C 6.5825285 20.010765 7.6487445 19.664462 8.0078125 18.761719 C 8.6358645 16.872271 7.4994186 14.731499 9.4628906 14.302734 C 9.6314486 17.506635 10.469697 22.348802 7.1035156 22.431641 C 6.0356146 22.416077 5.5395437 21.764387 4.8710938 21.150391 C 4.5157817 20.826589 4.0743211 20.500826 3.4863281 20.462891 C 2.6280611 20.407519 2.0332789 20.588839 1.6542969 20.847656 C 1.4648059 20.977064 1.334627 21.122057 1.25 21.244141 C 1.165374 21.366225 1.1113281 21.511719 1.1113281 21.511719 C 0.84457813 22.258798 1.9548464 22.669847 2.2402344 21.929688 C 2.2492634 21.916719 2.2729414 21.885439 2.3339844 21.84375 C 2.4573414 21.759507 2.7472031 21.623371 3.4082031 21.666016 C 3.5798441 21.67709 3.7817229 21.786919 4.0605469 22.041016 C 4.3393709 22.295112 4.6586581 22.663449 5.0644531 23.007812 C 5.4702481 23.352177 5.986341 23.678748 6.640625 23.771484 C 7.29491 23.86422 8.0422352 23.712942 8.8789062 23.259766 C 11.540429 21.822152 12.079015 17.292991 11.677734 14.261719 C 10.862356 14.253541 9.9495109 14.212063 9.1542969 14.105469 C 8.7042569 14.045143 8.2935719 13.966298 7.9511719 13.849609 C 7.6927789 13.761549 7.4569681 13.662545 7.2832031 13.480469 C 7.2447831 13.530513 7.2079582 13.582311 7.1757812 13.634766 C 6.2052562 15.33533 7.6991017 18.802113 5.5585938 18.667969 C 3.8041227 18.465327 4.0178989 16.792431 4.1074219 15.507812 C 4.1723549 14.60363 4.2851129 13.673394 4.0917969 12.826172 C 3.9951389 12.402562 3.8033229 11.979981 3.4511719 11.666016 C 3.0990219 11.352052 2.6138396 11.180108 2.0566406 11.150391 C 2.0041176 11.14759 1.9530067 11.146997 1.9023438 11.148438 z M 22.097656 11.148438 C 22.046993 11.146997 21.995882 11.14759 21.943359 11.150391 C 21.38616 11.180108 20.900979 11.352052 20.548828 11.666016 C 20.196678 11.979981 20.004861 12.402562 19.908203 12.826172 C 19.714887 13.673394 19.827645 14.60363 19.892578 15.507812 C 19.982101 16.792431 20.195878 18.465327 18.441406 18.667969 C 16.300899 18.802113 17.794744 15.33533 16.824219 13.634766 C 16.792042 13.582311 16.755217 13.530513 16.716797 13.480469 C 16.543014 13.662678 16.307319 13.761516 16.048828 13.849609 C 15.706428 13.966298 15.295743 14.045143 14.845703 14.105469 C 14.050489 14.212063 13.137644 14.253541 12.322266 14.261719 C 11.920985 17.292991 12.459572 21.822152 15.121094 23.259766 C 15.957765 23.712942 16.70509 23.86422 17.359375 23.771484 C 18.013659 23.678748 18.529752 23.352177 18.935547 23.007812 C 19.341342 22.663449 19.660629 22.295112 19.939453 22.041016 C 20.218277 21.786919 20.420156 21.67709 20.591797 21.666016 C 21.252797 21.623371 21.54266 21.759507 21.666016 21.84375 C 21.72706 21.885439 21.750737 21.916719 21.759766 21.929688 C 22.045154 22.669847 23.155422 22.258798 22.888672 21.511719 C 22.888672 21.511719 22.834626 21.366225 22.75 21.244141 C 22.665373 21.122057 22.535194 20.977064 22.345703 20.847656 C 21.966721 20.588839 21.371939 20.407519 20.513672 20.462891 C 19.925679 20.500826 19.484218 20.826589 19.128906 21.150391 C 18.460456 21.764387 17.964385 22.416077 16.896484 22.431641 C 13.530303 22.348802 14.368552 17.506635 14.537109 14.302734 C 16.500581 14.731499 15.364136 16.872271 15.992188 18.761719 C 16.351256 19.664462 17.417472 20.010765 18.429688 20.048828 C 18.460197 20.049574 18.491214 20.048801 18.521484 20.044922 C 19.795999 19.885281 20.611087 19.131602 20.919922 18.232422 C 21.228758 17.333242 21.162167 16.347373 21.095703 15.421875 C 21.029239 14.496377 20.963714 13.620843 21.083984 13.09375 C 21.14412 12.830204 21.23136 12.671833 21.349609 12.566406 C 21.467858 12.460979 21.6461 12.372807 22.007812 12.353516 C 22.390915 12.333084 22.495232 12.478598 22.626953 12.699219 C 22.758675 12.919841 22.798828 13.160156 22.798828 13.160156 C 22.912047 13.955567 24.105508 13.785631 23.992188 12.990234 C 23.992188 12.990234 23.93319 12.537386 23.660156 12.080078 C 23.404186 11.651351 22.857604 11.170032 22.097656 11.148438 z "
     id="path4296-1" />
</svg>
