<?xml version="1.0" encoding="UTF-8" standalone="no"?>
<!-- Created with Inkscape (http://www.inkscape.org/) -->

<svg
   xmlns:dc="http://purl.org/dc/elements/1.1/"
   xmlns:cc="http://creativecommons.org/ns#"
   xmlns:rdf="http://www.w3.org/1999/02/22-rdf-syntax-ns#"
   xmlns:svg="http://www.w3.org/2000/svg"
   xmlns="http://www.w3.org/2000/svg"
   xmlns:sodipodi="http://sodipodi.sourceforge.net/DTD/sodipodi-0.dtd"
   xmlns:inkscape="http://www.inkscape.org/namespaces/inkscape"
   version="1.1"
   width="24"
   height="24"
   id="svg4460"
   inkscape:version="0.91 r13725"
   sodipodi:docname="crabe.svg">
  <sodipodi:namedview
     pagecolor="#ffffff"
     bordercolor="#666666"
     borderopacity="1"
     objecttolerance="10"
     gridtolerance="10"
     guidetolerance="10"
     inkscape:pageopacity="0"
     inkscape:pageshadow="2"
     inkscape:window-width="1280"
     inkscape:window-height="972"
     id="namedview11"
     showgrid="false"
     inkscape:zoom="4.9166665"
     inkscape:cx="-17.221119"
     inkscape:cy="0.078787375"
     inkscape:window-x="-8"
     inkscape:window-y="-8"
     inkscape:window-maximized="1"
     inkscape:current-layer="svg4460" />
  <defs
     id="defs4462" />
  <metadata
     id="metadata4465">
    <rdf:RDF>
      <cc:Work
         rdf:about="">
        <dc:format>image/svg+xml</dc:format>
        <dc:type
           rdf:resource="http://purl.org/dc/dcmitype/StillImage" />
        <dc:title></dc:title>
      </cc:Work>
    </rdf:RDF>
  </metadata>
  <path
     style="color:#000000;display:inline;overflow:visible;visibility:visible;opacity:1;fill:#000000;fill-opacity:1;fill-rule:nonzero;stroke:none;stroke-width:3.18799996;stroke-linecap:round;stroke-linejoin:round;stroke-miterlimit:4;stroke-dasharray:none;stroke-dashoffset:0;stroke-opacity:1;marker:none;enable-background:accumulate"
     d="M 3.7975161,0.34592489 C 2.1404251,0.32552289 0.66107612,1.8521279 0.16766912,3.8759109 -0.11217988,5.0235479 -0.03276688,6.1526639 0.33912812,7.0676899 0.53553112,7.5509259 0.82048212,7.9746339 1.1771111,8.3032319 1.1839821,8.3234109 1.1889591,8.3436769 1.1978371,8.3635249 1.0276081,8.4202679 2.2879241,11.626779 4.7490201,14.146504 A 7.7011963,6.3767869 0 0 0 4.7381861,14.170998 L 2.3184451,14.201616 C 2.0259231,14.205502 1.7562661,14.36056 1.6057591,14.611422 L 0.42815512,16.57331 C -0.15104688,17.538665 1.2971041,18.407368 1.8761371,17.441911 L 2.8106831,15.883705 4.3231981,15.864864 A 7.7011963,6.3767869 0 0 0 4.2987041,16.271844 7.7011963,6.3767869 0 0 0 4.3604111,17.012321 L 3.6312381,17.162113 C 3.3966591,17.210295 3.1935821,17.355839 3.0725831,17.562498 L 1.8949781,19.573375 C 1.3109211,20.548635 2.7872561,21.413053 3.3519101,20.426431 L 4.3392141,18.740102 4.8502941,18.63506 A 7.7011963,6.3767869 0 0 0 5.7278441,19.958216 L 4.9280161,20.100941 C 4.6715451,20.146758 4.4505971,20.308427 4.3293221,20.53901 L 3.3481421,22.402922 C 2.8146951,23.4019 4.3210851,24.194512 4.8422861,23.189091 L 5.6308101,21.690236 7.3976871,21.374638 A 7.7011963,6.3767869 0 0 0 12.000235,22.648806 7.7011963,6.3767869 0 0 0 16.604668,21.375109 L 18.36919,21.690236 19.157714,23.189091 C 19.678915,24.194512 21.185304,23.4019 20.651858,22.402922 L 19.670678,20.53901 C 19.549402,20.308427 19.328454,20.146758 19.071984,20.100941 L 18.276395,19.959158 A 7.7011963,6.3767869 0 0 0 19.146409,18.634589 L 19.660786,18.740102 20.648089,20.426431 C 21.212744,21.413053 22.689079,20.548635 22.105021,19.573375 L 20.927417,17.562498 C 20.806417,17.355839 20.603341,17.210295 20.368762,17.162113 L 19.643829,17.013263 A 7.7011963,6.3767869 0 0 0 19.701296,16.271844 7.7011963,6.3767869 0 0 0 19.683867,15.864864 L 21.189316,15.883705 22.123863,17.441911 C 22.702896,18.407368 24.151047,17.538665 23.571845,16.57331 L 22.394241,14.611422 C 22.243734,14.36056 21.974077,14.205502 21.681555,14.201616 L 19.261814,14.170998 A 7.7011963,6.3767869 0 0 0 19.251922,14.145562 C 21.7124,11.625983 22.97237,8.4202609 22.802163,8.3635249 22.811041,8.3436769 22.816017,8.3234109 22.822889,8.3032319 23.179518,7.9746339 23.464469,7.5509259 23.660872,7.0676899 24.032767,6.1526639 24.11218,5.0235479 23.832331,3.8759109 23.338924,1.8521279 21.859575,0.32552289 20.202484,0.34592489 20.008262,0.34837589 19.815943,0.37328089 19.628755,0.42034989 19.517079,0.44844789 19.407039,0.48418489 19.299968,0.52774689 A 0.34398003,0.34904112 0 0 0 19.334354,1.1876769 C 19.729299,1.3015939 20.14951,1.7718509 20.303287,2.3996669 L 20.303287,2.4001379 C 20.408593,2.8323189 20.372623,3.2503789 20.247233,3.5588999 20.121801,3.8675269 19.924292,4.0556799 19.68528,4.1156719 19.446246,4.1757419 19.1849,4.1027969 18.932085,3.8891009 18.679461,3.6755659 18.455826,3.3229409 18.350348,2.8909629 18.318688,2.7596929 18.299312,2.6258649 18.29241,2.4938749 A 0.34398003,0.34904112 0 0 0 17.627299,2.3888329 C 17.281394,3.3151269 17.240958,4.4073969 17.498234,5.4656769 A 0.34398003,0.34904112 0 0 1 17.498234,5.4661479 C 17.77799,6.6138419 18.366797,7.5750059 19.116262,8.2085529 19.398118,8.4468139 19.705572,8.6384099 20.027728,8.7733319 19.953964,9.4579329 19.607332,11.283934 18.307483,12.626452 A 7.7011963,6.3767869 0 0 0 16.357842,11.015019 1.0300963,1.0300963 0 0 0 17.052157,10.042318 1.0300963,1.0300963 0 0 0 16.021989,9.0121499 1.0300963,1.0300963 0 0 0 14.991821,10.042318 1.0300963,1.0300963 0 0 0 15.066717,10.425746 7.7011963,6.3767869 0 0 0 11.999764,9.8953529 7.7011963,6.3767869 0 0 0 8.9695531,10.417738 1.0300963,1.0300963 0 0 0 9.0072371,10.140295 1.0300963,1.0300963 0 0 0 7.9770681,9.1101259 1.0300963,1.0300963 0 0 0 6.9473711,10.140295 1.0300963,1.0300963 0 0 0 7.5512471,11.076725 7.7011963,6.3767869 0 0 0 5.6887481,12.622213 C 4.3921541,11.280075 4.0459611,9.4572389 3.9722721,8.7733319 4.2944281,8.6384099 4.6018821,8.4468139 4.8837381,8.2085529 5.6332031,7.5750059 6.2220101,6.6138409 6.5017661,5.4661479 A 0.34398003,0.34904112 0 0 0 6.5017661,5.4656769 C 6.7590411,4.4073969 6.7186061,3.3151269 6.3727001,2.3888329 A 0.34398003,0.34904112 0 0 0 5.7075901,2.4938749 C 5.7006871,2.6258649 5.6813121,2.7596929 5.6496521,2.8909629 5.5441731,3.3229409 5.3205381,3.6755659 5.0679151,3.8891009 4.8151001,4.1027969 4.5537541,4.1757419 4.3147191,4.1156719 4.0757081,4.0556799 3.8781991,3.8675269 3.7527671,3.5588999 3.6273771,3.2503779 3.5914071,2.8323189 3.6967131,2.4001379 L 3.6967131,2.3996669 C 3.8504901,1.7718509 4.2707011,1.3015939 4.6656461,1.1876769 A 0.34398003,0.34904112 0 0 0 4.7000321,0.52774689 C 4.5929601,0.48418489 4.4829201,0.44844789 4.3712441,0.42034989 4.1840561,0.37328089 3.9917381,0.34837589 3.7975161,0.34592489 Z"
     id="path4362"
     inkscape:connector-curvature="0" />
</svg>
