<?xml version="1.0" encoding="UTF-8" standalone="no"?>
<!-- Created with Inkscape (http://www.inkscape.org/) -->

<svg
   xmlns:dc="http://purl.org/dc/elements/1.1/"
   xmlns:cc="http://creativecommons.org/ns#"
   xmlns:rdf="http://www.w3.org/1999/02/22-rdf-syntax-ns#"
   xmlns:svg="http://www.w3.org/2000/svg"
   xmlns="http://www.w3.org/2000/svg"
   xmlns:sodipodi="http://sodipodi.sourceforge.net/DTD/sodipodi-0.dtd"
   xmlns:inkscape="http://www.inkscape.org/namespaces/inkscape"
   version="1.1"
   width="24"
   height="24"
   id="svg4460"
   inkscape:version="0.91 r13725"
   sodipodi:docname="shark.svg">
  <sodipodi:namedview
     pagecolor="#ffffff"
     bordercolor="#666666"
     borderopacity="1"
     objecttolerance="10"
     gridtolerance="10"
     guidetolerance="10"
     inkscape:pageopacity="0"
     inkscape:pageshadow="2"
     inkscape:window-width="1280"
     inkscape:window-height="972"
     id="namedview11"
     showgrid="false"
     inkscape:zoom="13.906433"
     inkscape:cx="9.2538478"
     inkscape:cy="13.649305"
     inkscape:window-x="-8"
     inkscape:window-y="-8"
     inkscape:window-maximized="1"
     inkscape:current-layer="svg4460" />
  <defs
     id="defs4462" />
  <metadata
     id="metadata4465">
    <rdf:RDF>
      <cc:Work
         rdf:about="">
        <dc:format>image/svg+xml</dc:format>
        <dc:type
           rdf:resource="http://purl.org/dc/dcmitype/StillImage" />
        <dc:title></dc:title>
      </cc:Work>
    </rdf:RDF>
  </metadata>
  <path
     style="color:#000000;font-style:normal;font-variant:normal;font-weight:normal;font-stretch:normal;font-size:medium;line-height:normal;font-family:sans-serif;text-indent:0;text-align:start;text-decoration:none;text-decoration-line:none;text-decoration-style:solid;text-decoration-color:#000000;letter-spacing:normal;word-spacing:normal;text-transform:none;direction:ltr;block-progression:tb;writing-mode:lr-tb;baseline-shift:baseline;text-anchor:start;white-space:normal;clip-rule:nonzero;display:inline;overflow:visible;visibility:visible;opacity:1;isolation:auto;mix-blend-mode:normal;color-interpolation:sRGB;color-interpolation-filters:linearRGB;solid-color:#000000;solid-opacity:1;fill:#ff0000;fill-opacity:1;fill-rule:evenodd;stroke:none;stroke-width:1px;stroke-linecap:round;stroke-linejoin:round;stroke-miterlimit:4;stroke-dasharray:none;stroke-dashoffset:0;stroke-opacity:1;color-rendering:auto;image-rendering:auto;shape-rendering:auto;text-rendering:auto;enable-background:accumulate"
     d="M 7.7818056,4.6250631 C 7.4465023,4.6236133 7.186762,4.9179856 7.2299503,5.2504991 8.6731601,7.4465557 10.289024,9.5810491 8.3033632,12.987295 8.2841497,12.987471 8.2663501,12.991662 8.2470955,12.991623 7.0974711,12.989336 5.9498109,12.590757 5.5700559,12.147609 A 0.55407492,0.55407492 0 0 0 4.9705894,11.985299 C 4.1640776,12.258781 3.674739,12.864799 3.2349502,13.034906 3.0150557,13.119959 2.8469996,13.140909 2.5748879,13.034906 2.3027761,12.928903 1.9158723,12.65588 1.4300585,12.074028 A 0.55407492,0.55407492 0 1 0 0.57955193,12.783866 C 1.1383418,13.45312 1.6515098,13.863457 2.1745223,14.0672 2.6975344,14.270943 3.222626,14.228989 3.6353158,14.069364 4.3782641,13.781997 4.8237866,13.318861 5.1588695,13.13662 5.9598699,13.778091 7.0745329,14.097334 8.2449314,14.099662 9.4016465,14.101963 10.51006,13.768162 11.285546,13.067367 12.033621,13.658404 12.84648,13.859975 13.47349,13.647357 13.843884,13.521758 14.146627,13.312758 14.371608,13.07386 14.417964,13.024637 14.416931,12.947636 14.458174,12.896401 15.163317,13.264893 15.877449,13.715126 16.745668,13.913546 17.639636,14.11785 18.662823,13.864917 19.678077,13.134456 19.779873,13.280573 19.820412,13.406141 20.022175,13.545642 20.215856,13.679556 20.49087,13.768303 20.768803,13.751236 21.046734,13.734169 21.316094,13.632247 21.601996,13.46557 A 0.55407492,0.55407492 0 1 0 21.045812,12.50902 C 20.85788,12.618584 20.743657,12.642786 20.701714,12.645361 20.659772,12.647937 20.678176,12.651182 20.654103,12.634541 20.605957,12.60125 20.464421,12.385092 20.258065,12.102162 A 0.55407492,0.55407492 0 0 0 19.433529,12.024253 C 18.454721,12.934617 17.759828,13.009031 16.992381,12.833641 16.484761,12.717631 15.934803,12.440765 15.362783,12.143281 13.517971,5.7051524 10.814582,5.4926911 8.1778431,4.7960301 8.0743451,4.6878831 7.9314929,4.6262147 7.7818056,4.6250631 Z M 7.5069601,14.664503 A 0.55407492,0.55407492 0 0 0 7.0827888,14.904722 C 6.7513665,15.387396 6.4332926,15.611529 6.0959415,15.666499 5.7585907,15.721469 5.3042924,15.617872 4.6741024,15.166583 A 0.55407492,0.55407492 0 1 0 4.0291891,16.066864 C 4.8027986,16.620859 5.5599064,16.87565 6.273401,16.759389 6.8073978,16.672376 7.185231,16.247884 7.5632277,15.841794 7.8838638,16.049338 8.2000332,16.267725 8.5717163,16.35253 9.0741887,16.467178 9.6428514,16.398792 10.142881,16.086342 A 0.55407492,0.55407492 0 1 0 9.5563994,15.147106 C 9.2862069,15.315939 9.086178,15.333717 8.8184281,15.272625 8.5506782,15.211534 8.2222748,15.037512 7.8705354,14.774873 A 0.55407492,0.55407492 0 0 0 7.5069601,14.664503 Z M 18.230267,16.097163 A 0.55407492,0.55407492 0 0 0 18.174,16.099327 0.55407492,0.55407492 0 0 0 17.840723,16.244324 C 17.099417,16.927133 16.589242,17.711246 15.98822,18.049215 15.687709,18.2182 15.376374,18.304527 14.923463,18.254808 14.470553,18.20509 13.86911,18.001799 13.081782,17.531986 A 0.55407492,0.55407492 0 1 0 12.514777,18.482043 C 13.392567,19.005835 14.134153,19.283012 14.802272,19.356355 15.47039,19.429699 16.059341,19.279882 16.531419,19.014421 17.317793,18.572224 17.764665,17.915735 18.247581,17.386989 18.319028,17.452307 18.362916,17.469716 18.446682,17.562284 18.639864,17.775766 18.848927,18.040692 19.145698,18.2613 19.44247,18.481911 19.907594,18.648192 20.366273,18.508013 20.674239,18.413894 20.934603,18.086354 21.203794,17.802503 21.407262,17.943294 21.593383,18.089893 21.861693,18.202869 22.269393,18.374537 22.868534,18.399361 23.331143,18.051379 A 0.55407492,0.55407492 0 1 0 22.664588,17.166246 C 22.506932,17.284838 22.491897,17.266327 22.290192,17.181396 22.088487,17.096464 21.79889,16.882378 21.467819,16.66633 A 0.55407492,0.55407492 0 0 0 20.716863,16.804835 C 20.379687,17.26772 20.131387,17.422324 20.041652,17.449749 19.951916,17.477173 19.94625,17.474666 19.807924,17.37184 19.6696,17.269015 19.479866,17.055341 19.26689,16.819984 19.053914,16.584629 18.816748,16.315157 18.444517,16.146937 A 0.55407492,0.55407492 0 0 0 18.230267,16.097163 Z"
     id="path4221"
     inkscape:connector-curvature="0" />
</svg>
