<?xml version="1.0" encoding="UTF-8" standalone="no"?>
<!-- Created with Inkscape (http://www.inkscape.org/) -->

<svg
   xmlns:dc="http://purl.org/dc/elements/1.1/"
   xmlns:cc="http://creativecommons.org/ns#"
   xmlns:rdf="http://www.w3.org/1999/02/22-rdf-syntax-ns#"
   xmlns:svg="http://www.w3.org/2000/svg"
   xmlns="http://www.w3.org/2000/svg"
   xmlns:sodipodi="http://sodipodi.sourceforge.net/DTD/sodipodi-0.dtd"
   xmlns:inkscape="http://www.inkscape.org/namespaces/inkscape"
   version="1.1"
   width="24"
   height="24"
   id="svg4460"
   inkscape:version="0.91 r13725"
   sodipodi:docname="canon.svg">
  <sodipodi:namedview
     pagecolor="#ffffff"
     bordercolor="#666666"
     borderopacity="1"
     objecttolerance="10"
     gridtolerance="10"
     guidetolerance="10"
     inkscape:pageopacity="0"
     inkscape:pageshadow="2"
     inkscape:window-width="1280"
     inkscape:window-height="972"
     id="namedview11"
     showgrid="false"
     inkscape:zoom="9.8333331"
     inkscape:cx="-14.406614"
     inkscape:cy="1.5491221"
     inkscape:window-x="-8"
     inkscape:window-y="-8"
     inkscape:window-maximized="1"
     inkscape:current-layer="svg4460" />
  <defs
     id="defs4462" />
  <metadata
     id="metadata4465">
    <rdf:RDF>
      <cc:Work
         rdf:about="">
        <dc:format>image/svg+xml</dc:format>
        <dc:type
           rdf:resource="http://purl.org/dc/dcmitype/StillImage" />
        <dc:title></dc:title>
      </cc:Work>
    </rdf:RDF>
  </metadata>
  <path
     style="color:#000000;display:inline;overflow:visible;visibility:visible;opacity:1;fill:#000000;fill-opacity:1;fill-rule:nonzero;stroke:none;stroke-width:4.5;stroke-linecap:round;stroke-linejoin:round;stroke-miterlimit:4;stroke-dasharray:none;stroke-dashoffset:0;stroke-opacity:1;marker:none;enable-background:accumulate"
     d="M 3.2578097,2.5976898 C 3.0234404,2.6290511 2.8507294,2.7388197 2.8007785,2.9297211 2.7499345,3.3035987 2.8236337,3.6844007 2.8320285,4.0605805 2.8563234,4.3705199 2.8064839,4.7986928 3.1640597,4.9394867 3.5021678,5.1028722 3.9232729,4.7802937 3.8574191,4.4121429 3.8224273,3.9267026 3.795753,3.4375703 3.7695285,2.9531586 3.7164227,2.7239272 3.492179,2.5663286 3.2578097,2.5976898 Z M 5.9355441,4.0390961 C 5.6202298,4.0449102 5.3645474,4.2673818 5.0839816,4.3867523 4.8003612,4.5602402 4.4552756,4.6525963 4.2187472,4.8906586 3.967191,5.1928136 4.2183898,5.7048513 4.6113253,5.6914398 4.9397037,5.6578668 5.2025516,5.419111 5.5019503,5.2949555 5.7394694,5.1572191 6.0053755,5.0651141 6.2324191,4.9140961 6.404049,4.7699157 6.443734,4.5146846 6.3417941,4.3203461 6.2776288,4.1651329 6.1038594,4.0522598 5.9355441,4.0390961 Z M 0.61718465,4.9062836 C 0.38056005,4.9110587 0.17744285,5.0972294 0.14648155,5.3281586 0.08992435,5.5815994 0.28186245,5.8617564 0.54296585,5.9023773 1.0467212,5.9842734 1.5513472,6.0675561 2.0585909,6.1211273 2.4517397,6.1246183 2.688786,5.606291 2.4296847,5.3105805 2.1996461,5.0395993 1.8040819,5.1193647 1.4921847,5.0390961 1.1995227,5.0022591 0.90795419,4.9444229 0.61718465,4.9062836 Z M 20.22656,5.6816742 C 19.889742,5.8296371 19.627994,6.06316 19.416013,6.3340179 L 12.888669,7.5058929 C 11.794909,6.9373268 9.155953,7.1407632 7.5703097,7.4414398 7.7240335,7.1250158 7.6258634,6.7626097 7.6308566,6.5176117 7.5285815,6.2254189 7.2078443,6.0284229 6.9687472,5.9902679 6.7296501,5.952113 6.5235753,5.9820703 6.3085909,6.0176117 5.8786223,6.0886945 5.4151448,6.2070661 5.0175753,6.2187836 4.6200058,6.230501 4.3502417,6.1650492 4.1328097,5.9140961 4.0342073,5.7969823 3.8873897,5.7314901 3.7343722,5.7363617 3.3087414,5.7487887 3.0924107,6.2535603 3.3769503,6.5703461 3.8353483,7.0994145 4.4910573,7.2332117 5.0468722,7.2168305 5.6026871,7.2004491 6.1190146,7.0624037 6.4726535,7.0039398 6.6963998,6.9211254 6.6120359,7.0855295 6.6328097,7.0976898 6.5905562,7.2399826 6.4661139,7.5043807 6.3574191,7.7441742 3.6461408,8.7559178 2.0966495,11.679114 2.8613253,14.531284 3.3725012,16.440116 4.7989684,17.858286 6.5410128,18.445346 6.9194967,17.300984 7.4156744,16.399178 8.0195285,15.732456 9.1289268,14.507556 10.609633,14.112882 12.066404,14.392612 13.04445,14.580418 14.019054,15.059161 14.947263,15.730503 14.987297,15.679145 15.046127,15.626992 15.078122,15.576206 L 21.369138,13.220737 C 21.649592,13.341024 21.944461,13.421385 22.261716,13.408237 22.69549,13.390261 23.087593,13.169223 23.335935,12.857456 23.584276,12.545689 23.716794,12.164735 23.791013,11.750034 23.939453,10.920631 23.850069,9.9298867 23.611326,8.9707367 23.372583,8.0115855 22.988463,7.0907566 22.447263,6.4238617 21.74263,5.5934966 21.009879,5.2000705 20.22656,5.6816742 Z M 2.8046847,6.6230805 C 2.5610319,6.6277073 2.3808414,6.8166162 2.2812472,7.0254242 2.0522078,7.4238834 1.7950663,7.8103851 1.5937472,8.2226898 1.4659923,8.5945189 1.8816187,8.9822895 2.2441378,8.8301117 2.5612455,8.6963081 2.6374216,8.3166809 2.8281222,8.0605805 2.9728087,7.8029866 3.1376897,7.5550568 3.2812472,7.2988617 3.3643401,7.0798281 3.2701936,6.8213152 3.0683566,6.7070648 3.0009279,6.6384453 2.8905242,6.6534407 2.8046847,6.6230805 Z M 6.3417941,9.7988617 6.3437472,9.7988617 C 6.5610052,9.8067867 6.7399844,9.8820397 6.8593722,10.015659 7.2033478,10.400486 6.9777717,11.163773 6.3554659,11.720737 5.7332838,12.277534 4.9499851,12.417409 4.6054659,12.033237 4.2605177,11.649069 4.4852546,10.885663 5.1074191,10.328159 5.4907901,9.9847667 5.9558424,9.7853527 6.3417941,9.7988617 Z M 8.7597628,16.404331 C 7.9349934,17.314968 7.2896643,18.990826 6.9648409,21.406284 L 18.179685,21.406284 C 16.639292,18.218767 14.076528,15.795446 11.876951,15.373081 10.684021,15.154038 9.4289292,15.68406 8.7597628,16.404331 Z M 10.9082,16.992221 C 11.54427,16.991228 12.060459,17.506541 12.060544,18.142612 12.060459,18.778683 11.54427,19.293996 10.9082,19.293003 10.272893,19.292917 9.7578957,18.77792 9.7578097,18.142612 9.7578957,17.507304 10.272893,16.992307 10.9082,16.992221 Z"
     id="path4773"
     inkscape:connector-curvature="0"
     sodipodi:nodetypes="scccccsccccccccccccccccccccssscccscccccsscccssssccccccccccccccccccccccccccc" />
</svg>
