<?xml version="1.0" encoding="UTF-8" standalone="no"?>
<!-- Created with Inkscape (http://www.inkscape.org/) -->

<svg
   xmlns:dc="http://purl.org/dc/elements/1.1/"
   xmlns:cc="http://creativecommons.org/ns#"
   xmlns:rdf="http://www.w3.org/1999/02/22-rdf-syntax-ns#"
   xmlns:svg="http://www.w3.org/2000/svg"
   xmlns="http://www.w3.org/2000/svg"
   xmlns:sodipodi="http://sodipodi.sourceforge.net/DTD/sodipodi-0.dtd"
   xmlns:inkscape="http://www.inkscape.org/namespaces/inkscape"
   version="1.1"
   width="24"
   height="24"
   id="svg4460"
   inkscape:version="0.91 r13725"
   sodipodi:docname="bombe.svg">
  <sodipodi:namedview
     pagecolor="#ffffff"
     bordercolor="#666666"
     borderopacity="1"
     objecttolerance="10"
     gridtolerance="10"
     guidetolerance="10"
     inkscape:pageopacity="0"
     inkscape:pageshadow="2"
     inkscape:window-width="1280"
     inkscape:window-height="972"
     id="namedview11"
     showgrid="false"
     inkscape:zoom="13.906433"
     inkscape:cx="-4.2067271"
     inkscape:cy="7.0898553"
     inkscape:window-x="-8"
     inkscape:window-y="-8"
     inkscape:window-maximized="1"
     inkscape:current-layer="svg4460" />
  <defs
     id="defs4462" />
  <metadata
     id="metadata4465">
    <rdf:RDF>
      <cc:Work
         rdf:about="">
        <dc:format>image/svg+xml</dc:format>
        <dc:type
           rdf:resource="http://purl.org/dc/dcmitype/StillImage" />
        <dc:title />
      </cc:Work>
    </rdf:RDF>
  </metadata>
  <path
     style="color:#000000;display:inline;overflow:visible;visibility:visible;opacity:1;fill:#000000;fill-opacity:1;fill-rule:nonzero;stroke:none;stroke-width:0.5;stroke-linecap:round;stroke-linejoin:round;stroke-miterlimit:4;stroke-dasharray:none;stroke-dashoffset:0;stroke-opacity:1;marker:none;enable-background:accumulate"
     d="M 14.193148,0.00653801 C 14.02355,-0.02605285 13.854408,0.0650658 13.788321,0.22462201 L 13.032142,1.989517 C 12.823466,2.4422379 13.517019,2.7393613 13.700809,2.2759795 L 14.456695,0.51247491 C 14.552521,0.29830224 14.423575,0.05076258 14.193148,0.00653801 Z M 10.476741,0.66405011 C 10.122635,0.57823948 9.8762077,1.0084064 10.129347,1.2704652 L 11.484793,2.7274406 C 11.815445,3.0832414 12.349003,2.5869488 12.018031,2.2314458 L 10.661194,0.77417671 C 10.612195,0.7197401 10.547908,0.68135794 10.476741,0.66405011 Z M 16.462376,3.4024145 C 16.442289,3.3983468 16.421895,3.3959834 16.40141,3.3953496 L 14.614283,3.3084442 C 14.129209,3.2843046 14.093238,4.0120088 14.578328,4.0358251 L 16.367138,4.1216337 C 16.815171,4.1456682 16.901223,3.4958194 16.462376,3.4024145 Z M 13.152301,3.7797019 C 12.704094,3.6772768 12.274404,4.0109966 12.262704,4.4706086 12.262704,4.4706086 12.112577,6.3832161 13.539787,7.5160671 14.419233,8.2141311 15.547437,8.1617831 16.574662,8.2906101 17.088274,8.3550241 17.570245,8.4365931 17.928365,8.5590581 18.286485,8.6815231 18.489302,8.8286451 18.588311,8.9831201 18.671909,9.1135521 18.662537,8.9888601 18.576374,9.1084211 18.490211,9.2279821 18.217343,9.4462411 17.886856,9.6222501 17.842812,9.6457061 17.796421,9.6642581 17.75126,9.6865761 L 16.888181,8.9450891 C 16.841935,8.9050589 16.786343,8.877333 16.726545,8.8644741 16.633499,8.8448352 16.536463,8.8624035 16.456209,8.9134181 16.456209,8.9134181 16.117759,9.1282061 15.76124,9.3636381 15.582983,9.4813551 15.399948,9.6040771 15.249396,9.7101841 15.240494,9.7164581 15.234191,9.7207801 15.225524,9.7269301 15.188019,9.7379882 15.152542,9.7550193 15.120458,9.7773681 L 14.812984,9.9884141 C 11.753632,8.3944287 8.2106342,8.866396 5.7489175,11.730233 3.2872008,14.59407 3.4325902,19.533712 6.5460121,22.207086 9.659434,24.88046 14.654189,24.176309 17.024548,21.408895 19.394907,18.641481 19.388513,15.519816 17.760953,12.783939 L 18.691222,10.848099 C 18.694404,10.841072 18.697363,10.833946 18.700092,10.826731 19.087449,10.610915 19.470506,10.357762 19.757706,9.9592391 20.077389,9.5156441 20.173083,8.7571581 19.814512,8.1977111 19.471353,7.6623071 18.934241,7.3642141 18.39943,7.1813271 17.864618,6.9984401 17.301026,6.9142621 16.756285,6.8459451 15.666804,6.7093101 14.631124,6.5249111 14.44423,6.3765631 13.738757,5.8165921 13.716231,4.5277342 13.716231,4.5277342 13.73507,4.1744619 13.497114,3.8588224 13.152301,3.7797019 Z M 11.289913,3.7190258 C 11.209648,3.70308 11.12635,3.7146574 11.053476,3.7518879 L 9.2646454,4.6290947 C 8.8292011,4.8431337 9.1502598,5.4963004 9.5857041,5.2822614 L 11.374534,4.4050545 C 11.692043,4.2552949 11.634297,3.7871416 11.289913,3.7190258 Z M 10.778653,10.246159 C 11.139303,10.308612 11.451936,10.45147 11.700635,10.667458 12.809633,11.630666 12.422187,13.797939 10.83537,15.507537 9.2488605,17.217134 7.0640512,17.821705 5.9559121,16.85776 4.8469148,15.894552 5.2343604,13.727279 6.8211779,12.017681 8.0062637,10.740967 9.5780188,10.037388 10.778653,10.246159 Z"
     id="path3335"
     inkscape:connector-curvature="0"
     sodipodi:nodetypes="ccccccccccccccccccccssssscccccssccczzzcccssssscccccccccccccc" />
</svg>
