<?xml version="1.0" encoding="UTF-8" standalone="no"?>
<!-- Created with Inkscape (http://www.inkscape.org/) -->

<svg
   xmlns:dc="http://purl.org/dc/elements/1.1/"
   xmlns:cc="http://creativecommons.org/ns#"
   xmlns:rdf="http://www.w3.org/1999/02/22-rdf-syntax-ns#"
   xmlns:svg="http://www.w3.org/2000/svg"
   xmlns="http://www.w3.org/2000/svg"
   xmlns:sodipodi="http://sodipodi.sourceforge.net/DTD/sodipodi-0.dtd"
   xmlns:inkscape="http://www.inkscape.org/namespaces/inkscape"
   version="1.1"
   width="24"
   height="24"
   id="svg4460"
   inkscape:version="0.91 r13725"
   sodipodi:docname="vessel.svg">
  <sodipodi:namedview
     pagecolor="#ffffff"
     bordercolor="#666666"
     borderopacity="1"
     objecttolerance="10"
     gridtolerance="10"
     guidetolerance="10"
     inkscape:pageopacity="0"
     inkscape:pageshadow="2"
     inkscape:window-width="1280"
     inkscape:window-height="972"
     id="namedview11"
     showgrid="false"
     inkscape:zoom="3.4766083"
     inkscape:cx="-21.103603"
     inkscape:cy="23.29901"
     inkscape:window-x="-8"
     inkscape:window-y="-8"
     inkscape:window-maximized="1"
     inkscape:current-layer="svg4460"
     showguides="false" />
  <defs
     id="defs4462" />
  <metadata
     id="metadata4465">
    <rdf:RDF>
      <cc:Work
         rdf:about="">
        <dc:format>image/svg+xml</dc:format>
        <dc:type
           rdf:resource="http://purl.org/dc/dcmitype/StillImage" />
        <dc:title></dc:title>
      </cc:Work>
    </rdf:RDF>
  </metadata>
  <path
     style="fill:#000000;fill-rule:evenodd;stroke:#000000;stroke-width:0.23768382px;stroke-linecap:round;stroke-linejoin:round;stroke-opacity:1"
     d="M 9.7236424,2.4572253 C 9.7236424,2.4572253 9.7154764,4.3562753 9.7125014,5.0336813 L 9.5040634,5.0341453 C 9.5040634,5.0341453 9.4057404,5.5874073 9.3958994,5.6427453 L 8.7483034,5.2722933 C 9.1231014,6.4575843 8.8081334,7.6429743 7.9832584,8.8282653 8.2800574,8.7704753 8.5713144,8.7230353 8.8550754,8.6913193 8.8134694,8.9257173 8.7989514,9.0096273 8.7538744,9.2637103 L 7.5649914,9.2544253 C 8.3442144,11.266804 8.2075834,12.562543 6.4926284,14.574922 6.9646344,14.49987 7.4102584,14.447861 7.8439904,14.408729 7.7656904,14.853563 7.6668014,15.412565 7.6002724,15.792587 7.4945054,16.39674 7.4062204,16.90359 7.3444834,17.26372 7.3398244,17.290899 7.3381514,17.302297 7.3338064,17.327783 7.0363504,17.200423 6.7224134,17.057896 6.3733224,16.88259 L 4.2411314,16.818991 4.1872814,13.682215 C 4.7613794,13.753318 5.2929774,13.909625 5.7665784,14.181722 6.5660324,13.01949 6.2323594,11.857151 5.9717664,10.694919 L 4.1171834,9.6350913 4.0489414,5.6705993 3.9793074,7.9332373 3.8298264,7.9030633 C 3.8298264,7.9030633 3.6176304,8.9478283 3.5447924,9.3078113 L 2.1432934,8.5070213 C 2.7125674,10.307341 2.2337584,12.107973 0.98087039,13.908293 1.5566464,13.796182 2.1176044,13.714056 2.6590484,13.670609 2.5088024,14.407602 2.3502934,15.186273 2.2291754,15.776339 2.1188494,16.313824 2.0876494,16.455887 2.0253794,16.752607 L 0.66473239,16.711755 C 1.0037054,17.210965 0.49386939,18.235742 1.8953964,18.489277 2.8354954,20.722016 3.5104024,21.630907 4.9718234,21.428757 5.6440944,21.072909 7.3764434,19.935773 8.0487144,20.078788 7.6588074,23.393224 9.5736064,20.0318 12.01367,20.129852 10.737858,23.667115 14.859363,19.34485 15.979091,20.078788 14.080175,21.700308 15.634757,21.614802 16.833731,21.189681 18.126666,20.712797 18.957546,18.618845 19.910158,16.950831 19.891496,16.421692 22.251526,15.050533 23.335683,14.463972 21.111394,15.43703 14.674785,16.997506 14.400257,16.758177 L 14.167216,17.224261 13.5108,17.265577 C 13.574663,13.970034 13.697432,10.674494 13.258725,7.3789513 14.329567,8.6366673 16.059469,14.025133 13.560472,15.078607 14.94139,14.846286 18.962269,14.811476 19.930584,15.292151 20.537911,14.529288 17.139862,10.826899 16.941896,10.064036 L 13.257796,7.3710593 C 13.247561,7.2943273 13.238478,7.2175353 13.227622,7.1408033 13.354682,9.0373483 13.295685,13.927287 13.210445,17.284146 L 11.987674,17.360743 11.493273,14.651055 C 11.887359,14.761126 12.270386,14.900738 12.644554,15.076286 13.738848,13.777156 12.484105,10.588837 12.127406,9.2897063 L 10.512363,9.2771723 10.413947,8.7363493 C 10.67038,8.7939243 10.91239,8.8810863 11.133962,9.0083853 11.660305,8.2431973 11.44062,7.4779743 11.269051,6.7127873 L 9.9019054,5.9314943 9.7821354,5.2764713 9.7236424,2.4572253 Z M 13.227622,7.1408033 C 13.198085,6.6999253 13.158956,6.4157223 13.107387,6.3641533 13.151485,6.6231003 13.190985,6.8818563 13.227622,7.1408033 Z M 14.400257,16.758177 14.440645,16.677402 C 14.39265,16.714119 14.380791,16.74092 14.400257,16.758177 Z M 23.335683,14.463972 C 23.506563,14.389217 23.656581,14.317156 23.772984,14.250427 24.038535,14.098199 23.786287,14.220181 23.335683,14.463972 Z M 9.7073944,2.7863613 C 9.3017724,3.4186213 7.6054044,4.5730243 7.7167924,3.9204663 7.8178434,3.3284713 7.4353994,3.2791563 5.9211664,3.7965183 6.7700584,3.5832213 7.3109034,3.9280863 7.2274984,4.5258173 7.1289754,5.2318923 8.9268194,4.5362903 9.5500224,4.3665873 8.8774194,3.8943913 9.5721234,3.2722593 9.7073944,2.7863613 Z M 5.9211664,3.7965183 C 5.7672964,3.8351803 5.6046844,3.8895243 5.4323354,3.9668893 5.6119164,3.9019293 5.7662554,3.8494453 5.9211664,3.7965183 Z M 9.6224414,5.7263063 9.6317254,5.7773713 9.6150134,5.7676223 C 9.6157584,5.7634383 9.6217294,5.7303083 9.6224414,5.7263063 Z M 3.8697504,5.9291733 C 3.5180334,6.3284063 3.0967434,6.6801363 2.2421734,6.7777783 1.3876034,6.8754203 0.95813239,6.4134273 0.11880239,6.8177023 0.96704639,6.8235423 1.1099874,7.0936663 1.7872314,7.2930693 2.4644754,7.4924733 3.4271904,7.3675033 3.9454194,7.1579803 3.1371254,6.9058633 3.3751164,6.4431793 3.8697504,5.9291733 Z M 3.9639884,8.4373873 3.9305644,9.5283193 3.7620494,9.4322243 C 3.8159904,9.1658293 3.9440474,8.5359373 3.9639884,8.4373873 Z M 9.6925394,8.6500033 C 9.6941264,8.6500443 9.6955964,8.6504243 9.6971814,8.6504673 9.6959244,8.9387473 9.6956924,8.9730863 9.6943964,9.2706733 L 8.9948074,9.2651023 C 9.0365554,9.0297733 9.0625504,8.8829273 9.1001864,8.6708933 9.3020484,8.6550633 9.5010834,8.6450223 9.6925394,8.6500033 Z M 9.8531614,8.6616083 C 9.9585464,8.6681983 10.062362,8.6776223 10.163729,8.6922473 L 10.270501,9.2753153 9.8656964,9.2720663 9.8531614,8.6616083 Z M 3.2704344,13.635792 C 3.4517744,13.633218 3.6294404,13.637927 3.8042944,13.648326 L 3.7077354,16.802743 2.2667774,16.75957 C 2.3285304,16.464367 2.3570924,16.336297 2.4622164,15.824154 2.5872804,15.214871 2.7501674,14.413327 2.9055524,13.650183 3.0282874,13.643348 3.1502644,13.637497 3.2704344,13.635792 Z M 9.0723334,14.343737 C 9.2765584,14.343467 9.4758374,14.350263 9.6725784,14.360913 9.6667134,15.751848 9.6581744,17.655099 9.6572584,17.964237 9.1249814,17.939505 8.4589214,17.790931 7.5584914,17.424342 7.5661864,17.379143 7.5701204,17.354958 7.5789174,17.303643 7.6405614,16.944054 7.7284994,16.437915 7.8342424,15.833903 7.9038154,15.43649 8.0072064,14.854256 8.0895664,14.386446 8.4262634,14.361257 8.7557914,14.344156 9.0723334,14.343737 Z M 9.9720034,14.381804 C 10.410319,14.419072 10.831716,14.484961 11.239341,14.583742 L 11.759739,17.434555 C 11.212928,17.63305 10.752631,17.9116 10.046744,17.96238 L 9.9720034,14.381804 Z"
     id="path4269"
     inkscape:connector-curvature="0" />
</svg>
