<?xml version="1.0" encoding="UTF-8" standalone="no"?>
<!-- Created with Inkscape (http://www.inkscape.org/) -->

<svg
   xmlns:dc="http://purl.org/dc/elements/1.1/"
   xmlns:cc="http://creativecommons.org/ns#"
   xmlns:rdf="http://www.w3.org/1999/02/22-rdf-syntax-ns#"
   xmlns:svg="http://www.w3.org/2000/svg"
   xmlns="http://www.w3.org/2000/svg"
   xmlns:sodipodi="http://sodipodi.sourceforge.net/DTD/sodipodi-0.dtd"
   xmlns:inkscape="http://www.inkscape.org/namespaces/inkscape"
   version="1.1"
   width="24"
   height="24"
   id="svg4460"
   inkscape:version="0.91 r13725"
   sodipodi:docname="ship.svg">
  <sodipodi:namedview
     pagecolor="#ffffff"
     bordercolor="#666666"
     borderopacity="1"
     objecttolerance="10"
     gridtolerance="10"
     guidetolerance="10"
     inkscape:pageopacity="0"
     inkscape:pageshadow="2"
     inkscape:window-width="1280"
     inkscape:window-height="972"
     id="namedview11"
     showgrid="false"
     inkscape:zoom="4.9166666"
     inkscape:cx="-12.57764"
     inkscape:cy="-25.231929"
     inkscape:window-x="-8"
     inkscape:window-y="-8"
     inkscape:window-maximized="1"
     inkscape:current-layer="svg4460"
     showguides="false" />
  <defs
     id="defs4462" />
  <metadata
     id="metadata4465">
    <rdf:RDF>
      <cc:Work
         rdf:about="">
        <dc:format>image/svg+xml</dc:format>
        <dc:type
           rdf:resource="http://purl.org/dc/dcmitype/StillImage" />
        <dc:title></dc:title>
      </cc:Work>
    </rdf:RDF>
  </metadata>
  <path
     style="fill:#000000;fill-rule:evenodd;stroke:#000000;stroke-width:0.23225388px;stroke-linecap:round;stroke-linejoin:round;stroke-opacity:1"
     d="M 9.4688705,2.8473811 C 9.4688705,2.8473811 9.4594745,5.0711971 9.4548085,6.1347711 L 8.5158135,5.5981381 C 8.8820485,6.7563511 8.5742755,7.9146611 7.7682455,9.0728741 8.1004375,9.0081921 8.4245205,8.9592291 8.7394485,8.9290761 8.8981325,9.7312241 8.7383535,10.533386 8.3261995,11.335535 L 7.3028305,10.750817 C 7.9549835,12.813241 7.4076955,14.875782 5.9737215,16.938206 L 4.1120615,16.89738 4.0830305,15.210364 C 4.5805905,15.288148 5.0434845,15.434537 5.4602225,15.673964 6.2414135,14.538284 5.9153625,13.402499 5.6607235,12.266818 L 4.0158945,11.326916 3.9936665,10.033189 C 4.4656605,10.049031 4.8991525,10.142427 5.2719705,10.356621 5.7501545,9.6614451 5.5507715,8.9660471 5.3949015,8.2708721 L 3.9487585,7.4448291 3.9238095,5.9873451 3.8802615,7.4053641 3.1045695,6.9621761 C 3.4450745,8.0390171 3.1590235,9.1160231 2.4096225,10.192864 2.8936345,10.09862 3.3609955,10.037359 3.7999705,10.033189 L 3.7645885,11.183118 1.9197125,10.128903 C 2.4759805,11.888094 2.0085645,13.647591 0.78429949,15.406782 1.7941375,15.210153 2.7641885,15.092808 3.6425645,15.159105 L 3.5899445,16.876513 3.5967485,16.886039 0.11611549,16.809377 C 0.44734449,17.297183 0.88422649,17.864613 1.9197125,18.88061 L 3.3227615,18.88061 5.8612235,21.085208 16.416527,21.15189 C 17.679925,20.685901 18.491824,18.639785 19.422673,17.009878 19.422673,17.009878 23.564526,15.406451 23.89855,15.339646 24.019408,15.315474 22.635641,15.512168 20.988119,15.747905 18.256645,13.703677 16.218829,11.153843 14.063596,8.6895641 14.04728,8.6032071 14.027189,8.5169031 14.0078,8.4305471 16.451103,10.578319 19.142267,12.470257 20.749968,15.480722 20.464623,13.88928 22.030897,14.503364 23.748855,15.298366 19.860968,13.271178 17.022696,10.702464 13.967428,8.2454691 13.96431,8.2317001 13.961443,8.2179591 13.958355,8.2041901 L 13.803671,8.1157341 C 13.490664,7.8651171 13.177267,7.6145791 12.857871,7.3672591 L 12.85016,6.9984661 C 13.175681,7.2426541 13.764851,7.3860971 14.181537,7.1513361 14.603418,6.9136481 14.692379,6.5912711 15.220782,6.5843101 14.697931,6.1024161 14.430369,6.6535221 13.898024,6.5371331 13.365679,6.4207441 13.10328,6.0014431 12.884181,5.5255591 12.996223,6.0194581 13.519368,6.5427101 12.849706,6.9807741 L 12.808427,4.9948221 C 12.808427,4.9948221 12.800507,6.8654021 12.79754,7.5409961 L 11.865803,7.0084451 C 12.17697,7.9925051 11.915112,8.9765501 11.23028,9.9606101 11.779989,9.8535741 12.307193,9.7919691 12.788014,9.8227091 12.786332,10.207084 12.785763,10.324894 12.783931,10.744467 L 11.775986,10.246845 C 12.120818,11.189082 11.947545,12.131118 11.36682,13.073356 L 9.6616595,12.098978 9.6571235,11.877612 C 10.144427,11.899746 10.593179,11.999025 10.980335,12.221456 11.494653,11.473749 11.279987,10.726008 11.112338,9.9783011 L 9.5995135,9.1137001 9.5949775,8.9100241 C 10.054363,8.9387001 10.478961,9.0374481 10.84697,9.2488791 11.361289,8.5011721 11.146623,7.7534301 10.978974,7.0057241 L 9.5382745,6.1824021 9.5278415,5.6761611 C 9.8524895,5.9222211 10.445322,6.0674971 10.863754,5.8317531 11.285635,5.5940651 11.374596,5.2716881 11.902999,5.2647271 11.380149,4.7828331 11.112586,5.3339391 10.580241,5.2175501 10.047896,5.1011611 9.7854975,4.6818601 9.5663985,4.2059761 9.6787155,4.7010911 10.204597,5.2256461 9.5273875,5.6643671 L 9.4688705,2.8473811 Z M 9.5577805,2.8891141 C 9.8330625,3.4125861 9.9654385,3.8838951 9.5155935,4.1406541 9.8040065,4.3540361 10.33987,4.4811771 10.716781,4.2781011 11.093692,4.0750261 11.173264,3.8000361 11.645343,3.7940881 11.178225,3.3823691 10.93926,3.8531561 10.46366,3.7537161 9.9880605,3.6542751 9.7535235,3.2956991 9.5577805,2.8891141 Z M 4.0367605,5.9428901 C 4.3120425,6.4663611 4.4444195,6.9372171 3.9945735,7.1939761 4.2829875,7.4073581 4.8193045,7.5349521 5.1962155,7.3318771 5.5731265,7.1288021 5.6522445,6.8533571 6.1243235,6.8474101 5.6572055,6.4356911 5.4182415,6.9064781 4.9426415,6.8070381 4.4670415,6.7075971 4.2325045,6.3494751 4.0367605,5.9428901 Z M 12.857871,7.3745171 C 12.912593,7.4277421 12.968681,7.4796621 13.023897,7.5323771 13.082838,7.6132871 13.142925,7.6925361 13.202623,7.7723431 L 12.862407,7.5777391 12.857871,7.3745171 Z M 13.075609,7.5813681 C 13.181777,7.6821701 13.287653,7.7834131 13.395412,7.8825731 L 13.291987,7.8236021 C 13.219473,7.7431461 13.148624,7.6614581 13.075609,7.5813681 Z M 9.4384775,8.8986831 C 9.4400275,8.8987241 9.4414645,8.8990951 9.4430145,8.8991371 9.4427605,8.9573311 9.4428165,8.9656951 9.4425605,9.0243361 L 9.2275445,8.9014051 C 9.2979225,8.9002511 9.3695725,8.8968911 9.4384775,8.8986831 Z M 14.099432,8.9095701 C 15.854958,11.053827 17.741676,13.006707 18.888308,16.038676 18.684657,14.43477 19.751343,14.967768 20.966798,15.75108 18.388647,16.120007 15.560431,16.52865 14.798915,16.638816 15.117064,15.936537 14.93571,15.234027 14.789389,14.531747 L 13.20852,13.559638 C 13.666864,13.600688 14.091443,13.700334 14.465957,13.886245 15.05941,13.140809 14.811364,12.395329 14.61792,11.649894 L 12.929997,10.816592 12.90913,9.8313281 C 13.250886,9.8655531 13.567527,9.9496821 13.846311,10.109851 14.121503,9.7097821 14.150859,9.3096391 14.099432,8.9095701 Z M 9.4303125,11.873529 C 9.4301185,11.918481 9.4300525,11.921723 9.4298585,11.966521 L 9.2710915,11.875797 C 9.3247285,11.874024 9.3774835,11.873688 9.4303125,11.873529 Z M 12.484995,13.541039 C 12.620186,14.437306 12.411672,15.333384 11.928402,16.22965 12.152866,15.350722 11.967773,14.47168 11.767821,13.592752 12.012371,13.566245 12.251772,13.547972 12.484995,13.541039 Z M 13.280192,16.527679 C 13.638836,16.53772 13.975702,16.594929 14.284055,16.71321 14.275742,16.714413 14.078111,16.742695 14.078111,16.742695 L 13.810929,17.277061 13.065176,17.323784 13.048846,16.531308 C 13.126322,16.529541 13.204522,16.52556 13.280192,16.527679 Z M 12.758982,16.544916 C 12.757665,16.856822 12.756939,17.071352 12.755807,17.343289 L 11.673467,17.410879 C 11.037309,17.600615 10.564647,17.942202 9.7845905,17.998318 L 9.7573735,16.700508 C 10.372751,16.788005 10.945053,16.962469 11.45709,17.256648 11.58767,17.066813 11.689158,16.876735 11.770996,16.6869 12.109636,16.619472 12.44029,16.56941 12.758982,16.544916 Z M 8.5951965,16.630651 C 8.8735045,16.626701 9.1447355,16.637347 9.4094465,16.66059 9.4082685,16.959111 9.4038895,17.88521 9.4035485,18.000132 8.6771095,17.966286 7.6977035,17.697776 6.1950885,16.943196 L 5.9932275,16.938659 C 6.8968675,16.763532 7.7732875,16.642316 8.5951965,16.630651 Z"
     id="path4269"
     inkscape:connector-curvature="0" />
</svg>
