<?xml version="1.0" encoding="UTF-8" standalone="no"?>
<!-- Created with Inkscape (http://www.inkscape.org/) -->

<svg
   xmlns:dc="http://purl.org/dc/elements/1.1/"
   xmlns:cc="http://creativecommons.org/ns#"
   xmlns:rdf="http://www.w3.org/1999/02/22-rdf-syntax-ns#"
   xmlns:svg="http://www.w3.org/2000/svg"
   xmlns="http://www.w3.org/2000/svg"
   xmlns:sodipodi="http://sodipodi.sourceforge.net/DTD/sodipodi-0.dtd"
   xmlns:inkscape="http://www.inkscape.org/namespaces/inkscape"
   version="1.1"
   width="24"
   height="24"
   id="svg4460"
   inkscape:version="0.91 r13725"
   sodipodi:docname="navire.svg">
  <sodipodi:namedview
     pagecolor="#ffffff"
     bordercolor="#666666"
     borderopacity="1"
     objecttolerance="10"
     gridtolerance="10"
     guidetolerance="10"
     inkscape:pageopacity="0"
     inkscape:pageshadow="2"
     inkscape:window-width="1280"
     inkscape:window-height="972"
     id="namedview11"
     showgrid="false"
     inkscape:zoom="3.4766083"
     inkscape:cx="19.897047"
     inkscape:cy="55.49256"
     inkscape:window-x="-8"
     inkscape:window-y="-8"
     inkscape:window-maximized="1"
     inkscape:current-layer="svg4460"
     showguides="false" />
  <defs
     id="defs4462" />
  <metadata
     id="metadata4465">
    <rdf:RDF>
      <cc:Work
         rdf:about="">
        <dc:format>image/svg+xml</dc:format>
        <dc:type
           rdf:resource="http://purl.org/dc/dcmitype/StillImage" />
        <dc:title></dc:title>
      </cc:Work>
    </rdf:RDF>
  </metadata>
  <path
     style="color:#000000;font-style:normal;font-variant:normal;font-weight:normal;font-stretch:normal;font-size:medium;line-height:normal;font-family:sans-serif;text-indent:0;text-align:start;text-decoration:none;text-decoration-line:none;text-decoration-style:solid;text-decoration-color:#000000;letter-spacing:normal;word-spacing:normal;text-transform:none;direction:ltr;block-progression:tb;writing-mode:lr-tb;baseline-shift:baseline;text-anchor:start;white-space:normal;clip-rule:nonzero;display:inline;overflow:visible;visibility:visible;opacity:1;isolation:auto;mix-blend-mode:normal;color-interpolation:sRGB;color-interpolation-filters:linearRGB;solid-color:#000000;solid-opacity:1;fill:#000000;fill-opacity:1;fill-rule:evenodd;stroke:none;stroke-width:0.12440097px;stroke-linecap:round;stroke-linejoin:round;stroke-miterlimit:4;stroke-dasharray:none;stroke-dashoffset:0;stroke-opacity:1;color-rendering:auto;image-rendering:auto;shape-rendering:auto;text-rendering:auto;enable-background:accumulate"
     d="M 11.962891 0.25390625 A 0.13538462 0.14399597 0 0 0 11.833984 0.39648438 L 11.833984 0.40039062 A 0.17633587 0.18755198 0 0 0 11.777344 0.43945312 C 11.48068 0.74807804 11.322633 0.99348754 11.177734 1.1152344 C 11.032833 1.2369814 10.900037 1.2843457 10.515625 1.2226562 C 10.170077 1.1672038 9.9836381 0.93272874 9.7167969 0.70703125 C 9.5833765 0.5941825 9.4263676 0.48619448 9.2265625 0.44335938 C 9.0267574 0.4005243 8.7946782 0.42702615 8.5214844 0.54296875 A 0.17633587 0.18755198 0 0 0 8.5214844 0.890625 C 8.861137 1.0341506 8.9916797 1.2011722 9.1210938 1.4316406 C 9.2505076 1.662109 9.3640441 1.966595 9.6171875 2.2910156 C 9.8848581 2.6340535 10.273162 2.8299332 10.667969 2.9179688 C 11.062776 3.0060043 11.467889 2.9891795 11.798828 2.8828125 A 0.17633587 0.18755198 0 0 0 11.824219 2.8730469 C 11.822703 3.2430784 11.818708 4.0187287 11.816406 4.5820312 L 8.3144531 2.4960938 A 0.22552903 0.23987415 0 0 0 8.2070312 2.4648438 A 0.22552903 0.23987415 0 0 0 7.9902344 2.7792969 C 9.0498361 6.2714464 8.1780238 9.7521104 5.8359375 13.287109 A 0.47014567 0.50005 0 0 0 5.6523438 13.197266 L 1.1582031 12.179688 A 0.47014567 0.50005 0 0 0 0.72851562 12.316406 C 0.14207969 12.942476 -0.063412915 13.802842 0.017578125 14.625 C 0.098569155 15.447158 0.44922171 16.252965 1.0058594 16.876953 A 0.47014567 0.50005 0 0 0 1.21875 17.013672 L 3.2773438 17.626953 C 3.231029 19.510657 3.4096173 20.676287 3.7617188 21.435547 C 4.1433998 22.258593 4.6367838 22.619189 4.9804688 23.128906 A 0.47014567 0.50005 0 0 0 5.6660156 23.220703 C 6.1277116 22.80871 6.5066952 22.527825 7.0351562 22.390625 C 7.0027435 22.617219 6.8781172 22.893678 6.9453125 23.109375 C 7.0160662 23.336495 7.2282119 23.558184 7.4414062 23.623047 C 7.6546006 23.68791 7.8342106 23.656105 8.0078125 23.611328 C 8.5852447 23.462394 9.2822403 23.031725 10.001953 22.662109 C 10.106564 22.953516 10.178076 23.302623 10.369141 23.482422 C 10.527227 23.631188 10.738195 23.726394 10.939453 23.740234 C 11.140708 23.754073 11.321179 23.7028 11.482422 23.632812 C 11.991509 23.411842 12.467725 22.998832 12.978516 22.648438 C 13.089711 22.937091 13.161806 23.292884 13.353516 23.472656 C 13.683387 23.781985 14.168263 23.801833 14.529297 23.662109 C 15.011705 23.475411 15.489338 23.018352 15.96875 22.615234 C 16.056605 22.834775 16.173338 23.050685 16.339844 23.154297 C 16.753677 23.411812 17.16874 23.35898 17.447266 23.335938 A 0.47014567 0.50005 0 0 0 17.623047 23.283203 C 19.57025 22.226106 20.500031 20.729039 20.798828 19.109375 C 21.078166 17.595181 20.848547 16.000484 20.595703 14.435547 L 23.789062 12.169922 A 0.47014567 0.50005 0 0 0 23.507812 11.253906 A 0.47014567 0.50005 0 0 0 23.429688 11.263672 L 18.554688 12.382812 A 0.47014567 0.50005 0 0 0 18.183594 12.910156 C 18.183594 12.910156 18.257949 13.837184 17.570312 14.830078 C 16.910206 15.783221 15.512533 16.807954 12.427734 16.927734 L 12.357422 13.332031 C 13.331565 13.484533 14.235468 13.768862 15.039062 14.25 A 0.22552903 0.23987415 0 0 0 15.335938 14.179688 C 16.131 12.975144 16.365801 11.750824 16.333984 10.552734 C 16.302165 9.3546434 16.012425 8.1796014 15.763672 7.0234375 A 0.22552903 0.23987415 0 0 0 15.654297 6.8671875 L 12.189453 4.8027344 L 12.103516 0.3984375 L 12.103516 0.39453125 A 0.13538462 0.14399597 0 0 0 11.962891 0.25390625 z M 11.832031 1.0097656 C 11.831671 1.09762 11.825351 2.2118432 11.824219 2.4882812 C 11.539462 2.0494074 11.497285 1.7788073 11.554688 1.5449219 C 11.595004 1.3806601 11.704868 1.2036794 11.832031 1.0097656 z M 13.964844 4.2578125 A 0.05848658 0.06220671 0 0 0 13.955078 4.3789062 C 15.516675 4.9998061 16.418109 5.6928997 16.933594 6.4023438 C 17.449078 7.1117877 17.581905 7.8401959 17.597656 8.5527344 C 17.613406 9.265273 17.509436 9.959177 17.552734 10.587891 C 17.596031 11.216605 17.796917 11.784903 18.416016 12.210938 A 0.05848658 0.06220671 0 0 0 18.505859 12.148438 C 18.478361 11.985313 18.570387 11.766061 18.763672 11.537109 C 18.956958 11.308156 19.244883 11.070897 19.580078 10.867188 C 20.250467 10.459766 21.111259 10.183406 21.779297 10.310547 A 0.05848658 0.06220671 0 0 0 21.814453 10.195312 C 21.213301 9.8754119 20.950996 9.3817367 20.759766 8.7988281 C 20.568537 8.2159195 20.45565 7.5450943 20.152344 6.8984375 C 19.849037 6.2517806 19.353302 5.6316082 18.410156 5.15625 C 17.470548 4.6826752 16.080929 4.3526922 13.994141 4.2617188 C 13.986282 4.2613761 13.986394 4.2581481 13.978516 4.2578125 A 0.05848658 0.06220671 0 0 0 13.970703 4.2578125 A 0.05848658 0.06220671 0 0 0 13.964844 4.2578125 z M 10.945312 13.195312 C 11.231043 13.20301 11.507618 13.230673 11.783203 13.257812 C 11.776658 14.901531 11.771242 15.966879 11.767578 16.941406 C 8.6023917 16.929482 7.1946438 16.061036 6.5683594 15.277344 C 5.9227161 14.469427 6.0214844 13.742188 6.0214844 13.742188 A 0.47014567 0.50005 0 0 0 6.0214844 13.730469 C 7.7545229 13.378886 9.4193904 13.1542 10.945312 13.195312 z M 17.115234 17.457031 A 1.0067283 1.0067283 0 0 1 18.121094 18.462891 A 1.0067283 1.0067283 0 0 1 17.115234 19.46875 A 1.0067283 1.0067283 0 0 1 16.107422 18.462891 A 1.0067283 1.0067283 0 0 1 17.115234 17.457031 z M 6.9746094 17.671875 A 1.0067283 1.0067283 0 0 1 7.9824219 18.679688 A 1.0067283 1.0067283 0 0 1 6.9746094 19.685547 A 1.0067283 1.0067283 0 0 1 5.96875 18.679688 A 1.0067283 1.0067283 0 0 1 6.9746094 17.671875 z M 12.080078 18.390625 A 1.0067283 1.0067283 0 0 1 13.087891 19.398438 A 1.0067283 1.0067283 0 0 1 12.080078 20.404297 A 1.0067283 1.0067283 0 0 1 11.074219 19.398438 A 1.0067283 1.0067283 0 0 1 12.080078 18.390625 z "
     id="path4219" />
</svg>
