<?xml version="1.0" encoding="UTF-8" standalone="no"?>
<!-- Created with Inkscape (http://www.inkscape.org/) -->

<svg
   xmlns:dc="http://purl.org/dc/elements/1.1/"
   xmlns:cc="http://creativecommons.org/ns#"
   xmlns:rdf="http://www.w3.org/1999/02/22-rdf-syntax-ns#"
   xmlns:svg="http://www.w3.org/2000/svg"
   xmlns="http://www.w3.org/2000/svg"
   xmlns:sodipodi="http://sodipodi.sourceforge.net/DTD/sodipodi-0.dtd"
   xmlns:inkscape="http://www.inkscape.org/namespaces/inkscape"
   version="1.1"
   width="24"
   height="24"
   id="svg4460"
   inkscape:version="0.91 r13725"
   sodipodi:docname="cave.svg">
  <sodipodi:namedview
     pagecolor="#ffffff"
     bordercolor="#666666"
     borderopacity="1"
     objecttolerance="10"
     gridtolerance="10"
     guidetolerance="10"
     inkscape:pageopacity="0"
     inkscape:pageshadow="2"
     inkscape:window-width="1280"
     inkscape:window-height="972"
     id="namedview11"
     showgrid="false"
     inkscape:zoom="13.906433"
     inkscape:cx="4.2503046"
     inkscape:cy="14.720967"
     inkscape:window-x="-8"
     inkscape:window-y="-8"
     inkscape:window-maximized="1"
     inkscape:current-layer="svg4460"
     showguides="false" />
  <defs
     id="defs4462" />
  <metadata
     id="metadata4465">
    <rdf:RDF>
      <cc:Work
         rdf:about="">
        <dc:format>image/svg+xml</dc:format>
        <dc:type
           rdf:resource="http://purl.org/dc/dcmitype/StillImage" />
        <dc:title></dc:title>
      </cc:Work>
    </rdf:RDF>
  </metadata>
  <path
     style="color:#000000;font-style:normal;font-variant:normal;font-weight:normal;font-stretch:normal;font-size:medium;line-height:normal;font-family:sans-serif;text-indent:0;text-align:start;text-decoration:none;text-decoration-line:none;text-decoration-style:solid;text-decoration-color:#000000;letter-spacing:normal;word-spacing:normal;text-transform:none;direction:ltr;block-progression:tb;writing-mode:lr-tb;baseline-shift:baseline;text-anchor:start;white-space:normal;clip-rule:nonzero;display:inline;overflow:visible;visibility:visible;opacity:1;isolation:auto;mix-blend-mode:normal;color-interpolation:sRGB;color-interpolation-filters:linearRGB;solid-color:#000000;solid-opacity:1;fill:#000000;fill-opacity:1;fill-rule:evenodd;stroke:none;stroke-width:1.05575025px;stroke-linecap:round;stroke-linejoin:round;stroke-miterlimit:4;stroke-dasharray:none;stroke-dashoffset:0;stroke-opacity:1;color-rendering:auto;image-rendering:auto;shape-rendering:auto;text-rendering:auto;enable-background:accumulate"
     d="M 11.914872,1.0505499 C 9.9076164,1.1630348 7.7136422,1.9999632 6.0388889,3.3885971 4.9223866,4.3143533 4.0380516,5.5040468 3.664189,6.916888 3.3095537,8.2570688 3.4790109,9.7919859 4.2448426,11.398146 3.959468,12.622736 3.6119586,13.12469 3.2494365,14.066066 2.9497334,14.844317 2.7517032,16.415489 2.5896904,18.306188 2.3651137,18.113721 2.1097913,17.905524 1.733178,17.94352 1.2953356,17.987695 0.96753934,18.316901 0.71848096,18.761451 0.46942259,19.206001 0.24833694,19.82662 0.01629515,20.731044 A 0.52168385,0.52168385 0 1 0 1.0271341,20.989541 C 1.2471437,20.132015 1.4584621,19.57514 1.6290077,19.270729 1.7995532,18.966318 1.8782947,18.977236 1.8373484,18.981367 1.7964023,18.985498 1.8639268,18.982475 2.0109658,19.12219 2.1580049,19.261905 2.341087,19.493376 2.5376052,19.733708 A 0.52142908,0.52142908 0 0 0 3.4635645,19.426985 C 3.5937215,16.52353 3.8915251,15.29767 4.2216937,14.440308 4.5518621,13.582945 4.9809564,12.981647 5.3000505,11.523536 A 0.52142908,0.52142908 0 0 0 5.2537525,11.172444 C 4.471213,9.6615018 4.3644477,8.342216 4.6711698,7.1831013 4.9778919,6.0239866 5.717499,5.0094099 6.7044221,4.1910952 8.6782683,2.5544661 11.649456,1.7813486 13.612464,2.20607 15.58825,2.6335559 16.497144,4.057444 17.277721,5.7343607 18.058297,7.4112776 18.586167,9.3187089 20.024733,10.325576 20.485566,10.648117 20.753731,11.182674 20.869671,11.930573 20.98561,12.678471 20.929929,13.609758 20.763572,14.571486 20.430854,16.49494 19.668979,18.540258 19.185582,19.656545 A 0.52142908,0.52142908 0 0 0 20.017016,20.246845 C 20.660622,19.653429 21.13625,19.367324 21.413672,19.282303 21.691093,19.197284 21.737614,19.230843 21.878581,19.35368 22.160515,19.599353 22.504774,20.542988 23.018668,21.493031 A 0.52222564,0.52222564 0 1 0 23.936911,20.995328 C 23.492597,20.17392 23.276468,19.187968 22.563404,18.566614 22.206873,18.255937 21.647049,18.121376 21.106948,18.286898 20.950853,18.334734 20.749801,18.546943 20.588025,18.632203 21.029931,17.465585 21.531536,16.253397 21.791772,14.748961 21.970106,13.718004 22.042769,12.692715 21.8998,11.770458 21.756832,10.848203 21.376439,9.9985085 20.622749,9.4709925 19.632268,8.7777454 19.043677,7.0576575 18.22297,5.2945302 17.402264,3.5314027 16.226185,1.703098 13.834309,1.1855856 13.233146,1.0555164 12.583958,1.013055 11.914872,1.0505499 Z M 6.7449328,7.0692855 C 6.5544785,7.0601081 6.3585968,7.0784349 6.1623501,7.129087 A 0.50638118,0.50638118 0 0 0 5.9366475,7.2544774 C 5.1001548,8.0608578 5.1448516,9.3671429 5.7263775,10.288923 6.0171406,10.749814 6.4698009,11.134721 7.0516568,11.276613 7.6335129,11.418507 8.3122971,11.302382 8.9961714,10.894656 A 0.50638118,0.50638118 0 0 0 9.2315194,10.352584 C 9.002633,9.2891251 8.6983895,8.4348597 8.209106,7.8312728 7.8421434,7.3785826 7.3162959,7.0968177 6.7449328,7.0692855 Z M 14.171899,7.2930589 C 14.023138,7.2956592 13.88041,7.3153076 13.743642,7.3528605 13.19657,7.5030721 12.863506,7.9468644 12.678789,8.3675576 12.494072,8.7882508 12.402376,9.2285976 12.291044,9.5944537 12.179711,9.9603095 12.047243,10.226577 11.918731,10.33715 A 0.50638118,0.50638118 0 0 0 11.884007,11.072131 C 12.629413,11.843354 13.384345,12.208798 14.094735,12.192928 14.805128,12.177057 15.38818,11.774464 15.769178,11.265039 16.150177,10.755614 16.365991,10.130334 16.407704,9.5153613 16.449418,8.9003897 16.319556,8.2628614 15.865632,7.8177692 A 0.50638118,0.50638118 0 0 0 15.730596,7.7232442 C 15.124258,7.4325313 14.618181,7.2852581 14.171899,7.2930589 Z M 9.6231231,12.177495 C 8.4465438,12.422821 8.1323196,15.023359 8.5235464,15.354693 8.914773,15.686028 9.0301963,14.27778 10.6166,15.692283 12.203003,17.106785 10.799703,11.932168 9.6231231,12.177495 Z M 8.0219851,17.166101 A 0.50638118,0.50638118 0 0 0 7.8271478,17.206612 L 5.9115694,18.0284 A 0.50685524,0.50685524 0 1 0 6.3108894,18.960147 L 7.761559,18.337054 C 7.7879482,18.397267 7.7864418,18.399013 7.8155733,18.462444 7.8856458,18.615017 7.958701,18.768892 8.0374177,18.904204 8.0767761,18.97186 8.1149705,19.033365 8.1724535,19.102898 8.2011949,19.137666 8.2346371,19.175495 8.2939856,19.220573 8.3533341,19.265651 8.4485177,19.336318 8.6296459,19.336318 8.8359415,19.336318 8.8689397,19.284636 8.91515,19.259155 8.9613603,19.233673 8.9931719,19.211798 9.0270367,19.187779 9.0947666,19.139739 9.162002,19.085216 9.2392358,19.023806 9.3937033,18.900987 9.5811652,18.750163 9.7716624,18.612912 9.9621594,18.475661 10.159933,18.353285 10.298301,18.294613 10.370064,18.264186 10.328052,18.264494 10.340741,18.261819 10.346581,18.327869 10.348523,18.426556 10.333025,18.551182 10.315149,18.694926 10.283493,18.841069 10.275153,19.014161 10.270983,19.100707 10.254854,19.195175 10.329167,19.367184 10.366325,19.453188 10.444899,19.56629 10.568373,19.637254 10.691847,19.70822 10.833541,19.719542 10.931041,19.706702 11.074818,19.687767 11.132992,19.654499 11.222332,19.617964 11.311672,19.581428 11.410016,19.537748 11.515552,19.486786 11.726627,19.384862 11.970067,19.257563 12.204235,19.131835 12.481387,18.983029 12.565625,18.931646 12.734732,18.836685 L 13.105116,19.270729 A 0.50638118,0.50638118 0 0 0 13.629826,19.428914 L 15.580128,18.86948 A 0.50677444,0.50677444 0 1 0 15.300412,17.895293 L 13.66262,18.36599 13.236294,17.866357 A 0.50638118,0.50638118 0 0 0 12.599697,17.756399 C 12.599697,17.756399 12.179766,17.996872 11.725823,18.2406 11.590815,18.313086 11.467249,18.373136 11.338077,18.439295 11.346453,18.311707 11.36654,18.192944 11.340006,18.041904 11.297628,17.800681 11.147223,17.490955 10.851948,17.33586 10.497744,17.149812 10.164981,17.251714 9.9028399,17.362867 9.6406987,17.47402 9.4008491,17.631596 9.1794342,17.791124 9.0202616,17.905805 8.896214,18.007393 8.7704688,18.107493 8.7582598,18.081722 8.7477876,18.066195 8.7357453,18.039975 8.6098489,17.765853 8.4965393,17.4844 8.4965393,17.4844 A 0.50638118,0.50638118 0 0 0 8.0219851,17.166101 Z M 16.382626,20.138816 C 16.260089,20.14428 16.140198,20.16204 16.023818,20.19283 15.092771,20.439153 14.487034,21.279587 13.913402,22.183643 A 0.50651972,0.50651972 0 1 0 14.767985,22.727643 C 15.304777,21.88165 15.862594,21.281918 16.282314,21.170874 16.492174,21.115354 16.688827,21.129599 16.990287,21.30591 17.291747,21.482222 17.676002,21.841893 18.114942,22.451786 A 0.5066963,0.5066963 0 1 0 18.938659,21.861486 C 18.448624,21.180597 17.985536,20.715133 17.501494,20.432037 17.138462,20.219714 16.75024,20.122423 16.382626,20.138816 Z"
     id="path4471"
     inkscape:connector-curvature="0" />
</svg>
