<?xml version="1.0" encoding="UTF-8" standalone="no"?>
<!-- Created with Inkscape (http://www.inkscape.org/) -->

<svg
   xmlns:dc="http://purl.org/dc/elements/1.1/"
   xmlns:cc="http://creativecommons.org/ns#"
   xmlns:rdf="http://www.w3.org/1999/02/22-rdf-syntax-ns#"
   xmlns:svg="http://www.w3.org/2000/svg"
   xmlns="http://www.w3.org/2000/svg"
   xmlns:sodipodi="http://sodipodi.sourceforge.net/DTD/sodipodi-0.dtd"
   xmlns:inkscape="http://www.inkscape.org/namespaces/inkscape"
   version="1.1"
   width="24"
   height="24"
   id="svg4460"
   inkscape:version="0.91 r13725"
   sodipodi:docname="message.svg">
  <sodipodi:namedview
     pagecolor="#ffffff"
     bordercolor="#666666"
     borderopacity="1"
     objecttolerance="10"
     gridtolerance="10"
     guidetolerance="10"
     inkscape:pageopacity="0"
     inkscape:pageshadow="2"
     inkscape:window-width="1280"
     inkscape:window-height="972"
     id="namedview11"
     showgrid="false"
     inkscape:zoom="13.906433"
     inkscape:cx="6.4763662"
     inkscape:cy="14.383951"
     inkscape:window-x="-8"
     inkscape:window-y="-8"
     inkscape:window-maximized="1"
     inkscape:current-layer="svg4460"
     showguides="false" />
  <defs
     id="defs4462" />
  <metadata
     id="metadata4465">
    <rdf:RDF>
      <cc:Work
         rdf:about="">
        <dc:format>image/svg+xml</dc:format>
        <dc:type
           rdf:resource="http://purl.org/dc/dcmitype/StillImage" />
        <dc:title></dc:title>
      </cc:Work>
    </rdf:RDF>
  </metadata>
  <path
     style="color:#000000;font-style:normal;font-variant:normal;font-weight:normal;font-stretch:normal;font-size:medium;line-height:normal;font-family:sans-serif;text-indent:0;text-align:start;text-decoration:none;text-decoration-line:none;text-decoration-style:solid;text-decoration-color:#000000;letter-spacing:normal;word-spacing:normal;text-transform:none;direction:ltr;block-progression:tb;writing-mode:lr-tb;baseline-shift:baseline;text-anchor:start;white-space:normal;clip-rule:nonzero;display:inline;overflow:visible;visibility:visible;opacity:1;isolation:auto;mix-blend-mode:normal;color-interpolation:sRGB;color-interpolation-filters:linearRGB;solid-color:#000000;solid-opacity:1;fill:#000000;fill-opacity:1;fill-rule:evenodd;stroke:none;stroke-width:12.38062;stroke-linecap:round;stroke-linejoin:round;stroke-miterlimit:4;stroke-dasharray:none;stroke-dashoffset:0;stroke-opacity:1;color-rendering:auto;image-rendering:auto;shape-rendering:auto;text-rendering:auto;enable-background:accumulate"
     d="M 17.927917,1.295454 C 17.344191,1.2833707 16.908084,1.4761018 16.716979,1.8306102 L 14.398156,5.9137008 C 12.238135,5.3536863 10.409406,5.7867462 9.6969845,7.0269821 L 3.5153439,17.325811 C 3.0179744,17.652304 2.6453508,18.061183 2.3590939,18.450811 1.8833698,19.098324 1.5063576,19.689211 0.54073458,20.273076 -0.31603638,20.790003 0.45935426,22.07516 1.3161252,21.558233 2.5369428,20.820064 3.1285482,19.937732 3.5680783,19.339483 3.8998067,18.887964 4.1644718,18.646548 4.579797,18.470342 4.563075,18.51213 4.5696561,18.506676 4.5505001,18.548467 4.3923151,18.893571 4.199556,19.206586 4.095422,19.630498 4.0693885,19.736476 4.0402801,19.855187 4.0661251,20.048467 4.0919704,20.241747 4.2541936,20.562804 4.5192501,20.696905 4.7843068,20.831005 4.9969433,20.795755 5.1442501,20.763311 5.2915571,20.730867 5.406016,20.683251 5.5270627,20.624639 6.0546119,20.369194 7.4712528,19.831717 8.8551877,19.470342 9.547155,19.289655 10.238854,19.150587 10.810265,19.095342 10.874534,19.089129 10.878171,19.106557 10.939172,19.103155 10.824888,19.278629 10.793803,19.275385 10.687219,19.472295 10.474634,19.865035 10.275124,20.269204 10.253625,20.780889 10.242875,21.036732 10.291482,21.352211 10.491906,21.622686 10.69233,21.893161 11.014511,22.054751 11.318078,22.110967 11.681389,22.178247 11.983523,22.130069 12.351282,22.062139 12.719038,21.994209 13.131444,21.887658 13.579797,21.755498 14.476503,21.49118 15.513513,21.121369 16.505578,20.745733 17.54695,20.351427 17.786392,20.234476 18.49386,19.941045 18.415343,20.199637 18.31066,20.440512 18.302453,20.735967 18.288959,21.221769 18.439385,21.790868 18.857141,22.208623 19.316881,22.668364 19.962451,22.753733 20.488,22.683233 21.013549,22.612732 21.495966,22.415578 21.933313,22.196905 22.808006,21.759558 23.511438,21.198858 23.511438,21.198858 24.346451,20.58673 23.374349,19.352673 22.583703,20.021123 22.583703,20.021123 21.964969,20.504319 21.263391,20.855108 20.912602,21.030502 20.545012,21.162532 20.288782,21.196905 20.032551,21.231277 19.966422,21.196811 19.917688,21.148076 19.826969,21.057358 19.79688,20.977621 19.802453,20.776983 19.808027,20.576344 19.884453,20.290376 20.001672,20.013311 20.236111,19.459181 20.593469,18.980108 20.593469,18.980108 21.060548,18.365853 20.40733,17.531502 19.698938,17.83753 19.698938,17.83753 18.45068,18.363027 16.988,18.941045 L 20.314172,13.398076 C 21.074987,12.185955 20.597025,10.367572 19.085656,8.7242477 L 21.402526,4.6411571 C 22.16077,3.4960086 19.919246,1.3376436 17.927917,1.295454 Z M 14.325891,9.6265914 C 15.248296,9.6051402 16.449468,10.378181 16.792688,11.407842 15.593897,12.499486 13.805304,13.010568 12.064172,13.288702 12.064172,13.288702 12.725221,10.746792 13.538782,9.9332321 13.74217,9.729842 14.018423,9.6337418 14.325891,9.6265914 Z M 9.5739377,12.169561 C 10.829485,16.295424 14.671523,13.779518 17.505578,12.169561 L 12.966516,18.741826 C 13.107607,18.372952 12.938497,17.957863 12.579797,17.792608 11.990433,17.524091 11.359529,17.534124 10.665734,17.601202 10.060142,17.659751 9.4092011,17.794354 8.7594845,17.954717 Z M 12.607141,19.265264 12.468469,19.466436 C 12.530623,19.378678 12.555329,19.334445 12.607141,19.265264 Z"
     id="path4133"
     inkscape:connector-curvature="0"
     sodipodi:nodetypes="cccccsccscsssssssscssssssscssssccsscsscccccccsccssccccsccccc" />
</svg>
