<?xml version="1.0" encoding="UTF-8" standalone="no"?>
<!-- Created with Inkscape (http://www.inkscape.org/) -->

<svg
   xmlns:dc="http://purl.org/dc/elements/1.1/"
   xmlns:cc="http://creativecommons.org/ns#"
   xmlns:rdf="http://www.w3.org/1999/02/22-rdf-syntax-ns#"
   xmlns:svg="http://www.w3.org/2000/svg"
   xmlns="http://www.w3.org/2000/svg"
   xmlns:sodipodi="http://sodipodi.sourceforge.net/DTD/sodipodi-0.dtd"
   xmlns:inkscape="http://www.inkscape.org/namespaces/inkscape"
   version="1.1"
   width="24"
   height="24"
   id="svg4460"
   inkscape:version="0.91 r13725"
   sodipodi:docname="ile.svg">
  <sodipodi:namedview
     pagecolor="#ffffff"
     bordercolor="#666666"
     borderopacity="1"
     objecttolerance="10"
     gridtolerance="10"
     guidetolerance="10"
     inkscape:pageopacity="0"
     inkscape:pageshadow="2"
     inkscape:window-width="1280"
     inkscape:window-height="972"
     id="namedview11"
     showgrid="false"
     inkscape:zoom="19.666666"
     inkscape:cx="6.7369168"
     inkscape:cy="12.141879"
     inkscape:window-x="-8"
     inkscape:window-y="-8"
     inkscape:window-maximized="1"
     inkscape:current-layer="svg4460"
     showguides="false" />
  <defs
     id="defs4462" />
  <metadata
     id="metadata4465">
    <rdf:RDF>
      <cc:Work
         rdf:about="">
        <dc:format>image/svg+xml</dc:format>
        <dc:type
           rdf:resource="http://purl.org/dc/dcmitype/StillImage" />
        <dc:title />
      </cc:Work>
    </rdf:RDF>
  </metadata>
  <path
     style="color:#000000;font-style:normal;font-variant:normal;font-weight:normal;font-stretch:normal;font-size:medium;line-height:normal;font-family:sans-serif;text-indent:0;text-align:start;text-decoration:none;text-decoration-line:none;text-decoration-style:solid;text-decoration-color:#000000;letter-spacing:normal;word-spacing:normal;text-transform:none;direction:ltr;block-progression:tb;writing-mode:lr-tb;baseline-shift:baseline;text-anchor:start;white-space:normal;clip-rule:nonzero;display:inline;overflow:visible;visibility:visible;opacity:1;isolation:auto;mix-blend-mode:normal;color-interpolation:sRGB;color-interpolation-filters:linearRGB;solid-color:#000000;solid-opacity:1;fill:#000000;fill-opacity:1;fill-rule:evenodd;stroke:none;stroke-width:1px;stroke-linecap:round;stroke-linejoin:round;stroke-miterlimit:4;stroke-dasharray:none;stroke-dashoffset:0;stroke-opacity:1;color-rendering:auto;image-rendering:auto;shape-rendering:auto;text-rendering:auto;enable-background:accumulate"
     d="M 10.705078 0.00390625 C 9.7410252 0.04046926 9.0078125 0.28710938 9.0078125 0.28710938 L 8.4882812 0.45117188 L 8.9453125 1.5878906 C 8.3606818 1.6905282 8.4043528 2.3738085 8.4960938 2.4648438 C 8.5878348 2.5558791 8.6823189 2.5805388 8.7480469 2.5917969 C 8.8795029 2.6143127 9.0352882 2.4095698 9.3300781 2.5371094 C 9.6248684 2.6646488 9.6908736 2.960118 9.8378906 3.0761719 C 9.6789746 3.0568108 9.5195927 3.0458378 9.3574219 3.046875 C 6.8585472 3.0628546 6.0449219 4.9921875 6.0449219 4.9921875 L 5.7734375 5.4667969 L 7.5957031 5.9101562 C 7.5868059 5.9664693 7.5803034 5.9704946 7.5761719 6.1347656 C 7.5720403 6.2990366 7.5521374 6.3856597 7.6757812 6.5429688 C 7.7376031 6.6216223 7.8767108 6.7059817 8.0058594 6.7109375 C 8.1350078 6.7158923 8.219142 6.6693869 8.4199219 6.5214844 C 8.6207016 6.373582 8.7406055 6.3424249 8.8808594 6.3164062 C 9.1613671 6.2643677 9.5269896 6.2352541 9.8535156 6.2324219 C 9.9487276 6.2315958 9.9809495 6.2441712 10.068359 6.2480469 C 9.9451325 6.4723764 9.8771671 6.7109073 9.8613281 6.9140625 C 9.8315091 7.296542 9.9121094 7.6132812 9.9121094 7.6132812 L 10.107422 8.4238281 L 10.626953 7.7753906 C 10.626953 7.7753906 10.741838 7.6200252 11.324219 7.2128906 C 11.425913 7.1417973 11.616783 7.0317742 11.748047 6.9472656 C 11.772889 7.000392 11.785217 7.0594717 11.816406 7.109375 C 11.930017 7.2911524 12.110598 7.4593897 12.337891 7.5449219 C 11.468168 8.5681839 10.475731 9.9067666 9.7519531 11.394531 C 8.5041153 13.959532 8.7652554 16.841328 8.9785156 18.144531 C 5.80476 18.77781 4.0044604 19.978751 3.015625 21.107422 C 2.4647933 21.73615 2.1640194 22.338199 2.0019531 22.787109 C 1.8398868 23.236018 1.8164062 23.5625 1.8164062 23.5625 C 1.7953588 23.865925 2.0982063 24.085872 2.3789062 23.96875 C 3.0078306 23.705972 3.6270003 23.337962 4.2089844 23.0625 C 4.6519777 22.852825 5.0209763 22.796984 5.3828125 22.759766 C 5.3789012 22.898439 5.3320654 23.013968 5.375 23.166016 C 5.4782831 23.531784 5.8239178 23.856143 6.3183594 23.986328 C 6.4237785 24.014035 6.5349822 23.99867 6.6289062 23.943359 C 8.3502381 22.929002 9.3232352 22.528938 9.9726562 22.414062 C 9.9667682 22.490749 9.935595 22.593341 9.9375 22.664062 C 9.944198 22.912868 10.002138 23.146589 10.164062 23.328125 C 10.325987 23.509663 10.565447 23.583459 10.765625 23.589844 C 10.965802 23.596227 11.150789 23.555829 11.337891 23.5 C 11.712093 23.388339 12.097707 23.20835 12.457031 23.064453 C 12.750737 22.946835 12.97618 22.899241 13.150391 22.876953 C 13.238593 23.01127 13.297225 23.119909 13.492188 23.341797 C 13.639162 23.509071 13.798906 23.673038 14.011719 23.791016 C 14.118125 23.850004 14.244624 23.903322 14.402344 23.904297 C 14.560062 23.905273 14.743213 23.830512 14.861328 23.712891 C 15.059537 23.515513 15.408562 23.172915 15.716797 22.947266 C 15.866197 22.837897 16.006826 22.765046 16.072266 22.744141 C 16.173428 23.119745 16.280983 23.508012 16.619141 23.683594 C 17.055453 23.910142 17.605126 23.81498 18.138672 23.480469 C 18.220005 23.428897 18.279546 23.349635 18.308594 23.257812 C 18.439359 22.852836 18.620148 22.60016 18.833984 22.447266 C 18.98129 22.341941 19.209575 22.334256 19.427734 22.3125 C 19.460979 22.53933 19.447971 22.809165 19.578125 22.972656 C 19.690639 23.113988 19.854729 23.215266 20.017578 23.251953 C 20.180426 23.288641 20.332511 23.273987 20.470703 23.244141 C 21.023481 23.124757 21.529391 22.766658 21.898438 22.650391 C 22.171679 22.564415 22.275303 22.23057 22.097656 22.005859 C 22.097656 22.005859 18.922891 18.049408 12.875 17.802734 C 12.50737 17.787738 12.121099 17.792501 11.732422 17.806641 C 11.270574 16.870645 10.412933 14.664429 11.398438 12.638672 C 12.247343 10.893697 13.501136 9.1551803 14.416016 7.9707031 C 14.129174 8.782265 13.879553 9.3847524 13.6875 9.78125 C 13.377735 10.420761 13.242188 10.558594 13.242188 10.558594 L 12.685547 11.177734 L 13.515625 11.240234 C 13.515625 11.240234 13.838007 11.267752 14.210938 11.177734 C 14.409134 11.129893 14.637779 11.02846 14.839844 10.871094 C 14.857484 10.956679 14.874428 10.988029 14.888672 11.082031 C 14.937588 11.404883 14.965939 11.767524 14.958984 12.052734 C 14.955506 12.195337 14.94305 12.31909 14.925781 12.398438 C 14.908511 12.477785 14.875067 12.50384 14.921875 12.457031 C 14.853032 12.525876 14.793827 12.578787 14.763672 12.84375 C 14.733516 13.108711 14.838328 13.228759 14.925781 13.277344 C 15.100685 13.374514 15.18176 13.343614 15.253906 13.335938 C 15.326051 13.328262 15.385935 13.313015 15.447266 13.296875 C 15.50352 13.282071 15.508428 13.275469 15.5625 13.257812 L 16.291016 14.988281 L 16.712891 14.640625 C 16.712891 14.640625 19.153416 12.741352 18.773438 10.271484 C 18.738477 10.04424 18.676538 9.8255056 18.603516 9.6113281 C 18.667333 9.6706958 18.735406 9.7346752 18.789062 9.7910156 C 18.88744 9.8943116 18.967822 9.9883219 19.011719 10.056641 C 19.055616 10.124959 19.048913 10.168544 19.212891 10.431641 C 19.376869 10.694738 19.538572 10.705218 19.634766 10.677734 C 19.827152 10.622766 19.860662 10.544723 19.90625 10.488281 C 19.951838 10.431839 19.98367 10.379 20.015625 10.324219 C 20.044778 10.274245 20.04077 10.265307 20.066406 10.214844 L 21.808594 10.921875 L 21.863281 10.378906 C 21.863281 10.378906 22.241708 7.3117588 20.226562 5.8339844 C 19.226295 5.1004552 17.918324 4.9313345 16.861328 4.9160156 C 16.306706 4.9079776 15.834946 4.9438602 15.492188 4.9824219 L 15.490234 4.78125 C 15.490234 4.78125 15.587634 5.1302556 15.361328 4.0976562 C 15.135023 3.0650568 14.709696 1.8158644 13.791016 0.98242188 C 12.865627 0.14289091 11.669131 -0.03265687 10.705078 0.00390625 z "
     id="path4137" />
</svg>
