<?xml version="1.0" encoding="UTF-8" standalone="no"?>
<!-- Created with Inkscape (http://www.inkscape.org/) -->

<svg
   xmlns:dc="http://purl.org/dc/elements/1.1/"
   xmlns:cc="http://creativecommons.org/ns#"
   xmlns:rdf="http://www.w3.org/1999/02/22-rdf-syntax-ns#"
   xmlns:svg="http://www.w3.org/2000/svg"
   xmlns="http://www.w3.org/2000/svg"
   xmlns:sodipodi="http://sodipodi.sourceforge.net/DTD/sodipodi-0.dtd"
   xmlns:inkscape="http://www.inkscape.org/namespaces/inkscape"
   version="1.1"
   width="24"
   height="24"
   id="svg4460"
   inkscape:version="0.91 r13725"
   sodipodi:docname="skull.svg">
  <sodipodi:namedview
     pagecolor="#ffffff"
     bordercolor="#666666"
     borderopacity="1"
     objecttolerance="10"
     gridtolerance="10"
     guidetolerance="10"
     inkscape:pageopacity="0"
     inkscape:pageshadow="2"
     inkscape:window-width="1280"
     inkscape:window-height="972"
     id="namedview11"
     showgrid="false"
     inkscape:zoom="13.906433"
     inkscape:cx="-6.9592351"
     inkscape:cy="19.400853"
     inkscape:window-x="-8"
     inkscape:window-y="-8"
     inkscape:window-maximized="1"
     inkscape:current-layer="svg4460" />
  <defs
     id="defs4462" />
  <metadata
     id="metadata4465">
    <rdf:RDF>
      <cc:Work
         rdf:about="">
        <dc:format>image/svg+xml</dc:format>
        <dc:type
           rdf:resource="http://purl.org/dc/dcmitype/StillImage" />
        <dc:title />
      </cc:Work>
    </rdf:RDF>
  </metadata>
  <path
     style="fill:#000000;fill-opacity:1;stroke:none"
     d="M 11.929665,0.72872043 C 10.091265,0.74759894 8.4035633,1.6960769 7.2952363,3.3708727 6.3247041,4.8374443 6.2599471,5.1732964 6.5092924,7.5016473 6.6844211,9.1369767 6.981211,10.112229 7.343977,10.251435 7.6811109,10.380806 7.9065259,11.010339 7.9065259,11.825354 7.9065259,12.818323 8.2324727,13.509949 9.1169202,14.394396 10.094927,15.372402 10.652158,15.60479 12.025115,15.60479 13.477756,15.60479 13.901758,15.402397 14.945496,14.213649 15.698695,13.355796 16.166044,12.395436 16.166044,11.705533 16.166044,11.090465 16.411922,10.382975 16.712346,10.133645 17.012768,9.8843165 17.379017,8.7264751 17.524691,7.5605423 17.7401,5.8364607 17.636062,5.14312 16.972296,3.8420328 16.002262,1.9406089 14.771792,1.0518918 12.725763,0.77746113 12.458251,0.7415803 12.192293,0.7260235 11.929665,0.72872043 Z M 9.3504693,6.1470619 C 9.7040893,6.1372797 10.112034,6.2651372 10.50603,6.5532345 11.23286,7.084705 11.267582,7.2963499 10.731455,7.9423445 9.6694772,9.2219482 8.3187911,8.8363315 8.3187911,7.253882 8.3187911,6.5631576 8.7611024,6.1633656 9.3504693,6.1470619 Z M 14.88457,6.2181422 C 15.642925,6.2070817 16.115437,6.8434208 15.820797,7.771752 15.464836,8.893281 14.625501,9.0723866 13.763534,8.2104184 12.979467,7.4263522 13.048213,6.9927752 14.047854,6.4577839 14.34727,6.2975406 14.631785,6.2218291 14.88457,6.2181422 Z M 11.952004,8.6836093 C 12.168368,8.5498888 12.700279,9.6372698 12.475967,9.8290159 12.301792,9.9778994 12.186645,9.7782443 11.970281,9.7782443 11.753918,9.7782443 11.662621,10.009346 11.464597,9.8107381 11.239639,9.5851164 11.735641,8.8173289 11.952004,8.6836093 Z M 8.9178956,11.441521 C 8.9972534,11.440361 9.0727943,11.475514 9.1230127,11.536972 L 9.8195986,12.351348 10.406518,11.764429 C 10.447974,11.722628 10.502391,11.696136 10.560863,11.689286 11.50931,11.585116 12.318816,11.504312 13.448749,11.750213 13.499979,11.761181 13.5467,11.787374 13.582787,11.825354 L 13.99099,12.257928 14.640866,11.549158 C 14.875092,11.293267 15.258925,11.644608 15.024699,11.900496 L 14.183922,12.816416 C 14.081596,12.928295 13.905631,12.929233 13.80212,12.818447 L 13.274096,12.255897 C 12.287468,12.051526 11.580891,12.112595 10.696931,12.209187 L 9.9881602,12.917959 C 9.8805616,13.025061 9.704469,13.017569 9.606358,12.901712 L 8.7290254,11.874096 C 8.5900917,11.717508 8.6837501,11.469315 8.8914944,11.443552 8.9002546,11.442427 8.9090664,11.441749 8.9178956,11.441521 Z M 5.5974351,13.291637 C 5.1490789,13.302928 4.6772157,13.670169 4.2530041,14.388303 3.4277281,15.785383 3.4131357,16.170277 4.1595844,16.916727 4.5504334,17.307576 5.0416603,17.062855 6.0381323,16.935005 7.0065027,16.810761 10.851277,18.38504 10.851277,18.38504 10.851277,18.38504 9.0324516,19.704545 6.3508852,19.946774 4.0507358,20.15455 3.1555817,20.240493 4.0885042,21.173415 4.3885371,21.473447 4.8457881,22.112667 5.1039356,22.595019 5.7620436,23.824707 6.758093,23.252827 7.4658288,21.884217 7.8101872,21.218301 12.477998,19.215663 12.477998,19.215663 12.477998,19.215663 14.713866,19.881649 16.616895,21.874063 17.426428,23.572611 18.16396,23.813393 19.395115,21.932958 20.589693,20.108392 20.275228,19.53857 18.073024,19.53857 16.574061,19.53857 13.940219,18.474399 13.940219,18.474399 13.940219,18.474399 16.962967,16.923606 18.068963,17.166523 18.915014,17.352348 19.345288,17.404121 19.87643,16.817215 20.562038,16.059627 20.558936,15.9862 19.82972,14.737612 18.834624,13.03377 17.938162,12.89999 17.19163,14.343625 16.557098,15.570674 12.327713,17.662054 12.327713,17.662054 12.327713,17.662054 7.3580465,15.475542 6.8057984,14.323315 6.4707697,13.624301 6.0457914,13.280346 5.5974351,13.291637 Z"
     id="path4197"
     inkscape:connector-curvature="0" />
</svg>
