<?xml version="1.0" encoding="UTF-8" standalone="no"?>
<!-- Created with Inkscape (http://www.inkscape.org/) -->

<svg
   xmlns:dc="http://purl.org/dc/elements/1.1/"
   xmlns:cc="http://creativecommons.org/ns#"
   xmlns:rdf="http://www.w3.org/1999/02/22-rdf-syntax-ns#"
   xmlns:svg="http://www.w3.org/2000/svg"
   xmlns="http://www.w3.org/2000/svg"
   xmlns:sodipodi="http://sodipodi.sourceforge.net/DTD/sodipodi-0.dtd"
   xmlns:inkscape="http://www.inkscape.org/namespaces/inkscape"
   version="1.1"
   width="24"
   height="24"
   id="svg4460"
   inkscape:version="0.91 r13725"
   sodipodi:docname="drapeau.svg">
  <sodipodi:namedview
     pagecolor="#ffffff"
     bordercolor="#666666"
     borderopacity="1"
     objecttolerance="10"
     gridtolerance="10"
     guidetolerance="10"
     inkscape:pageopacity="0"
     inkscape:pageshadow="2"
     inkscape:window-width="1280"
     inkscape:window-height="972"
     id="namedview11"
     showgrid="false"
     inkscape:zoom="13.906433"
     inkscape:cx="5.7686873"
     inkscape:cy="12.78521"
     inkscape:window-x="-8"
     inkscape:window-y="-8"
     inkscape:window-maximized="1"
     inkscape:current-layer="svg4460" />
  <defs
     id="defs4462" />
  <metadata
     id="metadata4465">
    <rdf:RDF>
      <cc:Work
         rdf:about="">
        <dc:format>image/svg+xml</dc:format>
        <dc:type
           rdf:resource="http://purl.org/dc/dcmitype/StillImage" />
        <dc:title />
      </cc:Work>
    </rdf:RDF>
  </metadata>
  <path
     style="fill:#000000;fill-rule:evenodd;stroke:none;stroke-width:1.07620132px;stroke-linecap:butt;stroke-linejoin:miter;stroke-opacity:1"
     d="M 9.1646321,1.0923752 C 4.8023272,1.1950652 0,5.6446214 0,5.6446214 L 3.3447898,23.197155 C 3.3447898,23.197155 7.7388178,18.227939 12.123047,17.767668 16.473051,17.31099 16.919495,22.363694 24,19.830168 22.809574,17.920649 21.373047,17.054777 21.373047,17.054777 L 22.599609,14.861418 C 21.299178,15.198796 19.679646,11.773433 22.183765,12.007888 22.148625,11.438294 22.624512,10.868498 20.968921,10.298904 L 22.677905,9.369216 C 21.797593,9.4867886 21.275238,7.2857254 22.015781,6.0244115 22.662963,4.945774 21.092079,3.9192964 22.067446,2.5063356 16.042619,5.1097231 13.526937,0.9896852 9.1646321,1.0923752 Z M 10.533203,4.5371996 C 12.304269,4.6186714 13.484179,5.1860008 14.601562,6.4942308 15.366154,7.3894132 15.562017,7.8811155 15.650391,9.1289964 15.710155,9.9728916 15.581827,10.822041 15.367188,11.017668 15.152544,11.213297 15.055913,11.735014 15.152344,12.175871 15.260509,12.670363 15.017269,13.385769 14.515625,14.043059 13.820477,14.953886 13.494454,15.121406 12.267578,15.203215 11.108002,15.280539 10.600436,15.146005 9.6210938,14.50009 8.7354391,13.915966 8.3509925,13.438371 8.1953125,12.726653 8.0675324,12.142484 7.77963,11.70469 7.4746094,11.630949 7.1463985,11.551602 6.742192,10.869393 6.3378906,9.7071214 5.7622536,8.0523001 5.7637537,7.8070977 6.3535156,6.7012621 7.027011,5.4384201 8.3037945,4.6640319 9.8535156,4.5469652 10.074904,4.5302414 10.301642,4.5265476 10.533203,4.5371996 Z M 13.210938,8.3145433 C 12.998019,8.3314223 12.768773,8.4015746 12.541016,8.5332933 11.780613,8.9730504 11.791034,9.2889028 12.576172,9.8067308 13.439315,10.376008 14.11934,10.199002 14.244141,9.3750902 14.347443,8.6931079 13.849697,8.263906 13.210938,8.3145433 Z M 8.5253906,8.5762621 C 8.0301777,8.6211395 7.7198314,8.9327421 7.828125,9.4278246 8.076225,10.562058 9.2763483,10.762221 9.9726562,9.7852464 10.32418,9.2920316 10.261646,9.1408735 9.5644531,8.8008714 9.1865226,8.6165648 8.8225181,8.5493348 8.5253906,8.5762621 Z M 11.199219,10.244231 C 11.167102,10.233784 11.139362,10.234633 11.119141,10.248137 10.95737,10.356167 10.659397,10.933075 10.884766,11.082121 11.083152,11.213324 11.123904,11.043525 11.306641,11.03134 11.489379,11.019155 11.618423,11.155674 11.742188,11.039153 11.88165,10.907843 11.424033,10.317357 11.199219,10.244231 Z M 13.988281,12.074309 C 13.933012,12.077302 13.87927,12.101329 13.839844,12.150481 L 13.402344,12.693449 12.990234,12.408293 C 12.953802,12.383103 12.91022,12.366395 12.865234,12.361418 11.872358,12.248802 11.200726,12.35248 10.416016,12.480559 10.367706,12.488763 10.325335,12.510764 10.296875,12.543059 L 9.8945312,12.996184 9.1777344,12.451262 C 9.1256852,12.410038 9.0570767,12.38932 8.9902344,12.394621 8.9828131,12.395281 8.9759724,12.397227 8.96875,12.398527 8.797332,12.428693 8.7565462,12.610525 8.8984375,12.714934 L 9.8007812,13.402434 C 9.9018088,13.479949 10.050915,13.475494 10.125,13.392668 L 10.613281,12.845793 C 11.344714,12.726776 11.931545,12.641592 12.796875,12.732512 L 13.330078,13.107512 C 13.43487,13.181088 13.583463,13.170027 13.652344,13.084074 L 14.21875,12.380949 C 14.337027,12.233499 14.154088,12.065329 13.988281,12.074309 Z"
     id="path4148"
     inkscape:connector-curvature="0"
     sodipodi:nodetypes="cccscccccccccssssssssssssssssssssssssscsscssccccccccccccccccccs" />
</svg>
