<?xml version="1.0" encoding="UTF-8" standalone="no"?>
<!-- Created with Inkscape (http://www.inkscape.org/) -->

<svg
   xmlns:dc="http://purl.org/dc/elements/1.1/"
   xmlns:cc="http://creativecommons.org/ns#"
   xmlns:rdf="http://www.w3.org/1999/02/22-rdf-syntax-ns#"
   xmlns:svg="http://www.w3.org/2000/svg"
   xmlns="http://www.w3.org/2000/svg"
   xmlns:sodipodi="http://sodipodi.sourceforge.net/DTD/sodipodi-0.dtd"
   xmlns:inkscape="http://www.inkscape.org/namespaces/inkscape"
   version="1.1"
   width="24"
   height="24"
   id="svg4460"
   inkscape:version="0.91 r13725"
   sodipodi:docname="pirate.svg">
  <sodipodi:namedview
     pagecolor="#ffffff"
     bordercolor="#666666"
     borderopacity="1"
     objecttolerance="10"
     gridtolerance="10"
     guidetolerance="10"
     inkscape:pageopacity="0"
     inkscape:pageshadow="2"
     inkscape:window-width="1280"
     inkscape:window-height="972"
     id="namedview11"
     showgrid="false"
     inkscape:zoom="13.906433"
     inkscape:cx="1.1145511"
     inkscape:cy="9.3190394"
     inkscape:window-x="-8"
     inkscape:window-y="-8"
     inkscape:window-maximized="1"
     inkscape:current-layer="svg4460" />
  <defs
     id="defs4462" />
  <metadata
     id="metadata4465">
    <rdf:RDF>
      <cc:Work
         rdf:about="">
        <dc:format>image/svg+xml</dc:format>
        <dc:type
           rdf:resource="http://purl.org/dc/dcmitype/StillImage" />
        <dc:title />
      </cc:Work>
    </rdf:RDF>
  </metadata>
  <path
     style="fill:#000000;fill-opacity:1;stroke:none"
     d="M 11.923828 0.08203125 C 10.085428 0.10090976 8.3973895 1.0498136 7.2890625 2.7246094 C 6.3185303 4.191181 6.2545611 4.5251647 6.5039062 6.8535156 C 6.6790351 8.488845 6.9751246 9.4643096 7.3378906 9.6035156 C 7.6750245 9.7328866 7.9003906 10.362719 7.9003906 11.177734 C 7.9003906 12.170703 8.2268806 12.8636 9.1113281 13.748047 C 10.089334 14.726053 10.646574 14.957031 12.019531 14.957031 C 13.472172 14.957031 13.895715 14.755154 14.939453 13.566406 C 15.692652 12.708553 16.160156 11.748497 16.160156 11.058594 C 16.160156 10.443526 16.406607 9.7356581 16.707031 9.4863281 C 17.007453 9.2369996 17.373857 8.0799953 17.519531 6.9140625 C 17.73494 5.1899809 17.630563 4.4963997 16.966797 3.1953125 C 15.996763 1.2938886 14.766732 0.40529003 12.720703 0.13085938 C 12.453191 0.094978535 12.186456 0.07933432 11.923828 0.08203125 z M 9.3457031 5.5 C 9.6993235 5.4902178 10.106004 5.6181527 10.5 5.90625 C 11.22683 6.4377205 11.26269 6.6489273 10.726562 7.2949219 C 9.664586 8.5745256 8.3125 8.1898714 8.3125 6.6074219 C 8.3125 5.9166975 8.7563362 5.5163037 9.3457031 5.5 z M 14.878906 5.5703125 C 15.637261 5.559252 16.109093 6.1966688 15.814453 7.125 C 15.458492 8.246529 14.619779 8.4244682 13.757812 7.5625 C 12.973745 6.7784338 13.043328 6.3455382 14.042969 5.8105469 C 14.342385 5.6503036 14.626121 5.5739994 14.878906 5.5703125 z M 11.947266 8.0371094 C 12.16363 7.9033889 12.695015 8.9898945 12.470703 9.1816406 C 12.296528 9.3305241 12.181208 9.1308594 11.964844 9.1308594 C 11.748481 9.1308594 11.657008 9.3626704 11.458984 9.1640625 C 11.234026 8.9384408 11.730903 8.170829 11.947266 8.0371094 z M 3.6660156 9.9335938 C 3.3513469 9.9301288 4.1216004 12.522066 4.2890625 12.804688 C 5.3639105 14.694389 7.5081033 16.53544 10.208984 18.167969 C 8.8713308 18.797904 7.4778277 19.379645 6.0859375 19.888672 C 5.8426985 19.415486 5.7301607 19.49656 5.2304688 19.214844 C 4.6825927 18.905964 3.9538199 18.794303 3.2050781 18.980469 C 2.5346458 19.147937 2.8412864 19.974109 3.5117188 19.806641 C 3.9945751 19.686584 4.3263766 19.749717 4.6386719 19.925781 C 4.9509671 20.101847 5.2296516 20.422755 5.4160156 20.830078 C 5.6734736 21.392788 6.1680543 22.204 6.6542969 22.501953 C 7.1405393 22.799906 7.7175311 22.8199 8.2910156 22.707031 C 8.9817164 22.578014 8.6011512 21.549972 7.9140625 21.691406 C 7.450386 21.597282 7.351332 21.642447 7.0078125 21.396484 C 8.7640679 20.747686 10.439327 19.993381 11.998047 19.175781 C 13.556945 19.993514 15.237642 20.747596 16.994141 21.396484 C 16.65062 21.642447 16.549615 21.597282 16.085938 21.691406 C 15.39885 21.549972 15.018283 22.578014 15.708984 22.707031 C 16.282468 22.8199 16.85946 22.799906 17.345703 22.501953 C 17.831945 22.204 18.326527 21.392788 18.583984 20.830078 C 18.770349 20.422755 19.050986 20.101847 19.363281 19.925781 C 19.675577 19.749717 20.005425 19.686584 20.488281 19.806641 C 21.158714 19.974109 21.465353 19.147937 20.794922 18.980469 C 20.04618 18.794303 19.31936 18.905964 18.771484 19.214844 C 18.271792 19.49656 18.157301 19.415486 17.914062 19.888672 C 16.522458 19.379749 15.124513 18.799707 13.787109 18.169922 C 16.489097 16.537048 18.635781 14.694932 19.710938 12.804688 C 19.878399 12.522066 20.648653 9.9301284 20.333984 9.9335938 C 20.019315 9.9370591 19.103528 11.55121 19.025391 11.695312 C 17.95789 13.572098 15.260698 15.552038 11.998047 17.273438 C 8.7359875 15.552199 6.0419685 13.571848 4.9746094 11.695312 C 4.8964719 11.55121 3.9806851 9.9370594 3.6660156 9.9335938 z M 8.9121094 10.794922 C 8.9914672 10.793762 9.0669691 10.829167 9.1171875 10.890625 L 9.8144531 11.705078 L 10.400391 11.117188 C 10.441847 11.075385 10.496215 11.049819 10.554688 11.042969 C 11.503134 10.938799 12.313426 10.857615 13.443359 11.103516 C 13.494589 11.114484 13.540085 11.139754 13.576172 11.177734 L 13.984375 11.611328 L 14.634766 10.902344 C 14.868992 10.646453 15.253757 10.998018 15.019531 11.253906 L 14.177734 12.169922 C 14.075408 12.281801 13.900386 12.282661 13.796875 12.171875 L 13.267578 11.609375 C 12.28095 11.405004 11.575366 11.465908 10.691406 11.5625 L 9.9824219 12.271484 C 9.8748229 12.378586 9.6996735 12.369763 9.6015625 12.253906 L 8.7226562 11.226562 C 8.5837225 11.069975 8.6789745 10.822638 8.8867188 10.796875 C 8.8954788 10.79575 8.9032802 10.79515 8.9121094 10.794922 z M 7.1933594 15.113281 C 7.2616814 15.115063 8.1790652 15.789695 8.2265625 15.830078 C 9.0132279 16.476295 10.612199 17.316912 12.001953 17.980469 C 13.391363 17.317019 14.987048 16.476069 15.773438 15.830078 C 15.820934 15.789695 16.736365 15.115063 16.804688 15.113281 C 15.69672 16.353321 14.079081 17.356801 12.490234 18.181641 C 13.42559 18.545433 14.612149 18.90353 15.123047 19.837891 C 16.252255 19.653573 16.358793 19.659845 17.208984 20.417969 C 17.467501 20.612415 17.110152 20.930707 16.851562 20.736328 L 16.044922 20.125 C 14.921557 20.309937 14.804368 20.397426 14.271484 19.496094 C 13.588367 19.201294 12.804779 18.834064 12.001953 18.435547 C 11.198834 18.834505 10.412048 19.201115 9.7285156 19.496094 C 9.1956311 20.397426 9.0803961 20.309937 7.9570312 20.125 L 7.1484375 20.736328 C 6.8898453 20.930707 6.532498 20.612415 6.7910156 20.417969 C 7.6412059 19.659845 7.7477451 19.653573 8.8769531 19.837891 C 9.3881295 18.903022 10.574191 18.54564 11.509766 18.181641 C 9.9204365 17.357088 8.3013268 16.353321 7.1933594 15.113281 z M 4.5292969 20.664062 C 4.4105947 20.66798 4.2969649 20.703816 4.2070312 20.767578 C 4.0177168 20.898247 3.6655469 21.328316 3.078125 21.513672 C 2.4907033 21.699028 1.9765625 21.935547 1.9765625 21.935547 C 1.2640186 22.087665 1.8307617 23.017886 2.5214844 22.808594 C 2.5214844 22.808594 3.2586901 22.887726 3.8808594 22.691406 C 4.5030288 22.495085 4.8276732 22.388035 5.2851562 22.072266 C 5.6762654 21.809582 5.0340317 20.646325 4.5292969 20.664062 z M 19.470703 20.664062 C 18.965968 20.646325 18.323735 21.809582 18.714844 22.072266 C 19.172328 22.388035 19.496972 22.495085 20.119141 22.691406 C 20.741311 22.887726 21.478516 22.808594 21.478516 22.808594 C 22.169238 23.017886 22.735983 22.087665 22.023438 21.935547 C 22.023438 21.935547 21.511249 21.699028 20.923828 21.513672 C 20.336407 21.328316 19.982283 20.898247 19.792969 20.767578 C 19.703035 20.703816 19.589405 20.66798 19.470703 20.664062 z M 1.1210938 21.123047 C 0.9847625 21.123047 0.85385128 21.16628 0.75585938 21.244141 C 0.75585938 21.244141 0.46484821 21.463646 0.26953125 21.808594 C 0.0742143 22.153539 -0.023016405 22.70931 0.38867188 23.201172 C 1.1874986 24.155564 2.6855469 23.988281 2.6855469 23.988281 C 3.3819753 23.924215 3.2686939 23.066793 2.5722656 23.130859 C 2.5722656 23.130859 1.6496047 23.181362 1.2558594 22.710938 C 1.0712617 22.490392 1.1211359 22.347719 1.2207031 22.171875 C 1.3202701 21.996032 1.4746094 21.873047 1.4746094 21.873047 C 1.8287865 21.607104 1.6009387 21.122641 1.1210938 21.123047 z M 22.878906 21.123047 C 22.399061 21.122641 22.171215 21.607104 22.525391 21.873047 C 22.525391 21.873047 22.67973 21.996032 22.779297 22.171875 C 22.878865 22.347719 22.930691 22.490392 22.746094 22.710938 C 22.352348 23.181362 21.429688 23.130859 21.429688 23.130859 C 20.733258 23.066793 20.618025 23.924215 21.314453 23.988281 C 21.314453 23.988281 22.812501 24.155564 23.611328 23.201172 C 24.023016 22.70931 23.925785 22.153539 23.730469 21.808594 C 23.535152 21.463646 23.244141 21.244141 23.244141 21.244141 C 23.14615 21.16628 23.015237 21.123047 22.878906 21.123047 z "
     id="path4143" />
</svg>
