<?xml version="1.0" encoding="UTF-8" standalone="no"?>
<!-- Created with Inkscape (http://www.inkscape.org/) -->

<svg
   xmlns:dc="http://purl.org/dc/elements/1.1/"
   xmlns:cc="http://creativecommons.org/ns#"
   xmlns:rdf="http://www.w3.org/1999/02/22-rdf-syntax-ns#"
   xmlns:svg="http://www.w3.org/2000/svg"
   xmlns="http://www.w3.org/2000/svg"
   xmlns:sodipodi="http://sodipodi.sourceforge.net/DTD/sodipodi-0.dtd"
   xmlns:inkscape="http://www.inkscape.org/namespaces/inkscape"
   version="1.1"
   width="24"
   height="24"
   id="svg4460"
   inkscape:version="0.91 r13725"
   sodipodi:docname="coffre.svg">
  <sodipodi:namedview
     pagecolor="#ffffff"
     bordercolor="#666666"
     borderopacity="1"
     objecttolerance="10"
     gridtolerance="10"
     guidetolerance="10"
     inkscape:pageopacity="0"
     inkscape:pageshadow="2"
     inkscape:window-width="1280"
     inkscape:window-height="972"
     id="namedview11"
     showgrid="false"
     inkscape:zoom="22.627417"
     inkscape:cx="9.1064958"
     inkscape:cy="11.965969"
     inkscape:window-x="-8"
     inkscape:window-y="-8"
     inkscape:window-maximized="1"
     inkscape:current-layer="svg4460" />
  <defs
     id="defs4462" />
  <metadata
     id="metadata4465">
    <rdf:RDF>
      <cc:Work
         rdf:about="">
        <dc:format>image/svg+xml</dc:format>
        <dc:type
           rdf:resource="http://purl.org/dc/dcmitype/StillImage" />
        <dc:title />
      </cc:Work>
    </rdf:RDF>
  </metadata>
  <path
     style="color:#000000;font-style:normal;font-variant:normal;font-weight:normal;font-stretch:normal;font-size:medium;line-height:normal;font-family:sans-serif;text-indent:0;text-align:start;text-decoration:none;text-decoration-line:none;text-decoration-style:solid;text-decoration-color:#000000;letter-spacing:normal;word-spacing:normal;text-transform:none;direction:ltr;block-progression:tb;writing-mode:lr-tb;baseline-shift:baseline;text-anchor:start;white-space:normal;clip-rule:nonzero;display:inline;overflow:visible;visibility:visible;opacity:1;isolation:auto;mix-blend-mode:normal;color-interpolation:sRGB;color-interpolation-filters:linearRGB;solid-color:#000000;solid-opacity:1;fill:#000000;fill-opacity:1;fill-rule:nonzero;stroke:none;stroke-width:1.62262332;stroke-linecap:round;stroke-linejoin:round;stroke-miterlimit:4;stroke-dasharray:none;stroke-dashoffset:0;stroke-opacity:1;marker:none;color-rendering:auto;image-rendering:auto;shape-rendering:auto;text-rendering:auto;enable-background:accumulate"
     d="M 16.10215,0.76982263 C 10.892175,0.86674544 1.2203345,1.1255017 0.97422556,1.8583928 0.20024086,2.6919142 5.2576122,8.2937638 5.2576122,8.2937638 5.2576122,8.2937638 1.009657,10.594456 8.5823974e-7,12.247835 L 8.5823974e-7,22.28738 C -7.1554176e-4,22.812202 0.42424666,23.238188 0.94906946,23.238735 L 17.869933,23.238735 C 24.411666,21.553907 23.311468,14.863945 22.688457,9.535557 26.332291,3.1666235 21.815292,0.59226211 16.10215,0.76982263 Z M 9.7742643,2.4438423 C 11.866448,2.4145489 13.906247,2.4848752 16.253086,2.4895806 L 21.750822,8.7854499 19.697176,10.169032 C 19.711494,10.105918 19.73842,10.046229 19.73834,9.9792177 19.73785,9.8885925 19.72322,9.7984953 19.694889,9.7116497 19.799896,9.5604831 19.856171,9.3853154 19.85726,9.2062418 19.857893,8.6793967 19.390665,8.2521287 18.814428,8.2525994 18.799165,8.2530552 18.783915,8.2538176 18.768689,8.2548863 18.610108,7.8946945 18.228291,7.6585465 17.803613,7.6580022 17.740703,7.6581512 17.677938,7.6635093 17.616085,7.6740106 17.44529,7.3379823 17.076869,7.1229955 16.671591,7.1228647 16.096331,7.1223948 15.629508,7.5482686 15.628759,8.0742202 15.629011,8.1286625 15.634367,8.1829851 15.644768,8.236591 15.473079,8.1309204 15.270859,8.0743944 15.063892,8.0742202 15.021801,8.0749433 14.979798,8.0779982 14.938111,8.083368 14.817365,8.0390257 14.688602,8.0157552 14.558484,8.0147605 14.543221,8.0152164 14.527971,8.0159787 14.512746,8.0170474 14.353854,7.6561485 13.970895,7.4198542 13.545382,7.4201633 13.483236,7.4204378 13.421243,7.4257954 13.360142,7.4361718 13.190077,7.0992508 12.821503,6.883282 12.415647,6.8827389 12.044005,6.8830255 11.700667,7.0642802 11.514604,7.3584167 11.361702,7.2820385 11.190292,7.2419379 11.016057,7.2417843 11.000795,7.2422397 10.985545,7.2430025 10.970318,7.2440711 10.812219,6.882274 10.429083,6.6449655 10.002954,6.6449001 9.9400463,6.6450491 9.8772793,6.6504072 9.8154283,6.6609085 9.6449823,6.3255644 9.2776703,6.1107049 8.8732203,6.1097627 8.2979603,6.1092927 7.8311373,6.5351662 7.8303883,7.0611182 7.8306403,7.1155605 7.8359953,7.169883 7.8463973,7.223489 7.674708,7.1178179 7.4724874,7.0612922 7.2655211,7.0611182 6.8253401,7.0607586 6.4534479,7.3123068 6.3004442,7.664863 L 2.9775606,3.0018489 C 5.5376636,2.6027468 7.6820778,2.4731358 9.7742643,2.4438423 Z M 7.2723818,2.7205587 C 6.7582488,4.0567755 7.1135416,3.9988605 5.2759075,3.9806474 6.9039224,4.5589303 6.4895766,4.6553046 6.1952461,5.9748348 7.0012947,4.816766 6.9045338,4.7074933 8.7680223,4.8405264 7.075765,4.0318223 7.179737,3.9636128 7.2723818,2.7205587 Z M 11.242461,3.3311643 C 11.56296,4.7265455 11.825098,4.4780322 10.291106,5.4900094 11.964308,5.0596155 11.672936,5.3724855 12.166373,6.6311787 12.187509,5.2203668 12.049269,5.184006 13.668875,4.2527899 11.813616,4.5280188 11.860398,4.4137168 11.242461,3.3311643 Z M 17.211302,3.7290871 C 15.979459,5.143406 15.941873,5.0267034 14.76888,4.6049744 15.918913,5.4577539 15.957125,5.0986242 15.448093,6.8644436 16.440728,5.4503999 16.423344,5.8757381 17.616085,6.5122592 16.715784,5.4258451 16.584719,5.4891099 17.211302,3.7290871 Z M 10.522084,7.5733865 C 10.537326,7.5729597 10.55258,7.5729597 10.567822,7.5733865 10.92646,7.5736389 11.217087,7.8049121 11.217306,8.0902286 11.217087,8.3755451 10.92646,8.6068184 10.567822,8.6070708 10.208291,8.6078235 9.9162693,8.3762558 9.9160533,8.0902286 9.9154743,7.8178694 10.180519,7.5918325 10.522084,7.5733865 Z M 8.4592893,7.8043646 C 8.4745303,7.8039378 8.4897863,7.8039378 8.5050273,7.8043646 8.8636653,7.8046173 9.1542913,8.0358905 9.1545103,8.3212068 9.1542913,8.6065228 8.8636653,8.8377963 8.5050273,8.8380489 8.1454973,8.8388018 7.8534753,8.6072339 7.8532573,8.3212068 7.8526803,8.0488475 8.1177233,7.8228106 8.4592893,7.8043646 Z M 13.447044,8.183992 C 13.462288,8.1835657 13.477541,8.1835657 13.492783,8.183992 13.851421,8.1842449 14.142049,8.4155181 14.142265,8.7008342 14.142049,8.9861503 13.85142,9.2174235 13.492783,9.2176764 13.134146,9.2174235 12.843517,8.9861503 12.8433,8.7008342 12.842641,8.4291291 13.106387,8.2033503 13.447044,8.183992 Z M 6.8927543,8.730564 C 6.7636152,10.076339 6.3629681,10.223858 8.0499323,10.596684 6.2241135,10.805526 6.3933981,11.542539 6.0481994,12.932014 5.9866402,11.687034 6.2569415,10.767157 4.477775,10.173606 6.343429,10.075512 6.2358762,9.9793032 6.8927543,8.730564 Z M 9.2025353,9.0896093 C 9.3094473,9.0900604 9.4070593,9.1233933 9.4838263,9.1856596 9.7043153,9.3666537 9.6991993,9.7380863 9.4723913,10.015808 9.2462483,10.292954 8.8844703,10.372669 8.6628243,10.194188 8.4398693,10.01407 8.4439723,9.6407061 8.6719723,9.3617523 8.8122973,9.1905265 9.0122293,9.0879779 9.2025353,9.0896093 Z M 17.435419,9.1376345 C 17.66185,9.1268173 17.854627,9.2249595 17.93854,9.3937682 18.066005,9.6496073 17.908267,9.986599 17.586356,10.146162 17.264361,10.30517 16.90083,10.22632 16.774501,9.9700706 16.647036,9.7142315 16.804776,9.3772433 17.126687,9.2176764 17.224869,9.169654 17.331053,9.142125 17.435419,9.1376345 Z M 13.426462,9.5218352 C 14.339757,10.370162 14.329388,10.494596 16.017534,9.6773459 15.270409,10.486746 15.020459,10.818412 15.018153,11.230159 15.019998,11.238001 15.033776,11.269344 15.034161,11.271324 15.028077,11.27119 15.021952,11.271461 15.015866,11.271324 15.025522,11.548106 15.138055,11.868291 15.29487,12.396485 14.447722,11.342852 14.631497,10.957312 13.163467,11.868208 14.324797,10.443938 14.149436,10.757601 13.426462,9.5218352 Z M 12.575731,9.81456 C 12.752703,9.8176851 12.902583,9.8938826 12.985088,10.02267 13.139916,10.262497 13.021179,10.614615 12.719807,10.809368 12.417702,11.004753 12.04665,10.967852 11.891945,10.727038 11.737773,10.486649 11.857563,10.134459 12.159513,9.9403403 12.287655,9.8573049 12.435005,9.8127744 12.575731,9.81456 Z M 10.05784,10.457183 C 10.073082,10.456755 10.088338,10.456755 10.103579,10.457183 10.462216,10.457432 10.752843,10.688709 10.753062,10.974025 10.770125,11.078399 10.694527,11.152598 10.661585,11.232446 10.292856,11.234423 9.9169983,11.23603 9.5478593,11.239307 9.5029573,11.190575 9.4917133,11.124982 9.4655303,11.072362 9.4577813,11.040856 9.4542983,11.007207 9.4540953,10.974025 9.4534363,10.702319 9.7171783,10.476537 10.05784,10.457183 Z M 3.7139464,10.582963 C 3.5348966,10.756415 3.4238292,10.982938 3.4235085,11.230159 3.4235398,11.252074 3.4356064,11.270362 3.43723,11.291906 3.1712079,11.292866 2.9154181,11.298767 2.6482452,11.298767 Z M 17.465149,12.839311 C 17.794673,12.823825 18.071931,13.083495 18.078042,13.413327 17.737822,15.754366 19.743947,23.237413 17.202155,22.044967 17.799709,19.402025 15.529192,14.665333 17.465149,12.839311 Z M 8.5318126,14.602106 C 9.4051056,14.559641 9.8857583,15.359753 9.1881566,16.015418 L 9.4191346,17.236629 C 9.2563516,17.39043 8.7818016,17.494706 8.5546816,17.497337 8.3275626,17.499968 7.9270796,17.400956 7.8274436,17.236629 L 8.0172576,16.015418 C 7.3183101,15.488163 7.6585196,14.64457 8.5318126,14.602106 Z"
     id="rect4133"
     inkscape:connector-curvature="0"
     sodipodi:nodetypes="cccccccccscccccccccccccccccccccccccccccccscccccccccccccccccccccccccccccccccccccccccccccccccccccccccccccccccccccccccccccccccsccsccs" />
</svg>
