<?xml version="1.0" encoding="UTF-8" standalone="no"?>
<!-- Created with Inkscape (http://www.inkscape.org/) -->

<svg
   xmlns:dc="http://purl.org/dc/elements/1.1/"
   xmlns:cc="http://creativecommons.org/ns#"
   xmlns:rdf="http://www.w3.org/1999/02/22-rdf-syntax-ns#"
   xmlns:svg="http://www.w3.org/2000/svg"
   xmlns="http://www.w3.org/2000/svg"
   xmlns:sodipodi="http://sodipodi.sourceforge.net/DTD/sodipodi-0.dtd"
   xmlns:inkscape="http://www.inkscape.org/namespaces/inkscape"
   version="1.1"
   width="24"
   height="24"
   id="svg4460"
   inkscape:version="0.91 r13725"
   sodipodi:docname="bouteill.svg">
  <sodipodi:namedview
     pagecolor="#ffffff"
     bordercolor="#666666"
     borderopacity="1"
     objecttolerance="10"
     gridtolerance="10"
     guidetolerance="10"
     inkscape:pageopacity="0"
     inkscape:pageshadow="2"
     inkscape:window-width="1280"
     inkscape:window-height="972"
     id="namedview11"
     showgrid="false"
     inkscape:zoom="9.8333331"
     inkscape:cx="23.484386"
     inkscape:cy="18.523585"
     inkscape:window-x="-8"
     inkscape:window-y="-8"
     inkscape:window-maximized="1"
     inkscape:current-layer="svg4460"
     showguides="false" />
  <defs
     id="defs4462" />
  <metadata
     id="metadata4465">
    <rdf:RDF>
      <cc:Work
         rdf:about="">
        <dc:format>image/svg+xml</dc:format>
        <dc:type
           rdf:resource="http://purl.org/dc/dcmitype/StillImage" />
        <dc:title></dc:title>
      </cc:Work>
    </rdf:RDF>
  </metadata>
  <path
     style="color:#000000;font-style:normal;font-variant:normal;font-weight:normal;font-stretch:normal;font-size:medium;line-height:normal;font-family:sans-serif;text-indent:0;text-align:start;text-decoration:none;text-decoration-line:none;text-decoration-style:solid;text-decoration-color:#000000;letter-spacing:normal;word-spacing:normal;text-transform:none;direction:ltr;block-progression:tb;writing-mode:lr-tb;baseline-shift:baseline;text-anchor:start;white-space:normal;clip-rule:nonzero;display:inline;overflow:visible;visibility:visible;opacity:1;isolation:auto;mix-blend-mode:normal;color-interpolation:sRGB;color-interpolation-filters:linearRGB;solid-color:#000000;solid-opacity:1;fill:#000000;fill-opacity:1;fill-rule:evenodd;stroke:none;stroke-width:2;stroke-linecap:round;stroke-linejoin:round;stroke-miterlimit:4;stroke-dasharray:none;stroke-dashoffset:0;stroke-opacity:1;color-rendering:auto;image-rendering:auto;shape-rendering:auto;text-rendering:auto;enable-background:accumulate"
     d="M 20.538644,0.00727473 C 20.1043,0.04560263 19.663423,0.23215313 19.208556,0.53539823 18.943275,0.71225163 18.799675,0.96146273 18.664429,1.2377848 18.202526,1.2372306 17.712743,1.3959764 17.316557,1.8014722 16.960303,2.14887 16.799347,2.5700952 16.763539,2.9786366 L 14.789744,4.9524317 C 14.51276,4.7811624 14.234044,4.6282377 13.957549,4.4972141 13.400289,4.2331437 12.844222,4.0508816 12.262931,4.0313273 11.681638,4.0117738 11.031246,4.2061365 10.58965,4.6803681 L 0.79713672,14.474661 C 0.32290525,14.916257 0.12676402,15.566648 0.14631779,16.147941 0.16587156,16.729232 0.34813432,17.285298 0.61220456,17.842559 1.1403451,18.957081 2.0230594,20.092722 3.0376609,21.107323 4.052263,22.121926 5.1896811,23.004639 6.3042031,23.532779 6.8614644,23.79685 7.4157509,23.979111 7.9970436,23.998666 8.5783354,24.01822 9.2287278,23.823857 9.6703239,23.349625 L 19.464615,13.555334 C 19.938848,13.113738 20.134988,12.463345 20.115434,11.882053 20.09588,11.300762 19.91184,10.746475 19.64777,10.189212 19.516746,9.9127175 19.363821,9.6340015 19.192552,9.3570185 L 21.166347,7.3814445 C 21.57489,7.3456358 21.996114,7.1846803 22.343511,6.8284262 22.767623,6.4140527 22.92691,5.896645 22.910755,5.4165403 22.908477,5.3488011 22.889931,5.2914103 22.880525,5.2280518 23.197643,5.0325921 23.475951,4.7795813 23.662931,4.4349773 23.935395,3.9328265 23.889602,3.3221083 23.702052,2.6870128 23.5145,2.0519173 23.148742,1.3923981 22.576455,0.89814973 22.041091,0.43579053 21.545851,0.10464223 20.970746,0.01972203 20.826969,-0.00150797 20.683426,-0.00550127 20.538644,0.00727473 Z M 20.606216,0.91415353 C 20.686273,0.90767523 20.762087,0.91014843 20.83738,0.92126633 21.138558,0.96573823 21.497671,1.169097 21.98076,1.5863108 22.390102,1.9398335 22.683696,2.458977 22.82718,2.9448509 22.970664,3.4307249 22.925975,3.8827834 22.862744,3.9993198 22.84808,4.0263444 22.813073,4.0509943 22.793394,4.0775603 22.649587,4.0690599 22.516631,4.0767445 22.400413,4.0828949 22.199332,4.0935365 22.029825,4.0956027 21.859842,4.0455528 21.519878,3.9454531 21.05334,3.6263227 20.495967,2.2886974 A 0.45526314,0.45526314 0 0 0 20.069201,2.0024082 0.45526314,0.45526314 0 0 0 19.65666,2.6390015 C 20.207779,3.9616197 20.81051,4.5737122 21.409959,4.8279581 21.336458,4.8481282 21.265203,4.8735556 21.191241,4.890195 20.638075,5.0146437 20.221987,5.0478469 20.006965,5.0609016 19.841877,4.9320877 19.674296,4.79047 19.514404,4.6305786 19.347072,4.4632461 19.198237,4.2877521 19.064522,4.1149024 19.068094,4.1175883 19.073389,4.1210869 19.076969,4.1237934 18.949443,3.9596331 18.8581,3.8089268 18.772898,3.661463 18.837185,3.4203732 18.906868,3.159974 19.000506,2.8630539 19.118334,2.489436 19.254549,2.1052735 19.393488,1.8050286 19.532427,1.5047838 19.711514,1.294274 19.713562,1.2929089 20.091974,1.0406342 20.366043,0.93358833 20.606216,0.91415353 Z M 17.398355,4.9186461 C 17.64037,5.2778724 17.921182,5.6121804 18.226993,5.917991 18.532978,6.2239765 18.867227,6.5048897 19.226337,6.7466292 L 16.800881,9.1738645 C 17.315333,9.7978405 17.747395,10.427011 18.00294,10.966283 18.197734,11.377351 18.287517,11.733001 18.294565,11.942513 18.301612,12.152016 18.275046,12.173753 18.221658,12.223466 18.21398,12.230878 18.207731,12.237128 18.200319,12.244805 L 15.739299,14.705826 C 14.768446,15.135742 13.916468,15.293993 13.121798,15.297963 13.175986,15.184533 13.235943,15.075257 13.288948,14.961886 13.986853,13.391091 15.104243,11.032214 15.246739,10.105638 15.271459,9.6606885 15.063194,9.2323095 14.713282,8.9444765 14.363368,8.6566455 13.880159,8.4963715 13.319178,8.4963715 12.869942,8.4963715 12.532399,8.7770185 12.252262,9.1169615 11.972123,9.4569055 11.723428,9.8994415 11.482304,10.416822 11.405421,10.581789 11.349042,10.829726 11.274254,11.00896 10.878673,10.909559 10.599744,10.74898 10.4225,10.575081 10.089127,10.247997 10.036632,9.9224845 10.036632,9.9224845 9.9552653,9.4469095 9.2871094,9.4080015 9.1510913,9.8709155 L 7.9757052,13.86474 C 6.9560025,13.529647 5.8486965,13.275528 4.5206746,13.325947 L 11.900179,5.9464421 C 11.907444,5.9386046 11.914532,5.9296356 11.921518,5.9215473 11.971232,5.8681594 11.992965,5.8433718 12.202472,5.8504195 12.411978,5.8574668 12.765854,5.9472498 13.176922,6.1420435 13.716195,6.3975897 14.348549,6.8310571 14.972898,7.3458806 L 17.398355,4.9186461 Z M 13.47388,9.3641305 C 13.824374,9.3340665 14.096659,9.7504215 14.338082,10.055849 13.821263,10.908046 12.987836,10.946299 12.223811,11.03919 12.434618,10.313907 12.797483,9.7097845 13.319178,9.4068075 13.3726,9.3827085 13.42381,9.3684255 13.47388,9.3641305 Z M 9.7290043,11.126321 C 9.7686255,11.172053 9.7385392,11.179393 9.7841283,11.224122 10.784306,12.198104 12.19881,12.358304 13.664147,11.750467 13.412864,12.409782 13.088656,13.239665 12.463867,14.576017 11.566526,16.141943 9.9650873,17.413344 8.1695283,17.250422 L 9.7290043,11.126321 Z"
     id="path4955"
     inkscape:connector-curvature="0" />
</svg>
