<?xml version="1.0" encoding="UTF-8" standalone="no"?>
<!-- Created with Inkscape (http://www.inkscape.org/) -->

<svg
   xmlns:dc="http://purl.org/dc/elements/1.1/"
   xmlns:cc="http://creativecommons.org/ns#"
   xmlns:rdf="http://www.w3.org/1999/02/22-rdf-syntax-ns#"
   xmlns:svg="http://www.w3.org/2000/svg"
   xmlns="http://www.w3.org/2000/svg"
   xmlns:sodipodi="http://sodipodi.sourceforge.net/DTD/sodipodi-0.dtd"
   xmlns:inkscape="http://www.inkscape.org/namespaces/inkscape"
   version="1.1"
   width="24"
   height="24"
   id="svg4460"
   inkscape:version="0.91 r13725"
   sodipodi:docname="x.svg">
  <sodipodi:namedview
     pagecolor="#ffffff"
     bordercolor="#666666"
     borderopacity="1"
     objecttolerance="10"
     gridtolerance="10"
     guidetolerance="10"
     inkscape:pageopacity="0"
     inkscape:pageshadow="2"
     inkscape:window-width="1280"
     inkscape:window-height="972"
     id="namedview11"
     showgrid="false"
     inkscape:zoom="13.906433"
     inkscape:cx="9.0268357"
     inkscape:cy="20.98295"
     inkscape:window-x="-8"
     inkscape:window-y="-8"
     inkscape:window-maximized="1"
     inkscape:current-layer="svg4460" />
  <defs
     id="defs4462" />
  <metadata
     id="metadata4465">
    <rdf:RDF>
      <cc:Work
         rdf:about="">
        <dc:format>image/svg+xml</dc:format>
        <dc:type
           rdf:resource="http://purl.org/dc/dcmitype/StillImage" />
        <dc:title></dc:title>
      </cc:Work>
    </rdf:RDF>
  </metadata>
  <path
     style="color:#000000;font-style:normal;font-variant:normal;font-weight:normal;font-stretch:normal;font-size:medium;line-height:normal;font-family:sans-serif;text-indent:0;text-align:start;text-decoration:none;text-decoration-line:none;text-decoration-style:solid;text-decoration-color:#000000;letter-spacing:normal;word-spacing:normal;text-transform:none;direction:ltr;block-progression:tb;writing-mode:lr-tb;baseline-shift:baseline;text-anchor:start;white-space:normal;clip-rule:nonzero;display:inline;overflow:visible;visibility:visible;opacity:1;isolation:auto;mix-blend-mode:normal;color-interpolation:sRGB;color-interpolation-filters:linearRGB;solid-color:#000000;solid-opacity:1;fill:#000000;fill-opacity:1;fill-rule:evenodd;stroke:none;stroke-width:1.04629898;stroke-linecap:round;stroke-linejoin:round;stroke-miterlimit:4;stroke-dasharray:none;stroke-dashoffset:0;stroke-opacity:1;color-rendering:auto;image-rendering:auto;shape-rendering:auto;text-rendering:auto;enable-background:accumulate"
     d="M 6.6953125 1.453125 A 0.52320181 0.52320181 0 0 0 6.2050781 1.8007812 C 5.3890074 4.0971639 3.5068176 5.6000629 0.93945312 6.7148438 A 0.52320181 0.52320181 0 0 0 0.9375 7.6738281 C 3.482829 8.7894763 5.9350927 9.8325817 7.4648438 11.875 C 5.9448868 13.815232 3.5947624 14.854842 1.0449219 15.818359 A 0.52320181 0.52320181 0 0 0 1.0214844 16.787109 C 3.7721675 17.992495 5.1498564 19.938956 6.5058594 22.056641 A 0.52320181 0.52320181 0 0 0 7.3964844 22.042969 C 8.7087131 19.848549 10.01442 17.770482 11.953125 16.40625 C 13.937981 17.64168 14.912319 20.042315 16.273438 22.294922 A 0.52320181 0.52320181 0 0 0 17.224609 22.171875 C 18.126142 19.11627 19.95134 17.424851 22.941406 16.90625 A 0.52320181 0.52320181 0 0 0 23.027344 15.896484 C 20.33477 14.946839 18.127672 13.65499 16.603516 11.851562 C 18.410167 10.121677 20.532819 8.6912381 22.919922 7.4980469 A 0.52320181 0.52320181 0 0 0 22.816406 6.5234375 C 19.492646 5.6699178 18.769053 3.6839661 17.310547 1.6699219 A 0.52320181 0.52320181 0 0 0 16.419922 1.7421875 C 15.246259 4.1012432 13.955783 6.2161594 12.142578 7.5644531 C 10.064666 6.2597346 8.6364607 4.0070606 7.1367188 1.6914062 A 0.52320181 0.52320181 0 0 0 6.6953125 1.453125 z "
     id="path4255" />
</svg>
