<?xml version="1.0" encoding="UTF-8" standalone="no"?>
<!-- Created with Inkscape (http://www.inkscape.org/) -->

<svg
   xmlns:dc="http://purl.org/dc/elements/1.1/"
   xmlns:cc="http://creativecommons.org/ns#"
   xmlns:rdf="http://www.w3.org/1999/02/22-rdf-syntax-ns#"
   xmlns:svg="http://www.w3.org/2000/svg"
   xmlns="http://www.w3.org/2000/svg"
   xmlns:sodipodi="http://sodipodi.sourceforge.net/DTD/sodipodi-0.dtd"
   xmlns:inkscape="http://www.inkscape.org/namespaces/inkscape"
   version="1.1"
   width="24"
   height="24"
   id="svg4460"
   inkscape:version="0.91 r13725"
   sodipodi:docname="palmier.svg">
  <sodipodi:namedview
     pagecolor="#ffffff"
     bordercolor="#666666"
     borderopacity="1"
     objecttolerance="10"
     gridtolerance="10"
     guidetolerance="10"
     inkscape:pageopacity="0"
     inkscape:pageshadow="2"
     inkscape:window-width="1280"
     inkscape:window-height="972"
     id="namedview11"
     showgrid="false"
     inkscape:zoom="9.8333333"
     inkscape:cx="-15.374117"
     inkscape:cy="5.300313"
     inkscape:window-x="-8"
     inkscape:window-y="-8"
     inkscape:window-maximized="1"
     inkscape:current-layer="svg4460"
     showguides="false" />
  <defs
     id="defs4462" />
  <metadata
     id="metadata4465">
    <rdf:RDF>
      <cc:Work
         rdf:about="">
        <dc:format>image/svg+xml</dc:format>
        <dc:type
           rdf:resource="http://purl.org/dc/dcmitype/StillImage" />
        <dc:title />
      </cc:Work>
    </rdf:RDF>
  </metadata>
  <path
     style="color:#000000;font-style:normal;font-variant:normal;font-weight:normal;font-stretch:normal;font-size:medium;line-height:normal;font-family:sans-serif;text-indent:0;text-align:start;text-decoration:none;text-decoration-line:none;text-decoration-style:solid;text-decoration-color:#000000;letter-spacing:normal;word-spacing:normal;text-transform:none;direction:ltr;block-progression:tb;writing-mode:lr-tb;baseline-shift:baseline;text-anchor:start;white-space:normal;clip-rule:nonzero;display:inline;overflow:visible;visibility:visible;opacity:1;isolation:auto;mix-blend-mode:normal;color-interpolation:sRGB;color-interpolation-filters:linearRGB;solid-color:#000000;solid-opacity:1;fill:#000000;fill-opacity:1;fill-rule:evenodd;stroke:none;stroke-width:1px;stroke-linecap:round;stroke-linejoin:round;stroke-miterlimit:4;stroke-dasharray:none;stroke-dashoffset:0;stroke-opacity:1;color-rendering:auto;image-rendering:auto;shape-rendering:auto;text-rendering:auto;enable-background:accumulate"
     d="M 8.6953125 0.005859375 C 7.5821477 0.048077675 6.7382812 0.33203125 6.7382812 0.33203125 L 6.1367188 0.51953125 L 7.3378906 2.3242188 C 7.2859501 2.3654162 7.2771565 2.3649396 7.2265625 2.4101562 C 7.1719622 2.4589534 7.1197399 2.5076612 7.0664062 2.5722656 C 7.0130723 2.6368699 6.9298907 2.6934819 6.9121094 2.9238281 C 6.9032188 3.0390012 6.954616 3.2191029 7.0605469 3.3242188 C 7.1664777 3.4293348 7.2756682 3.4577038 7.3515625 3.4707031 C 7.5033512 3.4967016 7.5890685 3.4755977 7.6992188 3.453125 C 7.6243254 3.4684047 7.67234 3.452434 7.7597656 3.4863281 C 7.8471909 3.5202221 7.9756611 3.5863704 8.1152344 3.6738281 C 8.27089 3.771363 8.4415715 3.8952924 8.6113281 4.0292969 C 8.4278323 4.0069411 8.2419415 3.994896 8.0546875 3.9960938 C 5.1693052 4.0145449 3.4472656 7.1425781 3.4472656 7.1425781 L 3.1328125 7.6894531 L 5.2363281 8.2011719 C 5.2260547 8.2661954 5.2194976 8.2728341 5.2128906 8.3398438 C 5.2057054 8.4127184 5.2006352 8.4847025 5.2050781 8.5683594 C 5.2095212 8.6520162 5.1853568 8.7500008 5.328125 8.9316406 C 5.399509 9.0224605 5.5618132 9.1212314 5.7109375 9.1269531 C 5.8600617 9.1326748 5.9568065 9.0808437 6.0214844 9.0390625 C 6.1508402 8.9554998 6.2016786 8.8801412 6.2675781 8.7890625 C 6.2227716 8.8509888 6.2466776 8.8076358 6.3339844 8.7734375 C 6.4212913 8.739239 6.5587558 8.7019187 6.7207031 8.671875 C 7.0445978 8.6117876 7.4647665 8.5774888 7.8417969 8.5742188 C 7.9517352 8.5732653 7.9908675 8.5873227 8.0917969 8.5917969 C 7.9495102 8.8508248 7.8718039 9.1267506 7.8535156 9.3613281 C 7.8190843 9.8029665 7.9101562 10.169922 7.9101562 10.169922 L 8.1347656 11.101562 L 8.7363281 10.355469 C 8.7363281 10.355469 8.8705099 10.177139 9.5429688 9.7070312 C 10.154202 9.2797254 11.212539 8.6392038 12.873047 7.8203125 C 12.515119 8.1462542 9.4519183 10.988593 7.7265625 14.535156 C 6.008046 18.067662 6.7347319 21.944632 6.9238281 22.800781 L 6.6777344 22.914062 L 6.2167969 22.054688 A 0.47218579 0.47218579 0 0 0 5.6132812 21.847656 L 4.3964844 22.380859 L 4.0488281 21.972656 A 0.47218579 0.47218579 0 0 0 3.6699219 21.808594 A 0.47218579 0.47218579 0 0 0 3.3730469 21.927734 L 2.4121094 22.792969 A 0.47273806 0.47273806 0 1 0 3.0449219 23.496094 L 3.6445312 22.953125 L 3.90625 23.259766 A 0.47218579 0.47218579 0 0 0 4.4550781 23.384766 L 5.5917969 22.886719 L 6.0585938 23.751953 A 0.47218579 0.47218579 0 0 0 6.671875 23.957031 L 8.8515625 22.951172 L 9.3867188 23.552734 A 0.47218579 0.47218579 0 0 0 9.8417969 23.701172 L 12.232422 23.169922 L 13.021484 23.722656 A 0.47218579 0.47218579 0 0 0 13.441406 23.783203 L 15.457031 23.113281 A 0.47240539 0.47240539 0 1 0 15.158203 22.216797 L 13.367188 22.814453 L 12.601562 22.277344 A 0.47218579 0.47218579 0 0 0 12.230469 22.203125 L 10.367188 22.617188 A 0.47218579 0.47218579 0 0 0 10.310547 22.492188 C 10.310547 22.492188 8.1408685 19.025433 9.6269531 15.970703 C 10.607163 13.955828 12.056894 11.947761 13.113281 10.580078 C 12.782072 11.517167 12.49129 12.21405 12.269531 12.671875 C 11.911855 13.4103 11.755859 13.570312 11.755859 13.570312 L 11.113281 14.283203 L 12.070312 14.355469 C 12.070312 14.355469 12.446341 14.387145 12.876953 14.283203 C 13.105805 14.227963 13.366292 14.111394 13.599609 13.929688 C 13.619978 14.02851 13.641756 14.065288 13.658203 14.173828 C 13.714684 14.546618 13.746313 14.965598 13.738281 15.294922 C 13.734265 15.459583 13.71916 15.601737 13.699219 15.693359 C 13.67928 15.784979 13.63931 15.815768 13.693359 15.761719 C 13.613867 15.841212 13.548349 15.900059 13.486328 16.041016 C 13.455317 16.111495 13.419952 16.218899 13.449219 16.365234 C 13.478486 16.511571 13.59824 16.652884 13.699219 16.708984 C 13.901178 16.821183 13.996774 16.784253 14.080078 16.775391 C 14.163383 16.766529 14.231917 16.749105 14.302734 16.730469 C 14.367689 16.713376 14.373112 16.705935 14.435547 16.685547 L 15.277344 18.681641 L 15.765625 18.283203 C 15.765625 18.283203 18.58133 16.09017 18.142578 13.238281 C 18.102209 12.975888 18.031585 12.723867 17.947266 12.476562 C 18.020956 12.545113 18.100153 12.616587 18.162109 12.681641 C 18.275703 12.800914 18.367283 12.911348 18.417969 12.990234 C 18.468656 13.069119 18.458984 13.119405 18.458984 13.042969 C 18.458984 13.155388 18.457856 13.245144 18.513672 13.388672 C 18.541581 13.460435 18.590674 13.561751 18.714844 13.644531 C 18.839014 13.727311 19.025647 13.740719 19.136719 13.708984 C 19.358862 13.645515 19.39658 13.5515 19.449219 13.486328 C 19.501858 13.421156 19.541228 13.360128 19.578125 13.296875 C 19.611786 13.23917 19.609072 13.230144 19.638672 13.171875 L 21.646484 13.988281 L 21.710938 13.361328 C 21.710938 13.361328 22.1491 9.8196261 19.822266 8.1132812 C 18.667285 7.2662945 17.156032 7.0723758 15.935547 7.0546875 C 15.295139 7.0454063 14.751243 7.0863333 14.355469 7.1308594 L 14.353516 6.8984375 C 14.353516 6.8984375 14.335528 5.922783 14.074219 4.7304688 C 13.81291 3.5381544 13.320541 2.0971189 12.259766 1.1347656 C 11.191245 0.16538221 9.8084783 -0.036359025 8.6953125 0.005859375 z "
     id="path4135" />
</svg>
