<?xml version="1.0" encoding="UTF-8" standalone="no"?>
<!-- Created with Inkscape (http://www.inkscape.org/) -->

<svg
   xmlns:dc="http://purl.org/dc/elements/1.1/"
   xmlns:cc="http://creativecommons.org/ns#"
   xmlns:rdf="http://www.w3.org/1999/02/22-rdf-syntax-ns#"
   xmlns:svg="http://www.w3.org/2000/svg"
   xmlns="http://www.w3.org/2000/svg"
   xmlns:sodipodi="http://sodipodi.sourceforge.net/DTD/sodipodi-0.dtd"
   xmlns:inkscape="http://www.inkscape.org/namespaces/inkscape"
   version="1.1"
   width="24"
   height="24"
   id="svg4460"
   inkscape:version="0.91 r13725"
   sodipodi:docname="carte.svg">
  <sodipodi:namedview
     pagecolor="#ffffff"
     bordercolor="#666666"
     borderopacity="1"
     objecttolerance="10"
     gridtolerance="10"
     guidetolerance="10"
     inkscape:pageopacity="0"
     inkscape:pageshadow="2"
     inkscape:window-width="1280"
     inkscape:window-height="972"
     id="namedview11"
     showgrid="false"
     inkscape:zoom="32"
     inkscape:cx="11.856909"
     inkscape:cy="1.1556167"
     inkscape:window-x="-8"
     inkscape:window-y="-8"
     inkscape:window-maximized="1"
     inkscape:current-layer="svg4460" />
  <defs
     id="defs4462" />
  <metadata
     id="metadata4465">
    <rdf:RDF>
      <cc:Work
         rdf:about="">
        <dc:format>image/svg+xml</dc:format>
        <dc:type
           rdf:resource="http://purl.org/dc/dcmitype/StillImage" />
        <dc:title></dc:title>
      </cc:Work>
    </rdf:RDF>
  </metadata>
  <path
     style="color:#000000;font-style:normal;font-variant:normal;font-weight:normal;font-stretch:normal;font-size:medium;line-height:normal;font-family:sans-serif;text-indent:0;text-align:start;text-decoration:none;text-decoration-line:none;text-decoration-style:solid;text-decoration-color:#000000;letter-spacing:normal;word-spacing:normal;text-transform:none;direction:ltr;block-progression:tb;writing-mode:lr-tb;baseline-shift:baseline;text-anchor:start;white-space:normal;clip-rule:nonzero;display:inline;overflow:visible;visibility:visible;opacity:1;isolation:auto;mix-blend-mode:normal;color-interpolation:sRGB;color-interpolation-filters:linearRGB;solid-color:#000000;solid-opacity:1;fill:#000000;fill-opacity:1;fill-rule:evenodd;stroke:none;stroke-width:1.5;stroke-linecap:round;stroke-linejoin:round;stroke-miterlimit:4;stroke-dasharray:none;stroke-dashoffset:0;stroke-opacity:1;color-rendering:auto;image-rendering:auto;shape-rendering:auto;text-rendering:auto;enable-background:accumulate"
     d="M 7.171875,0.09179687 C 3.84569,1.4108012 1.8614296,5.4120906 3.2636719,11.085938 3.3914541,11.602979 4.304177,12.3156 4.3552985,12.791537 4.4064201,13.267474 3.5959403,13.506725 3.5851388,13.939936 3.5635357,14.806356 3.4328239,15.585702 3.2519531,16.271484 L 1.5546875,15.869141 C 0.95994822,16.559481 0.41128716,17.206649 0.12304688,17.894531 -0.08018872,18.40109 -0.19274295,19.010792 0.08203125,19.582031 4.6985563,22.482894 12.553429,23.908739 17.206361,23.951669 17.895304,23.9641 18.136462,23.841779 18.373047,23.328125 18.455243,23.153986 18.548778,22.926678 18.650391,22.638672 18.853615,22.062661 19.088095,21.254296 19.263672,20.283203 19.439249,19.31211 19.557646,18.177756 19.519484,16.961995 19.500403,16.354114 17.958907,15.877631 18.002079,15.231347 18.032975,14.768845 19.298699,14.097492 18.835938,13.152344 17.760444,10.955742 18.082089,9.2598273 18.708984,7.9101562 19.33588,6.5604852 20.626639,5.3704566 22.511719,4.1054688 23.068413,3.7298755 22.888884,2.8681326 22.228516,2.7460938 L 7.5839844,0.05078125 C 7.4428938,0.0048098 7.2990484,0.04827857 7.171875,0.09179687 Z M 7.5878906,1.5761719 20.330078,3.921875 C 19.046835,4.9313999 17.951158,5.9822425 17.349609,7.2773438 16.538133,9.0244063 16.535172,10.81676 17.417969,13.356894 17.61406,13.921122 16.02935,14.850401 16.125714,15.415267 16.222078,15.980132 17.927609,16.755858 17.94472,17.300614 17.978944,18.390126 17.947046,19.131034 17.787109,20.015625 17.627172,20.900215 17.475137,21.656527 17.236328,22.140625 17.004702,22.502381 16.409458,22.193209 16.201172,21.441406 15.969042,20.488432 16.078414,19.986854 16.597656,19.285156 12.642578,18.941616 8.6874999,18.132168 4.7324219,16.623047 4.9402192,15.886008 5.0894015,15.460806 5.1103344,14.479676 5.1208008,13.989111 5.9261602,13.934838 5.8637976,13.38143 5.801435,12.828022 4.8713503,11.344026 4.71875,10.726562 3.4552545,5.6141048 5.1013495,2.6536488 7.5878906,1.5761719 Z M 9.1191406,2.0898438 7.9726562,3.0546875 C 7.4958503,3.0590332 7.0329697,3.2899985 6.7265625,3.6523438 L 5.6757812,3.8789062 6.3242188,4.5683594 C 6.2573631,5.0878465 6.4409823,5.6402867 6.8300781,5.9960938 L 6.7089844,7.4394531 7.7441406,6.3984375 C 8.269388,6.4443664 8.8012622,6.205301 9.1386719,5.8046875 L 10.039062,5.6835938 9.5410156,4.8886719 C 9.6078713,4.3691851 9.4242517,3.8167443 9.0351562,3.4609375 Z M 8.0390625,4.046875 C 8.0980977,4.0523699 8.155564,4.0668019 8.2109375,4.0917969 8.5698441,4.2440241 8.6585235,4.7302261 8.4648438,5.0449219 8.3062867,5.3709044 7.8492796,5.5356426 7.546875,5.3046875 7.1951053,5.0509165 7.2403859,4.4907919 7.5488281,4.2207031 7.6787857,4.0979063 7.8619568,4.0303902 8.0390625,4.046875 Z M 12.628906,6.1464844 11.775391,6.6660156 12.498047,7.8535156 11.416016,8.4023438 11.869141,9.2929688 13.017578,8.7089844 13.910156,10.175781 14.765625,9.65625 13.912109,8.2558594 15.275391,7.5644531 14.824219,6.6738281 13.392578,7.4003906 Z M 10.314453,8.15625 9.8496094,8.2597656 C 9.2803871,8.429345 8.7375319,8.7121897 8.3066406,9.125 L 8.984375,9.859375 C 9.405258,9.4564099 9.9641262,9.2282644 10.533203,9.1328125 Z M 7.6054688,10.027344 7.3847656,10.408203 C 7.2600288,10.736118 7.1432361,11.07783 7.0664062,11.419922 L 6.9902344,12.121094 7.984375,12.228516 C 8.0207605,11.842553 8.0524517,11.455587 8.203125,11.09375 8.2468147,10.884696 8.3647313,10.708787 8.4707031,10.527344 Z M 8.0488281,13.027344 7.0898438,13.308594 C 7.2103896,13.716956 7.3066806,14.134669 7.53125,14.501953 7.6471626,14.777538 7.822588,15.017452 8,15.255859 L 8.8144531,14.673828 C 8.5552336,14.337768 8.3470538,13.958356 8.2070312,13.558594 Z M 9.4042969,15.273438 8.8066406,16.076172 C 9.3626767,16.52086 10.01888,16.814489 10.677734,17.072266 L 11.052734,16.146484 C 10.474135,15.917103 9.891865,15.667992 9.4042969,15.273438 Z M 11.992188,16.541016 11.582031,17.453125 C 12.096192,17.686861 12.596819,18.011085 12.90625,18.494141 L 13.748047,17.955078 C 13.567548,17.649836 13.306812,17.393885 13.035156,17.169922 12.718464,16.912879 12.36353,16.707862 11.992188,16.541016 Z"
     id="path4293"
     inkscape:connector-curvature="0"
     sodipodi:nodetypes="csssccccccssssssccccccsssssccccsssccccccccccccccsccccsccccccccccccccccccccccccccccccccccccccccccccc" />
</svg>
