<?xml version="1.0" encoding="UTF-8" standalone="no"?>
<!-- Created with Inkscape (http://www.inkscape.org/) -->

<svg
   xmlns:dc="http://purl.org/dc/elements/1.1/"
   xmlns:cc="http://creativecommons.org/ns#"
   xmlns:rdf="http://www.w3.org/1999/02/22-rdf-syntax-ns#"
   xmlns:svg="http://www.w3.org/2000/svg"
   xmlns="http://www.w3.org/2000/svg"
   xmlns:sodipodi="http://sodipodi.sourceforge.net/DTD/sodipodi-0.dtd"
   xmlns:inkscape="http://www.inkscape.org/namespaces/inkscape"
   version="1.0"
   width="580"
   height="580"
   id="svg2"
   sodipodi:version="0.32"
   inkscape:version="0.91 r13725"
   sodipodi:docname="gym2.svg"
   inkscape:output_extension="org.inkscape.output.svg.inkscape">
  <metadata
     id="metadata2975">
    <rdf:RDF>
      <cc:Work
         rdf:about="">
        <dc:format>image/svg+xml</dc:format>
        <dc:type
           rdf:resource="http://purl.org/dc/dcmitype/StillImage" />
        <cc:license
           rdf:resource="http://web.resource.org/cc/PublicDomain" />
        <dc:language>en</dc:language>
        <dc:title></dc:title>
      </cc:Work>
    </rdf:RDF>
  </metadata>
  <sodipodi:namedview
     inkscape:window-height="1005"
     inkscape:window-width="1280"
     inkscape:pageshadow="2"
     inkscape:pageopacity="0.0"
     guidetolerance="10.0"
     gridtolerance="10.0"
     objecttolerance="10.0"
     borderopacity="1.0"
     bordercolor="#666666"
     pagecolor="#ffffff"
     id="base"
     inkscape:zoom="0.46083856"
     inkscape:cx="221.8397"
     inkscape:cy="192.09704"
     inkscape:window-x="-4"
     inkscape:window-y="-4"
     inkscape:current-layer="svg2"
     showgrid="false"
     inkscape:window-maximized="0" />
  <defs
     id="defs4">
    <inkscape:perspective
       sodipodi:type="inkscape:persp3d"
       inkscape:vp_x="0 : 290 : 1"
       inkscape:vp_y="0 : 1000 : 0"
       inkscape:vp_z="580 : 290 : 1"
       inkscape:persp3d-origin="290 : 193.33333 : 1"
       id="perspective10" />
  </defs>
  <path
     inkscape:connector-curvature="0"
     style="fill:#000080"
     d="M 337.32031,27.743165 C 313.01979,27.743165 293.32031,47.442635 293.32031,71.743165 293.32031,96.043685 313.01979,115.74316 337.32031,115.74316 361.62085,115.74316 381.32032,96.043685 381.32032,71.743165 381.32032,47.442635 361.62085,27.743165 337.32031,27.743165 Z M 256.2832,115.31932 C 253.91039,115.24746 251.48601,115.63462 249.13477,116.53612 L 203.60546,134.61816 C 202.64447,134.83016 201.68718,135.09763 200.74218,135.47363 195.95018,137.37763 192.40659,141.06858 190.5586,145.47558 188.62459,149.84258 188.37238,154.95221 190.27539,159.74121 190.65039,160.68521 191.11118,161.56518 191.61718,162.40918 L 209.71875,207.93261 C 213.55174,217.24761 224.16674,221.77785 233.55273,218.04785 242.93873,214.31885 247.55036,203.737 243.94335,194.33301 L 231.56445,163.15722 262.73437,150.76269 C 272.04937,146.92969 276.57961,136.31571 272.8496,126.9287 270.05286,119.88845 263.40165,115.5349 256.2832,115.31932 Z M 310.21093,119.56347 C 301.98901,119.48379 294.13029,124.21355 290.58204,132.1748 L 179.58593,389.51661 C 174.93594,400.2986 179.90746,412.809 190.68945,417.458 201.47145,422.108 213.98086,417.13749 218.63085,406.3545 L 315.46679,181.78222 327.47852,203.24903 C 327.80252,204.14103 328.1831,205.02193 328.6621,205.87793 331.09611,210.22494 335.08406,213.1465 339.53906,214.35449 343.96706,215.64949 348.88846,215.24157 353.23046,212.80957 354.08546,212.33057 354.87223,211.77752 355.61523,211.18653 L 396.90234,188.05566 C 405.33334,183.20166 408.31879,172.46125 403.55079,163.94824 398.78579,155.43725 388.06749,152.3646 379.52148,157.0166 L 351.24804,172.83886 330.70117,136.14355 C 329.25317,129.74655 324.89321,124.10265 318.4082,121.30566 315.7332,120.15191 312.95157,119.59004 310.21093,119.56347 Z M 303.19727,264.03027 C 299.79662,264.1279 296.36953,265.0452 293.21485,266.86425 283.12085,272.68326 279.61779,285.53295 285.30079,295.66894 L 304.62695,329.20215 271.10352,348.542 C 261.10751,354.46899 257.70243,367.34248 263.52343,377.43848 269.34343,387.53347 282.19308,391.03655 292.33008,385.35254 L 341.30468,357.12793 C 342.36568,356.72694 343.41273,356.25981 344.42773,355.6748 349.57873,352.7038 353.00972,347.90243 354.38671,342.56543 355.86871,337.25743 355.30693,331.38154 352.33593,326.22754 351.75094,325.21254 351.07542,324.28332 350.35742,323.40332 L 322.11133,274.44434 C 318.03651,267.57139 310.67869,263.81549 303.19727,264.03027 Z M 429.5,388.917 C 422.91899,388.91599 417.46254,389.68097 416.43555,389.83496 L 416.11523,389.88379 114.48632,441.81738 C 87.999335,446.67939 68.830075,469.70892 68.830075,496.58691 68.830075,527.28291 93.804005,552.25684 124.5,552.25684 L 429.5,552.25684 C 474.533,552.25684 511.16993,515.61991 511.16993,470.58691 511.16993,425.55391 474.533,388.917 429.5,388.917 Z M 429.5,402.91504 C 466.81299,402.91504 497.16993,433.27097 497.16993,470.58496 497.16993,488.62797 490.12121,505.61218 477.32421,518.40918 464.52721,531.20618 447.543,538.25488 429.5,538.25488 L 124.5,538.25488 C 101.523,538.25488 82.830075,519.56196 82.830075,496.58496 82.830075,476.46496 97.174505,459.22858 116.9375,455.60059 116.9375,455.60059 418.26702,403.71933 418.41602,403.69434 418.46001,403.68633 418.50585,403.67871 418.50585,403.67871 419.02985,403.60072 423.79099,402.91504 429.5,402.91504 Z M 429.5,411.58496 C 396.9152,411.58496 370.5,438.00017 370.5,470.58496 370.5,503.16976 396.9152,529.58496 429.5,529.58496 462.08479,529.58496 488.5,503.16976 488.5,470.58496 488.5,438.00017 462.08479,411.58496 429.5,411.58496 Z M 124.5,463.58496 C 106.2746,463.58496 91.500005,478.35956 91.500005,496.58496 91.500005,514.81037 106.2746,529.58496 124.5,529.58496 142.72539,529.58496 157.5,514.81037 157.5,496.58496 157.5,478.35956 142.72539,463.58496 124.5,463.58496 Z"
     id="path4147" />
</svg>
