<?xml version="1.0" encoding="UTF-8" standalone="no"?>
<!-- Created with Inkscape (http://www.inkscape.org/) -->

<svg
   xmlns:dc="http://purl.org/dc/elements/1.1/"
   xmlns:cc="http://creativecommons.org/ns#"
   xmlns:rdf="http://www.w3.org/1999/02/22-rdf-syntax-ns#"
   xmlns:svg="http://www.w3.org/2000/svg"
   xmlns="http://www.w3.org/2000/svg"
   xmlns:sodipodi="http://sodipodi.sourceforge.net/DTD/sodipodi-0.dtd"
   xmlns:inkscape="http://www.inkscape.org/namespaces/inkscape"
   version="1.0"
   width="580"
   height="580"
   id="svg2"
   sodipodi:version="0.32"
   inkscape:version="0.91 r13725"
   sodipodi:docname="snooker.svg">
  <metadata
     id="metadata3108">
    <rdf:RDF>
      <cc:Work
         rdf:about="">
        <dc:format>image/svg+xml</dc:format>
        <dc:type
           rdf:resource="http://purl.org/dc/dcmitype/StillImage" />
        <cc:license
           rdf:resource="http://web.resource.org/cc/PublicDomain" />
        <dc:language>en</dc:language>
      </cc:Work>
    </rdf:RDF>
  </metadata>
  <sodipodi:namedview
     inkscape:window-height="1005"
     inkscape:window-width="1277"
     inkscape:pageshadow="2"
     inkscape:pageopacity="0.0"
     guidetolerance="10.0"
     gridtolerance="10.0"
     objecttolerance="10.0"
     borderopacity="1.0"
     bordercolor="#666666"
     pagecolor="#ffffff"
     id="base"
     inkscape:zoom="0.92167711"
     inkscape:cx="121.82831"
     inkscape:cy="290"
     inkscape:window-x="0"
     inkscape:window-y="0"
     inkscape:current-layer="svg2"
     showgrid="false"
     inkscape:window-maximized="0" />
  <defs
     id="defs4" />
  <path
     style="fill:#000080"
     d="M 286 56.580078 C 267.39382 56.580078 252.31055 71.663351 252.31055 90.269531 C 252.31055 108.87571 267.39382 123.95898 286 123.95898 C 304.60618 123.95898 319.68945 108.87571 319.68945 90.269531 C 319.68945 71.663351 304.60618 56.580078 286 56.580078 z M 287.68555 143.74219 C 268.58651 143.90126 250.02216 153.86256 239.82227 171.5293 C 232.9631 183.40973 229.91985 191.37171 224.125 201.49219 A 7.8807152 7.8807152 0 0 0 224.04102 201.64453 L 167.23633 306.13477 L 98.53125 417.35742 A 7.8807152 7.8807152 0 0 0 98.482422 417.4375 C 92.488471 427.40554 83.361328 439.01841 83.361328 455.26758 C 83.361328 486.31585 110.05917 513.01367 141.10742 513.01367 C 153.92393 513.01367 162.32661 513.92943 174.99414 513.72656 C 174.9978 513.7265 175.00024 513.72662 175.00391 513.72656 L 318.80469 513.47656 L 424.71484 514.87305 A 7.8807152 7.8807152 0 0 0 424.79297 514.87305 C 437.1727 514.91415 451.50523 514.7435 465.00195 506.95117 C 491.52796 491.63637 500.68393 457.46545 485.36914 430.93945 C 478.77725 419.52197 473.5714 410.82127 467.29102 400.40234 L 467.27734 400.37891 L 412.21484 304.53125 L 342.98828 183.08789 A 7.8807152 7.8807152 0 0 0 342.98438 183.08398 C 336.91508 172.45774 329.60873 159.11498 315.83398 151.16211 C 307.54461 146.37624 298.50895 143.98092 289.53516 143.75781 C 288.91821 143.74247 288.30164 143.73706 287.68555 143.74219 z M 288.09766 159.42969 C 294.83791 159.44888 301.67432 161.18435 307.95508 164.81055 C 317.01397 170.04071 323.2404 180.29122 329.29883 190.89844 L 398.52344 312.33594 A 7.8807152 7.8807152 0 0 0 398.53711 312.35938 L 453.625 408.25391 A 7.8807152 7.8807152 0 0 0 453.70898 408.39648 C 460.01347 418.85475 465.16029 427.45736 471.7207 438.82031 C 482.77196 457.96166 476.26244 482.25147 457.12109 493.30273 C 447.78414 498.69342 436.91673 499.15336 424.84375 499.11328 L 318.95312 497.71875 A 7.8807152 7.8807152 0 0 0 318.83594 497.7168 L 174.86328 497.9668 A 7.8807152 7.8807152 0 0 0 174.75 497.96875 C 162.97396 498.1579 154.65329 497.25391 141.10742 497.25391 C 119.42359 497.25391 99.121094 476.95143 99.121094 455.26758 C 99.121094 445.1507 105.38301 436.54653 111.99023 425.55859 L 180.75781 314.23242 A 7.8807152 7.8807152 0 0 0 180.97852 313.85352 L 237.88672 209.17188 C 244.18057 198.1551 247.17688 190.31137 253.4707 179.41016 C 260.37775 167.44681 272.45585 160.41652 285.2168 159.52539 C 286.17387 159.45856 287.13476 159.42695 288.09766 159.42969 z M 288 170.95508 C 269.39382 170.95508 254.31055 186.0403 254.31055 204.64648 C 254.31055 223.25266 269.39382 238.33594 288 238.33594 C 306.60618 238.33594 321.68945 223.25266 321.68945 204.64648 C 321.68945 186.0403 306.60618 170.95508 288 170.95508 z M 251.3457 232.19336 C 232.73952 232.19336 217.65625 247.27663 217.65625 265.88281 C 217.65625 284.48899 232.73952 299.57227 251.3457 299.57227 C 269.95188 299.57227 285.03516 284.48899 285.03516 265.88281 C 285.03516 247.27663 269.95188 232.19336 251.3457 232.19336 z M 323.72461 232.19336 C 305.11842 232.19336 290.03516 247.27662 290.03516 265.88281 C 290.03516 284.489 305.11843 299.57227 323.72461 299.57227 C 342.33079 299.57227 357.41406 284.48899 357.41406 265.88281 C 357.41406 247.27663 342.3308 232.19336 323.72461 232.19336 z M 215.62109 294.50195 C 197.01491 294.50195 181.93164 309.58523 181.93164 328.19141 C 181.93164 346.79759 197.01491 361.88086 215.62109 361.88086 C 234.22727 361.88086 249.31055 346.79759 249.31055 328.19141 C 249.31055 309.58523 234.22727 294.50195 215.62109 294.50195 z M 288 294.50195 C 269.39382 294.50195 254.31055 309.58523 254.31055 328.19141 C 254.31055 346.79759 269.39382 361.88086 288 361.88086 C 306.60618 361.88086 321.68945 346.79759 321.68945 328.19141 C 321.68945 309.58523 306.60618 294.50195 288 294.50195 z M 360.37891 294.50195 C 341.77273 294.50195 326.68945 309.58523 326.68945 328.19141 C 326.68945 346.79759 341.77273 361.88086 360.37891 361.88086 C 378.98509 361.88086 394.06836 346.79759 394.06836 328.19141 C 394.06836 309.58523 378.98509 294.50195 360.37891 294.50195 z M 178.99805 357.41211 C 160.39187 357.41211 145.30859 372.49538 145.30859 391.10156 C 145.30859 409.70774 160.39187 424.79102 178.99805 424.79102 C 197.60423 424.79102 212.6875 409.70774 212.6875 391.10156 C 212.6875 372.49538 197.60423 357.41211 178.99805 357.41211 z M 251.37695 357.41211 C 232.77076 357.41211 217.6875 372.49538 217.6875 391.10156 C 217.6875 409.70774 232.77077 424.79102 251.37695 424.79102 C 269.98313 424.79102 285.06641 409.70775 285.06641 391.10156 C 285.06641 372.49537 269.98314 357.41211 251.37695 357.41211 z M 323.75586 357.41211 C 305.14968 357.41211 290.06641 372.49538 290.06641 391.10156 C 290.06641 409.70774 305.14968 424.79102 323.75586 424.79102 C 342.36204 424.79102 357.44531 409.70774 357.44531 391.10156 C 357.44531 372.49538 342.36204 357.41211 323.75586 357.41211 z M 396.13477 357.41211 C 377.52859 357.41211 362.44531 372.49538 362.44531 391.10156 C 362.44531 409.70774 377.52859 424.79102 396.13477 424.79102 C 414.74095 424.79102 429.82422 409.70774 429.82422 391.10156 C 429.82422 372.49538 414.74095 357.41211 396.13477 357.41211 z M 143.87305 421.25195 C 125.26687 421.25195 110.18359 436.33523 110.18359 454.94141 C 110.18359 473.54759 125.26687 488.63086 143.87305 488.63086 C 162.47923 488.63086 177.5625 473.54759 177.5625 454.94141 C 177.5625 436.33523 162.47923 421.25195 143.87305 421.25195 z M 216.25195 421.25195 C 197.64577 421.25195 182.5625 436.33523 182.5625 454.94141 C 182.5625 473.54759 197.64577 488.63086 216.25195 488.63086 C 234.85813 488.63086 249.94141 473.54759 249.94141 454.94141 C 249.94141 436.33523 234.85813 421.25195 216.25195 421.25195 z M 288.63086 421.25195 C 270.02468 421.25195 254.94141 436.33523 254.94141 454.94141 C 254.94141 473.54759 270.02468 488.63086 288.63086 488.63086 C 307.23704 488.63086 322.32031 473.54759 322.32031 454.94141 C 322.32031 436.33523 307.23704 421.25195 288.63086 421.25195 z M 361.00977 421.25195 C 342.40359 421.25195 327.32031 436.33522 327.32031 454.94141 C 327.32031 473.5476 342.40358 488.63086 361.00977 488.63086 C 379.61596 488.63086 394.69922 473.54759 394.69922 454.94141 C 394.69922 436.33523 379.61595 421.25195 361.00977 421.25195 z M 433.38867 421.25195 C 414.78249 421.25195 399.69922 436.33523 399.69922 454.94141 C 399.69922 473.54759 414.78248 488.63086 433.38867 488.63086 C 451.99486 488.63086 467.07812 473.5476 467.07812 454.94141 C 467.07812 436.33522 451.99485 421.25195 433.38867 421.25195 z "
     id="circle3152" />
</svg>
