<?xml version="1.0" encoding="UTF-8" standalone="no"?>
<svg
   xmlns:dc="http://purl.org/dc/elements/1.1/"
   xmlns:cc="http://creativecommons.org/ns#"
   xmlns:rdf="http://www.w3.org/1999/02/22-rdf-syntax-ns#"
   xmlns:svg="http://www.w3.org/2000/svg"
   xmlns="http://www.w3.org/2000/svg"
   id="svg2"
   height="580"
   width="580"
   version="1.0">
  <metadata
     id="metadata2975">
    <rdf:RDF>
      <cc:Work
         rdf:about="">
        <dc:format>image/svg+xml</dc:format>
        <dc:type
           rdf:resource="http://purl.org/dc/dcmitype/StillImage" />
        <cc:license
           rdf:resource="http://web.resource.org/cc/PublicDomain" />
        <dc:language>en</dc:language>
        <dc:title></dc:title>
      </cc:Work>
    </rdf:RDF>
  </metadata>
  <defs
     id="defs4">
    <symbol
       id="symbol-university"
       viewBox="244.5 110 489 219.9">
      <path
         d="M79,43l57,119c0,0,21-96,104-96s124,106,124,106l43-133l82-17L0,17L79,43z"
         id="path4460" />
      <path
         fill="none"
         stroke="#000000"
         stroke-width="20"
         d="M94,176l-21,39"
         id="path4462" />
      <path
         d="M300,19c0,10.5-22.6,19-50.5,19S199,29.5,199,19s22.6-19,50.5-19S300,8.5,300,19z"
         id="path4464" />
      <path
         ill="none"
         stroke="#000000"
         stroke-width="20"
         d="M112,216l-16-38L64,88c0,0-9-8-4-35s16-24,16-24"
         id="path4466" />
    </symbol>
  </defs>
  <g
     transform="matrix(48.14969,0,0,48.14969,-536.27327,-33.306752)"
     style="display:none;stroke:#757575;stroke-opacity:1"
     id="layer3">
    <rect
       y="1"
       x="1"
       height="10"
       width="10"
       id="rect4134"
       style="fill:none;stroke:#757575;stroke-width:0.10000000000000001;stroke-miterlimit:4;stroke-dasharray:none;stroke-opacity:1;display:inline" />
    <rect
       y="2"
       x="2"
       height="8"
       width="8"
       id="rect4136"
       style="fill:none;stroke:#757575;stroke-width:0.10000000000000001;stroke-miterlimit:4;stroke-dasharray:none;stroke-opacity:1;display:inline" />
  </g>
  <path
     id="circle2441"
     d="M 119.88904,118.84497 C 70.923685,165.5837 92.695355,244.38565 140.39686,292.08715 188.09836,339.78865 232.29675,355.35686 277.48475,337.18286 296.08975,343.54886 327.589,356.51121 358.016,379.12621 357,383.92521 358.34759,389.12187 362.07459,392.84887 L 452.58436,483.35864 C 458.44136,489.21664 470.86825,486.28909 473.79725,483.36059 476.72625,480.43209 481.47617,475.68412 484.40467,472.75512 487.33317,469.82612 490.26167,457.39928 484.40467,451.54028 L 393.8949,361.03247 C 390.1679,357.30547 384.97125,355.95987 380.17225,356.97387 357.46325,326.41887 344.48876,294.78715 338.15076,276.21215 355.81276,231.30415 339.07287,183.03499 293.13123,139.35083 247.18959,95.666661 168.85439,72.106251 119.88904,118.84497 Z M 325.57654,295.60082 C 332.45254,312.25882 341.157,331.10587 352.016,350.97387 332.159,340.11987 313.32034,331.41714 296.66834,324.54614 307.4781,315.48569 317.15391,305.77965 325.57654,295.60082 Z M 179.60975,382.62036 C 151.69397,382.62036 129.06287,405.2495 129.06287,433.16528 129.06287,461.08106 151.69397,483.71215 179.60975,483.71215 207.52553,483.71215 230.15467,461.08106 230.15467,433.16528 230.15467,405.2495 207.52553,382.62036 179.60975,382.62036 Z"
     style="fill:#000080" />
</svg>
