<?xml version="1.0" encoding="UTF-8" standalone="no"?>
<!-- Created with Inkscape (http://www.inkscape.org/) -->

<svg
   xmlns:dc="http://purl.org/dc/elements/1.1/"
   xmlns:cc="http://creativecommons.org/ns#"
   xmlns:rdf="http://www.w3.org/1999/02/22-rdf-syntax-ns#"
   xmlns:svg="http://www.w3.org/2000/svg"
   xmlns="http://www.w3.org/2000/svg"
   xmlns:sodipodi="http://sodipodi.sourceforge.net/DTD/sodipodi-0.dtd"
   xmlns:inkscape="http://www.inkscape.org/namespaces/inkscape"
   version="1.0"
   width="580"
   height="580"
   id="svg2"
   sodipodi:version="0.32"
   inkscape:version="0.91 r13725"
   sodipodi:docname="jetski.svg"
   inkscape:output_extension="org.inkscape.output.svg.inkscape">
  <metadata
     id="metadata2975">
    <rdf:RDF>
      <cc:Work
         rdf:about="">
        <dc:format>image/svg+xml</dc:format>
        <dc:type
           rdf:resource="http://purl.org/dc/dcmitype/StillImage" />
        <cc:license
           rdf:resource="http://web.resource.org/cc/PublicDomain" />
        <dc:language>en</dc:language>
      </cc:Work>
    </rdf:RDF>
  </metadata>
  <sodipodi:namedview
     inkscape:window-height="972"
     inkscape:window-width="1280"
     inkscape:pageshadow="2"
     inkscape:pageopacity="0.0"
     guidetolerance="10.0"
     gridtolerance="10.0"
     objecttolerance="10.0"
     borderopacity="1.0"
     bordercolor="#666666"
     pagecolor="#ffffff"
     id="base"
     inkscape:zoom="0.92167712"
     inkscape:cx="233.16495"
     inkscape:cy="205.24652"
     inkscape:window-x="-8"
     inkscape:window-y="-8"
     inkscape:current-layer="svg2"
     showgrid="false"
     inkscape:window-maximized="1" />
  <defs
     id="defs4" />
  <g
     id="layer3"
     inkscape:label="Layout"
     style="display:none;stroke:#757575;stroke-opacity:1"
     transform="matrix(48.14969,0,0,48.14969,-536.27327,-33.306752)">
    <rect
       style="fill:none;stroke:#757575;stroke-width:0.10000000000000001;stroke-miterlimit:4;stroke-dasharray:none;stroke-opacity:1;display:inline"
       id="rect4134"
       width="10"
       height="10"
       x="1"
       y="1" />
    <rect
       style="fill:none;stroke:#757575;stroke-width:0.10000000000000001;stroke-miterlimit:4;stroke-dasharray:none;stroke-opacity:1;display:inline"
       id="rect4136"
       width="8"
       height="8"
       x="2"
       y="2" />
  </g>
  <path
     transform="matrix(14.685839,0,0,14.685839,569.76584,1146.0639)"
     style="font-style:normal;font-variant:normal;font-weight:normal;font-stretch:normal;font-size:40px;line-height:125%;font-family:NPSPICT3;-inkscape-font-specification:NPSPICT3;text-align:start;writing-mode:lr-tb;text-anchor:start;fill:#000080;fill-opacity:1;stroke:none;stroke-width:1px;stroke-linecap:butt;stroke-linejoin:miter;stroke-opacity:1"
     d="M -22.702637,-67.688354 C -22.249366,-68.261656 -22.076026,-68.921852 -22.182617,-69.668945 -22.262387,-70.388322 -22.588924,-70.98138 -23.162231,-71.44812 -23.73557,-71.91481 -24.395767,-72.094863 -25.142822,-71.988281 -25.889092,-71.908503 -26.488863,-71.575251 -26.942139,-70.988525 -27.395438,-70.40175 -27.568778,-69.748267 -27.462158,-69.028076 -27.382417,-68.281798 -27.05588,-67.682026 -26.482544,-67.22876 -25.909234,-66.775451 -25.249037,-66.588684 -24.502375,-66.681864 -23.755712,-66.775044 -23.15594,-67.11501 -22.702637,-67.688354 Z M -2.5024414,-54.068359 C -2.5293334,-54.095207 -6.2093427,-55.962067 -13.54248,-59.668945 L -16.342773,-63.307861 C -16.796083,-63.708234 -17.235943,-63.681786 -17.662354,-63.228516 L -17.662354,-63.228516 C -17.929302,-62.908675 -17.969178,-62.561995 -17.781982,-62.188477 L -15.701904,-59.509033 -17.423096,-55.588135 -21.942139,-56.70874 -22.142334,-58.348145 -18.422852,-58.788818 C -17.622906,-58.895414 -17.222922,-59.321846 -17.2229,-60.068115 -17.222922,-60.414781 -17.36961,-60.721584 -17.662964,-60.988525 -17.956361,-61.255437 -18.276388,-61.362045 -18.623047,-61.30835 L -22.423096,-60.868896 -22.781982,-63.667969 C -22.862565,-64.388165 -23.196224,-64.98163 -23.782959,-65.448364 -24.369725,-65.91506 -25.0228,-66.095114 -25.742188,-65.988525 -26.48927,-65.908753 -27.089449,-65.575501 -27.542725,-64.98877 -27.996023,-64.402 -28.182791,-63.748518 -28.103027,-63.02832 L -27.302246,-56.508545 C -27.19565,-55.654857 -26.782239,-55.001375 -26.062012,-54.548096 L -32.022705,-53.827881 -33.862305,-49.228271 C -32.92888,-49.6547 -32.035733,-49.867916 -31.182861,-49.86792 -30.356047,-49.867916 -29.542653,-49.681556 -28.742676,-49.308838 -28.262543,-49.095619 -27.755952,-48.989011 -27.2229,-48.989014 -26.689059,-48.989011 -26.18206,-49.095619 -25.701904,-49.308838 -24.928806,-49.681556 -24.115819,-49.867916 -23.262939,-49.86792 -22.755957,-49.867916 -22.082537,-49.721432 -21.242676,-49.428467 -20.402851,-49.135495 -19.756286,-48.989011 -19.302979,-48.989014 -18.769145,-48.989011 -18.262146,-49.095619 -17.781982,-49.308838 -16.982037,-49.681556 -16.155622,-49.867916 -15.302734,-49.86792 -14.768905,-49.867916 -14.255396,-49.78796 -13.762207,-49.628052 -13.269069,-49.468136 -12.782416,-49.295 -12.302246,-49.108643 -5.5021494,-50.921789 -2.1020877,-52.375238 -2.1020508,-53.468994 -2.1020877,-53.7351 -2.2355511,-53.934888 -2.5024414,-54.068359 Z M -7.3828125,-47.428955 C -7.8629869,-47.428954 -8.5296936,-47.282266 -9.3829346,-46.988892 -10.236235,-46.695515 -10.889514,-46.548828 -11.342773,-46.548828 -11.822944,-46.548828 -12.489651,-46.695515 -13.342896,-46.988892 -14.196192,-47.282266 -14.849471,-47.428954 -15.302734,-47.428955 -15.782901,-47.428954 -16.449608,-47.282266 -17.302856,-46.988892 -18.156149,-46.695515 -18.822856,-46.548828 -19.302979,-46.548828 -19.782327,-46.548828 -20.442117,-46.695515 -21.282349,-46.988892 -22.122616,-47.282266 -22.782813,-47.428954 -23.262939,-47.428955 -23.742284,-47.428954 -24.402074,-47.282266 -25.24231,-46.988892 -26.082573,-46.695515 -26.742769,-46.548828 -27.2229,-46.548828 -27.702241,-46.548828 -28.362031,-46.695515 -29.202271,-46.988892 -30.04253,-47.282266 -30.702726,-47.428954 -31.182861,-47.428955 -31.663012,-47.428954 -32.329719,-47.282266 -33.182983,-46.988892 -34.03626,-46.695515 -34.702967,-46.548828 -35.183105,-46.548828 L -35.183105,-43.628906 C -34.702967,-43.628909 -34.03626,-43.775596 -33.182983,-44.06897 -32.329719,-44.362347 -31.663012,-44.509035 -31.182861,-44.509033 -30.729582,-44.509035 -30.076099,-44.362347 -29.222412,-44.06897 -28.368744,-43.775596 -27.702241,-43.628909 -27.2229,-43.628906 -26.742769,-43.628909 -26.082573,-43.775596 -25.24231,-44.06897 -24.402074,-44.362347 -23.742284,-44.509035 -23.262939,-44.509033 -22.782813,-44.509035 -22.122616,-44.362347 -21.282349,-44.06897 -20.442117,-43.775596 -19.782327,-43.628909 -19.302979,-43.628906 -18.822856,-43.628909 -18.156149,-43.775596 -17.302856,-44.06897 -16.449608,-44.362347 -15.782901,-44.509035 -15.302734,-44.509033 -14.849471,-44.509035 -14.196192,-44.362347 -13.342896,-44.06897 -12.489651,-43.775596 -11.822944,-43.628909 -11.342773,-43.628906 -10.889514,-43.628909 -10.236235,-43.775596 -9.3829346,-44.06897 -8.5296936,-44.362347 -7.8629869,-44.509035 -7.3828125,-44.509033 -6.9027014,-44.509035 -6.2427086,-44.362347 -5.402832,-44.06897 -4.5630228,-43.775596 -3.90303,-43.628909 -3.4228516,-43.628906 L -3.4228516,-46.548828 C -3.90303,-46.548828 -4.5630228,-46.695515 -5.402832,-46.988892 -6.2427086,-47.282266 -6.9027014,-47.428954 -7.3828125,-47.428955 Z"
     id="flowRoot3192"
     inkscape:connector-curvature="0"
     sodipodi:nodetypes="scccccccsccccccccccccccccccscccccscccccccccccccccscscscssssssccsssccssccscccscccccc" />
</svg>
