<?xml version="1.0" encoding="UTF-8" standalone="no"?>
<!-- Created with Inkscape (http://www.inkscape.org/) -->

<svg
   xmlns:dc="http://purl.org/dc/elements/1.1/"
   xmlns:cc="http://creativecommons.org/ns#"
   xmlns:rdf="http://www.w3.org/1999/02/22-rdf-syntax-ns#"
   xmlns:svg="http://www.w3.org/2000/svg"
   xmlns="http://www.w3.org/2000/svg"
   xmlns:sodipodi="http://sodipodi.sourceforge.net/DTD/sodipodi-0.dtd"
   xmlns:inkscape="http://www.inkscape.org/namespaces/inkscape"
   version="1.0"
   width="580"
   height="580"
   id="svg2"
   sodipodi:version="0.32"
   inkscape:version="0.91 r13725"
   sodipodi:docname="minature_golf.svg"
   inkscape:output_extension="org.inkscape.output.svg.inkscape">
  <metadata
     id="metadata10">
    <rdf:RDF>
      <cc:Work
         rdf:about="">
        <dc:format>image/svg+xml</dc:format>
        <dc:type
           rdf:resource="http://purl.org/dc/dcmitype/StillImage" />
        <cc:license
           rdf:resource="http://web.resource.org/cc/PublicDomain" />
        <dc:language>en</dc:language>
        <dc:title />
      </cc:Work>
    </rdf:RDF>
  </metadata>
  <sodipodi:namedview
     inkscape:window-height="972"
     inkscape:window-width="1280"
     inkscape:pageshadow="2"
     inkscape:pageopacity="0.0"
     guidetolerance="10.0"
     gridtolerance="10.0"
     objecttolerance="10.0"
     borderopacity="1.0"
     bordercolor="#666666"
     pagecolor="#ffffff"
     id="base"
     showgrid="false"
     inkscape:zoom="0.70710678"
     inkscape:cx="82.560816"
     inkscape:cy="403.36279"
     inkscape:window-x="-8"
     inkscape:window-y="-8"
     inkscape:current-layer="svg2"
     inkscape:window-maximized="1" />
  <defs
     id="defs4">
    <inkscape:perspective
       sodipodi:type="inkscape:persp3d"
       inkscape:vp_x="0 : 290 : 1"
       inkscape:vp_y="0 : 1000 : 0"
       inkscape:vp_z="580 : 290 : 1"
       inkscape:persp3d-origin="290 : 193.33333 : 1"
       id="perspective12" />
    <style
       type="text/css"
       id="style6">
   
    .fil0 {fill:#EF7900}
   
  </style>
    <inkscape:perspective
       id="perspective6807"
       inkscape:persp3d-origin="29.116032 : 19.410688 : 1"
       inkscape:vp_z="58.232063 : 29.116032 : 1"
       inkscape:vp_y="0 : 1000 : 0"
       inkscape:vp_x="0 : 29.116032 : 1"
       sodipodi:type="inkscape:persp3d" />
    <inkscape:perspective
       id="perspective6954"
       inkscape:persp3d-origin="290 : 193.33333 : 1"
       inkscape:vp_z="580 : 290 : 1"
       inkscape:vp_y="0 : 1000 : 0"
       inkscape:vp_x="0 : 290 : 1"
       sodipodi:type="inkscape:persp3d" />
    <inkscape:perspective
       id="perspective2541"
       inkscape:persp3d-origin="240 : 160 : 1"
       inkscape:vp_z="480 : 240 : 1"
       inkscape:vp_y="0 : 1000 : 0"
       inkscape:vp_x="0 : 240 : 1"
       sodipodi:type="inkscape:persp3d" />
    <inkscape:perspective
       id="perspective2750"
       inkscape:persp3d-origin="215 : 143.33333 : 1"
       inkscape:vp_z="430 : 215 : 1"
       inkscape:vp_y="0 : 1000 : 0"
       inkscape:vp_x="0 : 215 : 1"
       sodipodi:type="inkscape:persp3d" />
    <inkscape:perspective
       id="perspective3730"
       inkscape:persp3d-origin="88.929146 : 101.19778 : 1"
       inkscape:vp_z="177.85829 : 151.79668 : 1"
       inkscape:vp_y="0 : 1000 : 0"
       inkscape:vp_x="0 : 151.79668 : 1"
       sodipodi:type="inkscape:persp3d" />
    <inkscape:perspective
       id="perspective4168"
       inkscape:persp3d-origin="16 : 10.666667 : 1"
       inkscape:vp_z="32 : 16 : 1"
       inkscape:vp_y="0 : 1000 : 0"
       inkscape:vp_x="0 : 16 : 1"
       sodipodi:type="inkscape:persp3d" />
  </defs>
  <path
     style="opacity:1;fill:#000080;fill-opacity:1;fill-rule:evenodd;stroke:none"
     d="M 318.34961 32.021484 L 297.99805 61.669922 C 292.95878 68.649332 294.12263 74.658556 301.49219 79.697266 C 308.4592 83.956026 314.46265 82.790222 319.50195 76.201172 L 331.14258 58.759766 L 512.53125 177.95898 L 364.28711 204.69922 C 358.85741 205.85873 354.49527 208.66772 351.20117 213.12695 C 347.90658 217.58666 347.03415 222.33618 348.58398 227.375 L 380.55664 352.375 L 275.90625 508.7832 C 273.96615 512.26081 272.99789 515.93845 272.99805 519.81836 C 272.99789 526.01662 275.22592 531.34709 279.68555 535.80664 C 284.14486 540.26603 289.4753 542.49406 295.67383 542.49414 C 303.81186 542.49406 310.40014 538.62089 315.43945 530.87305 L 424.73828 366.32227 L 430.55859 388.99805 L 414.28711 512.25977 C 413.50608 518.45803 414.85981 523.98213 418.34961 528.83203 C 421.83881 533.68178 426.68415 536.68639 432.88281 537.8457 C 439.09261 539.00485 444.81035 537.74517 450.03906 534.06641 C 455.26704 530.38756 458.27166 525.44447 459.05273 519.23438 L 475.91016 393.07812 C 476.30019 388.80798 475.91315 384.35001 474.75586 379.70117 L 437.53125 231.4375 L 534.64062 213.99609 C 539.67929 213.22746 543.74805 210.61209 546.84766 206.15234 C 549.94639 201.69315 551.10449 196.9456 550.32422 191.90625 C 549.16455 186.86743 546.26159 182.60308 541.61328 179.11328 L 318.34961 32.021484 z M 357.29492 118.05859 C 346.83799 118.05892 337.92579 121.64451 330.55664 128.81836 C 323.18704 135.9929 319.50175 144.815 319.50195 155.2832 C 319.50175 165.74021 323.18704 174.55657 330.55664 181.73047 C 337.92579 188.90493 346.83799 192.49047 357.29492 192.49023 C 367.76321 192.49047 376.77702 188.90493 384.33594 181.73047 C 391.8943 174.55657 395.67354 165.74021 395.67383 155.2832 C 395.67354 144.815 391.8943 135.9929 384.33594 128.81836 C 376.77702 121.64451 367.76321 118.05892 357.29492 118.05859 z M 71.603516 174.41016 A 6.6105081 6.6105081 0 0 0 66.835938 176.18945 L 34.210938 206.7207 A 6.6105081 6.6105081 0 0 0 34.427734 216.56836 L 123.13477 292.51953 L 120.9043 307.18359 L 34.427734 381.22461 A 6.6105081 6.6105081 0 0 0 34.210938 391.07227 L 66.835938 421.60352 A 6.6105081 6.6105081 0 0 0 76.683594 420.6875 L 110.68555 374.33008 L 89.917969 510.78516 C 90.503311 512.92635 206.69246 510.78544 209.61914 512.21289 C 211.28796 513.02684 201.90219 436.34987 193.49805 369.98828 L 230.68359 420.6875 A 6.6105081 6.6105081 0 0 0 240.53125 421.60352 L 273.15625 391.07227 A 6.6105081 6.6105081 0 0 0 272.93945 381.22461 L 185.33984 306.22266 C 184.44751 299.33204 184.19633 297.39426 183.62891 293.03711 L 272.93945 216.56836 A 6.6105081 6.6105081 0 0 0 273.15625 206.7207 L 240.53125 176.18945 A 6.6105081 6.6105081 0 0 0 235.69727 174.41406 A 6.6105081 6.6105081 0 0 0 230.68359 177.10742 L 165.64844 265.77539 L 153.87695 258.37891 L 141.66016 265.69531 L 76.683594 177.10742 A 6.6105081 6.6105081 0 0 0 71.603516 174.41016 z M 153.68359 281.21875 A 17.67767 17.67767 0 0 1 171.36133 298.89648 A 17.67767 17.67767 0 0 1 153.68359 316.57422 A 17.67767 17.67767 0 0 1 136.00586 298.89648 A 17.67767 17.67767 0 0 1 153.68359 281.21875 z "
     id="path3457" />
</svg>
