<?xml version="1.0" encoding="UTF-8" standalone="no"?>
<!-- Created with Inkscape (http://www.inkscape.org/) -->

<svg
   xmlns:dc="http://purl.org/dc/elements/1.1/"
   xmlns:cc="http://creativecommons.org/ns#"
   xmlns:rdf="http://www.w3.org/1999/02/22-rdf-syntax-ns#"
   xmlns:svg="http://www.w3.org/2000/svg"
   xmlns="http://www.w3.org/2000/svg"
   xmlns:sodipodi="http://sodipodi.sourceforge.net/DTD/sodipodi-0.dtd"
   xmlns:inkscape="http://www.inkscape.org/namespaces/inkscape"
   version="1.0"
   width="580"
   height="580"
   id="svg2"
   sodipodi:version="0.32"
   inkscape:version="0.91 r13725"
   sodipodi:docname="swimming_outdoor.svg"
   inkscape:output_extension="org.inkscape.output.svg.inkscape">
  <metadata
     id="metadata1976">
    <rdf:RDF>
      <cc:Work
         rdf:about="">
        <dc:format>image/svg+xml</dc:format>
        <dc:type
           rdf:resource="http://purl.org/dc/dcmitype/StillImage" />
        <cc:license
           rdf:resource="http://web.resource.org/cc/PublicDomain" />
        <dc:language>en</dc:language>
      </cc:Work>
    </rdf:RDF>
  </metadata>
  <sodipodi:namedview
     inkscape:window-height="972"
     inkscape:window-width="1280"
     inkscape:pageshadow="2"
     inkscape:pageopacity="0.0"
     guidetolerance="10.0"
     gridtolerance="10.0"
     objecttolerance="10.0"
     borderopacity="1.0"
     bordercolor="#666666"
     pagecolor="#ffffff"
     id="base"
     inkscape:zoom="0.65172414"
     inkscape:cx="290.64719"
     inkscape:cy="236.60888"
     inkscape:window-x="-8"
     inkscape:window-y="-8"
     inkscape:current-layer="svg2"
     showgrid="false"
     inkscape:window-maximized="1" />
  <defs
     id="defs4">
    <inkscape:perspective
       sodipodi:type="inkscape:persp3d"
       inkscape:vp_x="0 : 290 : 1"
       inkscape:vp_y="0 : 1000 : 0"
       inkscape:vp_z="580 : 290 : 1"
       inkscape:persp3d-origin="290 : 193.33333 : 1"
       id="perspective3653" />
  </defs>
  <path
     style="fill:#000080;fill-opacity:1;fill-rule:evenodd"
     d="M 470.56055 134.66992 C 470.03125 134.65965 469.48355 134.66969 468.91797 134.69922 C 450.42467 135.82092 393.75511 158.85406 374.81055 166.88672 C 355.86345 174.62325 359.31246 175.51047 356.82422 181.35742 C 354.39237 187.02745 356.20231 189.68418 360.50195 201.61523 C 364.68749 213.60523 371.8715 230.43542 382.04883 252.76172 L 252.64844 321.80469 C 264.58204 316.13209 277.08247 313.9482 290.37109 315.25195 C 303.60587 316.54927 316.16025 329.30498 331.99609 329.36523 C 347.77423 329.07167 367.45524 314.30696 384.70508 314.24414 C 402.01 314.30696 420.56168 327.53756 434.47461 328.89258 C 448.16063 329.89889 458.28596 327.35537 465.91992 320.80078 L 406.70703 190.51172 C 423.16462 184.36865 437.41639 178.81853 450.36914 173.85742 C 463.15011 168.65915 480.00339 167.00575 483.28516 160.45117 C 486.18868 153.92756 486.96883 134.98822 470.56055 134.66992 z M 485.13281 209.0625 C 465.18321 209.0625 448.99414 225.96988 448.99414 246.80273 C 448.99414 267.63558 465.1845 284.54102 485.13281 284.54102 C 505.08112 284.54102 521.27148 267.63558 521.27148 246.80273 C 521.27148 225.96988 505.08238 209.0625 485.13281 209.0625 z M 77.714844 262.23633 C 77.251883 262.23507 76.801736 262.24554 76.365234 262.26953 C 62.451035 263.03742 57.418943 279.92956 64.318359 288.375 C 71.219063 296.58456 100.34323 304.97331 117.42383 311.23047 C 134.39034 317.1415 149.99927 321.5081 165.32617 324.34375 C 177.31618 318.73398 188.34561 315.89798 198.86523 316.07617 C 209.32846 316.31077 219.62143 323.81173 227.76562 325.17188 C 235.79698 326.35384 242.0753 325.52623 246.82617 322.92773 C 208.1974 307.04061 175.45078 294.34426 146.83398 284.18359 C 118.9463 274.22743 92.06663 262.27543 77.714844 262.23633 z M 196.69141 328.87695 C 196.22957 328.87044 195.76561 328.87393 195.30078 328.88867 C 180.03028 329.4822 163.29015 341.29302 148.35938 342.00195 C 133.31578 342.2391 119.68443 331.01896 106.39453 330.89844 C 92.991811 330.66257 77.947668 339.10718 68.898438 340.99805 C 59.849191 342.71329 54.136823 342.89139 51.988281 341.53125 L 51.988281 372.83398 C 54.136823 374.19155 59.849191 374.01669 68.898438 372.30273 C 77.947668 370.41188 92.99054 361.96528 106.39453 362.20117 C 119.68571 362.32038 133.31578 373.54116 148.35938 373.30273 C 163.29015 372.7143 180.03028 360.60549 195.30078 360.19141 C 210.17517 359.60171 223.4666 370.58638 238.45508 370.82227 C 253.66917 370.94277 269.10811 360.90242 285.39648 361.19727 C 301.45793 361.43186 317.80194 372.35718 334.20312 372.30078 C 350.32097 371.94568 365.59138 360.30935 382.38867 360.19141 C 399.24237 360.135 417.79205 371.53266 434.30859 371.83008 C 450.59441 371.83008 467.45245 361.13611 479.38477 360.72461 C 491.03507 360.19131 497.42528 367.75329 504.4375 369.28906 C 511.33692 370.76585 516.5972 371.00068 520.66992 369.75977 L 520.66992 338.45703 C 516.5972 339.70053 511.33692 339.46184 504.4375 337.98633 C 497.42528 336.39031 491.03507 328.94983 479.38477 329.36133 C 467.45116 329.77541 450.59441 340.4668 434.30859 340.4668 C 417.79205 340.11555 399.24237 328.88867 382.38867 328.88867 C 365.59138 329.00788 350.32097 340.64295 334.20312 340.99805 C 317.80194 341.05574 301.45793 330.1304 285.39648 329.89453 C 269.10811 329.48175 253.66917 339.58339 238.45508 339.46289 C 223.93623 339.1785 211.00821 329.07895 196.69141 328.87695 z M 196.69141 381.26562 C 196.22957 381.25915 195.76561 381.26256 195.30078 381.27734 C 180.03028 381.86702 163.29015 393.67914 148.35938 394.39062 C 133.31578 394.62522 119.68443 383.4031 106.39453 383.28516 C 92.991811 383.05056 77.947668 391.49585 68.898438 393.38672 C 59.849191 395.21989 54.136823 395.15798 51.988281 393.85938 L 51.988281 425.16211 C 54.136823 426.46071 59.849191 426.52262 68.898438 424.68945 C 77.947668 422.7973 92.99054 414.35329 106.39453 414.58789 C 119.68571 414.70582 133.31578 425.92796 148.35938 425.69336 C 163.29015 424.98189 180.03028 413.16977 195.30078 412.58008 C 210.17517 412.10705 223.4666 422.85749 238.45508 423.15234 C 253.66917 423.27028 269.10811 413.16992 285.39648 413.58398 C 301.45793 413.82115 317.80194 424.74775 334.20312 424.6875 C 350.32097 424.33495 365.59138 412.69546 382.38867 412.58008 C 399.24237 412.58008 417.79205 423.80371 434.30859 424.15625 C 450.59441 424.15625 467.45245 413.46553 479.38477 413.05273 C 491.03507 412.63867 497.42528 420.07848 504.4375 421.67578 C 511.33692 423.15259 516.5972 423.39001 520.66992 422.15039 L 520.66992 390.84766 C 516.5972 391.96808 511.33692 391.79321 504.4375 390.31641 C 497.42528 388.78192 491.03507 381.21799 479.38477 381.75 C 467.45116 382.16278 450.59441 392.85352 434.30859 392.85352 C 417.79205 392.50098 399.24237 381.27734 382.38867 381.27734 C 365.59138 381.39656 350.32097 393.03225 334.20312 393.38477 C 317.80194 393.44502 301.45793 382.51841 285.39648 382.28125 C 269.10811 381.86717 253.66917 391.96754 238.45508 391.84961 C 223.93623 391.56397 211.00821 381.4664 196.69141 381.26562 z M 195.00781 432.64062 C 194.54598 432.63415 194.08201 432.63756 193.61719 432.65234 C 178.34669 433.24202 161.60656 445.05414 146.67578 445.76562 C 131.63218 446.00022 118.00084 434.7781 104.71094 434.66016 C 91.308217 434.42556 76.264074 442.8689 67.214844 444.75977 C 58.165604 446.59294 52.453238 446.53298 50.304688 445.23438 L 50.304688 476.53516 C 52.453238 477.83376 58.165604 477.89567 67.214844 476.0625 C 76.264074 474.17035 91.306947 465.72829 104.71094 465.96289 C 118.00212 466.08082 131.63218 477.30296 146.67578 477.06836 C 161.60656 476.35689 178.34669 464.54477 193.61719 463.95508 C 208.49158 463.48205 221.783 474.23249 236.77148 474.52734 C 251.98557 474.64528 267.42452 464.54492 283.71289 464.95898 C 299.77434 465.19615 316.11834 476.12275 332.51953 476.0625 C 348.63738 475.70995 363.90779 464.07046 380.70508 463.95508 C 397.55878 463.95508 416.10846 475.17676 432.625 475.5293 C 448.91082 475.5293 465.76885 464.84053 477.70117 464.42773 C 489.35147 464.01367 495.74169 471.45348 502.75391 473.05078 C 509.65333 474.52759 514.91361 474.76501 518.98633 473.52539 L 518.98633 442.22266 C 514.91361 443.34308 509.65333 443.16625 502.75391 441.68945 C 495.74169 440.15496 489.35147 432.59299 477.70117 433.125 C 465.76756 433.53778 448.91082 444.22656 432.625 444.22656 C 416.10846 443.87402 397.55878 432.65234 380.70508 432.65234 C 363.90779 432.77156 348.63738 444.40725 332.51953 444.75977 C 316.11834 444.82002 299.77434 433.89341 283.71289 433.65625 C 267.42452 433.24217 251.98557 443.34254 236.77148 443.22461 C 222.25263 442.93897 209.32462 432.8414 195.00781 432.64062 z "
     id="path113" />
</svg>
