<?xml version="1.0" encoding="UTF-8" standalone="no"?>
<!-- Created with Inkscape (http://www.inkscape.org/) -->

<svg
   xmlns:dc="http://purl.org/dc/elements/1.1/"
   xmlns:cc="http://creativecommons.org/ns#"
   xmlns:rdf="http://www.w3.org/1999/02/22-rdf-syntax-ns#"
   xmlns:svg="http://www.w3.org/2000/svg"
   xmlns="http://www.w3.org/2000/svg"
   xmlns:sodipodi="http://sodipodi.sourceforge.net/DTD/sodipodi-0.dtd"
   xmlns:inkscape="http://www.inkscape.org/namespaces/inkscape"
   version="1.0"
   width="580"
   height="580"
   id="svg2"
   sodipodi:version="0.32"
   inkscape:version="0.91 r13725"
   sodipodi:docname="windsurfing.svg"
   inkscape:output_extension="org.inkscape.output.svg.inkscape">
  <metadata
     id="metadata2975">
    <rdf:RDF>
      <cc:Work
         rdf:about="">
        <dc:format>image/svg+xml</dc:format>
        <dc:type
           rdf:resource="http://purl.org/dc/dcmitype/StillImage" />
        <cc:license
           rdf:resource="http://web.resource.org/cc/PublicDomain" />
        <dc:language>en</dc:language>
        <dc:title />
      </cc:Work>
    </rdf:RDF>
  </metadata>
  <sodipodi:namedview
     inkscape:window-height="972"
     inkscape:window-width="1280"
     inkscape:pageshadow="2"
     inkscape:pageopacity="0.0"
     guidetolerance="10.0"
     gridtolerance="10.0"
     objecttolerance="10.0"
     borderopacity="1.0"
     bordercolor="#666666"
     pagecolor="#ffffff"
     id="base"
     inkscape:zoom="0.65172414"
     inkscape:cx="56.940393"
     inkscape:cy="451.23755"
     inkscape:window-x="-8"
     inkscape:window-y="-8"
     inkscape:current-layer="svg2"
     showgrid="false"
     inkscape:window-maximized="1" />
  <defs
     id="defs4">
    <inkscape:perspective
       sodipodi:type="inkscape:persp3d"
       inkscape:vp_x="0 : 290 : 1"
       inkscape:vp_y="6.1230318e-14 : 1000 : 0"
       inkscape:vp_z="580 : 290 : 1"
       inkscape:persp3d-origin="290 : 193.33333 : 1"
       id="perspective2441" />
    <inkscape:perspective
       id="perspective3452"
       inkscape:persp3d-origin="30 : 20 : 1"
       inkscape:vp_z="60 : 30 : 1"
       inkscape:vp_y="0 : 1000 : 0"
       inkscape:vp_x="0 : 30 : 1"
       sodipodi:type="inkscape:persp3d" />
    <symbol
       viewBox="244.5 110 489 219.9"
       id="symbol-university">
      <path
         id="path4460"
         d="M79,43l57,119c0,0,21-96,104-96s124,106,124,106l43-133l82-17L0,17L79,43z" />
      <path
         id="path4462"
         d="M94,176l-21,39"
         stroke-width="20"
         stroke="#000000"
         fill="none" />
      <path
         id="path4464"
         d="M300,19c0,10.5-22.6,19-50.5,19S199,29.5,199,19s22.6-19,50.5-19S300,8.5,300,19z" />
      <path
         id="path4466"
         d="M112,216l-16-38L64,88c0,0-9-8-4-35s16-24,16-24"
         stroke-width="20"
         stroke="#000000"
         ill="none" />
    </symbol>
    <inkscape:perspective
       id="perspective4471"
       inkscape:persp3d-origin="372.04724 : 350.78739 : 1"
       inkscape:vp_z="744.09448 : 526.18109 : 1"
       inkscape:vp_y="0 : 1000 : 0"
       inkscape:vp_x="0 : 526.18109 : 1"
       sodipodi:type="inkscape:persp3d" />
    <inkscape:perspective
       id="perspective4668"
       inkscape:persp3d-origin="6 : 4 : 1"
       inkscape:vp_z="12 : 6 : 1"
       inkscape:vp_y="0 : 1000 : 0"
       inkscape:vp_x="0 : 6 : 1"
       sodipodi:type="inkscape:persp3d" />
    <inkscape:perspective
       id="perspective3826"
       inkscape:persp3d-origin="0.5 : 0.33333333 : 1"
       inkscape:vp_z="1 : 0.5 : 1"
       inkscape:vp_y="0 : 1000 : 0"
       inkscape:vp_x="0 : 0.5 : 1"
       sodipodi:type="inkscape:persp3d" />
    <inkscape:perspective
       id="perspective3855"
       inkscape:persp3d-origin="0.5 : 0.33333333 : 1"
       inkscape:vp_z="1 : 0.5 : 1"
       inkscape:vp_y="0 : 1000 : 0"
       inkscape:vp_x="0 : 0.5 : 1"
       sodipodi:type="inkscape:persp3d" />
    <inkscape:perspective
       id="perspective3909"
       inkscape:persp3d-origin="0.5 : 0.33333333 : 1"
       inkscape:vp_z="1 : 0.5 : 1"
       inkscape:vp_y="0 : 1000 : 0"
       inkscape:vp_x="0 : 0.5 : 1"
       sodipodi:type="inkscape:persp3d" />
    <inkscape:perspective
       id="perspective11014"
       inkscape:persp3d-origin="0.5 : 0.33333333 : 1"
       inkscape:vp_z="1 : 0.5 : 1"
       inkscape:vp_y="0 : 1000 : 0"
       inkscape:vp_x="0 : 0.5 : 1"
       sodipodi:type="inkscape:persp3d" />
  </defs>
  <g
     id="layer3"
     inkscape:label="Layout"
     style="display:none;stroke:#757575;stroke-opacity:1"
     transform="matrix(48.14969,0,0,48.14969,-536.27327,-33.306752)">
    <rect
       style="fill:none;stroke:#757575;stroke-width:0.10000000000000001;stroke-miterlimit:4;stroke-dasharray:none;stroke-opacity:1;display:inline"
       id="rect4134"
       width="10"
       height="10"
       x="1"
       y="1" />
    <rect
       style="fill:none;stroke:#757575;stroke-width:0.10000000000000001;stroke-miterlimit:4;stroke-dasharray:none;stroke-opacity:1;display:inline"
       id="rect4136"
       width="8"
       height="8"
       x="2"
       y="2" />
  </g>
  <path
     style="fill:#000080"
     d="M 186.55664 36.191406 L 346.20312 443.92969 L 521.57422 333.35352 C 511.08971 166.08877 329.43879 55.148891 186.55664 36.191406 z M 112.18945 229.91016 C 96.198401 229.91016 83.236328 242.87418 83.236328 258.86523 C 83.236328 274.85628 96.198401 287.81836 112.18945 287.81836 C 128.1805 287.81836 141.14453 274.85628 141.14453 258.86523 C 141.14453 242.87418 128.1805 229.91016 112.18945 229.91016 z M 368.90039 240.08203 C 417.61691 239.99632 479.41178 253.47186 510.17578 312.14062 C 511.15109 314.09123 512.24805 316.10397 512.24805 318.35938 C 512.24805 323.11398 508.40808 326.95312 503.77539 326.95312 C 501.39808 326.95312 498.83745 326.22281 497.74023 324.45508 C 490.42544 311.95899 445.8057 233.8732 308.77539 264.65625 C 307.4953 265.02199 306.76333 265.14453 305.36133 265.14453 C 300.72863 265.14453 296.88867 261.30457 296.88867 256.67188 C 296.88867 253.44118 298.53347 250.27105 301.39844 249.17383 C 308.357 246.54889 335.56804 240.14067 368.90039 240.08203 z M 245.99023 271.84961 C 243.97868 271.84961 242.0889 272.33657 241.35742 272.82422 L 195.15234 293.79297 L 127.85547 293.91602 C 111.15339 293.91602 97.560547 307.50842 97.560547 324.27148 C 97.560547 326.77069 97.865041 329.14808 98.474609 331.52539 L 129.13672 401.38281 C 133.89133 411.86732 144.4962 419.12109 156.6875 419.12109 L 239.52734 419.12109 L 287.19531 464.89844 C 294.87584 472.03035 306.88524 471.5434 314.07812 463.92383 C 321.21004 456.18236 320.78405 444.17292 313.10352 437.04102 L 258.24219 384.92383 C 254.82864 381.93695 250.98847 380.04688 245.44141 380.04688 L 189.42188 380.04688 L 164.06445 323.72266 L 194.29883 323.72266 C 194.29883 323.72266 200.57707 323.35747 203.92969 320.73633 L 254.1582 298.12109 C 257.87656 295.49995 260.375 291.11089 260.375 286.23438 C 260.375 278.37098 253.91459 271.84961 245.99023 271.84961 z M 120.8457 486.05078 C 109.99544 486.05078 99.69427 488.55028 90.550781 492.69531 C 81.590163 496.71844 71.593893 499.0957 61.109375 499.0957 L 61.109375 543.28906 C 71.532937 543.28906 81.590163 540.91182 90.550781 536.88867 C 99.69427 532.62172 109.99544 530.12109 120.8457 530.12109 C 131.63502 530.12109 141.99714 532.62172 151.14062 536.88867 C 160.10122 540.91182 170.16042 543.28906 180.58398 543.28906 C 191.00756 543.28906 201.06477 540.91182 210.02539 536.88867 C 219.22982 532.62172 229.531 530.12109 240.32031 530.12109 C 251.17058 530.12109 261.47328 532.62172 270.67773 536.88867 C 279.57737 540.91182 289.63503 543.28906 300.05859 543.28906 C 310.48215 543.28906 320.60034 540.91182 329.5 536.88867 C 338.70443 532.62172 349.06658 530.12109 359.79492 530.12109 C 370.64518 530.12109 381.00887 532.62172 390.15234 536.88867 C 399.052 540.91182 409.17017 543.28906 419.59375 543.28906 C 430.01731 543.28906 440.07456 540.91182 449.03516 536.88867 C 458.17864 532.62172 468.54271 530.12109 479.33203 530.12109 C 490.12133 530.12109 500.48347 532.62172 509.62695 536.88867 C 518.58757 540.91182 528.64478 543.28906 539.06836 543.28906 L 539.06836 499.0957 C 528.70574 499.0957 518.58757 496.71844 509.62695 492.69531 C 500.48347 488.55028 490.12133 486.05078 479.33203 486.05078 C 468.54271 486.05078 458.17864 488.55028 449.03516 492.69531 C 440.07456 496.71844 430.01731 499.0957 419.59375 499.0957 C 409.17017 499.0957 399.052 496.71844 390.15234 492.69531 C 381.00887 488.55028 370.64518 486.05078 359.79492 486.05078 C 349.06658 486.05078 338.70443 488.55028 329.5 492.69531 C 320.60034 496.71844 310.54311 499.0957 300.05859 499.0957 C 289.69599 499.0957 279.57737 496.71844 270.67773 492.69531 C 261.47328 488.55028 251.17058 486.05078 240.32031 486.05078 C 229.531 486.05078 219.22982 488.55028 210.02539 492.69531 C 201.06477 496.71844 191.00756 499.0957 180.58398 499.0957 C 170.16042 499.0957 160.10122 496.71844 151.14062 492.69531 C 141.99714 488.55028 131.63502 486.05078 120.8457 486.05078 z "
     id="path5665" />
</svg>
