<?xml version="1.0" encoding="UTF-8" standalone="no"?>
<!-- Created with Inkscape (http://www.inkscape.org/) -->

<svg
   xmlns:dc="http://purl.org/dc/elements/1.1/"
   xmlns:cc="http://creativecommons.org/ns#"
   xmlns:rdf="http://www.w3.org/1999/02/22-rdf-syntax-ns#"
   xmlns:svg="http://www.w3.org/2000/svg"
   xmlns="http://www.w3.org/2000/svg"
   xmlns:sodipodi="http://sodipodi.sourceforge.net/DTD/sodipodi-0.dtd"
   xmlns:inkscape="http://www.inkscape.org/namespaces/inkscape"
   version="1.0"
   width="580"
   height="580"
   id="svg2"
   sodipodi:version="0.32"
   inkscape:version="0.91 r13725"
   sodipodi:docname="swimming_indoor.svg"
   inkscape:output_extension="org.inkscape.output.svg.inkscape">
  <metadata
     id="metadata1976">
    <rdf:RDF>
      <cc:Work
         rdf:about="">
        <dc:format>image/svg+xml</dc:format>
        <dc:type
           rdf:resource="http://purl.org/dc/dcmitype/StillImage" />
        <cc:license
           rdf:resource="http://web.resource.org/cc/PublicDomain" />
        <dc:language>en</dc:language>
      </cc:Work>
    </rdf:RDF>
  </metadata>
  <sodipodi:namedview
     inkscape:window-height="972"
     inkscape:window-width="1280"
     inkscape:pageshadow="2"
     inkscape:pageopacity="0.0"
     guidetolerance="10.0"
     gridtolerance="10.0"
     objecttolerance="10.0"
     borderopacity="1.0"
     bordercolor="#666666"
     pagecolor="#ffffff"
     id="base"
     inkscape:zoom="0.65172414"
     inkscape:cx="168.01587"
     inkscape:cy="222.48677"
     inkscape:window-x="-8"
     inkscape:window-y="-8"
     inkscape:current-layer="svg2"
     showgrid="false"
     inkscape:window-maximized="1" />
  <defs
     id="defs4">
    <inkscape:perspective
       sodipodi:type="inkscape:persp3d"
       inkscape:vp_x="0 : 290 : 1"
       inkscape:vp_y="0 : 1000 : 0"
       inkscape:vp_z="580 : 290 : 1"
       inkscape:persp3d-origin="290 : 193.33333 : 1"
       id="perspective3653" />
  </defs>
  <path
     style="color:#000000;font-style:normal;font-variant:normal;font-weight:normal;font-stretch:normal;font-size:medium;line-height:normal;font-family:sans-serif;text-indent:0;text-align:start;text-decoration:none;text-decoration-line:none;text-decoration-style:solid;text-decoration-color:#000000;letter-spacing:normal;word-spacing:normal;text-transform:none;direction:ltr;block-progression:tb;writing-mode:lr-tb;baseline-shift:baseline;text-anchor:start;white-space:normal;clip-rule:nonzero;display:inline;overflow:visible;visibility:visible;opacity:1;isolation:auto;mix-blend-mode:normal;color-interpolation:sRGB;color-interpolation-filters:linearRGB;solid-color:#000000;solid-opacity:1;fill:#000080;fill-opacity:1;fill-rule:nonzero;stroke:none;stroke-width:32.78993988;stroke-linecap:butt;stroke-linejoin:miter;stroke-miterlimit:4;stroke-dasharray:none;stroke-dashoffset:0;stroke-opacity:1;color-rendering:auto;image-rendering:auto;shape-rendering:auto;text-rendering:auto;enable-background:accumulate"
     d="M 297.38867 34.138672 C 294.17568 34.088724 290.94325 34.91142 287.13086 36.585938 L 34.888672 111.82227 L 33.767578 112.35156 C 24.098106 116.91508 20.082031 123.24596 20.082031 133.94141 L 20.082031 155.06445 C 20.082031 160.41217 22.656007 167.66886 28.955078 171.66406 C 34.495979 175.1784 41.094536 175.0074 45.896484 173.36133 L 296.43945 98.630859 C 296.00327 98.502982 295.62338 98.19725 293.92188 97.330078 L 295.05859 97.908203 L 296.87305 98.501953 L 298.73242 97.947266 L 299.85352 97.417969 C 298.1261 98.233227 297.73917 98.524739 297.29883 98.640625 L 528.30078 174.19922 L 528.30078 174.73828 L 529.94922 174.73828 L 534.88281 176.35156 C 539.61299 178.13112 546.28322 178.55322 552.02148 175.03711 C 558.55714 171.0324 561.08984 163.6296 561.08984 158.34375 L 561.08984 141.94922 L 561.08984 137.2207 C 561.08984 126.649 557.3461 120.52375 547.91797 115.71875 L 546.78125 115.14062 L 306.46484 36.535156 C 303.21564 35.107549 300.25561 34.18324 297.38867 34.138672 z M 470.56055 214.66992 C 470.03125 214.65965 469.48355 214.66969 468.91797 214.69922 C 450.42467 215.82092 393.75511 238.85406 374.81055 246.88672 C 355.86345 254.62325 359.31246 255.51047 356.82422 261.35742 C 354.39237 267.02745 356.20231 269.68418 360.50195 281.61523 C 364.68749 293.60523 371.8715 310.43542 382.04883 332.76172 L 252.64844 401.80469 C 264.58204 396.13209 277.08247 393.9482 290.37109 395.25195 C 303.60587 396.54927 316.16025 409.30498 331.99609 409.36523 C 347.77423 409.07167 367.45524 394.30696 384.70508 394.24414 C 402.01 394.30696 420.56168 407.53756 434.47461 408.89258 C 448.16063 409.89889 458.28596 407.35537 465.91992 400.80078 L 406.70703 270.51172 C 423.16462 264.36865 437.41639 258.81853 450.36914 253.85742 C 463.15011 248.65915 480.00339 247.00575 483.28516 240.45117 C 486.18868 233.92756 486.96883 214.98822 470.56055 214.66992 z M 485.13281 289.0625 C 465.18321 289.0625 448.99414 305.96988 448.99414 326.80273 C 448.99414 347.63558 465.1845 364.54102 485.13281 364.54102 C 505.08112 364.54102 521.27148 347.63558 521.27148 326.80273 C 521.27148 305.96988 505.08238 289.0625 485.13281 289.0625 z M 77.714844 342.23633 C 77.251883 342.23507 76.801736 342.24554 76.365234 342.26953 C 62.451035 343.03742 57.418943 359.92956 64.318359 368.375 C 71.219063 376.58456 100.34323 384.97331 117.42383 391.23047 C 134.39034 397.1415 149.99927 401.5081 165.32617 404.34375 C 177.31618 398.73398 188.34561 395.89798 198.86523 396.07617 C 209.32846 396.31077 219.62143 403.81173 227.76562 405.17188 C 235.79698 406.35384 242.0753 405.52623 246.82617 402.92773 C 208.1974 387.04061 175.45078 374.34426 146.83398 364.18359 C 118.9463 354.22743 92.06663 342.27543 77.714844 342.23633 z M 196.69141 408.87695 C 196.22957 408.87044 195.76561 408.87393 195.30078 408.88867 C 180.03028 409.4822 163.29015 421.29302 148.35938 422.00195 C 133.31578 422.2391 119.68443 411.01896 106.39453 410.89844 C 92.991812 410.66257 77.947667 419.10718 68.898438 420.99805 C 59.84919 422.71329 54.136823 422.89139 51.988281 421.53125 L 51.988281 452.83398 C 54.136823 454.19155 59.84919 454.01669 68.898438 452.30273 C 77.947667 450.41188 92.990541 441.96528 106.39453 442.20117 C 119.68571 442.32038 133.31578 453.54116 148.35938 453.30273 C 163.29015 452.7143 180.03028 440.60549 195.30078 440.19141 C 210.17517 439.60171 223.4666 450.58638 238.45508 450.82227 C 253.66917 450.94277 269.10811 440.90242 285.39648 441.19727 C 301.45793 441.43186 317.80194 452.35718 334.20312 452.30078 C 350.32097 451.94568 365.59138 440.30935 382.38867 440.19141 C 399.24237 440.135 417.79205 451.53266 434.30859 451.83008 C 450.59441 451.83008 467.45245 441.13611 479.38477 440.72461 C 491.03507 440.19131 497.42528 447.75329 504.4375 449.28906 C 511.33692 450.76585 516.5972 451.00068 520.66992 449.75977 L 520.66992 418.45703 C 516.5972 419.70053 511.33692 419.46184 504.4375 417.98633 C 497.42528 416.39031 491.03507 408.94983 479.38477 409.36133 C 467.45116 409.77541 450.59441 420.4668 434.30859 420.4668 C 417.79205 420.11555 399.24237 408.88867 382.38867 408.88867 C 365.59138 409.00788 350.32097 420.64295 334.20312 420.99805 C 317.80194 421.05574 301.45793 410.1304 285.39648 409.89453 C 269.10811 409.48175 253.66917 419.58339 238.45508 419.46289 C 223.93623 419.1785 211.00821 409.07895 196.69141 408.87695 z M 196.69141 461.26562 C 196.22957 461.25915 195.76561 461.26256 195.30078 461.27734 C 180.03028 461.86702 163.29015 473.67914 148.35938 474.39062 C 133.31578 474.62522 119.68443 463.4031 106.39453 463.28516 C 92.991811 463.05056 77.947668 471.49585 68.898438 473.38672 C 59.849191 475.21989 54.136823 475.15798 51.988281 473.85938 L 51.988281 505.16211 C 54.136823 506.46071 59.849191 506.52262 68.898438 504.68945 C 77.947668 502.7973 92.99054 494.35329 106.39453 494.58789 C 119.68571 494.70582 133.31578 505.92796 148.35938 505.69336 C 163.29015 504.98189 180.03028 493.16977 195.30078 492.58008 C 210.17517 492.10705 223.4666 502.85749 238.45508 503.15234 C 253.66917 503.27028 269.10811 493.16992 285.39648 493.58398 C 301.45793 493.82115 317.80194 504.74775 334.20312 504.6875 C 350.32097 504.33495 365.59138 492.69546 382.38867 492.58008 C 399.24237 492.58008 417.79205 503.80371 434.30859 504.15625 C 450.59441 504.15625 467.45245 493.46553 479.38477 493.05273 C 491.03507 492.63867 497.42528 500.07848 504.4375 501.67578 C 511.33692 503.15259 516.5972 503.39001 520.66992 502.15039 L 520.66992 470.84766 C 516.5972 471.96808 511.33692 471.79321 504.4375 470.31641 C 497.42528 468.78192 491.03507 461.21799 479.38477 461.75 C 467.45116 462.16278 450.59441 472.85352 434.30859 472.85352 C 417.79205 472.50098 399.24237 461.27734 382.38867 461.27734 C 365.59138 461.39656 350.32097 473.03225 334.20312 473.38477 C 317.80194 473.44502 301.45793 462.51841 285.39648 462.28125 C 269.10811 461.86717 253.66917 471.96754 238.45508 471.84961 C 223.93623 471.56397 211.00821 461.4664 196.69141 461.26562 z "
     id="path4145" />
</svg>
