<?xml version="1.0" encoding="UTF-8" standalone="no"?>
<!-- Created with Inkscape (http://www.inkscape.org/) -->

<svg
   xmlns:dc="http://purl.org/dc/elements/1.1/"
   xmlns:cc="http://creativecommons.org/ns#"
   xmlns:rdf="http://www.w3.org/1999/02/22-rdf-syntax-ns#"
   xmlns:svg="http://www.w3.org/2000/svg"
   xmlns="http://www.w3.org/2000/svg"
   xmlns:sodipodi="http://sodipodi.sourceforge.net/DTD/sodipodi-0.dtd"
   xmlns:inkscape="http://www.inkscape.org/namespaces/inkscape"
   version="1.0"
   width="580"
   height="580"
   id="svg2"
   sodipodi:version="0.32"
   inkscape:version="0.91 r13725"
   sodipodi:docname="cricket.svg"
   inkscape:output_extension="org.inkscape.output.svg.inkscape">
  <metadata
     id="metadata2975">
    <rdf:RDF>
      <cc:Work
         rdf:about="">
        <dc:format>image/svg+xml</dc:format>
        <dc:type
           rdf:resource="http://purl.org/dc/dcmitype/StillImage" />
        <cc:license
           rdf:resource="http://web.resource.org/cc/PublicDomain" />
        <dc:language>en</dc:language>
      </cc:Work>
    </rdf:RDF>
  </metadata>
  <sodipodi:namedview
     inkscape:window-height="972"
     inkscape:window-width="1280"
     inkscape:pageshadow="2"
     inkscape:pageopacity="0.0"
     guidetolerance="10.0"
     gridtolerance="10.0"
     objecttolerance="10.0"
     borderopacity="1.0"
     bordercolor="#666666"
     pagecolor="#ffffff"
     id="base"
     inkscape:zoom="0.92167713"
     inkscape:cx="183.06453"
     inkscape:cy="247.16217"
     inkscape:window-x="-8"
     inkscape:window-y="-8"
     inkscape:current-layer="svg2"
     showgrid="false"
     inkscape:window-maximized="1" />
  <defs
     id="defs4">
    <inkscape:perspective
       sodipodi:type="inkscape:persp3d"
       inkscape:vp_x="0 : 290 : 1"
       inkscape:vp_y="0 : 1000 : 0"
       inkscape:vp_z="580 : 290 : 1"
       inkscape:persp3d-origin="290 : 193.33333 : 1"
       id="perspective2441" />
    <inkscape:perspective
       id="perspective3452"
       inkscape:persp3d-origin="30 : 20 : 1"
       inkscape:vp_z="60 : 30 : 1"
       inkscape:vp_y="0 : 1000 : 0"
       inkscape:vp_x="0 : 30 : 1"
       sodipodi:type="inkscape:persp3d" />
    <symbol
       viewBox="244.5 110 489 219.9"
       id="symbol-university">
      <path
         id="path4460"
         d="M79,43l57,119c0,0,21-96,104-96s124,106,124,106l43-133l82-17L0,17L79,43z" />
      <path
         id="path4462"
         d="M94,176l-21,39"
         stroke-width="20"
         stroke="#000000"
         fill="none" />
      <path
         id="path4464"
         d="M300,19c0,10.5-22.6,19-50.5,19S199,29.5,199,19s22.6-19,50.5-19S300,8.5,300,19z" />
      <path
         id="path4466"
         d="M112,216l-16-38L64,88c0,0-9-8-4-35s16-24,16-24"
         stroke-width="20"
         stroke="#000000"
         ill="none" />
    </symbol>
    <inkscape:perspective
       id="perspective4471"
       inkscape:persp3d-origin="372.04724 : 350.78739 : 1"
       inkscape:vp_z="744.09448 : 526.18109 : 1"
       inkscape:vp_y="0 : 1000 : 0"
       inkscape:vp_x="0 : 526.18109 : 1"
       sodipodi:type="inkscape:persp3d" />
    <inkscape:perspective
       id="perspective4668"
       inkscape:persp3d-origin="6 : 4 : 1"
       inkscape:vp_z="12 : 6 : 1"
       inkscape:vp_y="0 : 1000 : 0"
       inkscape:vp_x="0 : 6 : 1"
       sodipodi:type="inkscape:persp3d" />
    <inkscape:perspective
       id="perspective10"
       inkscape:persp3d-origin="290 : 193.33333 : 1"
       inkscape:vp_z="580 : 290 : 1"
       inkscape:vp_y="0 : 1000 : 0"
       inkscape:vp_x="0 : 290 : 1"
       sodipodi:type="inkscape:persp3d" />
  </defs>
  <g
     id="layer3"
     inkscape:label="Layout"
     style="display:none;stroke:#757575;stroke-opacity:1"
     transform="matrix(48.14969,0,0,48.14969,-536.27327,-33.306752)">
    <rect
       style="fill:none;stroke:#757575;stroke-width:0.10000000000000001;stroke-miterlimit:4;stroke-dasharray:none;stroke-opacity:1;display:inline"
       id="rect4134"
       width="10"
       height="10"
       x="1"
       y="1" />
    <rect
       style="fill:none;stroke:#757575;stroke-width:0.10000000000000001;stroke-miterlimit:4;stroke-dasharray:none;stroke-opacity:1;display:inline"
       id="rect4136"
       width="8"
       height="8"
       x="2"
       y="2" />
  </g>
  <path
     style="font-size:40px;font-style:normal;font-weight:normal;fill:#000080;fill-opacity:1;stroke:none;stroke-width:1px;stroke-linecap:butt;stroke-linejoin:miter;stroke-opacity:1;font-family:Bitstream Vera Sans"
     d="M 172.24609 29.849609 A 2.1568998 2.1568998 0 0 0 171.20703 30.148438 L 159.97852 36.777344 L 154.1875 40.197266 L 142.93359 46.841797 A 2.1568998 2.1568998 0 0 0 142.10547 49.669922 L 206.01953 176.25195 A 2.1568998 2.1568998 0 0 0 208.15039 177.42578 L 219.16602 176.37695 L 226.40234 189.26562 A 21.56882 21.56882 0 0 0 228.59375 209.26758 L 265.42578 265.43945 A 21.56882 21.56882 0 0 0 292.14258 273.35547 L 319.18945 261.46094 L 357.21289 362.48438 A 33.551775 33.551775 0 0 0 367.52539 377.05273 L 367.52539 523.2207 A 26.36211 26.36211 0 1 0 420.24414 523.2207 L 420.24414 362.7207 A 33.551775 33.551775 0 0 0 420.17188 339.3125 A 26.36211 26.36211 0 0 0 414.78711 324.97656 L 373.42383 215.07812 A 33.551775 33.551775 0 0 0 342.69727 192.91016 A 33.551775 33.551775 0 0 0 309.25391 218.70898 L 291.48633 226.52344 L 264.66602 185.61719 A 21.56882 21.56882 0 0 0 246.56055 175.61914 A 21.56882 21.56882 0 0 0 239.36133 176.84766 L 234.7207 167.29883 L 241.50586 157.75195 A 2.1568998 2.1568998 0 0 0 241.64453 155.47461 L 174.19922 30.978516 A 2.1568998 2.1568998 0 0 0 172.24609 29.849609 z M 322.79297 110.7832 C 313.06877 110.78351 304.77858 114.32831 297.92578 121.41602 C 291.07248 128.50441 287.64648 137.22 287.64648 147.5625 C 287.64648 157.89395 291.07248 166.6017 297.92578 173.68945 C 304.77858 180.77777 313.06877 184.32252 322.79297 184.32227 C 332.52807 184.32252 340.91005 180.77777 347.93945 173.68945 C 354.96825 166.6017 358.48212 157.89395 358.48242 147.5625 C 358.48212 137.22 354.96825 128.50441 347.93945 121.41602 C 340.91005 114.32831 332.52807 110.78351 322.79297 110.7832 z M 219.88281 348.58203 A 10.001 10.001 0 1 0 219.88281 368.58203 L 244.55078 368.58203 A 10.001 10.001 0 1 0 244.55078 348.58203 L 219.88281 348.58203 z M 271.88281 348.58203 A 10.001 10.001 0 1 0 271.88281 368.58203 L 296.55078 368.58203 A 10.001 10.001 0 1 0 296.55078 348.58203 L 271.88281 348.58203 z M 217.74219 372.44141 A 10.001 10.001 0 0 0 207.88281 382.57227 L 207.72461 548.23438 A 10.001 10.001 0 1 0 227.72461 548.25391 L 227.88281 382.5918 A 10.001 10.001 0 0 0 217.74219 372.44141 z M 257.74219 372.44141 A 10.001 10.001 0 0 0 247.88281 382.57227 L 247.72461 548.23438 A 10.001 10.001 0 1 0 267.72461 548.25391 L 267.88281 382.5918 A 10.001 10.001 0 0 0 257.74219 372.44141 z M 297.74219 372.44141 A 10.001 10.001 0 0 0 287.88281 382.57227 L 287.72461 548.23438 A 10.001 10.001 0 1 0 307.72461 548.25391 L 307.88281 382.5918 A 10.001 10.001 0 0 0 297.74219 372.44141 z "
     id="flowRoot2383" />
</svg>
