<?xml version="1.0" encoding="UTF-8" standalone="no"?>
<!-- Created with Inkscape (http://www.inkscape.org/) -->

<svg
   xmlns:dc="http://purl.org/dc/elements/1.1/"
   xmlns:cc="http://creativecommons.org/ns#"
   xmlns:rdf="http://www.w3.org/1999/02/22-rdf-syntax-ns#"
   xmlns:svg="http://www.w3.org/2000/svg"
   xmlns="http://www.w3.org/2000/svg"
   xmlns:sodipodi="http://sodipodi.sourceforge.net/DTD/sodipodi-0.dtd"
   xmlns:inkscape="http://www.inkscape.org/namespaces/inkscape"
   version="1.0"
   width="580"
   height="580"
   id="svg2"
   sodipodi:version="0.32"
   inkscape:version="0.91 r13725"
   sodipodi:docname="tower_water.svg"
   inkscape:output_extension="org.inkscape.output.svg.inkscape">
  <metadata
     id="metadata10">
    <rdf:RDF>
      <cc:Work
         rdf:about="">
        <dc:format>image/svg+xml</dc:format>
        <dc:type
           rdf:resource="http://purl.org/dc/dcmitype/StillImage" />
        <cc:license
           rdf:resource="http://web.resource.org/cc/PublicDomain" />
        <dc:language>en</dc:language>
      </cc:Work>
    </rdf:RDF>
  </metadata>
  <sodipodi:namedview
     inkscape:window-height="972"
     inkscape:window-width="1280"
     inkscape:pageshadow="2"
     inkscape:pageopacity="0.0"
     guidetolerance="10.0"
     gridtolerance="10.0"
     objecttolerance="10.0"
     borderopacity="1.0"
     bordercolor="#666666"
     pagecolor="#ffffff"
     id="base"
     showgrid="false"
     inkscape:zoom="0.70710678"
     inkscape:cx="78.454573"
     inkscape:cy="339.18443"
     inkscape:window-x="-8"
     inkscape:window-y="-8"
     inkscape:current-layer="svg2"
     inkscape:window-maximized="1" />
  <defs
     id="defs4">
    <inkscape:perspective
       sodipodi:type="inkscape:persp3d"
       inkscape:vp_x="0 : 290 : 1"
       inkscape:vp_y="0 : 1000 : 0"
       inkscape:vp_z="580 : 290 : 1"
       inkscape:persp3d-origin="290 : 193.33333 : 1"
       id="perspective12" />
    <style
       type="text/css"
       id="style6">
   
    .fil0 {fill:#EF7900}
   
  </style>
    <inkscape:perspective
       id="perspective6807"
       inkscape:persp3d-origin="29.116032 : 19.410688 : 1"
       inkscape:vp_z="58.232063 : 29.116032 : 1"
       inkscape:vp_y="0 : 1000 : 0"
       inkscape:vp_x="0 : 29.116032 : 1"
       sodipodi:type="inkscape:persp3d" />
    <inkscape:perspective
       id="perspective6954"
       inkscape:persp3d-origin="290 : 193.33333 : 1"
       inkscape:vp_z="580 : 290 : 1"
       inkscape:vp_y="0 : 1000 : 0"
       inkscape:vp_x="0 : 290 : 1"
       sodipodi:type="inkscape:persp3d" />
    <inkscape:perspective
       id="perspective2541"
       inkscape:persp3d-origin="240 : 160 : 1"
       inkscape:vp_z="480 : 240 : 1"
       inkscape:vp_y="0 : 1000 : 0"
       inkscape:vp_x="0 : 240 : 1"
       sodipodi:type="inkscape:persp3d" />
    <inkscape:perspective
       id="perspective2750"
       inkscape:persp3d-origin="215 : 143.33333 : 1"
       inkscape:vp_z="430 : 215 : 1"
       inkscape:vp_y="0 : 1000 : 0"
       inkscape:vp_x="0 : 215 : 1"
       sodipodi:type="inkscape:persp3d" />
    <inkscape:perspective
       id="perspective3730"
       inkscape:persp3d-origin="88.929146 : 101.19778 : 1"
       inkscape:vp_z="177.85829 : 151.79668 : 1"
       inkscape:vp_y="0 : 1000 : 0"
       inkscape:vp_x="0 : 151.79668 : 1"
       sodipodi:type="inkscape:persp3d" />
  </defs>
  <path
     style="color:#000000;font-style:normal;font-variant:normal;font-weight:normal;font-stretch:normal;font-size:medium;line-height:normal;font-family:sans-serif;text-indent:0;text-align:start;text-decoration:none;text-decoration-line:none;text-decoration-style:solid;text-decoration-color:#000000;letter-spacing:normal;word-spacing:normal;text-transform:none;direction:ltr;block-progression:tb;writing-mode:lr-tb;baseline-shift:baseline;text-anchor:start;white-space:normal;clip-rule:nonzero;display:inline;overflow:visible;visibility:visible;opacity:1;isolation:auto;mix-blend-mode:normal;color-interpolation:sRGB;color-interpolation-filters:linearRGB;solid-color:#000000;solid-opacity:1;fill:#800000;fill-opacity:1;fill-rule:nonzero;stroke:none;stroke-width:25;stroke-linecap:round;stroke-linejoin:round;stroke-miterlimit:4;stroke-dasharray:none;stroke-dashoffset:0;stroke-opacity:1;color-rendering:auto;image-rendering:auto;shape-rendering:auto;text-rendering:auto;enable-background:accumulate"
     d="M 109.60352 49.898438 A 12.50125 12.50125 0 0 0 97.291016 62.574219 L 97.291016 259.82422 A 12.50125 12.50125 0 0 0 109.79102 272.32422 L 155.31445 272.32422 L 135.80273 540.56055 A 15.0015 15.0015 0 1 0 165.72266 542.73633 L 167.13281 523.3418 L 287.26758 460.70508 L 411.12305 525.28125 A 7.50075 7.50075 0 0 0 412.5957 525.875 L 413.82227 542.73633 A 15.0015 15.0015 0 1 0 443.74414 540.56055 L 424.23047 272.32422 L 465.79297 272.32422 A 12.50125 12.50125 0 0 0 478.29297 259.82422 L 478.29297 62.574219 A 12.50125 12.50125 0 1 0 453.29297 62.574219 L 453.29297 80.691406 C 438.64515 86.272701 422.09313 87.545587 407.3418 81.660156 L 407.32617 81.654297 L 407.31055 81.650391 C 389.31272 75.771641 369.6394 67.509265 350.58203 74.650391 C 332.4837 79.906615 312.86835 88.164864 294.4043 80.753906 L 294.38672 80.746094 L 294.36523 80.740234 C 282.39196 77.046032 270.65957 70.335065 257.51758 70.6875 L 257.50977 70.6875 L 257.5 70.6875 C 245.67779 71.411374 234.71922 76.485349 223.73438 80.740234 C 212.74953 84.995119 201.76311 88.434613 189.84766 86.072266 L 189.8457 86.072266 L 189.84375 86.072266 C 180.73415 84.340619 171.80794 79.931032 162.70312 76.724609 C 153.59831 73.518187 144.27537 71.520065 134.4375 74.744141 C 130.30261 75.739359 126.27758 77.056146 122.29102 78.470703 L 122.29102 62.574219 A 12.50125 12.50125 0 0 0 109.60352 49.898438 z M 185.39453 272.32422 L 394.15039 272.32422 L 394.26367 273.87305 L 287.63281 323.42773 L 185.14258 275.79688 L 185.39453 272.32422 z M 395.42773 289.87109 L 401.72656 376.44922 L 305.42773 331.69727 L 395.42773 289.87109 z M 183.97852 291.79492 L 269.83789 331.69727 L 177.96875 374.39062 L 183.97852 291.79492 z M 287.63281 339.9668 L 392.7207 388.80469 L 287.26758 443.78711 L 182.1582 388.98438 L 287.63281 339.9668 z M 403.44922 400.12891 L 411.33008 508.47266 L 303.49023 452.24609 L 403.44922 400.12891 z M 175.91406 402.64453 L 271.04492 452.24609 L 168.41211 505.75781 L 175.91406 402.64453 z "
     id="path4157" />
</svg>
