<?xml version="1.0" encoding="UTF-8" standalone="no"?>
<!-- Created with Inkscape (http://www.inkscape.org/) -->

<svg
   xmlns:dc="http://purl.org/dc/elements/1.1/"
   xmlns:cc="http://creativecommons.org/ns#"
   xmlns:rdf="http://www.w3.org/1999/02/22-rdf-syntax-ns#"
   xmlns:svg="http://www.w3.org/2000/svg"
   xmlns="http://www.w3.org/2000/svg"
   xmlns:sodipodi="http://sodipodi.sourceforge.net/DTD/sodipodi-0.dtd"
   xmlns:inkscape="http://www.inkscape.org/namespaces/inkscape"
   version="1.0"
   width="580"
   height="580"
   id="svg2"
   sodipodi:version="0.32"
   inkscape:version="0.91 r13725"
   sodipodi:docname="crane.svg"
   inkscape:output_extension="org.inkscape.output.svg.inkscape">
  <metadata
     id="metadata10">
    <rdf:RDF>
      <cc:Work
         rdf:about="">
        <dc:format>image/svg+xml</dc:format>
        <dc:type
           rdf:resource="http://purl.org/dc/dcmitype/StillImage" />
        <cc:license
           rdf:resource="http://web.resource.org/cc/PublicDomain" />
        <dc:language>en</dc:language>
        <dc:title />
      </cc:Work>
    </rdf:RDF>
  </metadata>
  <sodipodi:namedview
     inkscape:window-height="876"
     inkscape:window-width="1200"
     inkscape:pageshadow="2"
     inkscape:pageopacity="0.0"
     guidetolerance="10.0"
     gridtolerance="10.0"
     objecttolerance="10.0"
     borderopacity="1.0"
     bordercolor="#666666"
     pagecolor="#ffffff"
     id="base"
     showgrid="false"
     inkscape:zoom="0.70710678"
     inkscape:cx="198.67239"
     inkscape:cy="278.59621"
     inkscape:window-x="1"
     inkscape:window-y="24"
     inkscape:current-layer="svg2"
     inkscape:window-maximized="0" />
  <defs
     id="defs4">
    <inkscape:perspective
       sodipodi:type="inkscape:persp3d"
       inkscape:vp_x="0 : 290 : 1"
       inkscape:vp_y="0 : 1000 : 0"
       inkscape:vp_z="580 : 290 : 1"
       inkscape:persp3d-origin="290 : 193.33333 : 1"
       id="perspective12" />
    <style
       type="text/css"
       id="style6">
   
    .fil0 {fill:#EF7900}
   
  </style>
    <inkscape:perspective
       id="perspective6807"
       inkscape:persp3d-origin="29.116032 : 19.410688 : 1"
       inkscape:vp_z="58.232063 : 29.116032 : 1"
       inkscape:vp_y="0 : 1000 : 0"
       inkscape:vp_x="0 : 29.116032 : 1"
       sodipodi:type="inkscape:persp3d" />
    <inkscape:perspective
       id="perspective6954"
       inkscape:persp3d-origin="290 : 193.33333 : 1"
       inkscape:vp_z="580 : 290 : 1"
       inkscape:vp_y="0 : 1000 : 0"
       inkscape:vp_x="0 : 290 : 1"
       sodipodi:type="inkscape:persp3d" />
    <inkscape:perspective
       id="perspective2541"
       inkscape:persp3d-origin="240 : 160 : 1"
       inkscape:vp_z="480 : 240 : 1"
       inkscape:vp_y="0 : 1000 : 0"
       inkscape:vp_x="0 : 240 : 1"
       sodipodi:type="inkscape:persp3d" />
    <inkscape:perspective
       id="perspective2750"
       inkscape:persp3d-origin="215 : 143.33333 : 1"
       inkscape:vp_z="430 : 215 : 1"
       inkscape:vp_y="0 : 1000 : 0"
       inkscape:vp_x="0 : 215 : 1"
       sodipodi:type="inkscape:persp3d" />
    <inkscape:perspective
       id="perspective3730"
       inkscape:persp3d-origin="88.929146 : 101.19778 : 1"
       inkscape:vp_z="177.85829 : 151.79668 : 1"
       inkscape:vp_y="0 : 1000 : 0"
       inkscape:vp_x="0 : 151.79668 : 1"
       sodipodi:type="inkscape:persp3d" />
    <inkscape:perspective
       id="perspective7840"
       inkscape:persp3d-origin="0.5 : 0.33333333 : 1"
       inkscape:vp_z="1 : 0.5 : 1"
       inkscape:vp_y="0 : 1000 : 0"
       inkscape:vp_x="0 : 0.5 : 1"
       sodipodi:type="inkscape:persp3d" />
  </defs>
  <path
     style="color:#000000;font-style:normal;font-variant:normal;font-weight:normal;font-stretch:normal;font-size:medium;line-height:normal;font-family:sans-serif;text-indent:0;text-align:start;text-decoration:none;text-decoration-line:none;text-decoration-style:solid;text-decoration-color:#000000;letter-spacing:normal;word-spacing:normal;text-transform:none;direction:ltr;block-progression:tb;writing-mode:lr-tb;baseline-shift:baseline;text-anchor:start;white-space:normal;clip-rule:nonzero;display:inline;overflow:visible;visibility:visible;opacity:1;isolation:auto;mix-blend-mode:normal;color-interpolation:sRGB;color-interpolation-filters:linearRGB;solid-color:#000000;solid-opacity:1;fill:#800000;fill-opacity:1;fill-rule:nonzero;stroke:none;stroke-width:39.02275467;stroke-linecap:round;stroke-linejoin:round;stroke-miterlimit:4;stroke-dasharray:none;stroke-dashoffset:0;stroke-opacity:1;color-rendering:auto;image-rendering:auto;shape-rendering:auto;text-rendering:auto;enable-background:accumulate"
     d="M 494.27734 60.328125 L 80.636719 66.181641 A 19.513328 19.513328 0 0 0 61.402344 85.400391 L 59.691406 200.51758 A 19.513328 19.513328 0 0 0 80.128906 220.29688 L 127.625 218.0332 L 71.509766 509.29883 A 19.513328 19.513328 0 1 0 109.82617 516.68164 L 119.9707 464.02734 L 303.49609 402.29688 L 319.16211 508.04492 A 19.513328 19.513328 0 1 0 357.76367 502.32617 L 310.59375 183.93945 L 499.58398 98.96875 L 499.58398 336.71289 A 15.610662 15.610662 0 0 0 491.14258 354.92969 C 491.14258 354.92969 493.48051 364.04776 495.3457 375.73047 C 496.83719 385.07244 497.64102 396.02557 497.26367 403.5 C 493.80018 403.26175 488.56318 402.39959 482.79102 400.68555 C 468.8834 396.55569 454.53711 389.68164 454.53711 389.68164 A 15.610662 15.610662 0 1 0 440.91602 417.77148 C 440.91602 417.77148 456.66622 425.49249 473.9043 430.61133 C 482.52334 433.17075 491.42062 435.34229 500.96289 434.92773 C 505.73403 434.72046 510.96711 433.89707 516.27148 430.66211 C 521.57586 427.42715 526.16487 420.99528 527.43164 414.5332 C 530.32601 399.76844 528.28342 384.02209 526.17383 370.80859 C 524.06424 357.59509 521.37891 347.16211 521.37891 347.16211 A 15.610662 15.610662 0 0 0 516.83789 339.41797 L 516.83789 77.835938 A 8.6278912 8.6278912 0 0 0 511.16406 69.619141 A 19.513328 19.513328 0 0 0 494.27734 60.328125 z M 400.61719 100.68164 L 304.65234 143.82812 L 298.47461 102.12695 L 400.61719 100.68164 z M 259.28711 103.89648 L 267.66602 160.45703 L 238.23047 173.69141 L 175.33008 176.69141 L 188.8418 106.55469 L 259.28711 103.89648 z M 149.54883 104.23438 L 135.2207 178.60352 L 99.017578 180.33008 L 100.14062 104.93359 L 149.54883 104.23438 z M 273.60938 200.56836 L 277.31055 225.55664 L 153.70117 288.94531 L 167.73242 216.12109 L 243.78711 212.49414 A 19.513328 19.513328 0 0 0 250.85742 210.79883 L 273.60938 200.56836 z M 280.33008 245.93555 L 298.57617 369.09375 L 166.99414 304.05859 L 280.33008 245.93555 z M 148.37109 316.61914 L 289.55664 386.40039 L 124.21094 442.01562 L 148.37109 316.61914 z "
     id="path5183" />
</svg>
