<?xml version="1.0" encoding="UTF-8" standalone="no"?>
<!-- Created with Inkscape (http://www.inkscape.org/) -->

<svg
   xmlns:dc="http://purl.org/dc/elements/1.1/"
   xmlns:cc="http://creativecommons.org/ns#"
   xmlns:rdf="http://www.w3.org/1999/02/22-rdf-syntax-ns#"
   xmlns:svg="http://www.w3.org/2000/svg"
   xmlns="http://www.w3.org/2000/svg"
   xmlns:sodipodi="http://sodipodi.sourceforge.net/DTD/sodipodi-0.dtd"
   xmlns:inkscape="http://www.inkscape.org/namespaces/inkscape"
   version="1.0"
   width="580"
   height="580"
   id="svg2"
   sodipodi:version="0.32"
   inkscape:version="0.91 r13725"
   sodipodi:docname="military_bunker.svg"
   inkscape:output_extension="org.inkscape.output.svg.inkscape">
  <metadata
     id="metadata10">
    <rdf:RDF>
      <cc:Work
         rdf:about="">
        <dc:format>image/svg+xml</dc:format>
        <dc:type
           rdf:resource="http://purl.org/dc/dcmitype/StillImage" />
        <cc:license
           rdf:resource="http://web.resource.org/cc/PublicDomain" />
        <dc:language>en</dc:language>
        <dc:title />
      </cc:Work>
    </rdf:RDF>
  </metadata>
  <sodipodi:namedview
     inkscape:window-height="972"
     inkscape:window-width="1280"
     inkscape:pageshadow="2"
     inkscape:pageopacity="0.0"
     guidetolerance="10.0"
     gridtolerance="10.0"
     objecttolerance="10.0"
     borderopacity="1.0"
     bordercolor="#666666"
     pagecolor="#ffffff"
     id="base"
     showgrid="false"
     inkscape:zoom="1"
     inkscape:cx="269.84382"
     inkscape:cy="137.45187"
     inkscape:window-x="-8"
     inkscape:window-y="-8"
     inkscape:current-layer="svg2"
     showguides="true"
     inkscape:guide-bbox="true"
     inkscape:window-maximized="1" />
  <defs
     id="defs4">
    <inkscape:perspective
       sodipodi:type="inkscape:persp3d"
       inkscape:vp_x="0 : 290 : 1"
       inkscape:vp_y="0 : 1000 : 0"
       inkscape:vp_z="580 : 290 : 1"
       inkscape:persp3d-origin="290 : 193.33333 : 1"
       id="perspective12" />
    <style
       type="text/css"
       id="style6">
   
    .fil0 {fill:#EF7900}
   
  </style>
    <inkscape:perspective
       id="perspective6807"
       inkscape:persp3d-origin="29.116032 : 19.410688 : 1"
       inkscape:vp_z="58.232063 : 29.116032 : 1"
       inkscape:vp_y="0 : 1000 : 0"
       inkscape:vp_x="0 : 29.116032 : 1"
       sodipodi:type="inkscape:persp3d" />
    <inkscape:perspective
       id="perspective6954"
       inkscape:persp3d-origin="290 : 193.33333 : 1"
       inkscape:vp_z="580 : 290 : 1"
       inkscape:vp_y="0 : 1000 : 0"
       inkscape:vp_x="0 : 290 : 1"
       sodipodi:type="inkscape:persp3d" />
    <inkscape:perspective
       id="perspective2541"
       inkscape:persp3d-origin="240 : 160 : 1"
       inkscape:vp_z="480 : 240 : 1"
       inkscape:vp_y="0 : 1000 : 0"
       inkscape:vp_x="0 : 240 : 1"
       sodipodi:type="inkscape:persp3d" />
    <inkscape:perspective
       id="perspective2750"
       inkscape:persp3d-origin="215 : 143.33333 : 1"
       inkscape:vp_z="430 : 215 : 1"
       inkscape:vp_y="0 : 1000 : 0"
       inkscape:vp_x="0 : 215 : 1"
       sodipodi:type="inkscape:persp3d" />
    <inkscape:perspective
       id="perspective2830"
       inkscape:persp3d-origin="0.5 : 0.33333333 : 1"
       inkscape:vp_z="1 : 0.5 : 1"
       inkscape:vp_y="0 : 1000 : 0"
       inkscape:vp_x="0 : 0.5 : 1"
       sodipodi:type="inkscape:persp3d" />
    <inkscape:perspective
       id="perspective3648"
       inkscape:persp3d-origin="0.5 : 0.33333333 : 1"
       inkscape:vp_z="1 : 0.5 : 1"
       inkscape:vp_y="0 : 1000 : 0"
       inkscape:vp_x="0 : 0.5 : 1"
       sodipodi:type="inkscape:persp3d" />
    <inkscape:perspective
       id="perspective3675"
       inkscape:persp3d-origin="0.5 : 0.33333333 : 1"
       inkscape:vp_z="1 : 0.5 : 1"
       inkscape:vp_y="0 : 1000 : 0"
       inkscape:vp_x="0 : 0.5 : 1"
       sodipodi:type="inkscape:persp3d" />
    <inkscape:perspective
       id="perspective3736"
       inkscape:persp3d-origin="0.5 : 0.33333333 : 1"
       inkscape:vp_z="1 : 0.5 : 1"
       inkscape:vp_y="0 : 1000 : 0"
       inkscape:vp_x="0 : 0.5 : 1"
       sodipodi:type="inkscape:persp3d" />
    <inkscape:perspective
       id="perspective3825"
       inkscape:persp3d-origin="0.5 : 0.33333333 : 1"
       inkscape:vp_z="1 : 0.5 : 1"
       inkscape:vp_y="0 : 1000 : 0"
       inkscape:vp_x="0 : 0.5 : 1"
       sodipodi:type="inkscape:persp3d" />
  </defs>
  <path
     style="color:#000000;font-style:normal;font-variant:normal;font-weight:normal;font-stretch:normal;font-size:medium;line-height:normal;font-family:sans-serif;text-indent:0;text-align:start;text-decoration:none;text-decoration-line:none;text-decoration-style:solid;text-decoration-color:#000000;letter-spacing:normal;word-spacing:normal;text-transform:none;direction:ltr;block-progression:tb;writing-mode:lr-tb;baseline-shift:baseline;text-anchor:start;white-space:normal;clip-rule:nonzero;display:inline;overflow:visible;visibility:visible;opacity:1;isolation:auto;mix-blend-mode:normal;color-interpolation:sRGB;color-interpolation-filters:linearRGB;solid-color:#000000;solid-opacity:1;fill:#800000;fill-opacity:1;fill-rule:nonzero;stroke:none;stroke-width:80;stroke-linecap:round;stroke-linejoin:miter;stroke-miterlimit:4;stroke-dasharray:none;stroke-dashoffset:0;stroke-opacity:1;color-rendering:auto;image-rendering:auto;shape-rendering:auto;text-rendering:auto;enable-background:accumulate"
     d="M 290.23047,38.994141 C 268.15366,39.326164 250.5202,57.481488 250.83203,79.558594 L 250.83203,85.5 C 223.35075,90.779954 197.82616,101.69141 175.51562,116.98828 L 124.6582,66.130859 C 117.12144,58.378182 106.76742,54.006471 95.955078,54.011719 79.675769,54.019787 65.024982,63.891997 58.905188,78.977224 52.785393,94.062452 56.417318,111.35162 68.089844,122.69922 L 119.74219,174.35156 C 105.46132,196.50234 95.420482,221.61671 90.765625,248.5293 L 86.207031,248.70117 C 63.879703,249.20426 46.288239,267.89089 47.132829,290.20789 47.977418,312.52489 66.930934,329.82847 89.232422,328.64258 L 93.121094,328.49609 C 98.673077,352.13049 108.42636,374.17996 121.53906,393.81445 L 68.089844,447.26367 C 52.083167,462.81679 51.898939,488.4599 67.680455,504.24142 83.46197,520.02293 109.10508,519.83871 124.6582,503.83203 L 178.2207,450.27148 C 199.88118,464.61453 224.45439,474.87349 250.83203,479.94141 L 250.83203,485.78516 C 250.51647,508.0978 268.51718,526.35484 290.83203,526.35484 313.14688,526.35484 331.14759,508.0978 330.83203,485.78516 L 330.83203,479.05273 C 355.29851,473.78181 378.13464,464.02986 398.43555,450.69922 L 451.57031,503.83203 C 467.12344,519.83864 492.7665,520.02284 508.54799,504.24135 524.32948,488.45986 524.14528,462.8168 508.13867,447.26367 L 455.33984,394.46289 C 468.63786,374.71561 478.5225,352.49856 484.14258,328.67188 L 491.94531,328.67188 C 514.25795,328.98744 532.51499,310.98673 532.51499,288.67188 532.51499,266.35703 514.25795,248.35632 491.94531,248.67188 L 486.5625,248.67188 C 481.87296,221.44126 471.6669,196.05144 457.13672,173.70312 L 508.13867,122.69922 C 519.96881,111.19837 523.5246,93.614314 517.09256,78.420547 510.66053,63.226779 495.56026,53.540464 479.06836,54.029297 468.67821,54.337377 458.81597,58.677633 451.57031,66.130859 L 401.1543,116.54688 C 380.18313,102.28596 356.395,91.893829 330.83203,86.386719 L 330.83203,79.558594 C 331.15051,57.010283 312.77848,38.655043 290.23047,38.994141 Z M 289.62626,144.6426 C 370.4596,145.64256 429.47852,206.91504 427.37429,284.79905 425.27007,362.68306 367.98842,419.74625 288.22854,420.6081 208.46867,421.46995 147.82617,359.5611 147.82617,282.7207 147.82617,205.67541 208.79293,143.64263 289.62626,144.6426 Z"
     id="path3831"
     inkscape:connector-curvature="0"
     sodipodi:nodetypes="scccccsccccsccccsccccsccccsccccsccccscccccscccsc" />
</svg>
