<?xml version="1.0" encoding="UTF-8" standalone="no"?>
<!-- Created with Inkscape (http://www.inkscape.org/) -->

<svg
   xmlns:dc="http://purl.org/dc/elements/1.1/"
   xmlns:cc="http://creativecommons.org/ns#"
   xmlns:rdf="http://www.w3.org/1999/02/22-rdf-syntax-ns#"
   xmlns:svg="http://www.w3.org/2000/svg"
   xmlns="http://www.w3.org/2000/svg"
   xmlns:sodipodi="http://sodipodi.sourceforge.net/DTD/sodipodi-0.dtd"
   xmlns:inkscape="http://www.inkscape.org/namespaces/inkscape"
   version="1.0"
   width="580"
   height="580"
   id="svg2"
   sodipodi:version="0.32"
   inkscape:version="0.91 r13725"
   sodipodi:docname="mine_abandoned.svg"
   inkscape:output_extension="org.inkscape.output.svg.inkscape">
  <metadata
     id="metadata10">
    <rdf:RDF>
      <cc:Work
         rdf:about="">
        <dc:format>image/svg+xml</dc:format>
        <dc:type
           rdf:resource="http://purl.org/dc/dcmitype/StillImage" />
        <cc:license
           rdf:resource="http://web.resource.org/cc/PublicDomain" />
        <dc:language>en</dc:language>
        <dc:title />
      </cc:Work>
    </rdf:RDF>
  </metadata>
  <sodipodi:namedview
     inkscape:window-height="972"
     inkscape:window-width="1280"
     inkscape:pageshadow="2"
     inkscape:pageopacity="0.0"
     guidetolerance="10.0"
     gridtolerance="10.0"
     objecttolerance="10.0"
     borderopacity="1.0"
     bordercolor="#666666"
     pagecolor="#ffffff"
     id="base"
     showgrid="false"
     inkscape:zoom="0.70710678"
     inkscape:cx="175.76154"
     inkscape:cy="57.494417"
     inkscape:window-x="-8"
     inkscape:window-y="-8"
     inkscape:current-layer="svg2"
     showguides="true"
     inkscape:guide-bbox="true"
     inkscape:window-maximized="1" />
  <defs
     id="defs4">
    <inkscape:perspective
       sodipodi:type="inkscape:persp3d"
       inkscape:vp_x="0 : 290 : 1"
       inkscape:vp_y="0 : 1000 : 0"
       inkscape:vp_z="580 : 290 : 1"
       inkscape:persp3d-origin="290 : 193.33333 : 1"
       id="perspective12" />
    <style
       type="text/css"
       id="style6">
   
    .fil0 {fill:#EF7900}
   
  </style>
    <inkscape:perspective
       id="perspective6807"
       inkscape:persp3d-origin="29.116032 : 19.410688 : 1"
       inkscape:vp_z="58.232063 : 29.116032 : 1"
       inkscape:vp_y="0 : 1000 : 0"
       inkscape:vp_x="0 : 29.116032 : 1"
       sodipodi:type="inkscape:persp3d" />
    <inkscape:perspective
       id="perspective6954"
       inkscape:persp3d-origin="290 : 193.33333 : 1"
       inkscape:vp_z="580 : 290 : 1"
       inkscape:vp_y="0 : 1000 : 0"
       inkscape:vp_x="0 : 290 : 1"
       sodipodi:type="inkscape:persp3d" />
    <inkscape:perspective
       id="perspective2541"
       inkscape:persp3d-origin="240 : 160 : 1"
       inkscape:vp_z="480 : 240 : 1"
       inkscape:vp_y="0 : 1000 : 0"
       inkscape:vp_x="0 : 240 : 1"
       sodipodi:type="inkscape:persp3d" />
    <inkscape:perspective
       id="perspective2750"
       inkscape:persp3d-origin="215 : 143.33333 : 1"
       inkscape:vp_z="430 : 215 : 1"
       inkscape:vp_y="0 : 1000 : 0"
       inkscape:vp_x="0 : 215 : 1"
       sodipodi:type="inkscape:persp3d" />
  </defs>
  <path
     style="color:#000000;font-style:normal;font-variant:normal;font-weight:normal;font-stretch:normal;font-size:medium;line-height:normal;font-family:sans-serif;text-indent:0;text-align:start;text-decoration:none;text-decoration-line:none;text-decoration-style:solid;text-decoration-color:#000000;letter-spacing:normal;word-spacing:normal;text-transform:none;direction:ltr;block-progression:tb;writing-mode:lr-tb;baseline-shift:baseline;text-anchor:start;white-space:normal;clip-rule:nonzero;display:inline;overflow:visible;visibility:visible;opacity:1;isolation:auto;mix-blend-mode:normal;color-interpolation:sRGB;color-interpolation-filters:linearRGB;solid-color:#000000;solid-opacity:1;fill:#000080;fill-opacity:1;fill-rule:nonzero;stroke:none;stroke-width:10;stroke-linecap:round;stroke-linejoin:round;stroke-miterlimit:4;stroke-dasharray:none;stroke-dashoffset:0;stroke-opacity:1;color-rendering:auto;image-rendering:auto;shape-rendering:auto;text-rendering:auto;enable-background:accumulate"
     d="M 212.11133 48.25 C 211.80098 48.258334 211.48888 48.281658 211.17383 48.322266 A 5.0005 5.0005 0 0 0 209.46094 48.869141 C 194.16515 57.016496 181.40622 68.088709 167.85352 76.8125 A 5.0005 5.0005 0 0 0 167.70117 76.916016 C 129.14227 103.7951 91.693893 134.52027 66.255859 175.60156 C 54.003955 194.28429 41.017147 212.88435 29.15625 232.02148 A 5.0005 5.0005 0 0 0 28.421875 235.04492 C 28.93872 241.68945 33.458553 246.09392 37.474609 248.80078 C 41.490666 251.50764 45.319012 253.43235 47.189453 255.38281 A 5.0005 5.0005 0 0 0 48.013672 256.07617 C 61.010168 264.78836 73.503673 276.97584 89.3125 284.38477 A 5.0005 5.0005 0 0 0 92.597656 284.7207 C 98.910413 283.21156 102.77745 278.56546 105.42773 274.41797 C 108.07802 270.27048 110.05089 266.31457 112.20312 264.08594 A 5.0005 5.0005 0 0 0 112.6875 263.5 C 126.44464 244.06019 139.57638 224.25379 153.43359 205.30273 C 153.98556 205.95541 154.51966 206.56601 155.12305 207.33203 C 156.93787 209.63601 159.06639 212.40092 162.27148 214.6543 C 260.38539 312.58834 357.83667 411.20874 455.70898 509.43555 A 5.0005 5.0005 0 0 0 456.85938 510.29688 C 459.62977 511.80527 462.77014 512.27437 465.49805 511.75391 C 468.22595 511.23344 470.45041 509.9168 472.29492 508.4668 C 475.98394 505.5668 478.57704 501.90927 480.43555 499.84375 A 5.0005 5.0005 0 0 0 480.60156 499.65039 C 482.48686 497.32685 485.90151 494.73784 489.25781 491.48633 C 492.61411 488.23481 496.13385 483.85213 496.56445 477.85547 A 5.0005 5.0005 0 0 0 495.43359 474.31445 C 482.72178 458.90745 467.31033 445.90644 453.50586 432.42578 A 5.0005 5.0005 0 0 0 453.4707 432.39062 C 363.73897 346.51514 273.73604 260.09015 183.77344 174.24023 C 184.14055 173.97109 184.45848 173.61283 184.82227 173.20703 C 209.41298 154.96649 235.34573 137.82719 259.55859 118.45117 A 5.0005 5.0005 0 0 0 261.19531 116.07812 C 263.24705 109.70526 260.42047 103.8873 257.41406 100.08398 C 254.40765 96.280672 251.21975 93.290734 250.00391 91.017578 A 5.0005 5.0005 0 0 0 249.46289 90.207031 C 239.05666 77.502228 230.33784 61.869484 216.84961 49.695312 A 5.0005 5.0005 0 0 0 214.8457 48.591797 C 213.9533 48.342303 213.04238 48.224997 212.11133 48.25 z M 376.79297 49.835938 C 376.48113 49.847757 376.16377 49.875195 375.8418 49.917969 A 5.0005 5.0005 0 0 0 373.95117 50.574219 C 361.95624 57.683053 353.50913 68.127278 344.00781 75.417969 A 5.0005 5.0005 0 0 0 343.69922 75.675781 C 335.05215 83.494375 324.4369 91.043373 316.50391 101.48242 A 5.0005 5.0005 0 0 0 315.48633 104.39844 C 315.34759 110.77949 319.10723 115.48636 322.56641 118.68945 C 326.02559 121.89255 329.41657 124.37294 330.97852 126.56055 A 5.0005 5.0005 0 0 0 331.5332 127.21289 L 380.19141 175.30273 C 356.46505 201.10553 332.11549 226.52291 308.51172 252.61523 A 5.0005 5.0005 0 0 0 307.45898 254.43945 C 305.55217 260.37896 308.33219 265.96922 311.44727 269.26562 C 314.46442 272.45842 317.82542 274.73856 319.48438 276.4043 C 321.86948 279.76375 325.30123 283.0053 329.72852 284.91211 C 332.0457 285.91011 334.72498 286.52216 337.58008 286.10742 C 340.43517 285.69268 343.29937 284.10974 345.39648 281.65234 A 5.0005 5.0005 0 0 0 345.41211 281.63477 C 368.02074 254.89534 391.81911 228.74208 415.56641 202.86133 C 427.95497 210.49201 436.92656 224.82094 452.29688 233.84766 A 5.0005 5.0005 0 0 0 452.5625 233.99219 C 479.4408 247.66116 505.92496 263.00431 533.60742 275.90625 A 5.0005 5.0005 0 0 0 535.32812 276.35938 C 538.05786 276.57346 540.80066 275.67148 542.71094 274.07422 C 544.62121 272.47696 545.74168 270.37941 546.29492 268.26172 C 547.27759 264.50027 546.59539 260.28493 543.78711 257.05078 C 527.1558 225.60372 515.46218 190.96878 497.15039 159.01367 A 5.0005 5.0005 0 0 0 496.29297 157.91016 C 488.37648 150.23571 480.0731 143.11295 472.0625 135.97656 C 473.80122 134.47001 475.32114 133.15043 477.23242 131.27734 C 480.55493 128.02124 483.90623 123.72493 484.5625 117.9375 A 5.0005 5.0005 0 0 0 483.45703 114.20117 C 477.94478 107.49396 470.79405 99.073946 460.15234 96.769531 A 5.0005 5.0005 0 0 0 457.19336 97.03125 C 450.14052 99.92917 446.13449 104.93831 442.41602 109.01367 C 422.44566 90.44449 402.89207 71.59357 383.71875 52.117188 A 5.0005 5.0005 0 0 0 382.43359 51.173828 C 380.90045 50.389242 378.97582 49.753203 376.79297 49.835938 z M 241.68555 328.88086 C 240.82839 328.90601 239.95361 329.02609 239.06836 329.25977 A 5.0005 5.0005 0 0 0 237.64258 329.88672 C 227.09837 336.65702 221.27254 346.86051 213.98828 353.38086 A 5.0005 5.0005 0 0 0 213.66016 353.70312 C 175.09995 395.18744 135.99827 436.33509 97.689453 478.12109 A 5.0005 5.0005 0 0 0 96.582031 480.07812 C 95.648508 483.22758 95.852744 486.47644 96.888672 489.11523 C 97.924599 491.75403 99.60089 493.76699 101.30078 495.43359 C 104.70057 498.7668 108.43302 501.15631 110.02734 502.90234 A 5.0005 5.0005 0 0 0 110.69922 503.51758 C 112.77899 505.09259 115.40399 508.33723 118.75781 511.39062 C 122.11163 514.44403 126.99114 517.53468 132.97266 516.73828 A 5.0005 5.0005 0 0 0 135.86719 515.29688 C 160.597 490.29725 182.5557 463.07265 206.00586 437.68359 A 5.0005 5.0005 0 0 0 206.08984 437.58984 C 227.46875 413.23361 249.71505 389.29147 270.69922 364.37695 A 5.0005 5.0005 0 0 0 271.76562 362.19922 C 273.15914 355.6629 269.67776 350.14349 266.16211 346.75781 C 262.64646 343.37213 258.90253 340.8651 257.30664 338.95312 A 5.0005 5.0005 0 0 0 257.14062 338.76367 C 255.71226 337.21797 253.79833 334.59692 251.02148 332.30469 C 248.93885 330.58551 245.91231 329.03066 242.53711 328.88672 C 242.25584 328.87472 241.97127 328.87248 241.68555 328.88086 z "
     id="path4159" />
</svg>
