<?xml version="1.0" encoding="UTF-8" standalone="no"?>
<!-- Created with Inkscape (http://www.inkscape.org/) -->

<svg
   xmlns:dc="http://purl.org/dc/elements/1.1/"
   xmlns:cc="http://creativecommons.org/ns#"
   xmlns:rdf="http://www.w3.org/1999/02/22-rdf-syntax-ns#"
   xmlns:svg="http://www.w3.org/2000/svg"
   xmlns="http://www.w3.org/2000/svg"
   xmlns:sodipodi="http://sodipodi.sourceforge.net/DTD/sodipodi-0.dtd"
   xmlns:inkscape="http://www.inkscape.org/namespaces/inkscape"
   version="1.0"
   width="580"
   height="580"
   id="svg2"
   sodipodi:version="0.32"
   inkscape:version="0.91 r13725"
   sodipodi:docname="tower_communications.svg"
   inkscape:output_extension="org.inkscape.output.svg.inkscape">
  <metadata
     id="metadata10">
    <rdf:RDF>
      <cc:Work
         rdf:about="">
        <dc:format>image/svg+xml</dc:format>
        <dc:type
           rdf:resource="http://purl.org/dc/dcmitype/StillImage" />
        <cc:license
           rdf:resource="http://web.resource.org/cc/PublicDomain" />
        <dc:language>en</dc:language>
      </cc:Work>
    </rdf:RDF>
  </metadata>
  <sodipodi:namedview
     inkscape:window-height="972"
     inkscape:window-width="1280"
     inkscape:pageshadow="2"
     inkscape:pageopacity="0.0"
     guidetolerance="10.0"
     gridtolerance="10.0"
     objecttolerance="10.0"
     borderopacity="1.0"
     bordercolor="#666666"
     pagecolor="#ffffff"
     id="base"
     showgrid="false"
     inkscape:zoom="0.5"
     inkscape:cx="50.577223"
     inkscape:cy="158.51431"
     inkscape:window-x="-8"
     inkscape:window-y="-8"
     inkscape:current-layer="svg2"
     inkscape:window-maximized="1" />
  <defs
     id="defs4">
    <inkscape:perspective
       sodipodi:type="inkscape:persp3d"
       inkscape:vp_x="0 : 290 : 1"
       inkscape:vp_y="0 : 1000 : 0"
       inkscape:vp_z="580 : 290 : 1"
       inkscape:persp3d-origin="290 : 193.33333 : 1"
       id="perspective12" />
    <style
       type="text/css"
       id="style6">
   
    .fil0 {fill:#EF7900}
   
  </style>
    <inkscape:perspective
       id="perspective6807"
       inkscape:persp3d-origin="29.116032 : 19.410688 : 1"
       inkscape:vp_z="58.232063 : 29.116032 : 1"
       inkscape:vp_y="0 : 1000 : 0"
       inkscape:vp_x="0 : 29.116032 : 1"
       sodipodi:type="inkscape:persp3d" />
    <inkscape:perspective
       id="perspective6954"
       inkscape:persp3d-origin="290 : 193.33333 : 1"
       inkscape:vp_z="580 : 290 : 1"
       inkscape:vp_y="0 : 1000 : 0"
       inkscape:vp_x="0 : 290 : 1"
       sodipodi:type="inkscape:persp3d" />
    <inkscape:perspective
       id="perspective2541"
       inkscape:persp3d-origin="240 : 160 : 1"
       inkscape:vp_z="480 : 240 : 1"
       inkscape:vp_y="0 : 1000 : 0"
       inkscape:vp_x="0 : 240 : 1"
       sodipodi:type="inkscape:persp3d" />
    <inkscape:perspective
       id="perspective2750"
       inkscape:persp3d-origin="215 : 143.33333 : 1"
       inkscape:vp_z="430 : 215 : 1"
       inkscape:vp_y="0 : 1000 : 0"
       inkscape:vp_x="0 : 215 : 1"
       sodipodi:type="inkscape:persp3d" />
    <inkscape:perspective
       id="perspective3730"
       inkscape:persp3d-origin="88.929146 : 101.19778 : 1"
       inkscape:vp_z="177.85829 : 151.79668 : 1"
       inkscape:vp_y="0 : 1000 : 0"
       inkscape:vp_x="0 : 151.79668 : 1"
       sodipodi:type="inkscape:persp3d" />
  </defs>
  <path
     style="color:#000000;font-style:normal;font-variant:normal;font-weight:normal;font-stretch:normal;font-size:medium;line-height:normal;font-family:sans-serif;text-indent:0;text-align:start;text-decoration:none;text-decoration-line:none;text-decoration-style:solid;text-decoration-color:#000000;letter-spacing:normal;word-spacing:normal;text-transform:none;direction:ltr;block-progression:tb;writing-mode:lr-tb;baseline-shift:baseline;text-anchor:start;white-space:normal;clip-rule:nonzero;display:inline;overflow:visible;visibility:visible;opacity:1;isolation:auto;mix-blend-mode:normal;color-interpolation:sRGB;color-interpolation-filters:linearRGB;solid-color:#000000;solid-opacity:1;fill:#800000;fill-opacity:1;fill-rule:nonzero;stroke:none;stroke-width:1.25;stroke-linecap:round;stroke-linejoin:miter;stroke-miterlimit:4;stroke-dasharray:none;stroke-dashoffset:0;stroke-opacity:1;color-rendering:auto;image-rendering:auto;shape-rendering:auto;text-rendering:auto;enable-background:accumulate"
     d="M 426.73828 38.537109 A 2.6214145 2.3504701 0 0 0 425.17383 42.662109 C 460.87717 71.198747 479.9537 112.86935 476.9082 155.66797 C 473.8627 198.46659 449.03285 237.62466 409.57422 261.86133 A 2.6217005 2.3507266 0 1 0 412.53711 265.74023 C 453.32197 240.68895 478.99277 200.20391 482.14062 155.9668 C 485.28848 111.72969 465.56546 68.648116 428.66211 39.152344 A 2.6214145 2.3504701 0 0 0 427 38.537109 A 2.6214145 2.3504701 0 0 0 426.73828 38.537109 z M 179.08789 38.75 A 2.6214145 2.3504701 0 0 0 178.90625 38.751953 A 2.6214145 2.3504701 0 0 0 177.24414 39.369141 C 140.34079 68.864913 120.61777 111.94648 123.76562 156.18359 C 126.91349 200.4207 152.58428 240.9038 193.36914 265.95508 A 2.6214145 2.3504701 0 1 0 196.33203 262.07812 C 156.8734 237.84145 132.04355 198.68143 128.99805 155.88281 C 125.95255 113.08419 145.02908 71.413591 180.73242 42.876953 A 2.6214145 2.3504701 0 0 0 179.08789 38.75 z M 384.21484 73.876953 A 2.6214145 2.3504701 0 0 0 382.66211 78.091797 C 407.92357 96.008251 421.77865 123.88466 419.74805 152.70703 C 417.71745 181.5294 400.05951 207.62119 372.48438 222.54492 A 2.6217048 2.3507304 0 1 0 375.19336 226.57031 C 404.23552 210.85264 422.84184 183.35965 424.98047 153.00391 C 427.1191 122.64816 412.51945 93.275873 385.91406 74.40625 A 2.6214145 2.3504701 0 0 0 384.21484 73.876953 z M 221.69141 74.09375 A 2.6214145 2.3504701 0 0 0 219.99414 74.621094 C 193.38875 93.490717 178.7891 122.863 180.92773 153.21875 C 183.06636 183.57449 201.67073 211.06749 230.71289 226.78516 A 2.6214145 2.3504701 0 1 0 233.42188 222.76172 C 205.84674 207.83799 188.19076 181.7462 186.16016 152.92383 C 184.12956 124.10146 197.98463 96.223095 223.24609 78.306641 A 2.6214145 2.3504701 0 0 0 221.69141 74.09375 z M 353.2207 109.33789 A 2.6261434 2.1797127 0 0 0 351.66406 113.24414 C 364.05878 121.38165 370.85571 134.03996 369.85938 147.13086 C 368.86304 160.22175 360.2018 172.07137 346.67188 178.84961 A 2.6261434 2.1797127 0 1 0 349.38477 182.58008 C 364.38437 175.06556 373.99701 161.91913 375.10156 147.40625 C 376.20611 132.89338 368.66294 118.84761 354.92188 109.82617 A 2.6261434 2.1797127 0 0 0 353.2207 109.33789 z M 252.69531 109.53711 A 2.6261434 2.1797127 0 0 0 250.99414 110.02734 C 237.25307 119.04878 229.7099 133.09455 230.81445 147.60742 C 231.919 162.1203 241.53165 175.26673 256.53125 182.78125 A 2.6261434 2.1797127 0 1 0 259.24414 179.04883 C 245.71421 172.27059 237.05297 160.42292 236.05664 147.33203 C 235.06031 134.24113 241.85723 121.58282 254.25195 113.44531 A 2.6261434 2.1797127 0 0 0 252.69531 109.53711 z M 301.28516 123.7168 C 287.09229 123.64605 275.47926 133.14396 275.35547 144.92383 C 275.26426 153.60284 281.43818 161.12885 290.36914 164.54688 C 290.39016 165.68826 290.42391 166.95655 290.48047 168.42188 C 289.63316 186.38197 284.83751 240.9849 269.7168 305.90039 C 252.80872 378.48931 222.93469 465.0572 172.18555 532.79883 A 9.9056297 9.9056297 0 1 0 188.03906 544.67578 C 202.37577 525.53867 215.03572 505.1191 226.24219 484.05859 A 7.7116452 7.7116452 0 0 0 228.01953 482.79297 L 300.44141 415.75391 L 372.86133 482.79297 A 7.7116452 7.7116452 0 0 0 374.84961 484.16211 C 385.98241 505.02376 398.54489 525.25011 412.75391 544.2168 A 9.9056297 9.9056297 0 1 0 428.60742 532.33984 C 377.8583 464.59817 347.98229 378.03034 331.07422 305.44141 C 316.08875 241.10647 311.24246 186.86693 310.33203 168.41797 C 310.37992 167.10554 310.392 166.11071 310.41016 165.06836 C 319.92979 162.01068 326.75308 154.39425 326.90625 145.41602 A 1.3270179 1.1014271 0 0 0 326.90234 145.29492 A 1.3270179 1.1014271 0 0 0 326.90625 145.18164 C 326.95291 133.40137 315.47804 123.78753 301.28516 123.7168 z M 300.43555 253.50977 C 303.37524 270.78392 307.07709 289.73791 311.78125 309.93359 C 312.36216 312.42752 312.95952 314.94093 313.57031 317.4668 L 300.61133 329.46289 L 287.39062 317.22461 C 287.94234 314.93516 288.48263 312.65759 289.00977 310.39453 C 293.75609 290.01785 297.4836 270.90738 300.43555 253.50977 z M 283.93164 331.0957 L 291.38867 338 L 278.96094 349.50586 C 280.7056 343.30736 282.36714 337.16325 283.93164 331.0957 z M 317.03906 331.33203 C 318.55666 337.19781 320.16569 343.13769 321.85156 349.125 L 309.83398 338 L 317.03906 331.33203 z M 300.61328 346.53711 L 326.8418 370.81836 A 7.7116452 7.7116452 0 0 0 324.77539 372.21484 L 300.44141 394.74023 L 276.10742 372.21484 A 7.7116452 7.7116452 0 0 0 274.27148 370.92188 L 300.61328 346.53711 z M 333.04102 385.57812 C 339.8133 405.88133 347.62846 426.4482 356.64258 446.76562 L 311.79102 405.24805 L 333.04102 385.57812 z M 267.88867 385.62109 L 289.08984 405.24805 L 244.43164 446.58789 C 253.3881 426.33854 261.15516 405.84738 267.88867 385.62109 z "
     id="path4183" />
</svg>
