<?xml version="1.0" encoding="UTF-8" standalone="no"?>
<!-- Created with Inkscape (http://www.inkscape.org/) -->

<svg
   xmlns:dc="http://purl.org/dc/elements/1.1/"
   xmlns:cc="http://creativecommons.org/ns#"
   xmlns:rdf="http://www.w3.org/1999/02/22-rdf-syntax-ns#"
   xmlns:svg="http://www.w3.org/2000/svg"
   xmlns="http://www.w3.org/2000/svg"
   xmlns:sodipodi="http://sodipodi.sourceforge.net/DTD/sodipodi-0.dtd"
   xmlns:inkscape="http://www.inkscape.org/namespaces/inkscape"
   version="1.0"
   width="580"
   height="580"
   id="svg2"
   sodipodi:version="0.32"
   inkscape:version="0.91 r13725"
   sodipodi:docname="place_suburb.svg"
   inkscape:output_extension="org.inkscape.output.svg.inkscape">
  <metadata
     id="metadata2975">
    <rdf:RDF>
      <cc:Work
         rdf:about="">
        <dc:format>image/svg+xml</dc:format>
        <dc:type
           rdf:resource="http://purl.org/dc/dcmitype/StillImage" />
        <cc:license
           rdf:resource="http://web.resource.org/cc/PublicDomain" />
        <dc:language>en</dc:language>
        <dc:title />
      </cc:Work>
    </rdf:RDF>
  </metadata>
  <sodipodi:namedview
     inkscape:window-height="972"
     inkscape:window-width="1280"
     inkscape:pageshadow="2"
     inkscape:pageopacity="0.0"
     guidetolerance="10.0"
     gridtolerance="10.0"
     objecttolerance="10.0"
     borderopacity="1.0"
     bordercolor="#666666"
     pagecolor="#ffffff"
     id="base"
     inkscape:zoom="0.46083857"
     inkscape:cx="229.60127"
     inkscape:cy="145.07798"
     inkscape:window-x="-8"
     inkscape:window-y="-8"
     inkscape:current-layer="svg2"
     showgrid="false"
     inkscape:window-maximized="1" />
  <defs
     id="defs4">
    <inkscape:perspective
       sodipodi:type="inkscape:persp3d"
       inkscape:vp_x="0 : 290 : 1"
       inkscape:vp_y="0 : 1000 : 0"
       inkscape:vp_z="580 : 290 : 1"
       inkscape:persp3d-origin="290 : 193.33333 : 1"
       id="perspective2441" />
    <inkscape:perspective
       id="perspective3452"
       inkscape:persp3d-origin="30 : 20 : 1"
       inkscape:vp_z="60 : 30 : 1"
       inkscape:vp_y="0 : 1000 : 0"
       inkscape:vp_x="0 : 30 : 1"
       sodipodi:type="inkscape:persp3d" />
    <symbol
       viewBox="244.5 110 489 219.9"
       id="symbol-university">
      <path
         id="path4460"
         d="M79,43l57,119c0,0,21-96,104-96s124,106,124,106l43-133l82-17L0,17L79,43z" />
      <path
         id="path4462"
         d="M94,176l-21,39"
         stroke-width="20"
         stroke="#000000"
         fill="none" />
      <path
         id="path4464"
         d="M300,19c0,10.5-22.6,19-50.5,19S199,29.5,199,19s22.6-19,50.5-19S300,8.5,300,19z" />
      <path
         id="path4466"
         d="M112,216l-16-38L64,88c0,0-9-8-4-35s16-24,16-24"
         stroke-width="20"
         stroke="#000000"
         ill="none" />
    </symbol>
    <inkscape:perspective
       id="perspective4471"
       inkscape:persp3d-origin="372.04724 : 350.78739 : 1"
       inkscape:vp_z="744.09448 : 526.18109 : 1"
       inkscape:vp_y="0 : 1000 : 0"
       inkscape:vp_x="0 : 526.18109 : 1"
       sodipodi:type="inkscape:persp3d" />
    <inkscape:perspective
       id="perspective4668"
       inkscape:persp3d-origin="6 : 4 : 1"
       inkscape:vp_z="12 : 6 : 1"
       inkscape:vp_y="0 : 1000 : 0"
       inkscape:vp_x="0 : 6 : 1"
       sodipodi:type="inkscape:persp3d" />
    <inkscape:perspective
       id="perspective3671"
       inkscape:persp3d-origin="0.5 : 0.33333333 : 1"
       inkscape:vp_z="1 : 0.5 : 1"
       inkscape:vp_y="0 : 1000 : 0"
       inkscape:vp_x="0 : 0.5 : 1"
       sodipodi:type="inkscape:persp3d" />
    <inkscape:perspective
       id="perspective3813"
       inkscape:persp3d-origin="0.5 : 0.33333333 : 1"
       inkscape:vp_z="1 : 0.5 : 1"
       inkscape:vp_y="0 : 1000 : 0"
       inkscape:vp_x="0 : 0.5 : 1"
       sodipodi:type="inkscape:persp3d" />
  </defs>
  <g
     id="layer3"
     inkscape:label="Layout"
     style="display:none;stroke:#757575;stroke-opacity:1"
     transform="matrix(48.14969,0,0,48.14969,-536.27327,-33.306752)">
    <rect
       style="fill:none;stroke:#757575;stroke-width:0.10000000000000001;stroke-miterlimit:4;stroke-dasharray:none;stroke-opacity:1;display:inline"
       id="rect4134"
       width="10"
       height="10"
       x="1"
       y="1" />
    <rect
       style="fill:none;stroke:#757575;stroke-width:0.10000000000000001;stroke-miterlimit:4;stroke-dasharray:none;stroke-opacity:1;display:inline"
       id="rect4136"
       width="8"
       height="8"
       x="2"
       y="2" />
  </g>
  <path
     style="color:#000000;font-style:normal;font-variant:normal;font-weight:normal;font-stretch:normal;font-size:medium;line-height:normal;font-family:sans-serif;text-indent:0;text-align:start;text-decoration:none;text-decoration-line:none;text-decoration-style:solid;text-decoration-color:#000000;letter-spacing:normal;word-spacing:normal;text-transform:none;direction:ltr;block-progression:tb;writing-mode:lr-tb;baseline-shift:baseline;text-anchor:start;white-space:normal;clip-rule:nonzero;display:inline;overflow:visible;visibility:visible;opacity:1;isolation:auto;mix-blend-mode:normal;color-interpolation:sRGB;color-interpolation-filters:linearRGB;solid-color:#000000;solid-opacity:1;fill:#800000;fill-opacity:1;fill-rule:evenodd;stroke:none;stroke-width:10.20897579;stroke-linecap:round;stroke-linejoin:round;stroke-miterlimit:4;stroke-dasharray:none;stroke-dashoffset:0;stroke-opacity:1;color-rendering:auto;image-rendering:auto;shape-rendering:auto;text-rendering:auto;enable-background:accumulate"
     d="M 137.47656 54.923828 A 5.1049983 5.1049983 0 0 0 132.37305 60.033203 L 132.39453 82.941406 L 80.412109 69.445312 A 4.9230324 4.9230324 0 0 0 78.949219 69.291016 A 4.9230324 4.9230324 0 0 0 76.320312 70.199219 L 64.458984 78.646484 A 4.9230324 4.9230324 0 0 0 63.056641 85.128906 L 74.515625 104.85156 A 4.9230324 4.9230324 0 0 0 77.488281 107.13086 L 132.43164 121.96875 L 132.43555 125.29883 L 51.736328 146.82031 A 5.1331212 5.1331212 0 0 0 49.111328 148.5 L 30.154297 171.30859 A 5.1331212 5.1331212 0 0 0 31.566406 179.05078 L 50.078125 189.56641 A 5.1331212 5.1331212 0 0 0 54.181641 189.99219 L 132.47266 164.88867 L 132.63281 332.54883 A 5.1049983 5.1049983 0 0 0 137.73633 337.64844 L 162.36133 337.64844 A 5.1049983 5.1049983 0 0 0 167.46484 332.54492 L 167.46484 158.67773 L 242.10742 173.03711 A 5.1331212 5.1331212 0 0 0 246.13281 172.12109 L 262.62305 159.90234 A 5.1331212 5.1331212 0 0 0 263.57031 152.56641 L 246.63672 131.46094 A 5.1331212 5.1331212 0 0 0 243.29297 129.58398 L 167.46484 119.75391 L 167.46484 117.95898 L 221.45508 103.37695 A 4.9230324 4.9230324 0 0 0 224.42773 101.09766 L 235.88672 81.375 A 4.9230324 4.9230324 0 0 0 234.48633 74.892578 L 222.62305 66.445312 A 4.9230324 4.9230324 0 0 0 219.85938 65.533203 A 4.9230324 4.9230324 0 0 0 218.53125 65.689453 L 167.46484 78.949219 L 167.46484 60.027344 A 5.1049983 5.1049983 0 0 0 162.36133 54.923828 L 137.47656 54.923828 z M 308.2168 121.25781 A 5.7364826 5.7364826 0 0 0 302.48047 126.99805 L 302.68945 347.85742 L 183.3457 431.00977 A 10.62292 10.62292 0 0 0 183.87305 448.78516 L 341.07031 545.02148 A 10.62292 10.62292 0 0 0 345.38086 546.51172 L 409.60547 554.03125 A 10.62292 10.62292 0 0 0 418.375 550.96875 L 432.92969 536.32617 L 464.0332 532.24023 A 10.62292 10.62292 0 0 0 469.42773 529.88867 L 506.50586 499.16992 A 10.62292 10.62292 0 0 0 508.37305 484.81641 L 471.73828 433.54102 L 497.30664 397.42773 A 10.62292 10.62292 0 0 0 497.50391 385.44141 L 471.51758 346.04297 A 10.62292 10.62292 0 0 0 465.25586 341.59375 L 404.46484 326.2168 A 10.62292 10.62292 0 0 0 401.77734 325.89453 L 341.91406 326.36328 L 341.91406 184.94922 L 437.29492 188.8418 A 5.7680838 5.7680838 0 0 0 441.19727 187.53125 L 462.00195 170.38867 A 5.7680838 5.7680838 0 0 0 462.3125 161.76172 L 441.00977 141.45898 A 5.7680838 5.7680838 0 0 0 436.93555 139.86719 L 341.91406 141.43164 L 341.91406 126.99219 A 5.7364826 5.7364826 0 0 0 336.17773 121.25781 L 308.2168 121.25781 z M 400.58008 347.14648 L 456.05273 361.17969 L 475.77344 391.07812 L 450.03516 427.43164 A 10.62292 10.62292 0 0 0 450.0625 439.74414 L 485.33984 489.11914 L 458.23242 511.57617 L 426.56836 515.73633 A 10.62292 10.62292 0 0 0 420.41992 518.7793 L 406.94727 532.33008 L 350.16992 525.68359 L 208.82422 439.15039 L 302.71484 373.73242 L 302.77148 433.22461 A 5.7364826 5.7364826 0 0 0 308.50781 438.95508 L 336.17773 438.95508 A 5.7364826 5.7364826 0 0 0 341.91406 433.21875 L 341.91406 347.60742 L 400.58008 347.14648 z "
     id="path4193" />
</svg>
