<?xml version="1.0" encoding="UTF-8" standalone="no"?>
<!-- Created with Inkscape (http://www.inkscape.org/) -->

<svg
   xmlns:dc="http://purl.org/dc/elements/1.1/"
   xmlns:cc="http://creativecommons.org/ns#"
   xmlns:rdf="http://www.w3.org/1999/02/22-rdf-syntax-ns#"
   xmlns:svg="http://www.w3.org/2000/svg"
   xmlns="http://www.w3.org/2000/svg"
   xmlns:sodipodi="http://sodipodi.sourceforge.net/DTD/sodipodi-0.dtd"
   xmlns:inkscape="http://www.inkscape.org/namespaces/inkscape"
   version="1.0"
   width="580"
   height="580"
   id="svg2"
   sodipodi:version="0.32"
   inkscape:version="0.91 r13725"
   sodipodi:docname="tower_power.svg"
   inkscape:output_extension="org.inkscape.output.svg.inkscape">
  <metadata
     id="metadata10">
    <rdf:RDF>
      <cc:Work
         rdf:about="">
        <dc:format>image/svg+xml</dc:format>
        <dc:type
           rdf:resource="http://purl.org/dc/dcmitype/StillImage" />
        <cc:license
           rdf:resource="http://web.resource.org/cc/PublicDomain" />
        <dc:language>en</dc:language>
      </cc:Work>
    </rdf:RDF>
  </metadata>
  <sodipodi:namedview
     inkscape:window-height="972"
     inkscape:window-width="1280"
     inkscape:pageshadow="2"
     inkscape:pageopacity="0.0"
     guidetolerance="10.0"
     gridtolerance="10.0"
     objecttolerance="10.0"
     borderopacity="1.0"
     bordercolor="#666666"
     pagecolor="#ffffff"
     id="base"
     showgrid="false"
     inkscape:zoom="0.70710678"
     inkscape:cx="-27.299203"
     inkscape:cy="259.98847"
     inkscape:window-x="-8"
     inkscape:window-y="-8"
     inkscape:current-layer="svg2"
     inkscape:window-maximized="1" />
  <defs
     id="defs4">
    <inkscape:perspective
       sodipodi:type="inkscape:persp3d"
       inkscape:vp_x="0 : 290 : 1"
       inkscape:vp_y="0 : 1000 : 0"
       inkscape:vp_z="580 : 290 : 1"
       inkscape:persp3d-origin="290 : 193.33333 : 1"
       id="perspective12" />
    <style
       type="text/css"
       id="style6">
   
    .fil0 {fill:#EF7900}
   
  </style>
    <inkscape:perspective
       id="perspective6807"
       inkscape:persp3d-origin="29.116032 : 19.410688 : 1"
       inkscape:vp_z="58.232063 : 29.116032 : 1"
       inkscape:vp_y="0 : 1000 : 0"
       inkscape:vp_x="0 : 29.116032 : 1"
       sodipodi:type="inkscape:persp3d" />
    <inkscape:perspective
       id="perspective6954"
       inkscape:persp3d-origin="290 : 193.33333 : 1"
       inkscape:vp_z="580 : 290 : 1"
       inkscape:vp_y="0 : 1000 : 0"
       inkscape:vp_x="0 : 290 : 1"
       sodipodi:type="inkscape:persp3d" />
    <inkscape:perspective
       id="perspective2541"
       inkscape:persp3d-origin="240 : 160 : 1"
       inkscape:vp_z="480 : 240 : 1"
       inkscape:vp_y="0 : 1000 : 0"
       inkscape:vp_x="0 : 240 : 1"
       sodipodi:type="inkscape:persp3d" />
    <inkscape:perspective
       id="perspective2750"
       inkscape:persp3d-origin="215 : 143.33333 : 1"
       inkscape:vp_z="430 : 215 : 1"
       inkscape:vp_y="0 : 1000 : 0"
       inkscape:vp_x="0 : 215 : 1"
       sodipodi:type="inkscape:persp3d" />
    <inkscape:perspective
       id="perspective3730"
       inkscape:persp3d-origin="88.929146 : 101.19778 : 1"
       inkscape:vp_z="177.85829 : 151.79668 : 1"
       inkscape:vp_y="0 : 1000 : 0"
       inkscape:vp_x="0 : 151.79668 : 1"
       sodipodi:type="inkscape:persp3d" />
  </defs>
  <path
     style="color:#000000;font-style:normal;font-variant:normal;font-weight:normal;font-stretch:normal;font-size:medium;line-height:normal;font-family:sans-serif;text-indent:0;text-align:start;text-decoration:none;text-decoration-line:none;text-decoration-style:solid;text-decoration-color:#000000;letter-spacing:normal;word-spacing:normal;text-transform:none;direction:ltr;block-progression:tb;writing-mode:lr-tb;baseline-shift:baseline;text-anchor:start;white-space:normal;clip-rule:nonzero;display:inline;overflow:visible;visibility:visible;opacity:1;isolation:auto;mix-blend-mode:normal;color-interpolation:sRGB;color-interpolation-filters:linearRGB;solid-color:#000000;solid-opacity:1;fill:#800000;fill-opacity:1;fill-rule:evenodd;stroke:none;stroke-width:19.80927849;stroke-linecap:round;stroke-linejoin:round;stroke-miterlimit:4;stroke-dasharray:none;stroke-dashoffset:0;stroke-opacity:1;color-rendering:auto;image-rendering:auto;shape-rendering:auto;text-rendering:auto;enable-background:accumulate"
     d="M 291.82031 83.306641 A 9.9056297 9.9056297 0 0 0 282.4082 92.160156 C 160.72251 161.5596 38.244141 85.150391 38.244141 85.150391 L 32.951172 93.634766 C 32.951172 93.634766 157.1588 171.04372 282.22852 103.7168 C 281.83019 110.80766 281.09329 120.98928 279.9043 133.5918 C 159.04811 200.53907 38.244141 125.15039 38.244141 125.15039 L 32.951172 133.63477 C 32.951172 133.63477 154.83801 209.59711 278.70703 145.57422 C 277.72502 154.87174 276.51127 165.15448 275.05078 176.19336 C 155.83533 238.52269 38.244141 165.15039 38.244141 165.15039 L 32.951172 173.63477 C 32.951172 173.63477 151.37831 247.43243 273.39648 188.22656 C 270.42943 209.02961 266.60782 232.02297 261.66016 256.1582 C 244.71852 338.80126 214.66125 435.42219 164.18555 502.79883 A 9.9056297 9.9056297 0 1 0 180.03906 514.67578 C 193.86964 496.21428 206.12801 475.93146 217.01758 454.56445 A 7.7116452 7.7116452 0 0 0 220.01953 452.79297 L 292.44141 385.75391 L 364.86133 452.79297 A 7.7116452 7.7116452 0 0 0 368.03125 454.61328 C 378.85665 475.7946 391.03255 495.90106 404.75391 514.2168 A 9.9056297 9.9056297 0 1 0 420.60742 502.33984 C 370.13173 434.96316 340.07249 338.34229 323.13086 255.69922 C 318.13234 231.3159 314.28009 208.09096 311.30078 187.12109 C 354.77939 206.76847 455.14494 239.05313 553.07422 177.03125 L 547.72461 168.58203 C 448.86315 231.19429 347.46552 193.62673 309.69336 175.38086 C 308.23029 164.29723 307.01936 153.99319 306.03906 144.67578 C 346.18043 163.8301 450.94919 201.71044 553.07422 137.03125 L 547.72461 128.58203 C 444.28855 194.09154 338.07706 149.93949 304.87305 132.99023 C 303.67593 120.28254 302.94002 110.05732 302.54688 102.98242 C 339.79888 121.43132 447.85049 163.67295 553.07422 97.03125 L 547.72461 88.582031 C 441.37529 155.9366 332.07888 107.3628 302.23438 91.625 A 9.9056297 9.9056297 0 0 0 300.62305 87.933594 A 9.9056297 9.9056297 0 0 0 291.82031 83.306641 z M 292.42969 195.40625 C 295.30545 214.97654 298.98083 236.53512 303.72461 259.67578 C 305.37819 267.74212 307.15454 275.94495 309.05469 284.24414 L 292.61328 299.46484 L 275.90039 283.99414 C 277.73925 275.93708 279.45998 267.97305 281.06641 260.13672 C 285.84722 236.81543 289.54403 215.09772 292.42969 195.40625 z M 272.5957 298.00781 L 283.39062 308.00195 L 265.83984 324.24805 C 268.24199 315.44368 270.4879 306.68551 272.5957 298.00781 z M 312.36523 298.25195 C 314.4297 306.72452 316.62757 315.2732 318.97266 323.86523 L 301.83398 308 L 312.36523 298.25195 z M 292.61133 316.53711 L 318.8418 340.81836 A 7.7116452 7.7116452 0 0 0 316.77539 342.21484 L 292.44141 364.74023 L 268.10742 342.21484 A 7.7116452 7.7116452 0 0 0 266.26953 340.92188 L 292.61133 316.53711 z M 327.54492 353.24023 C 334.50363 375.60508 342.51219 397.94635 351.72852 419.62109 L 303.79297 375.24805 L 327.25195 353.53125 A 7.7116452 7.7116452 0 0 0 327.54492 353.24023 z M 257.375 353.28516 A 7.7116452 7.7116452 0 0 0 257.63086 353.53125 L 281.08984 375.24805 L 233.33203 419.45703 C 242.4936 397.84341 250.4531 375.57386 257.375 353.28516 z "
     id="path1686" />
</svg>
