<?xml version="1.0" encoding="UTF-8" standalone="no"?>
<!-- Created with Inkscape (http://www.inkscape.org/) -->

<svg
   xmlns:dc="http://purl.org/dc/elements/1.1/"
   xmlns:cc="http://creativecommons.org/ns#"
   xmlns:rdf="http://www.w3.org/1999/02/22-rdf-syntax-ns#"
   xmlns:svg="http://www.w3.org/2000/svg"
   xmlns="http://www.w3.org/2000/svg"
   xmlns:sodipodi="http://sodipodi.sourceforge.net/DTD/sodipodi-0.dtd"
   xmlns:inkscape="http://www.inkscape.org/namespaces/inkscape"
   version="1.0"
   width="580"
   height="580"
   id="svg2"
   sodipodi:version="0.32"
   inkscape:version="0.91 r13725"
   sodipodi:docname="veterinary.svg"
   inkscape:output_extension="org.inkscape.output.svg.inkscape">
  <metadata
     id="metadata2975">
    <rdf:RDF>
      <cc:Work
         rdf:about="">
        <dc:format>image/svg+xml</dc:format>
        <dc:type
           rdf:resource="http://purl.org/dc/dcmitype/StillImage" />
      </cc:Work>
    </rdf:RDF>
  </metadata>
  <sodipodi:namedview
     inkscape:window-height="972"
     inkscape:window-width="1280"
     inkscape:pageshadow="2"
     inkscape:pageopacity="0.0"
     guidetolerance="10.0"
     gridtolerance="10.0"
     objecttolerance="10.0"
     borderopacity="1.0"
     bordercolor="#666666"
     pagecolor="#ffffff"
     id="base"
     inkscape:zoom="0.90509668"
     inkscape:cx="212.51231"
     inkscape:cy="279.64351"
     inkscape:window-x="-8"
     inkscape:window-y="-8"
     inkscape:current-layer="svg2"
     showgrid="false"
     inkscape:window-maximized="1" />
  <defs
     id="defs4">
    <inkscape:perspective
       sodipodi:type="inkscape:persp3d"
       inkscape:vp_x="0 : 290 : 1"
       inkscape:vp_y="0 : 1000 : 0"
       inkscape:vp_z="580 : 290 : 1"
       inkscape:persp3d-origin="290 : 193.33333 : 1"
       id="perspective2441" />
    <inkscape:perspective
       id="perspective2466"
       inkscape:persp3d-origin="372.04724 : 350.78739 : 1"
       inkscape:vp_z="744.09448 : 526.18109 : 1"
       inkscape:vp_y="0 : 1000 : 0"
       inkscape:vp_x="0 : 526.18109 : 1"
       sodipodi:type="inkscape:persp3d" />
    <inkscape:perspective
       id="perspective3333"
       inkscape:persp3d-origin="372.04724 : 350.78739 : 1"
       inkscape:vp_z="744.09448 : 526.18109 : 1"
       inkscape:vp_y="0 : 1000 : 0"
       inkscape:vp_x="0 : 526.18109 : 1"
       sodipodi:type="inkscape:persp3d" />
    <inkscape:perspective
       id="perspective3401"
       inkscape:persp3d-origin="372.04724 : 350.78739 : 1"
       inkscape:vp_z="744.09448 : 526.18109 : 1"
       inkscape:vp_y="0 : 1000 : 0"
       inkscape:vp_x="0 : 526.18109 : 1"
       sodipodi:type="inkscape:persp3d" />
    <inkscape:perspective
       id="perspective3464"
       inkscape:persp3d-origin="372.04724 : 350.78739 : 1"
       inkscape:vp_z="744.09448 : 526.18109 : 1"
       inkscape:vp_y="0 : 1000 : 0"
       inkscape:vp_x="0 : 526.18109 : 1"
       sodipodi:type="inkscape:persp3d" />
    <inkscape:perspective
       id="perspective3581"
       inkscape:persp3d-origin="225 : 150 : 1"
       inkscape:vp_z="450 : 225 : 1"
       inkscape:vp_y="0 : 1000 : 0"
       inkscape:vp_x="0 : 225 : 1"
       sodipodi:type="inkscape:persp3d" />
    <inkscape:perspective
       id="perspective4312"
       inkscape:persp3d-origin="225 : 150 : 1"
       inkscape:vp_z="450 : 225 : 1"
       inkscape:vp_y="0 : 1000 : 0"
       inkscape:vp_x="0 : 225 : 1"
       sodipodi:type="inkscape:persp3d" />
    <inkscape:perspective
       id="perspective8860"
       inkscape:persp3d-origin="372.04724 : 350.78739 : 1"
       inkscape:vp_z="744.09448 : 526.18109 : 1"
       inkscape:vp_y="0 : 1000 : 0"
       inkscape:vp_x="0 : 526.18109 : 1"
       sodipodi:type="inkscape:persp3d" />
    <inkscape:perspective
       id="perspective8887"
       inkscape:persp3d-origin="372.04724 : 350.78739 : 1"
       inkscape:vp_z="744.09448 : 526.18109 : 1"
       inkscape:vp_y="0 : 1000 : 0"
       inkscape:vp_x="0 : 526.18109 : 1"
       sodipodi:type="inkscape:persp3d" />
    <inkscape:perspective
       sodipodi:type="inkscape:persp3d"
       inkscape:vp_x="0 : 16 : 1"
       inkscape:vp_y="0 : 1000 : 0"
       inkscape:vp_z="32 : 16 : 1"
       inkscape:persp3d-origin="16 : 10.666667 : 1"
       id="perspective4904" />
    <inkscape:perspective
       sodipodi:type="inkscape:persp3d"
       inkscape:vp_x="0 : 6 : 1"
       inkscape:vp_y="0 : 1000 : 0"
       inkscape:vp_z="12 : 6 : 1"
       inkscape:persp3d-origin="6 : 4 : 1"
       id="perspective4668" />
    <inkscape:perspective
       sodipodi:type="inkscape:persp3d"
       inkscape:vp_x="0 : 526.18109 : 1"
       inkscape:vp_y="0 : 1000 : 0"
       inkscape:vp_z="744.09448 : 526.18109 : 1"
       inkscape:persp3d-origin="372.04724 : 350.78739 : 1"
       id="perspective4471" />
    <symbol
       id="symbol-university"
       viewBox="244.5 110 489 219.9">
      <path
         d="M79,43l57,119c0,0,21-96,104-96s124,106,124,106l43-133l82-17L0,17L79,43z"
         id="path4460" />
      <path
         fill="none"
         stroke="#000000"
         stroke-width="20"
         d="M94,176l-21,39"
         id="path4462" />
      <path
         d="M300,19c0,10.5-22.6,19-50.5,19S199,29.5,199,19s22.6-19,50.5-19S300,8.5,300,19z"
         id="path4464" />
      <path
         ill="none"
         stroke="#000000"
         stroke-width="20"
         d="M112,216l-16-38L64,88c0,0-9-8-4-35s16-24,16-24"
         id="path4466" />
    </symbol>
    <inkscape:perspective
       sodipodi:type="inkscape:persp3d"
       inkscape:vp_x="0 : 30 : 1"
       inkscape:vp_y="0 : 1000 : 0"
       inkscape:vp_z="60 : 30 : 1"
       inkscape:persp3d-origin="30 : 20 : 1"
       id="perspective3452" />
    <inkscape:perspective
       id="perspective9479"
       inkscape:persp3d-origin="290 : 193.33333 : 1"
       inkscape:vp_z="580 : 290 : 1"
       inkscape:vp_y="0 : 1000 : 0"
       inkscape:vp_x="0 : 290 : 1"
       sodipodi:type="inkscape:persp3d" />
    <inkscape:perspective
       id="perspective9690"
       inkscape:persp3d-origin="372.04724 : 350.78739 : 1"
       inkscape:vp_z="744.09448 : 526.18109 : 1"
       inkscape:vp_y="0 : 1000 : 0"
       inkscape:vp_x="0 : 526.18109 : 1"
       sodipodi:type="inkscape:persp3d" />
    <inkscape:perspective
       sodipodi:type="inkscape:persp3d"
       inkscape:vp_x="0 : 290 : 1"
       inkscape:vp_y="0 : 1000 : 0"
       inkscape:vp_z="580 : 290 : 1"
       inkscape:persp3d-origin="290 : 193.33333 : 1"
       id="perspective9819" />
    <inkscape:perspective
       id="perspective9817"
       inkscape:persp3d-origin="30 : 20 : 1"
       inkscape:vp_z="60 : 30 : 1"
       inkscape:vp_y="0 : 1000 : 0"
       inkscape:vp_x="0 : 30 : 1"
       sodipodi:type="inkscape:persp3d" />
    <symbol
       viewBox="244.5 110 489 219.9"
       id="symbol9807">
      <path
         id="path9809"
         d="M79,43l57,119c0,0,21-96,104-96s124,106,124,106l43-133l82-17L0,17L79,43z" />
      <path
         id="path9811"
         d="M94,176l-21,39"
         stroke-width="20"
         stroke="#000000"
         fill="none" />
      <path
         id="path9813"
         d="M300,19c0,10.5-22.6,19-50.5,19S199,29.5,199,19s22.6-19,50.5-19S300,8.5,300,19z" />
      <path
         id="path9815"
         d="M112,216l-16-38L64,88c0,0-9-8-4-35s16-24,16-24"
         stroke-width="20"
         stroke="#000000"
         ill="none" />
    </symbol>
    <inkscape:perspective
       id="perspective9805"
       inkscape:persp3d-origin="372.04724 : 350.78739 : 1"
       inkscape:vp_z="744.09448 : 526.18109 : 1"
       inkscape:vp_y="0 : 1000 : 0"
       inkscape:vp_x="0 : 526.18109 : 1"
       sodipodi:type="inkscape:persp3d" />
    <inkscape:perspective
       id="perspective9803"
       inkscape:persp3d-origin="6 : 4 : 1"
       inkscape:vp_z="12 : 6 : 1"
       inkscape:vp_y="0 : 1000 : 0"
       inkscape:vp_x="0 : 6 : 1"
       sodipodi:type="inkscape:persp3d" />
    <inkscape:perspective
       id="perspective9801"
       inkscape:persp3d-origin="16 : 10.666667 : 1"
       inkscape:vp_z="32 : 16 : 1"
       inkscape:vp_y="0 : 1000 : 0"
       inkscape:vp_x="0 : 16 : 1"
       sodipodi:type="inkscape:persp3d" />
    <inkscape:perspective
       sodipodi:type="inkscape:persp3d"
       inkscape:vp_x="0 : 526.18109 : 1"
       inkscape:vp_y="0 : 1000 : 0"
       inkscape:vp_z="744.09448 : 526.18109 : 1"
       inkscape:persp3d-origin="372.04724 : 350.78739 : 1"
       id="perspective9799" />
    <inkscape:perspective
       sodipodi:type="inkscape:persp3d"
       inkscape:vp_x="0 : 526.18109 : 1"
       inkscape:vp_y="0 : 1000 : 0"
       inkscape:vp_z="744.09448 : 526.18109 : 1"
       inkscape:persp3d-origin="372.04724 : 350.78739 : 1"
       id="perspective9797" />
    <inkscape:perspective
       sodipodi:type="inkscape:persp3d"
       inkscape:vp_x="0 : 225 : 1"
       inkscape:vp_y="0 : 1000 : 0"
       inkscape:vp_z="450 : 225 : 1"
       inkscape:persp3d-origin="225 : 150 : 1"
       id="perspective9795" />
    <inkscape:perspective
       sodipodi:type="inkscape:persp3d"
       inkscape:vp_x="0 : 225 : 1"
       inkscape:vp_y="0 : 1000 : 0"
       inkscape:vp_z="450 : 225 : 1"
       inkscape:persp3d-origin="225 : 150 : 1"
       id="perspective9793" />
    <inkscape:perspective
       sodipodi:type="inkscape:persp3d"
       inkscape:vp_x="0 : 526.18109 : 1"
       inkscape:vp_y="0 : 1000 : 0"
       inkscape:vp_z="744.09448 : 526.18109 : 1"
       inkscape:persp3d-origin="372.04724 : 350.78739 : 1"
       id="perspective9791" />
    <inkscape:perspective
       sodipodi:type="inkscape:persp3d"
       inkscape:vp_x="0 : 526.18109 : 1"
       inkscape:vp_y="0 : 1000 : 0"
       inkscape:vp_z="744.09448 : 526.18109 : 1"
       inkscape:persp3d-origin="372.04724 : 350.78739 : 1"
       id="perspective9789" />
    <inkscape:perspective
       sodipodi:type="inkscape:persp3d"
       inkscape:vp_x="0 : 526.18109 : 1"
       inkscape:vp_y="0 : 1000 : 0"
       inkscape:vp_z="744.09448 : 526.18109 : 1"
       inkscape:persp3d-origin="372.04724 : 350.78739 : 1"
       id="perspective9787" />
    <inkscape:perspective
       sodipodi:type="inkscape:persp3d"
       inkscape:vp_x="0 : 526.18109 : 1"
       inkscape:vp_y="0 : 1000 : 0"
       inkscape:vp_z="744.09448 : 526.18109 : 1"
       inkscape:persp3d-origin="372.04724 : 350.78739 : 1"
       id="perspective9785" />
    <inkscape:perspective
       id="perspective9783"
       inkscape:persp3d-origin="290 : 193.33333 : 1"
       inkscape:vp_z="580 : 290 : 1"
       inkscape:vp_y="0 : 1000 : 0"
       inkscape:vp_x="0 : 290 : 1"
       sodipodi:type="inkscape:persp3d" />
    <defs
       id="defs48974" />
    <sodipodi:namedview
       pagecolor="#ffffff"
       inkscape:zoom="0.61399264"
       inkscape:window-y="26"
       inkscape:window-x="0"
       inkscape:window-width="1012"
       inkscape:window-height="739"
       inkscape:pageshadow="2"
       inkscape:pageopacity="0.0"
       inkscape:cy="250.37448"
       inkscape:cx="475.26707"
       id="namedview4258"
       borderopacity="1.0"
       bordercolor="#666666" />
    <inkscape:perspective
       id="perspective11483"
       inkscape:persp3d-origin="100 : 66.666667 : 1"
       inkscape:vp_z="200 : 100 : 1"
       inkscape:vp_y="0 : 1000 : 0"
       inkscape:vp_x="0 : 100 : 1"
       sodipodi:type="inkscape:persp3d" />
    <linearGradient
       id="linearGradient2936">
      <stop
         style="stop-color:#8acf6b;stop-opacity:1.0000000;"
         offset="0.0000000"
         id="stop2938" />
      <stop
         style="stop-color:#368912;stop-opacity:1.0000000;"
         offset="1.0000000"
         id="stop2940" />
    </linearGradient>
    <linearGradient
       id="linearGradient2952">
      <stop
         style="stop-color:#c0d50d;stop-opacity:1;"
         offset="0"
         id="stop2954" />
      <stop
         style="stop-color:#eef2cd;stop-opacity:1.0000000;"
         offset="1.0000000"
         id="stop2956" />
    </linearGradient>
    <inkscape:perspective
       id="perspective34"
       inkscape:persp3d-origin="372.04724 : 350.78739 : 1"
       inkscape:vp_z="744.09448 : 526.18109 : 1"
       inkscape:vp_y="0 : 1000 : 0"
       inkscape:vp_x="0 : 526.18109 : 1"
       sodipodi:type="inkscape:persp3d" />
    <inkscape:perspective
       id="perspective13933"
       inkscape:persp3d-origin="372.04724 : 350.78739 : 1"
       inkscape:vp_z="744.09448 : 526.18109 : 1"
       inkscape:vp_y="0 : 1000 : 0"
       inkscape:vp_x="0 : 526.18109 : 1"
       sodipodi:type="inkscape:persp3d" />
    <inkscape:perspective
       id="perspective13955"
       inkscape:persp3d-origin="372.04724 : 350.78739 : 1"
       inkscape:vp_z="744.09448 : 526.18109 : 1"
       inkscape:vp_y="0 : 1000 : 0"
       inkscape:vp_x="0 : 526.18109 : 1"
       sodipodi:type="inkscape:persp3d" />
    <inkscape:perspective
       sodipodi:type="inkscape:persp3d"
       inkscape:vp_x="0 : 526.18109 : 1"
       inkscape:vp_y="0 : 1000 : 0"
       inkscape:vp_z="744.09448 : 526.18109 : 1"
       inkscape:persp3d-origin="372.04724 : 350.78739 : 1"
       id="perspective2446" />
    <inkscape:perspective
       sodipodi:type="inkscape:persp3d"
       inkscape:vp_x="0 : 204.28572 : 1"
       inkscape:vp_y="0 : 1000 : 0"
       inkscape:vp_z="405.71429 : 204.28572 : 1"
       inkscape:persp3d-origin="202.85715 : 136.19048 : 1"
       id="perspective5571" />
    <inkscape:perspective
       sodipodi:type="inkscape:persp3d"
       inkscape:vp_x="0 : 250 : 1"
       inkscape:vp_y="0 : 1000 : 0"
       inkscape:vp_z="500 : 250 : 1"
       inkscape:persp3d-origin="250 : 166.66667 : 1"
       id="perspective5412" />
    <inkscape:perspective
       sodipodi:type="inkscape:persp3d"
       inkscape:vp_x="0 : 16 : 1"
       inkscape:vp_y="0 : 1000 : 0"
       inkscape:vp_z="32 : 16 : 1"
       inkscape:persp3d-origin="16 : 10.666667 : 1"
       id="perspective5233" />
    <marker
       inkscape:stockid="RazorWire"
       id="RazorWire"
       refX="0"
       refY="0"
       orient="auto">
       style=&quot;overflow:visible&quot;&gt;
      <path
   id="path4286"
   transform="scale(0.8,0.8)"
   style="fill:#808080;fill-opacity:1;fill-rule:evenodd;stroke:#000000;stroke-width:0.1pt"
   d="M 0.022727273,-0.74009011 L 0.022727273,0.69740989 L -7.7585227,3.0099099 L 10.678977,3.0099099 L 3.4914773,0.69740989 L 3.4914773,-0.74009011 L 10.741477,-2.8963401 L -7.7272727,-2.8963401 L 0.022727273,-0.74009011 z " />
</marker>
    <marker
       inkscape:stockid="DiamondS"
       orient="auto"
       refY="0.0"
       refX="0.0"
       id="DiamondS"
       style="overflow:visible">
      <path
         id="path4202"
         d="M 0,-7.0710768 L -7.0710894,0 L 0,7.0710589 L 7.0710462,0 L 0,-7.0710768 z "
         style="fill-rule:evenodd;stroke:#000000;stroke-width:1.0pt;marker-start:none"
         transform="scale(0.2)" />
    </marker>
    <marker
       inkscape:stockid="Arrow2Sstart"
       orient="auto"
       refY="0.0"
       refX="0.0"
       id="Arrow2Sstart"
       style="overflow:visible">
      <path
         id="path4146"
         style="font-size:12.0;fill-rule:evenodd;stroke-width:0.62500000;stroke-linejoin:round"
         d="M 8.7185878,4.0337352 L -2.2072895,0.016013256 L 8.7185884,-4.0017078 C 6.9730900,-1.6296469 6.9831476,1.6157441 8.7185878,4.0337352 z "
         transform="scale(0.3) translate(-2.3,0)" />
    </marker>
    <marker
       inkscape:stockid="StopS"
       orient="auto"
       refY="0.0"
       refX="0.0"
       id="StopS"
       style="overflow:visible">
      <path
         id="path4229"
         d="M 0.0,5.65 L 0.0,-5.65"
         style="fill:none;fill-opacity:0.75000000;fill-rule:evenodd;stroke:#000000;stroke-width:1.0pt"
         transform="scale(0.2)" />
    </marker>
    <marker
       style="overflow:visible"
       inkscape:stockid="InfiniteLineStart"
       id="InfiniteLineStart"
       refX="0"
       refY="0"
       orient="auto">
      <g
         id="g4298"
         transform="translate(-13,0)">
        <circle
           id="circle4300"
           r="0.8"
           cy="0"
           cx="3" />
        <circle
           id="circle4302"
           r="0.8"
           cy="0"
           cx="6.5" />
        <circle
           id="circle4304"
           r="0.8"
           cy="0"
           cx="10" />
      </g>
    </marker>
    <marker
       inkscape:stockid="CurveIn"
       orient="auto"
       refY="0.0"
       refX="0.0"
       id="CurveIn"
       style="overflow:visible">
      <path
         id="path4238"
         d="M 4.6254930,-5.0456926 C 1.8654930,-5.0456926 -0.37450702,-2.8056926 -0.37450702,-0.045692580 C -0.37450702,2.7143074 1.8654930,4.9543074 4.6254930,4.9543074"
         style="fill-rule:evenodd;stroke:#000000;stroke-width:1.0pt;marker-start:none;marker-end:none;fill:none"
         transform="scale(0.6)" />
    </marker>
    <marker
       inkscape:stockid="TriangleOutS"
       orient="auto"
       refY="0.0"
       refX="0.0"
       id="TriangleOutS"
       style="overflow:visible">
      <path
         id="path4220"
         d="M 5.77,0.0 L -2.88,5.0 L -2.88,-5.0 L 5.77,0.0 z "
         style="fill-rule:evenodd;stroke:#000000;stroke-width:1.0pt;marker-start:none"
         transform="scale(0.2)" />
    </marker>
    <marker
       inkscape:stockid="Arrow2Send"
       orient="auto"
       refY="0.0"
       refX="0.0"
       id="Arrow2Send"
       style="overflow:visible;">
      <path
         id="path4149"
         style="font-size:12.0;fill-rule:evenodd;stroke-width:0.62500000;stroke-linejoin:round;"
         d="M 8.7185878,4.0337352 L -2.2072895,0.016013256 L 8.7185884,-4.0017078 C 6.9730900,-1.6296469 6.9831476,1.6157441 8.7185878,4.0337352 z "
         transform="scale(0.3) rotate(180) translate(-2.3,0)" />
    </marker>
    <marker
       inkscape:stockid="SemiCircleOut"
       orient="auto"
       refY="0.0"
       refX="0.0"
       id="SemiCircleOut"
       style="overflow:visible">
      <path
         id="path4235"
         d="M -2.5,-0.80913858 C -2.5,1.9508614 -4.7400000,4.1908614 -7.5,4.1908614 L -7.5,-5.8091386 C -4.7400000,-5.8091386 -2.5,-3.5691386 -2.5,-0.80913858 z "
         style="fill-rule:evenodd;stroke:#000000;stroke-width:1.0pt;marker-start:none;marker-end:none"
         transform="scale(0.6) translate(7.125493,0.763446)" />
    </marker>
    <marker
       inkscape:stockid="Arrow1Send"
       orient="auto"
       refY="0.0"
       refX="0.0"
       id="Arrow1Send"
       style="overflow:visible;">
      <path
         id="path4131"
         d="M 0.0,0.0 L 5.0,-5.0 L -12.5,0.0 L 5.0,5.0 L 0.0,0.0 z "
         style="fill-rule:evenodd;stroke:#000000;stroke-width:1.0pt;marker-start:none;"
         transform="scale(0.2) rotate(180) translate(6,0)" />
    </marker>
    <marker
       inkscape:stockid="Arrow1Sstart"
       orient="auto"
       refY="0.0"
       refX="0.0"
       id="Arrow1Sstart"
       style="overflow:visible">
      <path
         id="path4128"
         d="M 0.0,0.0 L 5.0,-5.0 L -12.5,0.0 L 5.0,5.0 L 0.0,0.0 z "
         style="fill-rule:evenodd;stroke:#000000;stroke-width:1.0pt;marker-start:none"
         transform="scale(0.2) translate(6,0)" />
    </marker>
    <marker
       inkscape:stockid="Tail"
       orient="auto"
       refY="0.0"
       refX="0.0"
       id="Tail"
       style="overflow:visible">
      <g
         id="g4152"
         transform="scale(-1.2)">
        <path
           id="path4154"
           d="M -3.8048674,-3.9585227 L 0.54352094,0"
           style="fill:none;fill-rule:evenodd;stroke:#000000;stroke-width:0.8;marker-start:none;marker-end:none;stroke-linecap:round" />
        <path
           id="path4156"
           d="M -1.2866832,-3.9585227 L 3.0617053,0"
           style="fill:none;fill-rule:evenodd;stroke:#000000;stroke-width:0.8;marker-start:none;marker-end:none;stroke-linecap:round" />
        <path
           id="path4158"
           d="M 1.3053582,-3.9585227 L 5.6537466,0"
           style="fill:none;fill-rule:evenodd;stroke:#000000;stroke-width:0.8;marker-start:none;marker-end:none;stroke-linecap:round" />
        <path
           id="path4160"
           d="M -3.8048674,4.1775838 L 0.54352094,0.21974226"
           style="fill:none;fill-rule:evenodd;stroke:#000000;stroke-width:0.8;marker-start:none;marker-end:none;stroke-linecap:round" />
        <path
           id="path4162"
           d="M -1.2866832,4.1775838 L 3.0617053,0.21974226"
           style="fill:none;fill-rule:evenodd;stroke:#000000;stroke-width:0.8;marker-start:none;marker-end:none;stroke-linecap:round" />
        <path
           id="path4164"
           d="M 1.3053582,4.1775838 L 5.6537466,0.21974226"
           style="fill:none;fill-rule:evenodd;stroke:#000000;stroke-width:0.8;marker-start:none;marker-end:none;stroke-linecap:round" />
      </g>
    </marker>
    <marker
       inkscape:stockid="Arrow1Lend"
       orient="auto"
       refY="0.0"
       refX="0.0"
       id="Arrow1Lend"
       style="overflow:visible;">
      <path
         id="path4119"
         d="M 0.0,0.0 L 5.0,-5.0 L -12.5,0.0 L 5.0,5.0 L 0.0,0.0 z "
         style="fill-rule:evenodd;stroke:#000000;stroke-width:1.0pt;marker-start:none;"
         transform="scale(0.8) rotate(180) translate(12.5,0)" />
    </marker>
    <marker
       inkscape:stockid="TriangleOutL"
       orient="auto"
       refY="0.0"
       refX="0.0"
       id="TriangleOutL"
       style="overflow:visible">
      <path
         id="path4214"
         d="M 5.77,0.0 L -2.88,5.0 L -2.88,-5.0 L 5.77,0.0 z "
         style="fill-rule:evenodd;stroke:#000000;stroke-width:1.0pt;marker-start:none"
         transform="scale(0.8)" />
    </marker>
    <marker
       inkscape:stockid="Arrow1Mend"
       orient="auto"
       refY="0.0"
       refX="0.0"
       id="Arrow1Mend"
       style="overflow:visible;">
      <path
         id="path4125"
         d="M 0.0,0.0 L 5.0,-5.0 L -12.5,0.0 L 5.0,5.0 L 0.0,0.0 z "
         style="fill-rule:evenodd;stroke:#000000;stroke-width:1.0pt;marker-start:none;"
         transform="scale(0.4) rotate(180) translate(10,0)" />
    </marker>
    <marker
       inkscape:stockid="Arrow2Lend"
       orient="auto"
       refY="0.0"
       refX="0.0"
       id="Arrow2Lend"
       style="overflow:visible;">
      <path
         id="path4137"
         style="font-size:12.0;fill-rule:evenodd;stroke-width:0.62500000;stroke-linejoin:round;"
         d="M 8.7185878,4.0337352 L -2.2072895,0.016013256 L 8.7185884,-4.0017078 C 6.9730900,-1.6296469 6.9831476,1.6157441 8.7185878,4.0337352 z "
         transform="scale(1.1) rotate(180) translate(1,0)" />
    </marker>
    <inkscape:perspective
       sodipodi:type="inkscape:persp3d"
       inkscape:vp_x="0 : 16 : 1"
       inkscape:vp_y="0 : 1000 : 0"
       inkscape:vp_z="32 : 16 : 1"
       inkscape:persp3d-origin="16 : 10.666667 : 1"
       id="perspective14642" />
    <inkscape:perspective
       sodipodi:type="inkscape:persp3d"
       inkscape:vp_x="0 : 6 : 1"
       inkscape:vp_y="0 : 1000 : 0"
       inkscape:vp_z="12 : 6 : 1"
       inkscape:persp3d-origin="6 : 4 : 1"
       id="perspective14640" />
    <inkscape:perspective
       sodipodi:type="inkscape:persp3d"
       inkscape:vp_x="0 : 526.18109 : 1"
       inkscape:vp_y="0 : 1000 : 0"
       inkscape:vp_z="744.09448 : 526.18109 : 1"
       inkscape:persp3d-origin="372.04724 : 350.78739 : 1"
       id="perspective14638" />
    <symbol
       id="symbol14628"
       viewBox="244.5 110 489 219.9">
      <path
         d="M79,43l57,119c0,0,21-96,104-96s124,106,124,106l43-133l82-17L0,17L79,43z"
         id="path14630" />
      <path
         fill="none"
         stroke="#000000"
         stroke-width="20"
         d="M94,176l-21,39"
         id="path14632" />
      <path
         d="M300,19c0,10.5-22.6,19-50.5,19S199,29.5,199,19s22.6-19,50.5-19S300,8.5,300,19z"
         id="path14634" />
      <path
         ill="none"
         stroke="#000000"
         stroke-width="20"
         d="M112,216l-16-38L64,88c0,0-9-8-4-35s16-24,16-24"
         id="path14636" />
    </symbol>
    <inkscape:perspective
       sodipodi:type="inkscape:persp3d"
       inkscape:vp_x="0 : 30 : 1"
       inkscape:vp_y="0 : 1000 : 0"
       inkscape:vp_z="60 : 30 : 1"
       inkscape:persp3d-origin="30 : 20 : 1"
       id="perspective14626" />
    <inkscape:perspective
       id="perspective14624"
       inkscape:persp3d-origin="290 : 193.33333 : 1"
       inkscape:vp_z="580 : 290 : 1"
       inkscape:vp_y="0 : 1000 : 0"
       inkscape:vp_x="0 : 290 : 1"
       sodipodi:type="inkscape:persp3d" />
    <inkscape:perspective
       id="perspective14775"
       inkscape:persp3d-origin="372.04724 : 350.78739 : 1"
       inkscape:vp_z="744.09448 : 526.18109 : 1"
       inkscape:vp_y="0 : 1000 : 0"
       inkscape:vp_x="0 : 526.18109 : 1"
       sodipodi:type="inkscape:persp3d" />
    <inkscape:perspective
       id="perspective14839"
       inkscape:persp3d-origin="372.04724 : 350.78739 : 1"
       inkscape:vp_z="744.09448 : 526.18109 : 1"
       inkscape:vp_y="0 : 1000 : 0"
       inkscape:vp_x="0 : 526.18109 : 1"
       sodipodi:type="inkscape:persp3d" />
    <inkscape:perspective
       id="perspective2562"
       inkscape:persp3d-origin="212.91061 : 133.01251 : 1"
       inkscape:vp_z="425.82123 : 199.51877 : 1"
       inkscape:vp_y="0 : 1000 : 0"
       inkscape:vp_x="0 : 199.51877 : 1"
       sodipodi:type="inkscape:persp3d" />
  </defs>
  <g
     id="layer3"
     inkscape:label="Layout"
     style="stroke:#757575;stroke-opacity:1;display:none"
     transform="matrix(48.14969,0,0,48.14969,-1210.2219,-51.870914)">
    <rect
       style="fill:none;stroke:#757575;stroke-width:0.1;stroke-miterlimit:4;stroke-dasharray:none;stroke-opacity:1;display:inline"
       id="rect4134"
       width="10"
       height="10"
       x="1"
       y="1" />
    <rect
       style="fill:none;stroke:#757575;stroke-width:0.1;stroke-miterlimit:4;stroke-dasharray:none;stroke-opacity:1;display:inline"
       id="rect4136"
       width="8"
       height="8"
       x="2"
       y="2" />
  </g>
  <g
     id="g9828"
     inkscape:label="Layout"
     style="stroke:#757575;stroke-opacity:1;display:none"
     transform="matrix(48.14969,0,0,48.14969,-1870.5198,102.97115)">
    <rect
       style="fill:none;stroke:#757575;stroke-width:0.1;stroke-miterlimit:4;stroke-dasharray:none;stroke-opacity:1;display:inline"
       id="rect9830"
       width="10"
       height="10"
       x="1"
       y="1" />
    <rect
       style="fill:none;stroke:#757575;stroke-width:0.1;stroke-miterlimit:4;stroke-dasharray:none;stroke-opacity:1;display:inline"
       id="rect9832"
       width="8"
       height="8"
       x="2"
       y="2" />
  </g>
  <g
     id="g14695"
     inkscape:label="Layout"
     style="stroke:#757575;stroke-opacity:1;display:none"
     transform="matrix(48.14969,0,0,48.14969,-1210.2219,-182.06834)">
    <rect
       style="fill:none;stroke:#757575;stroke-width:0.1;stroke-miterlimit:4;stroke-dasharray:none;stroke-opacity:1;display:inline"
       id="rect14697"
       width="10"
       height="10"
       x="1"
       y="1" />
    <rect
       style="fill:none;stroke:#757575;stroke-width:0.1;stroke-miterlimit:4;stroke-dasharray:none;stroke-opacity:1;display:inline"
       id="rect14699"
       width="8"
       height="8"
       x="2"
       y="2" />
  </g>
  <g
     id="layer1"
     transform="matrix(0.5599261,0.3324882,-0.3324882,0.5599261,79.453544,-260.82537)"
     style="fill:#000080;fill-opacity:1;stroke:none">
    <path
       style="fill:#000080;fill-opacity:1;fill-rule:evenodd;stroke:none;stroke-width:1px;stroke-linecap:butt;stroke-linejoin:miter;stroke-opacity:1"
       d="M 189.94141 31.689453 C 174.28786 32.151346 163.55743 54.203743 178.94336 64.980469 C 182.36633 67.378013 182.9169 70.216429 182.92188 85.453125 C 182.92504 95.182185 183.52834 120.31287 184.26172 141.29688 C 185.59509 179.44962 185.59423 179.44922 191.37695 179.44922 C 197.15966 179.44922 197.16016 179.44807 197.16016 125.31055 C 197.16016 71.17303 197.16043 71.173259 202.24805 65.126953 C 211.93946 53.609359 210.51021 39.810381 199.00977 33.863281 C 195.90794 32.259262 192.84021 31.603917 189.94141 31.689453 z M 146.83008 61.005859 C 141.93264 61.208359 135.18017 62.946351 125.27148 66.150391 C 111.17446 70.708774 104.44685 71.490791 70.048828 72.564453 C 48.505249 73.236897 30.878906 74.358396 30.878906 75.058594 C 30.878906 82.006797 46.850606 92.511177 54.498047 90.591797 C 58.393331 89.614147 59.367188 90.168081 59.367188 93.363281 C 59.367188 98.654671 66.87066 103.69141 74.753906 103.69141 C 79.549726 103.69141 81.662001 104.93474 83.419922 108.79297 C 87.503551 117.75553 98.183554 121.3257 108.63281 117.2207 C 116.81775 114.00524 117.5152 114.00552 119.87109 117.22656 C 121.25252 119.11534 124.91461 122.33015 128.00977 124.37109 C 133.8442 128.21831 151.96294 129.42772 164.92188 126.83594 C 173.02579 125.21514 175.26429 78.776502 167.35938 76.267578 C 165.20235 75.582964 161.57088 71.857647 159.28906 67.990234 C 156.35816 63.022727 153.12678 60.745503 146.83008 61.005859 z M 232.79297 61.25 C 225.68008 61.423487 222.04916 64.635055 219.98438 71.140625 C 219.27688 73.369696 216.44321 75.760997 213.68555 76.453125 C 205.80005 78.432261 206.90895 124.01634 214.90039 126.38867 C 228.68174 130.4798 250.98308 127.39849 258.19727 120.40625 C 264.85595 113.9524 265.25936 113.84093 271.01758 116.84375 C 281.50898 122.31483 291.17309 119.63736 297.08984 109.62109 C 299.88096 104.89615 302.01766 103.69141 307.59961 103.69141 C 315.01192 103.69141 322.74609 97.956907 322.74609 92.460938 C 322.74609 90.217078 324.07948 89.704867 327.61328 90.591797 C 334.13532 92.228727 344.33385 86.713804 348.04102 79.544922 C 351.02176 73.78082 351.02127 73.781116 311.95703 72.623047 C 277.52335 71.602235 270.96219 70.845047 256.61328 66.238281 C 245.96309 62.818996 238.32522 61.115066 232.79297 61.25 z M 149.17383 139.71875 C 148.02249 139.74254 146.86292 139.82613 145.70312 139.97266 C 110.09356 144.4714 102.77783 172.22756 132.02344 191.86914 C 141.30501 198.10272 145.23466 199.08233 147.33398 195.68555 C 148.04006 194.54309 153.19512 190.99365 158.78906 187.79883 C 168.95984 181.99004 168.9591 181.99013 161.18555 180.58789 C 146.16511 177.87834 136.11523 171.63932 136.11523 165.02344 C 136.11523 157.71215 141.62639 157.03583 150.10547 163.30469 C 157.1 168.47595 172.13141 168.16017 175.50781 162.77148 C 182.07537 152.28982 166.44383 139.36196 149.17383 139.71875 z M 231.67383 140.01562 C 224.07631 139.85318 216.73509 141.70005 211.45312 146.14453 C 195.09372 159.91005 214.76503 176.05081 232.19531 163.16406 C 239.52358 157.74604 244.97852 158.53614 244.97852 165.01367 C 244.97852 174.49015 215.09493 185.38656 188.76758 185.50977 C 152.42728 185.67986 126.51087 221.63416 147.03906 243.40039 C 155.25299 252.10969 156.50796 252.20864 169.88086 245.20703 C 180.30897 239.7472 180.30775 239.74669 174.49023 234.85156 C 158.46859 221.37024 166.7951 213.30024 202.35352 207.8418 C 244.26294 201.40845 266.34375 186.28588 266.34375 164.01953 C 266.34375 150.45749 248.38836 140.373 231.67383 140.01562 z M 233.45312 206.54102 C 232.7311 206.57609 231.99469 206.8904 231.25781 207.50195 C 229.62486 208.85718 223.98399 210.5562 218.72266 211.27734 C 210.99012 212.33721 209.41703 213.21434 210.51172 215.85742 C 213.7404 223.65298 213.44752 225.92619 208.45508 231.85938 C 205.04455 235.91255 197.96094 240.11706 188.4668 243.72266 C 151.86835 257.62179 139.25305 276.03322 153.51562 294.73242 C 159.75815 302.91679 159.56282 302.90298 172.57812 296.15039 C 182.4703 291.01815 182.76965 290.62519 178.87109 287.89453 C 167.0526 279.61654 174.75027 270.20449 200.90625 260.95508 C 230.84793 250.36693 243.79668 237.24032 240.94531 220.36328 C 239.4448 211.48175 236.5819 206.38902 233.45312 206.54102 z M 191.05664 214.04102 C 184.95221 214.04102 184.95117 214.04112 184.95117 226.25 C 184.95117 232.96488 185.34921 238.45898 185.83594 238.45898 C 193.59325 238.45898 197.16016 233.98859 197.16016 224.26562 C 197.16016 214.2617 197.02944 214.04102 191.05664 214.04102 z M 407.18359 256.61914 C 402.17273 256.70388 398.81641 257.43945 398.81641 257.43945 C 377.88365 262.4143 368.08984 285.67188 368.08984 285.67188 C 358.4335 308.05342 363.41797 330.9043 363.41797 330.9043 C 370.64598 363.50317 396.99219 358.10742 396.99219 358.10742 C 414.69895 356.95483 427.60156 336.00391 427.60156 336.00391 C 442.25792 316.28542 444.10352 298.875 444.10352 298.875 C 447.5324 272.37485 431.09375 262.47852 431.09375 262.47852 C 422.80325 257.47948 413.62613 256.51018 407.18359 256.61914 z M 219.60742 259.42969 C 218.33294 259.3618 216.83173 260.03264 214.3418 261.26953 C 211.04759 262.90593 203.08745 265.85439 196.65234 267.82031 C 184.95217 271.39468 184.95117 271.3946 184.95117 281.27344 C 184.95117 291.15228 184.95221 291.15146 191.05664 289.02344 C 196.60251 287.09014 197.16016 286.07019 197.16016 277.86719 C 197.16016 269.50343 197.4571 268.99586 201.18359 270.99023 C 214.54162 278.13925 208.62649 288.58467 187.20508 295.67578 C 163.02323 303.68068 150.47443 323.88967 161.86719 336.47852 C 166.00065 341.04594 165.11982 341.11244 173.16016 335.62109 C 178.39703 332.04443 179.72666 329.84309 179.23242 325.5625 C 178.5067 319.27679 181.50531 317.32746 203.77148 309.61328 C 230.51746 300.34708 239.60934 280.70738 225.00977 263.73438 C 222.50894 260.827 221.24604 259.51697 219.60742 259.42969 z M 316.57422 269.95508 C 308.16108 270.20364 299.78984 274.12852 293.69727 279.89062 C 281.49236 292.6414 277.2124 310.8537 276.70508 328.01953 C 276.11139 335.90688 278.20633 343.72534 281.61719 350.78711 C 287.20084 362.91349 299.86703 371.52604 313.31836 371.45312 C 322.84272 372.79762 332.88618 369.38988 339.30859 362.14453 C 345.11565 356.22843 347.95463 348.25881 349.86133 340.35938 C 354.06919 323.97079 355.15365 305.69433 347.65234 290.0625 C 343.01536 282.37294 336.18373 275.6608 327.86328 272.06836 C 324.23183 270.48905 320.39837 269.8421 316.57422 269.95508 z M 488.88086 306.65234 C 474.27785 306.50711 461.66406 314.08789 461.66406 314.08789 C 437.09424 325.50982 428.61719 359.11133 428.61719 359.11133 C 425.54907 391.33415 444.97461 395.98438 444.97461 395.98438 C 461.16535 402.53836 484.76367 388.24414 484.76367 388.24414 C 505.869 377.82516 515.78125 358.50781 515.78125 358.50781 C 531.75547 336.61708 515.01953 318.56445 515.01953 318.56445 C 507.12111 309.6073 497.64267 306.73948 488.88086 306.65234 z M 210.50195 312.20312 C 204.77132 312.02501 196.61995 314.91361 186.93945 320.89648 C 181.09777 324.50683 184.91925 330.14643 191.05664 326.97266 C 194.41409 325.23646 197.16016 322.74004 197.16016 321.42578 C 197.16016 319.67121 197.76301 319.638 199.42578 321.30078 C 202.89175 324.76675 199.89716 327.73224 187.30859 333.29688 C 165.07978 343.12282 159.38633 354.03377 169.94336 366.58008 C 176.44784 374.3102 179.64603 373.6737 180.53906 364.46875 C 181.41813 355.40816 183.51999 353.1296 192.56055 351.43359 C 211.91116 347.8034 219.54297 339.45207 219.54297 321.91016 C 219.54297 315.62641 216.23258 312.38124 210.50195 312.20312 z M 215.14062 348.01953 C 214.49897 347.99173 213.76102 348.18068 212.92969 348.62891 C 210.41161 349.98658 203.31546 352.6561 197.16016 354.5625 C 188.71421 357.17836 185.80907 359.08641 185.31836 362.33984 C 184.49041 367.82915 186.5218 367.79692 192.45117 362.22656 C 196.07026 358.82659 197.16016 358.51624 197.16016 360.88672 C 197.16016 362.58328 188.40359 369.60538 177.70117 376.49023 C 166.99872 383.37506 158.76789 389.85922 159.41016 390.89844 C 161.30223 393.95986 207.6767 372.14819 213.76367 365.33398 C 219.42351 358.99795 219.63218 348.21412 215.14062 348.01953 z M 373.94336 367.06055 C 363.84569 367.081 354.84104 373.96068 346.36914 378.98438 C 338.47072 384.62387 328.82287 383.94828 319.70508 383.18555 C 298.02213 381.93498 273.65967 389.42846 261.99414 408.98828 C 253.50755 421.59277 252.80365 438.34567 259.57227 451.86133 C 265.69693 462.91561 272.46521 474.3106 283.39258 481.31055 C 294.34783 489.58336 308.17203 491.20461 321.02344 494.6543 C 335.16558 497.96387 342.57928 511.47397 352.66602 520.55859 C 367.87076 535.74254 390.85513 541.08034 411.59375 536.75781 C 431.64034 530.32857 447.8954 510.07551 446.73828 488.51172 C 444.46554 473.60407 437.17953 459.85646 429.16016 447.24805 C 426.67621 436.69825 427.04486 425.79272 426.41211 415.04492 C 427.03418 397.81921 412.94487 385.38475 400.42578 375.82617 C 393.96434 372.14258 387.00157 369.1972 379.66797 367.81055 C 377.71953 367.28854 375.8133 367.05676 373.94336 367.06055 z M 205.68164 378.30859 C 190.38428 377.92693 176.61357 401.12824 188.26367 419.97852 C 189.85833 422.55872 194.03153 420.80085 194.49609 417.35352 C 194.70983 415.76755 195.46733 407.46711 196.17773 398.9082 C 197.46933 383.34658 197.46907 383.34571 208.74414 387.30859 C 221.40433 391.75827 224.04835 391.06667 218.36719 384.78906 C 214.36918 380.37131 209.9649 378.41546 205.68164 378.30859 z M 507.18164 397.37891 C 503.43766 397.30903 499.66561 397.73777 496.07422 398.47266 C 483.78481 400.48126 473.0772 407.60941 463.38672 415.06836 C 452.62512 422.70954 446.05383 435.39404 445.13477 448.47461 C 444.648 452.34569 444.86819 456.29574 447.09375 459.63281 C 451.67886 469.23099 460.89337 477.30441 471.89258 477.70312 C 486.98054 477.3329 501.92138 471.96353 513.89453 462.78125 C 521.74916 456.30261 529.0854 448.69086 533.39258 439.34375 C 538.36171 429.04602 537.10766 415.83941 529.31055 407.27148 C 527.96817 405.58759 526.41109 404.07414 524.67969 402.79297 C 519.58137 398.99992 513.4216 397.49536 507.18164 397.37891 z "
       transform="matrix(1.320376,-0.7840489,0.7840489,1.320376,99.591291,406.68303)"
       id="path2078" />
  </g>
</svg>
