<?xml version="1.0" encoding="UTF-8" standalone="no"?>
<!-- Created with Inkscape (http://www.inkscape.org/) -->

<svg
   xmlns:dc="http://purl.org/dc/elements/1.1/"
   xmlns:cc="http://creativecommons.org/ns#"
   xmlns:rdf="http://www.w3.org/1999/02/22-rdf-syntax-ns#"
   xmlns:svg="http://www.w3.org/2000/svg"
   xmlns="http://www.w3.org/2000/svg"
   xmlns:sodipodi="http://sodipodi.sourceforge.net/DTD/sodipodi-0.dtd"
   xmlns:inkscape="http://www.inkscape.org/namespaces/inkscape"
   version="1.0"
   width="580"
   height="580"
   id="svg2"
   sodipodi:version="0.32"
   inkscape:version="0.91 r13725"
   sodipodi:docname="nursery2.svg"
   inkscape:output_extension="org.inkscape.output.svg.inkscape">
  <defs
     id="defs22">
    <inkscape:perspective
       sodipodi:type="inkscape:persp3d"
       inkscape:vp_x="599.81824 : 535.34677 : 1"
       inkscape:vp_y="0 : -1000 : 0"
       inkscape:vp_z="79.922314 : 516.25488 : 1"
       inkscape:persp3d-origin="295.6761 : 676.56117 : 1"
       id="perspective24" />
    <marker
       viewBox="0 0 10 10"
       refY="5"
       refX="10"
       orient="auto"
       markerWidth="4"
       markerUnits="strokeWidth"
       markerHeight="3"
       id="ArrowStart">
      <path
         id="path3568"
         d="M 10 0 L 0 5 L 10 10 z" />
    </marker>
    <marker
       viewBox="0 0 10 10"
       refY="5"
       refX="0"
       orient="auto"
       markerWidth="4"
       markerUnits="strokeWidth"
       markerHeight="3"
       id="ArrowEnd">
      <path
         id="path3565"
         d="M 0 0 L 10 5 L 0 10 z" />
    </marker>
    <inkscape:perspective
       id="perspective2683"
       inkscape:persp3d-origin="306.082 : 204.39034 : 1"
       inkscape:vp_z="612.164 : 306.58551 : 1"
       inkscape:vp_y="0 : 1000 : 0"
       inkscape:vp_x="0 : 306.58551 : 1"
       sodipodi:type="inkscape:persp3d" />
    <marker
       viewBox="0 0 10 10"
       refY="5"
       refX="10"
       orient="auto"
       markerWidth="4"
       markerUnits="strokeWidth"
       markerHeight="3"
       id="marker2959">
      <path
         id="path2626"
         d="M 10 0 L 0 5 L 10 10 z" />
    </marker>
    <marker
       viewBox="0 0 10 10"
       refY="5"
       refX="0"
       orient="auto"
       markerWidth="4"
       markerUnits="strokeWidth"
       markerHeight="3"
       id="marker2956">
      <path
         id="path2623"
         d="M 0 0 L 10 5 L 0 10 z" />
    </marker>
    <inkscape:perspective
       id="perspective2953"
       inkscape:persp3d-origin="306.082 : 204.39034 : 1"
       inkscape:vp_z="612.164 : 306.58551 : 1"
       inkscape:vp_y="0 : 1000 : 0"
       inkscape:vp_x="0 : 306.58551 : 1"
       sodipodi:type="inkscape:persp3d" />
    <inkscape:perspective
       id="perspective3927"
       inkscape:persp3d-origin="0.5 : 0.33333333 : 1"
       inkscape:vp_z="1 : 0.5 : 1"
       inkscape:vp_y="0 : 1000 : 0"
       inkscape:vp_x="0 : 0.5 : 1"
       sodipodi:type="inkscape:persp3d" />
    <inkscape:perspective
       id="perspective4081"
       inkscape:persp3d-origin="0.5 : 0.33333333 : 1"
       inkscape:vp_z="1 : 0.5 : 1"
       inkscape:vp_y="0 : 1000 : 0"
       inkscape:vp_x="0 : 0.5 : 1"
       sodipodi:type="inkscape:persp3d" />
    <inkscape:perspective
       id="perspective4103"
       inkscape:persp3d-origin="0.5 : 0.33333333 : 1"
       inkscape:vp_z="1 : 0.5 : 1"
       inkscape:vp_y="0 : 1000 : 0"
       inkscape:vp_x="0 : 0.5 : 1"
       sodipodi:type="inkscape:persp3d" />
    <inkscape:perspective
       id="perspective4139"
       inkscape:persp3d-origin="0.5 : 0.33333333 : 1"
       inkscape:vp_z="1 : 0.5 : 1"
       inkscape:vp_y="0 : 1000 : 0"
       inkscape:vp_x="0 : 0.5 : 1"
       sodipodi:type="inkscape:persp3d" />
  </defs>
  <metadata
     id="metadata10">
    <rdf:RDF>
      <cc:Work
         rdf:about="">
        <dc:format>image/svg+xml</dc:format>
        <dc:type
           rdf:resource="http://purl.org/dc/dcmitype/StillImage" />
        <cc:license
           rdf:resource="http://web.resource.org/cc/PublicDomain" />
        <dc:language>en</dc:language>
        <dc:title />
      </cc:Work>
    </rdf:RDF>
  </metadata>
  <sodipodi:namedview
     inkscape:window-height="972"
     inkscape:window-width="1280"
     inkscape:pageshadow="2"
     inkscape:pageopacity="0.0"
     guidetolerance="10.0"
     gridtolerance="10.0"
     objecttolerance="10.0"
     borderopacity="1.0"
     bordercolor="#666666"
     pagecolor="#ffffff"
     id="base"
     showgrid="false"
     inkscape:zoom="1.4142136"
     inkscape:cx="237.22374"
     inkscape:cy="265.14547"
     inkscape:window-x="-8"
     inkscape:window-y="-8"
     inkscape:current-layer="svg2"
     inkscape:window-maximized="1" />
  <path
     style="font-size:medium;font-style:normal;font-variant:normal;font-weight:normal;font-stretch:normal;text-indent:0;text-align:start;text-decoration:none;line-height:normal;letter-spacing:normal;word-spacing:normal;text-transform:none;direction:ltr;block-progression:tb;writing-mode:lr-tb;text-anchor:start;opacity:1;color:#000000;fill:#000080;fill-opacity:1;fill-rule:nonzero;stroke:none;stroke-width:16.52018929;marker:none;visibility:visible;display:inline;overflow:visible;enable-background:accumulate;font-family:Bitstream Charter;-inkscape-font-specification:Bitstream Charter"
     d="M 285.48047 85.878906 A 8.2609207 8.2609207 0 0 0 282.47266 86.533203 L 172.81055 133.11328 A 8.2609207 8.2609207 0 0 0 169.58203 135.57031 C 169.28954 135.80033 169.00798 136.04301 168.75 136.3125 C 168.43444 136.64213 168.15562 137.00585 167.90039 137.38477 A 8.2609207 8.2609207 0 0 0 167.89648 137.39258 C 167.76178 137.59302 167.63644 137.79815 167.51953 138.00977 A 8.2609207 8.2609207 0 0 0 167.43164 138.17188 C 167.34161 138.3436 167.25779 138.51773 167.17969 138.69531 A 8.2609207 8.2609207 0 0 0 167.06445 138.9707 C 166.9983 139.1366 166.9365 139.30294 166.88086 139.47266 A 8.2609207 8.2609207 0 0 0 166.79492 139.75391 C 166.74203 139.93627 166.69484 140.1193 166.6543 140.30469 A 8.2609207 8.2609207 0 0 0 166.61133 140.52148 C 166.56756 140.7501 166.53424 140.9797 166.50977 141.21094 A 8.2609207 8.2609207 0 0 0 166.50391 141.25391 C 166.46015 141.68922 166.44114 142.12638 166.46875 142.5625 L 172.73438 242.02539 L 120.18945 230.50195 A 8.260921 8.260921 0 0 0 119.36914 230.35742 C 119.09374 230.32281 118.81694 230.30143 118.53906 230.29492 C 118.28512 230.29195 118.03229 230.30319 117.7793 230.32422 A 8.260921 8.260921 0 0 0 117.4043 230.36914 C 117.28098 230.38514 117.15764 230.40033 117.03516 230.42188 A 8.260921 8.260921 0 0 0 116.56836 230.52148 C 116.48759 230.54051 116.40635 230.55671 116.32617 230.57812 A 8.260921 8.260921 0 0 0 115.82617 230.73047 C 115.74815 230.75659 115.67098 230.7841 115.59375 230.8125 A 8.260921 8.260921 0 0 0 115.13672 230.99219 C 115.04778 231.03091 114.96058 231.07345 114.87305 231.11523 A 8.260921 8.260921 0 0 0 114.45703 231.32422 C 114.35455 231.38034 114.25625 231.4435 114.15625 231.50391 A 8.260921 8.260921 0 0 0 113.81055 231.7168 C 113.60736 231.8537 113.41064 231.99939 113.2207 232.1543 L 27.591797 301.83984 L 27.587891 301.83984 A 8.2609207 8.2609207 0 0 0 25.705078 302.59375 A 8.2609207 8.2609207 0 0 0 25.140625 302.92578 C 25.111902 302.94423 25.085134 302.96558 25.056641 302.98438 A 8.2609207 8.2609207 0 0 0 24.589844 303.3125 C 24.587257 303.31447 24.584615 303.31638 24.582031 303.31836 C 24.384496 303.4693 24.196528 303.63263 24.013672 303.80078 A 8.2609207 8.2609207 0 0 0 23.994141 303.81836 C 23.797505 304.00036 23.61279 304.19354 23.435547 304.39453 A 8.2609207 8.2609207 0 0 0 23.431641 304.39844 C 23.33853 304.50417 23.243506 304.60799 23.15625 304.71875 C 23.096238 304.79493 23.04731 304.8787 22.990234 304.95703 A 8.2609207 8.2609207 0 0 0 22.832031 305.18359 C 22.740832 305.31852 22.651107 305.4535 22.568359 305.59375 A 8.2609207 8.2609207 0 0 0 22.3125 306.0625 C 22.278206 306.13047 22.241386 306.19671 22.208984 306.26562 A 8.2609207 8.2609207 0 0 0 21.515625 311.30273 L 39.390625 410.50586 L 44.875 440.96875 C 44.886056 441.03051 44.909304 441.08897 44.921875 441.15039 A 8.2609207 8.2609207 0 0 0 45.126953 441.95117 C 45.156308 442.04328 45.188018 442.13365 45.220703 442.22461 A 8.2609207 8.2609207 0 0 0 48.673828 446.52344 C 48.681013 446.52799 48.688113 446.53258 48.695312 446.53711 A 8.2609207 8.2609207 0 0 0 49.501953 446.9707 C 49.604794 447.02032 49.705647 447.07203 49.810547 447.11719 A 8.2609207 8.2609207 0 0 0 50.615234 447.4082 A 8.2609207 8.2609207 0 0 0 50.625 447.41211 C 50.678178 447.42825 50.727686 447.45377 50.78125 447.46875 L 185.125 484.84375 C 185.65547 484.99284 186.20074 485.08162 186.75 485.11719 C 186.7526 485.11736 186.75522 485.11702 186.75781 485.11719 A 8.2609207 8.2609207 0 0 0 186.88281 485.11914 C 187.10122 485.1298 187.32024 485.13704 187.53906 485.13086 A 8.2609207 8.2609207 0 0 0 187.86914 485.11719 A 8.260921 8.260921 0 0 0 193.88867 482.59375 A 8.260921 8.260921 0 0 0 193.89258 482.5918 C 193.90034 482.5839 193.90634 482.57434 193.91406 482.56641 A 8.260921 8.260921 0 0 0 194.48047 481.91797 L 260.45703 396.06641 C 260.61289 395.86727 260.75809 395.6601 260.89453 395.44727 A 8.260921 8.260921 0 0 0 261.07227 395.14648 C 261.13409 395.04037 261.19686 394.93495 261.25391 394.82617 A 8.260921 8.260921 0 0 0 261.46094 394.39648 C 261.49472 394.32201 261.527 394.24731 261.55859 394.17188 A 8.260921 8.260921 0 0 0 261.73438 393.72461 C 261.76784 393.62985 261.79612 393.5334 261.82617 393.4375 A 8.260921 8.260921 0 0 0 261.95312 393.00391 C 261.97856 392.90432 261.99778 392.80357 262.01953 392.70312 A 8.260921 8.260921 0 0 0 262.10547 392.28516 C 262.10949 392.26053 262.11143 392.2356 262.11523 392.21094 C 262.14959 391.98809 262.17551 391.76395 262.19141 391.53906 A 8.260921 8.260921 0 0 0 262.21289 390.90234 L 261.45117 334.88281 L 303.23633 353.99805 A 8.2609207 8.2609207 0 0 0 313.16406 354.42773 L 315.03125 353.14258 L 313.07227 408.70312 C 312.99177 410.59452 313.58457 412.50671 314.72266 414.01953 L 381.34766 501.85352 L 381.34961 501.85547 A 8.2609207 8.2609207 0 0 0 381.81641 502.87305 C 381.82197 502.88364 381.82837 502.89373 381.83398 502.9043 A 8.2609207 8.2609207 0 0 0 382.30078 503.66602 C 382.35864 503.75183 382.41751 503.83635 382.47852 503.91992 A 8.2609207 8.2609207 0 0 0 382.75977 504.26758 C 383.03775 504.6076 383.33977 504.92539 383.67188 505.21484 C 383.74219 505.27613 383.80234 505.34752 383.875 505.40625 C 384.0029 505.50963 384.14325 505.59639 384.27734 505.69141 A 8.2609207 8.2609207 0 0 0 384.36914 505.75586 C 384.55382 505.88282 384.74085 506.00414 384.93555 506.11523 A 8.2609207 8.2609207 0 0 0 385.29102 506.30469 C 385.40972 506.36489 385.52496 506.42991 385.64648 506.48438 A 8.2609207 8.2609207 0 0 0 388.46875 507.20898 A 8.2609207 8.2609207 0 0 0 389.39062 507.22656 C 389.43893 507.22512 389.48689 507.22494 389.53516 507.22266 A 8.2609207 8.2609207 0 0 0 390.28125 507.14648 C 390.3633 507.13501 390.4457 507.12924 390.52734 507.11523 A 8.2609207 8.2609207 0 0 0 391.37109 506.92188 A 8.2609207 8.2609207 0 0 0 391.41016 506.91211 C 391.41911 506.90948 391.42856 506.90891 391.4375 506.90625 L 529.84375 466.03125 C 529.9215 466.00839 529.99342 465.97061 530.07031 465.94531 A 8.2609207 8.2609207 0 0 0 530.78516 465.67773 C 530.87677 465.63725 530.96664 465.59469 531.05664 465.55078 A 8.2609207 8.2609207 0 0 0 535.32031 460.75391 C 535.34774 460.67558 535.37737 460.59869 535.40234 460.51953 A 8.2609207 8.2609207 0 0 0 535.63477 459.58398 C 535.63999 459.55547 535.65135 459.52859 535.65625 459.5 L 557.38281 331.95703 C 557.79146 331.2641 558.1068 330.51747 558.29102 329.73242 C 558.98002 326.79622 557.90436 323.51538 555.60938 321.55859 L 466.8125 246.75391 C 465.33481 245.52463 463.41628 244.83577 461.49414 244.84375 C 460.8867 244.84575 460.27976 244.91383 459.6875 245.04883 L 416.10352 254.92773 L 424.77344 132.09766 A 8.2609207 8.2609207 0 0 0 421.3457 124.8125 A 8.2609207 8.2609207 0 0 0 417.5957 122.54102 L 287.93164 86.181641 A 8.2609207 8.2609207 0 0 0 285.48047 85.878906 z M 212.25 189.625 C 214.81726 189.56681 218.00916 190.02833 221.84375 191 C 226.95648 192.29567 232.53325 194.27402 238.53125 196.96875 C 248.15951 201.29469 255.88873 205.39501 261.78125 209.25 C 267.67362 213.10515 272.65937 217.84705 276.71875 223.5 C 279.56941 227.43186 281.89845 232.21111 283.6875 237.875 C 285.47636 243.53896 286.46473 248.65197 286.65625 253.15625 L 288.4375 295.375 C 288.6288 299.87928 289.04781 303.5667 289.65625 306.34375 C 290.26445 309.12074 291.49159 312.84218 293.34375 317.5625 L 263.1875 304.03125 C 261.87266 301.02513 261.01685 298.80041 260.59375 297.34375 C 260.1705 295.88692 259.70438 293.67817 259.21875 290.75 C 255.20612 293.48334 251.16596 294.88558 247.09375 295 C 241.52372 295.0895 234.99247 293.4741 227.46875 290.09375 C 217.4721 285.60241 209.75076 279.55097 204.34375 271.9375 C 198.9367 264.32399 196.0792 256.62245 195.75 248.875 C 195.4412 241.60803 197.05723 236.47493 200.59375 233.46875 C 204.13025 230.46264 210.86022 230.07971 220.8125 232.3125 C 232.74363 234.96313 240.46943 236.53493 244 237.03125 C 247.53047 237.52766 251.26536 237.78649 255.1875 237.78125 C 254.99604 233.27698 254.05128 229.7533 252.34375 227.21875 C 250.63609 224.68427 247.72883 222.50012 243.625 220.65625 C 238.36359 218.29243 234.45525 217.47889 231.90625 218.21875 C 229.91807 218.79833 228.36786 220.86089 227.28125 224.4375 L 196.4375 206.9375 C 197.33468 201.33175 198.77832 197.28245 200.8125 194.75 C 202.84668 192.21773 205.88084 190.58249 209.875 189.84375 C 210.59181 189.70928 211.39425 189.6444 212.25 189.625 z M 234.5 254.15625 C 232.47658 254.20656 231.04602 254.52287 230.21875 255.09375 C 228.51406 256.27194 227.73652 258.13385 227.84375 260.65625 C 227.9662 263.53902 228.9408 266.28262 230.78125 268.90625 C 232.6216 271.52993 235.23631 273.61973 238.65625 275.15625 C 242.23395 276.76368 245.5375 277.25526 248.53125 276.65625 C 251.52488 276.05711 253.58211 274.61731 254.75 272.34375 C 255.91775 270.07014 256.41265 266.65814 256.21875 262.09375 L 255.96875 256.25 C 251.6257 256.06608 247.10409 255.55103 242.375 254.78125 C 239.15503 254.30661 236.52342 254.10594 234.5 254.15625 z M 50.65625 331.21875 L 84.1875 338.96875 L 90.625 373.25 C 93.403022 371.13357 96.742255 369.84444 100.6875 369.375 C 104.6327 368.90565 109.1688 369.25986 114.28125 370.4375 C 124.83231 372.86814 134.13538 378.00476 142.21875 385.875 C 150.30193 393.74529 155.45572 403.5645 157.65625 415.3125 C 159.12311 423.14451 158.81852 429.70013 156.78125 434.9375 C 154.74376 440.17485 151.20987 443.6171 146.1875 445.28125 C 141.16492 446.94527 135.26709 447.00359 128.46875 445.4375 C 122.64924 444.09691 117.13446 441.81059 111.90625 438.625 C 107.95876 436.16521 103.44369 432.22719 98.3125 426.78125 L 100.28125 437.375 L 69.1875 430.21875 L 50.65625 331.21875 z M 493.84375 362.78125 C 498.00504 362.72945 501.46806 363.34807 504.21875 364.65625 C 510.50586 367.64659 514.26277 373.65855 515.4375 382.71875 L 484.46875 396.125 C 484.17466 392.63715 482.94849 390.31554 480.78125 389.15625 C 478.61382 387.99716 475.42676 388.03979 471.21875 389.3125 C 465.90601 390.91948 461.26477 394.23161 457.28125 399.25 C 453.29763 404.26852 450.59868 410.87213 449.1875 419.03125 C 447.92982 426.30241 448.57901 431.30591 451.1875 434.09375 C 453.7959 436.88169 457.63774 437.5274 462.6875 436 C 466.89549 434.72725 470.64583 432.51783 473.90625 429.375 C 477.16653 426.23226 479.91993 422.08502 482.15625 416.9375 L 512.03125 411.375 C 509.18628 418.60024 505.40813 425.23897 500.71875 431.3125 C 496.02918 437.3861 490.47179 442.69322 484.03125 447.21875 C 477.59058 451.74422 469.79885 455.37203 460.59375 458.15625 C 451.70416 460.84504 444.45891 462.20855 438.84375 462.25 C 433.22853 462.2915 428.61508 461.03066 425.03125 458.40625 C 421.44734 455.78192 418.88261 452.19735 417.375 447.65625 C 415.86737 443.11519 415.86737 436.46439 417.375 427.75 C 418.94942 418.64729 421.72665 410.65978 425.71875 403.71875 C 428.64337 398.62616 432.2807 393.74798 436.625 389.09375 C 440.96926 384.43967 445.28854 380.63273 449.53125 377.71875 C 456.26112 373.10583 464.49742 369.3031 474.28125 366.34375 C 481.97408 364.01699 488.49352 362.84785 493.84375 362.78125 z M 103.3125 388.125 C 101.00546 388.20994 99.11676 388.89976 97.65625 390.21875 C 95.319401 392.32925 94.66487 396.21733 95.71875 401.84375 C 96.873734 408.01036 99.118027 412.77408 102.4375 416.1875 C 105.7569 419.60096 109.5471 421.82273 113.84375 422.8125 C 117.81395 423.7271 120.88034 423.10303 123.0625 421 C 125.24454 418.89698 125.76802 414.65542 124.5625 408.21875 C 123.50015 402.5473 121.41638 398.07585 118.28125 394.8125 C 115.14599 391.5492 111.65892 389.48953 107.90625 388.625 C 106.21344 388.23505 104.69672 388.07404 103.3125 388.125 z "
     id="path4040" />
  <g
     id="g2319"
     transform="translate(879.29125,36.805119)">
    <path
       id="path2323"
       style="fill:#ffffff;stroke:none"
       d="" />
  </g>
  <g
     id="g2325"
     transform="translate(879.29125,36.805119)">
    <path
       id="path2329"
       style="fill:#ffffff;stroke:none"
       d="" />
  </g>
</svg>
