<?xml version="1.0" encoding="UTF-8" standalone="no"?>
<!-- Created with Inkscape (http://www.inkscape.org/) -->

<svg
   xmlns:dc="http://purl.org/dc/elements/1.1/"
   xmlns:cc="http://creativecommons.org/ns#"
   xmlns:rdf="http://www.w3.org/1999/02/22-rdf-syntax-ns#"
   xmlns:svg="http://www.w3.org/2000/svg"
   xmlns="http://www.w3.org/2000/svg"
   xmlns:sodipodi="http://sodipodi.sourceforge.net/DTD/sodipodi-0.dtd"
   xmlns:inkscape="http://www.inkscape.org/namespaces/inkscape"
   version="1.1"
   width="24"
   height="24"
   id="svg4460"
   inkscape:version="0.91 r13725"
   sodipodi:docname="baguette.svg">
  <sodipodi:namedview
     pagecolor="#ffffff"
     bordercolor="#666666"
     borderopacity="1"
     objecttolerance="10"
     gridtolerance="10"
     guidetolerance="10"
     inkscape:pageopacity="0"
     inkscape:pageshadow="2"
     inkscape:window-width="1280"
     inkscape:window-height="972"
     id="namedview11"
     showgrid="false"
     inkscape:zoom="19.666666"
     inkscape:cx="17.691591"
     inkscape:cy="11.43926"
     inkscape:window-x="-8"
     inkscape:window-y="-8"
     inkscape:window-maximized="1"
     inkscape:current-layer="svg4460" />
  <defs
     id="defs4462" />
  <metadata
     id="metadata4465">
    <rdf:RDF>
      <cc:Work
         rdf:about="">
        <dc:format>image/svg+xml</dc:format>
        <dc:type
           rdf:resource="http://purl.org/dc/dcmitype/StillImage" />
        <dc:title></dc:title>
      </cc:Work>
    </rdf:RDF>
  </metadata>
  <g
     id="layer1"
     transform="matrix(0.33564259,0.33564259,-0.33564259,0.33564259,353.59995,-345.9457)">
    <g
       id="g3821"
       transform="translate(0,2)" />
  </g>
  <path
     style="color:#000000;display:inline;overflow:visible;visibility:visible;opacity:1;fill:#000080;fill-opacity:1;fill-rule:nonzero;stroke:none;stroke-width:1;stroke-linecap:round;stroke-linejoin:round;stroke-miterlimit:4;stroke-dasharray:none;stroke-dashoffset:0;stroke-opacity:1;marker:none;enable-background:accumulate"
     d="M 14.331811,1.3603515 13.986108,4.3310546 11.700952,6.3623046 13.757592,7.3037108 6.2322013,14.829102 A 1.6339086,1.6339086 0 0 0 5.7322013,14.754883 1.6339086,1.6339086 0 0 0 4.5779045,15.233399 L 1.6345451,18.176758 A 1.6339086,1.6339086 0 1 0 3.9450919,20.487305 L 6.4099357,18.022461 5.7322013,18.022461 A 1.6339086,1.6339086 0 0 0 7.3044669,15.879883 1.6339086,1.6339086 0 0 0 7.3044669,15.87793 L 14.771264,8.4111327 15.646264,10.40918 17.673608,8.2099608 20.714623,7.9072265 19.247827,5.3017577 19.902123,2.3154296 16.970483,2.9052734 14.331811,1.3603515 Z M 21.327905,9.9189452 20.81228,10.946289 19.702905,10.999024 20.523217,11.807618 20.230249,12.87793 21.253686,12.348633 22.18142,12.956055 21.99392,11.819336 22.857202,11.125977 21.720483,10.954102 21.327905,9.9189452 Z M 17.140405,12.958008 16.786889,14.055664 15.700952,14.276368 16.634545,14.948242 16.511499,16.049805 17.441186,15.370118 18.448999,15.831055 18.089623,14.737305 18.83767,13.918946 17.685327,13.920899 17.140405,12.958008 Z M 14.107202,15.125977 13.30642,15.661133 12.478295,15.245118 12.740014,16.170899 12.08767,16.827149 13.048608,16.866211 13.472436,17.688477 13.80642,16.78418 14.720483,16.637696 13.96267,16.041992 14.107202,15.125977 Z M 20.755639,16.780274 19.956811,17.31543 19.126733,16.899414 19.390405,17.825196 18.738061,18.481446 19.700952,18.520508 20.122827,19.344727 20.456811,18.442383 21.372827,18.291992 20.615014,17.696289 20.755639,16.780274 Z M 16.015405,20.25293 15.923608,21.118164 15.152123,21.446289 15.948999,21.803711 16.023217,22.639649 16.607202,21.993164 17.423608,22.178711 16.991967,21.424805 17.419702,20.704102 16.570092,20.883789 16.015405,20.25293 Z"
     id="path4453"
     inkscape:connector-curvature="0" />
</svg>
