<?xml version="1.0" encoding="UTF-8" standalone="no"?>
<!-- Created with Inkscape (http://www.inkscape.org/) -->

<svg
   xmlns:dc="http://purl.org/dc/elements/1.1/"
   xmlns:cc="http://creativecommons.org/ns#"
   xmlns:rdf="http://www.w3.org/1999/02/22-rdf-syntax-ns#"
   xmlns:svg="http://www.w3.org/2000/svg"
   xmlns="http://www.w3.org/2000/svg"
   xmlns:sodipodi="http://sodipodi.sourceforge.net/DTD/sodipodi-0.dtd"
   xmlns:inkscape="http://www.inkscape.org/namespaces/inkscape"
   version="1.1"
   width="24"
   height="24"
   id="svg4460"
   inkscape:version="0.91 r13725"
   sodipodi:docname="citrouille.svg">
  <sodipodi:namedview
     pagecolor="#ffffff"
     bordercolor="#666666"
     borderopacity="1"
     objecttolerance="10"
     gridtolerance="10"
     guidetolerance="10"
     inkscape:pageopacity="0"
     inkscape:pageshadow="2"
     inkscape:window-width="1280"
     inkscape:window-height="972"
     id="namedview11"
     showgrid="false"
     inkscape:zoom="39.333333"
     inkscape:cx="13.076215"
     inkscape:cy="5.9398462"
     inkscape:window-x="-8"
     inkscape:window-y="-8"
     inkscape:window-maximized="1"
     inkscape:current-layer="svg4460" />
  <defs
     id="defs4462" />
  <metadata
     id="metadata4465">
    <rdf:RDF>
      <cc:Work
         rdf:about="">
        <dc:format>image/svg+xml</dc:format>
        <dc:type
           rdf:resource="http://purl.org/dc/dcmitype/StillImage" />
        <dc:title />
      </cc:Work>
    </rdf:RDF>
  </metadata>
  <path
     d="M 12.179688,0.28515625 11.210938,1.4863281 9.640625,1.3867188 10.513672,2.6601562 9.9335938,4.0820312 11.445312,3.6679688 12.652344,4.6445312 12.714844,3.1152344 14.041016,2.296875 12.570312,1.7675781 Z M 18.277344,1.1386719 17.810547,3.328125 15.742188,4.1816406 17.679688,5.3046875 17.851562,7.5351562 19.519531,6.0390625 21.695312,6.5644531 20.787109,4.5175781 21.957031,2.6113281 19.730469,2.8417969 Z M 5.5019531,3.2421875 4.1152344,5 1.8828125,4.8554688 3.1269531,6.7167969 2.2988281,8.7949219 4.453125,8.1875 6.1738281,9.6171875 6.2617188,7.3808594 8.1523438,6.1855469 6.0527344,5.4121094 Z M 13.304688,7.1210938 C 12.098638,7.7834832 11.447642,8.8690069 11.347656,10.375 10.785252,10.531226 10.256949,10.777793 9.7695312,11.115234 9.0883965,10.502837 8.3608089,10.195312 7.5859375,10.195312 6.4861224,10.195312 5.4685906,10.772067 4.53125,11.921875 3.5564137,13.127924 3.0683594,14.524095 3.0683594,16.111328 3.0683594,16.586249 3.1222821,17.051641 3.2285156,17.507812 3.5722045,19.220025 4.3830278,20.713494 5.6640625,21.988281 6.8138701,23.138088 7.8888366,23.712891 8.8886719,23.712891 9.4135805,23.712891 9.901635,23.462806 10.351562,22.962891 11.132677,23.462806 11.862223,23.712891 12.537109,23.712891 13.268237,23.712891 14.035678,23.443661 14.841797,22.90625 15.304216,23.443661 15.804386,23.712891 16.341797,23.712891 17.366626,23.712891 18.465824,23.138088 19.640625,21.988281 20.946654,20.707246 21.742233,19.213777 22.023438,17.507812 22.085926,17.082884 22.117188,16.660868 22.117188,16.242188 22.117188,14.592467 21.641248,13.16151 20.691406,11.949219 19.785312,10.780661 18.77638,10.195312 17.664062,10.195312 16.857948,10.195312 16.107693,10.518465 15.414062,11.162109 14.707928,10.649697 13.947127,10.340608 13.134766,10.234375 13.172262,9.9656671 13.241817,9.7034715 13.341797,9.4472656 13.598002,8.8598677 14.002827,8.387441 14.552734,8.03125 Z M 9.2773438,13.419922 C 9.3470174,13.429185 9.3843674,13.476526 9.3808594,13.570312 8.1506939,15.026649 7.1155201,17.109787 9.8828125,20.263672 10.002503,20.772906 6.8834958,19.568948 6.8359375,16.859375 6.7883792,14.149802 8.7896271,13.355085 9.2773438,13.419922 Z M 15.685547,13.484375 C 16.173263,13.419536 18.098839,14.341281 18.125,16.923828 18.151161,19.506375 14.960388,20.839311 15.080078,20.330078 17.847371,17.176193 16.810243,15.093057 15.580078,13.636719 15.57657,13.542935 15.615873,13.493638 15.685547,13.484375 Z"
     id="path158"
     inkscape:connector-curvature="0"
     sodipodi:nodetypes="ccccccccccccccccccccccccccccccccccccscsccscscsccscscccccscczsszccs" />
</svg>
