<?xml version="1.0" encoding="UTF-8" standalone="no"?>
<!-- Created with Inkscape (http://www.inkscape.org/) -->

<svg
   xmlns:dc="http://purl.org/dc/elements/1.1/"
   xmlns:cc="http://creativecommons.org/ns#"
   xmlns:rdf="http://www.w3.org/1999/02/22-rdf-syntax-ns#"
   xmlns:svg="http://www.w3.org/2000/svg"
   xmlns="http://www.w3.org/2000/svg"
   xmlns:sodipodi="http://sodipodi.sourceforge.net/DTD/sodipodi-0.dtd"
   xmlns:inkscape="http://www.inkscape.org/namespaces/inkscape"
   version="1.1"
   width="24"
   height="24"
   id="svg4460"
   inkscape:version="0.91 r13725"
   sodipodi:docname="clé-coeur.svg">
  <sodipodi:namedview
     pagecolor="#ffffff"
     bordercolor="#666666"
     borderopacity="1"
     objecttolerance="10"
     gridtolerance="10"
     guidetolerance="10"
     inkscape:pageopacity="0"
     inkscape:pageshadow="2"
     inkscape:window-width="1280"
     inkscape:window-height="972"
     id="namedview11"
     showgrid="false"
     inkscape:zoom="19.666666"
     inkscape:cx="5.6305738"
     inkscape:cy="13.128658"
     inkscape:window-x="-8"
     inkscape:window-y="-8"
     inkscape:window-maximized="1"
     inkscape:current-layer="svg4460" />
  <defs
     id="defs4462" />
  <metadata
     id="metadata4465">
    <rdf:RDF>
      <cc:Work
         rdf:about="">
        <dc:format>image/svg+xml</dc:format>
        <dc:type
           rdf:resource="http://purl.org/dc/dcmitype/StillImage" />
        <dc:title></dc:title>
      </cc:Work>
    </rdf:RDF>
  </metadata>
  <path
     style="fill:#ffa500;fill-opacity:1;stroke:none"
     d="M 15.792969 1.6816406 C 13.597561 1.7646823 11.549072 2.8688559 10.425781 4.8144531 C 9.157806 7.010651 9.4157331 9.6892027 10.847656 11.755859 L 6.6074219 16.376953 L 4.0117188 13.982422 L 2.2070312 15.964844 L 3.7753906 17.416016 L 3.1738281 18.064453 L 1.6054688 16.613281 L 0 18.359375 L 2.5957031 20.732422 L 2.4433594 20.896484 C 2.2230994 21.156084 2.1113281 21.431656 2.1113281 21.722656 C 2.1113281 22.139589 2.329072 22.548019 2.7617188 22.949219 L 2.8085938 22.998047 C 3.2097737 23.367714 3.6105387 23.550781 4.0117188 23.550781 C 4.3342387 23.550781 4.6251789 23.413939 4.8847656 23.138672 L 13.302734 13.984375 C 16.6338 15.857888 20.751298 14.894421 22.535156 11.804688 C 24.332421 8.6917322 23.078371 4.6044845 19.734375 2.6738281 C 18.480377 1.9498319 17.110213 1.6318155 15.792969 1.6816406 z M 15.539062 4.0722656 C 16.857506 3.9718846 18.181473 5.1903683 17.552734 7.0839844 C 20.582521 6.0780038 21.88338 10.07027 18.820312 11.042969 C 17.326668 11.517265 14.486305 11.519146 13.181641 11.457031 C 13.119525 10.152366 13.119454 7.3100501 13.59375 5.8164062 C 13.958512 4.667756 14.747997 4.1324941 15.539062 4.0722656 z "
     id="path3696" />
  <g
     id="layer1"
     transform="matrix(0.33564259,0.33564259,-0.33564259,0.33564259,353.59995,-345.9457)">
    <g
       id="g3821"
       transform="translate(0,2)" />
  </g>
</svg>
