<?xml version="1.0" encoding="UTF-8" standalone="no"?>
<!-- Created with Inkscape (http://www.inkscape.org/) -->

<svg
   xmlns:dc="http://purl.org/dc/elements/1.1/"
   xmlns:cc="http://creativecommons.org/ns#"
   xmlns:rdf="http://www.w3.org/1999/02/22-rdf-syntax-ns#"
   xmlns:svg="http://www.w3.org/2000/svg"
   xmlns="http://www.w3.org/2000/svg"
   xmlns:sodipodi="http://sodipodi.sourceforge.net/DTD/sodipodi-0.dtd"
   xmlns:inkscape="http://www.inkscape.org/namespaces/inkscape"
   version="1.1"
   width="24"
   height="24"
   id="svg4460"
   inkscape:version="0.91 r13725"
   sodipodi:docname="grenouille.svg">
  <sodipodi:namedview
     pagecolor="#ffffff"
     bordercolor="#666666"
     borderopacity="1"
     objecttolerance="10"
     gridtolerance="10"
     guidetolerance="10"
     inkscape:pageopacity="0"
     inkscape:pageshadow="2"
     inkscape:window-width="1280"
     inkscape:window-height="972"
     id="namedview11"
     showgrid="false"
     inkscape:zoom="19.666666"
     inkscape:cx="-2.2507824"
     inkscape:cy="13.128658"
     inkscape:window-x="-8"
     inkscape:window-y="-8"
     inkscape:window-maximized="1"
     inkscape:current-layer="svg4460" />
  <defs
     id="defs4462" />
  <metadata
     id="metadata4465">
    <rdf:RDF>
      <cc:Work
         rdf:about="">
        <dc:format>image/svg+xml</dc:format>
        <dc:type
           rdf:resource="http://purl.org/dc/dcmitype/StillImage" />
        <dc:title />
      </cc:Work>
    </rdf:RDF>
  </metadata>
  <g
     id="layer1"
     transform="matrix(0.33564259,0.33564259,-0.33564259,0.33564259,353.59995,-345.9457)">
    <g
       id="g3821"
       transform="translate(0,2)" />
  </g>
  <path
     style="color:#000000;display:inline;overflow:visible;visibility:visible;opacity:1;fill:#336699;fill-opacity:1;fill-rule:nonzero;stroke:none;stroke-width:1;stroke-linecap:round;stroke-linejoin:round;stroke-miterlimit:4;stroke-dasharray:none;stroke-dashoffset:0;stroke-opacity:1;marker:none;enable-background:accumulate"
     d="M 8.3515625 3.515625 C 6.6127654 3.5156249 5.2011717 5.1495239 5.2011719 7.1660156 C 5.2011719 7.6465746 5.2880806 8.1032613 5.4335938 8.5234375 A 7.2698735 6.8191182 0 0 0 4.515625 11.837891 A 7.2698735 6.8191182 0 0 0 4.5410156 12.277344 C 4.0518836 12.072717 3.5754093 11.956666 3.1464844 11.957031 C 2.7278394 11.957388 2.3507914 12.062125 2.046875 12.28125 C 0.83120951 13.157751 1.2210277 15.544896 2.9160156 17.613281 C 3.2795686 18.056923 3.6751767 18.43656 4.0820312 18.771484 C 3.8969175 18.948521 3.7714845 19.210525 3.7714844 19.517578 C 3.7714842 20.051356 4.1296624 20.484375 4.5722656 20.484375 C 4.8833772 20.484375 5.1465037 20.263585 5.2792969 19.951172 C 5.4121158 20.263492 5.6733205 20.484375 5.984375 20.484375 C 6.2627643 20.484375 6.4969729 20.302821 6.640625 20.042969 C 6.6770702 20.048619 6.7120681 20.050381 6.7480469 20.054688 C 6.8925743 20.307634 7.1225078 20.484375 7.3964844 20.484375 C 7.707539 20.484375 7.9687435 20.263492 8.1015625 19.951172 C 8.2343556 20.263585 8.4974822 20.484375 8.8085938 20.484375 C 9.251197 20.484375 9.6113281 20.051356 9.6113281 19.517578 C 9.6113281 18.999679 9.2700676 18.585239 8.8457031 18.560547 C 8.8688376 18.407147 8.8775568 18.24227 8.875 18.074219 A 7.2698735 6.8191182 0 0 0 11.785156 18.65625 A 7.2698735 6.8191182 0 0 0 15.140625 17.880859 C 15.123998 18.118364 15.124452 18.349698 15.15625 18.560547 C 14.731884 18.585239 14.388672 18.999679 14.388672 19.517578 C 14.388672 20.051356 14.750754 20.484375 15.193359 20.484375 C 15.50447 20.484375 15.763692 20.263585 15.896484 19.951172 C 16.029303 20.263492 16.292461 20.484375 16.603516 20.484375 C 16.877493 20.484375 17.107426 20.307634 17.251953 20.054688 C 17.287933 20.050381 17.32293 20.048619 17.359375 20.042969 C 17.503027 20.302821 17.735283 20.484375 18.013672 20.484375 C 18.324727 20.484375 18.587884 20.263492 18.720703 19.951172 C 18.853495 20.263585 19.114669 20.484375 19.425781 20.484375 C 19.868384 20.484375 20.228517 20.051356 20.228516 19.517578 C 20.228516 19.210525 20.101129 18.948521 19.916016 18.771484 C 20.322869 18.43656 20.722385 18.056923 21.085938 17.613281 C 22.780926 15.544896 23.16879 13.157751 21.953125 12.28125 C 21.649209 12.062125 21.274114 11.957388 20.855469 11.957031 C 20.297413 11.956556 19.660155 12.150035 19.015625 12.490234 A 7.2698735 6.8191182 0 0 0 19.054688 11.837891 A 7.2698735 6.8191182 0 0 0 18.134766 8.53125 C 18.28203 8.1089102 18.369141 7.6496095 18.369141 7.1660156 C 18.369141 5.1495239 16.959499 3.515625 15.220703 3.515625 C 14.155479 3.515625 13.216283 4.1315445 12.646484 5.0703125 A 7.2698735 6.8191182 0 0 0 11.785156 5.0195312 A 7.2698735 6.8191182 0 0 0 10.925781 5.0761719 C 10.356236 4.1351087 9.4183239 3.5156251 8.3515625 3.515625 z M 8.9941406 6.28125 C 9.9273271 6.28125 10.6875 7.1580161 10.6875 8.2402344 C 10.6875 8.8852305 10.415653 9.4535263 10 9.8105469 C 10.033875 9.6840504 10.056641 9.5497133 10.056641 9.40625 C 10.056641 8.776876 9.6991713 8.2675781 9.2597656 8.2675781 C 8.8203601 8.2675781 8.4667971 8.776876 8.4667969 9.40625 C 8.4667967 9.698995 8.549362 9.9601408 8.6757812 10.162109 C 7.8956439 9.9888484 7.3066406 9.1956999 7.3066406 8.2402344 C 7.3066406 7.1580161 8.0609538 6.28125 8.9941406 6.28125 z M 14.574219 6.28125 C 15.507406 6.28125 16.265625 7.1580151 16.265625 8.2402344 C 16.265625 9.1325302 15.747336 9.878467 15.042969 10.115234 C 15.154377 9.9191242 15.228516 9.6784413 15.228516 9.40625 C 15.228516 8.776876 14.871047 8.2675781 14.431641 8.2675781 C 13.992235 8.2675781 13.636719 8.776877 13.636719 9.40625 C 13.636719 9.6006257 13.678508 9.7753436 13.738281 9.9355469 C 13.230242 9.5977899 12.884766 8.9683948 12.884766 8.2402344 C 12.884766 7.1580151 13.641036 6.28125 14.574219 6.28125 z M 12 13.556641 C 13.422653 13.556641 14.578125 14.098404 14.578125 14.765625 C 14.578125 15.432847 13.422653 15.972656 12 15.972656 C 10.577347 15.972656 9.4238281 15.432847 9.4238281 14.765625 C 9.4238281 14.098404 10.577347 13.556641 12 13.556641 z "
     id="path4154" />
</svg>
