<?xml version="1.0" encoding="UTF-8" standalone="no"?>
<!-- Created with Inkscape (http://www.inkscape.org/) -->

<svg
   xmlns:dc="http://purl.org/dc/elements/1.1/"
   xmlns:cc="http://creativecommons.org/ns#"
   xmlns:rdf="http://www.w3.org/1999/02/22-rdf-syntax-ns#"
   xmlns:svg="http://www.w3.org/2000/svg"
   xmlns="http://www.w3.org/2000/svg"
   xmlns:sodipodi="http://sodipodi.sourceforge.net/DTD/sodipodi-0.dtd"
   xmlns:inkscape="http://www.inkscape.org/namespaces/inkscape"
   version="1.1"
   width="24"
   height="24"
   id="svg4460"
   inkscape:version="0.91 r13725"
   sodipodi:docname="lampe.svg">
  <sodipodi:namedview
     pagecolor="#ffffff"
     bordercolor="#666666"
     borderopacity="1"
     objecttolerance="10"
     gridtolerance="10"
     guidetolerance="10"
     inkscape:pageopacity="0"
     inkscape:pageshadow="2"
     inkscape:window-width="1280"
     inkscape:window-height="972"
     id="namedview11"
     showgrid="false"
     inkscape:zoom="13.140401"
     inkscape:cx="6.3376015"
     inkscape:cy="13.24372"
     inkscape:window-x="-8"
     inkscape:window-y="-8"
     inkscape:window-maximized="1"
     inkscape:current-layer="svg4460" />
  <defs
     id="defs4462" />
  <metadata
     id="metadata4465">
    <rdf:RDF>
      <cc:Work
         rdf:about="">
        <dc:format>image/svg+xml</dc:format>
        <dc:type
           rdf:resource="http://purl.org/dc/dcmitype/StillImage" />
        <dc:title></dc:title>
      </cc:Work>
    </rdf:RDF>
  </metadata>
  <g
     id="layer1"
     transform="matrix(0.33564259,0.33564259,-0.33564259,0.33564259,353.59995,-345.9457)">
    <g
       id="g3821"
       transform="translate(0,2)" />
  </g>
  <path
     style="color:#000000;display:inline;overflow:visible;visibility:visible;opacity:1;fill:#000000;fill-opacity:1;fill-rule:nonzero;stroke:none;stroke-width:2;stroke-linecap:round;stroke-linejoin:round;stroke-miterlimit:4;stroke-dasharray:none;stroke-dashoffset:0;stroke-opacity:1;marker:none;enable-background:accumulate"
     d="M 12.460443,0 12.060728,0.9326671 11.065249,1.1325244 11.828514,1.8006186 11.712406,2.8094219 12.584164,2.2897931 13.507314,2.7123484 13.280809,1.7225791 13.967937,0.9764454 12.957231,0.8850821 12.460443,0 Z M 18.010765,3.6697598 17.363607,4.3435642 16.440458,4.1931955 16.882047,5.0173687 16.453781,5.8472521 17.373125,5.6835594 18.029798,6.3478469 18.157326,5.42089 18.99292,5.0021414 18.151616,4.5948133 18.010765,3.6697598 Z M 8.2120491,4.7832501 7.4621086,5.79015 6.2077664,5.7425649 6.9329627,6.7684988 6.4989871,7.9467048 7.6981305,7.5736381 8.6859964,8.3502262 8.7012236,7.0939806 9.7442881,6.3954319 8.5546616,5.9919106 8.2120491,4.7832501 Z M 13.674814,8.1332383 12.875385,8.9421843 11.756184,8.7442304 12.279619,9.7530338 11.744763,10.756127 12.865868,10.571497 13.653877,11.38996 13.825183,10.265049 14.84731,9.768261 13.830892,9.2600525 13.674814,8.1332383 Z M 19.706696,9.3647397 18.709313,10.316441 17.357897,10.034737 17.955565,11.279562 17.270341,12.476803 18.638887,12.292173 19.565844,13.3143 19.813286,11.95527 21.071436,11.38996 19.857065,10.735189 19.706696,9.3647397 Z M 10.155423,12.472996 C 9.4509627,12.472995 8.87824,12.995703 8.87824,13.639781 8.87824,13.775409 8.9097199,13.903193 8.9562795,14.024269 8.1389978,14.127708 7.2314321,14.492723 6.3981067,14.995004 6.3141856,14.731155 6.2135203,14.4854 6.0745283,14.271711 5.6905005,13.681296 5.0376825,13.19487 4.3881138,13.365691 1.8976823,13.865688 -0.27167069,16.837656 0.44426406,18.997859 1.2463574,20.492418 2.6942439,20.831543 4.1368647,20.817512 4.5259104,21.515033 5.1810778,22.088971 6.2572549,22.443017 5.8748163,22.889026 5.5660043,23.406481 5.377883,23.990484 L 13.985068,24 C 13.77294,23.335838 13.412011,22.750911 12.953425,22.267905 17.073151,20.713021 19.613566,16.459789 23.363131,16.938378 L 23.694324,14.566738 C 16.112283,15.165524 17.64365,18.366349 10.99292,14.503926 11.256348,14.290285 11.428798,13.987051 11.428798,13.639781 11.428798,12.995703 10.859884,12.472996 10.155423,12.472996 Z M 4.4261818,14.934095 C 4.5971944,14.929653 4.6288926,14.922956 4.7611806,15.126339 4.8563255,15.272616 4.9634458,15.576105 5.0200434,16.041875 4.0031078,17.090761 3.5998394,17.967601 3.6724345,19.239591 3.18129,19.211776 2.8003072,19.135123 2.5437169,19.030217 1.3949319,18.431326 2.0988402,16.961881 2.5932053,16.275994 3.184821,15.478248 4.0841567,14.94298 4.4261818,14.934095 Z"
     id="path4273"
     inkscape:connector-curvature="0" />
</svg>
