<?xml version="1.0" encoding="UTF-8" standalone="no"?>
<!-- Created with Inkscape (http://www.inkscape.org/) -->

<svg
   xmlns:dc="http://purl.org/dc/elements/1.1/"
   xmlns:cc="http://creativecommons.org/ns#"
   xmlns:rdf="http://www.w3.org/1999/02/22-rdf-syntax-ns#"
   xmlns:svg="http://www.w3.org/2000/svg"
   xmlns="http://www.w3.org/2000/svg"
   xmlns:sodipodi="http://sodipodi.sourceforge.net/DTD/sodipodi-0.dtd"
   xmlns:inkscape="http://www.inkscape.org/namespaces/inkscape"
   version="1.1"
   width="24"
   height="24"
   id="svg4460"
   inkscape:version="0.91 r13725"
   sodipodi:docname="papillon.svg">
  <sodipodi:namedview
     pagecolor="#ffffff"
     bordercolor="#666666"
     borderopacity="1"
     objecttolerance="10"
     gridtolerance="10"
     guidetolerance="10"
     inkscape:pageopacity="0"
     inkscape:pageshadow="2"
     inkscape:window-width="1280"
     inkscape:window-height="972"
     id="namedview11"
     showgrid="false"
     inkscape:zoom="27.812866"
     inkscape:cx="9.5708579"
     inkscape:cy="13.726665"
     inkscape:window-x="-8"
     inkscape:window-y="-8"
     inkscape:window-maximized="1"
     inkscape:current-layer="svg4460" />
  <defs
     id="defs4462" />
  <metadata
     id="metadata4465">
    <rdf:RDF>
      <cc:Work
         rdf:about="">
        <dc:format>image/svg+xml</dc:format>
        <dc:type
           rdf:resource="http://purl.org/dc/dcmitype/StillImage" />
        <dc:title></dc:title>
      </cc:Work>
    </rdf:RDF>
  </metadata>
  <g
     id="layer1"
     transform="matrix(0.33564259,0.33564259,-0.33564259,0.33564259,353.59995,-345.9457)">
    <g
       id="g3821"
       transform="translate(0,2)" />
  </g>
  <path
     style="color:#000000;display:inline;overflow:visible;visibility:visible;opacity:1;fill:#800000;fill-opacity:1;fill-rule:nonzero;stroke:none;stroke-width:2;stroke-linecap:round;stroke-linejoin:round;stroke-miterlimit:4;stroke-dasharray:none;stroke-dashoffset:0;stroke-opacity:1;marker:none;enable-background:accumulate"
     d="M 10.884766 1.1035156 A 0.35003499 0.35003499 0 0 0 10.626953 1.6816406 C 11.378136 2.5732227 11.654625 3.9967474 11.712891 5.203125 C 11.735503 5.6713065 11.725145 6.0787331 11.707031 6.4316406 C 11.210364 6.5786459 10.678755 6.9281218 10.630859 7.1171875 C 10.621506 7.1541108 10.354009 8.3099024 10.261719 8.7070312 C 10.255256 8.4311342 10.244757 8.1525257 10.214844 7.8691406 C 9.8901782 4.7934749 8.1197888 2.7829755 6.3339844 2.1230469 C 6.0788696 2.0287713 5.8278575 1.962136 5.5761719 1.9238281 C 0.18756596 1.1036484 1.2865161 6.6642456 2.2753906 8.7070312 C 2.8234228 9.839137 3.5244474 11.596334 4.40625 12.914062 C 4.1506976 12.985962 3.8945183 13.077765 3.6425781 13.195312 C 1.645143 14.127251 0.62444664 16.1684 1.3632812 17.751953 C 2.1021163 19.335504 4.3228781 19.86358 6.3203125 18.931641 C 7.1920063 18.524937 7.8605554 17.901929 8.2949219 17.203125 C 8.2249916 17.506011 7.9667969 18.628906 7.9667969 18.628906 C 7.5983166 19.930199 9.5669045 20.457677 9.8984375 19.146484 C 9.8984375 19.146484 10.235479 18.040951 10.326172 17.744141 C 10.352572 18.567046 10.6199 19.44376 11.171875 20.232422 C 12.435735 22.038222 14.621108 22.689479 16.052734 21.6875 C 17.484361 20.685521 17.621282 18.409316 16.357422 16.603516 C 16.198009 16.375747 16.021302 16.166606 15.835938 15.976562 C 17.258465 15.276277 18.744494 14.104853 19.785156 13.398438 C 21.662939 12.123772 25.397075 7.8590071 20.320312 5.875 C 20.083196 5.7823335 19.830573 5.7138811 19.5625 5.6679688 C 17.685984 5.3465817 15.149079 6.2038061 13.330078 8.7050781 C 13.161247 8.9372358 13.01161 9.1746437 12.867188 9.4121094 C 12.992809 8.9989148 13.348463 7.8354769 13.359375 7.796875 C 13.408302 7.6237922 13.164387 7.1613007 12.845703 6.8046875 C 13.105943 6.4611302 13.429637 6.0547392 13.833984 5.6171875 C 14.792521 4.5799379 16.102593 3.490963 17.40625 3.2011719 A 0.3501818 0.3501818 0 1 0 17.253906 2.5175781 C 15.694374 2.8642479 14.324596 4.0558269 13.320312 5.1425781 C 12.735278 5.7756544 12.646315 5.9674428 12.363281 6.3632812 C 12.395832 5.9437669 12.444101 5.8322938 12.412109 5.1699219 C 12.350274 3.8896394 12.087794 2.3291681 11.162109 1.2304688 A 0.35003499 0.35003499 0 0 0 10.884766 1.1035156 z M 6.3261719 4.1699219 L 6.3164062 5.7109375 L 7.5820312 6.5957031 L 6.1113281 7.0644531 L 5.6601562 8.5410156 L 4.7617188 7.2851562 L 3.21875 7.3144531 L 4.1347656 6.0703125 L 3.6289062 4.6132812 L 5.0957031 5.0996094 L 6.3261719 4.1699219 z M 18.546875 7.4433594 L 19.150391 8.8652344 L 20.662109 9.1777344 L 19.494141 10.1875 L 19.666016 11.720703 L 18.345703 10.923828 L 16.939453 11.5625 L 17.287109 10.058594 L 16.246094 8.9179688 L 17.785156 8.7851562 L 18.546875 7.4433594 z M 7.546875 9.2597656 C 7.6669595 9.2432775 7.7913421 9.2517501 7.9160156 9.2851562 C 8.4147098 9.418781 8.7117488 9.9270869 8.578125 10.425781 C 8.4445008 10.924475 7.9322885 11.221516 7.4335938 11.087891 C 6.9348992 10.954266 6.6398125 10.442053 6.7734375 9.9433594 C 6.8736563 9.5693389 7.1866215 9.3092301 7.546875 9.2597656 z M 14.242188 11.054688 C 14.362449 11.038247 14.488608 11.044719 14.613281 11.078125 C 15.111975 11.21175 15.407062 11.722009 15.273438 12.220703 C 15.139814 12.719397 14.629554 13.016438 14.130859 12.882812 C 13.632164 12.749187 13.335125 12.235022 13.46875 11.736328 C 13.568968 11.362308 13.881403 11.10401 14.242188 11.054688 z M 4.8125 15.027344 C 4.8959744 15.032263 4.9805382 15.045874 5.0644531 15.068359 C 5.7357723 15.248238 6.1330045 15.940007 5.953125 16.611328 C 5.7732458 17.282647 5.0834289 17.67988 4.4121094 17.5 C 3.7407899 17.320121 3.3435577 16.632257 3.5234375 15.960938 C 3.6808325 15.373532 4.2281795 14.992912 4.8125 15.027344 z M 13.939453 17.472656 C 14.022927 17.477575 14.107491 17.491187 14.191406 17.513672 C 14.862725 17.693552 15.259958 18.385321 15.080078 19.056641 C 14.9002 19.727961 14.212335 20.125193 13.541016 19.945312 C 12.869696 19.765434 12.470511 19.077569 12.650391 18.40625 C 12.807786 17.818844 13.355133 17.438225 13.939453 17.472656 z "
     id="path4341" />
</svg>
