<?xml version="1.0" encoding="UTF-8" standalone="no"?>
<!-- Created with Inkscape (http://www.inkscape.org/) -->

<svg
   xmlns:dc="http://purl.org/dc/elements/1.1/"
   xmlns:cc="http://creativecommons.org/ns#"
   xmlns:rdf="http://www.w3.org/1999/02/22-rdf-syntax-ns#"
   xmlns:svg="http://www.w3.org/2000/svg"
   xmlns="http://www.w3.org/2000/svg"
   xmlns:sodipodi="http://sodipodi.sourceforge.net/DTD/sodipodi-0.dtd"
   xmlns:inkscape="http://www.inkscape.org/namespaces/inkscape"
   version="1.0"
   width="580"
   height="580"
   id="svg2"
   sodipodi:version="0.32"
   inkscape:version="0.91 r13725"
   sodipodi:docname="pub.svg"
   inkscape:output_extension="org.inkscape.output.svg.inkscape">
  <metadata
     id="metadata10">
    <rdf:RDF>
      <cc:Work
         rdf:about="">
        <dc:format>image/svg+xml</dc:format>
        <dc:type
           rdf:resource="http://purl.org/dc/dcmitype/StillImage" />
        <cc:license
           rdf:resource="http://web.resource.org/cc/PublicDomain" />
        <dc:language>en</dc:language>
      </cc:Work>
    </rdf:RDF>
  </metadata>
  <sodipodi:namedview
     inkscape:window-height="972"
     inkscape:window-width="1280"
     inkscape:pageshadow="2"
     inkscape:pageopacity="0.0"
     guidetolerance="10.0"
     gridtolerance="10.0"
     objecttolerance="10.0"
     borderopacity="1.0"
     bordercolor="#666666"
     pagecolor="#ffffff"
     id="base"
     showgrid="false"
     inkscape:zoom="0.79655172"
     inkscape:cx="109.84849"
     inkscape:cy="287.48918"
     inkscape:window-x="-8"
     inkscape:window-y="-8"
     inkscape:current-layer="svg2"
     inkscape:window-maximized="1" />
  <defs
     id="defs4">
    <inkscape:perspective
       sodipodi:type="inkscape:persp3d"
       inkscape:vp_x="0 : 290 : 1"
       inkscape:vp_y="0 : 1000 : 0"
       inkscape:vp_z="580 : 290 : 1"
       inkscape:persp3d-origin="290 : 193.33333 : 1"
       id="perspective12" />
  </defs>
  <path
     d="M 468.232,77.93 467.981,77.93 C 468.268,77.682 468.426,77.432 468.426,77.18 468.426,71.243 387.3585,66.43 287.356,66.43 187.3535,66.43 106.286,71.243 106.286,77.18 106.286,77.432 106.444,77.682 106.732,77.93 L 106.286,77.93 162.798,508.858 163.053,508.858 C 162.553,509.128 162.288,509.402 162.288,509.679 162.288,513.781 218.2835,517.104 287.358,517.104 356.4325,517.104 412.428,513.781 412.428,509.679 412.428,509.402 412.162,509.127 411.663,508.858 Z M 375.37914,477.35255 C 372.48414,480.03155 200.77845,478.77614 197.88345,476.09714 L 144.20126,135.84429 C 239.2787,201.74966 301.8095,126.89331 426.36103,133.33347 Z"
     style="fill:#000080"
     id="path2209"
     sodipodi:nodetypes="ccszsccccszsccccccc"
     inkscape:connector-curvature="0" />
</svg>
