<?xml version="1.0" encoding="UTF-8" standalone="no"?>
<!-- Created with Inkscape (http://www.inkscape.org/) -->

<svg
   xmlns:dc="http://purl.org/dc/elements/1.1/"
   xmlns:cc="http://creativecommons.org/ns#"
   xmlns:rdf="http://www.w3.org/1999/02/22-rdf-syntax-ns#"
   xmlns:svg="http://www.w3.org/2000/svg"
   xmlns="http://www.w3.org/2000/svg"
   xmlns:sodipodi="http://sodipodi.sourceforge.net/DTD/sodipodi-0.dtd"
   xmlns:inkscape="http://www.inkscape.org/namespaces/inkscape"
   version="1.0"
   width="580"
   height="580"
   id="svg2"
   sodipodi:version="0.32"
   inkscape:version="0.91 r13725"
   sodipodi:docname="biergarten.svg"
   inkscape:output_extension="org.inkscape.output.svg.inkscape">
  <metadata
     id="metadata10">
    <rdf:RDF>
      <cc:Work
         rdf:about="">
        <dc:format>image/svg+xml</dc:format>
        <dc:type
           rdf:resource="http://purl.org/dc/dcmitype/StillImage" />
        <cc:license
           rdf:resource="http://web.resource.org/cc/PublicDomain" />
        <dc:language>en</dc:language>
      </cc:Work>
    </rdf:RDF>
  </metadata>
  <sodipodi:namedview
     inkscape:window-height="972"
     inkscape:window-width="1280"
     inkscape:pageshadow="2"
     inkscape:pageopacity="0.0"
     guidetolerance="10.0"
     gridtolerance="10.0"
     objecttolerance="10.0"
     borderopacity="1.0"
     bordercolor="#666666"
     pagecolor="#ffffff"
     id="base"
     showgrid="false"
     inkscape:zoom="1.1264942"
     inkscape:cx="311.04985"
     inkscape:cy="277.36413"
     inkscape:window-x="-8"
     inkscape:window-y="-8"
     inkscape:current-layer="svg2"
     inkscape:window-maximized="1" />
  <defs
     id="defs4">
    <inkscape:perspective
       sodipodi:type="inkscape:persp3d"
       inkscape:vp_x="0 : 290 : 1"
       inkscape:vp_y="0 : 1000 : 0"
       inkscape:vp_z="580 : 290 : 1"
       inkscape:persp3d-origin="290 : 193.33333 : 1"
       id="perspective12" />
    <inkscape:perspective
       id="perspective3036"
       inkscape:persp3d-origin="0.5 : 0.33333333 : 1"
       inkscape:vp_z="1 : 0.5 : 1"
       inkscape:vp_y="0 : 1000 : 0"
       inkscape:vp_x="0 : 0.5 : 1"
       sodipodi:type="inkscape:persp3d" />
    <inkscape:perspective
       id="perspective3052"
       inkscape:persp3d-origin="0.5 : 0.33333333 : 1"
       inkscape:vp_z="1 : 0.5 : 1"
       inkscape:vp_y="0 : 1000 : 0"
       inkscape:vp_x="0 : 0.5 : 1"
       sodipodi:type="inkscape:persp3d" />
    <inkscape:perspective
       id="perspective3945"
       inkscape:persp3d-origin="0.5 : 0.33333333 : 1"
       inkscape:vp_z="1 : 0.5 : 1"
       inkscape:vp_y="0 : 1000 : 0"
       inkscape:vp_x="0 : 0.5 : 1"
       sodipodi:type="inkscape:persp3d" />
  </defs>
  <path
     style="opacity:0.1;fill:#ffffff;fill-opacity:1;fill-rule:evenodd;stroke:none"
     d="m 116.54107,83.44698 119.71194,-21.335331 132.2871,13.796881 8.04386,363.39512 18.58841,29.06501 c 0,0 -60.31626,57.03706 -152.88947,58.17487 C 149.7097,527.68134 96.478545,469.75328 96.478545,469.75328 L 119.96006,433.80197 116.54107,83.44698 z"
     id="path2381"
     sodipodi:nodetypes="ccccczccc" />
  <path
     style="color:#000000;font-style:normal;font-variant:normal;font-weight:normal;font-stretch:normal;font-size:medium;line-height:normal;font-family:sans-serif;text-indent:0;text-align:start;text-decoration:none;text-decoration-line:none;text-decoration-style:solid;text-decoration-color:#000000;letter-spacing:normal;word-spacing:normal;text-transform:none;direction:ltr;block-progression:tb;writing-mode:lr-tb;baseline-shift:baseline;text-anchor:start;white-space:normal;clip-rule:nonzero;display:inline;overflow:visible;visibility:visible;opacity:1;isolation:auto;mix-blend-mode:normal;color-interpolation:sRGB;color-interpolation-filters:linearRGB;solid-color:#000000;solid-opacity:1;fill:#000080;fill-opacity:1;fill-rule:nonzero;stroke:none;stroke-width:35;stroke-linecap:round;stroke-linejoin:round;stroke-miterlimit:4;stroke-dasharray:none;stroke-dashoffset:0;stroke-opacity:1;color-rendering:auto;image-rendering:auto;shape-rendering:auto;text-rendering:auto;enable-background:accumulate"
     d="M 253.29492 42.527344 C 247.39254 42.528355 241.5175 42.599746 235.66992 42.728516 C 194.64447 43.63194 152.84368 46.428214 111.13477 60.689453 A 17.50175 17.50175 0 0 0 99.298828 77.472656 L 103.66016 419.52539 A 15.0015 15.0015 0 0 0 101.57422 424.44922 C 88.311698 436.47059 80.847833 452.07637 81.001953 468.36719 C 81.135353 482.46779 88.592052 494.79768 98.507812 503.96094 C 108.42357 513.12419 121.144 520.14658 136.05273 525.92383 C 165.8702 537.47833 204.79239 543.84109 247.6582 543.43555 C 290.52407 543.03001 329.30064 535.93257 358.87695 523.81445 C 373.66511 517.7554 386.2437 510.49147 395.97656 501.14062 C 405.70942 491.78979 412.9224 479.32217 412.78906 465.22852 C 412.63151 448.56812 404.968 432.1471 389.93945 420.19531 A 15.0015 15.0015 0 0 0 389.80273 419.98242 L 391.60352 421.27148 L 391.82812 384.32617 L 453.79492 377.40625 A 12.435991 12.435991 0 0 0 454.90234 377.23242 C 462.39337 375.70172 470.00713 373.05741 476.32617 367.32422 C 482.50087 361.72199 486.43926 353.10274 487.0293 343.69922 L 510.30469 149.65234 A 12.435991 12.435991 0 0 0 510.38281 147.67969 C 510.00725 138.18695 507.05211 129.06046 500.93945 122.1582 C 494.8268 115.25594 486.18902 111.16626 476.67773 109.35352 A 12.435991 12.435991 0 0 0 474.20312 109.13477 A 12.435991 12.435991 0 0 0 473.82031 109.14453 L 393.47656 112.55859 L 393.70508 74.900391 A 17.50175 17.50175 0 0 0 380.82227 57.914062 C 337.24472 45.99657 294.61157 42.520265 253.29492 42.527344 z M 349.86523 121.54102 C 352.67648 121.5246 355.53164 121.56227 358.41992 121.64258 L 356.56641 427.63086 C 332.43313 447.71863 286.44637 458.01846 247.87695 459.26562 C 209.03135 460.52173 164.96347 452.48987 138.79688 429.96094 L 134.98633 131.34961 C 206.24137 172.21539 257.90098 122.07809 349.86523 121.54102 z M 466.0625 145.48242 C 470.33455 146.48543 472.61073 147.84599 473.7832 149.16992 C 475.00092 150.54493 475.96337 152.64421 476.24414 156.91406 L 455.34375 333.89062 A 15.0015 15.0015 0 0 0 455.25586 334.96289 C 455.07395 338.93355 454.50233 339.25647 453.48047 340.18359 C 452.48358 341.08806 449.79762 342.48114 445.27539 343.44727 L 392.03711 349.9668 L 393.25586 148.8125 L 466.0625 145.48242 z M 372.83203 453.51367 C 375.84856 458.36174 377.77206 463.76096 377.78906 465.55859 C 377.8102 467.793 376.87185 470.96089 371.72852 475.90234 C 366.58518 480.8438 357.56161 486.52982 345.60742 491.42773 C 321.69905 501.22356 286.42437 508.06763 247.32812 508.4375 C 208.23193 508.80738 172.81034 502.63231 148.69922 493.28906 C 136.64366 488.61744 127.50448 483.10075 122.26172 478.25586 C 117.01896 473.41097 116.02107 470.26262 116 468.03516 C 115.9815 466.07942 117.99923 460.48899 121.73047 455.0918 C 156.42104 483.89453 206.80072 490.60955 248.8457 489.25 C 289.65901 487.93027 339.59609 480.37075 372.83203 453.51367 z "
     id="path3839" />
</svg>
