<?xml version="1.0" encoding="UTF-8" standalone="no"?>
<!-- Created with Inkscape (http://www.inkscape.org/) -->

<svg
   xmlns:dc="http://purl.org/dc/elements/1.1/"
   xmlns:cc="http://creativecommons.org/ns#"
   xmlns:rdf="http://www.w3.org/1999/02/22-rdf-syntax-ns#"
   xmlns:svg="http://www.w3.org/2000/svg"
   xmlns="http://www.w3.org/2000/svg"
   xmlns:sodipodi="http://sodipodi.sourceforge.net/DTD/sodipodi-0.dtd"
   xmlns:inkscape="http://www.inkscape.org/namespaces/inkscape"
   version="1.0"
   width="580"
   height="580"
   id="svg2"
   sodipodi:version="0.32"
   inkscape:version="0.91 r13725"
   sodipodi:docname="drinkingtap.svg"
   inkscape:output_extension="org.inkscape.output.svg.inkscape">
  <metadata
     id="metadata2975">
    <rdf:RDF>
      <cc:Work
         rdf:about="">
        <dc:format>image/svg+xml</dc:format>
        <dc:type
           rdf:resource="http://purl.org/dc/dcmitype/StillImage" />
        <cc:license
           rdf:resource="http://web.resource.org/cc/PublicDomain" />
        <dc:language>en</dc:language>
      </cc:Work>
    </rdf:RDF>
  </metadata>
  <sodipodi:namedview
     inkscape:window-height="972"
     inkscape:window-width="1280"
     inkscape:pageshadow="2"
     inkscape:pageopacity="0.0"
     guidetolerance="10.0"
     gridtolerance="10.0"
     objecttolerance="10.0"
     borderopacity="1.0"
     bordercolor="#666666"
     pagecolor="#ffffff"
     id="base"
     inkscape:zoom="0.92167712"
     inkscape:cx="269.04998"
     inkscape:cy="204.79624"
     inkscape:window-x="-8"
     inkscape:window-y="-8"
     inkscape:current-layer="svg2"
     showgrid="false"
     inkscape:window-maximized="1" />
  <defs
     id="defs4">
    <inkscape:perspective
       sodipodi:type="inkscape:persp3d"
       inkscape:vp_x="0 : 290 : 1"
       inkscape:vp_y="0 : 1000 : 0"
       inkscape:vp_z="580 : 290 : 1"
       inkscape:persp3d-origin="290 : 193.33333 : 1"
       id="perspective2441" />
    <inkscape:perspective
       id="perspective3452"
       inkscape:persp3d-origin="30 : 20 : 1"
       inkscape:vp_z="60 : 30 : 1"
       inkscape:vp_y="0 : 1000 : 0"
       inkscape:vp_x="0 : 30 : 1"
       sodipodi:type="inkscape:persp3d" />
    <symbol
       viewBox="244.5 110 489 219.9"
       id="symbol-university">
      <path
         id="path4460"
         d="M79,43l57,119c0,0,21-96,104-96s124,106,124,106l43-133l82-17L0,17L79,43z" />
      <path
         id="path4462"
         d="M94,176l-21,39"
         stroke-width="20"
         stroke="#000000"
         fill="none" />
      <path
         id="path4464"
         d="M300,19c0,10.5-22.6,19-50.5,19S199,29.5,199,19s22.6-19,50.5-19S300,8.5,300,19z" />
      <path
         id="path4466"
         d="M112,216l-16-38L64,88c0,0-9-8-4-35s16-24,16-24"
         stroke-width="20"
         stroke="#000000"
         ill="none" />
    </symbol>
    <inkscape:perspective
       id="perspective4471"
       inkscape:persp3d-origin="372.04724 : 350.78739 : 1"
       inkscape:vp_z="744.09448 : 526.18109 : 1"
       inkscape:vp_y="0 : 1000 : 0"
       inkscape:vp_x="0 : 526.18109 : 1"
       sodipodi:type="inkscape:persp3d" />
    <inkscape:perspective
       id="perspective4668"
       inkscape:persp3d-origin="6 : 4 : 1"
       inkscape:vp_z="12 : 6 : 1"
       inkscape:vp_y="0 : 1000 : 0"
       inkscape:vp_x="0 : 6 : 1"
       sodipodi:type="inkscape:persp3d" />
    <inkscape:perspective
       id="perspective2562"
       inkscape:persp3d-origin="372.04724 : 350.78739 : 1"
       inkscape:vp_z="744.09448 : 526.18109 : 1"
       inkscape:vp_y="0 : 1000 : 0"
       inkscape:vp_x="0 : 526.18109 : 1"
       sodipodi:type="inkscape:persp3d" />
    <inkscape:perspective
       id="perspective12"
       inkscape:persp3d-origin="290 : 193.33333 : 1"
       inkscape:vp_z="580 : 290 : 1"
       inkscape:vp_y="0 : 1000 : 0"
       inkscape:vp_x="0 : 290 : 1"
       sodipodi:type="inkscape:persp3d" />
  </defs>
  <g
     id="layer3"
     inkscape:label="Layout"
     style="display:none;stroke:#757575;stroke-opacity:1"
     transform="matrix(48.14969,0,0,48.14969,-536.27327,-33.306752)">
    <rect
       style="fill:none;stroke:#757575;stroke-width:0.10000000000000001;stroke-miterlimit:4;stroke-dasharray:none;stroke-opacity:1;display:inline"
       id="rect4134"
       width="10"
       height="10"
       x="1"
       y="1" />
    <rect
       style="fill:none;stroke:#757575;stroke-width:0.10000000000000001;stroke-miterlimit:4;stroke-dasharray:none;stroke-opacity:1;display:inline"
       id="rect4136"
       width="8"
       height="8"
       x="2"
       y="2" />
  </g>
  <path
     style="color:#000000;font-style:normal;font-variant:normal;font-weight:normal;font-stretch:normal;font-size:medium;line-height:normal;font-family:sans-serif;text-indent:0;text-align:start;text-decoration:none;text-decoration-line:none;text-decoration-style:solid;text-decoration-color:#000000;letter-spacing:normal;word-spacing:normal;text-transform:none;direction:ltr;block-progression:tb;writing-mode:lr-tb;baseline-shift:baseline;text-anchor:start;white-space:normal;clip-rule:nonzero;display:inline;overflow:visible;visibility:visible;opacity:0.98512196;isolation:auto;mix-blend-mode:normal;color-interpolation:sRGB;color-interpolation-filters:linearRGB;solid-color:#000000;solid-opacity:1;fill:#000080;fill-opacity:1;fill-rule:nonzero;stroke:none;stroke-width:15;stroke-linecap:round;stroke-linejoin:round;stroke-miterlimit:4;stroke-dasharray:none;stroke-dashoffset:0;stroke-opacity:1;color-rendering:auto;image-rendering:auto;shape-rendering:auto;text-rendering:auto;enable-background:accumulate"
     d="M 393.23242 33.330078 C 383.18537 33.330078 374.88281 41.632629 374.88281 51.679688 C 374.88281 61.726745 383.18537 70.03125 393.23242 70.03125 C 397.70462 70.03125 401.80254 68.807455 406.44141 67.205078 L 406.44141 81.285156 C 400.01766 85.40907 395.21039 91.87025 391.91406 98.462891 C 389.11958 104.05186 387.03385 110.25793 385.65625 116.92969 L 365.16406 116.81445 L 351.30859 116.73633 C 308.78777 116.07194 280.45151 139.8616 269.70898 162.68945 C 258.96646 185.51731 260.875 207.41016 260.875 207.41016 L 310.76367 204.08398 C 310.76367 204.08398 310.50204 193.42878 314.94922 183.97852 C 319.3964 174.52826 323.60953 166.30988 350.52734 166.73047 L 350.65234 166.73242 L 364.88086 166.8125 L 388.07422 166.94336 C 389.15774 170.22669 390.43382 173.36373 391.91406 176.32422 C 397.40211 187.3003 407.04302 197.96289 421.44141 197.96289 C 435.83979 197.96289 445.48071 187.3003 450.96875 176.32422 C 452.39249 173.47674 453.6286 170.46722 454.68555 167.32031 L 542.81836 167.81836 L 543.10156 117.81836 L 457.30664 117.33398 C 455.93002 110.50917 453.81933 104.16405 450.96875 98.462891 C 447.67243 91.87025 442.86515 85.40907 436.44141 81.285156 L 436.44141 67.076172 C 441.22903 68.739405 445.43107 70.03125 450.01758 70.03125 C 460.06463 70.03125 468.36719 61.726745 468.36719 51.679688 C 468.36719 41.632629 460.06463 33.330078 450.01758 33.330078 A 7.50075 7.50075 0 0 0 449.72852 33.335938 C 444.20515 33.548025 439.24914 35.553578 432.82812 37.802734 C 431.9615 38.106296 431.06582 38.440303 430.18359 38.755859 A 15.0015 15.0015 0 0 0 421.2168 35.925781 A 15.0015 15.0015 0 0 0 412.80469 38.662109 C 412.01069 38.378594 411.20279 38.076275 410.42188 37.802734 C 404.00086 35.553578 399.0429 33.548025 393.51953 33.335938 A 7.50075 7.50075 0 0 0 393.23242 33.330078 z M 287.52344 257.4375 C 224.67283 257.4375 173.72266 260.46199 173.72266 264.19336 C 173.72266 264.35174 173.82291 264.51015 174.00391 264.66602 L 173.72266 264.66602 L 209.24023 535.5 L 209.40039 535.5 C 209.08614 535.66969 208.91992 535.84349 208.91992 536.01758 C 208.91992 538.59566 244.11282 540.68359 287.52539 540.68359 C 330.93858 540.68359 366.13086 538.59566 366.13086 536.01758 C 366.13086 535.84349 365.964 535.66906 365.65039 535.5 L 401.20312 264.66602 L 401.04492 264.66602 C 401.2253 264.51015 401.32617 264.35174 401.32617 264.19336 C 401.32617 260.46199 350.37468 257.4375 287.52344 257.4375 z M 374.88867 279.48633 L 342.8457 515.69922 C 341.02622 517.38295 233.11051 516.59389 231.29102 514.91016 L 197.55273 281.06445 C 255.13833 281.25635 296.60884 284.11856 374.88867 279.48633 z "
     id="path4175" />
</svg>
