<?xml version="1.0" encoding="UTF-8" standalone="no"?>
<!-- Created with Inkscape (http://www.inkscape.org/) -->

<svg
   xmlns:dc="http://purl.org/dc/elements/1.1/"
   xmlns:cc="http://creativecommons.org/ns#"
   xmlns:rdf="http://www.w3.org/1999/02/22-rdf-syntax-ns#"
   xmlns:svg="http://www.w3.org/2000/svg"
   xmlns="http://www.w3.org/2000/svg"
   xmlns:sodipodi="http://sodipodi.sourceforge.net/DTD/sodipodi-0.dtd"
   xmlns:inkscape="http://www.inkscape.org/namespaces/inkscape"
   version="1.0"
   width="580"
   height="580"
   id="svg2"
   inkscape:version="0.91 r13725"
   sodipodi:docname="bar.svg">
  <metadata
     id="metadata6">
    <rdf:RDF>
      <cc:Work
         rdf:about="">
        <dc:format>image/svg+xml</dc:format>
        <dc:type
           rdf:resource="http://purl.org/dc/dcmitype/StillImage" />
      </cc:Work>
    </rdf:RDF>
  </metadata>
  <sodipodi:namedview
     pagecolor="#ffffff"
     bordercolor="#666666"
     borderopacity="1"
     objecttolerance="10"
     gridtolerance="10"
     guidetolerance="10"
     inkscape:pageopacity="0"
     inkscape:pageshadow="2"
     inkscape:window-width="1280"
     inkscape:window-height="972"
     id="namedview10"
     showgrid="false"
     inkscape:zoom="0.90344828"
     inkscape:cx="113.60258"
     inkscape:cy="366.24383"
     inkscape:window-x="-8"
     inkscape:window-y="-8"
     inkscape:window-maximized="1"
     inkscape:current-layer="svg2" />
  <defs
     id="defs4" />
  <path
     d="M 468.232,97.93 467.981,97.93 C 468.268,97.682 468.426,97.432 468.426,97.18 468.426,91.243 387.3585,86.43 287.356,86.43 187.3535,86.43 106.286,91.243 106.286,97.18 106.286,97.432 106.444,97.682 106.732,97.93 L 106.286,97.93 266.76,246.465 266.76,414.538 162.798,488.858 163.053,488.858 C 162.553,489.128 162.288,489.402 162.288,489.679 162.288,493.781 218.2835,497.104 287.358,497.104 356.4325,497.104 412.428,493.781 412.428,489.679 412.428,489.402 412.162,489.127 411.663,488.858 L 411.723,488.858 307.761,414.538 307.761,246.466 Z M 292.522,217.569 C 289.627,220.248 284.891,220.248 281.996,217.569 L 204.461,145.801 C 201.566,143.122 202.425,140.929 206.37,140.929 L 368.149,140.929 C 372.093,140.929 372.953,143.121 370.058,145.801 Z"
     style="fill:#000080"
     id="path2209"
     inkscape:connector-curvature="0"
     sodipodi:nodetypes="ccszsccccccszsccccccccsscc" />
</svg>
