<?xml version="1.0" encoding="UTF-8" standalone="no"?>
<!-- Created with Inkscape (http://www.inkscape.org/) -->

<svg
   xmlns:dc="http://purl.org/dc/elements/1.1/"
   xmlns:cc="http://creativecommons.org/ns#"
   xmlns:rdf="http://www.w3.org/1999/02/22-rdf-syntax-ns#"
   xmlns:svg="http://www.w3.org/2000/svg"
   xmlns="http://www.w3.org/2000/svg"
   xmlns:sodipodi="http://sodipodi.sourceforge.net/DTD/sodipodi-0.dtd"
   xmlns:inkscape="http://www.inkscape.org/namespaces/inkscape"
   version="1.0"
   width="580"
   height="580"
   id="svg2"
   sodipodi:version="0.32"
   inkscape:version="0.91 r13725"
   sodipodi:docname="tower.svg"
   inkscape:output_extension="org.inkscape.output.svg.inkscape">
  <metadata
     id="metadata10">
    <rdf:RDF>
      <cc:Work
         rdf:about="">
        <dc:format>image/svg+xml</dc:format>
        <dc:type
           rdf:resource="http://purl.org/dc/dcmitype/StillImage" />
        <cc:license
           rdf:resource="http://web.resource.org/cc/PublicDomain" />
        <dc:language>en</dc:language>
      </cc:Work>
    </rdf:RDF>
  </metadata>
  <sodipodi:namedview
     inkscape:window-height="972"
     inkscape:window-width="1280"
     inkscape:pageshadow="2"
     inkscape:pageopacity="0.0"
     guidetolerance="10.0"
     gridtolerance="10.0"
     objecttolerance="10.0"
     borderopacity="1.0"
     bordercolor="#666666"
     pagecolor="#ffffff"
     id="base"
     showgrid="false"
     inkscape:zoom="0.70710678"
     inkscape:cx="-27.299203"
     inkscape:cy="259.98847"
     inkscape:window-x="-8"
     inkscape:window-y="-8"
     inkscape:current-layer="svg2"
     inkscape:window-maximized="1" />
  <defs
     id="defs4">
    <inkscape:perspective
       sodipodi:type="inkscape:persp3d"
       inkscape:vp_x="0 : 290 : 1"
       inkscape:vp_y="0 : 1000 : 0"
       inkscape:vp_z="580 : 290 : 1"
       inkscape:persp3d-origin="290 : 193.33333 : 1"
       id="perspective12" />
    <style
       type="text/css"
       id="style6">
   
    .fil0 {fill:#EF7900}
   
  </style>
    <inkscape:perspective
       id="perspective6807"
       inkscape:persp3d-origin="29.116032 : 19.410688 : 1"
       inkscape:vp_z="58.232063 : 29.116032 : 1"
       inkscape:vp_y="0 : 1000 : 0"
       inkscape:vp_x="0 : 29.116032 : 1"
       sodipodi:type="inkscape:persp3d" />
    <inkscape:perspective
       id="perspective6954"
       inkscape:persp3d-origin="290 : 193.33333 : 1"
       inkscape:vp_z="580 : 290 : 1"
       inkscape:vp_y="0 : 1000 : 0"
       inkscape:vp_x="0 : 290 : 1"
       sodipodi:type="inkscape:persp3d" />
    <inkscape:perspective
       id="perspective2541"
       inkscape:persp3d-origin="240 : 160 : 1"
       inkscape:vp_z="480 : 240 : 1"
       inkscape:vp_y="0 : 1000 : 0"
       inkscape:vp_x="0 : 240 : 1"
       sodipodi:type="inkscape:persp3d" />
    <inkscape:perspective
       id="perspective2750"
       inkscape:persp3d-origin="215 : 143.33333 : 1"
       inkscape:vp_z="430 : 215 : 1"
       inkscape:vp_y="0 : 1000 : 0"
       inkscape:vp_x="0 : 215 : 1"
       sodipodi:type="inkscape:persp3d" />
    <inkscape:perspective
       id="perspective3730"
       inkscape:persp3d-origin="88.929146 : 101.19778 : 1"
       inkscape:vp_z="177.85829 : 151.79668 : 1"
       inkscape:vp_y="0 : 1000 : 0"
       inkscape:vp_x="0 : 151.79668 : 1"
       sodipodi:type="inkscape:persp3d" />
  </defs>
  <path
     style="fill:#000080;fill-opacity:1;fill-rule:evenodd"
     d="M 114.45117 60.695312 L 114.45117 70.695312 L 114.45117 251.70117 A 10.001 10.001 0 0 0 124.45117 261.70117 L 237.21484 261.70117 C 236.23248 268.97897 234.37522 280.0474 231.57617 293.00391 C 227.20181 313.25239 220.64693 339.0041 212.01953 366.60156 C 194.76473 421.79648 168.95427 484.47456 136.72461 525.26562 A 9.9056297 9.9056297 0 1 0 152.26758 537.54688 C 159.32372 528.61635 166.00276 518.87803 172.32422 508.57422 A 7.7636571 7.7636571 0 0 0 174.19922 507.49609 L 286.15625 422.81055 L 396.91211 506.58594 C 403.58987 517.62911 410.67429 528.04282 418.18359 537.54688 A 9.9056297 9.9056297 0 1 0 433.72656 525.26562 C 401.4969 484.47456 375.68645 421.79648 358.43164 366.60156 C 349.80424 339.0041 343.24936 313.25239 338.875 293.00391 C 336.07596 280.0474 334.2187 268.97897 333.23633 261.70117 L 451.13477 261.70117 A 10.001 10.001 0 0 0 461.13477 251.70117 L 461.13477 70.695312 L 461.13477 60.695312 L 441.13477 60.695312 L 441.13477 70.695312 L 441.13477 241.70117 L 134.45117 241.70117 L 134.45117 70.695312 L 134.45117 60.695312 L 114.45117 60.695312 z M 200.26562 66.769531 C 199.80379 66.762977 199.33982 66.766507 198.875 66.78125 C 183.6045 67.37478 166.86828 79.19732 151.9375 79.90625 C 151.66588 79.91053 151.39571 79.90931 151.125 79.90625 L 151.125 111.1875 C 151.3958 111.19054 151.66578 111.22306 151.9375 111.21875 C 166.86828 110.63031 183.6045 98.50783 198.875 98.09375 C 213.74939 97.50405 227.04277 108.48286 242.03125 108.71875 C 257.24533 108.83924 272.68038 98.7989 288.96875 99.09375 C 305.03021 99.32835 321.38006 110.27515 337.78125 110.21875 C 353.89911 109.86366 369.17146 98.21169 385.96875 98.09375 C 398.37657 98.05222 411.7105 104.21875 424.46875 107.59375 L 424.46875 76.21875 C 411.7105 72.86851 398.37656 66.78125 385.96875 66.78125 C 369.17147 66.90046 353.8991 78.55115 337.78125 78.90625 C 321.38007 78.96394 305.0302 68.04837 288.96875 67.8125 C 272.68039 67.39972 257.24534 77.4955 242.03125 77.375 C 227.51239 77.090614 214.58264 66.972718 200.26562 66.769531 z M 200.28125 125.15625 C 199.81942 125.14977 199.33982 125.17272 198.875 125.1875 C 183.6045 125.77717 166.86828 137.56976 151.9375 138.28125 C 151.66588 138.28549 151.39571 138.28435 151.125 138.28125 L 151.125 169.59375 C 151.3957 169.59685 151.66588 169.59799 151.9375 169.59375 C 166.86828 168.88227 183.6045 157.05844 198.875 156.46875 C 213.74939 155.99572 227.04277 166.76765 242.03125 167.0625 C 257.24533 167.18043 272.68038 157.08594 288.96875 157.5 C 305.03021 157.73717 321.38006 168.654 337.78125 168.59375 C 353.89911 168.2412 369.17146 156.58413 385.96875 156.46875 C 398.37657 156.46875 411.7105 162.55659 424.46875 165.90625 L 424.46875 134.625 C 411.70994 131.27544 398.37715 125.1875 385.96875 125.1875 C 369.17147 125.30671 353.8991 136.92873 337.78125 137.28125 C 321.38007 137.34149 305.0302 126.42466 288.96875 126.1875 C 272.68039 125.77342 257.24534 135.86793 242.03125 135.75 C 227.51239 135.46436 214.59806 125.35703 200.28125 125.15625 z M 257.31445 261.70117 L 313.13672 261.70117 C 313.71654 266.99488 314.76858 273.51655 316.25781 281.29492 L 284.75391 310.45898 L 254.05469 282.03906 C 255.62226 273.92096 256.71568 267.1679 257.31445 261.70117 z M 319.79492 298.46094 C 323.4259 315.12093 328.43256 335.12012 334.76953 356.75586 L 295.79492 320.67773 L 319.79492 298.46094 z M 250.49609 299.18555 L 273.71289 320.67773 L 236.0332 355.55859 C 242.11548 334.68787 246.94616 315.39322 250.49609 299.18555 z M 284.75391 330.89844 L 328.45312 371.34961 L 286.15625 403.34375 L 242.31641 370.18164 L 284.75391 330.89844 z M 230.74414 380.89453 L 273.28906 413.07617 L 190.4082 475.76758 C 205.07516 446.29536 217.28567 414.43083 227.18555 384.1875 L 230.74414 380.89453 z M 340.02539 382.0625 L 343.68555 385.45117 C 353.26 414.55436 364.96489 445.09377 378.93945 473.52734 L 299.02344 413.07617 L 340.02539 382.0625 z "
     id="path113" />
</svg>
