<?xml version="1.0" encoding="UTF-8" standalone="no"?>
<!-- Created with Inkscape (http://www.inkscape.org/) -->

<svg
   xmlns:dc="http://purl.org/dc/elements/1.1/"
   xmlns:cc="http://creativecommons.org/ns#"
   xmlns:rdf="http://www.w3.org/1999/02/22-rdf-syntax-ns#"
   xmlns:svg="http://www.w3.org/2000/svg"
   xmlns="http://www.w3.org/2000/svg"
   xmlns:xlink="http://www.w3.org/1999/xlink"
   xmlns:sodipodi="http://sodipodi.sourceforge.net/DTD/sodipodi-0.dtd"
   xmlns:inkscape="http://www.inkscape.org/namespaces/inkscape"
   version="1.0"
   width="580"
   height="580"
   id="svg2"
   sodipodi:version="0.32"
   inkscape:version="0.91 r13725"
   sodipodi:docname="station_wind.svg"
   inkscape:output_extension="org.inkscape.output.svg.inkscape">
  <metadata
     id="metadata10">
    <rdf:RDF>
      <cc:Work
         rdf:about="">
        <dc:format>image/svg+xml</dc:format>
        <dc:type
           rdf:resource="http://purl.org/dc/dcmitype/StillImage" />
        <cc:license
           rdf:resource="http://web.resource.org/cc/PublicDomain" />
        <dc:language>en</dc:language>
        <dc:title />
      </cc:Work>
    </rdf:RDF>
  </metadata>
  <sodipodi:namedview
     inkscape:window-height="972"
     inkscape:window-width="1280"
     inkscape:pageshadow="2"
     inkscape:pageopacity="0.0"
     guidetolerance="10.0"
     gridtolerance="10.0"
     objecttolerance="10.0"
     borderopacity="1.0"
     bordercolor="#666666"
     pagecolor="#ffffff"
     id="base"
     showgrid="false"
     inkscape:zoom="0.5"
     inkscape:cx="61.46659"
     inkscape:cy="144.49059"
     inkscape:window-x="-8"
     inkscape:window-y="-8"
     inkscape:current-layer="svg2"
     inkscape:window-maximized="1" />
  <defs
     id="defs4">
    <inkscape:perspective
       sodipodi:type="inkscape:persp3d"
       inkscape:vp_x="0 : 290 : 1"
       inkscape:vp_y="0 : 1000 : 0"
       inkscape:vp_z="580 : 290 : 1"
       inkscape:persp3d-origin="290 : 193.33333 : 1"
       id="perspective12" />
    <style
       type="text/css"
       id="style6">
   
    .fil0 {fill:#EF7900}
   
  </style>
    <inkscape:perspective
       id="perspective6807"
       inkscape:persp3d-origin="29.116032 : 19.410688 : 1"
       inkscape:vp_z="58.232063 : 29.116032 : 1"
       inkscape:vp_y="0 : 1000 : 0"
       inkscape:vp_x="0 : 29.116032 : 1"
       sodipodi:type="inkscape:persp3d" />
    <inkscape:perspective
       id="perspective6954"
       inkscape:persp3d-origin="290 : 193.33333 : 1"
       inkscape:vp_z="580 : 290 : 1"
       inkscape:vp_y="0 : 1000 : 0"
       inkscape:vp_x="0 : 290 : 1"
       sodipodi:type="inkscape:persp3d" />
    <inkscape:perspective
       id="perspective2541"
       inkscape:persp3d-origin="240 : 160 : 1"
       inkscape:vp_z="480 : 240 : 1"
       inkscape:vp_y="0 : 1000 : 0"
       inkscape:vp_x="0 : 240 : 1"
       sodipodi:type="inkscape:persp3d" />
    <inkscape:perspective
       id="perspective2750"
       inkscape:persp3d-origin="215 : 143.33333 : 1"
       inkscape:vp_z="430 : 215 : 1"
       inkscape:vp_y="0 : 1000 : 0"
       inkscape:vp_x="0 : 215 : 1"
       sodipodi:type="inkscape:persp3d" />
    <inkscape:perspective
       id="perspective3730"
       inkscape:persp3d-origin="88.929146 : 101.19778 : 1"
       inkscape:vp_z="177.85829 : 151.79668 : 1"
       inkscape:vp_y="0 : 1000 : 0"
       inkscape:vp_x="0 : 151.79668 : 1"
       sodipodi:type="inkscape:persp3d" />
    <inkscape:perspective
       id="perspective9"
       inkscape:persp3d-origin="372.04724 : 350.78739 : 1"
       inkscape:vp_z="744.09448 : 526.18109 : 1"
       inkscape:vp_y="0 : 1000 : 0"
       inkscape:vp_x="0 : 526.18109 : 1"
       sodipodi:type="inkscape:persp3d" />
    <linearGradient
       gradientUnits="userSpaceOnUse"
       y2="630.14832"
       x2="474.01968"
       y1="630.14832"
       x1="251.27716"
       id="linearGradient3834"
       xlink:href="#linearGradient3828"
       inkscape:collect="always" />
    <inkscape:perspective
       id="perspective2985"
       inkscape:persp3d-origin="372.04724 : 350.78739 : 1"
       inkscape:vp_z="744.09448 : 526.18109 : 1"
       inkscape:vp_y="0 : 1000 : 0"
       inkscape:vp_x="0 : 526.18109 : 1"
       sodipodi:type="inkscape:persp3d" />
    <linearGradient
       id="linearGradient3828">
      <stop
         id="stop3830"
         offset="0"
         style="stop-color: rgb(204, 204, 204); stop-opacity: 0;" />
      <stop
         style="stop-color: rgb(204, 204, 204); stop-opacity: 0.654867;"
         offset="0.125"
         id="stop3840" />
      <stop
         style="stop-color: rgb(204, 204, 204); stop-opacity: 1;"
         offset="0.5"
         id="stop3836" />
      <stop
         id="stop3832"
         offset="1"
         style="stop-color: rgb(204, 204, 204); stop-opacity: 0;" />
    </linearGradient>
  </defs>
  <path
     style="color:#000000;font-style:normal;font-variant:normal;font-weight:normal;font-stretch:normal;font-size:medium;line-height:normal;font-family:sans-serif;text-indent:0;text-align:start;text-decoration:none;text-decoration-line:none;text-decoration-style:solid;text-decoration-color:#000000;letter-spacing:normal;word-spacing:normal;text-transform:none;direction:ltr;block-progression:tb;writing-mode:lr-tb;baseline-shift:baseline;text-anchor:start;white-space:normal;clip-rule:nonzero;display:inline;overflow:visible;visibility:visible;opacity:1;isolation:auto;mix-blend-mode:normal;color-interpolation:sRGB;color-interpolation-filters:linearRGB;solid-color:#000000;solid-opacity:1;fill:#800000;fill-opacity:1;fill-rule:nonzero;stroke:none;stroke-width:7.88586998;stroke-linecap:round;stroke-linejoin:round;stroke-miterlimit:4;stroke-dasharray:none;stroke-dashoffset:0;stroke-opacity:1;color-rendering:auto;image-rendering:auto;shape-rendering:auto;text-rendering:auto;enable-background:accumulate"
     d="M 161.78906 23.949219 C 161.14354 23.910426 160.42797 23.986756 159.73047 24.228516 C 157.005 25.173217 156.16661 27.575426 155.7832 29.394531 C 155.3998 31.213637 155.35634 33.17046 155.45117 35.490234 C 155.64084 40.129783 156.49795 46.152947 157.80078 53.285156 C 160.40644 67.549574 164.82377 86.134434 169.5 104.93945 C 174.17623 123.74448 179.11207 142.75635 182.73438 157.70703 C 184.54553 165.18237 186.02832 171.64827 186.97852 176.50781 C 187.45361 178.93758 187.79439 180.97062 187.97656 182.46875 C 188.11874 183.63791 188.09836 184.57971 188.11133 184.79297 C 188.01851 184.99176 187.68795 185.87206 187.125 186.90039 C 186.4003 188.22418 185.33047 189.98601 183.98828 192.06641 C 181.30391 196.2272 177.52811 201.68224 173.07422 207.95312 C 164.16644 220.49489 152.53254 236.32218 141.2168 252.05273 C 129.90105 267.78329 118.90835 283.40414 111.19922 295.68555 C 107.34465 301.82625 104.31445 307.1033 102.41797 311.3418 C 101.46973 313.46104 100.78525 315.29341 100.4668 317.125 C 100.14835 318.95659 100.03593 321.49875 102.2168 323.38672 C 103.83808 324.79026 105.85079 324.83286 107.26367 324.58008 C 108.67655 324.3273 109.90413 323.80517 111.23438 323.125 C 113.89485 321.76467 116.91338 319.67997 120.43555 316.9707 C 127.47988 311.55217 136.40589 303.63567 146.1875 294.55273 C 163.3442 278.62149 182.49793 259.73537 198.4082 244.375 L 187.12305 544.00781 A 3.9433293 3.9433293 0 0 0 191.00586 548.09961 C 275.49542 549.30531 341.24046 549.03711 426.96875 549.03711 A 3.9433293 3.9433293 0 0 0 430.91211 545.09375 L 430.91211 431.4375 A 3.9433293 3.9433293 0 0 0 426.96875 427.49414 L 247.19531 427.49414 L 242.30664 219.00977 C 261.78044 220.42496 295.11601 224.33828 325.42773 227.11914 C 341.47268 228.59114 356.39448 229.69979 367.5957 229.8457 C 373.19632 229.91866 377.83832 229.76779 381.44727 229.22656 C 383.25174 228.95595 384.79287 228.61709 386.25781 227.95703 C 387.72276 227.29697 389.58737 226.03773 390.05273 223.61719 C 390.59734 220.78449 388.93447 218.85879 387.55078 217.61719 C 386.16709 216.37558 384.49587 215.35709 382.43945 214.2793 C 378.32662 212.12372 372.68167 209.8559 365.85352 207.41797 C 352.19721 202.54211 333.89346 197.07375 315.26953 191.7207 C 296.64561 186.36765 277.71404 181.13736 262.95508 176.79883 C 255.5756 174.62956 249.2344 172.6792 244.55078 171.07227 C 242.20897 170.2688 240.27719 169.54835 238.88867 168.95703 C 237.80697 168.49638 237.00173 168.00883 236.80859 167.91211 C 236.68582 167.73751 236.10497 167.03405 235.51172 166.0625 C 234.7466 164.80949 233.77962 163.05154 232.67578 160.9082 C 230.46811 156.62154 227.69889 150.78191 224.56836 143.96094 C 218.3073 130.31899 210.58996 112.73213 202.75586 95.328125 C 194.92176 77.924124 186.97718 60.710751 180.19141 47.689453 C 176.79852 41.178804 173.71013 35.728674 170.9668 31.712891 C 169.59513 29.704999 168.32516 28.055167 167 26.734375 C 165.67484 25.413583 164.35598 24.103467 161.78906 23.949219 z "
     id="path4158" />
</svg>
