<?xml version="1.0" encoding="UTF-8" standalone="no"?>
<!-- Created with Inkscape (http://www.inkscape.org/) -->

<svg
   xmlns:dc="http://purl.org/dc/elements/1.1/"
   xmlns:cc="http://creativecommons.org/ns#"
   xmlns:rdf="http://www.w3.org/1999/02/22-rdf-syntax-ns#"
   xmlns:svg="http://www.w3.org/2000/svg"
   xmlns="http://www.w3.org/2000/svg"
   xmlns:xlink="http://www.w3.org/1999/xlink"
   xmlns:sodipodi="http://sodipodi.sourceforge.net/DTD/sodipodi-0.dtd"
   xmlns:inkscape="http://www.inkscape.org/namespaces/inkscape"
   version="1.0"
   width="580"
   height="580"
   id="svg2"
   sodipodi:version="0.32"
   inkscape:version="0.91 r13725"
   sodipodi:docname="station_water.svg"
   inkscape:output_extension="org.inkscape.output.svg.inkscape">
  <metadata
     id="metadata2975">
    <rdf:RDF>
      <cc:Work
         rdf:about="">
        <dc:format>image/svg+xml</dc:format>
        <dc:type
           rdf:resource="http://purl.org/dc/dcmitype/StillImage" />
        <cc:license
           rdf:resource="http://web.resource.org/cc/PublicDomain" />
        <dc:language>en</dc:language>
        <dc:title />
      </cc:Work>
    </rdf:RDF>
  </metadata>
  <sodipodi:namedview
     inkscape:window-height="972"
     inkscape:window-width="1280"
     inkscape:pageshadow="2"
     inkscape:pageopacity="0.0"
     guidetolerance="10.0"
     gridtolerance="10.0"
     objecttolerance="10.0"
     borderopacity="1.0"
     bordercolor="#666666"
     pagecolor="#ffffff"
     id="base"
     inkscape:zoom="0.65172413"
     inkscape:cx="294.94756"
     inkscape:cy="248.04584"
     inkscape:window-x="-8"
     inkscape:window-y="-8"
     inkscape:current-layer="svg2"
     showgrid="false"
     inkscape:window-maximized="1"
     showguides="true"
     inkscape:guide-bbox="true" />
  <defs
     id="defs4">
    <inkscape:perspective
       sodipodi:type="inkscape:persp3d"
       inkscape:vp_x="0 : 290 : 1"
       inkscape:vp_y="6.1230318e-14 : 1000 : 0"
       inkscape:vp_z="580 : 290 : 1"
       inkscape:persp3d-origin="290 : 193.33333 : 1"
       id="perspective2441" />
    <inkscape:perspective
       id="perspective3452"
       inkscape:persp3d-origin="30 : 20 : 1"
       inkscape:vp_z="60 : 30 : 1"
       inkscape:vp_y="0 : 1000 : 0"
       inkscape:vp_x="0 : 30 : 1"
       sodipodi:type="inkscape:persp3d" />
    <symbol
       viewBox="244.5 110 489 219.9"
       id="symbol-university">
      <path
         id="path4460"
         d="M79,43l57,119c0,0,21-96,104-96s124,106,124,106l43-133l82-17L0,17L79,43z" />
      <path
         id="path4462"
         d="M94,176l-21,39"
         stroke-width="20"
         stroke="#000000"
         fill="none" />
      <path
         id="path4464"
         d="M300,19c0,10.5-22.6,19-50.5,19S199,29.5,199,19s22.6-19,50.5-19S300,8.5,300,19z" />
      <path
         id="path4466"
         d="M112,216l-16-38L64,88c0,0-9-8-4-35s16-24,16-24"
         stroke-width="20"
         stroke="#000000"
         ill="none" />
    </symbol>
    <inkscape:perspective
       id="perspective4471"
       inkscape:persp3d-origin="372.04724 : 350.78739 : 1"
       inkscape:vp_z="744.09448 : 526.18109 : 1"
       inkscape:vp_y="0 : 1000 : 0"
       inkscape:vp_x="0 : 526.18109 : 1"
       sodipodi:type="inkscape:persp3d" />
    <inkscape:perspective
       id="perspective4668"
       inkscape:persp3d-origin="6 : 4 : 1"
       inkscape:vp_z="12 : 6 : 1"
       inkscape:vp_y="0 : 1000 : 0"
       inkscape:vp_x="0 : 6 : 1"
       sodipodi:type="inkscape:persp3d" />
    <inkscape:perspective
       id="perspective3826"
       inkscape:persp3d-origin="0.5 : 0.33333333 : 1"
       inkscape:vp_z="1 : 0.5 : 1"
       inkscape:vp_y="0 : 1000 : 0"
       inkscape:vp_x="0 : 0.5 : 1"
       sodipodi:type="inkscape:persp3d" />
    <inkscape:perspective
       id="perspective3855"
       inkscape:persp3d-origin="0.5 : 0.33333333 : 1"
       inkscape:vp_z="1 : 0.5 : 1"
       inkscape:vp_y="0 : 1000 : 0"
       inkscape:vp_x="0 : 0.5 : 1"
       sodipodi:type="inkscape:persp3d" />
    <inkscape:perspective
       id="perspective3909"
       inkscape:persp3d-origin="0.5 : 0.33333333 : 1"
       inkscape:vp_z="1 : 0.5 : 1"
       inkscape:vp_y="0 : 1000 : 0"
       inkscape:vp_x="0 : 0.5 : 1"
       sodipodi:type="inkscape:persp3d" />
    <inkscape:perspective
       id="perspective3950"
       inkscape:persp3d-origin="0.5 : 0.33333333 : 1"
       inkscape:vp_z="1 : 0.5 : 1"
       inkscape:vp_y="0 : 1000 : 0"
       inkscape:vp_x="0 : 0.5 : 1"
       sodipodi:type="inkscape:persp3d" />
    <inkscape:perspective
       id="perspective3972"
       inkscape:persp3d-origin="0.5 : 0.33333333 : 1"
       inkscape:vp_z="1 : 0.5 : 1"
       inkscape:vp_y="0 : 1000 : 0"
       inkscape:vp_x="0 : 0.5 : 1"
       sodipodi:type="inkscape:persp3d" />
    <inkscape:perspective
       id="perspective3994"
       inkscape:persp3d-origin="0.5 : 0.33333333 : 1"
       inkscape:vp_z="1 : 0.5 : 1"
       inkscape:vp_y="0 : 1000 : 0"
       inkscape:vp_x="0 : 0.5 : 1"
       sodipodi:type="inkscape:persp3d" />
    <inkscape:perspective
       id="perspective4016"
       inkscape:persp3d-origin="0.5 : 0.33333333 : 1"
       inkscape:vp_z="1 : 0.5 : 1"
       inkscape:vp_y="0 : 1000 : 0"
       inkscape:vp_x="0 : 0.5 : 1"
       sodipodi:type="inkscape:persp3d" />
    <inkscape:perspective
       id="perspective4837"
       inkscape:persp3d-origin="0.5 : 0.33333333 : 1"
       inkscape:vp_z="1 : 0.5 : 1"
       inkscape:vp_y="0 : 1000 : 0"
       inkscape:vp_x="0 : 0.5 : 1"
       sodipodi:type="inkscape:persp3d" />
    <inkscape:perspective
       id="perspective4971"
       inkscape:persp3d-origin="0.5 : 0.33333333 : 1"
       inkscape:vp_z="1 : 0.5 : 1"
       inkscape:vp_y="0 : 1000 : 0"
       inkscape:vp_x="0 : 0.5 : 1"
       sodipodi:type="inkscape:persp3d" />
    <inkscape:perspective
       id="perspective6216"
       inkscape:persp3d-origin="0.5 : 0.33333333 : 1"
       inkscape:vp_z="1 : 0.5 : 1"
       inkscape:vp_y="0 : 1000 : 0"
       inkscape:vp_x="0 : 0.5 : 1"
       sodipodi:type="inkscape:persp3d" />
    <inkscape:perspective
       id="perspective6764"
       inkscape:persp3d-origin="0.5 : 0.33333333 : 1"
       inkscape:vp_z="1 : 0.5 : 1"
       inkscape:vp_y="0 : 1000 : 0"
       inkscape:vp_x="0 : 0.5 : 1"
       sodipodi:type="inkscape:persp3d" />
    <inkscape:perspective
       id="perspective6817"
       inkscape:persp3d-origin="0.5 : 0.33333333 : 1"
       inkscape:vp_z="1 : 0.5 : 1"
       inkscape:vp_y="0 : 1000 : 0"
       inkscape:vp_x="0 : 0.5 : 1"
       sodipodi:type="inkscape:persp3d" />
    <radialGradient
       gradientUnits="userSpaceOnUse"
       gradientTransform="scale(0.79354273,1.2601716)"
       xlink:href="#linearGradient829"
       id="radialGradient874"
       cx="180.2453"
       cy="198.41902"
       r="101.58017"
       fx="180.2453"
       fy="198.41902" />
    <linearGradient
       id="linearGradient829">
      <stop
         style="stop-color: rgb(255, 255, 255); stop-opacity: 0.341667;"
         offset="0.0000000"
         id="stop830" />
      <stop
         style="stop-color: rgb(255, 255, 255); stop-opacity: 0;"
         offset="1.0000000"
         id="stop831" />
    </linearGradient>
    <radialGradient
       gradientUnits="userSpaceOnUse"
       gradientTransform="scale(1.007004,0.99304475)"
       xlink:href="#linearGradient829"
       id="radialGradient832"
       cx="360.85146"
       cy="167.47372"
       r="46.394721"
       fx="360.85146"
       fy="167.47372" />
    <linearGradient
       id="linearGradient6826">
      <stop
         style="stop-color: rgb(255, 255, 255); stop-opacity: 0.341667;"
         offset="0.0000000"
         id="stop6828" />
      <stop
         style="stop-color: rgb(255, 255, 255); stop-opacity: 0;"
         offset="1.0000000"
         id="stop6830" />
    </linearGradient>
    <linearGradient
       gradientUnits="userSpaceOnUse"
       gradientTransform="scale(0.74491357,1.3424376)"
       xlink:href="#linearGradient855"
       id="linearGradient850"
       x1="465.29425"
       y1="248.24467"
       x2="463.27056"
       y2="405.7687"
       spreadMethod="pad" />
    <linearGradient
       id="linearGradient855">
      <stop
         style="stop-color: rgb(255, 255, 255); stop-opacity: 0;"
         offset="0.0000000"
         id="stop856" />
      <stop
         style="stop-color: rgb(255, 166, 23); stop-opacity: 0.733333;"
         offset="1.0000000"
         id="stop857" />
    </linearGradient>
    <linearGradient
       gradientUnits="userSpaceOnUse"
       gradientTransform="scale(1.4586159,0.68558144)"
       xlink:href="#linearGradient855"
       id="linearGradient854"
       x1="157.80581"
       y1="120.96176"
       x2="155.40575"
       y2="231.63491" />
    <linearGradient
       id="linearGradient6837">
      <stop
         style="stop-color: rgb(255, 255, 255); stop-opacity: 0;"
         offset="0.0000000"
         id="stop6839" />
      <stop
         style="stop-color: rgb(255, 166, 23); stop-opacity: 0.733333;"
         offset="1.0000000"
         id="stop6841" />
    </linearGradient>
    <inkscape:perspective
       id="perspective6928"
       inkscape:persp3d-origin="0.5 : 0.33333333 : 1"
       inkscape:vp_z="1 : 0.5 : 1"
       inkscape:vp_y="0 : 1000 : 0"
       inkscape:vp_x="0 : 0.5 : 1"
       sodipodi:type="inkscape:persp3d" />
    <inkscape:perspective
       id="perspective10781"
       inkscape:persp3d-origin="0.5 : 0.33333333 : 1"
       inkscape:vp_z="1 : 0.5 : 1"
       inkscape:vp_y="0 : 1000 : 0"
       inkscape:vp_x="0 : 0.5 : 1"
       sodipodi:type="inkscape:persp3d" />
    <inkscape:perspective
       id="perspective10806"
       inkscape:persp3d-origin="0.5 : 0.33333333 : 1"
       inkscape:vp_z="1 : 0.5 : 1"
       inkscape:vp_y="0 : 1000 : 0"
       inkscape:vp_x="0 : 0.5 : 1"
       sodipodi:type="inkscape:persp3d" />
    <inkscape:perspective
       id="perspective10878"
       inkscape:persp3d-origin="0.5 : 0.33333333 : 1"
       inkscape:vp_z="1 : 0.5 : 1"
       inkscape:vp_y="0 : 1000 : 0"
       inkscape:vp_x="0 : 0.5 : 1"
       sodipodi:type="inkscape:persp3d" />
    <inkscape:perspective
       id="perspective10919"
       inkscape:persp3d-origin="0.5 : 0.33333333 : 1"
       inkscape:vp_z="1 : 0.5 : 1"
       inkscape:vp_y="0 : 1000 : 0"
       inkscape:vp_x="0 : 0.5 : 1"
       sodipodi:type="inkscape:persp3d" />
    <clipPath
       id="clipoutline2"
       clipPathUnits="userSpaceOnUse">
      <path
         inkscape:connector-curvature="0"
         d="m 55.8,12 0.76,0.16 c 8.84,-2.94 28.68,8.64 24.26,18.96 -1.12,1.62 -0.93,4.5 0.42,6.31 L 56.43,62.25 c -1.39,-1.39 -4.48,-1.36 -5.9,0 L 9.5,101.63 c -3.74,3.59 -0.8,6.64 0.78,8.25 l 7.36,7.36 c 1.61,1.6 5.86,3.76 8.88,0.56 L 65.24,76.99 c 1.35,-1.42 1.36,-4.47 0,-5.87 0,0 0.01,-0.02 0,-0.02 L 90.15,46.2 c 2.63,2.37 5.113827,2.574854 7.47,1.93 4.55057,-1.245432 7.08725,3.206643 9.81,6.46 l -1.23,1.21 c -1.82,1.84 -1.65,4.94 0.39,6.98 2.04,2.04 5.15,2.21 6.97,0.39 l 8.14,-8.13 c 1.82,-1.84 1.65,-4.94 -0.4,-6.97 -1.84,-1.85 -4.51,-2.09 -6.37,-0.77 -5.58,-6.26 -2.65,-7.2 -10.01,-15.35 L 91.13,17.86 C 81.2,8.12 68.3,8.13 55.8,12 z"
         id="outline2" />
    </clipPath>
  </defs>
  <g
     id="layer3"
     inkscape:label="Layout"
     style="display:none;stroke:#757575;stroke-opacity:1"
     transform="matrix(48.14969,0,0,48.14969,-536.27327,-33.306752)">
    <rect
       style="fill:none;stroke:#757575;stroke-width:0.10000000000000001;stroke-miterlimit:4;stroke-dasharray:none;stroke-opacity:1;display:inline"
       id="rect4134"
       width="10"
       height="10"
       x="1"
       y="1" />
    <rect
       style="fill:none;stroke:#757575;stroke-width:0.10000000000000001;stroke-miterlimit:4;stroke-dasharray:none;stroke-opacity:1;display:inline"
       id="rect4136"
       width="8"
       height="8"
       x="2"
       y="2" />
  </g>
  <path
     style="fill:#000080;opacity:1"
     d="M 264.15625 86.84375 L 235.375 86.96875 L 235.375 186 C 238.06551 184.55077 240.82264 183.19852 243.65625 182 C 246.5975 180.75596 249.60824 179.64525 252.6875 178.6875 C 255.76676 177.72975 258.89296 176.93623 262.09375 176.28125 C 265.29454 175.62627 268.56916 175.11698 271.875 174.78125 C 275.18084 174.44552 278.54309 174.28125 281.9375 174.28125 C 285.33191 174.28125 288.66291 174.44552 291.96875 174.78125 C 295.27459 175.11698 298.54921 175.62627 301.75 176.28125 C 301.83495 176.29863 301.91513 176.32615 302 176.34375 L 284.09375 100.125 C 280.82609 92.372326 273.06223 86.84375 264.15625 86.84375 z M 32.726562 118.88477 L 32.726562 153.93164 L 211.67773 153.93164 L 211.67773 118.88477 L 32.726562 118.88477 z M 32.71875 172.0625 L 32.71875 207.125 L 208.6875 207.125 C 209.68024 206.01569 210.64602 204.8756 211.6875 203.8125 L 211.6875 172.0625 L 32.71875 172.0625 z M 281.92383 190.10742 C 275.57048 190.10742 269.38314 190.8293 263.43945 192.19336 A 3.9771285 3.9771285 0 0 0 262.58008 192.40039 C 247.32696 196.07497 233.72368 203.99962 223.07812 214.8418 L 221.33984 216.09766 A 3.9771285 3.9771285 0 0 0 219.80469 218.38867 C 207.12532 232.89786 199.41992 251.86076 199.41992 272.61133 C 199.41992 318.12605 236.40912 355.11523 281.92383 355.11523 C 327.43854 355.11523 364.42773 318.12605 364.42773 272.61133 C 364.42773 227.09663 327.43854 190.10742 281.92383 190.10742 z M 281.92383 198.68945 C 322.8006 198.68945 355.8457 231.73457 355.8457 272.61133 C 355.8457 290.30927 349.64327 306.53255 339.30078 319.24805 L 291.63086 273.57422 C 291.66205 273.25718 291.67969 272.93647 291.67969 272.61133 C 291.67969 268.28637 288.85187 264.61798 284.94922 263.3418 L 268.97266 199.83984 C 273.17939 199.09835 277.50187 198.68945 281.92383 198.68945 z M 32.71875 225.25 L 32.71875 260.15625 L 184.46875 260.15625 C 184.78224 257.68231 185.09996 255.19433 185.59375 252.78125 C 186.24873 249.58046 187.04225 246.45426 188 243.375 C 188.95775 240.29574 190.06846 237.285 191.3125 234.34375 C 192.55654 231.4025 193.95489 228.53677 195.46875 225.75 C 195.56278 225.5769 195.68621 225.42247 195.78125 225.25 L 32.71875 225.25 z M 224.68359 225.80078 L 272.25586 271.38086 C 272.20476 271.78484 272.16992 272.19363 272.16992 272.61133 C 272.16992 276.70987 274.70858 280.21738 278.29492 281.66016 L 294.34961 345.47656 C 290.30833 346.15878 286.16154 346.5332 281.92383 346.5332 C 241.04706 346.5332 208.00195 313.48811 208.00195 272.61133 C 208.00195 254.83385 214.2572 238.54165 224.68359 225.80078 z M 32.71875 278.28125 L 32.71875 313.34375 L 192.5 313.34375 C 192.12146 312.51432 191.66846 311.71659 191.3125 310.875 C 190.06846 307.93375 188.95775 304.92301 188 301.84375 C 187.04225 298.76449 186.24873 295.63829 185.59375 292.4375 C 184.93877 289.23671 184.42948 285.96209 184.09375 282.65625 C 183.94733 281.21444 183.95845 279.74079 183.875 278.28125 L 32.71875 278.28125 z M 32.71875 331.53125 L 32.71875 366.59375 L 211.6875 366.59375 L 211.6875 341.40625 C 209.72308 339.40106 207.81949 337.32309 206.03125 335.15625 C 205.06967 333.99108 204.22054 332.74056 203.3125 331.53125 L 32.71875 331.53125 z M 342.75 349.78125 C 340.83887 351.28995 338.92826 352.7902 336.90625 354.15625 C 334.29044 355.92346 331.59927 357.57989 328.8125 359.09375 C 326.02573 360.60761 323.12875 361.97471 320.1875 363.21875 C 317.24625 364.46279 314.23551 365.5735 311.15625 366.53125 C 308.07699 367.489 304.95079 368.28252 301.75 368.9375 C 298.54921 369.59248 295.27459 370.10177 291.96875 370.4375 C 288.66291 370.77323 285.33191 370.9375 281.9375 370.9375 C 278.54309 370.9375 275.18084 370.77323 271.875 370.4375 C 268.56916 370.10177 265.29454 369.59248 262.09375 368.9375 C 258.89296 368.28252 255.76676 367.489 252.6875 366.53125 C 249.60824 365.5735 246.5975 364.46279 243.65625 363.21875 C 240.82279 362.0203 238.06537 360.69914 235.375 359.25 L 235.375 472.75 L 371.65625 472.75 L 342.75 349.78125 z M 435.86523 380.55469 C 428.62512 380.55469 421.89698 382.15583 415.74609 385.03906 C 409.85148 387.66601 403.1889 389.26953 396.20508 389.26953 C 389.28532 389.26953 382.68486 387.66601 376.66211 385.03906 L 383.83984 416.82031 C 387.81229 417.90953 391.97634 418.42188 396.20508 418.42188 C 403.25298 418.42188 409.85148 416.94726 415.74609 414.32031 C 421.8329 411.43708 428.62512 409.83594 435.86523 409.83594 C 443.04127 409.83594 449.76903 411.43708 455.91992 414.32031 C 461.81453 416.94726 468.5412 418.42188 475.46094 418.42188 C 482.3807 418.42188 488.98116 416.94726 495.00391 414.32031 C 501.02666 411.43708 507.94663 409.83594 515.05859 409.83594 C 522.17056 409.83594 529.02488 411.43708 535.17578 414.32031 C 541.07038 416.94726 547.73492 418.42188 554.71875 418.42188 L 554.71875 389.26953 C 547.67085 389.26953 541.07038 387.66601 535.17578 385.03906 C 529.08895 382.15583 522.23464 380.55469 515.05859 380.55469 C 507.88256 380.55469 501.02666 382.15583 495.00391 385.03906 C 488.98116 387.66601 482.3807 389.26953 475.46094 389.26953 C 468.5412 389.26953 461.81453 387.66601 455.91992 385.03906 C 449.76903 382.15583 442.9772 380.55469 435.86523 380.55469 z M 32.726562 384.7207 L 32.726562 419.76758 L 211.67773 419.76758 L 211.67773 384.7207 L 32.726562 384.7207 z M 435.86523 434.31055 C 428.62512 434.31055 421.89698 435.91363 415.74609 438.79688 C 409.85148 441.42383 403.1889 443.02539 396.20508 443.02539 C 393.57813 443.02539 390.95117 442.76843 388.32422 442.25586 L 395.05078 472.17773 L 396.20508 472.17773 C 403.25298 472.17773 409.85148 470.70311 415.74609 468.07617 C 421.8329 465.19294 428.62512 463.5918 435.86523 463.5918 C 443.04127 463.5918 449.76903 465.19294 455.91992 468.07617 C 461.81453 470.70311 468.5412 472.17773 475.46094 472.17773 C 482.3807 472.17773 488.98116 470.70311 495.00391 468.07617 C 501.02666 465.19294 507.94663 463.5918 515.05859 463.5918 C 522.17056 463.5918 529.02488 465.19294 535.17578 468.07617 C 541.07038 470.70311 547.73492 472.17773 554.71875 472.17773 L 554.71875 443.02539 C 547.67085 443.02539 541.07038 441.42383 535.17578 438.79688 C 529.08895 435.91363 522.23464 434.31055 515.05859 434.31055 C 507.88256 434.31055 501.02666 435.91363 495.00391 438.79688 C 488.98116 441.42383 482.3807 443.02539 475.46094 443.02539 C 468.5412 443.02539 461.81453 441.42383 455.91992 438.79688 C 449.76903 435.91363 442.9772 434.31055 435.86523 434.31055 z M 32.726562 437.77148 L 32.726562 472.81836 L 211.67773 472.81836 L 211.67773 437.77148 L 32.726562 437.77148 z "
     id="rect2311" />
</svg>
