<?xml version="1.0" encoding="UTF-8" standalone="no"?>
<!-- Created with Inkscape (http://www.inkscape.org/) -->

<svg
   xmlns:dc="http://purl.org/dc/elements/1.1/"
   xmlns:cc="http://creativecommons.org/ns#"
   xmlns:rdf="http://www.w3.org/1999/02/22-rdf-syntax-ns#"
   xmlns:svg="http://www.w3.org/2000/svg"
   xmlns="http://www.w3.org/2000/svg"
   xmlns:sodipodi="http://sodipodi.sourceforge.net/DTD/sodipodi-0.dtd"
   xmlns:inkscape="http://www.inkscape.org/namespaces/inkscape"
   version="1.0"
   width="580"
   height="580"
   id="svg2"
   sodipodi:version="0.32"
   inkscape:version="0.91 r13725"
   sodipodi:docname="transformer.svg"
   inkscape:output_extension="org.inkscape.output.svg.inkscape">
  <metadata
     id="metadata10">
    <rdf:RDF>
      <cc:Work
         rdf:about="">
        <dc:format>image/svg+xml</dc:format>
        <dc:type
           rdf:resource="http://purl.org/dc/dcmitype/StillImage" />
        <cc:license
           rdf:resource="http://web.resource.org/cc/PublicDomain" />
        <dc:language>en</dc:language>
        <dc:title />
      </cc:Work>
    </rdf:RDF>
  </metadata>
  <sodipodi:namedview
     inkscape:window-height="972"
     inkscape:window-width="1280"
     inkscape:pageshadow="2"
     inkscape:pageopacity="0.0"
     guidetolerance="10.0"
     gridtolerance="10.0"
     objecttolerance="10.0"
     borderopacity="1.0"
     bordercolor="#666666"
     pagecolor="#ffffff"
     id="base"
     showgrid="false"
     inkscape:zoom="0.70710678"
     inkscape:cx="90.602037"
     inkscape:cy="419.14205"
     inkscape:window-x="-8"
     inkscape:window-y="-8"
     inkscape:current-layer="svg2"
     inkscape:window-maximized="1" />
  <defs
     id="defs4">
    <inkscape:perspective
       sodipodi:type="inkscape:persp3d"
       inkscape:vp_x="0 : 290 : 1"
       inkscape:vp_y="0 : 1000 : 0"
       inkscape:vp_z="580 : 290 : 1"
       inkscape:persp3d-origin="290 : 193.33333 : 1"
       id="perspective12" />
    <style
       type="text/css"
       id="style6">
   
    .fil0 {fill:#EF7900}
   
  </style>
    <inkscape:perspective
       id="perspective6807"
       inkscape:persp3d-origin="29.116032 : 19.410688 : 1"
       inkscape:vp_z="58.232063 : 29.116032 : 1"
       inkscape:vp_y="0 : 1000 : 0"
       inkscape:vp_x="0 : 29.116032 : 1"
       sodipodi:type="inkscape:persp3d" />
    <inkscape:perspective
       id="perspective6954"
       inkscape:persp3d-origin="290 : 193.33333 : 1"
       inkscape:vp_z="580 : 290 : 1"
       inkscape:vp_y="0 : 1000 : 0"
       inkscape:vp_x="0 : 290 : 1"
       sodipodi:type="inkscape:persp3d" />
    <inkscape:perspective
       id="perspective2541"
       inkscape:persp3d-origin="240 : 160 : 1"
       inkscape:vp_z="480 : 240 : 1"
       inkscape:vp_y="0 : 1000 : 0"
       inkscape:vp_x="0 : 240 : 1"
       sodipodi:type="inkscape:persp3d" />
    <inkscape:perspective
       id="perspective2750"
       inkscape:persp3d-origin="215 : 143.33333 : 1"
       inkscape:vp_z="430 : 215 : 1"
       inkscape:vp_y="0 : 1000 : 0"
       inkscape:vp_x="0 : 215 : 1"
       sodipodi:type="inkscape:persp3d" />
    <inkscape:perspective
       id="perspective3730"
       inkscape:persp3d-origin="88.929146 : 101.19778 : 1"
       inkscape:vp_z="177.85829 : 151.79668 : 1"
       inkscape:vp_y="0 : 1000 : 0"
       inkscape:vp_x="0 : 151.79668 : 1"
       sodipodi:type="inkscape:persp3d" />
  </defs>
  <path
     style="color:#000000;font-style:normal;font-variant:normal;font-weight:normal;font-stretch:normal;font-size:medium;line-height:normal;font-family:sans-serif;text-indent:0;text-align:start;text-decoration:none;text-decoration-line:none;text-decoration-style:solid;text-decoration-color:#000000;letter-spacing:normal;word-spacing:normal;text-transform:none;direction:ltr;block-progression:tb;writing-mode:lr-tb;baseline-shift:baseline;text-anchor:start;white-space:normal;clip-rule:nonzero;display:inline;overflow:visible;visibility:visible;opacity:1;isolation:auto;mix-blend-mode:normal;color-interpolation:sRGB;color-interpolation-filters:linearRGB;solid-color:#000000;solid-opacity:1;fill:#800000;fill-opacity:1;fill-rule:nonzero;stroke:none;stroke-width:20;stroke-linecap:round;stroke-linejoin:miter;stroke-miterlimit:4;stroke-dasharray:none;stroke-dashoffset:0;stroke-opacity:1;color-rendering:auto;image-rendering:auto;shape-rendering:auto;text-rendering:auto;enable-background:accumulate"
     d="M 175.97656 133.78711 C 175.81216 133.78711 165.79365 133.78769 155.73633 133.78906 C 150.70767 133.78975 145.68013 133.79003 141.89258 133.79102 C 139.9988 133.79151 138.41384 133.79241 137.29492 133.79297 C 136.73546 133.79325 136.29386 133.79462 135.98438 133.79492 C 135.67489 133.79522 136.67328 133.76906 135.29883 133.79688 A 10.001 10.001 0 1 0 135.70312 153.79297 C 134.35956 153.82016 135.70049 153.79522 136.00391 153.79492 C 136.30732 153.79463 136.74877 153.79325 137.30664 153.79297 C 138.42238 153.79241 140.00352 153.79151 141.89648 153.79102 C 145.68241 153.79003 150.71199 153.78975 155.74023 153.78906 C 165.79673 153.78769 175.89272 153.78711 175.97656 153.78711 C 190.12606 153.78711 201.38086 165.04386 201.38086 179.19336 C 201.38086 193.34286 190.12606 204.59766 175.97656 204.59766 C 175.80888 204.59766 175.62831 204.5957 175.43555 204.5918 A 10.001 10.001 0 0 0 165.10742 214.86523 A 10.001 10.001 0 0 0 175.43555 225.16406 C 175.62831 225.16016 175.80888 225.1582 175.97656 225.1582 C 190.12606 225.1582 201.38086 236.413 201.38086 250.5625 C 201.38086 264.712 190.12606 275.96875 175.97656 275.96875 C 175.80888 275.96875 175.62831 275.96679 175.43555 275.96289 A 10.001 10.001 0 0 0 165.12109 286.54688 A 10.001 10.001 0 0 0 175.43555 297.26953 C 175.62831 297.26563 175.80888 297.26367 175.97656 297.26367 C 190.12606 297.26367 201.38086 308.52042 201.38086 322.66992 C 201.38086 336.81942 190.12606 348.07422 175.97656 348.07422 C 175.80888 348.07422 175.62831 348.07226 175.43555 348.06836 A 10.001 10.001 0 0 0 165.10742 358.3418 A 10.001 10.001 0 0 0 175.43555 368.64062 C 175.62831 368.63673 175.80888 368.63477 175.97656 368.63477 C 190.12606 368.63477 201.38086 379.88956 201.38086 394.03906 C 201.38086 408.18856 190.12606 419.44531 175.97656 419.44531 C 175.89272 419.44531 165.79673 419.44473 155.74023 419.44336 C 150.71199 419.44267 145.68241 419.44044 141.89648 419.43945 C 140.00352 419.43896 138.42238 419.44001 137.30664 419.43945 C 136.74877 419.43917 136.30732 419.43779 136.00391 419.4375 C 135.70049 419.43721 134.35956 419.41226 135.70312 419.43945 A 10.001 10.001 0 1 0 135.29883 439.43555 C 136.67328 439.46337 135.67489 439.4372 135.98438 439.4375 C 136.29386 439.4378 136.73546 439.43917 137.29492 439.43945 C 138.41384 439.44001 139.9988 439.43896 141.89258 439.43945 C 145.68013 439.44044 150.70767 439.44267 155.73633 439.44336 C 165.79365 439.44473 175.81216 439.44531 175.97656 439.44531 C 200.93486 439.44531 221.38086 418.99736 221.38086 394.03906 C 221.38086 379.52586 214.34689 366.68246 203.65234 358.35352 C 214.34652 350.02455 221.38086 337.18284 221.38086 322.66992 C 221.38086 307.95069 214.16161 294.92958 203.20703 286.61719 C 214.16218 278.30484 221.38086 265.28218 221.38086 250.5625 C 221.38086 236.0493 214.34689 223.2059 203.65234 214.87695 C 214.34652 206.54799 221.38086 193.70627 221.38086 179.19336 C 221.38086 154.23506 200.93486 133.78711 175.97656 133.78711 z M 398.0625 133.78711 C 373.1042 133.78711 352.6582 154.23506 352.6582 179.19336 C 352.6582 193.70609 359.69278 206.54797 370.38672 214.87695 C 359.69241 223.20591 352.6582 236.04948 352.6582 250.5625 C 352.6582 265.28202 359.87708 278.30482 370.83203 286.61719 C 359.87764 294.92959 352.6582 307.95084 352.6582 322.66992 C 352.6582 337.18265 359.69278 350.02454 370.38672 358.35352 C 359.69241 366.68248 352.6582 379.52605 352.6582 394.03906 C 352.6582 418.99736 373.1042 439.44531 398.0625 439.44531 C 398.22691 439.44531 408.24542 439.44473 418.30273 439.44336 C 423.33139 439.44267 428.35893 439.44044 432.14648 439.43945 C 434.04026 439.43896 435.62522 439.44001 436.74414 439.43945 C 437.3036 439.43917 437.7452 439.4378 438.05469 439.4375 C 438.36418 439.4372 437.3659 439.46336 438.74023 439.43555 A 10.001 10.001 0 1 0 438.33594 419.43945 C 439.6794 419.41226 438.34053 419.43721 438.03711 419.4375 C 437.73369 419.43779 437.29224 419.43917 436.73438 419.43945 C 435.61864 419.44001 434.03554 419.43896 432.14258 419.43945 C 428.35665 419.44044 423.32903 419.44267 418.30078 419.44336 C 408.24429 419.44473 398.14634 419.44531 398.0625 419.44531 C 383.913 419.44531 372.6582 408.18856 372.6582 394.03906 C 372.6582 379.88956 383.913 368.63477 398.0625 368.63477 C 398.23019 368.63477 398.41077 368.63673 398.60352 368.64062 A 10.001 10.001 0 0 0 408.93359 358.33398 A 10.001 10.001 0 0 0 398.60352 348.06836 C 398.41077 348.07226 398.23019 348.07422 398.0625 348.07422 C 383.913 348.07422 372.6582 336.81942 372.6582 322.66992 C 372.6582 308.52042 383.913 297.26367 398.0625 297.26367 C 398.23019 297.26367 398.41077 297.26563 398.60352 297.26953 A 10.001 10.001 0 0 0 408.91992 286.67188 A 10.001 10.001 0 0 0 398.60352 275.96289 C 398.41077 275.96679 398.23019 275.96875 398.0625 275.96875 C 383.913 275.96875 372.6582 264.712 372.6582 250.5625 C 372.6582 236.413 383.913 225.1582 398.0625 225.1582 C 398.23019 225.1582 398.41077 225.16016 398.60352 225.16406 A 10.001 10.001 0 0 0 408.93359 214.85742 A 10.001 10.001 0 0 0 398.60352 204.5918 C 398.41077 204.5957 398.23019 204.59766 398.0625 204.59766 C 383.913 204.59766 372.6582 193.34286 372.6582 179.19336 C 372.6582 165.04386 383.913 153.78711 398.0625 153.78711 C 398.14634 153.78711 408.24429 153.78769 418.30078 153.78906 C 423.32903 153.78975 428.35665 153.79003 432.14258 153.79102 C 434.03554 153.79151 435.61864 153.79241 436.73438 153.79297 C 437.29224 153.79325 437.73369 153.79463 438.03711 153.79492 C 438.34053 153.79522 439.6794 153.82016 438.33594 153.79297 A 10.001 10.001 0 1 0 438.74023 133.79688 C 437.3659 133.76906 438.36418 133.79522 438.05469 133.79492 C 437.7452 133.79462 437.3036 133.79325 436.74414 133.79297 C 435.62522 133.79241 434.04026 133.79151 432.14648 133.79102 C 428.35893 133.79003 423.33139 133.78975 418.30273 133.78906 C 408.24542 133.78769 398.22691 133.78711 398.0625 133.78711 z M 261.28125 137 A 10.001 10.001 0 0 0 251.43164 147.14258 L 251.43164 428.0918 A 10.001 10.001 0 1 0 271.43164 428.0918 L 271.43164 147.14258 A 10.001 10.001 0 0 0 261.28125 137 z M 315.35352 137 A 10.001 10.001 0 0 0 305.50391 147.14258 L 305.50391 428.0918 A 10.001 10.001 0 1 0 325.50391 428.0918 L 325.50391 147.14258 A 10.001 10.001 0 0 0 315.35352 137 z "
     id="path4742" />
</svg>
