<?xml version="1.0" encoding="UTF-8" standalone="no"?>
<!-- Created with Inkscape (http://www.inkscape.org/) -->

<svg
   xmlns:dc="http://purl.org/dc/elements/1.1/"
   xmlns:cc="http://creativecommons.org/ns#"
   xmlns:rdf="http://www.w3.org/1999/02/22-rdf-syntax-ns#"
   xmlns:svg="http://www.w3.org/2000/svg"
   xmlns="http://www.w3.org/2000/svg"
   xmlns:sodipodi="http://sodipodi.sourceforge.net/DTD/sodipodi-0.dtd"
   xmlns:inkscape="http://www.inkscape.org/namespaces/inkscape"
   version="1.0"
   width="580"
   height="580"
   id="svg2"
   sodipodi:version="0.32"
   inkscape:version="0.91 r13725"
   sodipodi:docname="substation.svg"
   inkscape:output_extension="org.inkscape.output.svg.inkscape">
  <metadata
     id="metadata10">
    <rdf:RDF>
      <cc:Work
         rdf:about="">
        <dc:format>image/svg+xml</dc:format>
        <dc:type
           rdf:resource="http://purl.org/dc/dcmitype/StillImage" />
        <cc:license
           rdf:resource="http://web.resource.org/cc/PublicDomain" />
        <dc:language>en</dc:language>
        <dc:title />
      </cc:Work>
    </rdf:RDF>
  </metadata>
  <sodipodi:namedview
     inkscape:window-height="972"
     inkscape:window-width="1280"
     inkscape:pageshadow="2"
     inkscape:pageopacity="0.0"
     guidetolerance="10.0"
     gridtolerance="10.0"
     objecttolerance="10.0"
     borderopacity="1.0"
     bordercolor="#666666"
     pagecolor="#ffffff"
     id="base"
     showgrid="false"
     inkscape:zoom="0.70710678"
     inkscape:cx="90.602037"
     inkscape:cy="419.14205"
     inkscape:window-x="-8"
     inkscape:window-y="-8"
     inkscape:current-layer="svg2"
     inkscape:window-maximized="1" />
  <defs
     id="defs4">
    <inkscape:perspective
       sodipodi:type="inkscape:persp3d"
       inkscape:vp_x="0 : 290 : 1"
       inkscape:vp_y="0 : 1000 : 0"
       inkscape:vp_z="580 : 290 : 1"
       inkscape:persp3d-origin="290 : 193.33333 : 1"
       id="perspective12" />
    <style
       type="text/css"
       id="style6">
   
    .fil0 {fill:#EF7900}
   
  </style>
    <inkscape:perspective
       id="perspective6807"
       inkscape:persp3d-origin="29.116032 : 19.410688 : 1"
       inkscape:vp_z="58.232063 : 29.116032 : 1"
       inkscape:vp_y="0 : 1000 : 0"
       inkscape:vp_x="0 : 29.116032 : 1"
       sodipodi:type="inkscape:persp3d" />
    <inkscape:perspective
       id="perspective6954"
       inkscape:persp3d-origin="290 : 193.33333 : 1"
       inkscape:vp_z="580 : 290 : 1"
       inkscape:vp_y="0 : 1000 : 0"
       inkscape:vp_x="0 : 290 : 1"
       sodipodi:type="inkscape:persp3d" />
    <inkscape:perspective
       id="perspective2541"
       inkscape:persp3d-origin="240 : 160 : 1"
       inkscape:vp_z="480 : 240 : 1"
       inkscape:vp_y="0 : 1000 : 0"
       inkscape:vp_x="0 : 240 : 1"
       sodipodi:type="inkscape:persp3d" />
    <inkscape:perspective
       id="perspective2750"
       inkscape:persp3d-origin="215 : 143.33333 : 1"
       inkscape:vp_z="430 : 215 : 1"
       inkscape:vp_y="0 : 1000 : 0"
       inkscape:vp_x="0 : 215 : 1"
       sodipodi:type="inkscape:persp3d" />
    <inkscape:perspective
       id="perspective3730"
       inkscape:persp3d-origin="88.929146 : 101.19778 : 1"
       inkscape:vp_z="177.85829 : 151.79668 : 1"
       inkscape:vp_y="0 : 1000 : 0"
       inkscape:vp_x="0 : 151.79668 : 1"
       sodipodi:type="inkscape:persp3d" />
  </defs>
  <path
     style="color:#000000;font-style:normal;font-variant:normal;font-weight:normal;font-stretch:normal;font-size:medium;line-height:normal;font-family:sans-serif;text-indent:0;text-align:start;text-decoration:none;text-decoration-line:none;text-decoration-style:solid;text-decoration-color:#000000;letter-spacing:normal;word-spacing:normal;text-transform:none;direction:ltr;block-progression:tb;writing-mode:lr-tb;baseline-shift:baseline;text-anchor:start;white-space:normal;clip-rule:nonzero;display:inline;overflow:visible;visibility:visible;opacity:1;isolation:auto;mix-blend-mode:normal;color-interpolation:sRGB;color-interpolation-filters:linearRGB;solid-color:#000000;solid-opacity:1;fill:#800000;fill-opacity:1;fill-rule:nonzero;stroke:none;stroke-width:20;stroke-linecap:round;stroke-linejoin:round;stroke-miterlimit:4;stroke-dasharray:none;stroke-dashoffset:0;stroke-opacity:1;color-rendering:auto;image-rendering:auto;shape-rendering:auto;text-rendering:auto;enable-background:accumulate"
     d="M 50.912109 77.853516 A 10.001 10.001 0 0 0 40.912109 87.853516 L 40.912109 510.70312 A 10.001 10.001 0 0 0 50.912109 520.70312 L 524.67383 520.70312 A 10.001 10.001 0 0 0 534.67383 510.70312 L 534.67383 87.853516 A 10.001 10.001 0 0 0 524.67383 77.853516 L 50.912109 77.853516 z M 60.912109 97.853516 L 514.67383 97.853516 L 514.67383 500.70312 L 60.912109 500.70312 L 60.912109 97.853516 z M 114.99414 125.77539 C 114.9115 125.77539 110.22101 125.7767 105.50586 125.77734 C 103.14829 125.77767 100.79142 125.77688 99.015625 125.77734 C 98.127725 125.77757 97.384166 125.77903 96.859375 125.7793 C 96.59698 125.77943 96.389647 125.77916 96.244141 125.7793 C 96.098634 125.77944 96.725228 125.76451 95.896484 125.78125 A 6.0561824 6.0561824 0 1 0 96.140625 137.88867 C 95.326358 137.90512 96.114022 137.89076 96.255859 137.89062 C 96.397696 137.89049 96.603801 137.89076 96.865234 137.89062 C 97.3881 137.89036 98.130171 137.8889 99.017578 137.88867 C 100.79239 137.88821 103.15049 137.88899 105.50781 137.88867 C 110.22246 137.88803 114.96041 137.88672 114.99414 137.88672 C 120.88877 137.88672 125.53711 142.53506 125.53711 148.42969 C 125.53711 154.32431 120.88877 158.97266 114.99414 158.97266 C 114.92667 158.97266 114.8508 158.97238 114.76758 158.9707 A 6.0561824 6.0561824 0 0 0 108.51367 165.19141 A 6.0561824 6.0561824 0 0 0 114.76758 171.34961 C 114.8508 171.34793 114.92667 171.34766 114.99414 171.34766 C 120.88876 171.34766 125.53711 175.99601 125.53711 181.89062 C 125.53711 187.78525 120.88877 192.43359 114.99414 192.43359 C 114.92667 192.43359 114.8508 192.43332 114.76758 192.43164 A 6.0561824 6.0561824 0 0 0 108.51758 198.74219 A 6.0561824 6.0561824 0 0 0 114.76758 205.1543 C 114.8508 205.15262 114.92667 205.15234 114.99414 205.15234 C 120.88876 205.15234 125.53711 209.8007 125.53711 215.69531 C 125.53711 221.58994 120.88877 226.23828 114.99414 226.23828 C 114.92667 226.23828 114.8508 226.23801 114.76758 226.23633 A 6.0561824 6.0561824 0 0 0 108.51367 232.45703 A 6.0561824 6.0561824 0 0 0 114.76953 238.61523 C 114.8524 238.61355 114.92667 238.61133 114.99414 238.61133 C 120.88876 238.61133 125.53711 243.25968 125.53711 249.1543 C 125.53711 255.04892 120.88877 259.69922 114.99414 259.69922 C 114.96041 259.69922 110.22246 259.69791 105.50781 259.69727 C 103.15049 259.69694 100.79239 259.69577 99.017578 259.69531 C 98.130171 259.69508 97.3881 259.69557 96.865234 259.69531 C 96.603801 259.69518 96.397696 259.69545 96.255859 259.69531 C 96.114022 259.69518 95.326358 259.67886 96.140625 259.69531 A 6.0561824 6.0561824 0 1 0 95.896484 271.80469 C 96.725228 271.82143 96.098634 271.8065 96.244141 271.80664 C 96.389647 271.80678 96.59698 271.80651 96.859375 271.80664 C 97.384166 271.8069 98.127725 271.80641 99.015625 271.80664 C 100.79142 271.8071 103.14829 271.80827 105.50586 271.80859 C 110.22101 271.80924 114.9115 271.80859 114.99414 271.80859 C 127.43412 271.80859 137.64844 261.59427 137.64844 249.1543 C 137.64844 242.52114 134.69089 236.58231 130.09375 232.42578 C 134.69143 228.26922 137.64844 222.32892 137.64844 215.69531 C 137.64844 208.96524 134.59901 202.95529 129.88477 198.79297 C 134.59919 194.63064 137.64844 188.62085 137.64844 181.89062 C 137.64844 175.25714 134.69129 169.31671 130.09375 165.16016 C 134.69129 161.00361 137.64844 155.06317 137.64844 148.42969 C 137.64844 135.98971 127.43412 125.77539 114.99414 125.77539 z M 219.11328 125.77539 C 206.67331 125.77539 196.45898 135.98971 196.45898 148.42969 C 196.45898 155.06317 199.41614 161.00361 204.01367 165.16016 C 199.41614 169.31671 196.45898 175.25714 196.45898 181.89062 C 196.45898 188.62085 199.50823 194.63064 204.22266 198.79297 C 199.50841 202.95529 196.45898 208.96524 196.45898 215.69531 C 196.45898 222.32892 199.41599 228.26922 204.01367 232.42578 C 199.41653 236.58231 196.45898 242.52114 196.45898 249.1543 C 196.45898 261.59427 206.67331 271.80859 219.11328 271.80859 C 219.19593 271.80859 223.88837 271.80924 228.60352 271.80859 C 230.96109 271.80827 233.31795 271.8071 235.09375 271.80664 C 235.98165 271.80641 236.72326 271.8069 237.24805 271.80664 C 237.51044 271.80651 237.71973 271.80678 237.86523 271.80664 C 238.01074 271.8065 237.38229 271.82143 238.21094 271.80469 A 6.0561824 6.0561824 0 1 0 237.9668 259.69531 C 238.78096 259.67886 237.99535 259.69518 237.85352 259.69531 C 237.71168 259.69545 237.50362 259.69518 237.24219 259.69531 C 236.71932 259.69557 235.97725 259.69508 235.08984 259.69531 C 233.31503 259.69577 230.95889 259.69694 228.60156 259.69727 C 223.88692 259.69791 219.14702 259.69922 219.11328 259.69922 C 213.21866 259.69922 208.57031 255.04892 208.57031 249.1543 C 208.57031 243.25968 213.21866 238.61133 219.11328 238.61133 C 219.18075 238.61133 219.25697 238.61355 219.33984 238.61523 A 6.0561824 6.0561824 0 0 0 225.5957 232.41016 A 6.0561824 6.0561824 0 0 0 219.33984 226.23633 C 219.25662 226.23801 219.18075 226.23828 219.11328 226.23828 C 213.21866 226.23828 208.57031 221.58994 208.57031 215.69531 C 208.57031 209.8007 213.21866 205.15234 219.11328 205.15234 C 219.18075 205.15234 219.25662 205.15262 219.33984 205.1543 A 6.0561824 6.0561824 0 0 0 225.5918 198.875 A 6.0561824 6.0561824 0 0 0 225.5918 198.87305 A 6.0561824 6.0561824 0 0 0 219.33984 192.43164 C 219.25662 192.43332 219.18075 192.43359 219.11328 192.43359 C 213.21866 192.43359 208.57031 187.78525 208.57031 181.89062 C 208.57031 175.99601 213.21866 171.34766 219.11328 171.34766 C 219.18075 171.34766 219.25662 171.34793 219.33984 171.34961 A 6.0561824 6.0561824 0 0 0 225.5957 165.14648 A 6.0561824 6.0561824 0 0 0 219.33984 158.9707 C 219.25662 158.97238 219.18075 158.97266 219.11328 158.97266 C 213.21866 158.97266 208.57031 154.32431 208.57031 148.42969 C 208.57031 142.53506 213.21866 137.88672 219.11328 137.88672 C 219.14702 137.88672 223.88692 137.88803 228.60156 137.88867 C 230.95889 137.88899 233.31503 137.88821 235.08984 137.88867 C 235.97725 137.8889 236.71932 137.89036 237.24219 137.89062 C 237.50362 137.89076 237.71168 137.89049 237.85352 137.89062 C 237.99535 137.89076 238.78096 137.90512 237.9668 137.88867 A 6.0561824 6.0561824 0 1 0 238.21094 125.78125 C 237.38229 125.76451 238.01074 125.77944 237.86523 125.7793 C 237.71973 125.77916 237.51044 125.77943 237.24805 125.7793 C 236.72326 125.77903 235.98165 125.77757 235.09375 125.77734 C 233.31795 125.77688 230.96109 125.77767 228.60352 125.77734 C 223.88837 125.7767 219.19593 125.77539 219.11328 125.77539 z M 154.9668 127.26367 A 6.0561824 6.0561824 0 0 0 149.00195 133.4043 L 149.00195 265.11914 A 6.0561824 6.0561824 0 1 0 161.11328 265.11914 L 161.11328 133.4043 A 6.0561824 6.0561824 0 0 0 154.9668 127.26367 z M 180.31836 127.26367 A 6.0561824 6.0561824 0 0 0 174.35352 133.4043 L 174.35352 265.11914 A 6.0561824 6.0561824 0 1 0 186.46484 265.11914 L 186.46484 133.4043 A 6.0561824 6.0561824 0 0 0 180.31836 127.26367 z M 352.99414 129.77539 C 352.91149 129.77539 348.22101 129.7767 343.50586 129.77734 C 341.14829 129.77767 338.79143 129.77688 337.01562 129.77734 C 336.12772 129.77757 335.38416 129.77903 334.85938 129.7793 C 334.59697 129.77943 334.38965 129.77916 334.24414 129.7793 C 334.09863 129.77944 334.72513 129.76451 333.89648 129.78125 A 6.0561824 6.0561824 0 1 0 334.14062 141.88867 C 333.32646 141.90512 334.11402 141.89076 334.25586 141.89062 C 334.3977 141.89049 334.6038 141.89076 334.86523 141.89062 C 335.3881 141.89036 336.13017 141.8889 337.01758 141.88867 C 338.79239 141.88821 341.15049 141.88899 343.50781 141.88867 C 348.22246 141.88803 352.9604 141.88672 352.99414 141.88672 C 358.88877 141.88672 363.53711 146.53506 363.53711 152.42969 C 363.53711 158.3243 358.88876 162.97266 352.99414 162.97266 C 352.92666 162.97266 352.85241 162.97238 352.76953 162.9707 A 6.0561824 6.0561824 0 0 0 346.51367 169.19141 A 6.0561824 6.0561824 0 0 0 352.76758 175.34961 C 352.8508 175.34793 352.92666 175.34766 352.99414 175.34766 C 358.88877 175.34766 363.53711 179.996 363.53711 185.89062 C 363.53711 191.78524 358.88876 196.43359 352.99414 196.43359 C 352.92666 196.43359 352.8508 196.43332 352.76758 196.43164 A 6.0561824 6.0561824 0 0 0 346.51758 202.74219 A 6.0561824 6.0561824 0 0 0 352.76758 209.1543 C 352.8508 209.15262 352.92666 209.15234 352.99414 209.15234 C 358.88877 209.15234 363.53711 213.80069 363.53711 219.69531 C 363.53711 225.58992 358.88876 230.23828 352.99414 230.23828 C 352.92666 230.23828 352.8508 230.23801 352.76758 230.23633 A 6.0561824 6.0561824 0 0 0 346.51367 236.45703 A 6.0561824 6.0561824 0 0 0 352.76758 242.61523 C 352.8508 242.61355 352.92666 242.61133 352.99414 242.61133 C 358.88877 242.61133 363.53711 247.25967 363.53711 253.1543 C 363.53711 259.04892 358.88877 263.69922 352.99414 263.69922 C 352.9604 263.69922 348.22246 263.69791 343.50781 263.69727 C 341.15049 263.69694 338.79239 263.69577 337.01758 263.69531 C 336.13017 263.69508 335.3881 263.69557 334.86523 263.69531 C 334.6038 263.69518 334.3977 263.69545 334.25586 263.69531 C 334.11402 263.69518 333.32646 263.67886 334.14062 263.69531 A 6.0561824 6.0561824 0 1 0 333.89648 275.80469 C 334.72513 275.82143 334.09863 275.8065 334.24414 275.80664 C 334.38965 275.80678 334.59697 275.80651 334.85938 275.80664 C 335.38416 275.8069 336.12772 275.80641 337.01562 275.80664 C 338.79143 275.8071 341.14829 275.80827 343.50586 275.80859 C 348.22101 275.80924 352.91149 275.80859 352.99414 275.80859 C 365.43412 275.80859 375.64844 265.59427 375.64844 253.1543 C 375.64844 246.52114 372.69089 240.58231 368.09375 236.42578 C 372.69143 232.26922 375.64844 226.32891 375.64844 219.69531 C 375.64844 212.96524 372.59901 206.95529 367.88477 202.79297 C 372.59919 198.63064 375.64844 192.62084 375.64844 185.89062 C 375.64844 179.25714 372.69129 173.3167 368.09375 169.16016 C 372.69129 165.00361 375.64844 159.06317 375.64844 152.42969 C 375.64844 139.98971 365.43412 129.77539 352.99414 129.77539 z M 457.11328 129.77539 C 444.67331 129.77539 434.45898 139.98971 434.45898 152.42969 C 434.45898 159.06317 437.41614 165.00361 442.01367 169.16016 C 437.41614 173.3167 434.45898 179.25714 434.45898 185.89062 C 434.45898 192.62084 437.50823 198.63064 442.22266 202.79297 C 437.50841 206.95529 434.45898 212.96524 434.45898 219.69531 C 434.45898 226.32891 437.41599 232.26922 442.01367 236.42578 C 437.41653 240.58231 434.45898 246.52114 434.45898 253.1543 C 434.45898 265.59427 444.67331 275.80859 457.11328 275.80859 C 457.19593 275.80859 461.88837 275.80924 466.60352 275.80859 C 468.96109 275.80827 471.31795 275.8071 473.09375 275.80664 C 473.98165 275.80641 474.72326 275.8069 475.24805 275.80664 C 475.51044 275.80651 475.71973 275.80678 475.86523 275.80664 C 476.01074 275.8065 475.38229 275.82143 476.21094 275.80469 A 6.0561824 6.0561824 0 1 0 475.9668 263.69531 C 476.78096 263.67886 475.99535 263.69518 475.85352 263.69531 C 475.71168 263.69545 475.50362 263.69518 475.24219 263.69531 C 474.71932 263.69557 473.97725 263.69508 473.08984 263.69531 C 471.31503 263.69577 468.95888 263.69694 466.60156 263.69727 C 461.88692 263.69791 457.14702 263.69922 457.11328 263.69922 C 451.21866 263.69922 446.57031 259.04892 446.57031 253.1543 C 446.57031 247.25967 451.21866 242.61133 457.11328 242.61133 C 457.18075 242.61133 457.25664 242.61355 457.33984 242.61523 A 6.0561824 6.0561824 0 0 0 463.5957 236.41016 A 6.0561824 6.0561824 0 0 0 457.33984 230.23633 C 457.25664 230.23801 457.18075 230.23828 457.11328 230.23828 C 451.21866 230.23828 446.57031 225.58992 446.57031 219.69531 C 446.57031 213.80069 451.21866 209.15234 457.11328 209.15234 C 457.18075 209.15234 457.25664 209.15262 457.33984 209.1543 A 6.0561824 6.0561824 0 0 0 463.5918 202.875 A 6.0561824 6.0561824 0 0 0 463.5918 202.87305 A 6.0561824 6.0561824 0 0 0 457.33984 196.43164 C 457.25664 196.43332 457.18075 196.43359 457.11328 196.43359 C 451.21866 196.43359 446.57031 191.78524 446.57031 185.89062 C 446.57031 179.996 451.21866 175.34766 457.11328 175.34766 C 457.18075 175.34766 457.25664 175.34793 457.33984 175.34961 A 6.0561824 6.0561824 0 0 0 463.5957 169.14453 A 6.0561824 6.0561824 0 0 0 457.33984 162.9707 C 457.25699 162.97238 457.18075 162.97266 457.11328 162.97266 C 451.21866 162.97266 446.57031 158.3243 446.57031 152.42969 C 446.57031 146.53506 451.21866 141.88672 457.11328 141.88672 C 457.14702 141.88672 461.88692 141.88803 466.60156 141.88867 C 468.95888 141.88899 471.31503 141.88821 473.08984 141.88867 C 473.97725 141.8889 474.71932 141.89036 475.24219 141.89062 C 475.50362 141.89076 475.71168 141.89049 475.85352 141.89062 C 475.99535 141.89076 476.78096 141.90512 475.9668 141.88867 A 6.0561824 6.0561824 0 1 0 476.21094 129.78125 C 475.38229 129.76451 476.01074 129.77944 475.86523 129.7793 C 475.71973 129.77916 475.51044 129.77943 475.24805 129.7793 C 474.72326 129.77903 473.98165 129.77757 473.09375 129.77734 C 471.31795 129.77688 468.96109 129.77767 466.60352 129.77734 C 461.88837 129.7767 457.19593 129.77539 457.11328 129.77539 z M 392.9668 131.26367 A 6.0561824 6.0561824 0 0 0 387.00195 137.4043 L 387.00195 269.11914 A 6.0561824 6.0561824 0 1 0 399.11328 269.11914 L 399.11328 137.4043 A 6.0561824 6.0561824 0 0 0 392.9668 131.26367 z M 418.31836 131.26367 A 6.0561824 6.0561824 0 0 0 412.35352 137.4043 L 412.35352 269.11914 A 6.0561824 6.0561824 0 1 0 424.46484 269.11914 L 424.46484 137.4043 A 6.0561824 6.0561824 0 0 0 418.31836 131.26367 z M 114.99414 325.77539 C 114.9115 325.77539 110.22101 325.7767 105.50586 325.77734 C 103.14829 325.77767 100.79142 325.77688 99.015625 325.77734 C 98.127725 325.77757 97.384166 325.77903 96.859375 325.7793 C 96.59698 325.77943 96.389647 325.77916 96.244141 325.7793 C 96.098634 325.77944 96.725228 325.76451 95.896484 325.78125 A 6.0561824 6.0561824 0 1 0 96.140625 337.88867 C 95.326358 337.90512 96.114022 337.89076 96.255859 337.89062 C 96.397696 337.89049 96.603801 337.89076 96.865234 337.89062 C 97.3881 337.89036 98.130171 337.8889 99.017578 337.88867 C 100.79239 337.88821 103.15049 337.88899 105.50781 337.88867 C 110.22246 337.88803 114.96041 337.88672 114.99414 337.88672 C 120.88877 337.88672 125.53711 342.53506 125.53711 348.42969 C 125.53711 354.3243 120.88876 358.97266 114.99414 358.97266 C 114.92667 358.97266 114.8524 358.97238 114.76953 358.9707 A 6.0561824 6.0561824 0 0 0 108.51367 365.19141 A 6.0561824 6.0561824 0 0 0 114.76758 371.34961 C 114.8508 371.34793 114.92667 371.34766 114.99414 371.34766 C 120.88877 371.34766 125.53711 375.996 125.53711 381.89062 C 125.53711 387.78524 120.88876 392.43359 114.99414 392.43359 C 114.92667 392.43359 114.8508 392.43332 114.76758 392.43164 A 6.0561824 6.0561824 0 0 0 108.51758 398.74219 A 6.0561824 6.0561824 0 0 0 114.76758 405.1543 C 114.8508 405.15262 114.92667 405.15234 114.99414 405.15234 C 120.88877 405.15234 125.53711 409.80069 125.53711 415.69531 C 125.53711 421.58992 120.88876 426.23828 114.99414 426.23828 C 114.92667 426.23828 114.8508 426.23801 114.76758 426.23633 A 6.0561824 6.0561824 0 0 0 108.51367 432.45703 A 6.0561824 6.0561824 0 0 0 114.76758 438.61523 C 114.8508 438.61355 114.92667 438.61133 114.99414 438.61133 C 120.88877 438.61133 125.53711 443.25967 125.53711 449.1543 C 125.53711 455.04892 120.88877 459.69922 114.99414 459.69922 C 114.96041 459.69922 110.22246 459.69791 105.50781 459.69727 C 103.15049 459.69694 100.79239 459.69577 99.017578 459.69531 C 98.130171 459.69508 97.3881 459.69557 96.865234 459.69531 C 96.603801 459.69518 96.397696 459.69545 96.255859 459.69531 C 96.114022 459.69518 95.326358 459.67886 96.140625 459.69531 A 6.0561824 6.0561824 0 1 0 95.896484 471.80469 C 96.725228 471.82143 96.098634 471.8065 96.244141 471.80664 C 96.389647 471.80678 96.59698 471.80651 96.859375 471.80664 C 97.384166 471.8069 98.127725 471.80641 99.015625 471.80664 C 100.79142 471.8071 103.14829 471.80827 105.50586 471.80859 C 110.22101 471.80924 114.9115 471.80859 114.99414 471.80859 C 127.43412 471.80859 137.64844 461.59427 137.64844 449.1543 C 137.64844 442.52114 134.69089 436.58231 130.09375 432.42578 C 134.69143 428.26922 137.64844 422.32891 137.64844 415.69531 C 137.64844 408.96524 134.59901 402.95529 129.88477 398.79297 C 134.59919 394.63064 137.64844 388.62084 137.64844 381.89062 C 137.64844 375.25714 134.69129 369.3167 130.09375 365.16016 C 134.69129 361.00361 137.64844 355.06317 137.64844 348.42969 C 137.64844 335.98971 127.43412 325.77539 114.99414 325.77539 z M 219.11328 325.77539 C 206.67331 325.77539 196.45898 335.98971 196.45898 348.42969 C 196.45898 355.06317 199.41614 361.00361 204.01367 365.16016 C 199.41614 369.3167 196.45898 375.25714 196.45898 381.89062 C 196.45898 388.62084 199.50823 394.63064 204.22266 398.79297 C 199.50841 402.95529 196.45898 408.96524 196.45898 415.69531 C 196.45898 422.32891 199.41599 428.26922 204.01367 432.42578 C 199.41653 436.58231 196.45898 442.52114 196.45898 449.1543 C 196.45898 461.59427 206.67331 471.80859 219.11328 471.80859 C 219.19593 471.80859 223.88837 471.80924 228.60352 471.80859 C 230.96109 471.80827 233.31795 471.8071 235.09375 471.80664 C 235.98165 471.80641 236.72326 471.8069 237.24805 471.80664 C 237.51044 471.80651 237.71973 471.80678 237.86523 471.80664 C 238.01074 471.8065 237.38229 471.82143 238.21094 471.80469 A 6.0561824 6.0561824 0 1 0 237.9668 459.69531 C 238.78096 459.67886 237.99535 459.69518 237.85352 459.69531 C 237.71168 459.69545 237.50362 459.69518 237.24219 459.69531 C 236.71932 459.69557 235.97725 459.69508 235.08984 459.69531 C 233.31503 459.69577 230.95889 459.69694 228.60156 459.69727 C 223.88692 459.69791 219.14702 459.69922 219.11328 459.69922 C 213.21866 459.69922 208.57031 455.04892 208.57031 449.1543 C 208.57031 443.25967 213.21866 438.61133 219.11328 438.61133 C 219.18075 438.61133 219.25662 438.61355 219.33984 438.61523 A 6.0561824 6.0561824 0 0 0 225.5957 432.41016 A 6.0561824 6.0561824 0 0 0 219.33984 426.23633 C 219.25662 426.23801 219.18075 426.23828 219.11328 426.23828 C 213.21866 426.23828 208.57031 421.58992 208.57031 415.69531 C 208.57031 409.80069 213.21866 405.15234 219.11328 405.15234 C 219.18075 405.15234 219.25662 405.15262 219.33984 405.1543 A 6.0561824 6.0561824 0 0 0 225.5918 398.875 A 6.0561824 6.0561824 0 0 0 225.5918 398.87305 A 6.0561824 6.0561824 0 0 0 219.33984 392.43164 C 219.25662 392.43332 219.18075 392.43359 219.11328 392.43359 C 213.21866 392.43359 208.57031 387.78524 208.57031 381.89062 C 208.57031 375.996 213.21866 371.34766 219.11328 371.34766 C 219.18075 371.34766 219.25662 371.34793 219.33984 371.34961 A 6.0561824 6.0561824 0 0 0 225.5957 365.14453 A 6.0561824 6.0561824 0 0 0 219.33984 358.9707 C 219.25697 358.97238 219.18075 358.97266 219.11328 358.97266 C 213.21866 358.97266 208.57031 354.3243 208.57031 348.42969 C 208.57031 342.53506 213.21866 337.88672 219.11328 337.88672 C 219.14702 337.88672 223.88692 337.88803 228.60156 337.88867 C 230.95889 337.88899 233.31503 337.88821 235.08984 337.88867 C 235.97725 337.8889 236.71932 337.89036 237.24219 337.89062 C 237.50362 337.89076 237.71168 337.89049 237.85352 337.89062 C 237.99535 337.89076 238.78096 337.90512 237.9668 337.88867 A 6.0561824 6.0561824 0 1 0 238.21094 325.78125 C 237.38229 325.76451 238.01074 325.77944 237.86523 325.7793 C 237.71973 325.77916 237.51044 325.77943 237.24805 325.7793 C 236.72326 325.77903 235.98165 325.77757 235.09375 325.77734 C 233.31795 325.77688 230.96109 325.77767 228.60352 325.77734 C 223.88837 325.7767 219.19593 325.77539 219.11328 325.77539 z M 352.99414 325.77539 C 352.91149 325.77539 348.22101 325.7767 343.50586 325.77734 C 341.14829 325.77767 338.79143 325.77688 337.01562 325.77734 C 336.12772 325.77757 335.38416 325.77903 334.85938 325.7793 C 334.59697 325.77943 334.38965 325.77916 334.24414 325.7793 C 334.09863 325.77944 334.72513 325.76451 333.89648 325.78125 A 6.0561824 6.0561824 0 1 0 334.14062 337.88867 C 333.32646 337.90512 334.11402 337.89076 334.25586 337.89062 C 334.3977 337.89049 334.6038 337.89076 334.86523 337.89062 C 335.3881 337.89036 336.13017 337.8889 337.01758 337.88867 C 338.79239 337.88821 341.15049 337.88899 343.50781 337.88867 C 348.22246 337.88803 352.9604 337.88672 352.99414 337.88672 C 358.88877 337.88672 363.53711 342.53506 363.53711 348.42969 C 363.53711 354.3243 358.88876 358.97266 352.99414 358.97266 C 352.92666 358.97266 352.85241 358.97238 352.76953 358.9707 A 6.0561824 6.0561824 0 0 0 346.51367 365.19141 A 6.0561824 6.0561824 0 0 0 352.76758 371.34961 C 352.8508 371.34793 352.92666 371.34766 352.99414 371.34766 C 358.88877 371.34766 363.53711 375.996 363.53711 381.89062 C 363.53711 387.78524 358.88876 392.43359 352.99414 392.43359 C 352.92666 392.43359 352.8508 392.43332 352.76758 392.43164 A 6.0561824 6.0561824 0 0 0 346.51758 398.74219 A 6.0561824 6.0561824 0 0 0 352.76758 405.1543 C 352.8508 405.15262 352.92666 405.15234 352.99414 405.15234 C 358.88877 405.15234 363.53711 409.80069 363.53711 415.69531 C 363.53711 421.58992 358.88876 426.23828 352.99414 426.23828 C 352.92666 426.23828 352.8508 426.23801 352.76758 426.23633 A 6.0561824 6.0561824 0 0 0 346.51367 432.45703 A 6.0561824 6.0561824 0 0 0 352.76758 438.61523 C 352.8508 438.61355 352.92666 438.61133 352.99414 438.61133 C 358.88877 438.61133 363.53711 443.25967 363.53711 449.1543 C 363.53711 455.04892 358.88877 459.69922 352.99414 459.69922 C 352.9604 459.69922 348.22246 459.69791 343.50781 459.69727 C 341.15049 459.69694 338.79239 459.69577 337.01758 459.69531 C 336.13017 459.69508 335.3881 459.69557 334.86523 459.69531 C 334.6038 459.69518 334.3977 459.69545 334.25586 459.69531 C 334.11402 459.69518 333.32646 459.67886 334.14062 459.69531 A 6.0561824 6.0561824 0 1 0 333.89648 471.80469 C 334.72513 471.82143 334.09863 471.8065 334.24414 471.80664 C 334.38965 471.80678 334.59697 471.80651 334.85938 471.80664 C 335.38416 471.8069 336.12772 471.80641 337.01562 471.80664 C 338.79143 471.8071 341.14829 471.80827 343.50586 471.80859 C 348.22101 471.80924 352.91149 471.80859 352.99414 471.80859 C 365.43412 471.80859 375.64844 461.59427 375.64844 449.1543 C 375.64844 442.52114 372.69089 436.58231 368.09375 432.42578 C 372.69143 428.26922 375.64844 422.32891 375.64844 415.69531 C 375.64844 408.96524 372.59901 402.95529 367.88477 398.79297 C 372.59919 394.63064 375.64844 388.62084 375.64844 381.89062 C 375.64844 375.25714 372.69129 369.3167 368.09375 365.16016 C 372.69129 361.00361 375.64844 355.06317 375.64844 348.42969 C 375.64844 335.98971 365.43412 325.77539 352.99414 325.77539 z M 457.11328 325.77539 C 444.67331 325.77539 434.45898 335.98971 434.45898 348.42969 C 434.45898 355.06317 437.41614 361.00361 442.01367 365.16016 C 437.41614 369.3167 434.45898 375.25714 434.45898 381.89062 C 434.45898 388.62084 437.50823 394.63064 442.22266 398.79297 C 437.50841 402.95529 434.45898 408.96524 434.45898 415.69531 C 434.45898 422.32891 437.41599 428.26922 442.01367 432.42578 C 437.41653 436.58231 434.45898 442.52114 434.45898 449.1543 C 434.45898 461.59427 444.67331 471.80859 457.11328 471.80859 C 457.19593 471.80859 461.88837 471.80924 466.60352 471.80859 C 468.96109 471.80827 471.31795 471.8071 473.09375 471.80664 C 473.98165 471.80641 474.72326 471.8069 475.24805 471.80664 C 475.51044 471.80651 475.71973 471.80678 475.86523 471.80664 C 476.01074 471.8065 475.38229 471.82143 476.21094 471.80469 A 6.0561824 6.0561824 0 1 0 475.9668 459.69531 C 476.78096 459.67886 475.99535 459.69518 475.85352 459.69531 C 475.71168 459.69545 475.50362 459.69518 475.24219 459.69531 C 474.71932 459.69557 473.97725 459.69508 473.08984 459.69531 C 471.31503 459.69577 468.95888 459.69694 466.60156 459.69727 C 461.88692 459.69791 457.14702 459.69922 457.11328 459.69922 C 451.21866 459.69922 446.57031 455.04892 446.57031 449.1543 C 446.57031 443.25967 451.21866 438.61133 457.11328 438.61133 C 457.18075 438.61133 457.25664 438.61355 457.33984 438.61523 A 6.0561824 6.0561824 0 0 0 463.5957 432.41016 A 6.0561824 6.0561824 0 0 0 457.33984 426.23633 C 457.25664 426.23801 457.18075 426.23828 457.11328 426.23828 C 451.21866 426.23828 446.57031 421.58992 446.57031 415.69531 C 446.57031 409.80069 451.21866 405.15234 457.11328 405.15234 C 457.18075 405.15234 457.25664 405.15262 457.33984 405.1543 A 6.0561824 6.0561824 0 0 0 463.5918 398.875 A 6.0561824 6.0561824 0 0 0 463.5918 398.87305 A 6.0561824 6.0561824 0 0 0 457.33984 392.43164 C 457.25664 392.43332 457.18075 392.43359 457.11328 392.43359 C 451.21866 392.43359 446.57031 387.78524 446.57031 381.89062 C 446.57031 375.996 451.21866 371.34766 457.11328 371.34766 C 457.18075 371.34766 457.25664 371.34793 457.33984 371.34961 A 6.0561824 6.0561824 0 0 0 463.5957 365.14453 A 6.0561824 6.0561824 0 0 0 457.33984 358.9707 C 457.25699 358.97238 457.18075 358.97266 457.11328 358.97266 C 451.21866 358.97266 446.57031 354.3243 446.57031 348.42969 C 446.57031 342.53506 451.21866 337.88672 457.11328 337.88672 C 457.14702 337.88672 461.88692 337.88803 466.60156 337.88867 C 468.95888 337.88899 471.31503 337.88821 473.08984 337.88867 C 473.97725 337.8889 474.71932 337.89036 475.24219 337.89062 C 475.50362 337.89076 475.71168 337.89049 475.85352 337.89062 C 475.99535 337.89076 476.78096 337.90512 475.9668 337.88867 A 6.0561824 6.0561824 0 1 0 476.21094 325.78125 C 475.38229 325.76451 476.01074 325.77944 475.86523 325.7793 C 475.71973 325.77916 475.51044 325.77943 475.24805 325.7793 C 474.72326 325.77903 473.98165 325.77757 473.09375 325.77734 C 471.31795 325.77688 468.96109 325.77767 466.60352 325.77734 C 461.88837 325.7767 457.19593 325.77539 457.11328 325.77539 z M 154.9668 327.26367 A 6.0561824 6.0561824 0 0 0 149.00195 333.4043 L 149.00195 465.11914 A 6.0561824 6.0561824 0 1 0 161.11328 465.11914 L 161.11328 333.4043 A 6.0561824 6.0561824 0 0 0 154.9668 327.26367 z M 180.31836 327.26367 A 6.0561824 6.0561824 0 0 0 174.35352 333.4043 L 174.35352 465.11914 A 6.0561824 6.0561824 0 1 0 186.46484 465.11914 L 186.46484 333.4043 A 6.0561824 6.0561824 0 0 0 180.31836 327.26367 z M 392.9668 327.26367 A 6.0561824 6.0561824 0 0 0 387.00195 333.4043 L 387.00195 465.11914 A 6.0561824 6.0561824 0 1 0 399.11328 465.11914 L 399.11328 333.4043 A 6.0561824 6.0561824 0 0 0 392.9668 327.26367 z M 418.31836 327.26367 A 6.0561824 6.0561824 0 0 0 412.35352 333.4043 L 412.35352 465.11914 A 6.0561824 6.0561824 0 1 0 424.46484 465.11914 L 424.46484 333.4043 A 6.0561824 6.0561824 0 0 0 418.31836 327.26367 z "
     id="rect5460" />
</svg>
