<?xml version="1.0" encoding="UTF-8" standalone="no"?>
<!-- Created with Inkscape (http://www.inkscape.org/) -->

<svg
   xmlns:dc="http://purl.org/dc/elements/1.1/"
   xmlns:cc="http://creativecommons.org/ns#"
   xmlns:rdf="http://www.w3.org/1999/02/22-rdf-syntax-ns#"
   xmlns:svg="http://www.w3.org/2000/svg"
   xmlns="http://www.w3.org/2000/svg"
   xmlns:sodipodi="http://sodipodi.sourceforge.net/DTD/sodipodi-0.dtd"
   xmlns:inkscape="http://www.inkscape.org/namespaces/inkscape"
   version="1.0"
   width="580"
   height="580"
   id="svg2"
   sodipodi:version="0.32"
   inkscape:version="0.91 r13725"
   sodipodi:docname="tower_high2.svg"
   inkscape:output_extension="org.inkscape.output.svg.inkscape">
  <metadata
     id="metadata10">
    <rdf:RDF>
      <cc:Work
         rdf:about="">
        <dc:format>image/svg+xml</dc:format>
        <dc:type
           rdf:resource="http://purl.org/dc/dcmitype/StillImage" />
        <cc:license
           rdf:resource="http://web.resource.org/cc/PublicDomain" />
        <dc:language>en</dc:language>
        <dc:title />
      </cc:Work>
    </rdf:RDF>
  </metadata>
  <sodipodi:namedview
     inkscape:window-height="972"
     inkscape:window-width="1280"
     inkscape:pageshadow="2"
     inkscape:pageopacity="0.0"
     guidetolerance="10.0"
     gridtolerance="10.0"
     objecttolerance="10.0"
     borderopacity="1.0"
     bordercolor="#666666"
     pagecolor="#ffffff"
     id="base"
     showgrid="false"
     inkscape:zoom="0.5"
     inkscape:cx="235.63841"
     inkscape:cy="299.39588"
     inkscape:window-x="-8"
     inkscape:window-y="-8"
     inkscape:current-layer="svg2"
     inkscape:window-maximized="1"
     showguides="true"
     inkscape:guide-bbox="true" />
  <defs
     id="defs4">
    <inkscape:perspective
       sodipodi:type="inkscape:persp3d"
       inkscape:vp_x="0 : 290 : 1"
       inkscape:vp_y="0 : 1000 : 0"
       inkscape:vp_z="580 : 290 : 1"
       inkscape:persp3d-origin="290 : 193.33333 : 1"
       id="perspective12" />
    <style
       type="text/css"
       id="style6">
   
    .fil0 {fill:#EF7900}
   
  </style>
    <inkscape:perspective
       id="perspective6807"
       inkscape:persp3d-origin="29.116032 : 19.410688 : 1"
       inkscape:vp_z="58.232063 : 29.116032 : 1"
       inkscape:vp_y="0 : 1000 : 0"
       inkscape:vp_x="0 : 29.116032 : 1"
       sodipodi:type="inkscape:persp3d" />
    <inkscape:perspective
       id="perspective6954"
       inkscape:persp3d-origin="290 : 193.33333 : 1"
       inkscape:vp_z="580 : 290 : 1"
       inkscape:vp_y="0 : 1000 : 0"
       inkscape:vp_x="0 : 290 : 1"
       sodipodi:type="inkscape:persp3d" />
    <inkscape:perspective
       id="perspective2541"
       inkscape:persp3d-origin="240 : 160 : 1"
       inkscape:vp_z="480 : 240 : 1"
       inkscape:vp_y="0 : 1000 : 0"
       inkscape:vp_x="0 : 240 : 1"
       sodipodi:type="inkscape:persp3d" />
    <inkscape:perspective
       id="perspective2750"
       inkscape:persp3d-origin="215 : 143.33333 : 1"
       inkscape:vp_z="430 : 215 : 1"
       inkscape:vp_y="0 : 1000 : 0"
       inkscape:vp_x="0 : 215 : 1"
       sodipodi:type="inkscape:persp3d" />
    <inkscape:perspective
       id="perspective3730"
       inkscape:persp3d-origin="88.929146 : 101.19778 : 1"
       inkscape:vp_z="177.85829 : 151.79668 : 1"
       inkscape:vp_y="0 : 1000 : 0"
       inkscape:vp_x="0 : 151.79668 : 1"
       sodipodi:type="inkscape:persp3d" />
  </defs>
  <path
     style="color:#000000;font-style:normal;font-variant:normal;font-weight:normal;font-stretch:normal;font-size:medium;line-height:normal;font-family:sans-serif;text-indent:0;text-align:start;text-decoration:none;text-decoration-line:none;text-decoration-style:solid;text-decoration-color:#000000;letter-spacing:normal;word-spacing:normal;text-transform:none;direction:ltr;block-progression:tb;writing-mode:lr-tb;baseline-shift:baseline;text-anchor:start;white-space:normal;clip-rule:nonzero;display:inline;overflow:visible;visibility:visible;opacity:1;isolation:auto;mix-blend-mode:normal;color-interpolation:sRGB;color-interpolation-filters:linearRGB;solid-color:#000000;solid-opacity:1;fill:#800000;fill-opacity:1;fill-rule:nonzero;stroke:none;stroke-width:12.53017044;stroke-linecap:round;stroke-linejoin:miter;stroke-miterlimit:4;stroke-dasharray:none;stroke-dashoffset:0;stroke-opacity:1;color-rendering:auto;image-rendering:auto;shape-rendering:auto;text-rendering:auto;enable-background:accumulate"
     d="M 281.26953 56.003906 A 12.50125 12.50125 0 0 0 268.9043 68.628906 L 268.84375 82.90625 L 220.31641 82.697266 A 12.50125 12.50125 0 0 0 208.08984 98.636719 C 167.9316 126.43137 129.20986 124.95763 98.423828 116.06445 C 64.216489 106.18297 41.142578 86.814453 41.142578 86.814453 L 30.054688 99.970703 C 30.054688 99.970703 55.644657 121.61558 93.648438 132.59375 C 129.62439 142.98614 177.92015 143.48445 224.79492 107.7168 L 268.73438 107.90625 L 268.55078 150.9043 L 220.31641 150.69727 A 12.50125 12.50125 0 0 0 209.43555 169.69922 C 168.79698 198.46883 129.55381 197.05699 98.423828 188.06445 C 64.216489 178.18297 41.142578 158.81445 41.142578 158.81445 L 30.054688 171.9707 C 30.054688 171.9707 55.644657 193.61558 93.648438 204.59375 C 130.9097 215.35743 181.38649 215.50444 229.8125 175.73828 L 268.44336 175.9043 L 268.29297 210.45117 A 12.50125 12.50125 0 0 0 267.63477 211.92188 L 165.08203 483.45898 A 12.50125 12.50125 0 1 0 188.4707 492.29102 L 204.85938 448.89453 L 292.44141 377.95117 L 378.9043 447.98828 L 395.63477 492.29102 A 12.50125 12.50125 0 1 0 419.02148 483.45898 L 316.4707 211.92188 A 12.50125 12.50125 0 0 0 315.29883 209.5332 L 315.44141 176.10742 L 353.54102 176.27148 C 401.77049 215.50999 451.96817 215.30977 489.06445 204.59375 C 527.06823 193.61558 552.6582 171.9707 552.6582 171.9707 L 541.57031 158.81445 C 541.57031 158.81445 518.4964 178.18297 484.28906 188.06445 C 453.83623 196.86138 415.61786 198.38886 375.92578 171.51953 A 12.50125 12.50125 0 0 0 365.97266 151.32422 L 315.54883 151.10742 L 315.73438 108.10742 L 358.66016 108.29297 C 405.30156 143.48978 453.27897 142.93112 489.06445 132.59375 C 527.06823 121.61558 552.6582 99.970703 552.6582 99.970703 L 541.57031 86.814453 C 541.57031 86.814453 518.4964 106.18297 484.28906 116.06445 C 454.2668 124.737 416.69787 126.36138 377.60938 100.66016 A 12.50125 12.50125 0 0 0 365.97266 83.324219 L 315.8418 83.107422 L 315.9043 68.736328 A 12.50125 12.50125 0 0 0 303.26953 56.003906 A 12.50125 12.50125 0 0 0 292.41016 62.585938 A 12.50125 12.50125 0 0 0 281.26953 56.003906 z M 291.77344 220.42578 A 12.50125 12.50125 0 0 0 294.125 223.51562 L 309.39062 263.93359 L 292.61133 279.46289 L 275.00391 263.16406 L 290.35547 222.51758 A 12.50125 12.50125 0 0 0 291.77344 220.42578 z M 270.22656 275.81641 L 283.39062 288.00195 L 256.07617 313.28516 L 270.22656 275.81641 z M 314.16797 276.58398 L 327.42773 311.69141 L 301.83398 288 L 314.16797 276.58398 z M 292.61133 296.53711 L 328.00391 329.29883 L 292.44141 358.10547 L 257.06055 329.44531 L 292.61133 296.53711 z M 245.89258 340.24609 L 280.18945 368.02734 L 215.66016 420.29883 L 245.89258 340.24609 z M 338.39453 340.72852 L 368.10352 419.39453 L 304.69141 368.02734 L 338.39453 340.72852 z "
     id="path3758" />
</svg>
