<?xml version="1.0" encoding="UTF-8" standalone="no"?>
<!-- Created with Inkscape (http://www.inkscape.org/) -->

<svg
   xmlns:dc="http://purl.org/dc/elements/1.1/"
   xmlns:cc="http://creativecommons.org/ns#"
   xmlns:rdf="http://www.w3.org/1999/02/22-rdf-syntax-ns#"
   xmlns:svg="http://www.w3.org/2000/svg"
   xmlns="http://www.w3.org/2000/svg"
   xmlns:sodipodi="http://sodipodi.sourceforge.net/DTD/sodipodi-0.dtd"
   xmlns:inkscape="http://www.inkscape.org/namespaces/inkscape"
   version="1.0"
   width="580"
   height="580"
   id="svg2"
   sodipodi:version="0.32"
   inkscape:version="0.91 r13725"
   sodipodi:docname="station_gas.svg"
   inkscape:output_extension="org.inkscape.output.svg.inkscape">
  <metadata
     id="metadata10">
    <rdf:RDF>
      <cc:Work
         rdf:about="">
        <dc:format>image/svg+xml</dc:format>
        <dc:type
           rdf:resource="http://purl.org/dc/dcmitype/StillImage" />
        <cc:license
           rdf:resource="http://web.resource.org/cc/PublicDomain" />
        <dc:language>en</dc:language>
        <dc:title />
      </cc:Work>
    </rdf:RDF>
  </metadata>
  <sodipodi:namedview
     inkscape:window-height="972"
     inkscape:window-width="1280"
     inkscape:pageshadow="2"
     inkscape:pageopacity="0.0"
     guidetolerance="10.0"
     gridtolerance="10.0"
     objecttolerance="10.0"
     borderopacity="1.0"
     bordercolor="#666666"
     pagecolor="#ffffff"
     id="base"
     showgrid="false"
     inkscape:zoom="0.35355339"
     inkscape:cx="439.79787"
     inkscape:cy="495.29999"
     inkscape:window-x="-8"
     inkscape:window-y="-8"
     inkscape:current-layer="svg2"
     inkscape:window-maximized="1" />
  <defs
     id="defs4">
    <inkscape:perspective
       sodipodi:type="inkscape:persp3d"
       inkscape:vp_x="0 : 290 : 1"
       inkscape:vp_y="0 : 1000 : 0"
       inkscape:vp_z="580 : 290 : 1"
       inkscape:persp3d-origin="290 : 193.33333 : 1"
       id="perspective12" />
    <style
       type="text/css"
       id="style6">
   
    .fil0 {fill:#EF7900}
   
  </style>
    <inkscape:perspective
       id="perspective6807"
       inkscape:persp3d-origin="29.116032 : 19.410688 : 1"
       inkscape:vp_z="58.232063 : 29.116032 : 1"
       inkscape:vp_y="0 : 1000 : 0"
       inkscape:vp_x="0 : 29.116032 : 1"
       sodipodi:type="inkscape:persp3d" />
    <inkscape:perspective
       id="perspective6954"
       inkscape:persp3d-origin="290 : 193.33333 : 1"
       inkscape:vp_z="580 : 290 : 1"
       inkscape:vp_y="0 : 1000 : 0"
       inkscape:vp_x="0 : 290 : 1"
       sodipodi:type="inkscape:persp3d" />
    <inkscape:perspective
       id="perspective2541"
       inkscape:persp3d-origin="240 : 160 : 1"
       inkscape:vp_z="480 : 240 : 1"
       inkscape:vp_y="0 : 1000 : 0"
       inkscape:vp_x="0 : 240 : 1"
       sodipodi:type="inkscape:persp3d" />
    <inkscape:perspective
       id="perspective2750"
       inkscape:persp3d-origin="215 : 143.33333 : 1"
       inkscape:vp_z="430 : 215 : 1"
       inkscape:vp_y="0 : 1000 : 0"
       inkscape:vp_x="0 : 215 : 1"
       sodipodi:type="inkscape:persp3d" />
    <inkscape:perspective
       id="perspective3730"
       inkscape:persp3d-origin="88.929146 : 101.19778 : 1"
       inkscape:vp_z="177.85829 : 151.79668 : 1"
       inkscape:vp_y="0 : 1000 : 0"
       inkscape:vp_x="0 : 151.79668 : 1"
       sodipodi:type="inkscape:persp3d" />
    <inkscape:perspective
       id="perspective9"
       inkscape:persp3d-origin="372.04724 : 350.78739 : 1"
       inkscape:vp_z="744.09448 : 526.18109 : 1"
       inkscape:vp_y="0 : 1000 : 0"
       inkscape:vp_x="0 : 526.18109 : 1"
       sodipodi:type="inkscape:persp3d" />
  </defs>
  <path
     style="color:#000000;font-style:normal;font-variant:normal;font-weight:normal;font-stretch:normal;font-size:medium;line-height:normal;font-family:sans-serif;text-indent:0;text-align:start;text-decoration:none;text-decoration-line:none;text-decoration-style:solid;text-decoration-color:#000000;letter-spacing:normal;word-spacing:normal;text-transform:none;direction:ltr;block-progression:tb;writing-mode:lr-tb;baseline-shift:baseline;text-anchor:start;white-space:normal;clip-rule:nonzero;display:inline;overflow:visible;visibility:visible;opacity:1;isolation:auto;mix-blend-mode:normal;color-interpolation:sRGB;color-interpolation-filters:linearRGB;solid-color:#000000;solid-opacity:1;fill:#000080;fill-opacity:1;fill-rule:nonzero;stroke:none;stroke-width:9.42290306;stroke-linecap:round;stroke-linejoin:round;stroke-miterlimit:4;stroke-dasharray:none;stroke-dashoffset:0;stroke-opacity:1;color-rendering:auto;image-rendering:auto;shape-rendering:auto;text-rendering:auto;enable-background:accumulate"
     d="M 180.71875 26.447266 L 179.95508 31.835938 C 174.61963 69.532066 163.72132 88.014694 153.46875 102.4707 C 143.21618 116.92672 133.05615 127.82841 131.08594 148.51562 C 129.08541 169.52108 138.80248 186.50554 149.6582 198.22852 C 155.08606 204.09001 160.81682 208.68913 165.66602 211.96484 C 170.51521 215.24055 174.05092 217.1498 176.81055 217.83984 L 187.04492 220.39844 L 180.14453 212.41992 C 180.14453 212.41992 175.60319 207.16376 171.25586 199.63672 C 166.90853 192.10968 162.99804 182.41414 163.77148 174.29297 C 164.34904 168.22865 165.75567 164.49632 168.31445 160.24219 C 170.87323 155.98806 174.70973 151.25691 179.80273 144.08203 C 186.55118 134.57499 194.06352 121.46722 199.99219 103.25391 C 218.20359 119.56773 226.15403 129.6893 230.01758 150.13281 C 231.92914 160.24757 228.83194 175.86934 225.01953 188.64258 C 221.20712 201.41581 216.87305 211.4043 216.87305 211.4043 L 211.83203 223.01953 L 221.94336 215.39844 C 254.59233 190.78873 267.19896 158.84774 260.32227 125.92383 C 253.44557 92.999917 227.68159 59.373825 185.17578 29.572266 L 180.71875 26.447266 z M 185.63086 38.248047 C 224.53287 66.591965 247.64335 97.864893 253.78906 127.28906 C 259.45369 154.40989 251.22819 180.13287 227.51953 201.99219 C 228.79393 198.44682 230.06576 195.0682 231.41406 190.55078 C 235.35039 177.36237 238.93456 161.37364 236.57617 148.89453 C 232.18077 125.63677 222.1867 113.63317 200.6875 94.810547 L 196.74805 91.361328 L 195.28516 96.388672 C 189.39333 116.65119 181.44568 130.23575 174.35938 140.21875 C 169.38734 147.22322 165.52588 151.92594 162.59375 156.80078 C 159.66162 161.67563 157.78528 166.76822 157.12891 173.66016 C 156.12042 184.24927 160.79337 194.86606 165.47656 202.97461 C 165.70561 203.37119 165.88949 203.56258 166.11914 203.94727 C 162.40274 201.17057 158.43048 197.88074 154.55469 193.69531 C 144.52142 182.86049 135.95491 167.79175 137.73047 149.14844 C 139.51948 130.3639 148.38032 121.1798 158.91211 106.33008 C 168.91581 92.224961 179.86216 73.231024 185.63086 38.248047 z M 125.80664 217.09375 A 4.7119227 4.7119227 0 0 0 121.06055 222.25195 C 130.64197 323.03923 123.53828 419.69874 98.525391 537.9707 A 4.7119227 4.7119227 0 0 0 103.13477 543.65625 L 133.28906 543.65625 L 265.32812 543.65625 L 295.48047 543.65625 A 4.7119227 4.7119227 0 0 0 297.80664 543.03711 L 488.97656 543.03711 A 3.9433293 3.9433293 0 0 0 492.91992 539.0957 L 492.91992 425.42578 A 3.9433293 3.9433293 0 0 0 488.97656 421.48242 L 280.46289 421.48242 C 272.16141 352.061 271.30307 288.03351 277.55664 222.25195 A 4.7119227 4.7119227 0 0 0 270.97852 217.48828 C 240.42905 230.83734 223.61263 228.91852 199.30859 230.66406 C 175.00456 228.91852 158.1862 230.83734 127.63672 217.48828 A 4.7119227 4.7119227 0 0 0 125.80664 217.09375 z "
     id="path4163" />
</svg>
