<?xml version="1.0" encoding="UTF-8" standalone="no"?>
<!-- Created with Inkscape (http://www.inkscape.org/) -->

<svg
   xmlns:dc="http://purl.org/dc/elements/1.1/"
   xmlns:cc="http://creativecommons.org/ns#"
   xmlns:rdf="http://www.w3.org/1999/02/22-rdf-syntax-ns#"
   xmlns:svg="http://www.w3.org/2000/svg"
   xmlns="http://www.w3.org/2000/svg"
   xmlns:sodipodi="http://sodipodi.sourceforge.net/DTD/sodipodi-0.dtd"
   xmlns:inkscape="http://www.inkscape.org/namespaces/inkscape"
   version="1.0"
   width="580"
   height="580"
   id="svg2"
   sodipodi:version="0.32"
   inkscape:version="0.91 r13725"
   sodipodi:docname="station_coal.svg"
   inkscape:output_extension="org.inkscape.output.svg.inkscape">
  <metadata
     id="metadata10">
    <rdf:RDF>
      <cc:Work
         rdf:about="">
        <dc:format>image/svg+xml</dc:format>
        <dc:type
           rdf:resource="http://purl.org/dc/dcmitype/StillImage" />
        <cc:license
           rdf:resource="http://web.resource.org/cc/PublicDomain" />
        <dc:language>en</dc:language>
        <dc:title />
      </cc:Work>
    </rdf:RDF>
  </metadata>
  <sodipodi:namedview
     inkscape:window-height="972"
     inkscape:window-width="1280"
     inkscape:pageshadow="2"
     inkscape:pageopacity="0.0"
     guidetolerance="10.0"
     gridtolerance="10.0"
     objecttolerance="10.0"
     borderopacity="1.0"
     bordercolor="#666666"
     pagecolor="#ffffff"
     id="base"
     showgrid="false"
     inkscape:zoom="1"
     inkscape:cx="149.49338"
     inkscape:cy="142.02245"
     inkscape:window-x="-8"
     inkscape:window-y="-8"
     inkscape:current-layer="svg2"
     inkscape:window-maximized="1" />
  <defs
     id="defs4">
    <inkscape:perspective
       sodipodi:type="inkscape:persp3d"
       inkscape:vp_x="0 : 290 : 1"
       inkscape:vp_y="0 : 1000 : 0"
       inkscape:vp_z="580 : 290 : 1"
       inkscape:persp3d-origin="290 : 193.33333 : 1"
       id="perspective12" />
    <style
       type="text/css"
       id="style6">
   
    .fil0 {fill:#EF7900}
   
  </style>
    <inkscape:perspective
       id="perspective6807"
       inkscape:persp3d-origin="29.116032 : 19.410688 : 1"
       inkscape:vp_z="58.232063 : 29.116032 : 1"
       inkscape:vp_y="0 : 1000 : 0"
       inkscape:vp_x="0 : 29.116032 : 1"
       sodipodi:type="inkscape:persp3d" />
    <inkscape:perspective
       id="perspective6954"
       inkscape:persp3d-origin="290 : 193.33333 : 1"
       inkscape:vp_z="580 : 290 : 1"
       inkscape:vp_y="0 : 1000 : 0"
       inkscape:vp_x="0 : 290 : 1"
       sodipodi:type="inkscape:persp3d" />
    <inkscape:perspective
       id="perspective2541"
       inkscape:persp3d-origin="240 : 160 : 1"
       inkscape:vp_z="480 : 240 : 1"
       inkscape:vp_y="0 : 1000 : 0"
       inkscape:vp_x="0 : 240 : 1"
       sodipodi:type="inkscape:persp3d" />
    <inkscape:perspective
       id="perspective2750"
       inkscape:persp3d-origin="215 : 143.33333 : 1"
       inkscape:vp_z="430 : 215 : 1"
       inkscape:vp_y="0 : 1000 : 0"
       inkscape:vp_x="0 : 215 : 1"
       sodipodi:type="inkscape:persp3d" />
    <inkscape:perspective
       id="perspective3730"
       inkscape:persp3d-origin="88.929146 : 101.19778 : 1"
       inkscape:vp_z="177.85829 : 151.79668 : 1"
       inkscape:vp_y="0 : 1000 : 0"
       inkscape:vp_x="0 : 151.79668 : 1"
       sodipodi:type="inkscape:persp3d" />
  </defs>
  <path
     style="color:#000000;font-style:normal;font-variant:normal;font-weight:normal;font-stretch:normal;font-size:medium;line-height:normal;font-family:sans-serif;text-indent:0;text-align:start;text-decoration:none;text-decoration-line:none;text-decoration-style:solid;text-decoration-color:#000000;letter-spacing:normal;word-spacing:normal;text-transform:none;direction:ltr;block-progression:tb;writing-mode:lr-tb;baseline-shift:baseline;text-anchor:start;white-space:normal;clip-rule:nonzero;display:inline;overflow:visible;visibility:visible;opacity:1;isolation:auto;mix-blend-mode:normal;color-interpolation:sRGB;color-interpolation-filters:linearRGB;solid-color:#000000;solid-opacity:1;fill:#800000;fill-opacity:1;fill-rule:nonzero;stroke:none;stroke-width:10;stroke-linecap:round;stroke-linejoin:round;stroke-miterlimit:4;stroke-dasharray:none;stroke-dashoffset:0;stroke-opacity:1;color-rendering:auto;image-rendering:auto;shape-rendering:auto;text-rendering:auto;enable-background:accumulate"
     d="M 274.5 58 A 45.5 9 0 0 0 229 67 A 45.5 9 0 0 0 229.35156 68.023438 A 45.5 9 0 0 0 187 77 A 45.5 9 0 0 0 187.06445 77.367188 A 45.5 9 0 0 0 177 83 A 45.5 9 0 0 0 198.63281 90.648438 A 45.5 9 0 0 0 197 93 A 45.5 9 0 0 0 214.46289 100.07422 A 45.5 9 0 0 0 207 105 A 45.5 9 0 0 0 207.06445 105.36719 A 45.5 9 0 0 0 197 111 A 45.5 9 0 0 0 204.69922 115.99805 A 45.5 9 0 0 0 198.00586 119.13672 A 45.5 9 0 0 0 187 125 A 45.5 9 0 0 0 187.06445 125.36719 A 45.5 9 0 0 0 177 131 A 45.5 9 0 0 0 185.33789 136.17383 A 45.5 9 0 0 0 183.2207 138.12305 A 45.5 9 0 0 0 167 145 A 45.5 9 0 0 0 167.06445 145.36719 A 45.5 9 0 0 0 157 151 A 45.5 9 0 0 0 202.5 160 A 45.5 9 0 0 0 245.88281 153.70703 A 45.5 9 0 0 0 280 145 A 45.5 9 0 0 0 278.40625 142.64844 A 45.5 9 0 0 0 296.36523 138.52148 A 45.5 9 0 0 0 306 133 A 45.5 9 0 0 0 304.40625 130.64844 A 45.5 9 0 0 0 326 123 A 45.5 9 0 0 0 325.94727 122.70117 A 45.5 9 0 0 0 345.88281 117.70703 A 45.5 9 0 0 0 380 109 A 45.5 9 0 0 0 378.40625 106.64844 A 45.5 9 0 0 0 400 99 A 45.5 9 0 0 0 392.58008 94.080078 A 45.5 9 0 0 0 410 87 A 45.5 9 0 0 0 407.34375 83.998047 A 45.5 9 0 0 0 410 81 A 45.5 9 0 0 0 408.40625 78.648438 A 45.5 9 0 0 0 430 71 A 45.5 9 0 0 0 418.96484 65.140625 A 45.5 9 0 0 0 374.5 58 A 45.5 9 0 0 0 344.50977 60.246094 A 45.5 9 0 0 0 314.5 58 A 45.5 9 0 0 0 294.46484 58.925781 A 45.5 9 0 0 0 274.5 58 z M 105.40234 179.09375 A 5.0005 5.0005 0 0 0 100.36523 184.56641 C 110.53347 291.52631 102.99595 394.10568 76.451172 519.62109 A 5.0005 5.0005 0 0 0 81.34375 525.65625 L 113.34375 525.65625 L 273.46875 525.65625 L 305.46875 525.65625 A 5.0005 5.0005 0 0 0 307.93945 525 L 510.81641 525 A 4.1848347 4.1848347 0 0 0 515 520.81641 L 515 400.18359 A 4.1848347 4.1848347 0 0 0 510.81641 396 L 289.5332 396 C 280.72289 322.32634 279.81064 254.37718 286.44727 184.56641 A 5.0005 5.0005 0 0 0 279.4668 179.51172 C 247.36734 193.53807 219.40182 191.63162 193.40625 193.49609 C 167.41068 191.63162 139.44516 193.53807 107.3457 179.51172 A 5.0005 5.0005 0 0 0 105.40234 179.09375 z "
     id="path4271" />
</svg>
