<?xml version="1.0" encoding="UTF-8" standalone="no"?>
<!-- Created with Inkscape (http://www.inkscape.org/) -->

<svg
   xmlns:dc="http://purl.org/dc/elements/1.1/"
   xmlns:cc="http://creativecommons.org/ns#"
   xmlns:rdf="http://www.w3.org/1999/02/22-rdf-syntax-ns#"
   xmlns:svg="http://www.w3.org/2000/svg"
   xmlns="http://www.w3.org/2000/svg"
   xmlns:sodipodi="http://sodipodi.sourceforge.net/DTD/sodipodi-0.dtd"
   xmlns:inkscape="http://www.inkscape.org/namespaces/inkscape"
   version="1.0"
   width="580"
   height="580"
   id="svg2"
   sodipodi:version="0.32"
   inkscape:version="0.91 r13725"
   sodipodi:docname="youth_hostel.svg"
   inkscape:output_extension="org.inkscape.output.svg.inkscape">
  <metadata
     id="metadata2975">
    <rdf:RDF>
      <cc:Work
         rdf:about="">
        <dc:format>image/svg+xml</dc:format>
        <dc:type
           rdf:resource="http://purl.org/dc/dcmitype/StillImage" />
      </cc:Work>
    </rdf:RDF>
  </metadata>
  <sodipodi:namedview
     inkscape:window-height="1003"
     inkscape:window-width="1400"
     inkscape:pageshadow="2"
     inkscape:pageopacity="0.0"
     guidetolerance="10.0"
     gridtolerance="10.0"
     objecttolerance="10.0"
     borderopacity="1.0"
     bordercolor="#666666"
     pagecolor="#ffffff"
     id="base"
     inkscape:zoom="0.65172414"
     inkscape:cx="385.95595"
     inkscape:cy="200.90756"
     inkscape:window-x="0"
     inkscape:window-y="20"
     inkscape:current-layer="svg2"
     showgrid="false"
     inkscape:window-maximized="0" />
  <defs
     id="defs4">
    <inkscape:perspective
       sodipodi:type="inkscape:persp3d"
       inkscape:vp_x="0 : 290 : 1"
       inkscape:vp_y="0 : 1000 : 0"
       inkscape:vp_z="580 : 290 : 1"
       inkscape:persp3d-origin="290 : 193.33333 : 1"
       id="perspective2441" />
    <inkscape:perspective
       id="perspective2466"
       inkscape:persp3d-origin="372.04724 : 350.78739 : 1"
       inkscape:vp_z="744.09448 : 526.18109 : 1"
       inkscape:vp_y="0 : 1000 : 0"
       inkscape:vp_x="0 : 526.18109 : 1"
       sodipodi:type="inkscape:persp3d" />
    <inkscape:perspective
       id="perspective3333"
       inkscape:persp3d-origin="372.04724 : 350.78739 : 1"
       inkscape:vp_z="744.09448 : 526.18109 : 1"
       inkscape:vp_y="0 : 1000 : 0"
       inkscape:vp_x="0 : 526.18109 : 1"
       sodipodi:type="inkscape:persp3d" />
    <inkscape:perspective
       id="perspective3401"
       inkscape:persp3d-origin="372.04724 : 350.78739 : 1"
       inkscape:vp_z="744.09448 : 526.18109 : 1"
       inkscape:vp_y="0 : 1000 : 0"
       inkscape:vp_x="0 : 526.18109 : 1"
       sodipodi:type="inkscape:persp3d" />
    <inkscape:perspective
       id="perspective3464"
       inkscape:persp3d-origin="372.04724 : 350.78739 : 1"
       inkscape:vp_z="744.09448 : 526.18109 : 1"
       inkscape:vp_y="0 : 1000 : 0"
       inkscape:vp_x="0 : 526.18109 : 1"
       sodipodi:type="inkscape:persp3d" />
    <inkscape:perspective
       id="perspective3581"
       inkscape:persp3d-origin="225 : 150 : 1"
       inkscape:vp_z="450 : 225 : 1"
       inkscape:vp_y="0 : 1000 : 0"
       inkscape:vp_x="0 : 225 : 1"
       sodipodi:type="inkscape:persp3d" />
    <inkscape:perspective
       id="perspective4312"
       inkscape:persp3d-origin="225 : 150 : 1"
       inkscape:vp_z="450 : 225 : 1"
       inkscape:vp_y="0 : 1000 : 0"
       inkscape:vp_x="0 : 225 : 1"
       sodipodi:type="inkscape:persp3d" />
    <inkscape:perspective
       id="perspective8860"
       inkscape:persp3d-origin="372.04724 : 350.78739 : 1"
       inkscape:vp_z="744.09448 : 526.18109 : 1"
       inkscape:vp_y="0 : 1000 : 0"
       inkscape:vp_x="0 : 526.18109 : 1"
       sodipodi:type="inkscape:persp3d" />
    <inkscape:perspective
       id="perspective8887"
       inkscape:persp3d-origin="372.04724 : 350.78739 : 1"
       inkscape:vp_z="744.09448 : 526.18109 : 1"
       inkscape:vp_y="0 : 1000 : 0"
       inkscape:vp_x="0 : 526.18109 : 1"
       sodipodi:type="inkscape:persp3d" />
    <inkscape:perspective
       sodipodi:type="inkscape:persp3d"
       inkscape:vp_x="0 : 16 : 1"
       inkscape:vp_y="0 : 1000 : 0"
       inkscape:vp_z="32 : 16 : 1"
       inkscape:persp3d-origin="16 : 10.666667 : 1"
       id="perspective4904" />
    <inkscape:perspective
       sodipodi:type="inkscape:persp3d"
       inkscape:vp_x="0 : 6 : 1"
       inkscape:vp_y="0 : 1000 : 0"
       inkscape:vp_z="12 : 6 : 1"
       inkscape:persp3d-origin="6 : 4 : 1"
       id="perspective4668" />
    <inkscape:perspective
       sodipodi:type="inkscape:persp3d"
       inkscape:vp_x="0 : 526.18109 : 1"
       inkscape:vp_y="0 : 1000 : 0"
       inkscape:vp_z="744.09448 : 526.18109 : 1"
       inkscape:persp3d-origin="372.04724 : 350.78739 : 1"
       id="perspective4471" />
    <symbol
       id="symbol-university"
       viewBox="244.5 110 489 219.9">
      <path
         d="M79,43l57,119c0,0,21-96,104-96s124,106,124,106l43-133l82-17L0,17L79,43z"
         id="path4460" />
      <path
         fill="none"
         stroke="#000000"
         stroke-width="20"
         d="M94,176l-21,39"
         id="path4462" />
      <path
         d="M300,19c0,10.5-22.6,19-50.5,19S199,29.5,199,19s22.6-19,50.5-19S300,8.5,300,19z"
         id="path4464" />
      <path
         ill="none"
         stroke="#000000"
         stroke-width="20"
         d="M112,216l-16-38L64,88c0,0-9-8-4-35s16-24,16-24"
         id="path4466" />
    </symbol>
    <inkscape:perspective
       sodipodi:type="inkscape:persp3d"
       inkscape:vp_x="0 : 30 : 1"
       inkscape:vp_y="0 : 1000 : 0"
       inkscape:vp_z="60 : 30 : 1"
       inkscape:persp3d-origin="30 : 20 : 1"
       id="perspective3452" />
    <inkscape:perspective
       id="perspective9479"
       inkscape:persp3d-origin="290 : 193.33333 : 1"
       inkscape:vp_z="580 : 290 : 1"
       inkscape:vp_y="0 : 1000 : 0"
       inkscape:vp_x="0 : 290 : 1"
       sodipodi:type="inkscape:persp3d" />
  </defs>
  <path
     style="color:#000000;font-style:normal;font-variant:normal;font-weight:normal;font-stretch:normal;font-size:medium;line-height:normal;font-family:sans-serif;text-indent:0;text-align:start;text-decoration:none;text-decoration-line:none;text-decoration-style:solid;text-decoration-color:#000000;letter-spacing:normal;word-spacing:normal;text-transform:none;direction:ltr;block-progression:tb;writing-mode:lr-tb;baseline-shift:baseline;text-anchor:start;white-space:normal;clip-rule:nonzero;display:inline;overflow:visible;visibility:visible;opacity:1;isolation:auto;mix-blend-mode:normal;color-interpolation:sRGB;color-interpolation-filters:linearRGB;solid-color:#000000;solid-opacity:1;fill:#000080;fill-opacity:1;fill-rule:evenodd;stroke:none;stroke-width:4.25836277;stroke-linecap:round;stroke-linejoin:round;stroke-miterlimit:4;stroke-dasharray:none;stroke-dashoffset:0;stroke-opacity:1;color-rendering:auto;image-rendering:auto;shape-rendering:auto;text-rendering:auto;enable-background:accumulate"
     d="M 372.17383 60.671875 A 5.0005 5.0005 0 0 0 368.59961 62.181641 L 198.31055 236.95898 L 142.08789 115.86133 A 2.1293943 2.1293943 0 0 0 140.04102 114.63477 A 2.1293943 2.1293943 0 0 0 140.01953 114.63477 A 2.1293943 2.1293943 0 0 0 139.82812 114.63086 A 2.1293943 2.1293943 0 0 0 137.95898 115.86328 L 49.066406 307.62305 A 2.1293943 2.1293943 0 0 0 50.998047 310.64648 L 66.955078 310.64648 L 37.554688 364.04688 A 2.1293943 2.1293943 0 0 0 39.419922 367.20312 L 58.798828 367.20312 L 23.757812 425.1875 A 2.1293943 2.1293943 0 0 0 25.896484 428.39453 L 115.80469 414.92188 L 115.80469 510.65625 A 2.1293943 2.1293943 0 0 0 117.93359 512.78711 L 139.89062 512.78711 A 2.1293943 2.1293943 0 0 0 140.00391 512.78125 A 2.1293943 2.1293943 0 0 0 140.00586 512.78125 A 2.1293943 2.1293943 0 0 0 140.15625 512.78711 L 162.11328 512.78711 A 2.1293943 2.1293943 0 0 0 164.24414 510.65625 L 164.24414 414.91992 L 217.54297 422.89648 L 217.54297 505.61133 A 5.0005 5.0005 0 0 0 222.54297 510.61133 L 334.77148 510.61133 A 5.0005 5.0005 0 0 0 339.77148 505.61133 L 339.77148 364.27148 L 407.15625 364.27148 L 407.15625 505.61133 A 5.0005 5.0005 0 0 0 412.15625 510.61133 L 521.81836 510.61133 A 5.0005 5.0005 0 0 0 526.81836 505.61133 L 526.81836 262.64844 L 559.22852 262.64844 A 5.0005 5.0005 0 0 0 562.80859 254.1582 L 375.76172 62.181641 A 5.0005 5.0005 0 0 0 372.17383 60.671875 z M 372.18164 72.835938 L 547.37695 252.64844 L 521.81836 252.64844 A 5.0005 5.0005 0 0 0 516.81836 257.64844 L 516.81836 500.61133 L 417.15625 500.61133 L 417.15625 359.27148 A 5.0005 5.0005 0 0 0 412.15625 354.27148 L 334.77148 354.27148 A 5.0005 5.0005 0 0 0 329.77148 359.27148 L 329.77148 500.61133 L 227.54297 500.61133 L 227.54297 424.39258 L 254.28516 428.39453 A 2.1293943 2.1293943 0 0 0 256.42188 425.1875 L 227.54297 377.40039 L 227.54297 367.20312 L 240.62695 367.20312 A 2.1293943 2.1293943 0 0 0 242.49219 364.04688 L 227.54297 336.89453 L 227.54297 310.64648 L 229.18359 310.64648 A 2.1293943 2.1293943 0 0 0 231.11523 307.62109 L 227.54297 299.92578 L 227.54297 257.64844 A 5.0005 5.0005 0 0 0 222.54297 252.64844 L 205.59375 252.64844 L 202.81641 246.66602 L 372.18164 72.835938 z M 210.23633 262.64844 L 217.54297 262.64844 L 217.54297 278.38672 L 210.23633 262.64844 z M 213.0918 310.64648 L 217.54297 310.64648 L 217.54297 318.73047 L 213.0918 310.64648 z "
     id="path4173" />
  <g
     id="layer3"
     inkscape:label="Layout"
     style="stroke:#757575;stroke-opacity:1;display:none"
     transform="matrix(48.14969,0,0,48.14969,-1210.2219,-51.870914)">
    <rect
       style="fill:none;stroke:#757575;stroke-width:0.1;stroke-miterlimit:4;stroke-dasharray:none;stroke-opacity:1;display:inline"
       id="rect4134"
       width="10"
       height="10"
       x="1"
       y="1" />
    <rect
       style="fill:none;stroke:#757575;stroke-width:0.1;stroke-miterlimit:4;stroke-dasharray:none;stroke-opacity:1;display:inline"
       id="rect4136"
       width="8"
       height="8"
       x="2"
       y="2" />
  </g>
</svg>
