<?xml version="1.0" encoding="UTF-8" standalone="no"?>
<!-- Created with Inkscape (http://www.inkscape.org/) -->

<svg
   xmlns:dc="http://purl.org/dc/elements/1.1/"
   xmlns:cc="http://creativecommons.org/ns#"
   xmlns:rdf="http://www.w3.org/1999/02/22-rdf-syntax-ns#"
   xmlns:svg="http://www.w3.org/2000/svg"
   xmlns="http://www.w3.org/2000/svg"
   xmlns:sodipodi="http://sodipodi.sourceforge.net/DTD/sodipodi-0.dtd"
   xmlns:inkscape="http://www.inkscape.org/namespaces/inkscape"
   version="1.0"
   width="580"
   height="580"
   id="svg2"
   sodipodi:version="0.32"
   inkscape:version="0.91 r13725"
   sodipodi:docname="bed_and_breakfast.svg"
   inkscape:output_extension="org.inkscape.output.svg.inkscape">
  <metadata
     id="metadata2975">
    <rdf:RDF>
      <cc:Work
         rdf:about="">
        <dc:format>image/svg+xml</dc:format>
        <dc:type
           rdf:resource="http://purl.org/dc/dcmitype/StillImage" />
      </cc:Work>
    </rdf:RDF>
  </metadata>
  <sodipodi:namedview
     inkscape:window-height="1003"
     inkscape:window-width="1400"
     inkscape:pageshadow="2"
     inkscape:pageopacity="0.0"
     guidetolerance="10.0"
     gridtolerance="10.0"
     objecttolerance="10.0"
     borderopacity="1.0"
     bordercolor="#666666"
     pagecolor="#ffffff"
     id="base"
     inkscape:zoom="0.65172414"
     inkscape:cx="388.71268"
     inkscape:cy="288.42907"
     inkscape:window-x="0"
     inkscape:window-y="20"
     inkscape:current-layer="svg2"
     showgrid="false"
     inkscape:window-maximized="0" />
  <defs
     id="defs4">
    <inkscape:perspective
       sodipodi:type="inkscape:persp3d"
       inkscape:vp_x="0 : 290 : 1"
       inkscape:vp_y="0 : 1000 : 0"
       inkscape:vp_z="580 : 290 : 1"
       inkscape:persp3d-origin="290 : 193.33333 : 1"
       id="perspective2441" />
    <inkscape:perspective
       id="perspective2466"
       inkscape:persp3d-origin="372.04724 : 350.78739 : 1"
       inkscape:vp_z="744.09448 : 526.18109 : 1"
       inkscape:vp_y="0 : 1000 : 0"
       inkscape:vp_x="0 : 526.18109 : 1"
       sodipodi:type="inkscape:persp3d" />
    <inkscape:perspective
       id="perspective3333"
       inkscape:persp3d-origin="372.04724 : 350.78739 : 1"
       inkscape:vp_z="744.09448 : 526.18109 : 1"
       inkscape:vp_y="0 : 1000 : 0"
       inkscape:vp_x="0 : 526.18109 : 1"
       sodipodi:type="inkscape:persp3d" />
    <inkscape:perspective
       id="perspective3401"
       inkscape:persp3d-origin="372.04724 : 350.78739 : 1"
       inkscape:vp_z="744.09448 : 526.18109 : 1"
       inkscape:vp_y="0 : 1000 : 0"
       inkscape:vp_x="0 : 526.18109 : 1"
       sodipodi:type="inkscape:persp3d" />
    <inkscape:perspective
       id="perspective3464"
       inkscape:persp3d-origin="372.04724 : 350.78739 : 1"
       inkscape:vp_z="744.09448 : 526.18109 : 1"
       inkscape:vp_y="0 : 1000 : 0"
       inkscape:vp_x="0 : 526.18109 : 1"
       sodipodi:type="inkscape:persp3d" />
    <inkscape:perspective
       id="perspective3581"
       inkscape:persp3d-origin="225 : 150 : 1"
       inkscape:vp_z="450 : 225 : 1"
       inkscape:vp_y="0 : 1000 : 0"
       inkscape:vp_x="0 : 225 : 1"
       sodipodi:type="inkscape:persp3d" />
    <inkscape:perspective
       id="perspective4312"
       inkscape:persp3d-origin="225 : 150 : 1"
       inkscape:vp_z="450 : 225 : 1"
       inkscape:vp_y="0 : 1000 : 0"
       inkscape:vp_x="0 : 225 : 1"
       sodipodi:type="inkscape:persp3d" />
    <inkscape:perspective
       id="perspective8860"
       inkscape:persp3d-origin="372.04724 : 350.78739 : 1"
       inkscape:vp_z="744.09448 : 526.18109 : 1"
       inkscape:vp_y="0 : 1000 : 0"
       inkscape:vp_x="0 : 526.18109 : 1"
       sodipodi:type="inkscape:persp3d" />
    <inkscape:perspective
       id="perspective8887"
       inkscape:persp3d-origin="372.04724 : 350.78739 : 1"
       inkscape:vp_z="744.09448 : 526.18109 : 1"
       inkscape:vp_y="0 : 1000 : 0"
       inkscape:vp_x="0 : 526.18109 : 1"
       sodipodi:type="inkscape:persp3d" />
    <inkscape:perspective
       sodipodi:type="inkscape:persp3d"
       inkscape:vp_x="0 : 16 : 1"
       inkscape:vp_y="0 : 1000 : 0"
       inkscape:vp_z="32 : 16 : 1"
       inkscape:persp3d-origin="16 : 10.666667 : 1"
       id="perspective4904" />
    <inkscape:perspective
       sodipodi:type="inkscape:persp3d"
       inkscape:vp_x="0 : 6 : 1"
       inkscape:vp_y="0 : 1000 : 0"
       inkscape:vp_z="12 : 6 : 1"
       inkscape:persp3d-origin="6 : 4 : 1"
       id="perspective4668" />
    <inkscape:perspective
       sodipodi:type="inkscape:persp3d"
       inkscape:vp_x="0 : 526.18109 : 1"
       inkscape:vp_y="0 : 1000 : 0"
       inkscape:vp_z="744.09448 : 526.18109 : 1"
       inkscape:persp3d-origin="372.04724 : 350.78739 : 1"
       id="perspective4471" />
    <symbol
       id="symbol-university"
       viewBox="244.5 110 489 219.9">
      <path
         d="M79,43l57,119c0,0,21-96,104-96s124,106,124,106l43-133l82-17L0,17L79,43z"
         id="path4460" />
      <path
         fill="none"
         stroke="#000000"
         stroke-width="20"
         d="M94,176l-21,39"
         id="path4462" />
      <path
         d="M300,19c0,10.5-22.6,19-50.5,19S199,29.5,199,19s22.6-19,50.5-19S300,8.5,300,19z"
         id="path4464" />
      <path
         ill="none"
         stroke="#000000"
         stroke-width="20"
         d="M112,216l-16-38L64,88c0,0-9-8-4-35s16-24,16-24"
         id="path4466" />
    </symbol>
    <inkscape:perspective
       sodipodi:type="inkscape:persp3d"
       inkscape:vp_x="0 : 30 : 1"
       inkscape:vp_y="0 : 1000 : 0"
       inkscape:vp_z="60 : 30 : 1"
       inkscape:persp3d-origin="30 : 20 : 1"
       id="perspective3452" />
    <inkscape:perspective
       id="perspective9479"
       inkscape:persp3d-origin="290 : 193.33333 : 1"
       inkscape:vp_z="580 : 290 : 1"
       inkscape:vp_y="0 : 1000 : 0"
       inkscape:vp_x="0 : 290 : 1"
       sodipodi:type="inkscape:persp3d" />
  </defs>
  <g
     id="layer3"
     inkscape:label="Layout"
     style="stroke:#757575;stroke-opacity:1;display:none"
     transform="matrix(48.14969,0,0,48.14969,-1210.2219,-51.870914)">
    <rect
       style="fill:none;stroke:#757575;stroke-width:0.1;stroke-miterlimit:4;stroke-dasharray:none;stroke-opacity:1;display:inline"
       id="rect4134"
       width="10"
       height="10"
       x="1"
       y="1" />
    <rect
       style="fill:none;stroke:#757575;stroke-width:0.1;stroke-miterlimit:4;stroke-dasharray:none;stroke-opacity:1;display:inline"
       id="rect4136"
       width="8"
       height="8"
       x="2"
       y="2" />
  </g>
  <path
     style="color:#000000;font-style:normal;font-variant:normal;font-weight:normal;font-stretch:normal;font-size:12px;line-height:normal;font-family:sans-serif;text-indent:0;text-align:start;text-decoration:none;text-decoration-line:none;text-decoration-style:solid;text-decoration-color:#000000;letter-spacing:normal;word-spacing:normal;text-transform:none;direction:ltr;block-progression:tb;writing-mode:lr-tb;baseline-shift:baseline;text-anchor:start;white-space:normal;clip-rule:nonzero;display:inline;overflow:visible;visibility:visible;opacity:1;isolation:auto;mix-blend-mode:normal;color-interpolation:sRGB;color-interpolation-filters:linearRGB;solid-color:#000000;solid-opacity:1;fill:#000080;fill-opacity:1;fill-rule:evenodd;stroke:none;stroke-width:12.80533695;stroke-linecap:round;stroke-linejoin:round;stroke-miterlimit:4;stroke-dasharray:none;stroke-dashoffset:0;stroke-opacity:1;color-rendering:auto;image-rendering:auto;shape-rendering:auto;text-rendering:auto;enable-background:accumulate"
     d="M 289.63867 23.257812 A 6.4033087 6.4033087 0 0 0 285.24805 24.859375 L 27.091797 252.94336 A 6.4033087 6.4033087 0 0 0 31.330078 264.14453 L 76.558594 264.14453 L 76.558594 552.3457 A 6.4033087 6.4033087 0 0 0 82.962891 558.74805 L 237.85547 558.74805 A 6.4033087 6.4033087 0 0 0 244.25977 552.3457 L 244.25977 384.88281 L 338.25586 384.88281 L 338.25781 552.3457 A 6.4033087 6.4033087 0 0 0 344.66016 558.74805 L 496.01367 558.74805 A 6.4033087 6.4033087 0 0 0 502.41602 552.3457 L 502.41602 264.14453 L 547.64453 264.14453 A 6.4033087 6.4033087 0 0 0 551.88477 252.94336 L 293.72656 24.859375 A 6.4033087 6.4033087 0 0 0 289.63867 23.257812 z M 289.48828 38.201172 L 530.72852 251.33984 L 496.01367 251.33984 A 6.4033087 6.4033087 0 0 0 489.61133 257.74219 L 489.61133 545.94336 L 351.0625 545.94336 L 351.0625 378.48047 A 6.4033087 6.4033087 0 0 0 344.66016 372.07812 L 237.85547 372.07812 A 6.4033087 6.4033087 0 0 0 231.45312 378.48047 L 231.45312 545.94336 L 89.365234 545.94336 L 89.365234 257.74219 A 6.4033087 6.4033087 0 0 0 82.962891 251.33984 L 48.248047 251.33984 L 289.48828 38.201172 z M 286.85156 221.2793 C 275.50776 221.27941 267.04684 223.64658 261.46875 228.38086 C 255.8906 233.11532 253.10153 239.13875 253.10156 246.45117 C 253.10153 249.91999 253.80466 253.33015 255.21094 256.68164 C 256.61716 260.03327 259.19527 263.98249 262.94531 268.5293 C 253.99215 272.13873 247.54686 276.55669 243.60938 281.7832 C 239.67186 287.0098 237.70311 292.55276 237.70312 298.41211 C 237.70311 306.56837 241.05467 313.50587 247.75781 319.22461 C 254.4609 324.94336 264.67964 327.80273 278.41406 327.80273 C 287.17962 327.80273 295.00775 326.77148 301.89844 324.70898 C 306.86711 323.20898 311.83586 320.81836 316.80469 317.53711 C 319.19522 318.94336 321.90225 320.63086 324.92578 322.59961 C 327.94912 324.56836 330.86709 326.30273 333.67969 327.80273 L 349.07812 310.08398 C 347.0155 308.91212 345.328 307.90432 344.01562 307.06055 L 333.25781 299.67773 C 335.22645 296.30276 336.74989 293.37308 337.82812 290.88867 C 338.90614 288.40433 340.03114 285.09965 341.20312 280.97461 L 318.84375 275.98242 C 317.81241 279.21684 316.57023 282.28715 315.11719 285.19336 C 309.67961 280.8809 304.45305 276.21684 299.4375 271.20117 C 305.4843 267.21685 309.67961 264.21685 312.02344 262.20117 C 314.3671 260.18561 316.37101 257.56061 318.03516 254.32617 C 319.69913 251.09187 320.53116 247.71687 320.53125 244.20117 C 320.53116 237.92001 317.81241 232.5294 312.375 228.0293 C 306.93742 223.52941 298.42961 221.27941 286.85156 221.2793 z M 125.625 223.03711 L 125.625 326.11523 L 180.60938 326.11523 C 182.95306 326.11523 187.71086 325.64648 194.88281 324.70898 C 200.27335 324.00586 204.30459 322.88086 206.97656 321.33398 C 211.28896 318.84961 214.6874 315.47462 217.17188 311.20898 C 219.65615 306.94337 220.89834 302.13869 220.89844 296.79492 C 220.89834 290.23245 219.15224 284.78325 215.66016 280.44727 C 212.16788 276.11138 206.71866 273.05278 199.3125 271.27148 C 204.18741 269.58404 207.89053 267.28716 210.42188 264.38086 C 214.21865 260.02155 216.11709 254.79499 216.11719 248.70117 C 216.11709 241.43563 213.45694 235.34188 208.13672 230.41992 C 202.81632 225.49814 195.18742 223.03721 185.25 223.03711 L 125.625 223.03711 z M 365.53125 223.03711 L 365.53125 326.11523 L 420.51562 326.11523 C 422.85931 326.11523 427.61711 325.64648 434.78906 324.70898 C 440.1796 324.00586 444.21084 322.88086 446.88281 321.33398 C 451.19521 318.84961 454.59364 315.47462 457.07812 311.20898 C 459.56239 306.94337 460.80459 302.13869 460.80469 296.79492 C 460.80459 290.23245 459.05849 284.78325 455.56641 280.44727 C 452.07413 276.11138 446.62491 273.05278 439.21875 271.27148 C 444.09366 269.58404 447.79678 267.28716 450.32812 264.38086 C 454.12489 260.02155 456.02334 254.79499 456.02344 248.70117 C 456.02334 241.43563 453.36319 235.34188 448.04297 230.41992 C 442.72257 225.49814 435.09367 223.03721 425.15625 223.03711 L 365.53125 223.03711 z M 288.04688 236.74805 C 290.99993 236.74814 293.32024 237.50985 295.00781 239.0332 C 296.69524 240.55672 297.53899 242.42001 297.53906 244.62305 C 297.53899 246.73251 296.53117 248.97078 294.51562 251.33789 C 292.49993 253.70515 289.64057 255.89655 285.9375 257.91211 C 280.7812 252.38093 278.20307 248.16218 278.20312 245.25586 C 278.20307 242.95906 279.11713 240.96689 280.94531 239.2793 C 282.77338 237.59189 285.14056 236.74814 288.04688 236.74805 z M 157.75781 243.91992 L 171.82031 243.91992 C 176.64837 243.92 180.03509 244.76375 181.98047 246.45117 C 183.92572 248.13875 184.89837 250.48249 184.89844 253.48242 C 184.89837 256.71686 183.92572 259.18952 181.98047 260.90039 C 180.03509 262.61139 176.57807 263.46687 171.60938 263.4668 L 157.75781 263.4668 L 157.75781 243.91992 z M 397.66406 243.91992 L 411.72656 243.91992 C 416.55462 243.92 419.94134 244.76375 421.88672 246.45117 C 423.83197 248.13875 424.80462 250.48249 424.80469 253.48242 C 424.80462 256.71686 423.83197 259.18952 421.88672 260.90039 C 419.94134 262.61139 416.48431 263.46687 411.51562 263.4668 L 397.66406 263.4668 L 397.66406 243.91992 z M 275.74219 282.94336 C 285.25776 291.94339 293.06244 298.78713 299.15625 303.47461 C 292.78119 307.459 287.03901 309.45118 281.92969 309.45117 C 277.19527 309.45118 273.35152 308.11525 270.39844 305.44336 C 267.44528 302.7715 265.96871 299.72463 265.96875 296.30273 C 265.96871 294.09964 266.61324 292.0137 267.90234 290.04492 C 269.19136 288.07621 271.80465 285.70902 275.74219 282.94336 z M 157.75781 283.08398 L 173.92969 283.08398 C 179.50775 283.08402 183.41009 284.00981 185.63672 285.86133 C 187.86321 287.71293 188.97648 290.16214 188.97656 293.20898 C 188.97648 296.49026 187.85148 299.10355 185.60156 301.04883 C 183.35149 302.99417 179.48431 303.96682 174 303.9668 L 157.75781 303.9668 L 157.75781 283.08398 z M 397.66406 283.08398 L 413.83594 283.08398 C 419.414 283.08402 423.31634 284.00981 425.54297 285.86133 C 427.76946 287.71293 428.88273 290.16214 428.88281 293.20898 C 428.88273 296.49026 427.75773 299.10355 425.50781 301.04883 C 423.25774 302.99417 419.39056 303.96682 413.90625 303.9668 L 397.66406 303.9668 L 397.66406 283.08398 z "
     id="path9518" />
</svg>
