<?xml version="1.0" encoding="UTF-8" standalone="no"?>
<!-- Created with Inkscape (http://www.inkscape.org/) -->

<svg
   xmlns:dc="http://purl.org/dc/elements/1.1/"
   xmlns:cc="http://creativecommons.org/ns#"
   xmlns:rdf="http://www.w3.org/1999/02/22-rdf-syntax-ns#"
   xmlns:svg="http://www.w3.org/2000/svg"
   xmlns="http://www.w3.org/2000/svg"
   xmlns:sodipodi="http://sodipodi.sourceforge.net/DTD/sodipodi-0.dtd"
   xmlns:inkscape="http://www.inkscape.org/namespaces/inkscape"
   version="1.0"
   width="580"
   height="580"
   id="svg2"
   sodipodi:version="0.32"
   inkscape:version="0.91 r13725"
   sodipodi:docname="motel.svg"
   inkscape:output_extension="org.inkscape.output.svg.inkscape">
  <metadata
     id="metadata2975">
    <rdf:RDF>
      <cc:Work
         rdf:about="">
        <dc:format>image/svg+xml</dc:format>
        <dc:type
           rdf:resource="http://purl.org/dc/dcmitype/StillImage" />
        <cc:license
           rdf:resource="http://web.resource.org/cc/PublicDomain" />
        <dc:language>en</dc:language>
        <dc:title />
      </cc:Work>
    </rdf:RDF>
  </metadata>
  <sodipodi:namedview
     inkscape:window-height="972"
     inkscape:window-width="1280"
     inkscape:pageshadow="2"
     inkscape:pageopacity="0.0"
     guidetolerance="10.0"
     gridtolerance="10.0"
     objecttolerance="10.0"
     borderopacity="1.0"
     bordercolor="#666666"
     pagecolor="#ffffff"
     id="base"
     inkscape:zoom="0.32586207"
     inkscape:cx="-169.78896"
     inkscape:cy="83.46966"
     inkscape:window-x="-8"
     inkscape:window-y="-8"
     inkscape:current-layer="svg2"
     showgrid="false"
     inkscape:window-maximized="1" />
  <defs
     id="defs4">
    <inkscape:perspective
       sodipodi:type="inkscape:persp3d"
       inkscape:vp_x="0 : 290 : 1"
       inkscape:vp_y="0 : 1000 : 0"
       inkscape:vp_z="580 : 290 : 1"
       inkscape:persp3d-origin="290 : 193.33333 : 1"
       id="perspective2441" />
    <inkscape:perspective
       id="perspective3452"
       inkscape:persp3d-origin="30 : 20 : 1"
       inkscape:vp_z="60 : 30 : 1"
       inkscape:vp_y="0 : 1000 : 0"
       inkscape:vp_x="0 : 30 : 1"
       sodipodi:type="inkscape:persp3d" />
    <symbol
       viewBox="244.5 110 489 219.9"
       id="symbol-university">
      <path
         id="path4460"
         d="M79,43l57,119c0,0,21-96,104-96s124,106,124,106l43-133l82-17L0,17L79,43z" />
      <path
         id="path4462"
         d="M94,176l-21,39"
         stroke-width="20"
         stroke="#000000"
         fill="none" />
      <path
         id="path4464"
         d="M300,19c0,10.5-22.6,19-50.5,19S199,29.5,199,19s22.6-19,50.5-19S300,8.5,300,19z" />
      <path
         id="path4466"
         d="M112,216l-16-38L64,88c0,0-9-8-4-35s16-24,16-24"
         stroke-width="20"
         stroke="#000000"
         ill="none" />
    </symbol>
    <inkscape:perspective
       id="perspective4471"
       inkscape:persp3d-origin="372.04724 : 350.78739 : 1"
       inkscape:vp_z="744.09448 : 526.18109 : 1"
       inkscape:vp_y="0 : 1000 : 0"
       inkscape:vp_x="0 : 526.18109 : 1"
       sodipodi:type="inkscape:persp3d" />
    <inkscape:perspective
       id="perspective4668"
       inkscape:persp3d-origin="6 : 4 : 1"
       inkscape:vp_z="12 : 6 : 1"
       inkscape:vp_y="0 : 1000 : 0"
       inkscape:vp_x="0 : 6 : 1"
       sodipodi:type="inkscape:persp3d" />
    <inkscape:perspective
       id="perspective4904"
       inkscape:persp3d-origin="16 : 10.666667 : 1"
       inkscape:vp_z="32 : 16 : 1"
       inkscape:vp_y="0 : 1000 : 0"
       inkscape:vp_x="0 : 16 : 1"
       sodipodi:type="inkscape:persp3d" />
  </defs>
  <g
     id="layer3"
     inkscape:label="Layout"
     style="display:none;stroke:#757575;stroke-opacity:1"
     transform="matrix(48.14969,0,0,48.14969,-536.27327,-33.306752)">
    <rect
       style="fill:none;stroke:#757575;stroke-width:0.10000000000000001;stroke-miterlimit:4;stroke-dasharray:none;stroke-opacity:1;display:inline"
       id="rect4134"
       width="10"
       height="10"
       x="1"
       y="1" />
    <rect
       style="fill:none;stroke:#757575;stroke-width:0.10000000000000001;stroke-miterlimit:4;stroke-dasharray:none;stroke-opacity:1;display:inline"
       id="rect4136"
       width="8"
       height="8"
       x="2"
       y="2" />
  </g>
  <path
     style="color:#000000;font-style:normal;font-variant:normal;font-weight:normal;font-stretch:normal;font-size:medium;line-height:normal;font-family:sans-serif;text-indent:0;text-align:start;text-decoration:none;text-decoration-line:none;text-decoration-style:solid;text-decoration-color:#000000;letter-spacing:normal;word-spacing:normal;text-transform:none;direction:ltr;block-progression:tb;writing-mode:lr-tb;baseline-shift:baseline;text-anchor:start;white-space:normal;clip-rule:nonzero;display:inline;overflow:visible;visibility:visible;opacity:1;isolation:auto;mix-blend-mode:normal;color-interpolation:sRGB;color-interpolation-filters:linearRGB;solid-color:#000000;solid-opacity:1;fill:#000080;fill-opacity:1;fill-rule:evenodd;stroke:none;stroke-width:27.75029945;stroke-linecap:round;stroke-linejoin:miter;stroke-miterlimit:4;stroke-dasharray:none;stroke-dashoffset:0;stroke-opacity:1;color-rendering:auto;image-rendering:auto;shape-rendering:auto;text-rendering:auto;enable-background:accumulate"
     d="M 190.94336 41.042969 C 166.19732 41.04297 143.39649 59.751531 143.39648 85.492188 C 143.39648 111.23285 166.19731 129.9414 190.94336 129.94141 C 215.68941 129.9414 238.49024 111.23285 238.49023 85.492188 C 238.49023 59.751531 215.6894 41.04297 190.94336 41.042969 z M 102.33594 66.869141 A 13.876537 13.876537 0 0 0 88.490234 80.763672 L 86.013672 274.02344 A 13.876537 13.876537 0 1 0 113.76172 274.37891 L 114.50586 216.28711 L 466.04102 218.63281 L 465.10156 266.49609 A 13.876537 13.876537 0 1 0 492.8457 267.04102 L 495.32422 140.67773 A 13.876537 13.876537 0 0 0 481.51758 126.33398 A 13.876537 13.876537 0 0 0 467.58008 140.13477 L 466.58398 190.88477 L 114.86133 188.54102 L 116.23828 81.119141 A 13.876537 13.876537 0 0 0 102.33594 66.869141 z M 263.41797 115.77734 C 245.2457 115.77734 230.11719 130.90585 230.11719 149.07812 C 230.11719 167.25041 245.24569 182.37891 263.41797 182.37891 L 424.46875 182.37891 C 442.64103 182.37891 457.76758 167.25041 457.76758 149.07812 C 457.76758 130.90584 442.64102 115.77734 424.46875 115.77734 L 263.41797 115.77734 z M 138.91016 145.11328 C 129.74758 145.11328 121.93945 152.92331 121.93945 162.08594 C 121.93945 171.24856 129.74758 179.05859 138.91016 179.05859 L 208.28711 179.05859 C 217.44968 179.05859 225.25781 171.24851 225.25781 162.08594 C 225.25781 152.92337 217.44968 145.11328 208.28711 145.11328 L 138.91016 145.11328 z M 21.699219 326.96484 L 21.699219 346.96484 L 558.76367 346.96484 L 558.76367 326.96484 L 21.699219 326.96484 z M 37.173828 419.23047 L 37.173828 438.69922 L 76.107422 438.69922 L 76.107422 419.23047 L 37.173828 419.23047 z M 115.04102 419.23047 L 115.04102 438.69922 L 153.97656 438.69922 L 153.97656 419.23047 L 115.04102 419.23047 z M 192.91016 419.23047 L 192.91016 438.69922 L 231.84375 438.69922 L 231.84375 419.23047 L 192.91016 419.23047 z M 270.77734 419.23047 L 270.77734 438.69922 L 309.71094 438.69922 L 309.71094 419.23047 L 270.77734 419.23047 z M 348.64648 419.23047 L 348.64648 438.69922 L 387.58008 438.69922 L 387.58008 419.23047 L 348.64648 419.23047 z M 426.51367 419.23047 L 426.51367 438.69922 L 465.44727 438.69922 L 465.44727 419.23047 L 426.51367 419.23047 z M 504.38086 419.23047 L 504.38086 438.69922 L 543.31641 438.69922 L 543.31641 419.23047 L 504.38086 419.23047 z M 21.699219 514.96484 L 21.699219 534.96484 L 558.76367 534.96484 L 558.76367 514.96484 L 21.699219 514.96484 z "
     id="path2157" />
</svg>
