<?xml version="1.0" encoding="UTF-8" standalone="no"?>
<!-- Created with Inkscape (http://www.inkscape.org/) -->

<svg
   xmlns:dc="http://purl.org/dc/elements/1.1/"
   xmlns:cc="http://creativecommons.org/ns#"
   xmlns:rdf="http://www.w3.org/1999/02/22-rdf-syntax-ns#"
   xmlns:svg="http://www.w3.org/2000/svg"
   xmlns="http://www.w3.org/2000/svg"
   xmlns:sodipodi="http://sodipodi.sourceforge.net/DTD/sodipodi-0.dtd"
   xmlns:inkscape="http://www.inkscape.org/namespaces/inkscape"
   version="1.1"
   width="24"
   height="24"
   id="svg4460"
   inkscape:version="0.91 r13725"
   sodipodi:docname="copypony.svg">
  <sodipodi:namedview
     pagecolor="#ffffff"
     bordercolor="#666666"
     borderopacity="1"
     objecttolerance="10"
     gridtolerance="10"
     guidetolerance="10"
     inkscape:pageopacity="0"
     inkscape:pageshadow="2"
     inkscape:window-width="1280"
     inkscape:window-height="972"
     id="namedview11"
     showgrid="false"
     inkscape:zoom="13.906433"
     inkscape:cx="8.4736957"
     inkscape:cy="8.0104006"
     inkscape:window-x="-8"
     inkscape:window-y="-8"
     inkscape:window-maximized="1"
     inkscape:current-layer="svg4460" />
  <defs
     id="defs4462" />
  <metadata
     id="metadata4465">
    <rdf:RDF>
      <cc:Work
         rdf:about="">
        <dc:format>image/svg+xml</dc:format>
        <dc:type
           rdf:resource="http://purl.org/dc/dcmitype/StillImage" />
        <dc:title />
      </cc:Work>
    </rdf:RDF>
  </metadata>
  <path
     style="color:#000000;font-style:normal;font-variant:normal;font-weight:normal;font-stretch:normal;font-size:medium;line-height:normal;font-family:sans-serif;text-indent:0;text-align:start;text-decoration:none;text-decoration-line:none;text-decoration-style:solid;text-decoration-color:#000000;letter-spacing:normal;word-spacing:normal;text-transform:none;direction:ltr;block-progression:tb;writing-mode:lr-tb;baseline-shift:baseline;text-anchor:start;white-space:normal;clip-rule:nonzero;display:inline;overflow:visible;visibility:visible;opacity:1;isolation:auto;mix-blend-mode:normal;color-interpolation:sRGB;color-interpolation-filters:linearRGB;solid-color:#000000;solid-opacity:1;fill:#000000;fill-opacity:1;fill-rule:evenodd;stroke:none;stroke-width:2;stroke-linecap:butt;stroke-linejoin:miter;stroke-miterlimit:4;stroke-dasharray:none;stroke-dashoffset:0;stroke-opacity:1;color-rendering:auto;image-rendering:auto;shape-rendering:auto;text-rendering:auto;enable-background:accumulate"
     d="M 15.873047 0.017578125 C 14.258647 0.017578125 12.933421 1.3031965 12.851562 2.8984375 L 7.7578125 4.53125 C 7.2005555 3.832576 6.3529244 3.3730469 5.3964844 3.3730469 C 3.7300086 3.3730469 2.3613281 4.739774 2.3613281 6.40625 C 2.3613281 7.462061 2.9118484 8.3950461 3.7382812 8.9394531 L 2.6347656 12.974609 C 1.1671783 13.183658 0.0234375 14.444525 0.0234375 15.966797 C 0.0234375 17.633274 1.3901644 19 3.0566406 19 C 3.8428639 19 4.5564583 18.687783 5.0976562 18.191406 L 10.121094 20.679688 C 10.112919 20.769801 10.09375 20.857093 10.09375 20.949219 C 10.09375 22.615695 11.460477 23.982422 13.126953 23.982422 C 14.575827 23.982422 15.795342 22.948983 16.089844 21.583984 L 16.845703 21.943359 L 17.275391 21.039062 L 16.121094 20.490234 C 15.987153 19.627881 15.487418 18.881261 14.785156 18.417969 L 16.257812 8.2207031 L 17.462891 7.8574219 L 17.173828 6.9003906 L 16.416016 7.1289062 L 16.580078 5.9902344 C 17.906946 5.6672974 18.90625 4.4724293 18.90625 3.0507812 C 18.90625 1.3843052 17.539523 0.017578125 15.873047 0.017578125 z M 15.873047 1.5527344 C 16.709147 1.5527344 17.367188 2.2146812 17.367188 3.0507812 C 17.367188 3.8868824 16.709147 4.5488281 15.873047 4.5488281 C 15.036946 4.5488281 14.375 3.8868824 14.375 3.0507812 C 14.375 2.2146812 15.036946 1.5527344 15.873047 1.5527344 z M 13.421875 4.8183594 C 13.721656 5.2310864 14.125106 5.5571109 14.587891 5.7792969 L 12.832031 17.947266 C 12.096903 18.021145 11.433165 18.347916 10.945312 18.855469 L 6.0449219 16.429688 C 6.0686779 16.27779 6.0917969 16.125012 6.0917969 15.966797 C 6.0917969 14.864493 5.4873582 13.90289 4.5996094 13.371094 L 5.6835938 9.4121094 C 7.2119278 9.2642114 8.4225454 7.9798436 8.4277344 6.4160156 L 13.421875 4.8183594 z M 5.3964844 4.9101562 C 6.2325854 4.9101562 6.8925781 5.57015 6.8925781 6.40625 C 6.8925781 7.24235 6.2325854 7.9042969 5.3964844 7.9042969 C 4.5603844 7.9042969 3.8984375 7.24235 3.8984375 6.40625 C 3.8984375 5.57015 4.5603844 4.9101562 5.3964844 4.9101562 z M 23.332031 5.0410156 L 22.917969 5.1660156 L 23.001953 5.4453125 L 22.982422 5.4414062 L 22.738281 6.9882812 L 23.724609 7.1445312 L 23.970703 5.5976562 L 23.332031 5.0410156 z M 21.003906 5.7441406 L 19.087891 6.3222656 L 19.376953 7.2792969 L 21.292969 6.7011719 L 21.003906 5.7441406 z M 13.345703 8.0566406 L 12.617188 8.2753906 L 12.277344 8.6347656 L 11.978516 9.8378906 L 12.949219 10.080078 L 13.179688 9.1523438 L 13.634766 9.0136719 L 13.345703 8.0566406 z M 22.423828 8.9648438 L 22.111328 10.939453 L 23.099609 11.095703 L 23.412109 9.1210938 L 22.423828 8.9648438 z M 11.496094 11.779297 L 11.015625 13.720703 L 11.986328 13.960938 L 12.466797 12.019531 L 11.496094 11.779297 z M 21.798828 12.914062 L 21.484375 14.890625 L 22.472656 15.046875 L 22.785156 13.070312 L 21.798828 12.914062 z M 3.0566406 14.46875 C 3.892741 14.46875 4.5546875 15.130697 4.5546875 15.966797 C 4.5546875 16.802898 3.892741 17.462891 3.0566406 17.462891 C 2.2205402 17.462891 1.5605469 16.802898 1.5605469 15.966797 C 1.5605469 15.130697 2.2205402 14.46875 3.0566406 14.46875 z M 10.533203 15.662109 L 10.050781 17.603516 L 11.021484 17.84375 L 11.503906 15.902344 L 10.533203 15.662109 z M 21.171875 16.865234 L 20.859375 18.839844 L 21.845703 18.998047 L 22.160156 17.021484 L 21.171875 16.865234 z M 13.126953 19.451172 C 13.963053 19.451172 14.625 20.113119 14.625 20.949219 C 14.625 21.78532 13.963053 22.447266 13.126953 22.447266 C 12.290852 22.447266 11.628906 21.78532 11.628906 20.949219 C 11.628906 20.113119 12.290852 19.451172 13.126953 19.451172 z M 20.544922 20.816406 L 20.283203 22.470703 L 19.080078 21.898438 L 18.650391 22.800781 L 20.457031 23.660156 L 20.826172 22.884766 L 21.220703 22.947266 L 21.533203 20.972656 L 20.544922 20.816406 z "
     id="path4166" />
</svg>
