<?xml version="1.0" encoding="UTF-8" standalone="no"?>
<!-- Created with Inkscape (http://www.inkscape.org/) -->

<svg
   xmlns:dc="http://purl.org/dc/elements/1.1/"
   xmlns:cc="http://creativecommons.org/ns#"
   xmlns:rdf="http://www.w3.org/1999/02/22-rdf-syntax-ns#"
   xmlns:svg="http://www.w3.org/2000/svg"
   xmlns="http://www.w3.org/2000/svg"
   xmlns:sodipodi="http://sodipodi.sourceforge.net/DTD/sodipodi-0.dtd"
   xmlns:inkscape="http://www.inkscape.org/namespaces/inkscape"
   version="1.1"
   width="24"
   height="24"
   id="svg4460"
   inkscape:version="0.91 r13725"
   sodipodi:docname="drawlines.svg">
  <sodipodi:namedview
     pagecolor="#ffffff"
     bordercolor="#666666"
     borderopacity="1"
     objecttolerance="10"
     gridtolerance="10"
     guidetolerance="10"
     inkscape:pageopacity="0"
     inkscape:pageshadow="2"
     inkscape:window-width="1280"
     inkscape:window-height="972"
     id="namedview11"
     showgrid="false"
     inkscape:zoom="9.8333333"
     inkscape:cx="-2.4406782"
     inkscape:cy="15.355932"
     inkscape:window-x="-8"
     inkscape:window-y="-8"
     inkscape:window-maximized="1"
     inkscape:current-layer="svg4460" />
  <defs
     id="defs4462" />
  <metadata
     id="metadata4465">
    <rdf:RDF>
      <cc:Work
         rdf:about="">
        <dc:format>image/svg+xml</dc:format>
        <dc:type
           rdf:resource="http://purl.org/dc/dcmitype/StillImage" />
        <dc:title />
      </cc:Work>
    </rdf:RDF>
  </metadata>
  <path
     style="color:#000000;font-style:normal;font-variant:normal;font-weight:normal;font-stretch:normal;font-size:medium;line-height:normal;font-family:sans-serif;text-indent:0;text-align:start;text-decoration:none;text-decoration-line:none;text-decoration-style:solid;text-decoration-color:#000000;letter-spacing:normal;word-spacing:normal;text-transform:none;direction:ltr;block-progression:tb;writing-mode:lr-tb;baseline-shift:baseline;text-anchor:start;white-space:normal;clip-rule:nonzero;display:inline;overflow:visible;visibility:visible;opacity:1;isolation:auto;mix-blend-mode:normal;color-interpolation:sRGB;color-interpolation-filters:linearRGB;solid-color:#000000;solid-opacity:1;fill:#000000;fill-opacity:1;fill-rule:evenodd;stroke:none;stroke-width:2;stroke-linecap:butt;stroke-linejoin:miter;stroke-miterlimit:4;stroke-dasharray:none;stroke-dashoffset:0;stroke-opacity:1;color-rendering:auto;image-rendering:auto;shape-rendering:auto;text-rendering:auto;enable-background:accumulate"
     d="M 8.033203,2.5595702 C 6.3667268,2.5595702 4.9999999,3.9262971 4.9999999,5.5927733 4.9999999,6.3789966 5.3122169,7.0925909 5.8085937,7.6337889 L 3.3203124,12.655274 C 3.2301983,12.647099 3.1429077,12.62793 3.0507811,12.62793 1.3843051,12.62793 0.01757806,13.994657 0.01757806,15.661133 0.01757806,17.327609 1.3843051,18.694336 3.0507811,18.694336 4.7172575,18.694336 6.0839843,17.327609 6.0839843,15.661133 6.0839843,14.806127 5.7199652,14.034543 5.1445311,13.481445 L 7.5703124,8.5810546 C 7.72221,8.6048112 7.8749888,8.6279296 8.033203,8.6279296 9.1355076,8.6279296 10.09711,8.0234912 10.628906,7.135742 L 14.587891,8.2197264 C 14.735789,9.7480608 16.020156,10.958678 17.583984,10.963867 L 19.181641,15.956055 C 18.419834,16.509388 17.916016,17.400904 17.916016,18.407227 17.916016,20.073703 19.282743,21.44043 20.949219,21.44043 22.615695,21.44043 23.982422,20.073703 23.982422,18.407227 23.982422,16.792827 22.696803,15.469552 21.101562,15.387695 L 19.46875,10.293945 C 20.167424,9.7366888 20.626953,8.8890564 20.626953,7.932617 20.626953,6.266141 19.260226,4.8974608 17.59375,4.8974608 16.537939,4.8974608 15.604954,5.447981 15.060547,6.2744139 L 11.025391,5.1708983 C 10.816342,3.703311 9.5554754,2.5595702 8.033203,2.5595702 Z M 8.033203,4.0966796 C 8.8693034,4.0966796 9.5312499,4.7566729 9.5312499,5.5927733 9.5312499,6.4288737 8.8693034,7.0908202 8.033203,7.0908202 7.1971026,7.0908202 6.5371093,6.4288737 6.5371093,5.5927733 6.5371093,4.7566729 7.1971026,4.0966796 8.033203,4.0966796 Z M 17.59375,6.4345702 C 18.42985,6.4345702 19.089844,7.0965168 19.089844,7.932617 19.089844,8.7687176 18.42985,9.4287108 17.59375,9.4287108 16.75765,9.4287108 16.095703,8.7687176 16.095703,7.932617 16.095703,7.0965168 16.75765,6.4345702 17.59375,6.4345702 Z M 3.0507811,14.163086 C 3.8868817,14.163086 4.548828,14.825032 4.548828,15.661133 4.548828,16.497233 3.8868817,17.15918 3.0507811,17.15918 2.2146808,17.15918 1.5527343,16.497233 1.5527343,15.661133 1.5527343,14.825032 2.2146808,14.163086 3.0507811,14.163086 Z M 20.949219,16.90918 C 21.785319,16.90918 22.447266,17.571126 22.447266,18.407227 22.447266,19.243327 21.785319,19.90332 20.949219,19.90332 20.113118,19.90332 19.451172,19.243327 19.451172,18.407227 19.451172,17.571126 20.113118,16.90918 20.949219,16.90918 Z"
     id="path4133"
     inkscape:connector-curvature="0" />
</svg>
