<?xml version="1.0" encoding="UTF-8" standalone="no"?>
<!-- Created with Inkscape (http://www.inkscape.org/) -->

<svg
   xmlns:dc="http://purl.org/dc/elements/1.1/"
   xmlns:cc="http://creativecommons.org/ns#"
   xmlns:rdf="http://www.w3.org/1999/02/22-rdf-syntax-ns#"
   xmlns:svg="http://www.w3.org/2000/svg"
   xmlns="http://www.w3.org/2000/svg"
   xmlns:sodipodi="http://sodipodi.sourceforge.net/DTD/sodipodi-0.dtd"
   xmlns:inkscape="http://www.inkscape.org/namespaces/inkscape"
   version="1.1"
   width="24"
   height="24"
   id="svg4460"
   inkscape:version="0.91 r13725"
   sodipodi:docname="environnement-abeille.svg">
  <sodipodi:namedview
     pagecolor="#ffffff"
     bordercolor="#666666"
     borderopacity="1"
     objecttolerance="10"
     gridtolerance="10"
     guidetolerance="10"
     inkscape:pageopacity="0"
     inkscape:pageshadow="2"
     inkscape:window-width="1280"
     inkscape:window-height="972"
     id="namedview11"
     showgrid="false"
     inkscape:zoom="6.9532167"
     inkscape:cx="19.712819"
     inkscape:cy="6.9608878"
     inkscape:window-x="-8"
     inkscape:window-y="-8"
     inkscape:window-maximized="1"
     inkscape:current-layer="svg4460" />
  <defs
     id="defs4462" />
  <metadata
     id="metadata4465">
    <rdf:RDF>
      <cc:Work
         rdf:about="">
        <dc:format>image/svg+xml</dc:format>
        <dc:type
           rdf:resource="http://purl.org/dc/dcmitype/StillImage" />
        <dc:title></dc:title>
      </cc:Work>
    </rdf:RDF>
  </metadata>
  <path
     style="fill:#24bcee"
     d="M 9.1905028,20.52931 C 8.7835591,20.422687 8.2803612,20.147542 7.9746455,19.8645 7.342524,19.279241 7.0495349,18.512551 7.0482124,17.440126 7.0472541,16.664055 7.173456,16.017261 7.4770825,15.242272 c 0.3077474,-0.78553 0.6378524,-1.240793 1.6913788,-2.332652 0.6761854,-0.700795 0.8468537,-0.899533 0.8468537,-0.986128 0,-0.02798 -0.03335,-0.03852 -0.085291,-0.02702 -2.0423849,0.453451 -3.84147,0.573874 -5.2220443,0.349549 C 2.835851,11.941825 1.3314801,11.017414 0.76038471,9.8202935 0.57609857,9.4339822 0.50001706,9.1349077 0.50001706,8.7967336 c 0,-0.5379565 0.17375412,-0.9504488 0.56813414,-1.3487388 0.6944511,-0.7013415 1.8211265,-0.9473247 3.5352272,-0.771836 2.3544159,0.2410382 4.814794,0.637977 6.5957186,1.0641159 0.307048,0.073504 0.586237,0.1279941 0.62043,0.1211516 0.04236,-0.00862 0.08452,-0.1006913 0.132335,-0.2891079 0.189634,-0.7476765 0.757768,-1.3502529 1.493322,-1.5838162 0.166279,-0.052804 0.31528,-0.1163887 0.33113,-0.1413052 0.05185,-0.081554 0.03584,-1.4153329 -0.01744,-1.4551321 C 13.732806,4.3726108 13.583537,4.3004489 13.427167,4.2317177 13.073545,4.0763059 12.97225,3.9732092 12.97225,3.7686832 c 0,-0.2108126 0.160548,-0.3743222 0.366703,-0.3734406 0.183443,7.763e-4 1.011284,0.3673457 1.165009,0.5158671 l 0.110112,0.1063742 -0.02386,0.9111478 c -0.01313,0.5011376 -0.0115,0.9307169 0.0038,0.9546176 0.01514,0.023862 0.104227,0.064016 0.198057,0.089124 0.09382,0.025108 0.328255,0.1233174 0.520946,0.2182205 L 15.663381,6.36315 15.862713,6.1771484 c 1.120072,-1.0451697 1.153786,-1.0728462 1.309927,-1.0752516 0.137318,-0.00192 1.100953,0.4527325 1.184692,0.559193 0.184909,0.2350774 -0.0048,0.6146608 -0.306597,0.6146608 -0.04466,0 -0.24146,-0.070629 -0.437409,-0.1568684 l -0.356268,-0.1568588 -0.18051,0.1647075 c -0.695457,0.6346228 -0.843912,0.7780268 -0.843912,0.8151907 0,0.023096 0.05031,0.1428193 0.111837,0.2660313 0.1589,0.3183272 0.229433,0.6264866 0.228791,0.9996685 -9.1e-4,0.5212432 -0.147563,0.9839519 -0.432368,1.3641486 -0.05376,0.071778 -0.09781,0.1494702 -0.09781,0.1725562 0,0.0231 0.285744,0.2456 0.634987,0.4944578 1.832588,1.305853 4.816021,3.826817 5.707954,4.82316 0.868723,0.97043 1.247271,1.950299 1.072166,2.775332 -0.08625,0.406445 -0.225389,0.664206 -0.5128,0.950037 -0.305084,0.303415 -0.667149,0.499259 -1.125871,0.608987 -0.477409,0.114194 -1.301426,0.08798 -1.852799,-0.05894 -1.222134,-0.325658 -2.473373,-1.145257 -3.496319,-2.290198 -0.599615,-0.671126 -1.547304,-2.014287 -1.956165,-2.772496 -0.232758,-0.43163 -0.278566,-0.490356 -0.326013,-0.417993 -0.06009,0.09162 -0.11358,0.503706 -0.174789,1.346774 -0.0736,1.013009 -0.144544,1.491242 -0.285274,1.921876 -0.537267,1.644123 -1.865267,3.072518 -3.165802,3.405134 -0.388966,0.09948 -0.9895679,0.09898 -1.3717101,-9.58e-4 z m 0.9516942,-0.714806 c 0.05702,-0.02242 0.06057,-0.03507 0.01898,-0.06795 -0.05012,-0.03967 -1.9093688,-0.884794 -1.9465327,-0.884794 -0.075037,0 0.017346,0.150007 0.2179809,0.353699 0.2576076,0.261614 0.6617242,0.489705 1.0223041,0.577008 0.2209517,0.05347 0.5782637,0.06498 0.6873017,0.02204 z m 1.387341,-0.710436 c 0.126288,-0.116925 0.229615,-0.232116 0.229615,-0.255988 0,-0.05788 -3.8192372,-1.779899 -3.8885434,-1.753306 -0.040825,0.01572 -0.053954,0.09745 -0.053475,0.334686 3.067e-4,0.172671 0.014471,0.335769 0.031337,0.362439 0.041112,0.06478 3.2621424,1.521563 3.3682864,1.523356 0.04964,8.33e-4 0.175565,-0.08414 0.312759,-0.211187 z m 10.018879,-0.44933 c 0.5112,-0.108329 0.842781,-0.322995 1.035011,-0.670072 0.102982,-0.185924 0.112565,-0.234214 0.111828,-0.563495 -7.1e-4,-0.313641 -0.01601,-0.397802 -0.118373,-0.651921 -0.25525,-0.633559 -0.681562,-1.149522 -1.769377,-2.141457 -2.10045,-1.91531 -4.176347,-3.543775 -5.989041,-4.6981745 -0.377523,-0.240424 -0.507299,-0.3056577 -0.545306,-0.27411 -0.06172,0.05118 -0.06852,0.9399925 -0.01121,1.4537225 0.147985,1.326161 0.643277,2.475491 1.755558,4.073807 0.691634,0.993861 1.308911,1.693928 1.959365,2.222157 1.210941,0.983387 2.575186,1.460691 3.571519,1.249543 z m -9.133252,-0.59858 c 0.160817,-0.217167 0.270507,-0.443974 0.232586,-0.480889 -0.07216,-0.07015 -4.3968392,-2.00109 -4.4427813,-1.98361 -0.055583,0.02118 -0.2110043,0.506772 -0.1925182,0.601685 0.00862,0.04514 0.6570189,0.356114 2.1355435,1.024575 1.167615,0.527885 2.134864,0.960166 2.14944,0.960626 0.01457,4.51e-4 0.06756,-0.05462 0.11773,-0.122387 z m 0.635581,-1.382309 c 0.02559,-0.07743 0.0482,-0.234072 0.05031,-0.348093 l 0.0038,-0.207315 -1.402654,-0.635188 C 8.8120023,14.1744 9.0023834,14.25327 8.9178111,14.329802 c -0.041112,0.03718 -0.1381811,0.159762 -0.2157384,0.272375 -0.1031255,0.149739 -0.1297382,0.216036 -0.099043,0.246731 0.057883,0.05788 4.2590413,1.95856 4.3378063,1.962528 0.04082,0.0019 0.07992,-0.04696 0.109862,-0.137587 z m 0.20306,-1.741432 c 0.0207,-0.255299 0.01505,-0.339459 -0.02549,-0.380025 -0.05769,-0.05769 -3.045609,-1.414997 -3.114887,-1.414997 -0.07571,0 -0.5343335,0.488861 -0.4946684,0.527328 0.056829,0.0551 3.4786284,1.593122 3.5473214,1.594435 0.04964,9.49e-4 0.06612,-0.06066 0.08778,-0.326741 z m 0.277464,-1.53981 c 0.07408,-0.161957 0.124937,-0.304183 0.113064,-0.316056 -0.01188,-0.01188 -0.622979,-0.293488 -1.358025,-0.625826 -0.84097,-0.380216 -1.349755,-0.590923 -1.372343,-0.568335 -0.05146,0.05146 -0.222897,0.464021 -0.229586,0.5526 -0.0048,0.06277 0.203204,0.169872 1.302231,0.670425 0.71933,0.327623 1.330857,0.592524 1.358945,0.588672 0.02808,-0.0038 0.111655,-0.139514 0.185714,-0.30148 z m 0.08539,-1.307205 c -2.9e-5,-0.03651 -0.02635,-0.194291 -0.05846,-0.350661 -0.03258,-0.158699 -0.06842,-0.598868 -0.08117,-0.99619 -0.01246,-0.391534 -0.03862,-0.721687 -0.05798,-0.733675 -0.01945,-0.011979 -0.115095,0.0482 -0.212643,0.133705 -0.318892,0.279582 -0.906097,0.714825 -1.238282,0.917818 -0.25961,0.158632 -0.315701,0.208215 -0.276793,0.244661 0.05961,0.05587 1.811581,0.848722 1.877926,0.849872 0.02607,4.41e-4 0.04734,-0.02904 0.04734,-0.06555 z M 7.3081488,11.526199 c 2.2708307,-0.214214 3.6424352,-0.643554 4.7902222,-1.499435 0.328457,-0.2449185 1.025505,-0.8608065 1.025505,-0.906097 0,-0.1001738 -1.81092,-0.5816465 -3.3631691,-0.8941663 C 8.0430796,7.8806887 5.6876287,7.5433099 4.0980529,7.4154213 3.5695935,7.3728716 2.9451002,7.4106296 2.566063,7.5084747 2.0407852,7.6437904 1.5578559,7.9620218 1.3924871,8.2818153 c -0.2658397,0.5140749 -0.069,1.1960678 0.5233994,1.8130857 1.1018165,1.147682 3.0151149,1.655537 5.3922623,1.431289 z M 15.52548,9.0715911 C 15.862763,8.5789443 15.894263,8.0424446 15.61671,7.5172147 15.341555,6.9964698 14.628608,6.6162251 14.022611,6.6670355 c -0.68138,0.057116 -1.315437,0.6548819 -1.330109,1.25397 l -0.0048,0.1888573 0.682951,0.2297108 c 0.661706,0.2225713 0.996056,0.3835893 1.648494,0.7938966 0.290565,0.1827337 0.343043,0.1763129 0.506121,-0.061908 z"
     id="path4347"
     inkscape:connector-curvature="0" />
</svg>
