<?xml version="1.0" encoding="UTF-8" standalone="no"?>
<!-- Created with Inkscape (http://www.inkscape.org/) -->

<svg
   xmlns:dc="http://purl.org/dc/elements/1.1/"
   xmlns:cc="http://creativecommons.org/ns#"
   xmlns:rdf="http://www.w3.org/1999/02/22-rdf-syntax-ns#"
   xmlns:svg="http://www.w3.org/2000/svg"
   xmlns="http://www.w3.org/2000/svg"
   xmlns:sodipodi="http://sodipodi.sourceforge.net/DTD/sodipodi-0.dtd"
   xmlns:inkscape="http://www.inkscape.org/namespaces/inkscape"
   version="1.1"
   width="24"
   height="24"
   id="svg4460"
   inkscape:version="0.91 r13725"
   sodipodi:docname="environnement-feuille.svg">
  <sodipodi:namedview
     pagecolor="#ffffff"
     bordercolor="#666666"
     borderopacity="1"
     objecttolerance="10"
     gridtolerance="10"
     guidetolerance="10"
     inkscape:pageopacity="0"
     inkscape:pageshadow="2"
     inkscape:window-width="1280"
     inkscape:window-height="972"
     id="namedview11"
     showgrid="false"
     inkscape:zoom="6.9532167"
     inkscape:cx="19.712819"
     inkscape:cy="6.9608878"
     inkscape:window-x="-8"
     inkscape:window-y="-8"
     inkscape:window-maximized="1"
     inkscape:current-layer="svg4460" />
  <defs
     id="defs4462" />
  <metadata
     id="metadata4465">
    <rdf:RDF>
      <cc:Work
         rdf:about="">
        <dc:format>image/svg+xml</dc:format>
        <dc:type
           rdf:resource="http://purl.org/dc/dcmitype/StillImage" />
        <dc:title></dc:title>
      </cc:Work>
    </rdf:RDF>
  </metadata>
  <path
     style="fill:#5b257a"
     d="m 12.191158,23.448965 c -0.197446,-0.11501 -0.243743,-0.317765 -0.209147,-0.9161 0.04667,-0.80686 0.162323,-1.801036 0.273863,-2.353717 0.0529,-0.262162 0.08539,-0.494098 0.07226,-0.515411 -0.01322,-0.02128 -0.281961,-0.05223 -0.597301,-0.06881 -0.31534,-0.01648 -0.781301,-0.06536 -1.035471,-0.108676 -0.541987,-0.09229 -1.4637896,-0.38728 -1.9035978,-0.60922 C 7.6323333,18.291949 6.6663517,17.273556 6.0494241,15.9859 5.7526089,15.366366 5.5274195,14.691085 5.1977813,13.432064 4.8610802,12.146047 4.8136044,12.003648 4.5857317,11.596164 4.2262223,10.953304 3.6121889,10.448425 3.0316205,10.318312 2.6127997,10.224491 2.42626,9.9175079 2.5925789,9.5958819 2.7477236,9.2958562 2.8518178,9.274907 4.1770022,9.2769291 c 1.6499638,0.00287 2.7719813,0.1618243 4.1482928,0.5889828 0.3436778,0.106662 0.5893947,0.1598591 0.6141101,0.13294 0.022712,-0.02473 0.099897,-0.252818 0.1716281,-0.5069877 C 9.3609092,8.6064402 9.8279725,7.685807 10.493028,6.7677709 10.94449,6.1445854 12.047063,5.004647 12.738434,4.446264 c 0.572652,-0.4625016 1.793177,-1.2841389 2.456545,-1.6537204 1.45272,-0.8093419 3.298347,-1.5821137 5.08334,-2.12840249 0.690738,-0.2113989 0.824972,-0.2153664 1.031829,-0.030571 0.129451,0.1156709 0.157751,0.1768222 0.157751,0.3408698 0,0.18453679 -0.02875,0.22844769 -0.373166,0.57067829 -0.446564,0.44368 -0.671246,0.8422224 -0.853569,1.5140433 -0.121986,0.4495066 -0.128637,0.5334375 -0.130017,1.6412046 -0.0019,1.3193386 0.04533,1.6784647 0.436195,3.3339772 0.580406,2.4582897 0.684193,4.1370897 0.359711,5.8185257 -0.517021,2.679118 -2.303883,4.505876 -5.057685,5.170586 -0.633593,0.15294 -1.588985,0.294572 -1.987067,0.294572 -0.290979,0 -0.351565,0.06325 -0.489172,0.510764 -0.193469,0.629156 -0.312724,1.520847 -0.408768,3.056424 -0.01763,0.282124 -0.0413,0.353788 -0.156783,0.474289 -0.107324,0.11202 -0.177656,0.141633 -0.333635,0.140463 -0.108694,-8.14e-4 -0.235942,-0.02377 -0.282766,-0.05108 z m 0.486623,-5.113402 c 0.308296,-0.778264 0.482329,-1.816264 0.426104,-2.541407 -0.09181,-1.183705 -0.486901,-1.966271 -1.455738,-2.883167 -1.399763,-1.324734 -3.3009636,-2.192927 -5.5050649,-2.513911 -0.7956952,-0.115873 -1.187788,-0.143377 -1.187788,-0.08328 0,0.02942 0.1008742,0.190326 0.2241543,0.357612 0.2353573,0.319384 0.4683762,0.74797 0.587133,1.079909 0.038812,0.108426 0.2098272,0.722507 0.3800753,1.36461 0.3571328,1.346958 0.5474004,1.89914 0.8887973,2.579452 0.6149918,1.225518 1.496477,2.039383 2.6995505,2.492454 0.7184445,0.270557 1.7499575,0.447399 2.5168835,0.431481 l 0.316096,-0.0067 0.109797,-0.277169 z m -1.432345,-0.96373 c -0.148149,-0.0597 -0.236422,-0.215424 -0.327482,-0.57777 C 10.749603,16.12413 10.314807,15.570175 9.6251698,15.146955 9.4245042,15.023809 9.2114187,14.879609 9.1516282,14.826498 c -0.1485418,-0.131934 -0.186971,-0.371949 -0.0897,-0.560089 0.2225348,-0.43033 0.7447406,-0.305958 1.6116408,0.383851 0.575479,0.457921 1.057713,1.193251 1.210903,1.846442 0.111013,0.473311 0.09964,0.569422 -0.0898,0.758856 -0.170881,0.170881 -0.33005,0.204586 -0.549269,0.116275 z m 3.704057,0.825039 c 3.286779,-0.577865 5.000347,-2.555781 5.118328,-5.907918 0.04456,-1.265049 -0.08031,-2.282119 -0.492364,-4.0131678 -0.61019,-2.5630549 -0.667834,-4.3379088 -0.190018,-5.8504475 0.06689,-0.2118302 0.109413,-0.3973924 0.0944,-0.4123616 -0.0392,-0.039196 -1.138444,0.3849341 -2.064309,0.7965769 -3.601803,1.6013571 -6.166037,3.8982539 -7.15774,6.4115042 -0.166865,0.4228747 -0.3601235,1.1731158 -0.3192314,1.2392698 0.014183,0.023 0.2504514,0.173238 0.5250434,0.33396 0.795829,0.465817 1.325443,0.867867 1.99207,1.51228 0.39191,0.378848 0.630162,0.576831 0.643943,0.535086 0.01198,-0.03642 0.04581,-0.263264 0.07513,-0.504055 0.234869,-1.930727 0.777324,-3.7378863 1.517235,-5.0546181 0.336471,-0.5987863 0.791775,-1.2588294 1.088619,-1.5781271 0.22494,-0.2419794 0.262766,-0.2637144 0.458889,-0.2637144 0.178365,0 0.236402,0.025396 0.350741,0.1533335 0.147688,0.1652934 0.177799,0.3732519 0.0806,0.5563225 -0.03105,0.058458 -0.15112,0.2227839 -0.266839,0.3652307 -1.682356,2.0707204 -2.546332,5.5173399 -2.331167,9.2996549 0.0438,0.770356 -0.0019,1.285097 -0.175634,1.981049 -0.05491,0.220062 -0.08874,0.429333 -0.07504,0.46505 0.02683,0.06986 0.52325,0.04131 1.127317,-0.06488 z"
     id="path4334"
     inkscape:connector-curvature="0" />
</svg>
