<?xml version="1.0" encoding="UTF-8" standalone="no"?>
<!-- Created with Inkscape (http://www.inkscape.org/) -->

<svg
   xmlns:dc="http://purl.org/dc/elements/1.1/"
   xmlns:cc="http://creativecommons.org/ns#"
   xmlns:rdf="http://www.w3.org/1999/02/22-rdf-syntax-ns#"
   xmlns:svg="http://www.w3.org/2000/svg"
   xmlns="http://www.w3.org/2000/svg"
   xmlns:sodipodi="http://sodipodi.sourceforge.net/DTD/sodipodi-0.dtd"
   xmlns:inkscape="http://www.inkscape.org/namespaces/inkscape"
   version="1.1"
   width="24"
   height="24"
   id="svg4460"
   inkscape:version="0.91 r13725"
   sodipodi:docname="environnement-terre.svg">
  <sodipodi:namedview
     pagecolor="#ffffff"
     bordercolor="#666666"
     borderopacity="1"
     objecttolerance="10"
     gridtolerance="10"
     guidetolerance="10"
     inkscape:pageopacity="0"
     inkscape:pageshadow="2"
     inkscape:window-width="1280"
     inkscape:window-height="972"
     id="namedview11"
     showgrid="false"
     inkscape:zoom="6.9532167"
     inkscape:cx="19.712819"
     inkscape:cy="6.9608878"
     inkscape:window-x="-8"
     inkscape:window-y="-8"
     inkscape:window-maximized="1"
     inkscape:current-layer="svg4460" />
  <defs
     id="defs4462" />
  <metadata
     id="metadata4465">
    <rdf:RDF>
      <cc:Work
         rdf:about="">
        <dc:format>image/svg+xml</dc:format>
        <dc:type
           rdf:resource="http://purl.org/dc/dcmitype/StillImage" />
        <dc:title></dc:title>
      </cc:Work>
    </rdf:RDF>
  </metadata>
  <path
     style="fill:#1db099"
     d="M 14.320997,23.916538 C 13.692929,23.819378 13.174662,23.686454 12.681291,23.496006 10.113916,22.504972 8.2888406,20.29511 7.8017736,17.587716 7.6695553,16.852785 7.6704157,15.644312 7.8036436,14.90275 8.1838005,12.787397 9.4104185,10.942672 11.22975,9.7501822 c 2.520042,-1.6517616 5.880803,-1.6486191 8.429389,0.0075 1.670747,1.0859448 2.925629,2.8956058 3.337781,4.8134218 0.939931,4.373661 -1.879592,8.547101 -6.297912,9.322108 -0.76412,0.134033 -1.607411,0.14217 -2.378059,0.02291 z m 1.912475,-1.253778 c 1.468234,-0.838231 2.856709,-2.954135 3.266944,-4.978515 0.04863,-0.240157 0.09433,-0.546297 0.101476,-0.680302 l 0.013,-0.243655 -1.860616,0 -1.860615,0 -0.0115,2.968127 c -0.0065,1.632466 -0.0019,2.993042 0.0097,3.023495 0.03021,0.07912 0.06098,0.07108 0.341606,-0.08913 z m -3.273023,-0.31408 c -1.273728,-1.328796 -2.257897,-3.401407 -2.432726,-5.123239 -0.05368,-0.528901 0.0304,-0.4873 -0.9853287,-0.4873 -0.686082,0 -0.8873135,0.01291 -0.9046159,0.05799 -0.031331,0.08165 0.079965,0.78291 0.1911213,1.204593 0.2199836,0.834312 0.7061808,1.811242 1.2266463,2.464702 0.533474,0.66979 1.3608,1.372903 2.087762,1.774309 0.398432,0.220002 1.029259,0.482119 1.081942,0.449553 0.02132,-0.01319 -0.09786,-0.16643 -0.264801,-0.340586 z m 1.969985,-2.631339 -0.01141,-2.957053 -1.74987,0 -1.749861,0 0.0099,0.243655 c 0.0056,0.134005 0.05228,0.442848 0.10402,0.686297 0.41204,1.939027 1.615987,3.870133 2.997925,4.808615 0.452957,0.307599 0.412199,0.591546 0.399208,-2.781514 z m 3.491557,2.67467 c 1.983911,-0.97204 3.376014,-2.831738 3.746024,-5.004254 0.0491,-0.28838 0.07847,-0.552527 0.06528,-0.586972 -0.01945,-0.05079 -0.175035,-0.06266 -0.821274,-0.06266 -0.919477,0 -0.859041,-0.03105 -0.906917,0.465154 -0.158471,1.642053 -1.116088,3.715253 -2.32561,5.034884 -0.148585,0.162109 -0.270151,0.306635 -0.270151,0.321179 0,0.06098 0.139719,0.01543 0.512666,-0.167347 z m -7.976478,-6.674075 c 0.01553,-0.02507 0.05705,-0.269282 0.09231,-0.542678 0.244151,-1.892695 1.010235,-3.537245 2.297122,-4.931191 0.211622,-0.229234 0.355232,-0.4167818 0.319131,-0.4167818 -0.0361,0 -0.227672,0.0694 -0.425714,0.154122 -1.620149,0.6934518 -3.0009356,2.1186448 -3.6514214,3.7688628 -0.2365284,0.600038 -0.4979722,1.776338 -0.4360857,1.962007 0.02254,0.06753 1.7630851,0.07295 1.8046671,0.0056 z m 4.48493,-2.911451 c 0.01085,-2.80295 0.0075,-2.9348968 -0.06846,-2.9348968 -0.170172,0 -0.796827,0.4690258 -1.296539,0.9704028 -0.972909,0.976163 -1.653734,2.232579 -1.982714,3.658978 -0.111679,0.484224 -0.199819,1.11709 -0.167356,1.201675 0.01992,0.05181 0.306814,0.06004 1.763741,0.05032 l 1.739984,-0.0116 0.01141,-2.934897 z m 4.672113,2.669095 c -0.01861,-0.400255 -0.208292,-1.276327 -0.389107,-1.796745 -0.576712,-1.659898 -1.697552,-3.096053 -2.953069,-3.7837998 -0.163784,-0.08969 -0.31828,-0.150446 -0.343327,-0.134968 -0.05135,0.03171 -0.06668,5.9232728 -0.01552,5.9744128 0.01655,0.01656 0.858769,0.02479 1.871689,0.01843 l 1.841676,-0.0116 -0.01235,-0.265802 z m 2.626382,0.243113 c 0.04171,-0.06743 -0.05649,-0.668826 -0.198781,-1.217724 -0.481914,-1.858838 -1.786496,-3.467932 -3.519634,-4.341151 -0.266279,-0.134164 -0.512366,-0.2439358 -0.54684,-0.2439358 -0.03451,0 0.08576,0.1644668 0.267289,0.3654828 0.914362,1.012732 1.451708,1.930255 1.874214,3.200241 0.209743,0.630443 0.354681,1.280199 0.400499,1.795343 0.0463,0.520166 -0.01599,0.486581 0.902306,0.486581 0.487432,0 0.803925,-0.0173 0.820947,-0.0448 z M 6.1697279,8.8091281 C 5.1658431,8.7282277 4.2398565,8.4696177 3.1703161,7.9715053 2.8485478,7.8216385 2.2214249,7.5791618 1.7767067,7.432662 1.3319978,7.2861622 0.93280819,7.1343314 0.88962703,7.0952467 0.78132341,6.997231 0.74311786,6.7533514 0.81059718,6.5905312 0.87166995,6.4431523 1.0538221,6.3275536 1.2250409,6.3275536 c 0.2701792,0 1.9527948,0.6062664 2.6375112,0.9503315 0.3630977,0.1824514 1.0020984,0.3886024 1.6037447,0.517407 0.3737036,0.079965 0.6091564,0.099007 1.2572198,0.1015136 C 7.9101147,7.901482 8.3397845,7.7912798 9.6030461,7.1588914 10.836529,6.5414205 11.416308,6.3533762 12.845467,6.1073175 13.279365,6.0325899 13.843694,5.912399 14.099526,5.8401873 14.355368,5.7679849 14.920146,5.629678 15.354595,5.5328594 16.171455,5.3508195 16.460508,5.2473512 16.482215,5.129218 16.500359,5.0303325 16.315121,4.7737427 16.140675,4.6561799 15.794571,4.4229437 15.539094,4.411468 12.261067,4.4819308 10.802317,4.5132622 10.455764,4.5084923 10.034989,4.45088 9.2858606,4.3483751 8.8510468,4.2194208 8.7168457,4.0599302 8.498901,3.8009087 8.6150983,3.4144948 8.9350896,3.3341837 c 0.065843,-0.016554 0.2707685,0.010381 0.4800432,0.06313 0.8600872,0.2166821 1.4220882,0.246171 3.3332352,0.1749506 2.71194,-0.101074 3.27597,-0.062943 3.825148,0.2589466 C 17.1593,4.1744997 17.53797,4.924666 17.377721,5.4243684 17.210281,5.9464985 16.795472,6.1721778 15.517144,6.4366612 15.212575,6.4996982 14.7142,6.6200385 14.409632,6.7041281 14.105063,6.7882081 13.507008,6.9175742 13.080621,6.991591 11.66204,7.2378277 11.086441,7.4230101 10.036448,7.9709535 9.3474758,8.3305065 8.9196204,8.5064578 8.4435801,8.626022 7.7588543,8.7980078 6.8949132,8.8675728 6.1697653,8.8091187 Z M 21.119144,7.0808249 C 20.611052,7.0257378 20.104831,6.8725883 19.37337,6.5525595 18.994532,6.3868026 18.576403,6.2157708 18.444175,6.172468 18.136969,6.0718616 17.997923,5.9259791 17.997923,5.704284 c 0,-0.2037567 0.165149,-0.4205229 0.351585,-0.4614688 0.159724,-0.035072 0.582165,0.1074432 1.4329,0.4834195 0.779758,0.3446075 1.165723,0.4458312 1.700918,0.4460837 0.342391,1.777e-4 0.426266,-0.014403 0.531605,-0.09203 C 22.172186,5.964381 22.3192,5.7012257 22.281528,5.6030697 22.210915,5.4191125 19.745072,3.948774 18.330176,3.2469609 17.102529,2.6380383 14.30187,1.5509898 13.373536,1.3230939 12.684359,1.153914 11.686076,0.98148859 11.061385,0.92373599 10.41176,0.86369209 10.370907,0.87491519 7.9638924,1.7777634 5.1533105,2.831956 4.9057835,2.9064405 3.6638645,3.0717111 2.4872271,3.228293 1.2767797,3.0801284 0.93478159,2.7385138 0.75665113,2.5603739 0.75838137,2.2960776 0.93852265,2.1155902 1.0946651,1.9594478 1.2589068,1.9485333 1.6079756,2.0711652 1.9575868,2.1939467 2.5465228,2.2636987 2.9575996,2.2310019 3.5638474,2.1827422 4.6659817,1.9846906 5.1061639,1.8448125 5.3376325,1.7713007 6.2945202,1.4224564 7.2325811,1.0696747 9.8487214,0.08582327 10.016246,0.03141894 10.512394,0.00455815 c 0.491238,-0.0265615 1.289271,0.0632239 2.279885,0.25668334 1.225196,0.2392313 1.80188,0.4310072 4.208531,1.39953901 1.57289,0.632987 3.332843,1.5489849 4.95648,2.5796744 0.718629,0.4561846 1.059056,0.7188816 1.175282,0.9069446 0.119555,0.1934501 0.120583,0.5037989 0.0028,0.8847134 -0.243926,0.7897373 -0.961779,1.1630294 -2.01672,1.0487213 z"
     id="path4308"
     inkscape:connector-curvature="0" />
</svg>
