<?xml version="1.0" encoding="UTF-8" standalone="no"?>
<!-- Created with Inkscape (http://www.inkscape.org/) -->

<svg
   xmlns:dc="http://purl.org/dc/elements/1.1/"
   xmlns:cc="http://creativecommons.org/ns#"
   xmlns:rdf="http://www.w3.org/1999/02/22-rdf-syntax-ns#"
   xmlns:svg="http://www.w3.org/2000/svg"
   xmlns="http://www.w3.org/2000/svg"
   xmlns:sodipodi="http://sodipodi.sourceforge.net/DTD/sodipodi-0.dtd"
   xmlns:inkscape="http://www.inkscape.org/namespaces/inkscape"
   version="1.1"
   width="24"
   height="24"
   id="svg4460"
   inkscape:version="0.91 r13725"
   sodipodi:docname="environnement-arbres.svg">
  <sodipodi:namedview
     pagecolor="#ffffff"
     bordercolor="#666666"
     borderopacity="1"
     objecttolerance="10"
     gridtolerance="10"
     guidetolerance="10"
     inkscape:pageopacity="0"
     inkscape:pageshadow="2"
     inkscape:window-width="1280"
     inkscape:window-height="972"
     id="namedview11"
     showgrid="false"
     inkscape:zoom="6.9532167"
     inkscape:cx="19.712819"
     inkscape:cy="6.9608878"
     inkscape:window-x="-8"
     inkscape:window-y="-8"
     inkscape:window-maximized="1"
     inkscape:current-layer="svg4460" />
  <defs
     id="defs4462" />
  <metadata
     id="metadata4465">
    <rdf:RDF>
      <cc:Work
         rdf:about="">
        <dc:format>image/svg+xml</dc:format>
        <dc:type
           rdf:resource="http://purl.org/dc/dcmitype/StillImage" />
        <dc:title></dc:title>
      </cc:Work>
    </rdf:RDF>
  </metadata>
  <path
     style="fill:#98c226"
     d="m 18.21374,21.899565 c -0.049,-0.0212 -0.12908,-0.083 -0.17804,-0.13738 -0.0838,-0.0931 -0.0903,-0.17861 -0.11128,-1.45817 -0.0188,-1.1482 -0.0326,-1.36454 -0.089,-1.39305 -0.0367,-0.0186 -0.227,-0.0578 -0.42285,-0.0872 -1.66272,-0.24963 -3.27648,-1.44815 -4.07101,-3.02349 -0.16526,-0.32766 -0.37171,-0.91944 -0.47469,-1.36071 -0.10438,-0.44722 -0.1171,-1.74326 -0.0218,-2.22552 0.21181,-1.07238 0.73876,-2.07101 1.52056,-2.8816498 0.2186,-0.22667 0.39772,-0.41606 0.39803,-0.42087 3.3e-4,-0.005 -0.0719,-0.13246 -0.16055,-0.28368 -0.4027,-0.68709 -0.56809,-1.32765 -0.56809,-2.20017 0,-0.75505 0.0976,-1.20826 0.39588,-1.8379 0.61765,-1.30386 1.72561,-2.16718 3.15976,-2.46205 0.34391,-0.0707 1.25846,-0.0707 1.60237,0 1.43415,0.29487 2.54211,1.15819 3.15976,2.46205 0.29826,0.62964 0.39588,1.08285 0.39588,1.8379 0,0.87252 -0.16539,1.51308 -0.56809,2.20017 -0.0886,0.15122 -0.16087,0.27887 -0.16055,0.28368 3.2e-4,0.005 0.17943,0.1942 0.39803,0.42087 0.61985,0.64271 1.05743,1.3585098 1.32624,2.1694798 0.21186,0.63917 0.25588,0.94945 0.25573,1.80268 -1.4e-4,0.85195 -0.0493,1.15894 -0.29962,1.86944 -0.66439,1.88618 -2.41552,3.36245 -4.32933,3.64977 -0.19585,0.0294 -0.38613,0.0686 -0.42285,0.0872 -0.0564,0.0285 -0.0702,0.24525 -0.089,1.39671 l -0.0223,1.36295 -0.11367,0.1136 c -0.12249,0.12241 -0.36579,0.1775 -0.50948,0.11534 z m -0.28932,-10.58647 0.0223,-6.6415798 0.12342,-0.12341 c 0.0988,-0.0988 0.16391,-0.12341 0.32635,-0.12341 0.17297,0 0.22211,0.0215 0.33282,0.14536 l 0.12988,0.14536 0,0.90914 c 0,0.50003 0.0172,0.91976 0.0382,0.93274 0.0388,0.024 2.66544,-1.10456 2.73993,-1.17727 0.0604,-0.0589 -0.17266,-0.57359 -0.41792,-0.92282 -1.20791,-1.72001 -3.63194,-1.97823 -5.17341,-0.55111 -1.29175,1.19593 -1.47383,3.19136 -0.4189,4.59059 0.37705,0.50011 0.36114,0.67194 -0.0953,1.02908 -1.05833,0.8280498 -1.68944,1.9592698 -1.83596,3.2907898 -0.0776,0.70555 0.024,1.44775 0.29485,2.15277 0.59517,1.54932 1.98356,2.6768 3.66676,2.97769 0.0612,0.0109 0.14132,0.0171 0.17804,0.0138 0.0589,-0.005 0.0694,-0.78727 0.089,-6.64769 z m 1.66915,6.52385 c 1.45627,-0.35857 2.76919,-1.58126 3.27424,-3.0492 0.11187,-0.32517 0.11483,-0.4799 0.008,-0.4392 -0.39294,0.15029 -3.95806,1.74284 -3.98301,1.77923 -0.0412,0.06 -0.0448,1.78027 -0.004,1.82122 0.0361,0.0361 0.22442,0.006 0.70422,-0.11205 z m 1.46022,-3.49993 c 1.20783,-0.53028 2.01408,-0.90841 2.04045,-0.95698 0.0575,-0.10591 -0.002,-0.78856 -0.0707,-0.81504 -0.0286,-0.0109 -0.97223,0.38899 -2.09705,0.88875 l -2.04514,0.90868 -0.013,0.39113 c -0.0149,0.44918 0.004,0.531 0.11224,0.48942 0.0419,-0.0161 0.97485,-0.42378 2.07312,-0.90596 z m -0.20826,-1.65779 c 1.04955,-0.46633 1.93218,-0.87193 1.96139,-0.90134 0.0412,-0.0414 0.0224,-0.12681 -0.0837,-0.37979 -0.0752,-0.17947 -0.16152,-0.33581 -0.19175,-0.34741 -0.0302,-0.0116 -0.86386,0.33817 -1.85252,0.77726 l -1.79756,0.79836 -0.013,0.39123 c -0.0119,0.35869 0.003,0.50956 0.0506,0.50956 0.01,0 0.87692,-0.38154 1.92648,-0.84787 z m -0.35689,-1.57695 c 0.85415,-0.3789 1.55864,-0.71506 1.56554,-0.74702 0.013,-0.0603 -0.48693,-0.6120898 -0.55345,-0.6108598 -0.0207,4e-4 -0.61858,0.2576198 -1.32853,0.5716298 l -1.2908,0.57094 -0.013,0.39295 c -0.0118,0.35823 0.003,0.51127 0.0498,0.51127 0.01,0 0.71623,-0.31001 1.57039,-0.68891 z M 19.9274,9.6177352 c 0.76205,-0.34353 0.95828,-0.44943 0.96337,-0.51993 0.004,-0.0487 0.009,-0.12868 0.0111,-0.17777 0.003,-0.0491 0.11489,-0.23567 0.24954,-0.41465 0.25119,-0.33391 0.2861,-0.40917 0.18917,-0.40777 -0.0306,4.4e-4 -0.59645,0.237 -1.25743,0.52569 l -1.20178,0.5249 -0.013,0.39437 c -0.013,0.39607 0.003,0.5153298 0.0672,0.5096198 0.0191,-0.002 0.46542,-0.1971998 0.99176,-0.4344598 z m 0.42073,-1.91711 c 0.77562,-0.3403 1.42388,-0.63237 1.44059,-0.64903 0.0167,-0.0167 0.0373,-0.21895 0.0458,-0.44952 0.0141,-0.38379 0.008,-0.41913 -0.0668,-0.41818 -0.0452,5.7e-4 -0.71312,0.27738 -1.48427,0.61513 l -1.40208,0.61409 -0.013,0.39397 c -0.0119,0.36198 0.003,0.51228 0.051,0.51228 0.0102,0 0.65312,-0.27843 1.42874,-0.61874 z M 5.4264401,21.696205 c -0.25683,-0.11463 -0.27653,-0.22714 -0.27653,-1.57928 l 0,-1.20237 -0.10014,-0.0208 c -0.0551,-0.0114 -0.24036,-0.043 -0.41173,-0.0702 -0.38297,-0.0607 -1.12061,-0.30278 -1.49873,-0.49181 -1.19548,-0.59763 -2.20467995,-1.66749 -2.70369995,-2.86619 -0.3422,-0.82198 -0.50265,-1.83977 -0.40953,-2.59773 0.16149,-1.31453 1.17909995,-3.2291898 2.93786995,-5.5276898 0.54476,-0.71193 1.62497,-2.00304 2.09057,-2.49873 0.59183,-0.63006 0.6568,-0.61402 1.52434,0.37625 2.20687,2.51907 3.7615399,4.8131298 4.3794499,6.4622498 0.26409,0.70484 0.34757,1.18655 0.32011,1.84719 -0.0465,1.11805 -0.39758,2.14035 -1.0436,3.03857 -0.3117099,0.4334 -1.0015199,1.10433 -1.4202499,1.38139 -0.68096,0.45056 -1.62464,0.81746 -2.31827,0.90134 -0.14073,0.017 -0.28092,0.051 -0.31152,0.0754 -0.042,0.0336 -0.0556,0.33654 -0.0556,1.2379 0,0.65639 -0.0191,1.24377 -0.0425,1.30528 -0.0862,0.2268 -0.41211,0.33995 -0.66018,0.22922 z m -0.26613,-8.88942 0.0119,-5.1178798 0.14536,-0.12988 c 0.24702,-0.2207 0.6166,-0.16097 0.76189,0.12314 0.0294,0.0575 0.0497,0.34401 0.0497,0.70104 0,0.50903 0.0106,0.60382 0.0673,0.60382 0.1066,0 1.57962,-0.75176 1.57962,-0.80617 0,-0.0841 -0.61445,-0.84958 -1.98751,-2.47598 -0.0542,-0.0643 -0.1236,-0.10284 -0.15985,-0.0889 -0.12405,0.0476 -1.32333,1.48248 -2.1129,2.52798 -1.40622,1.8620298 -2.2845,3.4440198 -2.52887995,4.5551198 -0.14728,0.66959 -0.0269,1.63267 0.30011995,2.40117 0.60414,1.41969 1.89304,2.48508 3.37329,2.78833 0.20809,0.0426 0.40305,0.0682 0.43324,0.0568 0.043,-0.0162 0.0575,-1.13037 0.0668,-5.13857 z m 1.45845,5.08547 c 1.39506,-0.30957 2.61712,-1.2346 3.22169,-2.4386 0.13356,-0.26598 0.13653,-0.27961 0.061,-0.27985 -0.0833,-2.5e-4 -3.70029,1.61267 -3.7382,1.66698 -0.0409,0.0585 -0.0449,1.06721 -0.004,1.10768 0.0388,0.0388 0.0232,0.0407 0.45994,-0.0562 z m 1.6812,-2.8422 1.9705299,-0.87498 0.0392,-0.15708 c 0.0216,-0.0864 0.0494,-0.28357 0.0619,-0.43818 0.0179,-0.2218 0.009,-0.28643 -0.0431,-0.30633 -0.0706,-0.0271 -4.1106599,1.74705 -4.1652899,1.82912 -0.0417,0.0627 -0.0444,0.80292 -0.003,0.84427 0.0399,0.0399 -0.13323,0.11247 2.13977,-0.89682 z m -0.21235,-1.64641 c 2.1633599,-0.9619 2.1364499,-0.94919 2.1367099,-1.00869 4.7e-4,-0.10227 -0.2408499,-0.70253 -0.2900099,-0.72139 -0.0287,-0.011 -0.8916,0.35863 -1.91755,0.82144 l -1.86536,0.84147 -0.013,0.39223 c -0.014,0.42471 0.006,0.53172 0.0912,0.49813 0.0304,-0.0119 0.86647,-0.38235 1.85794,-0.82319 z m -0.2003,-1.65858 c 0.88131,-0.39741 1.62677,-0.74496 1.65658,-0.77235 0.042,-0.0386 0.014,-0.12253 -0.12392,-0.37234 -0.098,-0.1774 -0.19617,-0.32255 -0.21825,-0.32255 -0.0221,0 -0.71743,0.29791 -1.54523,0.66201 l -1.50509,0.66202 -0.013,0.39158 c -0.0141,0.42428 0.006,0.53149 0.0912,0.49668 0.0304,-0.0124 0.77633,-0.34764 1.65764,-0.74505 z m -0.52877,-1.48456 c 1.48492,-0.6534898 1.39672,-0.6104398 1.39672,-0.6817498 0,-0.11342 -0.44413,-0.7254 -0.52435,-0.72251 -0.0421,0.002 -0.52721,0.22857 -1.07802,0.50457 l -1.00149,0.5018 -0.013,0.3932598 c -0.0119,0.35974 0.003,0.51157 0.0503,0.51157 0.01,0 0.53624,-0.22812 1.1698,-0.50694 z"
     id="path4321"
     inkscape:connector-curvature="0" />
</svg>
