<?xml version="1.0" encoding="UTF-8" standalone="no"?>
<!-- Created with Inkscape (http://www.inkscape.org/) -->

<svg
   xmlns:dc="http://purl.org/dc/elements/1.1/"
   xmlns:cc="http://creativecommons.org/ns#"
   xmlns:rdf="http://www.w3.org/1999/02/22-rdf-syntax-ns#"
   xmlns:svg="http://www.w3.org/2000/svg"
   xmlns="http://www.w3.org/2000/svg"
   xmlns:sodipodi="http://sodipodi.sourceforge.net/DTD/sodipodi-0.dtd"
   xmlns:inkscape="http://www.inkscape.org/namespaces/inkscape"
   version="1.1"
   width="24"
   height="24"
   id="svg4460"
   inkscape:version="0.91 r13725"
   sodipodi:docname="help-rarrow.svg">
  <sodipodi:namedview
     pagecolor="#ffffff"
     bordercolor="#666666"
     borderopacity="1"
     objecttolerance="10"
     gridtolerance="10"
     guidetolerance="10"
     inkscape:pageopacity="0"
     inkscape:pageshadow="2"
     inkscape:window-width="1280"
     inkscape:window-height="972"
     id="namedview11"
     showgrid="false"
     inkscape:zoom="4.9166667"
     inkscape:cx="-30.305537"
     inkscape:cy="52.487892"
     inkscape:window-x="-8"
     inkscape:window-y="-8"
     inkscape:window-maximized="1"
     inkscape:current-layer="svg4460" />
  <defs
     id="defs4462">
    <clipPath
       id="a">
      <path
         id="path4138"
         d="M0 841.89h595.28V0H0v841.89z" />
    </clipPath>
  </defs>
  <metadata
     id="metadata4465">
    <rdf:RDF>
      <cc:Work
         rdf:about="">
        <dc:format>image/svg+xml</dc:format>
        <dc:type
           rdf:resource="http://purl.org/dc/dcmitype/StillImage" />
        <dc:title></dc:title>
      </cc:Work>
    </rdf:RDF>
  </metadata>
  <g
     id="g4140"
     transform="matrix(0,0.27079299,0.27396461,0,-164.40911,-21.599651)"
     clip-path="url(#a)"
     style="fill:#000000">
    <path
       id="path4142"
       d="m 166.61,605.02 c -32.454,8.048 -57.946,35.637 -63.59,68.564 -0.543,3.165 -5.363,1.823 -4.822,-1.33 5.923,-34.547 33.09,-63.626 67.083,-72.055 3.124,-0.776 4.456,4.045 1.33,4.82"
       inkscape:connector-curvature="0"
       style="fill:#000000" />
    <path
       id="path4144"
       d="m 84.543,653.35 c 6.908,9.667 12.905,19.876 17.984,30.617 l -4.317,0 c 5.145,-7.842 11.465,-14.493 18.987,-20.095 2.582,-1.923 5.077,2.415 2.523,4.317 -6.81,5.07 -12.537,11.204 -17.193,18.3 -0.945,1.44 -3.465,1.804 -4.318,0 -5.08,-10.74 -11.076,-20.95 -17.984,-30.616 -1.875,-2.623 2.46,-5.122 4.317,-2.524"
       inkscape:connector-curvature="0"
       style="fill:#000000" />
  </g>
</svg>
