<?xml version="1.0" encoding="UTF-8" standalone="no"?>
<!-- Created with Inkscape (http://www.inkscape.org/) -->

<svg
   xmlns:dc="http://purl.org/dc/elements/1.1/"
   xmlns:cc="http://creativecommons.org/ns#"
   xmlns:rdf="http://www.w3.org/1999/02/22-rdf-syntax-ns#"
   xmlns:svg="http://www.w3.org/2000/svg"
   xmlns="http://www.w3.org/2000/svg"
   xmlns:sodipodi="http://sodipodi.sourceforge.net/DTD/sodipodi-0.dtd"
   xmlns:inkscape="http://www.inkscape.org/namespaces/inkscape"
   version="1.1"
   width="24"
   height="24"
   id="svg4460"
   inkscape:version="0.91 r13725"
   sodipodi:docname="ign-poi.svg">
  <sodipodi:namedview
     pagecolor="#ffffff"
     bordercolor="#666666"
     borderopacity="1"
     objecttolerance="10"
     gridtolerance="10"
     guidetolerance="10"
     inkscape:pageopacity="0"
     inkscape:pageshadow="2"
     inkscape:window-width="1280"
     inkscape:window-height="972"
     id="namedview11"
     showgrid="false"
     inkscape:zoom="19.666667"
     inkscape:cx="12.685657"
     inkscape:cy="9.5677519"
     inkscape:window-x="-8"
     inkscape:window-y="-8"
     inkscape:window-maximized="1"
     inkscape:current-layer="svg4460" />
  <defs
     id="defs4462" />
  <metadata
     id="metadata4465">
    <rdf:RDF>
      <cc:Work
         rdf:about="">
        <dc:format>image/svg+xml</dc:format>
        <dc:type
           rdf:resource="http://purl.org/dc/dcmitype/StillImage" />
        <dc:title />
      </cc:Work>
    </rdf:RDF>
  </metadata>
  <path
     id="path4135"
     style="fill:#5b257a"
     d="m 11.51375,13.179215 c 1.208499,0.139654 2.342574,-0.230698 3.208823,-1.04787 0.879492,-0.829667 1.275096,-1.741174 1.275096,-2.9379197 0,-1.2116237 -0.39957,-2.1192255 -1.305424,-2.9651905 C 14.291995,5.8544453 13.765695,5.5474349 13.191984,5.3530831 12.722886,5.1941331 11.683238,5.154551 11.125583,5.2743411 10.504698,5.4077163 9.765814,5.7946233 9.29843,6.2311038 8.4238677,7.0478546 8.0047159,8.0076147 8.0047159,9.1934251 c 0,0.710903 0.1035734,1.1561289 0.4199859,1.8053769 0.2301688,0.472276 0.3164328,0.590059 0.7465304,1.019298 0.3744368,0.373688 0.5798702,0.533509 0.8931348,0.694834 0.51612,0.265778 0.965598,0.410364 1.449383,0.466281 z m 0.227072,9.726998 C 11.65593,22.854421 11.274751,22.482648 10.893753,22.079993 7.9753202,18.995718 5.9380943,15.995484 4.8321889,13.153071 4.4994753,12.297931 4.3761037,11.866079 4.2458086,11.100506 3.8462515,8.7528471 4.3244954,6.4598307 5.6205066,4.5092629 6.1138167,3.7667988 7.1145208,2.7601694 7.8289201,2.2877648 10.435679,0.56400796 13.576488,0.57117636 16.195172,2.3068315 c 0.679562,0.4504229 1.690211,1.474414 2.171303,2.1999655 0.880925,1.3285539 1.350303,2.6921977 1.492895,4.3371852 0.116379,1.3425788 -0.0836,2.6532388 -0.627505,4.1127298 -1.057846,2.838571 -2.980619,5.671789 -6.292288,9.271735 -0.739304,0.803661 -0.870569,0.877875 -1.198755,0.677738 z" />
</svg>
