<?xml version="1.0" encoding="UTF-8" standalone="no"?>
<!-- Created with Inkscape (http://www.inkscape.org/) -->

<svg
   xmlns:dc="http://purl.org/dc/elements/1.1/"
   xmlns:cc="http://creativecommons.org/ns#"
   xmlns:rdf="http://www.w3.org/1999/02/22-rdf-syntax-ns#"
   xmlns:svg="http://www.w3.org/2000/svg"
   xmlns="http://www.w3.org/2000/svg"
   xmlns:sodipodi="http://sodipodi.sourceforge.net/DTD/sodipodi-0.dtd"
   xmlns:inkscape="http://www.inkscape.org/namespaces/inkscape"
   version="1.1"
   width="24"
   height="24"
   id="svg4460"
   inkscape:version="0.91 r13725"
   sodipodi:docname="ign-voiture.svg">
  <sodipodi:namedview
     pagecolor="#ffffff"
     bordercolor="#666666"
     borderopacity="1"
     objecttolerance="10"
     gridtolerance="10"
     guidetolerance="10"
     inkscape:pageopacity="0"
     inkscape:pageshadow="2"
     inkscape:window-width="1280"
     inkscape:window-height="972"
     id="namedview11"
     showgrid="false"
     inkscape:zoom="13.906433"
     inkscape:cx="-1.8930733"
     inkscape:cy="18.182091"
     inkscape:window-x="-8"
     inkscape:window-y="-8"
     inkscape:window-maximized="1"
     inkscape:current-layer="svg4460" />
  <defs
     id="defs4462" />
  <metadata
     id="metadata4465">
    <rdf:RDF>
      <cc:Work
         rdf:about="">
        <dc:format>image/svg+xml</dc:format>
        <dc:type
           rdf:resource="http://purl.org/dc/dcmitype/StillImage" />
        <dc:title></dc:title>
      </cc:Work>
    </rdf:RDF>
  </metadata>
  <path
     style="fill:#f49e0b"
     d="M 5.9876049,18.459177 C 5.3094366,18.22822 4.7702349,17.77761 4.4089857,17.139915 l -0.1693083,-0.298861 -0.52272,-0.06058 C 2.707634,16.663484 2.3289773,16.500826 1.8312274,15.970418 1.4981565,15.615492 1.2605015,15.148351 1.107739,14.548303 1.0065573,14.150875 0.99895818,14.023046 1.0000948,12.736665 1.0010115,11.331054 1.0933382,10.017534 1.2391065,9.3242932 1.6474815,7.3821249 3.2462307,6.0450519 5.5426274,5.7251573 7.1367566,5.5030911 9.1544775,5.3861088 10.687145,5.4268922 c 2.220799,0.059098 3.641284,0.3278771 4.762358,0.901132 0.405699,0.2074536 0.561385,0.3274773 1.18503,0.9135986 1.782532,1.675268 2.316371,2.076735 3.347484,2.5174416 1.702754,0.7277696 2.560873,1.5791606 2.904907,2.8821496 0.139398,0.527941 0.152864,1.803168 0.02392,2.26696 -0.201611,0.725295 -0.572843,1.221725 -1.112127,1.487215 -0.294791,0.145122 -0.351863,0.155386 -1.082024,0.194605 -0.42395,0.02277 -0.926778,0.05285 -1.117399,0.06684 l -0.346591,0.02544 -0.177256,0.365746 c -0.333905,0.688965 -1.035971,1.266476 -1.780497,1.46461 -0.342073,0.09103 -1.09681,0.08971 -1.450964,-0.0026 -0.679654,-0.177024 -1.319533,-0.670574 -1.700261,-1.311422 l -0.203803,-0.343059 -2.222962,0.03436 c -1.222632,0.01889 -2.237025,0.04247 -2.2542033,0.05238 -0.017142,0.0099 -0.095544,0.13078 -0.1741392,0.268586 -0.32648,0.572429 -0.8605942,1.01091 -1.5043325,1.234997 -0.337975,0.117648 -0.4604875,0.135754 -0.9151909,0.13525 -0.43615,-4.81e-4 -0.58531,-0.02113 -0.8815033,-0.121997 z M 7.6230117,17.449171 C 8.3519908,17.10804 8.79838,16.287072 8.6608067,15.540534 8.5474059,14.92515 8.1779983,14.441836 7.6184375,14.17675 7.3328958,14.041477 7.2526325,14.025251 6.8691083,14.025251 c -0.3838358,0 -0.4636683,0.01617 -0.750475,0.152036 -1.1152075,0.528297 -1.4046634,1.950473 -0.57706,2.835251 0.4184216,0.447326 0.85712,0.629123 1.4370033,0.595493 0.2537517,-0.01471 0.4284134,-0.05778 0.6444351,-0.15886 z m 9.7433333,-0.02959 c 0.414233,-0.204723 0.639192,-0.438589 0.854911,-0.888743 0.130396,-0.272122 0.148656,-0.360032 0.148656,-0.715883 0,-0.354218 -0.0187,-0.445295 -0.147556,-0.718142 -0.256786,-0.543803 -0.628934,-0.866178 -1.184141,-1.025772 -0.828373,-0.238116 -1.734086,0.19689 -2.118765,1.017624 -0.110605,0.235971 -0.127912,0.33425 -0.127912,0.72629 0,0.39122 0.01742,0.490533 0.126968,0.724242 0.329111,0.702045 0.993071,1.109941 1.74647,1.072922 0.281701,-0.01384 0.412399,-0.04972 0.701369,-0.192538 z m -4.125926,-1.549921 0.501068,-0.03084 0.06013,-0.395822 c 0.167539,-1.102265 0.856643,-1.93332 1.883851,-2.271919 0.990146,-0.326381 2.031067,-0.10264 2.779434,0.597427 0.483285,0.452086 0.732957,0.909396 0.856707,1.569196 l 0.05821,0.310216 0.831866,-0.01506 c 0.457526,-0.0083 0.907041,-0.03778 0.99891,-0.06556 0.557947,-0.1687 0.812175,-0.716743 0.810507,-1.747227 C 22.019302,12.839123 21.806666,12.258344 21.23946,11.68725 20.83734,11.282365 20.5201,11.084038 19.634903,10.684132 18.333483,10.096188 17.745368,9.6618754 15.991877,7.9938267 15.4117,7.4419255 15.277564,7.3393376 14.894187,7.1543396 13.707928,6.5819088 12.225797,6.3820654 9.5049009,6.4276741 7.4759325,6.4616824 5.7359433,6.619174 4.9836258,6.8369007 3.5359157,7.2558779 2.5462915,8.1651471 2.2428932,9.3550859 2.0827057,9.9833184 1.9028007,12.318469 1.9437482,13.237785 c 0.059308,1.330973 0.3662908,2.044759 1.0237242,2.380157 0.1914366,0.09766 0.9170792,0.226197 1.0307458,0.182579 0.040333,-0.01549 0.07865,-0.139559 0.099257,-0.321931 0.070767,-0.625627 0.3558592,-1.19559 0.8345425,-1.668514 0.5202267,-0.513974 1.1758726,-0.778536 1.9370726,-0.781631 0.4768683,-0.0019 0.8068775,0.07548 1.264725,0.296688 0.8434067,0.407493 1.5232892,1.443099 1.5265067,2.325175 3.85e-4,0.106309 0.024658,0.217204 0.053808,0.246434 0.055275,0.05527 2.4925,0.03655 3.526225,-0.02708 z"
     id="path4295"
     inkscape:connector-curvature="0" />
</svg>
