<?xml version="1.0" encoding="UTF-8" standalone="no"?>
<!-- Created with Inkscape (http://www.inkscape.org/) -->

<svg
   xmlns:dc="http://purl.org/dc/elements/1.1/"
   xmlns:cc="http://creativecommons.org/ns#"
   xmlns:rdf="http://www.w3.org/1999/02/22-rdf-syntax-ns#"
   xmlns:svg="http://www.w3.org/2000/svg"
   xmlns="http://www.w3.org/2000/svg"
   xmlns:sodipodi="http://sodipodi.sourceforge.net/DTD/sodipodi-0.dtd"
   xmlns:inkscape="http://www.inkscape.org/namespaces/inkscape"
   version="1.1"
   width="24"
   height="24"
   id="svg4460"
   inkscape:version="0.91 r13725"
   sodipodi:docname="ign-map.svg">
  <sodipodi:namedview
     pagecolor="#ffffff"
     bordercolor="#666666"
     borderopacity="1"
     objecttolerance="10"
     gridtolerance="10"
     guidetolerance="10"
     inkscape:pageopacity="0"
     inkscape:pageshadow="2"
     inkscape:window-width="1280"
     inkscape:window-height="972"
     id="namedview11"
     showgrid="false"
     inkscape:zoom="9.8333333"
     inkscape:cx="1.0233258"
     inkscape:cy="12.648751"
     inkscape:window-x="-8"
     inkscape:window-y="-8"
     inkscape:window-maximized="1"
     inkscape:current-layer="svg4460" />
  <defs
     id="defs4462" />
  <metadata
     id="metadata4465">
    <rdf:RDF>
      <cc:Work
         rdf:about="">
        <dc:format>image/svg+xml</dc:format>
        <dc:type
           rdf:resource="http://purl.org/dc/dcmitype/StillImage" />
        <dc:title></dc:title>
      </cc:Work>
    </rdf:RDF>
  </metadata>
  <path
     style="fill:#d2036e"
     d="M 0.1612844,23.152942 C 0.0944844,23.086112 0.0220644,22.960848 4.1440236e-4,22.874577 -0.0393856,22.715847 2.8097344,10.390505 2.9450444,10.136238 c 0.14,-0.2630823 0.20135,-0.2729233 1.71399,-0.2749613 1.35782,-0.0018 1.4634,0.0061 1.60844,0.120145 0.19538,0.1536913 0.25924,0.3986053 0.16393,0.6287093 -0.12983,0.313452 -0.30822,0.356861 -1.46655,0.356861 -0.93442,0 -1.05316,0.01158 -1.10405,0.10769 -0.0986,0.186107 -2.60305,10.965184 -2.56285,11.03023 0.0254,0.04108 3.62434,0.06187 10.7113296,0.06187 l 10.67309,0 0,-0.154356 c 0,-0.0849 -0.63691,-2.701539 -1.41536,-5.814762 -0.77845,-3.113224 -1.41536,-5.74497 -1.41536,-5.848327 0,-0.4282243 0.55417,-0.6477943 0.88728,-0.3515563 0.13923,0.1238183 0.32187,0.8040413 1.72712,6.4327573 1.02615,4.110191 1.55813,6.347286 1.5331,6.447005 -0.0211,0.08399 -0.10818,0.207653 -0.19356,0.274809 -0.15357,0.120802 -0.27945,0.122101 -11.83901,0.122101 -11.5515696,0 -11.6851596,-0.0014 -11.8052996,-0.121509 z m 9.7166,-3.01216 -0.17988,-0.179878 0,-3.877951 c 0,-3.035874 -0.0167,-3.888319 -0.0769,-3.925694 -0.0423,-0.02626 -0.24933,-0.108058 -0.46004,-0.181777 -0.79457,-0.277986 -1.48129,-0.944238 -1.80628,-1.752454 -0.18893,-0.4698543 -0.2326,-1.3812893 -0.0897,-1.8727333 0.16591,-0.570689 0.38811,-0.949765 0.79481,-1.35593 1.73938,-1.737091 4.7221496,-0.738731 5.0942796,1.705103 0.12766,0.838352 -0.15465,1.7931723 -0.72342,2.4466923 -0.30185,0.346825 -0.86996,0.714165 -1.31107,0.847737 -0.1896,0.05741 -0.37933,0.130151 -0.42164,0.161646 -0.0601,0.04476 -0.0769,0.909407 -0.0769,3.960145 l 0,3.902881 -0.15105,0.151045 c -0.19914,0.199145 -0.3726,0.190699 -0.5921296,-0.02883 z M 11.065134,11.09689 c 0.44914,-0.218979 0.82199,-0.584405 1.03059,-1.010044 0.40876,-0.8340853 0.28418,-1.7005543 -0.3417,-2.3765863 -0.4873,-0.526342 -0.88307,-0.705796 -1.56482,-0.709543 -0.4710896,-0.0026 -0.5656996,0.01756 -0.9344296,0.198997 -0.50571,0.248842 -0.91481,0.684954 -1.0978,1.170304 -0.18609,0.493567 -0.15048,1.262615 0.0789,1.7046833 0.22398,0.431608 0.69203,0.867247 1.12831,1.05017 0.48378,0.20284 1.2534696,0.190178 1.7009196,-0.02798 z m 6.05686,3.681302 -0.16169,-0.127186 -0.0158,-3.946831 -0.0158,-3.9468303 -0.46153,-0.157403 c -1.09096,-0.372068 -1.85161,-1.266386 -2.03823,-2.396397 -0.22674,-1.37295 0.62513,-2.842751 1.91042,-3.29623095 1.66215,-0.58644 3.4485,0.29440595 3.9508,1.94813495 0.17093,0.56273 0.14171,1.442426 -0.0657,1.977766 -0.29388,0.758554 -1.01666,1.466992 -1.76791,1.732844 -0.16341,0.05783 -0.35942,0.129578 -0.43557,0.159448 l -0.13846,0.05431 0,3.9117353 0,3.911735 -0.15105,0.151045 c -0.18447,0.184477 -0.39476,0.19271 -0.60942,0.02386 z m 1.19588,-9.0883173 c 0.43437,-0.214049 0.75347,-0.522543 0.97986,-0.947296 0.16792,-0.315059 0.21163,-0.474519 0.23322,-0.850816 0.0316,-0.550907 -0.0374,-0.839908 -0.30835,-1.29171 -0.52978,-0.883367 -1.73107,-1.267544 -2.64917,-0.847221 -0.48707,0.222988 -0.91435,0.642348 -1.1285,1.107587 -0.14748,0.320403 -0.17669,0.464792 -0.17715,0.875941 -4.9e-4,0.410972 0.0279,0.553293 0.17174,0.861522 0.223,0.47786 0.59638,0.861324 1.05835,1.086923 0.34158,0.166808 0.413,0.178943 0.95383,0.162066 0.4565,-0.01425 0.6463,-0.04865 0.86617,-0.156996 z m -4.21448,5.0877833 c -0.26365,-0.313322 -0.1981,-0.7084 0.14714,-0.8869323 0.24493,-0.126661 0.97463,-0.124706 1.1571,0.0031 0.2372,0.1661433 0.33889,0.4325733 0.25831,0.6767523 -0.10843,0.328543 -0.25714,0.396412 -0.86857,0.396412 -0.5215,0 -0.5386,-0.0047 -0.69398,-0.189334 z"
     id="path4269"
     inkscape:connector-curvature="0" />
</svg>
