<?xml version="1.0" encoding="UTF-8" standalone="no"?>
<!-- Created with Inkscape (http://www.inkscape.org/) -->

<svg
   xmlns:dc="http://purl.org/dc/elements/1.1/"
   xmlns:cc="http://creativecommons.org/ns#"
   xmlns:rdf="http://www.w3.org/1999/02/22-rdf-syntax-ns#"
   xmlns:svg="http://www.w3.org/2000/svg"
   xmlns="http://www.w3.org/2000/svg"
   xmlns:sodipodi="http://sodipodi.sourceforge.net/DTD/sodipodi-0.dtd"
   xmlns:inkscape="http://www.inkscape.org/namespaces/inkscape"
   version="1.1"
   width="24"
   height="24"
   id="svg4460"
   inkscape:version="0.91 r13725"
   sodipodi:docname="ign-poi.svg">
  <sodipodi:namedview
     pagecolor="#ffffff"
     bordercolor="#666666"
     borderopacity="1"
     objecttolerance="10"
     gridtolerance="10"
     guidetolerance="10"
     inkscape:pageopacity="0"
     inkscape:pageshadow="2"
     inkscape:window-width="1280"
     inkscape:window-height="972"
     id="namedview11"
     showgrid="false"
     inkscape:zoom="19.666667"
     inkscape:cx="7.9908489"
     inkscape:cy="16.484749"
     inkscape:window-x="-8"
     inkscape:window-y="-8"
     inkscape:window-maximized="1"
     inkscape:current-layer="svg4460" />
  <defs
     id="defs4462" />
  <metadata
     id="metadata4465">
    <rdf:RDF>
      <cc:Work
         rdf:about="">
        <dc:format>image/svg+xml</dc:format>
        <dc:type
           rdf:resource="http://purl.org/dc/dcmitype/StillImage" />
        <dc:title></dc:title>
      </cc:Work>
    </rdf:RDF>
  </metadata>
  <path
     style="fill:#5b257a"
     d="M 11.740822,22.906213 C 11.65593,22.854421 11.274751,22.482648 10.893753,22.079993 7.9753202,18.995718 5.9380943,15.995484 4.8321889,13.153071 4.4994753,12.297931 4.3761037,11.866079 4.2458086,11.100506 3.8462515,8.7528471 4.3244954,6.4598307 5.6205066,4.5092629 6.1138167,3.7667988 7.1145208,2.7601694 7.8289201,2.2877648 10.435679,0.56400796 13.576488,0.57117636 16.195172,2.3068315 c 0.679562,0.4504229 1.690211,1.474414 2.171303,2.1999655 0.880925,1.3285539 1.350303,2.6921977 1.492895,4.3371852 0.116379,1.3425788 -0.0836,2.6532388 -0.627505,4.1127298 -1.057846,2.838571 -2.980619,5.671789 -6.292288,9.271735 -0.739304,0.803661 -0.870569,0.877875 -1.198755,0.677738 z m 1.227696,-2.275215 c 2.196884,-2.473471 3.613723,-4.48024 4.641467,-6.574065 0.943469,-1.922123 1.268607,-3.21512 1.210197,-4.8126509 C 18.773615,7.9707005 18.564949,7.140988 18.001224,5.987921 16.814102,3.5597327 14.510848,2.0486245 11.996878,2.0486245 c -2.885308,0 -5.4783397,2.0104812 -6.4559849,5.0055826 -0.2844255,0.8713567 -0.3536394,1.3462639 -0.3562464,2.444349 -0.00202,0.8628039 0.015098,1.1035029 0.1130306,1.5865499 0.5780598,2.851258 2.9178776,6.629083 6.3864357,10.311429 l 0.285317,0.302894 0.158586,-0.150333 c 0.08722,-0.08268 0.465448,-0.495826 0.840502,-0.918098 z M 11.51375,13.179215 C 11.029965,13.123298 10.580487,12.978712 10.064367,12.712934 9.7511024,12.551609 9.545669,12.391788 9.1712322,12.0181 8.7411346,11.588861 8.6548706,11.471078 8.4247018,10.998802 8.1082893,10.349554 8.0047159,9.9043281 8.0047159,9.1934251 c 0,-1.1858104 0.4191518,-2.1455705 1.2937141,-2.9623213 0.467384,-0.4364805 1.206268,-0.8233875 1.827153,-0.9567627 0.557655,-0.1197901 1.597303,-0.080208 2.066401,0.078742 0.573711,0.1943518 1.100011,0.5013622 1.500261,0.8751517 0.905854,0.845965 1.305424,1.7535668 1.305424,2.9651905 0,1.1967457 -0.395604,2.1082527 -1.275096,2.9379197 -0.866249,0.817172 -2.000324,1.187524 -3.208823,1.04787 z m 1.43624,-1.177579 c 0.920881,-0.33671 1.560408,-0.987068 1.880041,-1.911866 0.0964,-0.2788959 0.115807,-0.4376629 0.112698,-0.9217729 C 14.939521,8.6705396 14.919611,8.5319394 14.809353,8.2403108 14.43,7.2369356 13.704378,6.5746983 12.703973,6.318838 12.487931,6.263563 12.169738,6.2183713 11.996878,6.2183713 c -0.409259,0 -1.019428,0.1584001 -1.414494,0.3671987 C 10.175791,6.8004552 9.6039058,7.3723366 9.3890187,7.7789337 9.297572,7.9519547 9.1775444,8.2702858 9.1222895,8.486326 c -0.414331,1.620027 0.6360977,3.268617 2.3151775,3.63356 0.367877,0.07993 1.134346,0.02008 1.512523,-0.11825 z"
     id="path4256"
     inkscape:connector-curvature="0" />
</svg>
