<?xml version="1.0" encoding="UTF-8" standalone="no"?>
<!-- Created with Inkscape (http://www.inkscape.org/) -->

<svg
   xmlns:dc="http://purl.org/dc/elements/1.1/"
   xmlns:cc="http://creativecommons.org/ns#"
   xmlns:rdf="http://www.w3.org/1999/02/22-rdf-syntax-ns#"
   xmlns:svg="http://www.w3.org/2000/svg"
   xmlns="http://www.w3.org/2000/svg"
   xmlns:sodipodi="http://sodipodi.sourceforge.net/DTD/sodipodi-0.dtd"
   xmlns:inkscape="http://www.inkscape.org/namespaces/inkscape"
   version="1.1"
   width="24"
   height="24"
   id="svg4460"
   inkscape:version="0.91 r13725"
   sodipodi:docname="ign-ville.svg">
  <sodipodi:namedview
     pagecolor="#ffffff"
     bordercolor="#666666"
     borderopacity="1"
     objecttolerance="10"
     gridtolerance="10"
     guidetolerance="10"
     inkscape:pageopacity="0"
     inkscape:pageshadow="2"
     inkscape:window-width="1280"
     inkscape:window-height="972"
     id="namedview11"
     showgrid="false"
     inkscape:zoom="9.8333333"
     inkscape:cx="1.0233258"
     inkscape:cy="12.648751"
     inkscape:window-x="-8"
     inkscape:window-y="-8"
     inkscape:window-maximized="1"
     inkscape:current-layer="svg4460" />
  <defs
     id="defs4462" />
  <metadata
     id="metadata4465">
    <rdf:RDF>
      <cc:Work
         rdf:about="">
        <dc:format>image/svg+xml</dc:format>
        <dc:type
           rdf:resource="http://purl.org/dc/dcmitype/StillImage" />
        <dc:title></dc:title>
      </cc:Work>
    </rdf:RDF>
  </metadata>
  <path
     style="fill:#99c227"
     d="m 23.454673,18.28056 c -0.0536,-0.0301 -0.11394,-0.0855 -0.1341,-0.12314 -0.0244,-0.0456 -0.0368,-1.39967 -0.0372,-4.049 -2.9e-4,-2.18928 -0.0131,-4.00021 -0.0284,-4.02429 -0.0213,-0.0334 -0.48195,-0.0461 -1.95126,-0.0536 l -1.92344,-0.01 -0.10432,-0.1167797 -0.10433,-0.11678 0,-1.21085 c 0,-0.98684 -0.009,-1.21844 -0.0494,-1.25188 -0.034,-0.0282 -0.2381,-0.0379 -0.65259,-0.0312 l -0.60317,0.01 -0.0179,4.8274297 c -0.0189,5.09365 -0.0133,4.93552 -0.17727,5.02328 -0.093,0.0498 -2.73495,0.0498 -2.828,0 -0.14963,-0.0801 -0.15866,-0.14927 -0.17726,-1.35801 l -0.0179,-1.16216 -0.69729,-0.0179 c -0.71896,-0.0184 -0.81875,-0.0382 -0.89315,-0.17726 -0.0234,-0.0437 -0.0366,-0.65562 -0.0366,-1.69803 l 0,-1.62969 -0.20365,-0.22318 c -0.45899,-0.50303 -1.38324,-1.4568597 -1.41167,-1.4568597 -0.0168,0 -0.3519,0.30692 -0.74471,0.6820297 l -0.7142005,0.68202 -0.009,3.54045 -0.009,3.54044 -0.11678,0.10434 -0.11678,0.10434 -1.00012,0 -1.00011,0 -0.11678,-0.10434 -0.11678,-0.10434 -0.0179,-5.7154 -0.0179,-5.7153897 -1.47505,-0.009 -1.47505,-0.009 0,2.55829 c 0,2.7559497 8.8e-4,2.7423697 -0.1847,2.8481297 -0.065,0.037 -0.46342,0.0515 -1.79991,0.0655 l -1.71641998,0.0179 -0.0179,2.95616 -0.0179,2.95617 -0.083,0.0883 c -0.17643,0.18777 -0.50054,0.13463 -0.59774,-0.098 -0.0749,-0.17921 -0.0789,-6.25265 -0.004,-6.43121 0.0969,-0.2317 0.008,-0.22061 1.91515998,-0.24023 l 1.73777,-0.0179 0.0179,-2.6222697 0.0179,-2.62228 0.11678,-0.10432 0.11678,-0.10433 1.95722,5.2e-4 c 1.49266,4e-4 1.97845,0.0111 2.04663,0.0452 0.0492,0.0246 0.11753,0.10076 0.15192,0.16933 0.0587,0.1171 0.0625,0.46752 0.0626,5.7844797 l 6e-5,5.65983 0.49168,-0.01 0.49169,-0.01 0.0179,-3.39708 c 0.01,-1.86839 0.0311,-3.42383 0.0473,-3.45654 0.0491,-0.0992 1.9664505,-1.8953697 2.0624405,-1.9321597 0.20703,-0.0793 0.29447,-0.01 1.27062,1.01434 0.51027,0.5352097 0.98024,1.0359097 1.04437,1.1126697 l 0.1166,0.13957 0,1.50921 c 0,1.12615 0.0109,1.5201 0.0429,1.55212 0.0303,0.0303 0.2405,0.0429 0.71752,0.0429 0.39144,0 0.70331,0.0154 0.74296,0.0366 0.14964,0.0801 0.15867,0.14927 0.17727,1.35802 l 0.0179,1.16215 0.82246,0 0.82245,0 0.0179,-4.83402 0.0179,-4.8340297 0.10502,-0.10962 0.10503,-0.10962 1.1761,0 1.1761,0 0.10452,0.10453 0.10453,0.10453 0,1.19774 c 0,0.65876 0.01,1.2232 0.0217,1.25431 0.0194,0.0506 0.22327,0.0566 1.93455,0.0566 l 1.91284,0 0.12158,0.12158 0.12158,0.12158 0,4.2761797 0,4.27618 -0.0983,0.10908 c -0.11866,0.13163 -0.30362,0.16828 -0.44608,0.0884 z M 1.4945125,17.84004 c -0.0786,-0.0868 -0.0753,-0.26655 0.006,-0.34029 0.0581,-0.0526 0.19786,-0.0592 1.24953,-0.0592 1.18311,0 1.18418,6e-5 1.2398,0.0795 0.0759,0.10841 0.0699,0.22814 -0.0159,0.31388 -0.0686,0.0686 -0.1192,0.0715 -1.24601,0.0715 -1.09242,0 -1.17864,-0.005 -1.23368,-0.0654 z m 9.7413105,-0.0288 c -0.0662,-0.0841 -0.0741,-0.14305 -0.0741,-0.54943 0,-0.40639 0.008,-0.46533 0.0741,-0.54944 0.0491,-0.0625 0.1085,-0.0942 0.1762,-0.0942 0.0677,0 0.12705,0.0317 0.17619,0.0942 0.0662,0.0841 0.0741,0.14305 0.0741,0.54944 0,0.40638 -0.008,0.46532 -0.0741,0.54943 -0.0491,0.0625 -0.1085,0.0942 -0.17619,0.0942 -0.0677,0 -0.12706,-0.0317 -0.1762,-0.0942 z m 8.7102,-0.0785 c -0.0868,-0.0959 -0.0761,-0.27626 0.0203,-0.3438 0.0679,-0.0476 0.24615,-0.0557 1.22572,-0.0557 1.28265,0 1.30519,0.004 1.30519,0.22892 0,0.23648 0.003,0.23595 -1.3114,0.23595 -1.09836,0 -1.18475,-0.005 -1.2398,-0.0654 z M 1.5148025,15.8115 c -0.0589,-0.0413 -0.0795,-0.0916 -0.0795,-0.19465 0,-0.24946 0.004,-0.25031 1.29045,-0.25031 1.09056,0 1.13491,0.003 1.22572,0.0741 0.0625,0.0491 0.0942,0.1085 0.0942,0.17619 0,0.0677 -0.0317,0.12706 -0.0942,0.1762 -0.0908,0.0714 -0.13516,0.0741 -1.22572,0.0741 -0.96622,0 -1.14311,-0.008 -1.21098,-0.0557 z m 18.4893205,0.0199 c -0.16022,-0.066 -0.14977,-0.36918 0.0149,-0.43178 0.0582,-0.0221 0.53208,-0.0319 1.2356,-0.0256 1.08192,0.01 1.14382,0.0139 1.1919,0.0798 0.0649,0.0889 0.0649,0.23717 0,0.32603 -0.0482,0.066 -0.10828,0.0698 -1.20686,0.0768 -0.63587,0.004 -1.19186,-0.007 -1.23552,-0.0253 z m -8.75733,-0.80564 c -0.0895,-0.0895 -0.0903,-0.096 -0.0788,-0.59298 0.0104,-0.44847 0.0191,-0.50798 0.081,-0.5532 0.0382,-0.0279 0.11153,-0.0507 0.16302,-0.0507 0.0515,0 0.12484,0.0228 0.16301,0.0507 0.062,0.0452 0.0707,0.10473 0.081,0.5532 0.0115,0.49698 0.0106,0.50352 -0.0788,0.59298 -0.0498,0.0497 -0.1241,0.0905 -0.16522,0.0905 -0.0411,0 -0.11548,-0.0407 -0.16523,-0.0905 z M 1.4945125,13.72775 c -0.0786,-0.0868 -0.0753,-0.26655 0.006,-0.34029 0.058,-0.0525 0.19676,-0.0592 1.23368,-0.0592 1.1206,0 1.1712,0.003 1.2398,0.0715 0.0857,0.0857 0.0918,0.20547 0.0159,0.31387 -0.0556,0.0794 -0.0565,0.0795 -1.24601,0.0795 -1.10778,0 -1.19446,-0.005 -1.24953,-0.0654 z m 18.4515105,0 c -0.0868,-0.0959 -0.0761,-0.27627 0.0203,-0.34381 0.0679,-0.0476 0.24615,-0.0557 1.22572,-0.0557 1.28265,0 1.30519,0.004 1.30519,0.22891 0,0.23648 0.003,0.23595 -1.3114,0.23595 -1.09836,0 -1.18475,-0.005 -1.2398,-0.0654 z m -8.63,-1.43706 c -0.12916,-0.0515 -0.15434,-0.152 -0.15379,-0.61391 6.5e-4,-0.53958 0.0291,-0.61468 0.23833,-0.63002 0.23255,-0.017 0.26177,0.0525 0.26177,0.62273 0,0.39699 -0.01,0.48217 -0.0626,0.5432 -0.0779,0.09 -0.18183,0.11862 -0.28373,0.078 z m 8.65029,-0.59146 c -0.10019,-0.0702 -0.10803,-0.265 -0.0141,-0.35002 0.0581,-0.0525 0.19761,-0.0592 1.24601,-0.0592 1.09835,0 1.18475,0.005 1.2398,0.0654 0.0868,0.0959 0.0761,0.27626 -0.0203,0.34381 -0.0679,0.0476 -0.24615,0.0557 -1.22572,0.0557 -0.97957,0 -1.1578,-0.008 -1.22572,-0.0557 z"
     id="path4282"
     inkscape:connector-curvature="0" />
</svg>
