<?xml version="1.0" encoding="UTF-8" standalone="no"?>
<!-- Created with Inkscape (http://www.inkscape.org/) -->

<svg
   xmlns:dc="http://purl.org/dc/elements/1.1/"
   xmlns:cc="http://creativecommons.org/ns#"
   xmlns:rdf="http://www.w3.org/1999/02/22-rdf-syntax-ns#"
   xmlns:svg="http://www.w3.org/2000/svg"
   xmlns="http://www.w3.org/2000/svg"
   xmlns:sodipodi="http://sodipodi.sourceforge.net/DTD/sodipodi-0.dtd"
   xmlns:inkscape="http://www.inkscape.org/namespaces/inkscape"
   version="1.1"
   width="24"
   height="24"
   id="svg4460"
   inkscape:version="0.91 r13725"
   sodipodi:docname="layer.svg">
  <sodipodi:namedview
     pagecolor="#ffffff"
     bordercolor="#666666"
     borderopacity="1"
     objecttolerance="10"
     gridtolerance="10"
     guidetolerance="10"
     inkscape:pageopacity="0"
     inkscape:pageshadow="2"
     inkscape:window-width="1280"
     inkscape:window-height="972"
     id="namedview11"
     showgrid="false"
     inkscape:zoom="27.812867"
     inkscape:cx="10.198376"
     inkscape:cy="7.8713692"
     inkscape:window-x="-8"
     inkscape:window-y="-8"
     inkscape:window-maximized="1"
     inkscape:current-layer="svg4460" />
  <defs
     id="defs4462" />
  <metadata
     id="metadata4465">
    <rdf:RDF>
      <cc:Work
         rdf:about="">
        <dc:format>image/svg+xml</dc:format>
        <dc:type
           rdf:resource="http://purl.org/dc/dcmitype/StillImage" />
        <dc:title></dc:title>
      </cc:Work>
    </rdf:RDF>
  </metadata>
  <path
     style="color:#000000;font-style:normal;font-variant:normal;font-weight:normal;font-stretch:normal;font-size:medium;line-height:normal;font-family:sans-serif;text-indent:0;text-align:start;text-decoration:none;text-decoration-line:none;text-decoration-style:solid;text-decoration-color:#000000;letter-spacing:normal;word-spacing:normal;text-transform:none;direction:ltr;block-progression:tb;writing-mode:lr-tb;baseline-shift:baseline;text-anchor:start;white-space:normal;clip-rule:nonzero;display:inline;overflow:visible;visibility:visible;opacity:1;isolation:auto;mix-blend-mode:normal;color-interpolation:sRGB;color-interpolation-filters:linearRGB;solid-color:#000000;solid-opacity:1;fill:#000000;fill-opacity:1;fill-rule:evenodd;stroke:none;stroke-width:1;stroke-linecap:round;stroke-linejoin:round;stroke-miterlimit:4;stroke-dasharray:none;stroke-dashoffset:0;stroke-opacity:1;color-rendering:auto;image-rendering:auto;shape-rendering:auto;text-rendering:auto;enable-background:accumulate"
     d="M 7.0779856,4.7607425 C 6.7005748,4.7605564 6.3326572,4.9405109 6.0857981,5.2197268 L 0.88267306,11.094727 A 0.50005,0.50005 0 0 0 0.88071994,11.094727 L 0.88071994,11.09668 C 0.47444315,11.558377 0.416195,12.176371 0.59751681,12.670899 0.76989147,13.141025 1.267739,13.603913 1.8690012,13.606446 L 1.8709544,13.606446 22.126814,13.606446 C 22.73436,13.60642 23.235838,13.135783 23.406111,12.661133 23.585166,12.162008 23.521486,11.53787 23.103377,11.079102 A 0.50005,0.50005 0 0 0 23.103377,11.077149 0.50005,0.50005 0 0 0 23.101423,11.077149 L 17.72447,5.2080081 C 17.478734,4.9401808 17.120527,4.7691436 16.753767,4.7685549 L 7.0779856,4.7607425 Z M 2.7615794,14.606446 0.88267306,16.72754 A 0.50005,0.50005 0 0 0 0.88071994,16.72754 L 0.88071994,16.729493 C 0.47444314,17.19119 0.41619501,17.809183 0.59751681,18.303711 0.76989151,18.773838 1.267739,19.236725 1.8690012,19.239258 L 1.8709544,19.239258 22.126814,19.239258 C 22.73436,19.239232 23.235838,18.768596 23.406111,18.293946 23.585166,17.794821 23.521486,17.170683 23.103377,16.711915 A 0.50005,0.50005 0 0 0 23.103377,16.709961 0.50005,0.50005 0 0 0 23.101423,16.709961 L 21.173689,14.606446 18.462752,14.606446 20.874861,17.239258 3.1014231,17.239258 5.4334544,14.606446 2.7615794,14.606446 Z"
     id="path4160"
     inkscape:connector-curvature="0" />
</svg>
