<?xml version="1.0" encoding="UTF-8" standalone="no"?>
<!-- Created with Inkscape (http://www.inkscape.org/) -->

<svg
   xmlns:dc="http://purl.org/dc/elements/1.1/"
   xmlns:cc="http://creativecommons.org/ns#"
   xmlns:rdf="http://www.w3.org/1999/02/22-rdf-syntax-ns#"
   xmlns:svg="http://www.w3.org/2000/svg"
   xmlns="http://www.w3.org/2000/svg"
   xmlns:sodipodi="http://sodipodi.sourceforge.net/DTD/sodipodi-0.dtd"
   xmlns:inkscape="http://www.inkscape.org/namespaces/inkscape"
   version="1.1"
   width="24"
   height="24"
   id="svg4460"
   inkscape:version="0.91 r13725"
   sodipodi:docname="layerstack.svg">
  <sodipodi:namedview
     pagecolor="#ffffff"
     bordercolor="#666666"
     borderopacity="1"
     objecttolerance="10"
     gridtolerance="10"
     guidetolerance="10"
     inkscape:pageopacity="0"
     inkscape:pageshadow="2"
     inkscape:window-width="1280"
     inkscape:window-height="972"
     id="namedview11"
     showgrid="false"
     inkscape:zoom="11.313709"
     inkscape:cx="-13.372398"
     inkscape:cy="18.100417"
     inkscape:window-x="-8"
     inkscape:window-y="-8"
     inkscape:window-maximized="1"
     inkscape:current-layer="svg4460" />
  <defs
     id="defs4462" />
  <metadata
     id="metadata4465">
    <rdf:RDF>
      <cc:Work
         rdf:about="">
        <dc:format>image/svg+xml</dc:format>
        <dc:type
           rdf:resource="http://purl.org/dc/dcmitype/StillImage" />
        <dc:title />
      </cc:Work>
    </rdf:RDF>
  </metadata>
  <path
     style="color:#000000;font-style:normal;font-variant:normal;font-weight:normal;font-stretch:normal;font-size:medium;line-height:normal;font-family:sans-serif;text-indent:0;text-align:start;text-decoration:none;text-decoration-line:none;text-decoration-style:solid;text-decoration-color:#000000;letter-spacing:normal;word-spacing:normal;text-transform:none;direction:ltr;block-progression:tb;writing-mode:lr-tb;baseline-shift:baseline;text-anchor:start;white-space:normal;clip-rule:nonzero;display:inline;overflow:visible;visibility:visible;opacity:1;isolation:auto;mix-blend-mode:normal;color-interpolation:sRGB;color-interpolation-filters:linearRGB;solid-color:#000000;solid-opacity:1;fill:#000000;fill-opacity:1;fill-rule:nonzero;stroke:none;stroke-width:2.19484234;stroke-linecap:round;stroke-linejoin:round;stroke-miterlimit:4;stroke-dasharray:none;stroke-dashoffset:0;stroke-opacity:1;color-rendering:auto;image-rendering:auto;shape-rendering:auto;text-rendering:auto;enable-background:accumulate"
     d="M 11.980469 2.0253906 A 1.3696133 0.73027908 0 0 0 11.03125 2.2402344 L 0.4609375 7.875 A 1.3696133 0.73027908 0 0 0 0.4609375 8.9082031 L 11.03125 14.544922 A 1.3696133 0.73027908 0 0 0 12.96875 14.544922 L 23.539062 8.9082031 A 1.3696133 0.73027908 0 0 0 23.539062 7.875 L 12.96875 2.2402344 A 1.3696133 0.73027908 0 0 0 11.980469 2.0253906 z M 12 3.7890625 L 20.632812 8.3925781 L 12 12.994141 L 3.3671875 8.3925781 L 12 3.7890625 z M 1.4296875 11.591797 L 0.46289062 12.107422 C -0.072518775 12.392663 -0.072518775 12.855384 0.46289062 13.140625 L 11.033203 18.775391 C 11.568136 19.060787 12.43577 19.060787 12.970703 18.775391 L 23.541016 13.140625 C 24.073445 12.855321 24.072618 12.394105 23.539062 12.109375 L 22.570312 11.59375 L 12.970703 16.712891 C 12.950483 16.723651 12.929643 16.734071 12.908203 16.744141 L 12.900391 16.748047 L 12 17.228516 L 11.033203 16.712891 L 1.4296875 11.591797 z M 1.4296875 15.617188 L 0.46289062 16.132812 C -0.072518775 16.418053 -0.072518775 16.880775 0.46289062 17.166016 L 11.033203 22.800781 C 11.568136 23.086177 12.43577 23.086177 12.970703 22.800781 L 23.541016 17.166016 C 24.073445 16.880712 24.072618 16.419496 23.539062 16.134766 L 22.570312 15.619141 L 12.970703 20.738281 C 12.950483 20.749041 12.929643 20.759461 12.908203 20.769531 L 12.900391 20.773438 L 12 21.253906 L 11.033203 20.738281 L 1.4296875 15.617188 z "
     id="rect4133-8-5" />
</svg>
