<?xml version="1.0" encoding="UTF-8" standalone="no"?>
<!-- Created with Inkscape (http://www.inkscape.org/) -->

<svg
   xmlns:dc="http://purl.org/dc/elements/1.1/"
   xmlns:cc="http://creativecommons.org/ns#"
   xmlns:rdf="http://www.w3.org/1999/02/22-rdf-syntax-ns#"
   xmlns:svg="http://www.w3.org/2000/svg"
   xmlns="http://www.w3.org/2000/svg"
   xmlns:sodipodi="http://sodipodi.sourceforge.net/DTD/sodipodi-0.dtd"
   xmlns:inkscape="http://www.inkscape.org/namespaces/inkscape"
   version="1.1"
   width="24"
   height="24"
   id="svg4460"
   inkscape:version="0.91 r13725"
   sodipodi:docname="logo-ign-seul.svg">
  <sodipodi:namedview
     pagecolor="#ffffff"
     bordercolor="#666666"
     borderopacity="1"
     objecttolerance="10"
     gridtolerance="10"
     guidetolerance="10"
     inkscape:pageopacity="0"
     inkscape:pageshadow="2"
     inkscape:window-width="1280"
     inkscape:window-height="972"
     id="namedview11"
     showgrid="false"
     inkscape:window-x="-8"
     inkscape:window-y="-8"
     inkscape:window-maximized="1"
     inkscape:current-layer="svg4460"
     inkscape:zoom="9.8333333"
     inkscape:cx="7.4231604"
     inkscape:cy="19.196136" />
  <defs
     id="defs4462" />
  <metadata
     id="metadata4465">
    <rdf:RDF>
      <cc:Work
         rdf:about="">
        <dc:format>image/svg+xml</dc:format>
        <dc:type
           rdf:resource="http://purl.org/dc/dcmitype/StillImage" />
        <dc:title></dc:title>
      </cc:Work>
    </rdf:RDF>
  </metadata>
  <path
     style="fill:#000000"
     d=""
     id="path4144"
     inkscape:connector-curvature="0" />
  <path
     id="path4193"
     style="fill:#707679"
     d="m 1.0864671,11.987792 0,-4.8097645 0.952187,0 0.9521869,0 0,4.8097645 0,4.809765 -0.9521869,0 -0.952187,0 0,-4.809765 z M 22.58574,17.076663 c -0.02106,-0.02106 -1.249616,-1.368121 -2.730126,-2.993471 l -2.691836,-2.955182 -0.0062,2.822566 -0.0062,2.822566 -0.866632,0 -0.866632,0 0,-4.944048 0,-4.9440471 0.152594,0.00107 0.152594,0.00107 2.71007,3.0126852 c 1.490539,1.6569759 2.718311,3.0133599 2.728382,3.0141839 0.01007,8.24e-4 0.01831,-1.283953 0.01831,-2.855062 l 0,-2.8565602 0.866735,0 0.866734,0 0,4.9562542 0,4.956256 -0.144746,0 c -0.09891,0 -0.156871,-0.01212 -0.183036,-0.03829 z M 9.0552873,17.089698 C 8.3714045,17.037032 7.7707836,16.877202 7.1780221,16.590143 6.3585464,16.193292 5.690231,15.592383 5.2135385,14.823797 4.2647937,13.294105 4.1802668,11.117682 5.0071435,9.5094812 5.7253811,8.1125747 7.0229447,7.2097342 8.6917552,6.9457408 c 0.340219,-0.05382 1.1320983,-0.074486 1.4786258,-0.038589 0.801943,0.083075 1.70432,0.3942689 2.290781,0.789998 l 0.180394,0.1217256 -0.01374,0.1861884 c -0.0076,0.1024035 -0.03868,0.5956694 -0.06918,1.0961465 L 12.503203,10.011168 12.356547,9.8458694 C 11.664195,9.0655003 10.89668,8.6787237 9.8765342,8.5961079 9.3414998,8.5527786 8.810493,8.6150975 8.3164183,8.779203 7.2598592,9.1301365 6.5799735,9.9524075 6.3702591,11.132937 c -0.053458,0.30093 -0.070421,0.843844 -0.036245,1.160043 0.097172,0.899028 0.4021059,1.588455 0.9400267,2.125314 0.4481662,0.447281 0.9791503,0.71746 1.6862795,0.858021 0.1687803,0.03355 0.3386307,0.04372 0.7324515,0.04386 0.5903092,1.95e-4 0.8426032,-0.03865 1.3698242,-0.210956 l 0.302607,-0.0989 0,-0.498038 0,-0.498038 0.286877,-4.77e-4 c 0.465431,-7.73e-4 0.969788,-0.08367 1.391658,-0.22873 l 0.177009,-0.06086 0,1.215655 0,1.215654 -0.320618,0.151613 c -0.721694,0.341273 -1.308878,0.531223 -2.072057,0.670297 C 10.240043,17.08455 9.5533,17.128057 9.0552869,17.089704 Z M 11.365203,13.534142 C 10.205475,13.453042 9.1922596,13.014184 8.4457675,12.269635 8.1528664,11.977497 7.9983615,11.782812 7.8525132,11.522102 l -0.076131,-0.136087 0.1840809,-0.105323 c 0.4008107,-0.229327 0.9374879,-0.403406 1.4361436,-0.465834 0.3716149,-0.04652 1.0511993,-0.01774 1.4231483,0.06028 1.250204,0.262243 2.298844,0.966204 2.84767,1.911668 l 0.08824,0.152017 -0.152319,0.08518 c -0.527829,0.295179 -1.041946,0.449728 -1.668821,0.501668 -0.281693,0.02334 -0.3435,0.02426 -0.569326,0.0085 z m -10.2787359,-1.54635 0,-4.8097645 0.952187,0 0.9521869,0 0,4.8097645 0,4.809765 -0.9521869,0 -0.952187,0 0,-4.809765 z M 22.58574,17.076663 c -0.02106,-0.02106 -1.249616,-1.368121 -2.730126,-2.993471 l -2.691836,-2.955182 -0.0062,2.822566 -0.0062,2.822566 -0.866632,0 -0.866632,0 0,-4.944048 0,-4.9440471 0.152594,0.00107 0.152594,0.00107 2.71007,3.0126852 c 1.490539,1.6569759 2.718311,3.0133599 2.728382,3.0141839 0.01007,8.24e-4 0.01831,-1.283953 0.01831,-2.855062 l 0,-2.8565602 0.866735,0 0.866734,0 0,4.9562542 0,4.956256 -0.144746,0 c -0.09891,0 -0.156871,-0.01212 -0.183036,-0.03829 z M 9.0552873,17.089698 C 8.3714045,17.037032 7.7707836,16.877202 7.1780221,16.590143 6.3585464,16.193292 5.690231,15.592383 5.2135385,14.823797 4.2647937,13.294105 4.1802668,11.117682 5.0071435,9.5094812 5.7253811,8.1125747 7.0229447,7.2097342 8.6917552,6.9457408 c 0.340219,-0.05382 1.1320983,-0.074486 1.4786258,-0.038589 0.801943,0.083075 1.70432,0.3942689 2.290781,0.789998 l 0.180394,0.1217256 -0.01374,0.1861884 c -0.0076,0.1024035 -0.03868,0.5956694 -0.06918,1.0961465 L 12.503203,10.011168 12.356547,9.8458694 C 11.664195,9.0655003 10.89668,8.6787237 9.8765342,8.5961079 9.3414998,8.5527786 8.810493,8.6150975 8.3164183,8.779203 7.2598592,9.1301365 6.5799735,9.9524075 6.3702591,11.132937 c -0.053458,0.30093 -0.070421,0.843844 -0.036245,1.160043 0.097172,0.899028 0.4021059,1.588455 0.9400267,2.125314 0.4481662,0.447281 0.9791503,0.71746 1.6862795,0.858021 0.1687803,0.03355 0.3386307,0.04372 0.7324515,0.04386 0.5903092,1.95e-4 0.8426032,-0.03865 1.3698242,-0.210956 l 0.302607,-0.0989 0,-0.498038 0,-0.498038 0.286877,-4.77e-4 c 0.465431,-7.73e-4 0.969788,-0.08367 1.391658,-0.22873 l 0.177009,-0.06086 0,1.215655 0,1.215654 -0.320618,0.151613 c -0.721694,0.341273 -1.308878,0.531223 -2.072057,0.670297 -0.588029,0.107155 -1.274772,0.150662 -1.7727851,0.112309 z"
     inkscape:connector-curvature="0" />
</svg>
