<?xml version="1.0" encoding="UTF-8" standalone="no"?>
<!-- Created with Inkscape (http://www.inkscape.org/) -->

<svg
   xmlns:dc="http://purl.org/dc/elements/1.1/"
   xmlns:cc="http://creativecommons.org/ns#"
   xmlns:rdf="http://www.w3.org/1999/02/22-rdf-syntax-ns#"
   xmlns:svg="http://www.w3.org/2000/svg"
   xmlns="http://www.w3.org/2000/svg"
   xmlns:sodipodi="http://sodipodi.sourceforge.net/DTD/sodipodi-0.dtd"
   xmlns:inkscape="http://www.inkscape.org/namespaces/inkscape"
   version="1.1"
   width="24"
   height="24"
   id="svg4460"
   inkscape:version="0.91 r13725"
   sodipodi:docname="logo-ign.svg">
  <sodipodi:namedview
     pagecolor="#ffffff"
     bordercolor="#666666"
     borderopacity="1"
     objecttolerance="10"
     gridtolerance="10"
     guidetolerance="10"
     inkscape:pageopacity="0"
     inkscape:pageshadow="2"
     inkscape:window-width="1280"
     inkscape:window-height="972"
     id="namedview11"
     showgrid="false"
     inkscape:window-x="-8"
     inkscape:window-y="-8"
     inkscape:window-maximized="1"
     inkscape:current-layer="svg4460"
     inkscape:zoom="9.8333333"
     inkscape:cx="7.4231604"
     inkscape:cy="19.196136" />
  <defs
     id="defs4462" />
  <metadata
     id="metadata4465">
    <rdf:RDF>
      <cc:Work
         rdf:about="">
        <dc:format>image/svg+xml</dc:format>
        <dc:type
           rdf:resource="http://purl.org/dc/dcmitype/StillImage" />
        <dc:title />
      </cc:Work>
    </rdf:RDF>
  </metadata>
  <path
     style="fill:#000000"
     d=""
     id="path4144"
     inkscape:connector-curvature="0" />
  <g
     id="g4191"
     transform="matrix(0.01953204,0,0,0.01953204,18.473051,12.949166)">
    <path
       style="fill:#95c01e"
       d="m -77.0318,528.27966 0,-37.5 6.875,0 6.875,0 0,37.5 0,37.5 -6.875,0 -6.875,0 0,-37.5 z m -803.23102,34.47325 c -2.12081,-0.92337 -5.07393,-3.22725 -6.5625,-5.11962 -2.57762,-3.277 -2.70648,-4.67454 -2.70648,-29.35363 0,-24.38531 0.15388,-26.10848 2.61037,-29.2314 5.03451,-6.40035 7.88219,-7.0186 32.32755,-7.0186 l 22.56208,0 0,4.89018 0,4.89017 -20.11228,0.42233 c -19.51917,0.40987 -20.18436,0.5114 -22.55618,3.44268 -1.90516,2.35454 -2.36262,4.55896 -2.07522,10 l 0.36868,6.97964 20.9375,0.34272 20.9375,0.34273 0,4.93955 0,4.93955 -20.9375,0.34273 -20.9375,0.34272 -0.36558,6.87599 c -0.63856,12.01015 2.84756,13.67064 28.80308,13.71914 l 15.9375,0.0299 0,5 0,5 -22.1875,-0.0488 c -15.72875,-0.035 -23.30998,-0.53775 -26.04352,-1.72787 z m 104.48102,-29.47325 0,-31.25 -11.25,0 -11.25,0 0,-5 0,-5 28.75,0 28.75,0 0,4.95134 0,4.95132 -10.9375,0.36118 -10.9375,0.36116 -0.33434,30.9375 -0.33433,30.9375 -6.22817,0 -6.22816,0 0,-31.25 z m 128.75,-0.34686 c 0,-27.18851 0.28439,-32.0029 2.03836,-34.50705 3.82094,-5.45514 8.66413,-6.39609 32.92149,-6.39609 l 22.54015,0 0,4.91399 0,4.91399 -19.87259,0.39851 c -24.38919,0.48908 -25.12741,0.87372 -25.12741,13.09225 l 0,7.93126 22.5,0 22.5,0 0,5 0,5 -22.5,0 -22.5,0 0,15.625 0,15.625 -6.25,0 -6.25,0 0,-31.59686 z m 105.59955,29.25899 c -7.58789,-3.44688 -8.09955,-5.59688 -8.09955,-34.03302 0,-28.11255 0.59031,-30.59488 8.12599,-34.1708 3.76892,-1.78847 7.66063,-2.06521 24.34319,-1.73105 17.84841,0.3575 20.21357,0.66281 23.38145,3.01824 6.1824,4.59684 6.6111,6.73885 6.63095,33.13215 0.0176,23.46312 -0.10275,24.68284 -2.83737,28.74997 -4.05183,6.02625 -8.83257,7.22463 -29.01921,7.27438 -14.34201,0.035 -18.40687,-0.36888 -22.52545,-2.23988 z m 37.89711,-10.02654 c 3.61635,-1.93543 4.2705,-6.66171 3.78912,-27.37684 -0.52822,-22.73008 -0.0312,-22.13375 -18.44919,-22.13375 -19.39756,0 -18.83659,-0.74202 -18.83659,24.9156 0,22.1431 0.79388,25.02524 7.20115,26.14365 5.73794,1.0015 23.48325,-0.0438 26.29551,-1.54866 z m 54.00334,-23.88559 0,-36.25 25.74859,0 c 28.99771,0 32.56783,0.80241 36.02982,8.098 2.39837,5.05419 2.63239,21.14826 0.37245,25.61447 -0.85926,1.69813 -3.4654,4.37 -5.79142,5.9375 -3.56379,2.40164 -5.87167,2.85003 -14.66929,2.85003 -5.74209,0 -10.43748,0.42188 -10.4342,0.9375 0.004,0.51563 6.78606,6.8099 15.07286,13.98726 8.28682,7.17737 15.34858,13.50549 15.69283,14.06249 0.34425,0.557 -2.92291,1.00263 -7.26037,0.99025 l -7.88627,-0.0225 -16.5625,-14.48589 c -14.00779,-12.25151 -16.5625,-15.03697 -16.5625,-18.05853 0,-5.12958 2.97301,-6.16058 17.76469,-6.16058 16.81044,0 18.48531,-1.01765 18.48531,-11.2316 0,-11.55494 -2.71869,-12.92353 -24.375,-12.27039 l -12.5,0.37699 -0.33434,30.9375 -0.33433,30.9375 -6.22817,0 -6.22816,0 0,-36.25 z m 108.01899,34.47325 c -2.12081,-0.92337 -5.07394,-3.22725 -6.5625,-5.11962 -2.57763,-3.277 -2.70649,-4.67454 -2.70649,-29.35363 0,-24.38531 0.15388,-26.10848 2.61038,-29.2314 5.0345,-6.40035 7.88217,-7.0186 32.32754,-7.0186 l 22.56208,0 0,5 0,5 -17.54015,0 c -25.1325,0 -28.18746,1.69414 -27.22959,15.10026 l 0.39474,5.52474 20.9375,0.34272 20.9375,0.34273 0,4.93955 0,4.93955 -20.9375,0.34273 -20.9375,0.34272 -0.36559,6.87599 c -0.63856,12.01015 2.84757,13.67064 28.80309,13.71914 l 15.9375,0.0299 0,5 0,5 -22.1875,-0.0488 c -15.72875,-0.035 -23.30997,-0.53775 -26.04351,-1.72787 z m 86.98101,-3.22325 0,-5 17.1875,-0.07 c 20.23929,-0.0825 25.30371,-1.36789 26.82259,-6.8045 1.44481,-5.17147 0.10725,-11.59042 -2.7317,-13.10981 -1.30023,-0.69635 -7.21443,-1.26569 -13.14269,-1.26569 -14.0748,0 -21.0933,-1.82239 -25.02815,-6.49869 -2.77406,-3.2968 -3.10755,-4.82777 -3.10755,-14.2662 0,-18.90121 2.70309,-20.48511 34.95985,-20.48511 l 22.54015,0 0,4.91399 0,4.91399 -20.11321,0.39851 c -19.39904,0.38436 -20.19796,0.5033 -22.5,3.34948 -2.81573,3.48132 -3.11251,9.95333 -0.61325,13.37262 1.52349,2.08431 3.88536,2.53222 16.75182,3.17691 22.79054,1.14194 26.42398,4.14872 26.45622,21.89342 0.0155,8.53027 -0.41265,10.69195 -2.69145,13.58895 -4.73562,6.02038 -8.89379,6.89213 -32.87498,6.89213 l -21.91515,0 0,-5 z m 111.25,-26.25 0,-31.25 -10.625,0 -10.625,0 0,-5 0,-5 28.75,0 28.75,0 0,5 0,5 -11.25,0 -11.25,0 0,31.25 0,31.25 -6.875,0 -6.875,0 0,-31.25 z m 126.806125,29.91463 c -2.100387,-0.61038 -5.194138,-2.57238 -6.875,-4.36001 -3.012938,-3.20425 -3.060813,-3.61537 -3.3877,-29.08991 -0.366188,-28.53767 -0.06012,-30.04145 7.097138,-34.86469 4.030799,-2.71636 5.334362,-2.85002 27.794287,-2.85002 l 23.56515,0 0,5 0,5 -18.16515,0 c -13.0347,0 -19.38945,0.51155 -22.5,1.81121 l -4.33485,1.81123 0,8.81377 0,8.81379 22.5,0 22.5,0 0,5 0,5 -22.5,0 -22.5,0 0,7.93126 c 0,12.21137 0.7403,12.59774 25.128588,13.11612 l 19.871412,0.42225 0,4.89025 0,4.89012 -22.1875,-0.1125 c -12.203125,-0.0625 -23.906,-0.61212 -26.006375,-1.22263 z m 83.193875,-34.91463 0,-36.25 26.312075,0 c 35.962555,0 37.437925,0.83743 37.437925,21.25 0,17.76253 -2.47686,20.25724 -21.09797,21.25 l -11.722967,0.625 16.410467,14.24492 c 9.02576,7.8347 16.41047,14.44408 16.41047,14.68746 0,0.2435 -3.5862,0.44262 -7.96934,0.44262 l -7.96935,0 L 98.123863,550.1036 C 84.112625,537.78305 81.7182,535.1441 81.7182,532.02258 c 0,-5.22161 2.9062,-6.24292 17.764688,-6.24292 16.771642,0 18.485312,-1.03154 18.485312,-11.12715 0,-11.05686 -1.45372,-11.90076 -21.3772,-12.40969 l -16.1228,-0.41184 0,31.34934 0,31.34934 -6.875,0 -6.875,0 0,-36.25 z m 108.75,34.27413 c -8.488,-3.6435 -8.69123,-4.42176 -8.7222,-33.39871 -0.0403,-37.70066 -0.58026,-37.12542 34.84861,-37.12542 l 22.62359,0 0,4.89018 0,4.89017 -20.11229,0.42233 c -19.51916,0.40987 -20.18435,0.5114 -22.55617,3.44268 -1.90515,2.35454 -2.36263,4.55896 -2.07521,10 l 0.36867,6.97964 20.9375,0.34272 20.9375,0.34273 0,4.96977 0,4.96978 -21.25,0 -21.25,0 0,6.95718 c 0,3.82644 0.56912,8.02058 1.26471,9.32031 1.95219,3.6477 9.12223,4.95788 27.17279,4.96551 l 16.5625,0.0125 0,5 0,5 -22.1875,-0.0488 c -16.87635,-0.0375 -23.23476,-0.4985 -26.5625,-1.927 z M 2.493775,480.25678 c -2.4890625,-3.03757 -4.525575,-5.85007 -4.525575,-6.25 0,-0.39991 2.390625,-0.71701 5.3125,-0.70466 4.9854,0.0211 5.563225,0.4059 9.384613,6.25 l 4.0721,6.22754 -4.859025,0 c -4.2293505,0 -5.4455005,-0.7157 -9.384613,-5.52288 z M 2.7993,400.29868 c -6.67415,-5.45485 -6.7612125,-5.48348 -18.274375,-6.01023 -20.26005,-0.92695 -21.9149,-3.9325 -21.326512,-38.73323 0.36145,-21.37791 0.615375,-23.64712 3.0072,-26.875 4.744637,-6.40306 8.065112,-7.22125 29.262587,-7.21052 15.902112,0.007 20.089588,0.39392 23.361625,2.15275 7.664937,4.12015 7.888375,5.07606 7.888375,33.74742 0,28.49635 -0.5902,31.38553 -7.080862,34.66259 -1.949275,0.98416 -3.817338,1.98747 -4.15125,2.22957 -0.333913,0.2421 2.197337,2.91101 5.625,5.93088 l 6.232112,5.4907 -8.9189,0.048 c -8.71115,0.0469 -9.0751125,-0.0796 -15.625,-5.43295 z m 8.848075,-18.82993 C 14.04715,379.297 14.2182,377.74722 14.2182,358.17665 l 0,-20.96554 -3.424075,-2.69337 c -3.1167375,-2.45163 -4.6406875,-2.65613 -16.978025,-2.27823 -11.689662,0.35805 -13.797662,0.74889 -15.325912,2.84156 -1.36125,1.86398 -1.771988,7.25178 -1.771988,23.24376 0,26.59308 -0.24085,26.29574 20.866675,25.76139 9.1758375,-0.23229 12.009775,-0.75977 14.0625,-2.61747 z M -878.9068,392.65099 c -2.75,-0.97292 -6.26562,-3.22959 -7.8125,-5.01484 -2.72635,-3.14646 -2.8125,-4.05849 -2.8125,-29.77306 0,-29.32929 0.18287,-30.10586 7.95815,-33.79548 3.49177,-1.65695 8.64111,-2.03795 27.54326,-2.03795 l 23.24859,0 0,4.91769 0,4.91769 -21.19079,0.39481 c -15.25351,0.28419 -21.64516,0.84919 -22.8125,2.01652 -1.16679,1.16679 -1.73218,7.54332 -2.01552,22.73119 -0.50681,27.16723 -1.15093,26.2721 18.9049,26.2721 18.93272,0 18.86617,0.0554 19.41855,-16.14751 l 0.42962,-12.60249 6.13288,0 6.13286,0 0,13.81208 c 0,16.51363 -1.44267,20.26155 -9.1454,23.7587 -4.32272,1.96258 -8.15594,2.36956 -22.1046,2.34691 -11.29717,-0.0184 -18.52769,-0.61213 -21.875,-1.79636 z m 99.33161,-0.93383 c -3.06521,-1.54687 -6.26985,-4.21875 -7.12143,-5.9375 -2.09608,-4.23054 -2.19757,-51.03832 -0.1205,-55.59689 0.80553,-1.76797 3.47741,-4.46632 5.9375,-5.99631 4.20351,-2.6143 5.86521,-2.7818 27.59782,-2.7818 l 23.125,0 0.38438,5.3125 0.38437,5.3125 -19.9334,0 c -24.4023,0 -25.34616,0.44254 -26.2028,12.28531 l -0.55386,7.65715 22.96065,0.34127 22.96066,0.34127 0.38438,5.3125 0.38437,5.3125 -23.19687,0 -23.19688,0 0,6.70642 c 0,4.87172 0.70216,7.59909 2.56663,9.96937 2.55525,3.24846 2.65631,3.26444 22.8125,3.60606 l 20.24587,0.34315 0.38438,5.3125 0.38437,5.3125 -22.30701,0 c -20.64858,0 -22.72135,-0.2091 -27.88013,-2.8125 z m 96.70953,1.44088 c -2.17736,-0.63038 -5.41174,-2.8728 -7.1875,-4.98317 l -3.22864,-3.83702 0,-25.59118 c 0,-28.63901 0.58208,-31.17889 7.94635,-34.67346 3.39884,-1.61285 8.31031,-2.04355 23.30365,-2.04355 30.82345,0 31.25,0.49396 31.25,36.18849 0,27.60556 -0.65355,30.02686 -9.1454,33.88228 -4.34874,1.9744 -8.07198,2.35995 -22.1046,2.28904 -9.28125,-0.0469 -18.65649,-0.60105 -20.83386,-1.23143 z m 36.53245,-11.65262 c 2.23759,-1.63616 2.42641,-3.4323 2.42641,-23.08035 0,-26.6291 0.6757,-25.60266 -17.23959,-26.18801 -11.55476,-0.37753 -13.10987,-0.15894 -16.20823,2.27822 l -3.42718,2.69583 0,20.53428 c 0,26.31138 -0.56336,25.53427 18.51109,25.53427 9.69583,0 14.19626,-0.50101 15.9375,-1.77424 z m 63.67641,11.14557 c -2.75,-0.97292 -6.26562,-3.22959 -7.8125,-5.01484 -2.71959,-3.13867 -2.8125,-4.09219 -2.8125,-28.86326 0,-37.35431 -0.59042,-36.74323 35.50141,-36.74323 l 23.24859,0 0,5 0,5 -20.05681,0 c -19.77301,0 -20.10143,0.0446 -23.20878,3.15195 -3.15159,3.15159 -3.15191,3.15443 -2.75569,23.8533 0.48809,25.49791 -0.51388,24.24475 19.38519,24.24475 18.69347,0 19.13609,-0.39033 19.13609,-16.875 l 0,-11.875 6.25,0 6.25,0 0,13.81208 c 0,16.51363 -1.44267,20.26155 -9.1454,23.7587 -4.32273,1.96258 -8.15594,2.36956 -22.1046,2.34691 -11.29717,-0.0184 -18.52769,-0.61213 -21.875,-1.79636 z m 90.625,-34.37133 0,-36.25 26.31208,0 c 35.60821,0 37.43792,0.98817 37.43792,20.21931 0,18.18128 -2.90661,21.24184 -21.1339,22.25321 l -11.7589,0.65248 13.0089,11.36675 c 7.1549,6.25171 14.6964,12.84331 16.7589,14.648 l 3.75,3.28125 -8.40069,0.0395 -8.40068,0.0395 -15.97432,-14.01811 c -8.78587,-7.70996 -16.38757,-14.60059 -16.89267,-15.3125 -0.5051,-0.71191 -0.92698,5.59624 -0.9375,14.01811 l -0.0191,15.3125 -6.875,0 -6.875,0 0,-36.25 z m 31.17071,-2.5 c 11.75689,0 13.91574,-0.3332 16.78572,-2.59072 2.76925,-2.17829 3.29357,-3.58032 3.29357,-8.80682 0,-4.93313 -0.63325,-6.84935 -3.06819,-9.28427 -2.93148,-2.9315 -3.76682,-3.06819 -18.75,-3.06819 l -15.68181,0 0,13.83929 c 0,12.58116 0.17858,13.66071 1.96429,11.875 1.54306,-1.54308 4.85751,-1.96429 15.45642,-1.96429 z m 61.32929,38.25856 c 0,-2.31996 30.52779,-69.25197 32.13056,-70.44606 3.57247,-2.66155 12.0759,-1.95331 15.0082,1.25 1.9291,2.10741 20.1364,41.83756 31.21991,68.125 0.48219,1.14364 -1.23918,1.5625 -6.42126,1.5625 l -7.08006,0 -3.8648,-8.75 -3.86479,-8.75 -17.77152,0 -17.77153,0 -3.91244,8.75 -3.91243,8.75 -6.87992,0 c -3.78396,0 -6.87992,-0.22115 -6.87992,-0.49144 z m 51.99539,-29.02057 c -3.02649,-7.88691 -12.75596,-29.19654 -13.33893,-29.2151 -0.71225,-0.0226 -12.40646,28.54687 -12.40646,30.30962 0,0.50462 5.96643,0.91749 13.25874,0.91749 11.67327,0 13.16641,-0.2406 12.48665,-2.01201 z m 56.75461,-7.36299 0,-36.875 22.43848,0 c 36.84046,0 40.50178,1.72405 41.89701,19.7285 1.15562,14.91252 -0.54574,19.93095 -8.03785,23.709 -5.05842,2.55081 -7.35546,2.8125 -24.6875,2.8125 l -19.11014,0 0,13.75 0,13.75 -6.25,0 -6.25,0 0,-36.875 z m 48.75,-4.375 c 1.93915,-1.93915 2.5,-4.16666 2.5,-9.92912 0,-10.6916 -1.23139,-11.32088 -22.15314,-11.32088 l -16.59686,0 0,11.875 0,11.875 16.875,0 c 15.20834,0 17.12191,-0.24691 19.375,-2.5 z m 52.5,5 0,-36.25 6.21152,0 6.21153,0 0.35097,15.3125 0.35098,15.3125 19.375,0 19.375,0 0.35098,-15.3125 0.35097,-15.3125 6.21153,0 6.21152,0 0,36.25 0,36.25 -6.25,0 -6.25,0 0,-15.65674 0,-15.65675 -19.6875,0.34425 -19.6875,0.34424 -0.35098,15.3125 -0.35097,15.3125 -6.21153,0 -6.21152,0 0,-36.25 z m 102.5,-0.625 0,-36.875 6.875,0 6.875,0 0,36.875 0,36.875 -6.875,0 -6.875,0 0,-36.875 z m 161.875,35.11045 c -2.0625,-0.91669 -5.15625,-3.1889 -6.875,-5.04935 l -3.125,-3.38265 -0.391725,-31.15173 -0.391725,-31.15172 6.954225,0 6.954225,0 0,28.125 c 0,35.14917 -1.1607,33.13339 19.0625,33.10586 7.73438,-0.01 14.73044,-0.44385 15.5468,-0.96293 3.34319,-2.12579 4.1407,-8.6934 4.1407,-34.09931 l 0,-26.16862 6.25,0 6.25,0 -0.005,30.3125 c -0.005,34.05481 -0.44514,35.99345 -9.09916,40.10005 -5.70803,2.70864 -39.363265,2.94869 -45.271165,0.3229 z m 102.29114,0.39293 c -2.17737,-0.63038 -5.41174,-2.8728 -7.1875,-4.98317 l -3.22864,-3.83702 0,-25.64873 c 0,-37.17531 -0.49956,-36.65946 35.50141,-36.65946 l 23.24859,0 0,4.91587 0,4.91588 -20.73818,0.39662 c -20.197,0.38628 -20.80191,0.47544 -23.18117,3.41699 -1.9041,2.35409 -2.36167,4.55999 -2.07432,10 l 0.36867,6.97964 20.9375,0.34272 20.9375,0.34273 0,4.96977 0,4.96978 -21.25,0 -21.25,0 0,6.70642 c 0,4.87172 0.70216,7.59909 2.56663,9.96937 2.55525,3.24846 2.65631,3.26444 22.8125,3.60606 l 20.24587,0.34315 0.38438,5.3125 0.38437,5.3125 -22.25937,-0.11275 c -12.24267,-0.062 -24.04087,-0.6285 -26.21824,-1.25889 z m -940.90219,-78.94088 c 0.50133,-0.85937 2.53029,-3.95312 4.50883,-6.875 3.21438,-4.74697 4.12318,-5.3125 8.53727,-5.3125 2.71698,0 4.93995,0.34651 4.93995,0.77003 0,0.42352 -2.01666,3.51727 -4.48146,6.875 -4.05984,5.53061 -4.94879,6.10497 -9.44878,6.10497 -3.62663,0 -4.7213,-0.42171 -4.05581,-1.5625 z m 265.99755,-89.65284 c -1.59841,-0.64638 -9.12369,-12.05388 -19.375,-29.37045 l -16.7615,-28.31357 -0.33554,28.82467 -0.33553,28.82469 -6.22697,0 -6.22696,0 0,-33.61153 c 0,-30.80233 0.19266,-33.84945 2.30521,-36.45832 3.17497,-3.92091 13.32918,-4.08819 16.42054,-0.2705 1.1474,1.41696 9.07536,14.55809 17.61771,29.20248 l 15.53154,26.62617 0.33554,-28.99415 0.33554,-28.99415 6.22696,0 6.22696,0 0,32.44119 c 0,21.11318 -0.48461,33.50478 -1.38784,35.48716 -2.25217,4.94298 -8.53286,6.95896 -14.35066,4.60631 z m 324.0572,-1.07062 c -1.13782,-1.25729 -7.18976,-13.49166 -13.44875,-27.1875 -6.25899,-13.69585 -11.88396,-25.43591 -12.49996,-26.08904 -0.66201,-0.70191 -1.11999,10.1598 -1.11999,26.5625 l 0,27.75 -6.25,0 -6.25,0 0,-32.95642 c 0,-31.44839 0.1185,-33.10714 2.59073,-36.25 2.17256,-2.76198 3.58487,-3.29358 8.75,-3.29358 4.20587,0 6.85303,0.6952 8.34677,2.19202 1.20313,1.20562 7.25,13.84765 13.4375,28.09343 6.1875,14.24576 11.58578,25.9156 11.99618,25.93296 0.4104,0.0174 5.97401,-11.76544 12.36358,-26.18404 6.38958,-14.41858 12.52255,-26.99928 13.62883,-27.95711 4.80563,-4.16075 15.0489,-3.16209 17.6628,1.72204 0.71006,1.32678 1.22361,16.22322 1.22361,35.49353 l 0,33.20717 -6.22609,0 -6.22608,0 -0.33642,-27.63891 -0.33641,-27.63893 -11.875,26.53428 c -6.53125,14.59385 -12.98454,27.31261 -14.34064,28.26391 -3.44392,2.41592 -8.63654,2.15546 -11.09066,-0.55631 z m 383.3209,1.02552 c -1.7533,-0.70632 -8.81607,-11.3367 -19.67156,-29.60826 l -16.93615,-28.5063 -0.016,29.0625 -0.0159,29.0625 -6.25,0 -6.25,0 0,-33.47186 c 0,-36.75966 0.23486,-38.01261 7.39359,-39.44435 2.05331,-0.41066 5.30906,-0.19734 7.23501,0.47405 3.88085,1.35286 4.15342,1.75534 23.65754,34.93172 l 13.58886,23.11457 0.33554,-29.05207 0.33554,-29.05206 6.22696,0 6.22696,0 0,33.22115 0,33.22116 -3.65385,3.65384 c -3.7127,3.7127 -7.22311,4.40101 -12.20655,2.39341 z m -1099.1396,-36.88306 0,-37.07134 26.5625,0.42955 c 39.04026,0.63134 38.4375,0.0551 38.4375,36.74373 0,36.41625 0.45836,35.98017 -38.4375,36.56799 l -26.5625,0.40142 0,-37.07135 z m 48.47187,23.69762 c 2.68971,-1.88394 2.77813,-2.63763 2.77813,-23.67912 0,-27.18051 1.34476,-25.625 -22.15313,-25.625 l -16.59687,0 0,25.625 0,25.625 16.59687,0 c 12.99838,0 17.19921,-0.4219 19.375,-1.94587 z m 52.15313,12.58153 c -0.6875,-0.22934 -2.70878,-0.73603 -4.49172,-1.12599 -1.78295,-0.38996 -4.73608,-2.20336 -6.5625,-4.0298 l -3.32078,-3.32077 0,-27.05141 c 0,-37.46391 -1.04401,-36.35768 34.31293,-36.35768 l 23.18707,0 0,5 0,5 -19.20642,0 c -17.53789,0 -19.49255,0.22506 -22.5,2.59073 -2.89629,2.27821 -3.29358,3.48447 -3.29358,10 l 0,7.40927 21.25,0 21.25,0 0,5.625 0,5.625 -21.25,0 -21.25,0 0,7.5 c 0,12.10575 0.78849,12.5 25,12.5 l 20,0 0,5.625 0,5.625 -20.9375,-0.0986 c -11.51562,-0.0542 -21.5,-0.28633 -22.1875,-0.51567 z m 126.13908,-0.80321 c -2.98157,-0.67078 -6.62705,-2.73153 -8.75,-4.94625 l -3.63908,-3.79643 0,-31.48237 0,-31.48239 6.5625,-0.37783 6.5625,-0.37782 0,28.81532 c 0,36.75352 -2.17222,33.81533 25,33.81533 l 20,0 0,5.625 0,5.625 -20.3125,-0.13386 c -11.17187,-0.0736 -22.61241,-0.65129 -25.42342,-1.2837 z m 80.73592,-35.45744 0,-36.875 7.5,0 7.5,0 0,36.875 0,36.875 -7.5,0 -7.5,0 0,-36.875 z m 121.25,5.01972 0,-31.85528 3.64491,-4.08222 3.64492,-4.08222 25.10508,-0.38536 25.10509,-0.38535 0,4.98872 0,4.98874 -20.7283,0.39663 c -24.48374,0.46848 -24.61049,0.53655 -24.01081,12.89362 l 0.36411,7.503 22.1875,0.34134 22.1875,0.34135 0,4.97115 0,4.97116 -22.5,0 -22.5,0 0,15.625 0,15.625 -6.25,0 -6.25,0 0,-31.85528 z m 92.19578,30.4106 c -2.57357,-0.71486 -6.08919,-2.97541 -7.8125,-5.02345 -3.12109,-3.70919 -3.13328,-3.82327 -3.13328,-29.31486 0,-28.46536 0.6113,-31.20514 7.83366,-35.10932 3.31019,-1.78938 7.32048,-2.18896 22.16634,-2.20865 31.96422,-0.0424 32.48864,0.53819 32.49533,35.97554 0.006,35.5987 -0.53908,36.281 -29.37033,36.71629 -9.625,0.14533 -19.60565,-0.32067 -22.17922,-1.03555 z m 36.00281,-11.57702 c 2.2025,-1.60821 2.46297,-3.68205 2.82269,-22.47305 0.39622,-20.69887 0.3959,-20.70171 -2.75569,-23.8533 -2.94521,-2.94521 -3.96449,-3.15195 -15.5402,-3.15195 -10.6401,0 -12.853,0.36559 -15.68181,2.59073 l -3.29358,2.59072 0,20.53428 c 0,26.31138 -0.56336,25.53427 18.51109,25.53427 9.68514,0 14.19817,-0.5017 15.9375,-1.7717 z m 36.80141,-23.97961 0,-37.0013 25.9375,0.4388 c 23.45303,0.39677 26.3563,0.68484 30.3097,3.00724 6.12977,3.60091 7.46319,7.06618 7.48437,19.4505 0.0155,9.02768 -0.40147,11.30274 -2.57851,14.07039 -4.03285,5.12695 -7.16685,6.26735 -19.20899,6.98985 l -11.18091,0.67083 14.30591,12.40651 c 21.96209,19.04617 20.62776,16.96849 10.89771,16.96849 l -8.33879,0 -16.25981,-14.0625 c -23.8003,-20.58399 -23.8437,-23.7173 -0.34191,-24.6875 18.32903,-0.75665 19.59873,-1.53603 19.59873,-12.03009 0,-10.72189 -1.8746,-11.71991 -22.01347,-11.71991 l -16.11153,0 0,31.25 0,31.25 -6.25,0 -6.25,0 0,-37.00131 z m 187.91541,32.93881 c 10.210977,-24.41624 27.987303,-63.38387 29.879052,-65.49815 5.222638,-5.83697 14.608775,-4.22962 18.371588,3.14609 3.137262,6.14955 28.83395,64.74 28.83395,65.74366 0,0.43761 -3.14895,0.62696 -6.997675,0.42078 l -6.997687,-0.37488 -3.815763,-9.09567 -3.815775,-9.09567 -17.57695,0.34567 -17.57695,0.34567 -3.7971,9.0455 -3.7971,9.0455 -7.20427,0.017 -7.20428,0.017 1.69896,-4.0625 z m 50.83459,-25.11261 c 0,-0.23382 -3.063775,-7.38918 -6.8084,-15.9008 -5.210925,-11.84456 -7.014588,-14.8977 -7.687188,-13.01238 -0.483325,1.3548 -3.279087,8.51016 -6.2128,15.90079 l -5.334012,13.4375 13.0212,0 c 7.161663,0 13.0212,-0.1913 13.0212,-0.42511 z m 50,-2.07489 0,-31.25 -11.25,0 -11.25,0 0,-5.625 0,-5.625 28.75,0 28.75,0 0,5.625 0,5.625 -11.25,0 -11.25,0 0,31.25 0,31.25 -6.25,0 -6.25,0 0,-31.25 z m 48.75,-5.625 0,-36.875 6.875,0 6.875,0 0,36.875 0,36.875 -6.875,0 -6.875,0 0,-36.875 z m 45.945775,35.43032 c -2.573562,-0.71486 -6.089187,-2.97541 -7.8125,-5.02345 -3.120025,-3.70793 -3.133275,-3.83141 -3.133275,-29.19396 0,-16.80621 0.498212,-26.56373 1.464637,-28.6848 0.805538,-1.76797 3.477413,-4.46632 5.9375,-5.99631 4.122188,-2.5637 5.991875,-2.7818 23.847863,-2.7818 30.8762,0 31.25,0.43361 31.25,36.25 0,35.31233 -0.57901,36.03111 -29.375,36.46587 -9.625,0.14533 -19.60565,-0.32067 -22.179225,-1.03555 z m 36.002815,-11.57702 c 2.2025,-1.60821 2.46297,-3.68205 2.82268,-22.47305 0.39623,-20.69887 0.39591,-20.70171 -2.75568,-23.8533 -2.9528,-2.95279 -3.94895,-3.15195 -15.76559,-3.15195 -11.725587,0 -12.82965,0.21601 -15.681812,3.06819 -2.986863,2.98685 -3.068188,3.56885 -3.068188,21.95717 0,18.25032 0.791962,22.95925 4.249625,25.268 2.64065,1.7632 27.590165,1.08982 30.198965,-0.81506 z m -741.32948,-47.9158 c 3.05379,-7.53466 3.39145,-9.30194 2.03619,-10.6572 -1.86015,-1.86015 -1.7988,-8.7618 0.0947,-10.6553 2.10215,-2.10215 6.63848,-1.868 8.55528,0.4416 2.39302,2.88341 1.9658,8.02474 -1.32697,15.9691 -2.6245,6.33198 -3.32871,7.0893 -6.59211,7.0893 -2.98415,0 -3.49125,-0.40087 -2.76714,-2.1875 z M -807.0318,54.185935 c -2.06615,-1.02935 -8.84276,-11.082138 -20,-29.669062 l -16.875,-28.112213 -0.33554,29.0625 -0.33554,29.0625 -6.22696,0 -6.22696,0 0,-31.688475 c 0,-18.9034875 0.52943,-33.207175 1.31222,-35.4527 2.32301,-6.6638 11.21587,-8.68425 16.70923,-3.796325 1.73847,1.546875 10.20735,14.8773 18.81971,29.623163 l 15.65884,26.81065 0,-28.99815 0,-28.998163 6.25,0 6.25,0 0,33.207175 c 0,19.2703 -0.51355,34.16675 -1.22361,35.493525 -0.67299,1.257488 -3.00693,2.908013 -5.18653,3.667825 -4.86171,1.6948 -4.75677,1.697387 -8.58986,-0.21225 z m 508.68169,0.222263 c -2.39786,-0.881613 -7.37987,-8.24455 -20,-29.558125 l -16.80669,-28.384038 -0.33554,29.031813 -0.33553,29.031812 -6.22697,0 -6.22696,0 0.0184,-32.8125 c 0.0206,-36.708313 0.33311,-38.356775 7.6147,-40.16905 8.43103,-2.098362 10.15285,-0.241 27.95857,30.159713 l 16.28335,27.8014 0.33554,-28.739788 0.33554,-28.739775 6.22696,0 6.22696,0 -0.0398,33.4375 c -0.0428,35.99805 -0.13144,36.513713 -6.70599,39.013363 -3.93413,1.49575 -4.0607,1.49465 -8.32257,-0.07238 z M 45.650487,54.249473 c -1.778162,-0.963688 -9.4456,-12.62785 -19.375,-29.474425 L 9.8432,-3.104565 9.5076625,25.712548 9.172125,54.52966 l -6.2269625,0 -6.2269625,0 0,-33.611525 c 0,-31.231238 0.169225,-33.8205 2.3895625,-36.5625 3.2422875,-4.00405 13.0397625,-4.237612 16.1583745,-0.385187 1.142388,1.411174 8.827063,14.1947495 17.077063,28.40795 8.25,14.213187 15.421875,25.855462 15.9375,25.871712 0.515625,0.01625 0.9375,-12.6267 0.9375,-28.09545 l 0,-28.125 6.25,0 6.25,0 0,33.0553 c 0,32.49925 -0.04738,33.10905 -2.8125,36.251338 -3.366638,3.82575 -9.204125,5.108687 -13.255213,2.913175 z M -890.7818,17.65466 l 0,-36.875 7.5,0 7.5,0 0,36.875 0,36.875 -7.5,0 -7.5,0 0,-36.875 z m 117.5,31.369213 0,-5.744213 19.76109,0 c 22.74466,0 23.92044,-0.417963 24.8698,-8.840725 0.48548,-4.307225 0.0746,-6.245962 -1.81921,-8.584788 -2.27688,-2.811812 -3.51972,-3.073587 -17.9415,-3.778999 -22.49982,-1.100513 -24.87018,-3.0609 -24.87018,-20.568588 0,-9.89575 0.25464,-10.971625 3.4375,-14.523538 4.66474,-5.205624 9.76374,-6.138325 33.75,-6.173537 l 20.3125,-0.02982 0,5.625 0,5.625 -19.76109,0 c -22.44015,0 -23.78469,0.453775 -24.84866,8.3863375 -0.59102,4.406375 -0.21641,5.6511375 2.52609,8.3936375 3.04034,3.040338 3.93359,3.220025 16.00718,3.220025 14.44619,0 22.0507,2.532013 24.63424,8.202263 1.9113,4.19485 1.81458,21.6142 -0.14149,25.479312 -0.85078,1.681113 -3.51436,4.212363 -5.91907,5.625 -3.8901,2.285225 -6.88759,2.616025 -27.1847,3.000138 l -22.8125,0.431725 0,-5.744225 z m 95,-25.630225 0,-31.2666505 -10.9375,-0.361175 -10.9375,-0.3611625 -0.38437,-5.3125 -0.38438,-5.3125 28.82188,0 28.82187,0 0,5.625 0,5.625 -10.60316,0 -10.60316,0 -0.33434,30.9375 -0.33434,30.9375 -6.5625,0.377825 -6.5625,0.377825 0,-31.266662 z m 48.75,-5.738988 0,-36.875 6.875,0 6.875,0 0,36.875 0,36.875 -6.875,0 -6.875,0 0,-36.875 z m 50,5.625 0,-31.25 -11.25,0 -11.25,0 0,-5.625 0,-5.625 28.75,0 28.75,0 0,5.625 0,5.625 -11.25,0 -11.25,0 0,31.25 0,31.25 -6.25,0 -6.25,0 0,-31.25 z m 60.85475,29.438988 c -11.46522,-4.089013 -12.3345,-7.255888 -11.85504,-43.188988 l 0.37529,-28.125 6.5625,-0.377825 6.5625,-0.377825 0,28.815325 c 0,35.856288 -1.12331,33.815325 18.61153,33.815325 20.58168,0 19.42081,1.961225 19.91047,-33.6375875 l 0.397,-28.8624125 6.22563,0 6.22563,0 -0.37263,31.7952 -0.37263,31.7952 -3.67894,3.837712 c -2.02342,2.110738 -5.67967,4.393513 -8.125,5.072825 -6.67102,1.853213 -34.78925,1.462738 -40.46631,-0.56195 z m 89.14525,-29.438988 0,-31.25 -11.25,0 -11.25,0 0,-5.625 0,-5.625 28.75,0 28.75,0 0,5.625 0,5.625 -11.25,0 -11.25,0 0,31.25 0,31.25 -6.25,0 -6.25,0 0,-31.25 z m 160.45086,28.4375 c 1.62997,-6.350425 28.5076,-65.451525 30.81499,-67.758912 3.37616,-3.37615 11.59559,-3.39005 14.89512,-0.02513 2.23944,2.283724 31.33903,66.730437 31.33903,69.406325 0,0.654612 -2.9921,1.190212 -6.6491,1.190212 l -6.6491,0 -4.13468,-9.40835 -4.13466,-9.40835 -17.56817,0.34585 -17.56818,0.34585 -3.7577,9.0625 -3.7577,9.0625 -6.77586,0 c -6.40739,0 -6.73661,-0.15295 -6.05399,-2.8125 z m 50.79914,-26.6331 c 0,-0.753925 -12.49315,-29.6978625 -13.07343,-30.2883125 -0.194,-0.1974 -3.19296,6.693225 -6.66435,15.3125005 l -6.31162,15.671412 13.0247,0 c 7.16359,0 13.0247,-0.313012 13.0247,-0.6956 z m 48.75,-1.690412 0,-31.2666505 -10.9375,-0.361175 -10.9375,-0.3611625 -0.38437,-5.3125 -0.38438,-5.3125 29.51875,0 29.51875,0 -0.38437,5.3125 -0.38438,5.3125 -10.91576,0.36085 -10.91578,0.36085 -0.33422,30.88915 -0.33424,30.88915 -6.5625,0.377825 -6.5625,0.377825 0,-31.266662 z m 48.75,-5.738988 0,-36.875 7.5,0 7.5,0 0,36.875 0,36.875 -7.5,0 -7.5,0 0,-36.875 z m 46.764075,35.526475 c -2.89865,-0.691275 -6.6861,-2.862587 -8.75,-5.0163 l -3.639075,-3.797437 0,-26.075488 c 0,-24.4898625 0.158862,-26.2901875 2.612413,-29.606362 4.783325,-6.465025 8.062362,-7.280888 29.262587,-7.280888 16.8931,0 19.88285,0.307325 23.33955,2.39915 6.859225,4.150863 7.28545,6.13125 7.28545,33.85085 0,28.260875 -0.481825,30.306938 -7.99345,33.943788 -5.287888,2.560187 -33.5633,3.622725 -42.117475,1.582687 z m 34.207787,-11.84735 c 2.689713,-1.88395 2.778138,-2.637638 2.778138,-23.679125 0,-26.6507125 0.7255,-25.625 -18.125,-25.625 -18.8058,0 -18.125,-0.9417 -18.125,25.070875 0,26.932825 -0.513813,26.179125 17.846862,26.179125 9.604338,0 13.548076,-0.491138 15.625,-1.945875 z M 74.600937,52.96716 c 2.18645,-5.254237 26.454663,-59.976325 28.490583,-64.243087 3.82522,-8.016613 13.81609,-10.35475 18.95535,-4.436063 1.67133,1.9248 30.92133,67.629988 30.92133,69.459538 0,0.430162 -3.0289,0.782112 -6.73089,0.782112 l -6.73089,0 -4.12001,-9.375 -4.12001,-9.375 -17.34521,0 -17.345228,0 -4.272325,9.375 -4.272325,9.375 -7.040287,0 c -5.145675,0 -6.865325,-0.420488 -6.390088,-1.5625 z M 126.7182,25.33056 c 0,-0.247013 -3.05375,-7.418887 -6.7861,-15.9375 -6.16741,-14.0762875 -6.89656,-15.2034875 -7.99756,-12.3634 -0.66629,1.71875 -2.33837,5.9375 -3.71572,9.375 -1.37735,3.4375 -3.6765,9.203125 -5.10921,12.8125 l -2.60493,6.5625 13.10676,0 c 7.20872,0 13.10676,-0.2021 13.10676,-0.4491 z m 56.25,28.3342 c -6.788,-1.139162 -11.32449,-3.210475 -13.73045,-6.269162 -2.37566,-3.02015 -2.51955,-5.013838 -2.51955,-34.909513 l 0,-31.706425 6.25,0 6.25,0 0,28.75 c 0,36.677713 -2.16868,33.75 25,33.75 l 20,0 0,5.625 0,5.625 -19.0625,-0.170225 C 194.67132,54.26581 184.68695,53.95321 182.9682,53.66476 Z m -664.51291,-194.17809 c -35.01338,-2.69641 -65.76393,-10.87938 -96.11209,-25.5762 -41.95546,-20.31792 -76.17182,-51.08323 -100.57749,-90.43326 -48.57377,-78.31705 -52.90137,-189.74542 -10.567,-272.08195 36.77228,-71.51872 103.20485,-117.74228 188.64449,-131.2582 17.41851,-2.75548 57.96109,-3.81355 75.70256,-1.97567 41.05782,4.25328 87.25769,20.18575 117.28325,40.44626 l 9.23581,6.2321 -0.70331,9.53246 c -0.38682,5.24285 -1.9806,30.49704 -3.54171,56.12043 l -2.83839,46.58796 -7.50845,-8.46296 c -35.447,-39.95328 -74.74221,-59.75544 -126.97153,-63.9852 -27.39265,-2.21837 -54.5791,0.97223 -79.8747,9.37409 -54.09364,17.96707 -88.90238,60.06564 -99.63932,120.50632 -2.73695,15.40696 -3.60541,43.20304 -1.85565,59.39181 4.975,46.02833 20.58699,81.32559 48.12742,108.81165 22.94518,22.89989 50.13047,36.73245 86.33402,43.92891 8.6412,1.71768 17.33719,2.23839 37.5,2.24545 30.2226,0.01 43.13949,-1.97865 70.13214,-10.80054 l 15.49286,-5.06346 0,-25.49851 0,-25.4985 14.6875,-0.0244 c 23.82908,-0.0396 49.65115,-4.28365 71.25,-11.7105 l 9.0625,-3.11617 0,62.23898 0,62.23899 -16.41499,7.76228 c -36.94923,17.47247 -67.01183,27.19752 -106.08501,34.31777 -30.10589,5.48615 -65.26567,7.7136 -90.76291,5.75003 z m 692.73113,-0.66736 c -1.0782,-1.0782 -63.97774,-70.04499 -139.776782,-153.25954 L -66.4068,-445.73941 l -0.317725,144.50953 -0.317737,144.50954 -44.369768,0 -44.36977,0 0,-253.125 0,-253.125 7.8125,0.055 7.8125,0.055 138.75,154.24324 c 76.3125,84.83378 139.17187,154.27778 139.6875,154.31999 0.51563,0.0422 0.9375,-65.73574 0.9375,-146.17324 l 0,-146.25 44.375,0 44.375,0 0,253.75 0,253.75 -7.41071,0 c -5.06404,0 -8.03148,-0.62076 -9.37107,-1.96035 z m -1100.71822,-260.53965 0,-246.25 48.75,0 48.75,0 0,246.25 0,246.25 -48.75,0 -48.75,0 0,-246.25 z m 526.25,79.16988 c -59.37571,-4.15215 -111.25021,-26.62077 -149.46906,-64.74012 -14.99593,-14.95688 -22.90626,-24.92435 -30.37339,-38.27215 l -3.89774,-6.96737 9.42456,-5.39233 c 20.52068,-11.74103 47.99744,-20.65351 73.52758,-23.84971 19.02591,-2.38192 53.81921,-0.90812 72.86224,3.08634 64.00786,13.42628 117.69602,49.46766 145.7948,97.87342 l 4.51789,7.78295 -7.79842,4.36113 c -27.02376,15.11255 -53.34548,23.02517 -85.44016,25.68436 -14.42212,1.19494 -17.58651,1.24199 -29.1483,0.43348 z"
       id="path4195"
       inkscape:connector-curvature="0" />
    <path
       style="fill:#707679"
       d="m -77.0318,528.27966 0,-37.5 6.875,0 6.875,0 0,37.5 0,37.5 -6.875,0 -6.875,0 0,-37.5 z m -803.23102,34.47325 c -2.12081,-0.92337 -5.07393,-3.22725 -6.5625,-5.11962 -2.57762,-3.277 -2.70648,-4.67454 -2.70648,-29.35363 0,-24.38531 0.15388,-26.10848 2.61037,-29.2314 5.03451,-6.40035 7.88219,-7.0186 32.32755,-7.0186 l 22.56208,0 0,4.89018 0,4.89017 -20.11228,0.42233 c -19.51917,0.40987 -20.18436,0.5114 -22.55618,3.44268 -1.90516,2.35454 -2.36262,4.55896 -2.07522,10 l 0.36868,6.97964 20.9375,0.34272 20.9375,0.34273 0,4.93955 0,4.93955 -20.9375,0.34273 -20.9375,0.34272 -0.36558,6.87599 c -0.63856,12.01015 2.84756,13.67064 28.80308,13.71914 l 15.9375,0.0299 0,5 0,5 -22.1875,-0.0488 c -15.72875,-0.035 -23.30998,-0.53775 -26.04352,-1.72787 z m 104.48102,-29.47325 0,-31.25 -11.25,0 -11.25,0 0,-5 0,-5 28.75,0 28.75,0 0,4.95134 0,4.95132 -10.9375,0.36118 -10.9375,0.36116 -0.33434,30.9375 -0.33433,30.9375 -6.22817,0 -6.22816,0 0,-31.25 z m 128.75,-0.34686 c 0,-27.18851 0.28439,-32.0029 2.03836,-34.50705 3.82094,-5.45514 8.66413,-6.39609 32.92149,-6.39609 l 22.54015,0 0,4.91399 0,4.91399 -19.87259,0.39851 c -24.38919,0.48908 -25.12741,0.87372 -25.12741,13.09225 l 0,7.93126 22.5,0 22.5,0 0,5 0,5 -22.5,0 -22.5,0 0,15.625 0,15.625 -6.25,0 -6.25,0 0,-31.59686 z m 105.59955,29.25899 c -7.58789,-3.44688 -8.09955,-5.59688 -8.09955,-34.03302 0,-28.11255 0.59031,-30.59488 8.12599,-34.1708 3.76892,-1.78847 7.66063,-2.06521 24.34319,-1.73105 17.84841,0.3575 20.21357,0.66281 23.38145,3.01824 6.1824,4.59684 6.6111,6.73885 6.63095,33.13215 0.0176,23.46312 -0.10275,24.68284 -2.83737,28.74997 -4.05183,6.02625 -8.83257,7.22463 -29.01921,7.27438 -14.34201,0.035 -18.40687,-0.36888 -22.52545,-2.23988 z m 37.89711,-10.02654 c 3.61635,-1.93543 4.2705,-6.66171 3.78912,-27.37684 -0.52822,-22.73008 -0.0312,-22.13375 -18.44919,-22.13375 -19.39756,0 -18.83659,-0.74202 -18.83659,24.9156 0,22.1431 0.79388,25.02524 7.20115,26.14365 5.73794,1.0015 23.48325,-0.0438 26.29551,-1.54866 z m 54.00334,-23.88559 0,-36.25 25.74859,0 c 28.99771,0 32.56783,0.80241 36.02982,8.098 2.39837,5.05419 2.63239,21.14826 0.37245,25.61447 -0.85926,1.69813 -3.4654,4.37 -5.79142,5.9375 -3.56379,2.40164 -5.87167,2.85003 -14.66929,2.85003 -5.74209,0 -10.43748,0.42188 -10.4342,0.9375 0.004,0.51563 6.78606,6.8099 15.07286,13.98726 8.28682,7.17737 15.34858,13.50549 15.69283,14.06249 0.34425,0.557 -2.92291,1.00263 -7.26037,0.99025 l -7.88627,-0.0225 -16.5625,-14.48589 c -14.00779,-12.25151 -16.5625,-15.03697 -16.5625,-18.05853 0,-5.12958 2.97301,-6.16058 17.76469,-6.16058 16.81044,0 18.48531,-1.01765 18.48531,-11.2316 0,-11.55494 -2.71869,-12.92353 -24.375,-12.27039 l -12.5,0.37699 -0.33434,30.9375 -0.33433,30.9375 -6.22817,0 -6.22816,0 0,-36.25 z m 108.01899,34.47325 c -2.12081,-0.92337 -5.07394,-3.22725 -6.5625,-5.11962 -2.57763,-3.277 -2.70649,-4.67454 -2.70649,-29.35363 0,-24.38531 0.15388,-26.10848 2.61038,-29.2314 5.0345,-6.40035 7.88217,-7.0186 32.32754,-7.0186 l 22.56208,0 0,5 0,5 -17.54015,0 c -25.1325,0 -28.18746,1.69414 -27.22959,15.10026 l 0.39474,5.52474 20.9375,0.34272 20.9375,0.34273 0,4.93955 0,4.93955 -20.9375,0.34273 -20.9375,0.34272 -0.36559,6.87599 c -0.63856,12.01015 2.84757,13.67064 28.80309,13.71914 l 15.9375,0.0299 0,5 0,5 -22.1875,-0.0488 c -15.72875,-0.035 -23.30997,-0.53775 -26.04351,-1.72787 z m 86.98101,-3.22325 0,-5 17.1875,-0.07 c 20.23929,-0.0825 25.30371,-1.36789 26.82259,-6.8045 1.44481,-5.17147 0.10725,-11.59042 -2.7317,-13.10981 -1.30023,-0.69635 -7.21443,-1.26569 -13.14269,-1.26569 -14.0748,0 -21.0933,-1.82239 -25.02815,-6.49869 -2.77406,-3.2968 -3.10755,-4.82777 -3.10755,-14.2662 0,-18.90121 2.70309,-20.48511 34.95985,-20.48511 l 22.54015,0 0,4.91399 0,4.91399 -20.11321,0.39851 c -19.39904,0.38436 -20.19796,0.5033 -22.5,3.34948 -2.81573,3.48132 -3.11251,9.95333 -0.61325,13.37262 1.52349,2.08431 3.88536,2.53222 16.75182,3.17691 22.79054,1.14194 26.42398,4.14872 26.45622,21.89342 0.0155,8.53027 -0.41265,10.69195 -2.69145,13.58895 -4.73562,6.02038 -8.89379,6.89213 -32.87498,6.89213 l -21.91515,0 0,-5 z m 111.25,-26.25 0,-31.25 -10.625,0 -10.625,0 0,-5 0,-5 28.75,0 28.75,0 0,5 0,5 -11.25,0 -11.25,0 0,31.25 0,31.25 -6.875,0 -6.875,0 0,-31.25 z m 126.806125,29.91463 c -2.100387,-0.61038 -5.194138,-2.57238 -6.875,-4.36001 -3.012938,-3.20425 -3.060813,-3.61537 -3.3877,-29.08991 -0.366188,-28.53767 -0.06012,-30.04145 7.097138,-34.86469 4.030799,-2.71636 5.334362,-2.85002 27.794287,-2.85002 l 23.56515,0 0,5 0,5 -18.16515,0 c -13.0347,0 -19.38945,0.51155 -22.5,1.81121 l -4.33485,1.81123 0,8.81377 0,8.81379 22.5,0 22.5,0 0,5 0,5 -22.5,0 -22.5,0 0,7.93126 c 0,12.21137 0.7403,12.59774 25.128588,13.11612 l 19.871412,0.42225 0,4.89025 0,4.89012 -22.1875,-0.1125 c -12.203125,-0.0625 -23.906,-0.61212 -26.006375,-1.22263 z m 83.193875,-34.91463 0,-36.25 26.312075,0 c 35.962555,0 37.437925,0.83743 37.437925,21.25 0,17.76253 -2.47686,20.25724 -21.09797,21.25 l -11.722967,0.625 16.410467,14.24492 c 9.02576,7.8347 16.41047,14.44408 16.41047,14.68746 0,0.2435 -3.5862,0.44262 -7.96934,0.44262 l -7.96935,0 L 98.123863,550.1036 C 84.112625,537.78305 81.7182,535.1441 81.7182,532.02258 c 0,-5.22161 2.9062,-6.24292 17.764688,-6.24292 16.771642,0 18.485312,-1.03154 18.485312,-11.12715 0,-11.05686 -1.45372,-11.90076 -21.3772,-12.40969 l -16.1228,-0.41184 0,31.34934 0,31.34934 -6.875,0 -6.875,0 0,-36.25 z m 108.75,34.27413 c -8.488,-3.6435 -8.69123,-4.42176 -8.7222,-33.39871 -0.0403,-37.70066 -0.58026,-37.12542 34.84861,-37.12542 l 22.62359,0 0,4.89018 0,4.89017 -20.11229,0.42233 c -19.51916,0.40987 -20.18435,0.5114 -22.55617,3.44268 -1.90515,2.35454 -2.36263,4.55896 -2.07521,10 l 0.36867,6.97964 20.9375,0.34272 20.9375,0.34273 0,4.96977 0,4.96978 -21.25,0 -21.25,0 0,6.95718 c 0,3.82644 0.56912,8.02058 1.26471,9.32031 1.95219,3.6477 9.12223,4.95788 27.17279,4.96551 l 16.5625,0.0125 0,5 0,5 -22.1875,-0.0488 c -16.87635,-0.0375 -23.23476,-0.4985 -26.5625,-1.927 z M 2.493775,480.25678 c -2.4890625,-3.03757 -4.525575,-5.85007 -4.525575,-6.25 0,-0.39991 2.390625,-0.71701 5.3125,-0.70466 4.9854,0.0211 5.563225,0.4059 9.384613,6.25 l 4.0721,6.22754 -4.859025,0 c -4.2293505,0 -5.4455005,-0.7157 -9.384613,-5.52288 z M 2.7993,400.29868 c -6.67415,-5.45485 -6.7612125,-5.48348 -18.274375,-6.01023 -20.26005,-0.92695 -21.9149,-3.9325 -21.326512,-38.73323 0.36145,-21.37791 0.615375,-23.64712 3.0072,-26.875 4.744637,-6.40306 8.065112,-7.22125 29.262587,-7.21052 15.902112,0.007 20.089588,0.39392 23.361625,2.15275 7.664937,4.12015 7.888375,5.07606 7.888375,33.74742 0,28.49635 -0.5902,31.38553 -7.080862,34.66259 -1.949275,0.98416 -3.817338,1.98747 -4.15125,2.22957 -0.333913,0.2421 2.197337,2.91101 5.625,5.93088 l 6.232112,5.4907 -8.9189,0.048 c -8.71115,0.0469 -9.0751125,-0.0796 -15.625,-5.43295 z m 8.848075,-18.82993 C 14.04715,379.297 14.2182,377.74722 14.2182,358.17665 l 0,-20.96554 -3.424075,-2.69337 c -3.1167375,-2.45163 -4.6406875,-2.65613 -16.978025,-2.27823 -11.689662,0.35805 -13.797662,0.74889 -15.325912,2.84156 -1.36125,1.86398 -1.771988,7.25178 -1.771988,23.24376 0,26.59308 -0.24085,26.29574 20.866675,25.76139 9.1758375,-0.23229 12.009775,-0.75977 14.0625,-2.61747 z M -878.9068,392.65099 c -2.75,-0.97292 -6.26562,-3.22959 -7.8125,-5.01484 -2.72635,-3.14646 -2.8125,-4.05849 -2.8125,-29.77306 0,-29.32929 0.18287,-30.10586 7.95815,-33.79548 3.49177,-1.65695 8.64111,-2.03795 27.54326,-2.03795 l 23.24859,0 0,4.91769 0,4.91769 -21.19079,0.39481 c -15.25351,0.28419 -21.64516,0.84919 -22.8125,2.01652 -1.16679,1.16679 -1.73218,7.54332 -2.01552,22.73119 -0.50681,27.16723 -1.15093,26.2721 18.9049,26.2721 18.93272,0 18.86617,0.0554 19.41855,-16.14751 l 0.42962,-12.60249 6.13288,0 6.13286,0 0,13.81208 c 0,16.51363 -1.44267,20.26155 -9.1454,23.7587 -4.32272,1.96258 -8.15594,2.36956 -22.1046,2.34691 -11.29717,-0.0184 -18.52769,-0.61213 -21.875,-1.79636 z m 99.33161,-0.93383 c -3.06521,-1.54687 -6.26985,-4.21875 -7.12143,-5.9375 -2.09608,-4.23054 -2.19757,-51.03832 -0.1205,-55.59689 0.80553,-1.76797 3.47741,-4.46632 5.9375,-5.99631 4.20351,-2.6143 5.86521,-2.7818 27.59782,-2.7818 l 23.125,0 0.38438,5.3125 0.38437,5.3125 -19.9334,0 c -24.4023,0 -25.34616,0.44254 -26.2028,12.28531 l -0.55386,7.65715 22.96065,0.34127 22.96066,0.34127 0.38438,5.3125 0.38437,5.3125 -23.19687,0 -23.19688,0 0,6.70642 c 0,4.87172 0.70216,7.59909 2.56663,9.96937 2.55525,3.24846 2.65631,3.26444 22.8125,3.60606 l 20.24587,0.34315 0.38438,5.3125 0.38437,5.3125 -22.30701,0 c -20.64858,0 -22.72135,-0.2091 -27.88013,-2.8125 z m 96.70953,1.44088 c -2.17736,-0.63038 -5.41174,-2.8728 -7.1875,-4.98317 l -3.22864,-3.83702 0,-25.59118 c 0,-28.63901 0.58208,-31.17889 7.94635,-34.67346 3.39884,-1.61285 8.31031,-2.04355 23.30365,-2.04355 30.82345,0 31.25,0.49396 31.25,36.18849 0,27.60556 -0.65355,30.02686 -9.1454,33.88228 -4.34874,1.9744 -8.07198,2.35995 -22.1046,2.28904 -9.28125,-0.0469 -18.65649,-0.60105 -20.83386,-1.23143 z m 36.53245,-11.65262 c 2.23759,-1.63616 2.42641,-3.4323 2.42641,-23.08035 0,-26.6291 0.6757,-25.60266 -17.23959,-26.18801 -11.55476,-0.37753 -13.10987,-0.15894 -16.20823,2.27822 l -3.42718,2.69583 0,20.53428 c 0,26.31138 -0.56336,25.53427 18.51109,25.53427 9.69583,0 14.19626,-0.50101 15.9375,-1.77424 z m 63.67641,11.14557 c -2.75,-0.97292 -6.26562,-3.22959 -7.8125,-5.01484 -2.71959,-3.13867 -2.8125,-4.09219 -2.8125,-28.86326 0,-37.35431 -0.59042,-36.74323 35.50141,-36.74323 l 23.24859,0 0,5 0,5 -20.05681,0 c -19.77301,0 -20.10143,0.0446 -23.20878,3.15195 -3.15159,3.15159 -3.15191,3.15443 -2.75569,23.8533 0.48809,25.49791 -0.51388,24.24475 19.38519,24.24475 18.69347,0 19.13609,-0.39033 19.13609,-16.875 l 0,-11.875 6.25,0 6.25,0 0,13.81208 c 0,16.51363 -1.44267,20.26155 -9.1454,23.7587 -4.32273,1.96258 -8.15594,2.36956 -22.1046,2.34691 -11.29717,-0.0184 -18.52769,-0.61213 -21.875,-1.79636 z m 90.625,-34.37133 0,-36.25 26.31208,0 c 35.60821,0 37.43792,0.98817 37.43792,20.21931 0,18.18128 -2.90661,21.24184 -21.1339,22.25321 l -11.7589,0.65248 13.0089,11.36675 c 7.1549,6.25171 14.6964,12.84331 16.7589,14.648 l 3.75,3.28125 -8.40069,0.0395 -8.40068,0.0395 -15.97432,-14.01811 c -8.78587,-7.70996 -16.38757,-14.60059 -16.89267,-15.3125 -0.5051,-0.71191 -0.92698,5.59624 -0.9375,14.01811 l -0.0191,15.3125 -6.875,0 -6.875,0 0,-36.25 z m 31.17071,-2.5 c 11.75689,0 13.91574,-0.3332 16.78572,-2.59072 2.76925,-2.17829 3.29357,-3.58032 3.29357,-8.80682 0,-4.93313 -0.63325,-6.84935 -3.06819,-9.28427 -2.93148,-2.9315 -3.76682,-3.06819 -18.75,-3.06819 l -15.68181,0 0,13.83929 c 0,12.58116 0.17858,13.66071 1.96429,11.875 1.54306,-1.54308 4.85751,-1.96429 15.45642,-1.96429 z m 61.32929,38.25856 c 0,-2.31996 30.52779,-69.25197 32.13056,-70.44606 3.57247,-2.66155 12.0759,-1.95331 15.0082,1.25 1.9291,2.10741 20.1364,41.83756 31.21991,68.125 0.48219,1.14364 -1.23918,1.5625 -6.42126,1.5625 l -7.08006,0 -3.8648,-8.75 -3.86479,-8.75 -17.77152,0 -17.77153,0 -3.91244,8.75 -3.91243,8.75 -6.87992,0 c -3.78396,0 -6.87992,-0.22115 -6.87992,-0.49144 z m 51.99539,-29.02057 c -3.02649,-7.88691 -12.75596,-29.19654 -13.33893,-29.2151 -0.71225,-0.0226 -12.40646,28.54687 -12.40646,30.30962 0,0.50462 5.96643,0.91749 13.25874,0.91749 11.67327,0 13.16641,-0.2406 12.48665,-2.01201 z m 56.75461,-7.36299 0,-36.875 22.43848,0 c 36.84046,0 40.50178,1.72405 41.89701,19.7285 1.15562,14.91252 -0.54574,19.93095 -8.03785,23.709 -5.05842,2.55081 -7.35546,2.8125 -24.6875,2.8125 l -19.11014,0 0,13.75 0,13.75 -6.25,0 -6.25,0 0,-36.875 z m 48.75,-4.375 c 1.93915,-1.93915 2.5,-4.16666 2.5,-9.92912 0,-10.6916 -1.23139,-11.32088 -22.15314,-11.32088 l -16.59686,0 0,11.875 0,11.875 16.875,0 c 15.20834,0 17.12191,-0.24691 19.375,-2.5 z m 52.5,5 0,-36.25 6.21152,0 6.21153,0 0.35097,15.3125 0.35098,15.3125 19.375,0 19.375,0 0.35098,-15.3125 0.35097,-15.3125 6.21153,0 6.21152,0 0,36.25 0,36.25 -6.25,0 -6.25,0 0,-15.65674 0,-15.65675 -19.6875,0.34425 -19.6875,0.34424 -0.35098,15.3125 -0.35097,15.3125 -6.21153,0 -6.21152,0 0,-36.25 z m 102.5,-0.625 0,-36.875 6.875,0 6.875,0 0,36.875 0,36.875 -6.875,0 -6.875,0 0,-36.875 z m 161.875,35.11045 c -2.0625,-0.91669 -5.15625,-3.1889 -6.875,-5.04935 l -3.125,-3.38265 -0.391725,-31.15173 -0.391725,-31.15172 6.954225,0 6.954225,0 0,28.125 c 0,35.14917 -1.1607,33.13339 19.0625,33.10586 7.73438,-0.01 14.73044,-0.44385 15.5468,-0.96293 3.34319,-2.12579 4.1407,-8.6934 4.1407,-34.09931 l 0,-26.16862 6.25,0 6.25,0 -0.005,30.3125 c -0.005,34.05481 -0.44514,35.99345 -9.09916,40.10005 -5.70803,2.70864 -39.363265,2.94869 -45.271165,0.3229 z m 102.29114,0.39293 c -2.17737,-0.63038 -5.41174,-2.8728 -7.1875,-4.98317 l -3.22864,-3.83702 0,-25.64873 c 0,-37.17531 -0.49956,-36.65946 35.50141,-36.65946 l 23.24859,0 0,4.91587 0,4.91588 -20.73818,0.39662 c -20.197,0.38628 -20.80191,0.47544 -23.18117,3.41699 -1.9041,2.35409 -2.36167,4.55999 -2.07432,10 l 0.36867,6.97964 20.9375,0.34272 20.9375,0.34273 0,4.96977 0,4.96978 -21.25,0 -21.25,0 0,6.70642 c 0,4.87172 0.70216,7.59909 2.56663,9.96937 2.55525,3.24846 2.65631,3.26444 22.8125,3.60606 l 20.24587,0.34315 0.38438,5.3125 0.38437,5.3125 -22.25937,-0.11275 c -12.24267,-0.062 -24.04087,-0.6285 -26.21824,-1.25889 z m -940.90219,-78.94088 c 0.50133,-0.85937 2.53029,-3.95312 4.50883,-6.875 3.21438,-4.74697 4.12318,-5.3125 8.53727,-5.3125 2.71698,0 4.93995,0.34651 4.93995,0.77003 0,0.42352 -2.01666,3.51727 -4.48146,6.875 -4.05984,5.53061 -4.94879,6.10497 -9.44878,6.10497 -3.62663,0 -4.7213,-0.42171 -4.05581,-1.5625 z m 265.99755,-89.65284 c -1.59841,-0.64638 -9.12369,-12.05388 -19.375,-29.37045 l -16.7615,-28.31357 -0.33554,28.82467 -0.33553,28.82469 -6.22697,0 -6.22696,0 0,-33.61153 c 0,-30.80233 0.19266,-33.84945 2.30521,-36.45832 3.17497,-3.92091 13.32918,-4.08819 16.42054,-0.2705 1.1474,1.41696 9.07536,14.55809 17.61771,29.20248 l 15.53154,26.62617 0.33554,-28.99415 0.33554,-28.99415 6.22696,0 6.22696,0 0,32.44119 c 0,21.11318 -0.48461,33.50478 -1.38784,35.48716 -2.25217,4.94298 -8.53286,6.95896 -14.35066,4.60631 z m 324.0572,-1.07062 c -1.13782,-1.25729 -7.18976,-13.49166 -13.44875,-27.1875 -6.25899,-13.69585 -11.88396,-25.43591 -12.49996,-26.08904 -0.66201,-0.70191 -1.11999,10.1598 -1.11999,26.5625 l 0,27.75 -6.25,0 -6.25,0 0,-32.95642 c 0,-31.44839 0.1185,-33.10714 2.59073,-36.25 2.17256,-2.76198 3.58487,-3.29358 8.75,-3.29358 4.20587,0 6.85303,0.6952 8.34677,2.19202 1.20313,1.20562 7.25,13.84765 13.4375,28.09343 6.1875,14.24576 11.58578,25.9156 11.99618,25.93296 0.4104,0.0174 5.97401,-11.76544 12.36358,-26.18404 6.38958,-14.41858 12.52255,-26.99928 13.62883,-27.95711 4.80563,-4.16075 15.0489,-3.16209 17.6628,1.72204 0.71006,1.32678 1.22361,16.22322 1.22361,35.49353 l 0,33.20717 -6.22609,0 -6.22608,0 -0.33642,-27.63891 -0.33641,-27.63893 -11.875,26.53428 c -6.53125,14.59385 -12.98454,27.31261 -14.34064,28.26391 -3.44392,2.41592 -8.63654,2.15546 -11.09066,-0.55631 z m 383.3209,1.02552 c -1.7533,-0.70632 -8.81607,-11.3367 -19.67156,-29.60826 l -16.93615,-28.5063 -0.016,29.0625 -0.0159,29.0625 -6.25,0 -6.25,0 0,-33.47186 c 0,-36.75966 0.23486,-38.01261 7.39359,-39.44435 2.05331,-0.41066 5.30906,-0.19734 7.23501,0.47405 3.88085,1.35286 4.15342,1.75534 23.65754,34.93172 l 13.58886,23.11457 0.33554,-29.05207 0.33554,-29.05206 6.22696,0 6.22696,0 0,33.22115 0,33.22116 -3.65385,3.65384 c -3.7127,3.7127 -7.22311,4.40101 -12.20655,2.39341 z m -1099.1396,-36.88306 0,-37.07134 26.5625,0.42955 c 39.04026,0.63134 38.4375,0.0551 38.4375,36.74373 0,36.41625 0.45836,35.98017 -38.4375,36.56799 l -26.5625,0.40142 0,-37.07135 z m 48.47187,23.69762 c 2.68971,-1.88394 2.77813,-2.63763 2.77813,-23.67912 0,-27.18051 1.34476,-25.625 -22.15313,-25.625 l -16.59687,0 0,25.625 0,25.625 16.59687,0 c 12.99838,0 17.19921,-0.4219 19.375,-1.94587 z m 52.15313,12.58153 c -0.6875,-0.22934 -2.70878,-0.73603 -4.49172,-1.12599 -1.78295,-0.38996 -4.73608,-2.20336 -6.5625,-4.0298 l -3.32078,-3.32077 0,-27.05141 c 0,-37.46391 -1.04401,-36.35768 34.31293,-36.35768 l 23.18707,0 0,5 0,5 -19.20642,0 c -17.53789,0 -19.49255,0.22506 -22.5,2.59073 -2.89629,2.27821 -3.29358,3.48447 -3.29358,10 l 0,7.40927 21.25,0 21.25,0 0,5.625 0,5.625 -21.25,0 -21.25,0 0,7.5 c 0,12.10575 0.78849,12.5 25,12.5 l 20,0 0,5.625 0,5.625 -20.9375,-0.0986 c -11.51562,-0.0542 -21.5,-0.28633 -22.1875,-0.51567 z m 126.13908,-0.80321 c -2.98157,-0.67078 -6.62705,-2.73153 -8.75,-4.94625 l -3.63908,-3.79643 0,-31.48237 0,-31.48239 6.5625,-0.37783 6.5625,-0.37782 0,28.81532 c 0,36.75352 -2.17222,33.81533 25,33.81533 l 20,0 0,5.625 0,5.625 -20.3125,-0.13386 c -11.17187,-0.0736 -22.61241,-0.65129 -25.42342,-1.2837 z m 80.73592,-35.45744 0,-36.875 7.5,0 7.5,0 0,36.875 0,36.875 -7.5,0 -7.5,0 0,-36.875 z m 121.25,5.01972 0,-31.85528 3.64491,-4.08222 3.64492,-4.08222 25.10508,-0.38536 25.10509,-0.38535 0,4.98872 0,4.98874 -20.7283,0.39663 c -24.48374,0.46848 -24.61049,0.53655 -24.01081,12.89362 l 0.36411,7.503 22.1875,0.34134 22.1875,0.34135 0,4.97115 0,4.97116 -22.5,0 -22.5,0 0,15.625 0,15.625 -6.25,0 -6.25,0 0,-31.85528 z m 92.19578,30.4106 c -2.57357,-0.71486 -6.08919,-2.97541 -7.8125,-5.02345 -3.12109,-3.70919 -3.13328,-3.82327 -3.13328,-29.31486 0,-28.46536 0.6113,-31.20514 7.83366,-35.10932 3.31019,-1.78938 7.32048,-2.18896 22.16634,-2.20865 31.96422,-0.0424 32.48864,0.53819 32.49533,35.97554 0.006,35.5987 -0.53908,36.281 -29.37033,36.71629 -9.625,0.14533 -19.60565,-0.32067 -22.17922,-1.03555 z m 36.00281,-11.57702 c 2.2025,-1.60821 2.46297,-3.68205 2.82269,-22.47305 0.39622,-20.69887 0.3959,-20.70171 -2.75569,-23.8533 -2.94521,-2.94521 -3.96449,-3.15195 -15.5402,-3.15195 -10.6401,0 -12.853,0.36559 -15.68181,2.59073 l -3.29358,2.59072 0,20.53428 c 0,26.31138 -0.56336,25.53427 18.51109,25.53427 9.68514,0 14.19817,-0.5017 15.9375,-1.7717 z m 36.80141,-23.97961 0,-37.0013 25.9375,0.4388 c 23.45303,0.39677 26.3563,0.68484 30.3097,3.00724 6.12977,3.60091 7.46319,7.06618 7.48437,19.4505 0.0155,9.02768 -0.40147,11.30274 -2.57851,14.07039 -4.03285,5.12695 -7.16685,6.26735 -19.20899,6.98985 l -11.18091,0.67083 14.30591,12.40651 c 21.96209,19.04617 20.62776,16.96849 10.89771,16.96849 l -8.33879,0 -16.25981,-14.0625 c -23.8003,-20.58399 -23.8437,-23.7173 -0.34191,-24.6875 18.32903,-0.75665 19.59873,-1.53603 19.59873,-12.03009 0,-10.72189 -1.8746,-11.71991 -22.01347,-11.71991 l -16.11153,0 0,31.25 0,31.25 -6.25,0 -6.25,0 0,-37.00131 z m 187.91541,32.93881 c 10.210977,-24.41624 27.987303,-63.38387 29.879052,-65.49815 5.222638,-5.83697 14.608775,-4.22962 18.371588,3.14609 3.137262,6.14955 28.83395,64.74 28.83395,65.74366 0,0.43761 -3.14895,0.62696 -6.997675,0.42078 l -6.997687,-0.37488 -3.815763,-9.09567 -3.815775,-9.09567 -17.57695,0.34567 -17.57695,0.34567 -3.7971,9.0455 -3.7971,9.0455 -7.20427,0.017 -7.20428,0.017 1.69896,-4.0625 z m 50.83459,-25.11261 c 0,-0.23382 -3.063775,-7.38918 -6.8084,-15.9008 -5.210925,-11.84456 -7.014588,-14.8977 -7.687188,-13.01238 -0.483325,1.3548 -3.279087,8.51016 -6.2128,15.90079 l -5.334012,13.4375 13.0212,0 c 7.161663,0 13.0212,-0.1913 13.0212,-0.42511 z m 50,-2.07489 0,-31.25 -11.25,0 -11.25,0 0,-5.625 0,-5.625 28.75,0 28.75,0 0,5.625 0,5.625 -11.25,0 -11.25,0 0,31.25 0,31.25 -6.25,0 -6.25,0 0,-31.25 z m 48.75,-5.625 0,-36.875 6.875,0 6.875,0 0,36.875 0,36.875 -6.875,0 -6.875,0 0,-36.875 z m 45.945775,35.43032 c -2.573562,-0.71486 -6.089187,-2.97541 -7.8125,-5.02345 -3.120025,-3.70793 -3.133275,-3.83141 -3.133275,-29.19396 0,-16.80621 0.498212,-26.56373 1.464637,-28.6848 0.805538,-1.76797 3.477413,-4.46632 5.9375,-5.99631 4.122188,-2.5637 5.991875,-2.7818 23.847863,-2.7818 30.8762,0 31.25,0.43361 31.25,36.25 0,35.31233 -0.57901,36.03111 -29.375,36.46587 -9.625,0.14533 -19.60565,-0.32067 -22.179225,-1.03555 z m 36.002815,-11.57702 c 2.2025,-1.60821 2.46297,-3.68205 2.82268,-22.47305 0.39623,-20.69887 0.39591,-20.70171 -2.75568,-23.8533 -2.9528,-2.95279 -3.94895,-3.15195 -15.76559,-3.15195 -11.725587,0 -12.82965,0.21601 -15.681812,3.06819 -2.986863,2.98685 -3.068188,3.56885 -3.068188,21.95717 0,18.25032 0.791962,22.95925 4.249625,25.268 2.64065,1.7632 27.590165,1.08982 30.198965,-0.81506 z m -741.32948,-47.9158 c 3.05379,-7.53466 3.39145,-9.30194 2.03619,-10.6572 -1.86015,-1.86015 -1.7988,-8.7618 0.0947,-10.6553 2.10215,-2.10215 6.63848,-1.868 8.55528,0.4416 2.39302,2.88341 1.9658,8.02474 -1.32697,15.9691 -2.6245,6.33198 -3.32871,7.0893 -6.59211,7.0893 -2.98415,0 -3.49125,-0.40087 -2.76714,-2.1875 z M -807.0318,54.185935 c -2.06615,-1.02935 -8.84276,-11.082138 -20,-29.669062 l -16.875,-28.112213 -0.33554,29.0625 -0.33554,29.0625 -6.22696,0 -6.22696,0 0,-31.688475 c 0,-18.9034875 0.52943,-33.207175 1.31222,-35.4527 2.32301,-6.6638 11.21587,-8.68425 16.70923,-3.796325 1.73847,1.546875 10.20735,14.8773 18.81971,29.623163 l 15.65884,26.81065 0,-28.99815 0,-28.998163 6.25,0 6.25,0 0,33.207175 c 0,19.2703 -0.51355,34.16675 -1.22361,35.493525 -0.67299,1.257488 -3.00693,2.908013 -5.18653,3.667825 -4.86171,1.6948 -4.75677,1.697387 -8.58986,-0.21225 z m 508.68169,0.222263 c -2.39786,-0.881613 -7.37987,-8.24455 -20,-29.558125 l -16.80669,-28.384038 -0.33554,29.031813 -0.33553,29.031812 -6.22697,0 -6.22696,0 0.0184,-32.8125 c 0.0206,-36.708313 0.33311,-38.356775 7.6147,-40.16905 8.43103,-2.098362 10.15285,-0.241 27.95857,30.159713 l 16.28335,27.8014 0.33554,-28.739788 0.33554,-28.739775 6.22696,0 6.22696,0 -0.0398,33.4375 c -0.0428,35.99805 -0.13144,36.513713 -6.70599,39.013363 -3.93413,1.49575 -4.0607,1.49465 -8.32257,-0.07238 z M 45.650487,54.249473 c -1.778162,-0.963688 -9.4456,-12.62785 -19.375,-29.474425 L 9.8432,-3.104565 9.5076625,25.712548 9.172125,54.52966 l -6.2269625,0 -6.2269625,0 0,-33.611525 c 0,-31.231238 0.169225,-33.8205 2.3895625,-36.5625 3.2422875,-4.00405 13.0397625,-4.237612 16.1583745,-0.385187 1.142388,1.411174 8.827063,14.1947495 17.077063,28.40795 8.25,14.213187 15.421875,25.855462 15.9375,25.871712 0.515625,0.01625 0.9375,-12.6267 0.9375,-28.09545 l 0,-28.125 6.25,0 6.25,0 0,33.0553 c 0,32.49925 -0.04738,33.10905 -2.8125,36.251338 -3.366638,3.82575 -9.204125,5.108687 -13.255213,2.913175 z M -890.7818,17.65466 l 0,-36.875 7.5,0 7.5,0 0,36.875 0,36.875 -7.5,0 -7.5,0 0,-36.875 z m 117.5,31.369213 0,-5.744213 19.76109,0 c 22.74466,0 23.92044,-0.417963 24.8698,-8.840725 0.48548,-4.307225 0.0746,-6.245962 -1.81921,-8.584788 -2.27688,-2.811812 -3.51972,-3.073587 -17.9415,-3.778999 -22.49982,-1.100513 -24.87018,-3.0609 -24.87018,-20.568588 0,-9.89575 0.25464,-10.971625 3.4375,-14.523538 4.66474,-5.205624 9.76374,-6.138325 33.75,-6.173537 l 20.3125,-0.02982 0,5.625 0,5.625 -19.76109,0 c -22.44015,0 -23.78469,0.453775 -24.84866,8.3863375 -0.59102,4.406375 -0.21641,5.6511375 2.52609,8.3936375 3.04034,3.040338 3.93359,3.220025 16.00718,3.220025 14.44619,0 22.0507,2.532013 24.63424,8.202263 1.9113,4.19485 1.81458,21.6142 -0.14149,25.479312 -0.85078,1.681113 -3.51436,4.212363 -5.91907,5.625 -3.8901,2.285225 -6.88759,2.616025 -27.1847,3.000138 l -22.8125,0.431725 0,-5.744225 z m 95,-25.630225 0,-31.2666505 -10.9375,-0.361175 -10.9375,-0.3611625 -0.38437,-5.3125 -0.38438,-5.3125 28.82188,0 28.82187,0 0,5.625 0,5.625 -10.60316,0 -10.60316,0 -0.33434,30.9375 -0.33434,30.9375 -6.5625,0.377825 -6.5625,0.377825 0,-31.266662 z m 48.75,-5.738988 0,-36.875 6.875,0 6.875,0 0,36.875 0,36.875 -6.875,0 -6.875,0 0,-36.875 z m 50,5.625 0,-31.25 -11.25,0 -11.25,0 0,-5.625 0,-5.625 28.75,0 28.75,0 0,5.625 0,5.625 -11.25,0 -11.25,0 0,31.25 0,31.25 -6.25,0 -6.25,0 0,-31.25 z m 60.85475,29.438988 c -11.46522,-4.089013 -12.3345,-7.255888 -11.85504,-43.188988 l 0.37529,-28.125 6.5625,-0.377825 6.5625,-0.377825 0,28.815325 c 0,35.856288 -1.12331,33.815325 18.61153,33.815325 20.58168,0 19.42081,1.961225 19.91047,-33.6375875 l 0.397,-28.8624125 6.22563,0 6.22563,0 -0.37263,31.7952 -0.37263,31.7952 -3.67894,3.837712 c -2.02342,2.110738 -5.67967,4.393513 -8.125,5.072825 -6.67102,1.853213 -34.78925,1.462738 -40.46631,-0.56195 z m 89.14525,-29.438988 0,-31.25 -11.25,0 -11.25,0 0,-5.625 0,-5.625 28.75,0 28.75,0 0,5.625 0,5.625 -11.25,0 -11.25,0 0,31.25 0,31.25 -6.25,0 -6.25,0 0,-31.25 z m 160.45086,28.4375 c 1.62997,-6.350425 28.5076,-65.451525 30.81499,-67.758912 3.37616,-3.37615 11.59559,-3.39005 14.89512,-0.02513 2.23944,2.283724 31.33903,66.730437 31.33903,69.406325 0,0.654612 -2.9921,1.190212 -6.6491,1.190212 l -6.6491,0 -4.13468,-9.40835 -4.13466,-9.40835 -17.56817,0.34585 -17.56818,0.34585 -3.7577,9.0625 -3.7577,9.0625 -6.77586,0 c -6.40739,0 -6.73661,-0.15295 -6.05399,-2.8125 z m 50.79914,-26.6331 c 0,-0.753925 -12.49315,-29.6978625 -13.07343,-30.2883125 -0.194,-0.1974 -3.19296,6.693225 -6.66435,15.3125005 l -6.31162,15.671412 13.0247,0 c 7.16359,0 13.0247,-0.313012 13.0247,-0.6956 z m 48.75,-1.690412 0,-31.2666505 -10.9375,-0.361175 -10.9375,-0.3611625 -0.38437,-5.3125 -0.38438,-5.3125 29.51875,0 29.51875,0 -0.38437,5.3125 -0.38438,5.3125 -10.91576,0.36085 -10.91578,0.36085 -0.33422,30.88915 -0.33424,30.88915 -6.5625,0.377825 -6.5625,0.377825 0,-31.266662 z m 48.75,-5.738988 0,-36.875 7.5,0 7.5,0 0,36.875 0,36.875 -7.5,0 -7.5,0 0,-36.875 z m 46.764075,35.526475 c -2.89865,-0.691275 -6.6861,-2.862587 -8.75,-5.0163 l -3.639075,-3.797437 0,-26.075488 c 0,-24.4898625 0.158862,-26.2901875 2.612413,-29.606362 4.783325,-6.465025 8.062362,-7.280888 29.262587,-7.280888 16.8931,0 19.88285,0.307325 23.33955,2.39915 6.859225,4.150863 7.28545,6.13125 7.28545,33.85085 0,28.260875 -0.481825,30.306938 -7.99345,33.943788 -5.287888,2.560187 -33.5633,3.622725 -42.117475,1.582687 z m 34.207787,-11.84735 c 2.689713,-1.88395 2.778138,-2.637638 2.778138,-23.679125 0,-26.6507125 0.7255,-25.625 -18.125,-25.625 -18.8058,0 -18.125,-0.9417 -18.125,25.070875 0,26.932825 -0.513813,26.179125 17.846862,26.179125 9.604338,0 13.548076,-0.491138 15.625,-1.945875 z M 74.600937,52.96716 c 2.18645,-5.254237 26.454663,-59.976325 28.490583,-64.243087 3.82522,-8.016613 13.81609,-10.35475 18.95535,-4.436063 1.67133,1.9248 30.92133,67.629988 30.92133,69.459538 0,0.430162 -3.0289,0.782112 -6.73089,0.782112 l -6.73089,0 -4.12001,-9.375 -4.12001,-9.375 -17.34521,0 -17.345228,0 -4.272325,9.375 -4.272325,9.375 -7.040287,0 c -5.145675,0 -6.865325,-0.420488 -6.390088,-1.5625 z M 126.7182,25.33056 c 0,-0.247013 -3.05375,-7.418887 -6.7861,-15.9375 -6.16741,-14.0762875 -6.89656,-15.2034875 -7.99756,-12.3634 -0.66629,1.71875 -2.33837,5.9375 -3.71572,9.375 -1.37735,3.4375 -3.6765,9.203125 -5.10921,12.8125 l -2.60493,6.5625 13.10676,0 c 7.20872,0 13.10676,-0.2021 13.10676,-0.4491 z m 56.25,28.3342 c -6.788,-1.139162 -11.32449,-3.210475 -13.73045,-6.269162 -2.37566,-3.02015 -2.51955,-5.013838 -2.51955,-34.909513 l 0,-31.706425 6.25,0 6.25,0 0,28.75 c 0,36.677713 -2.16868,33.75 25,33.75 l 20,0 0,5.625 0,5.625 -19.0625,-0.170225 C 194.67132,54.26581 184.68695,53.95321 182.9682,53.66476 Z m -664.51291,-194.17809 c -35.01338,-2.69641 -65.76393,-10.87938 -96.11209,-25.5762 -41.95546,-20.31792 -76.17182,-51.08323 -100.57749,-90.43326 -48.57377,-78.31705 -52.90137,-189.74542 -10.567,-272.08195 36.77228,-71.51872 103.20485,-117.74228 188.64449,-131.2582 17.41851,-2.75548 57.96109,-3.81355 75.70256,-1.97567 41.05782,4.25328 87.25769,20.18575 117.28325,40.44626 l 9.23581,6.2321 -0.70331,9.53246 c -0.38682,5.24285 -1.9806,30.49704 -3.54171,56.12043 l -2.83839,46.58796 -7.50845,-8.46296 c -35.447,-39.95328 -74.74221,-59.75544 -126.97153,-63.9852 -27.39265,-2.21837 -54.5791,0.97223 -79.8747,9.37409 -54.09364,17.96707 -88.90238,60.06564 -99.63932,120.50632 -2.73695,15.40696 -3.60541,43.20304 -1.85565,59.39181 4.975,46.02833 20.58699,81.32559 48.12742,108.81165 22.94518,22.89989 50.13047,36.73245 86.33402,43.92891 8.6412,1.71768 17.33719,2.23839 37.5,2.24545 30.2226,0.01 43.13949,-1.97865 70.13214,-10.80054 l 15.49286,-5.06346 0,-25.49851 0,-25.4985 14.6875,-0.0244 c 23.82908,-0.0396 49.65115,-4.28365 71.25,-11.7105 l 9.0625,-3.11617 0,62.23898 0,62.23899 -16.41499,7.76228 c -36.94923,17.47247 -67.01183,27.19752 -106.08501,34.31777 -30.10589,5.48615 -65.26567,7.7136 -90.76291,5.75003 z m 692.73113,-0.66736 c -1.0782,-1.0782 -63.97774,-70.04499 -139.776782,-153.25954 L -66.4068,-445.73941 l -0.317725,144.50953 -0.317737,144.50954 -44.369768,0 -44.36977,0 0,-253.125 0,-253.125 7.8125,0.055 7.8125,0.055 138.75,154.24324 c 76.3125,84.83378 139.17187,154.27778 139.6875,154.31999 0.51563,0.0422 0.9375,-65.73574 0.9375,-146.17324 l 0,-146.25 44.375,0 44.375,0 0,253.75 0,253.75 -7.41071,0 c -5.06404,0 -8.03148,-0.62076 -9.37107,-1.96035 z m -1100.71822,-260.53965 0,-246.25 48.75,0 48.75,0 0,246.25 0,246.25 -48.75,0 -48.75,0 0,-246.25 z"
       id="path4193"
       inkscape:connector-curvature="0" />
  </g>
</svg>
