<?xml version="1.0" encoding="UTF-8" standalone="no"?>
<!-- Created with Inkscape (http://www.inkscape.org/) -->

<svg
   xmlns:dc="http://purl.org/dc/elements/1.1/"
   xmlns:cc="http://creativecommons.org/ns#"
   xmlns:rdf="http://www.w3.org/1999/02/22-rdf-syntax-ns#"
   xmlns:svg="http://www.w3.org/2000/svg"
   xmlns="http://www.w3.org/2000/svg"
   xmlns:sodipodi="http://sodipodi.sourceforge.net/DTD/sodipodi-0.dtd"
   xmlns:inkscape="http://www.inkscape.org/namespaces/inkscape"
   version="1.1"
   width="24"
   height="24"
   id="svg4460"
   inkscape:version="0.91 r13725"
   sodipodi:docname="ign-oeil.svg">
  <sodipodi:namedview
     pagecolor="#ffffff"
     bordercolor="#666666"
     borderopacity="1"
     objecttolerance="10"
     gridtolerance="10"
     guidetolerance="10"
     inkscape:pageopacity="0"
     inkscape:pageshadow="2"
     inkscape:window-width="1280"
     inkscape:window-height="972"
     id="namedview11"
     showgrid="false"
     inkscape:zoom="19.666667"
     inkscape:cx="11.092733"
     inkscape:cy="6.3568746"
     inkscape:window-x="-8"
     inkscape:window-y="-8"
     inkscape:window-maximized="1"
     inkscape:current-layer="svg4460" />
  <defs
     id="defs4462" />
  <metadata
     id="metadata4465">
    <rdf:RDF>
      <cc:Work
         rdf:about="">
        <dc:format>image/svg+xml</dc:format>
        <dc:type
           rdf:resource="http://purl.org/dc/dcmitype/StillImage" />
        <dc:title />
      </cc:Work>
    </rdf:RDF>
  </metadata>
  <path
     style="fill:#f49d07"
     d="M 11.278552,21.055572 C 8.4557375,20.782069 5.8336442,19.454452 3.14704,16.938426 2.4330395,16.269756 1.1272513,14.845115 0.98840517,14.583309 c -0.059659,-0.112536 -0.059659,-0.393199 0,-0.505737 C 1.0139303,14.029472 1.1431742,13.845981 1.2756453,13.669816 2.2605955,12.359994 3.7043932,10.91642 5.005871,9.940187 6.8658156,8.5450504 8.8479068,7.6930824 10.871423,7.4189844 c 0.737027,-0.09984 1.932306,-0.09014 2.676754,0.02173 2.243061,0.33702 4.264258,1.314348 6.45188,3.1197386 1.106338,0.913036 3.334294,3.301275 3.427996,3.674613 0.04967,0.197795 -0.02678,0.37208 -0.339049,0.773244 -0.881315,1.132176 -2.176051,2.403849 -3.351235,3.291534 -1.958499,1.479364 -3.961858,2.370148 -6.02366,2.678392 -0.624225,0.09332 -1.86428,0.132711 -2.435557,0.07735 z m 1.839091,-1.658684 c 1.60269,-0.279486 3.077593,-1.398923 3.800276,-2.884379 0.38728,-0.796036 0.540719,-1.548384 0.509222,-2.496751 -0.01746,-0.526049 -0.04063,-0.70305 -0.144908,-1.106664 -0.154787,-0.599228 -0.529986,-1.375879 -0.901537,-1.866168 -0.803614,-1.060413 -1.986288,-1.779325 -3.319105,-2.01758 -0.572097,-0.102264 -1.580399,-0.06835 -2.110096,0.07098 -2.0444352,0.537757 -3.4947465,2.04485 -3.9298206,4.083686 -0.1158193,0.542772 -0.1259332,1.48843 -0.021311,1.99123 0.495094,2.378793 2.3219284,4.038451 4.7318456,4.298835 0.269149,0.02908 1.029233,-0.01104 1.385409,-0.07319 z M 11.4571,16.893969 c -0.964013,-0.25982 -1.7409954,-1.058077 -1.9701783,-2.024124 -0.08463,-0.356712 -0.085316,-0.959467 -0.0012,-1.312585 0.2388872,-1.0064 1.0927703,-1.838194 2.1080913,-2.053549 0.430896,-0.09139 1.039865,-0.05845 1.465199,0.07928 0.806192,0.261053 1.469564,0.926419 1.761614,1.766906 0.09881,0.284357 0.111372,0.37777 0.113052,0.840409 0.0018,0.436158 -0.01325,0.569146 -0.09146,0.820778 -0.145655,0.46854 -0.340463,0.78157 -0.723801,1.163077 -0.39386,0.391977 -0.740098,0.594744 -1.229159,0.719823 -0.405955,0.103824 -1.046596,0.103812 -1.43186,-1.8e-5 z m 5.57146,1.838042 c 1.720792,-0.911613 3.507557,-2.375404 4.849092,-3.972568 0.239338,-0.28494 0.288691,-0.366264 0.259915,-0.428277 -0.06397,-0.137853 -0.967299,-1.145216 -1.55686,-1.736161 -0.601426,-0.602835 -1.227852,-1.160344 -1.841842,-1.639226 -0.654023,-0.510096 -1.98884,-1.356188 -2.047318,-1.297709 -0.01188,0.01188 0.107448,0.170788 0.26508,0.353213 0.97456,1.127794 1.459738,2.322537 1.583252,3.898764 0.03016,0.384559 -0.03793,1.191118 -0.140533,1.664894 -0.24608,1.136475 -0.85423,2.25855 -1.674521,3.089598 -0.380954,0.385957 -0.322113,0.399026 0.303735,0.06748 z M 7.4922968,18.513232 C 6.4413548,17.332841 5.8956806,15.999276 5.8375452,14.469181 5.7711562,12.722034 6.3459072,11.169882 7.5414384,9.867657 7.7028295,9.69186 7.8149166,9.541371 7.7905114,9.533238 7.7251764,9.511448 6.9226929,9.963208 6.3398449,10.349874 5.3758565,10.989389 4.5606772,11.674963 3.6237126,12.63419 3.0753474,13.195582 2.4116744,13.958068 2.2508371,14.211476 l -0.072499,0.114228 0.3327455,0.372593 c 1.2307906,1.378179 2.4707618,2.479755 3.7559794,3.336773 0.5685926,0.379155 1.517832,0.91669 1.5543316,0.880191 0.00836,-0.0084 -0.1397071,-0.1893 -0.3290975,-0.402024 z M 2.2592169,10.654151 C 2.1409353,10.603941 0.06674943,8.5549464 0.02002791,8.4421544 c -0.0907882,-0.219195 0.14324679,-0.481049 0.37741421,-0.422281 0.0710124,0.01782 0.50306445,0.417015 1.20917868,1.1172106 0.9610809,0.953026 1.098428,1.10452 1.09661,1.209587 -0.00421,0.23518 -0.2359854,0.395776 -0.4440139,0.30748 z M 21.4024,10.607911 c -0.108672,-0.108672 -0.138136,-0.254865 -0.07444,-0.369275 0.02938,-0.05274 0.533261,-0.568009 1.119763,-1.145035 1.040173,-1.0233576 1.070344,-1.0491306 1.228256,-1.0491306 0.257772,0 0.40572,0.246714 0.276392,0.460895 -0.02672,0.0443 -0.528668,0.5532766 -1.115381,1.1310686 -0.997796,0.982626 -1.076087,1.050538 -1.211147,1.050538 -0.0904,0 -0.17396,-0.02956 -0.223452,-0.07906 z M 6.5796893,7.5983264 C 6.4506137,7.5511294 6.4624309,7.5749084 5.786429,6.0025474 5.4695103,5.2654184 5.2607534,4.7278764 5.2597601,4.6463714 c -0.0012,-0.08501 0.029137,-0.165828 0.081541,-0.218202 0.1084992,-0.108504 0.3391087,-0.111156 0.4449169,-0.0048 0.1050612,0.105288 1.2415663,2.75548 1.2415663,2.895175 0,0.105972 -0.1248917,0.285831 -0.1984746,0.285831 -0.019385,0 -0.059177,0.0076 -0.088525,0.01686 -0.029317,0.0092 -0.1018165,-6.02e-4 -0.1610962,-0.02257 z m 10.5675627,-0.03365 c -0.202846,-0.159555 -0.194562,-0.191961 0.413251,-1.615875 0.311675,-0.730146 0.595279,-1.376577 0.630238,-1.436507 0.07728,-0.132483 0.253913,-0.202249 0.385433,-0.152246 0.115284,0.04382 0.222747,0.189588 0.222747,0.302128 0,0.150512 -1.156919,2.794578 -1.265346,2.891856 -0.123917,0.11118 -0.253967,0.114756 -0.386323,0.01068 z m -5.096534,-1.260006 -0.09827,-0.09828 0,-1.545186 0,-1.545194 0.105936,-0.09818 c 0.142182,-0.131773 0.344599,-0.131736 0.476426,9.6e-5 l 0.09828,0.09827 0,1.545102 0,1.545097 -0.09828,0.09827 c -0.06785,0.06785 -0.142783,0.09828 -0.242047,0.09828 -0.09926,0 -0.174197,-0.03041 -0.242049,-0.09828 z"
     id="path4189"
     inkscape:connector-curvature="0" />
</svg>
