<?xml version="1.0" encoding="UTF-8" standalone="no"?>
<!-- Created with Inkscape (http://www.inkscape.org/) -->

<svg
   xmlns:dc="http://purl.org/dc/elements/1.1/"
   xmlns:cc="http://creativecommons.org/ns#"
   xmlns:rdf="http://www.w3.org/1999/02/22-rdf-syntax-ns#"
   xmlns:svg="http://www.w3.org/2000/svg"
   xmlns="http://www.w3.org/2000/svg"
   xmlns:sodipodi="http://sodipodi.sourceforge.net/DTD/sodipodi-0.dtd"
   xmlns:inkscape="http://www.inkscape.org/namespaces/inkscape"
   version="1.1"
   width="24"
   height="24"
   id="svg4460"
   inkscape:version="0.91 r13725"
   sodipodi:docname="loisir-marche.svg">
  <sodipodi:namedview
     pagecolor="#ffffff"
     bordercolor="#666666"
     borderopacity="1"
     objecttolerance="10"
     gridtolerance="10"
     guidetolerance="10"
     inkscape:pageopacity="0"
     inkscape:pageshadow="2"
     inkscape:window-width="1280"
     inkscape:window-height="972"
     id="namedview11"
     showgrid="false"
     inkscape:zoom="13.906433"
     inkscape:cx="-1.4865839"
     inkscape:cy="22.303908"
     inkscape:window-x="-8"
     inkscape:window-y="-8"
     inkscape:window-maximized="1"
     inkscape:current-layer="svg4460" />
  <defs
     id="defs4462" />
  <metadata
     id="metadata4465">
    <rdf:RDF>
      <cc:Work
         rdf:about="">
        <dc:format>image/svg+xml</dc:format>
        <dc:type
           rdf:resource="http://purl.org/dc/dcmitype/StillImage" />
        <dc:title></dc:title>
      </cc:Work>
    </rdf:RDF>
  </metadata>
  <path
     style="fill:#26bcee"
     d="m 16.12309,23.89737 c -0.0666,-0.0539 -0.14803,-0.15092 -0.18098,-0.21552 -0.036,-0.0705 -0.0732,-0.83059 -0.0931,-1.9016 -0.0514,-2.76075 -0.0956,-3.96961 -0.14503,-3.96961 -0.0249,0 -0.91683,1.3377 -1.98202,2.97266 -1.06519,1.63497 -1.98276,3.01434 -2.03905,3.06528 -0.26131,0.23648 -0.66369,-0.0271 -0.53889,-0.35303 0.0317,-0.0827 0.99556,-1.58987 2.14198,-3.34926 1.14642,-1.75938 2.07665,-3.23343 2.06718,-3.27566 -0.019,-0.0849 -3.48062,-2.63871 -3.63049,-2.67842 -0.0565,-0.015 -0.10618,0.0167 -0.12481,0.0797 -0.017,0.0575 -0.2402,0.88362 -0.49597,1.83584 -0.25577,0.95222 -0.50613,1.81007 -0.55637,1.90632 -0.21544,0.41282 -4.0522099,5.63231 -4.1845399,5.6926 -0.40678,0.18534 -0.81692,-0.0687 -0.81692,-0.50592 0,-0.22282 0.12327,-0.40892 1.89227,-2.85678 1.04075,-1.44014 1.93831,-2.68956 1.99457,-2.7765 0.0563,-0.0869 0.8620099,-2.95917 1.7905299,-6.38273 1.79291,-6.6106803 1.71699,-6.3744903 2.07816,-6.4651403 0.19121,-0.048 0.4139,0.0201 0.54198,0.16576 0.0604,0.0687 0.56188,1.13042 1.11432,2.35935 l 1.00445,2.23442 1.77969,0.7244203 c 1.13432,0.46173 1.83185,0.77659 1.92354,0.86828 0.21904,0.21904 0.20316,0.57614 -0.0351,0.789 -0.11509,0.10283 -0.24204,0.15988 -0.3558,0.15988 -0.24534,0 -3.9572,-1.5078 -4.13339,-1.67903 -0.0769,-0.0748 -0.44791,-0.8195603 -0.82441,-1.6551303 -0.3765,-0.83556 -0.7095,-1.51372 -0.73999,-1.50702 -0.0531,0.0117 -1.55854,5.4563503 -1.55932,5.6395403 -4.1e-4,0.0969 3.86551,2.95727 4.01312,2.96928 0.0568,0.005 0.47955,-0.59083 1.181,-1.66354 0.66667,-1.01953 1.13967,-1.68819 1.21352,-1.71551 0.2383,-0.0881 0.46048,0.0794 0.46048,0.34733 0,0.0562 -0.49646,0.8648 -1.10325,1.79684 l -1.10325,1.69462 0.11731,0.18981 c 0.11113,0.17981 0.11974,0.3084 0.16345,2.44166 0.0254,1.23851 0.0476,2.82216 0.0493,3.51922 l 0.003,1.26738 -0.16592,0.16592 c -0.19492,0.19492 -0.52463,0.22478 -0.72147,0.0653 z M 8.1488801,15.682 c -0.0815,-0.0443 -0.1818,-0.16154 -0.22279,-0.26049 -0.064,-0.15445 -0.0599,-0.23311 0.0287,-0.55575 0.19261,-0.70148 0.22179,-0.85982 0.16779,-0.91058 -0.0289,-0.0271 -0.71661,-0.24499 -1.52834,-0.48414 -2.07775,-0.61213 -2.16793,-0.6439 -2.29831,-0.80965 -0.0667,-0.0848 -0.1141,-0.23047 -0.11399,-0.35036 3.1e-4,-0.32812 1.94961,-7.3425203 2.1583,-7.7664203 0.37177,-0.75518 1.09476,-1.336992 1.85933,-1.496267 0.92582,-0.192869 2.2809299,0.195809 2.9366999,0.842317 0.44812,0.4418 0.70566,1.14547 0.62519,1.7082 -0.0207,0.14458 -0.64941,2.42133 -1.39719,5.0594603 -1.2605499,4.44715 -1.3719999,4.80797 -1.5297599,4.9527 -0.19165,0.17581 -0.44454,0.20199 -0.6856,0.071 z m 0.42617,-3.02273 c 0.0166,-0.0546 0.48013,-1.68307 1.03014,-3.6187403 1.0555699,-3.7149 1.0746299,-3.80741 0.8540199,-4.14411 -0.34693,-0.52949 -1.4801799,-0.85726 -2.2122499,-0.63986 -0.28611,0.085 -0.70256,0.48568 -0.87176,0.83884 -0.13568,0.28319 -1.90458,6.6765503 -1.87325,6.7705303 0.0228,0.0683 2.66242,0.87813 2.8907,0.88686 0.0991,0.004 0.16279,-0.0289 0.1824,-0.0935 z M 14.95254,4.6931897 c -0.31322,-0.0738 -0.75241,-0.31085 -1.01418,-0.54733 -0.5567,-0.50295 -0.8126,-1.128405 -0.77647,-1.897792 0.0201,-0.426914 0.0508,-0.547718 0.23381,-0.917973 0.72006,-1.45693697 2.63491,-1.78376097 3.7899,-0.64685097 1.28151,1.26145497 0.75589,3.42572597 -0.9616,3.95946597 -0.37829,0.11755 -0.89911,0.13823 -1.27146,0.0505 z m 1.19638,-1.294221 c 0.37536,-0.268979 0.57774,-0.629188 0.57774,-1.02826 0,-0.870025 -0.93472,-1.44700897 -1.73486,-1.070897 -0.78362,0.368344 -0.90623,1.490625 -0.22003,2.014014 0.39812,0.303664 1.01868,0.342024 1.37715,0.08514 z"
     id="path4215"
     inkscape:connector-curvature="0" />
</svg>
