<?xml version="1.0" encoding="UTF-8" standalone="no"?>
<!-- Created with Inkscape (http://www.inkscape.org/) -->

<svg
   xmlns:dc="http://purl.org/dc/elements/1.1/"
   xmlns:cc="http://creativecommons.org/ns#"
   xmlns:rdf="http://www.w3.org/1999/02/22-rdf-syntax-ns#"
   xmlns:svg="http://www.w3.org/2000/svg"
   xmlns="http://www.w3.org/2000/svg"
   xmlns:sodipodi="http://sodipodi.sourceforge.net/DTD/sodipodi-0.dtd"
   xmlns:inkscape="http://www.inkscape.org/namespaces/inkscape"
   version="1.1"
   width="24"
   height="24"
   id="svg4460"
   inkscape:version="0.91 r13725"
   sodipodi:docname="loisir-chateau.svg">
  <sodipodi:namedview
     pagecolor="#ffffff"
     bordercolor="#666666"
     borderopacity="1"
     objecttolerance="10"
     gridtolerance="10"
     guidetolerance="10"
     inkscape:pageopacity="0"
     inkscape:pageshadow="2"
     inkscape:window-width="1280"
     inkscape:window-height="972"
     id="namedview11"
     showgrid="false"
     inkscape:zoom="13.906433"
     inkscape:cx="-0.58580235"
     inkscape:cy="17.37329"
     inkscape:window-x="-8"
     inkscape:window-y="-8"
     inkscape:window-maximized="1"
     inkscape:current-layer="svg4460" />
  <defs
     id="defs4462" />
  <metadata
     id="metadata4465">
    <rdf:RDF>
      <cc:Work
         rdf:about="">
        <dc:format>image/svg+xml</dc:format>
        <dc:type
           rdf:resource="http://purl.org/dc/dcmitype/StillImage" />
        <dc:title></dc:title>
      </cc:Work>
    </rdf:RDF>
  </metadata>
  <path
     style="fill:#1eb099"
     d="M 0.3956133,23.418891 C 0.3375633,23.404881 0.2248472,23.331861 0.14506421,23.256723 0.02970773,23.148086 1.55e-5,23.072831 1.55e-5,22.889158 c 0,-0.43444 0.1473364,-0.552714 0.73844541,-0.592796 l 0.39559779,-0.02679 0.026404,-5.075361 0.026404,-5.075361 0.119989,-0.120132 c 0.095873,-0.09599 0.1965884,-0.125431 0.5010887,-0.146507 l 0.3810996,-0.0264 0.012868,-0.712071 c 0.00667,-0.391642 0.025546,-0.766212 0.040988,-0.832383 0.034601,-0.148185 0.3168728,-0.327568 0.515806,-0.327835 0.1853406,-2.57e-4 0.4320769,0.124593 0.4909371,0.248395 0.024688,0.05185 0.057192,0.438425 0.072348,0.859083 l 0.027548,0.764811 0.5010886,0 0.5010887,0 0.012868,-0.712071 c 0.00667,-0.391642 0.025546,-0.766212 0.040988,-0.832383 0.034601,-0.148185 0.3168824,-0.327568 0.5158156,-0.327835 0.185331,-2.57e-4 0.4320768,0.124593 0.490937,0.248395 0.024688,0.05185 0.057192,0.438425 0.072348,0.859083 l 0.027548,0.764811 0.2373567,0 0.2373568,0 0.026404,-1.954026 C 6.0369769,8.1173602 6.0492739,7.9031948 6.1332316,7.7751322 6.1847046,7.6966842 6.2321356,7.62771 6.2387225,7.6218573 c 0.00667,-0.00572 0.5460225,-0.023639 1.198756,-0.039558 l 1.1867934,-0.028882 0,-1.1340432 0,-1.1340433 -0.3275392,-0.03136 C 8.1165762,5.2367198 7.928948,5.1892503 7.8797723,5.1484819 7.6729466,4.9769532 7.6201106,4.5791059 7.7748152,4.3581823 7.8241911,4.2877407 11.181111,1.2504872 11.778339,0.73595843 c 0.246308,-0.2122018 0.524824,-0.2319807 0.755222,-0.053665 0.225118,0.1742644 3.815905,3.39863137 4.01582,3.60603857 0.193634,0.2008777 0.226633,0.4470707 0.09427,0.7030721 -0.09597,0.1855788 -0.183549,0.2252225 -0.582159,0.2634935 l -0.316472,0.030407 0,1.1340432 0,1.1340432 1.172257,0.026404 c 1.132032,0.02545 1.176384,0.030503 1.292284,0.146469 0.119608,0.119684 0.120104,0.1267663 0.146393,2.1098455 l 0.0264,1.9897515 0.263731,0 0.263732,0 0.0264,-0.803101 c 0.02364,-0.720601 0.03756,-0.814253 0.135021,-0.911566 0.223697,-0.2232975 0.736615,-0.1805175 0.882359,0.07359 0.03794,0.06615 0.07464,0.422278 0.09027,0.876269 l 0.0264,0.764811 0.501089,0 0.501089,0 0.0264,-0.803101 c 0.0305,-0.929028 0.06672,-1.007391 0.48762,-1.0548325 0.207197,-0.02335 0.257354,-0.0076 0.41469,0.1331725 l 0.178983,0.159747 0.0264,0.782512 0.0264,0.782502 0.348309,0.01544 c 0.308743,0.01363 0.365668,0.03355 0.501089,0.174875 l 0.152779,0.159451 0.0264,5.046107 0.0264,5.046107 0.184606,0.03069 c 0.387648,0.06444 0.527464,0.216415 0.527464,0.573379 0,0.161491 -0.03756,0.255639 -0.153904,0.385875 l -0.153913,0.172253 -11.5953,0.0076 c -6.377405,0.0038 -11.64275812,-0.0038 -11.70077951,-0.0183 z m 5.5910907,-5.791006 0,-4.641664 -1.8461135,0 -1.8461135,0 -0.013631,4.588914 c -0.00763,2.523907 -0.00191,4.618892 0.01182,4.655533 0.019922,0.05223 0.4205622,0.06367 1.8597253,0.05271 l 1.8343224,-0.01392 0,-4.641654 z m 3.4548703,1.450516 C 9.4716003,15.445863 9.4190783,15.826534 9.9594679,15.321108 11.477471,13.90119 13.932051,14.06068 15.20021,15.66162 l 0.175303,0.221305 0.0264,3.193312 0.0264,3.193302 0.896686,0 0.896686,0 0,-6.777874 0,-6.7778844 -5.010886,0 -5.0108868,0 -0.013536,6.7251334 c -0.00763,3.698824 -0.00191,6.755294 0.011915,6.792144 0.019731,0.05185 0.2733211,0.06377 1.1212322,0.05271 l 1.0957245,-0.0143 0.026404,-3.191138 z m 4.8733777,3.13408 c 0.05452,-0.142151 0.03651,-5.752726 -0.01897,-5.898632 -0.06672,-0.175542 -0.610164,-0.572722 -0.992074,-0.725091 -0.436023,-0.17395 -1.328315,-0.17395 -1.764338,0 -0.3819,0.152369 -0.92533,0.549549 -0.992074,0.725091 -0.05548,0.145906 -0.07349,5.756481 -0.01897,5.898632 0.0284,0.07387 0.244707,0.0834 1.893222,0.0834 1.648514,0 1.864863,-0.0095 1.89322,-0.0834 z m 7.75933,-4.584596 0,-4.641664 -1.846114,0 -1.846123,0 -0.01363,4.588914 c -0.0076,2.523907 -0.0019,4.618892 0.01182,4.655533 0.01992,0.05223 0.420562,0.06367 1.859735,0.05271 l 1.834322,-0.01392 0,-4.641654 z m -7.489955,-11.2085564 0,-1.1340432 -2.373577,0 -2.3735779,0 -0.014298,1.0798727 c -0.00763,0.5939305 -0.00286,1.1104229 0.011724,1.1477693 0.02078,0.054237 0.5006409,0.065104 2.3878949,0.054142 l 2.361834,-0.013726 0,-1.1340432 z m 0.0264,-2.3708034 c 0,-0.088934 -2.319579,-2.1389943 -2.420256,-2.1389943 -0.116576,0 -2.4435997,2.0754157 -2.4021831,2.1424353 0.039748,0.064246 4.8224391,0.06091 4.8224391,-0.00381 z"
     id="path4228"
     inkscape:connector-curvature="0" />
</svg>
