<?xml version="1.0" encoding="UTF-8" standalone="no"?>
<!-- Created with Inkscape (http://www.inkscape.org/) -->

<svg
   xmlns:dc="http://purl.org/dc/elements/1.1/"
   xmlns:cc="http://creativecommons.org/ns#"
   xmlns:rdf="http://www.w3.org/1999/02/22-rdf-syntax-ns#"
   xmlns:svg="http://www.w3.org/2000/svg"
   xmlns="http://www.w3.org/2000/svg"
   xmlns:sodipodi="http://sodipodi.sourceforge.net/DTD/sodipodi-0.dtd"
   xmlns:inkscape="http://www.inkscape.org/namespaces/inkscape"
   version="1.1"
   width="24"
   height="24"
   id="svg4460"
   inkscape:version="0.91 r13725"
   sodipodi:docname="loisir-triomphe.svg">
  <sodipodi:namedview
     pagecolor="#ffffff"
     bordercolor="#666666"
     borderopacity="1"
     objecttolerance="10"
     gridtolerance="10"
     guidetolerance="10"
     inkscape:pageopacity="0"
     inkscape:pageshadow="2"
     inkscape:window-width="1280"
     inkscape:window-height="972"
     id="namedview11"
     showgrid="false"
     inkscape:zoom="6.9532167"
     inkscape:cx="7.5523517"
     inkscape:cy="42.006613"
     inkscape:window-x="-8"
     inkscape:window-y="-8"
     inkscape:window-maximized="1"
     inkscape:current-layer="svg4460" />
  <defs
     id="defs4462" />
  <metadata
     id="metadata4465">
    <rdf:RDF>
      <cc:Work
         rdf:about="">
        <dc:format>image/svg+xml</dc:format>
        <dc:type
           rdf:resource="http://purl.org/dc/dcmitype/StillImage" />
        <dc:title></dc:title>
      </cc:Work>
    </rdf:RDF>
  </metadata>
  <path
     style="fill:#5b257a"
     d="m 0.33169649,23.538527 c -0.30147,-0.18382 -0.40388,-0.49077 -0.2757,-0.82639 0.14457,-0.37855 0.25341,-0.4198 1.17957001,-0.44704 l 0.80048,-0.0235 0,-8.02837 0,-8.0283696 -0.80281,-0.0236 c -0.86279001,-0.0253 -0.96643001,-0.0532 -1.13135001,-0.30493 -0.20119,-0.30706 -0.0683,-0.80191 0.26183,-0.97471 0.15749,-0.0824 0.62418,-0.0859 11.63054951,-0.0858 10.82261,3e-5 11.47567,0.005 11.63033,0.0824 0.3379,0.16976 0.47071,0.57826 0.30295,0.9318 -0.14738,0.31058 -0.20562,0.3251 -1.40856,0.35125 l -1.083,0.0236 0,8.0283696 0,8.02837 1.06172,0.0235 c 0.91861,0.0204 1.07917,0.035 1.1912,0.1085 0.40829,0.26791 0.41299,0.9121 0.008,1.16211 -0.15288,0.0945 -0.20555,0.0949 -11.68438,0.0947 -11.34622951,-1.9e-4 -11.53321951,-0.002 -11.68128951,-0.0919 z m 7.39687001,-1.34791 c 0.0157,-0.041 0.0286,-2.32091 0.0286,-5.06653 0,-4.56001 0.007,-5.00635 0.0784,-5.15729 0.0431,-0.0909 0.24841,-0.34484 0.45619,-0.56434 1.51125,-1.5965296 3.8487795,-2.0534796 5.8538795,-1.14432 0.72061,0.32674 1.67036,1.1104 1.97606,1.63049 l 0.1347,0.22917 0.0236,5.06188 0.0235,5.06188 1.85995,0 1.85994,0 0,-8.00483 0,-8.0048296 -8.28735,0 -8.2873495,0 -0.0121,7.9577396 c -0.007,4.37676 -0.002,7.98423 0.0103,8.0166 0.0174,0.0459 0.48878,0.0589 2.13774,0.0589 1.8855,0 2.11847,-0.008 2.14395,-0.0745 z m 7.2043395,0 c 0.0157,-0.041 0.0286,-2.21392 0.0286,-4.82878 0,-5.25479 0.0238,-4.86173 -0.31395,-5.17705 -0.47627,-0.44458 -0.97976,-0.73473 -1.59308,-0.91806 -0.35911,-0.10735 -0.5136,-0.12699 -1.01237,-0.12868 -1.09737,-0.004 -1.95243,0.33761 -2.6957495,1.07612 l -0.27075,0.26901 0,4.85957 c 0,2.67276 0.0141,4.87369 0.0314,4.89096 0.0173,0.0173 1.3287395,0.0314 2.9143695,0.0314 2.58547,0 2.88593,-0.008 2.91156,-0.0745 z M 2.6481865,4.5260574 c -0.0518,-0.0122 -0.14185,-0.0662 -0.20012,-0.11992 -0.10268,-0.0947 -0.10595,-0.12511 -0.10595,-0.98628 0,-0.88065 10e-4,-0.88962 0.11558,-1.00416 0.0798,-0.0798 0.16792,-0.11558 0.28466,-0.11558 0.11674,0 0.20487,0.0358 0.28467,0.11558 0.11454,0.11454 0.11557,0.12351 0.11557,1.00416 0,0.86138 -0.003,0.89156 -0.10594,0.98556 -0.12188,0.11155 -0.25366,0.15248 -0.38847,0.12064 z m 3.51941,-0.0361 c -0.0853,-0.0371 -0.17414,-0.12123 -0.20012,-0.18957 -0.0257,-0.0676 -0.0467,-0.48337 -0.0467,-0.92394 l 0,-0.80104 0.13764,-0.13764 c 0.18505,-0.18505 0.38724,-0.18505 0.57229,0 l 0.13764,0.13764 0,0.80104 c 0,0.44057 -0.0203,0.85438 -0.0451,0.91957 -0.0401,0.10553 -0.2649,0.26733 -0.36461,0.26245 -0.0207,-10e-4 -0.10668,-0.0318 -0.19104,-0.0685 z m 3.66139,0.0381 c -0.0388,-0.0147 -0.11831,-0.0702 -0.17658,-0.12319 -0.10272,-0.0935 -0.10595,-0.12343 -0.10595,-0.98498 0,-0.88065 10e-4,-0.88962 0.11558,-1.00416 0.15725,-0.15725 0.4120795,-0.15725 0.5693295,0 0.11455,0.11454 0.11558,0.12351 0.11558,1.00416 0,0.86081 -0.003,0.89169 -0.10595,0.98749 -0.11605,0.10832 -0.3014595,0.16263 -0.4120095,0.12068 z m 3.5953195,-3.4e-4 c -0.0556,-0.0109 -0.14033,-0.0631 -0.18835,-0.11612 -0.0771,-0.0851 -0.089,-0.19765 -0.10201,-0.96336 l -0.0147,-0.867 0.14056,-0.14056 c 0.17549,-0.17548 0.37327,-0.18508 0.55719,-0.027 l 0.13212,0.11353 0.0152,0.76752 c 0.0188,0.95 0.002,1.05412 -0.19428,1.1735 -0.0828,0.0505 -0.17167,0.089 -0.19757,0.0855 -0.0259,-0.003 -0.0925,-0.0151 -0.14811,-0.026 z m 3.60902,3.4e-4 c -0.0388,-0.0147 -0.1183,-0.0702 -0.17657,-0.12319 -0.10273,-0.0935 -0.10595,-0.12343 -0.10595,-0.98498 0,-0.88065 10e-4,-0.88962 0.11558,-1.00416 0.15724,-0.15725 0.41208,-0.15725 0.56932,0 0.11438,0.11437 0.11558,0.12462 0.11558,0.9862 0,0.83635 -0.004,0.8753 -0.10594,0.9892 -0.11014,0.12326 -0.29027,0.18313 -0.41202,0.13693 z m 3.59134,-8.3e-4 c -0.0577,-0.0112 -0.14781,-0.0747 -0.20012,-0.1412 -0.0874,-0.11111 -0.0951,-0.18944 -0.0951,-0.96576 l 0,-0.84484 0.13764,-0.13764 c 0.17249,-0.17249 0.37152,-0.18115 0.55427,-0.0241 l 0.13211,0.11353 0.0149,0.81079 c 0.017,0.92174 -0.0127,1.05541 -0.25698,1.15749 -0.0854,0.0357 -0.16116,0.062 -0.16847,0.0584 -0.007,-0.004 -0.0605,-0.0155 -0.11829,-0.0267 z M 0.46843649,1.7016174 c -0.0593,-0.0114 -0.17978,-0.0925 -0.26763,-0.18039 -0.30773,-0.30773 -0.255,-0.80080997 0.11175,-1.04508997 l 0.16,-0.10657 11.51836951,0 c 11.06549,0 11.52467,0.003 11.6788,0.0861 0.45895,0.24613 0.43214,0.95721997 -0.0451,1.19700997 -0.15476,0.0778 -0.79915,0.082 -11.60606,0.076 -6.2931995,-0.003 -11.49074951,-0.0156 -11.55009951,-0.027 z"
     id="path4243"
     inkscape:connector-curvature="0" />
</svg>
