<?xml version="1.0" encoding="UTF-8" standalone="no"?>
<!-- Created with Inkscape (http://www.inkscape.org/) -->

<svg
   xmlns:dc="http://purl.org/dc/elements/1.1/"
   xmlns:cc="http://creativecommons.org/ns#"
   xmlns:rdf="http://www.w3.org/1999/02/22-rdf-syntax-ns#"
   xmlns:svg="http://www.w3.org/2000/svg"
   xmlns="http://www.w3.org/2000/svg"
   xmlns:sodipodi="http://sodipodi.sourceforge.net/DTD/sodipodi-0.dtd"
   xmlns:inkscape="http://www.inkscape.org/namespaces/inkscape"
   version="1.1"
   width="24"
   height="24"
   id="svg4460"
   inkscape:version="0.91 r13725"
   sodipodi:docname="mantis.svg">
  <sodipodi:namedview
     pagecolor="#ffffff"
     bordercolor="#666666"
     borderopacity="1"
     objecttolerance="10"
     gridtolerance="10"
     guidetolerance="10"
     inkscape:pageopacity="0"
     inkscape:pageshadow="2"
     inkscape:window-width="1920"
     inkscape:window-height="1178"
     id="namedview11"
     showgrid="false"
     inkscape:window-x="1272"
     inkscape:window-y="-8"
     inkscape:window-maximized="1"
     inkscape:current-layer="svg4460" />
  <defs
     id="defs4462" />
  <metadata
     id="metadata4465">
    <rdf:RDF>
      <cc:Work
         rdf:about="">
        <dc:format>image/svg+xml</dc:format>
        <dc:type
           rdf:resource="http://purl.org/dc/dcmitype/StillImage" />
        <dc:title />
      </cc:Work>
    </rdf:RDF>
  </metadata>
  <path
     style="fill:#000000"
     d="M 17.684274,0.20311363 C 17.43019,0.20311363 17.176146,0.2344838 17.113442,0.29718856 17.0646,0.34603019 16.939849,0.38599193 16.836211,0.38599193 16.411496,0.38599193 15.332726,0.8862694 14.650564,1.3996327 13.943366,1.9318377 12.849659,3.1004049 12.491927,3.7059959 12.362163,3.9256699 12.277102,3.9533504 11.979742,3.8726851 11.41368,3.7191288 9.8837666,3.8000038 9.6032634,3.998302 9.5707014,4.0213217 9.4722481,4.0572823 9.384494,4.0782241 9.248466,4.1106873 9.2006811,4.0834986 9.0602732,3.8939612 7.6293237,1.9622999 6.2528557,0.92248601 4.6895352,0.59208709 3.7037335,0.38374325 2.7349766,0.55487932 1.6406545,1.130821 0.86354558,1.5398132 0.68076105,1.8344651 1.3632405,1.5779766 2.2026706,1.2625034 2.718333,1.159996 3.4759029,1.1580164 4.1151452,1.156346 4.2720273,1.1771213 4.8671391,1.3420955 5.9678193,1.6472234 7.0902569,2.4697036 8.0728099,3.6911027 8.3447367,4.0291296 8.5672364,4.3375648 8.5672364,4.376546 8.5672364,4.4155254 8.3208093,4.6050833 8.0196212,4.7977083 7.4120939,5.1862546 6.3056207,6.2175989 6.0264726,6.6555273 5.931029,6.8052574 5.8084835,7.0476456 5.7541445,7.1941689 5.6998069,7.3406921 5.6339917,7.5138573 5.6078989,7.5789793 5.4732859,7.9149642 5.4319136,8.4778473 5.5119739,8.8843726 5.6187124,9.4263709 5.6629603,9.5271118 5.9789254,9.9470413 6.3628548,10.457295 8.1404085,11.946507 9.3298252,12.754396 9.6547489,12.975094 9.6641728,12.989362 9.7364662,13.371387 9.777168,13.586465 9.8106557,13.849694 9.8108386,13.956372 9.8110192,14.063052 9.8345953,14.243593 9.8632878,14.357556 9.8919791,14.471519 9.9470305,14.804527 9.9856681,15.097575 10.024305,15.390623 10.084523,15.745068 10.119426,15.885234 10.207763,16.239988 10.118839,16.32042 9.857644,16.121948 9.7503188,16.040394 9.0763685,15.579564 8.360031,15.097944 7.1965481,14.315696 6.1742325,13.610593 4.4543006,12.403905 3.588289,11.796319 3.0260721,11.349179 2.4214682,10.787333 1.7627421,10.175193 1.4137319,9.9766413 0.99665329,9.9766413 0.73934005,9.9766413 0.68447351,9.999777 0.54274445,10.168212 0.45406885,10.273598 0.35580606,10.433442 0.32443735,10.523425 0.29307008,10.613403 0.24336506,10.68706 0.21399082,10.68706 0.18427921,10.68706 0.16061638,11.146762 0.16061638,11.723087 0.16061638,12.341521 0.18339787,12.759114 0.21713557,12.759114 0.24822042,12.759114 0.28910654,12.859017 0.3079721,12.981119 0.34146886,13.19791 0.64743208,14.210763 0.75059639,14.446358 1.5476601,16.266604 2.32226,17.414085 3.6501777,18.741708 4.34865,19.440026 5.0204841,19.963305 6.1519979,20.690457 7.8495539,21.781366 9.6045846,22.713374 11.336387,23.443606 11.815872,23.645784 12.216652,23.804635 12.227094,23.796594 12.237534,23.788555 11.901721,23.266538 11.480784,22.636615 10.573122,21.278318 10.364359,20.865898 10.308408,20.319799 10.263458,19.881042 10.270839,19.873479 10.607562,20.014171 11.182167,20.254257 11.707785,19.646293 11.799547,18.635423 11.820511,18.404465 11.806486,18.097553 11.766431,17.909648 11.728257,17.730564 11.67417,17.290993 11.646272,16.932823 11.61837,16.574653 11.561113,15.948598 11.518988,15.541587 11.476863,15.134576 11.441518,14.641723 11.440452,14.446358 L 11.43851,14.091149 11.769576,14.082732 C 12.162482,14.072731 12.357957,13.980914 12.697837,13.647044 12.836937,13.510403 12.983461,13.411213 13.023446,13.426612 13.063431,13.442011 13.131892,13.584493 13.17552,13.743247 13.219147,13.902002 13.301951,14.191792 13.3596,14.387157 13.417252,14.582521 13.524131,14.968812 13.597145,15.24558 13.670163,15.522347 13.744859,15.788753 13.763096,15.837594 13.847615,16.063945 14.032693,16.7429 14.134216,17.19923 14.276149,17.837193 14.400239,18.166458 14.625311,18.501664 14.991565,19.047134 15.243346,19.212083 15.709532,19.212083 15.942959,19.212083 16.006531,19.181986 16.212468,18.973981 16.342119,18.843028 16.46867,18.748582 16.493767,18.764093 16.518865,18.779603 16.573571,18.973334 16.615316,19.194599 16.734738,19.8276 16.646891,20.731278 16.328743,22.142558 16.299382,22.272802 16.246421,22.512568 16.210988,22.675372 16.127995,23.056692 16.051184,23.355247 15.997861,23.504194 15.924313,23.709645 17.159822,22.418354 18.121995,21.284136 18.935651,20.324992 20.214471,18.618592 20.733153,17.799941 20.765714,17.748549 20.971952,17.433823 21.191409,17.10053 21.63535,16.426312 21.721657,16.278973 22.122169,15.511985 22.467205,14.851237 22.77988,14.118888 22.981608,13.499132 23.066396,13.238646 23.159332,12.972239 23.188075,12.907118 23.216816,12.841996 23.252973,12.722113 23.268458,12.640711 23.283943,12.559308 23.335281,12.346184 23.382514,12.167099 23.534194,11.592012 23.591418,11.277258 23.77861,9.9903314 23.855849,9.4593082 23.860585,7.9779543 23.78638,7.5444753 23.756187,7.3681006 23.700405,7.0372856 23.662427,6.8093593 23.471557,5.6638211 22.854105,4.5249339 22.330206,4.3520324 21.846281,4.1923222 21.358191,4.6271297 20.872369,5.6508587 20.709074,5.9949555 20.518242,6.3964279 20.448246,6.542952 20.378249,6.6894762 20.243512,6.9425626 20.148814,7.1053667 20.054116,7.2681719 19.923317,7.4946172 19.858173,7.6085794 19.628036,8.0111719 19.528926,8.1779345 19.119449,8.8518116 18.712986,9.5207271 18.371824,10.073024 17.784546,11.012667 17.050945,12.186429 16.903947,12.419466 16.440301,13.143924 16.169399,13.567215 15.803974,14.139991 15.628315,14.416758 15.264189,14.99047 15.130263,15.054602 15.071728,14.683163 15.034861,14.449235 14.937566,13.990685 14.839361,13.587937 14.691819,12.982843 14.566991,12.429213 14.507648,12.116685 14.47133,11.92542 14.495528,11.893351 15.178013,11.228662 16.027396,10.401423 16.487507,9.7463489 16.799857,8.9197092 16.895971,8.6653413 16.894444,7.555479 16.797637,7.2986037 16.419152,6.2942917 15.792489,5.5088267 14.951197,4.9844711 14.521999,4.7169628 13.315779,4.1748901 13.149805,4.1748901 13.103994,4.1748901 13.066554,4.1352131 13.066554,4.0867353 13.066554,3.9509605 13.565485,3.3260102 14.127741,2.7574761 14.761854,2.1162793 15.133319,1.8329477 15.826084,1.4621636 16.902637,0.88596926 18.40623,0.76466765 19.637925,1.154686 19.849569,1.2217049 20.063569,1.2992074 20.113479,1.3269261 20.272331,1.41515 20.57264,1.460557 20.608922,1.4018531 20.645865,1.3420777 20.306524,1.1090351 19.744764,0.80826459 19.343514,0.59343358 18.735717,0.38599193 18.507545,0.38599193 18.417566,0.38599193 18.303946,0.34603019 18.255106,0.29718856 18.1924,0.2344838 17.938356,0.20311363 17.684274,0.20311363 Z M 14.328193,5.7117252 C 14.565996,5.711347 14.81259,5.770048 15.064142,5.8890518 16.094253,6.3763766 16.624341,7.6060338 16.264731,8.6742082 15.865864,9.8589861 15.072015,10.598787 14.043378,10.744412 13.569352,10.811519 13.41033,10.810971 12.926689,10.740341 12.25756,10.642623 11.586513,10.214018 11.586513,9.8844163 11.586513,9.2869516 12.368686,7.3474784 12.927521,6.559232 13.324488,5.9993051 13.805027,5.7125559 14.328193,5.7117252 Z M 7.8029801,5.7406788 C 7.9284235,5.7410541 8.0526306,5.7587574 8.1733601,5.7957174 8.5609439,5.9143702 8.871865,6.1401635 9.1502789,6.5051193 9.6678258,7.1835378 10.252993,8.5292181 10.492488,9.5918315 10.564619,9.9118678 10.56235,9.9645656 10.469825,10.123904 10.335104,10.355915 9.9265216,10.601555 9.4872645,10.714626 9.1108269,10.811526 8.2082197,10.827781 7.8557066,10.744042 7.0167373,10.544741 6.3847937,9.9353168 5.9673629,8.923038 5.7563663,8.4113664 5.7073315,8.0756559 5.7842083,7.6677815 5.9878574,6.5873084 6.9248844,5.7380374 7.8029801,5.7406788 Z M 7.5158527,7.312572 C 7.311743,7.312572 7.2849488,7.472024 7.4652544,7.613853 7.561554,7.6896011 7.6200112,7.793968 7.6200112,7.8902493 7.6200112,8.0858046 7.4050702,8.3189979 7.2248403,8.3189979 7.0631817,8.3189979 7.0587574,8.3623847 7.1743342,8.8061149 7.2765458,9.1985322 7.5612568,9.6859212 7.7865148,9.8540759 8.0796864,10.072925 8.3818227,9.9830911 8.5130296,9.6379911 8.6550351,9.2644878 8.5248061,8.4560273 8.2410716,7.949265 8.0554529,7.6177454 7.7078694,7.312572 7.5158527,7.312572 Z M 14.637429,7.312572 C 14.355634,7.312572 14.058491,7.5857776 13.842092,8.0438028 13.487552,8.79422 13.462023,9.4931536 13.777527,9.8086575 13.869916,9.9010453 13.975523,9.9766413 14.012204,9.9766413 14.384262,9.9766413 14.975476,9.1297162 15.029454,8.5194514 15.048101,8.308622 15.036769,8.2878917 14.893198,8.2712671 14.53515,8.2298074 14.421178,7.8347161 14.687195,7.5570559 14.890163,7.3452029 14.883492,7.312572 14.637429,7.312572 Z M 18.548708,14.120749 C 18.671413,14.120749 18.593933,14.687641 18.441497,14.905169 18.216139,15.226763 18.089967,15.038273 18.267871,14.645793 18.332359,14.503526 18.402452,14.327215 18.423554,14.253953 18.444653,14.180691 18.50094,14.120749 18.548708,14.120749 Z M 17.813221,15.840832 C 17.86925,15.836983 17.927391,15.882096 17.944482,15.970798 17.958599,16.04406 18.001451,16.259131 18.039667,16.448758 18.10127,16.754407 18.097393,16.806476 18.005905,16.907569 17.87365,17.05371 17.402928,17.069425 17.349229,16.929492 17.329789,16.87883 17.373945,16.712327 17.447375,16.559484 17.585928,16.271084 17.650228,16.117769 17.706658,15.941197 17.727357,15.876437 17.769643,15.843826 17.813221,15.840832 Z M 7.0121777,16.844021 C 7.1004016,16.844021 7.554881,17.311693 7.5735742,17.421698 7.6030717,17.595279 7.4159878,17.564366 7.2229901,17.363791 7.0369553,17.170452 6.9045787,16.844021 7.0121777,16.844021 Z M 17.195583,17.308938 C 17.213952,17.308175 17.22981,17.322887 17.247477,17.347049 17.457658,17.634489 17.579248,18.492143 17.44534,18.742355 17.339992,18.939199 16.705722,18.841553 16.551859,18.604803 16.531393,18.573313 16.66185,18.253249 16.841761,17.893552 17.062356,17.452521 17.140475,17.311229 17.195583,17.308938 Z M 8.1510673,18.006962 C 8.2163773,17.999786 8.3448987,18.087797 8.5383748,18.270779 8.9759998,18.684665 9.015688,18.761803 8.8473327,18.871859 8.5961617,19.036051 8.4627211,19.048367 8.3334819,18.919128 8.2666947,18.85234 8.2120258,18.740799 8.2120258,18.671314 8.2120258,18.601829 8.1809558,18.441181 8.1429276,18.314255 8.0836857,18.116526 8.0857575,18.014135 8.1510673,18.006962 Z M 9.2152159,18.975276 C 9.3060835,18.975276 10.165677,19.751545 10.165677,19.833606 10.165677,19.874933 10.059024,20.005016 9.9286867,20.122769 9.5625482,20.453552 9.4243562,20.412492 9.2536038,19.922038 9.1522882,19.63103 9.1256739,18.975276 9.2152159,18.975276 Z"
     id="path5706"
     inkscape:connector-curvature="0" />
</svg>
