<?xml version="1.0" encoding="UTF-8" standalone="no"?>
<!-- Created with Inkscape (http://www.inkscape.org/) -->

<svg
   xmlns:dc="http://purl.org/dc/elements/1.1/"
   xmlns:cc="http://creativecommons.org/ns#"
   xmlns:rdf="http://www.w3.org/1999/02/22-rdf-syntax-ns#"
   xmlns:svg="http://www.w3.org/2000/svg"
   xmlns="http://www.w3.org/2000/svg"
   xmlns:sodipodi="http://sodipodi.sourceforge.net/DTD/sodipodi-0.dtd"
   xmlns:inkscape="http://www.inkscape.org/namespaces/inkscape"
   version="1.1"
   width="24"
   height="24"
   id="svg4460"
   inkscape:version="0.91 r13725"
   sodipodi:docname="mesure-line.svg">
  <sodipodi:namedview
     pagecolor="#ffffff"
     bordercolor="#666666"
     borderopacity="1"
     objecttolerance="10"
     gridtolerance="10"
     guidetolerance="10"
     inkscape:pageopacity="0"
     inkscape:pageshadow="2"
     inkscape:window-width="1280"
     inkscape:window-height="972"
     id="namedview11"
     showgrid="false"
     inkscape:zoom="19.666666"
     inkscape:cx="7.9663967"
     inkscape:cy="10.213538"
     inkscape:window-x="-8"
     inkscape:window-y="-8"
     inkscape:window-maximized="1"
     inkscape:current-layer="svg4460" />
  <defs
     id="defs4462" />
  <metadata
     id="metadata4465">
    <rdf:RDF>
      <cc:Work
         rdf:about="">
        <dc:format>image/svg+xml</dc:format>
        <dc:type
           rdf:resource="http://purl.org/dc/dcmitype/StillImage" />
        <dc:title />
      </cc:Work>
    </rdf:RDF>
  </metadata>
  <path
     style="color:#000000;font-style:normal;font-variant:normal;font-weight:normal;font-stretch:normal;font-size:medium;line-height:normal;font-family:sans-serif;text-indent:0;text-align:start;text-decoration:none;text-decoration-line:none;text-decoration-style:solid;text-decoration-color:#000000;letter-spacing:normal;word-spacing:normal;text-transform:none;direction:ltr;block-progression:tb;writing-mode:lr-tb;baseline-shift:baseline;text-anchor:start;white-space:normal;clip-rule:nonzero;display:inline;overflow:visible;visibility:visible;opacity:1;isolation:auto;mix-blend-mode:normal;color-interpolation:sRGB;color-interpolation-filters:linearRGB;solid-color:#000000;solid-opacity:1;fill:#000000;fill-opacity:1;fill-rule:evenodd;stroke:none;stroke-width:2;stroke-linecap:butt;stroke-linejoin:miter;stroke-miterlimit:4;stroke-dasharray:none;stroke-dashoffset:0;stroke-opacity:1;color-rendering:auto;image-rendering:auto;shape-rendering:auto;text-rendering:auto;enable-background:accumulate"
     d="M 8.2890625 0 C 6.730297 0 5.453125 1.2791248 5.453125 2.8378906 C 5.453125 3.5732974 5.74469 4.2398752 6.2089844 4.7460938 L 3.8808594 9.4433594 C 3.7965694 9.4356594 3.7150785 9.4179688 3.6289062 9.4179688 C 2.0701406 9.4179688 0.79296875 10.69514 0.79296875 12.253906 C 0.79296875 13.812671 2.0701406 15.091797 3.6289062 15.091797 C 5.1876723 15.091797 6.4667969 13.812671 6.4667969 12.253906 C 6.4667969 11.454162 6.1261322 10.734146 5.5878906 10.216797 L 7.8574219 5.6328125 C 7.9995022 5.6550365 8.1410745 5.6757812 8.2890625 5.6757812 C 9.3201215 5.6757812 10.219373 5.1116207 10.716797 4.28125 L 14.419922 5.2949219 C 14.558261 6.7244745 15.759904 7.8564745 17.222656 7.8613281 L 18.716797 12.53125 C 18.004229 13.048819 17.533203 13.882939 17.533203 14.824219 C 17.533203 16.382984 18.812329 17.660156 20.371094 17.660156 C 21.92986 17.660156 23.207031 16.382984 23.207031 14.824219 C 23.207031 13.314164 22.005807 12.074613 20.513672 11.998047 L 18.986328 7.234375 C 19.639844 6.7131365 20.070312 5.9200123 20.070312 5.0253906 C 20.070312 3.4666251 18.791188 2.1875 17.232422 2.1875 C 16.244852 2.1875 15.372501 2.7015917 14.863281 3.4746094 L 11.087891 2.4433594 C 10.892353 1.0706277 9.7129445 0 8.2890625 0 z M 8.2890625 1.4375 C 9.0711223 1.4375 9.6914062 2.0558304 9.6914062 2.8378906 C 9.6914062 3.6199508 9.0711223 4.2382812 8.2890625 4.2382812 C 7.5070027 4.2382812 6.890625 3.6199508 6.890625 2.8378906 C 6.890625 2.0558304 7.5070027 1.4375 8.2890625 1.4375 z M 17.232422 3.625 C 18.014482 3.625 18.630859 4.2433306 18.630859 5.0253906 C 18.630859 5.8074513 18.014482 6.4257812 17.232422 6.4257812 C 16.450363 6.4257812 15.830078 5.8074513 15.830078 5.0253906 C 15.830078 4.2433306 16.450363 3.625 17.232422 3.625 z M 3.6289062 10.853516 C 4.4109666 10.853516 5.03125 11.471846 5.03125 12.253906 C 5.03125 13.035966 4.4109667 13.65625 3.6289062 13.65625 C 2.8468461 13.65625 2.2285156 13.035966 2.2285156 12.253906 C 2.2285156 11.471846 2.8468461 10.853516 3.6289062 10.853516 z M 20.371094 13.421875 C 21.153154 13.421875 21.771484 14.042159 21.771484 14.824219 C 21.771484 15.606278 21.153154 16.222656 20.371094 16.222656 C 19.589033 16.222656 18.96875 15.606278 18.96875 14.824219 C 18.96875 14.042159 19.589033 13.421875 20.371094 13.421875 z M 1.1816406 18.101562 L 1.1816406 24 L 2.6816406 24 L 21.216797 24 L 22.373047 24 L 22.716797 24 L 22.716797 18.101562 L 21.216797 18.101562 L 21.216797 22.5 L 19.376953 22.5 L 19.376953 19.373047 L 17.876953 19.373047 L 17.876953 22.5 L 16.039062 22.5 L 16.039062 19.373047 L 14.539062 19.373047 L 14.539062 22.5 L 12.699219 22.5 L 12.699219 18.101562 L 11.199219 18.101562 L 11.199219 22.5 L 9.359375 22.5 L 9.359375 19.373047 L 7.859375 19.373047 L 7.859375 22.5 L 6.0214844 22.5 L 6.0214844 19.373047 L 4.5214844 19.373047 L 4.5214844 22.5 L 2.6816406 22.5 L 2.6816406 18.101562 L 1.1816406 18.101562 z "
     id="path4135" />
</svg>
