<?xml version="1.0" encoding="UTF-8" standalone="no"?>
<!-- Created with Inkscape (http://www.inkscape.org/) -->

<svg
   xmlns:dc="http://purl.org/dc/elements/1.1/"
   xmlns:cc="http://creativecommons.org/ns#"
   xmlns:rdf="http://www.w3.org/1999/02/22-rdf-syntax-ns#"
   xmlns:svg="http://www.w3.org/2000/svg"
   xmlns="http://www.w3.org/2000/svg"
   xmlns:sodipodi="http://sodipodi.sourceforge.net/DTD/sodipodi-0.dtd"
   xmlns:inkscape="http://www.inkscape.org/namespaces/inkscape"
   version="1.1"
   width="24"
   height="24"
   id="svg4460"
   inkscape:version="0.91 r13725"
   sodipodi:docname="measure.svg">
  <sodipodi:namedview
     pagecolor="#ffffff"
     bordercolor="#666666"
     borderopacity="1"
     objecttolerance="10"
     gridtolerance="10"
     guidetolerance="10"
     inkscape:pageopacity="0"
     inkscape:pageshadow="2"
     inkscape:window-width="1280"
     inkscape:window-height="972"
     id="namedview11"
     showgrid="false"
     inkscape:zoom="13.906433"
     inkscape:cx="7.6826949"
     inkscape:cy="8.6575831"
     inkscape:window-x="-8"
     inkscape:window-y="-8"
     inkscape:window-maximized="1"
     inkscape:current-layer="svg4460" />
  <defs
     id="defs4462" />
  <metadata
     id="metadata4465">
    <rdf:RDF>
      <cc:Work
         rdf:about="">
        <dc:format>image/svg+xml</dc:format>
        <dc:type
           rdf:resource="http://purl.org/dc/dcmitype/StillImage" />
        <dc:title></dc:title>
      </cc:Work>
    </rdf:RDF>
  </metadata>
  <path
     style="color:#000000;font-style:normal;font-variant:normal;font-weight:normal;font-stretch:normal;font-size:medium;line-height:normal;font-family:sans-serif;text-indent:0;text-align:start;text-decoration:none;text-decoration-line:none;text-decoration-style:solid;text-decoration-color:#000000;letter-spacing:normal;word-spacing:normal;text-transform:none;direction:ltr;block-progression:tb;writing-mode:lr-tb;baseline-shift:baseline;text-anchor:start;white-space:normal;clip-rule:nonzero;display:inline;overflow:visible;visibility:visible;opacity:1;isolation:auto;mix-blend-mode:normal;color-interpolation:sRGB;color-interpolation-filters:linearRGB;solid-color:#000000;solid-opacity:1;fill:#000000;fill-opacity:1;fill-rule:nonzero;stroke:none;stroke-width:2;stroke-linecap:round;stroke-linejoin:round;stroke-miterlimit:4;stroke-dasharray:none;stroke-dashoffset:0;stroke-opacity:1;marker:none;color-rendering:auto;image-rendering:auto;shape-rendering:auto;text-rendering:auto;enable-background:accumulate"
     d="M 0.49518426,12.41582 A 0.99054076,0.99054076 0 0 0 0.13265743,13.768788 L 4.534513,21.393026 A 0.99054076,0.99054076 0 0 0 5.8874816,21.755552 L 23.504815,11.58418 A 0.99054076,0.99054076 0 0 0 23.867342,10.231211 L 19.465486,2.606974 A 0.99054076,0.99054076 0 0 0 18.112518,2.2444472 L 0.49518426,12.41582 Z M 2.3433737,13.636094 18.245211,4.4551634 21.656625,10.363906 20.510729,11.025489 19.232053,8.8107582 18.374305,9.3059791 19.65298,11.52071 18.341229,12.27805 17.062554,10.063318 16.204806,10.558539 17.483482,12.773271 16.173406,13.529644 14.894731,11.314912 14.036983,11.810133 15.315659,14.024864 14.003908,14.782204 12.22711,11.704699 11.369362,12.19992 13.14616,15.277425 11.834409,16.034765 10.555734,13.820033 9.697986,14.315254 10.976661,16.529986 9.6665861,17.286358 8.3879105,15.071627 7.5301628,15.566847 8.8088384,17.781579 7.4970875,18.538918 6.2184119,16.324188 5.3606643,16.819409 6.6393399,19.034139 5.7547876,19.544836 2.3433737,13.636094 Z"
     id="rect4210"
     inkscape:connector-curvature="0" />
</svg>
