<?xml version="1.0" encoding="UTF-8" standalone="no"?>
<!-- Created with Inkscape (http://www.inkscape.org/) -->

<svg
   xmlns:dc="http://purl.org/dc/elements/1.1/"
   xmlns:cc="http://creativecommons.org/ns#"
   xmlns:rdf="http://www.w3.org/1999/02/22-rdf-syntax-ns#"
   xmlns:svg="http://www.w3.org/2000/svg"
   xmlns="http://www.w3.org/2000/svg"
   xmlns:sodipodi="http://sodipodi.sourceforge.net/DTD/sodipodi-0.dtd"
   xmlns:inkscape="http://www.inkscape.org/namespaces/inkscape"
   version="1.1"
   width="24"
   height="24"
   id="svg4460"
   inkscape:version="0.91 r13725"
   sodipodi:docname="modifyline.svg">
  <sodipodi:namedview
     pagecolor="#ffffff"
     bordercolor="#666666"
     borderopacity="1"
     objecttolerance="10"
     gridtolerance="10"
     guidetolerance="10"
     inkscape:pageopacity="0"
     inkscape:pageshadow="2"
     inkscape:window-width="1280"
     inkscape:window-height="972"
     id="namedview11"
     showgrid="false"
     inkscape:zoom="19.666667"
     inkscape:cx="5.3665197"
     inkscape:cy="6.3369431"
     inkscape:window-x="-8"
     inkscape:window-y="-8"
     inkscape:window-maximized="1"
     inkscape:current-layer="svg4460" />
  <defs
     id="defs4462" />
  <metadata
     id="metadata4465">
    <rdf:RDF>
      <cc:Work
         rdf:about="">
        <dc:format>image/svg+xml</dc:format>
        <dc:type
           rdf:resource="http://purl.org/dc/dcmitype/StillImage" />
        <dc:title></dc:title>
      </cc:Work>
    </rdf:RDF>
  </metadata>
  <path
     style="color:#000000;font-style:normal;font-variant:normal;font-weight:normal;font-stretch:normal;font-size:medium;line-height:normal;font-family:sans-serif;text-indent:0;text-align:start;text-decoration:none;text-decoration-line:none;text-decoration-style:solid;text-decoration-color:#000000;letter-spacing:normal;word-spacing:normal;text-transform:none;direction:ltr;block-progression:tb;writing-mode:lr-tb;baseline-shift:baseline;text-anchor:start;white-space:normal;clip-rule:nonzero;display:inline;overflow:visible;visibility:visible;opacity:1;isolation:auto;mix-blend-mode:normal;color-interpolation:sRGB;color-interpolation-filters:linearRGB;solid-color:#000000;solid-opacity:1;fill:#000000;fill-opacity:1;fill-rule:nonzero;stroke:none;stroke-width:1.5;stroke-linecap:round;stroke-linejoin:round;stroke-miterlimit:4;stroke-dasharray:none;stroke-dashoffset:0;stroke-opacity:1;marker:none;color-rendering:auto;image-rendering:auto;shape-rendering:auto;text-rendering:auto;enable-background:accumulate"
     d="M 8.0332029,2.6328122 C 6.378616,2.6328122 5.0214842,3.989944 5.0214842,5.6445309 5.0214842,6.4465302 5.3442991,7.1752469 5.8613279,7.7167967 L 3.3906248,12.683594 C 3.2774795,12.670516 3.1672435,12.648438 3.050781,12.648438 1.3961943,12.648438 0.03906225,14.005569 0.03906225,15.660156 0.03906225,17.314743 1.3961943,18.673828 3.050781,18.673828 4.7053681,18.673828 6.0624998,17.314743 6.0624998,15.660156 6.0624998,14.840819 5.7283083,14.095563 5.191406,13.550781 L 7.6464842,8.6152338 C 7.7746821,8.6321118 7.9006414,8.6562497 8.0332029,8.6562497 8.4784815,8.6562497 8.8977579,8.5509248 9.2792967,8.3749997 L 18.197266,17.150391 C 18.033373,17.520827 17.9375,17.926614 17.9375,18.355469 17.9375,20.010056 19.294632,21.367188 20.949219,21.367188 22.603806,21.367188 23.960938,20.010056 23.960938,18.355469 23.960938,16.918507 22.935117,15.710141 21.582031,15.416016 L 21.53125,14.738281 20.234375,14.835938 20.279297,15.427734 C 20.028986,15.485623 19.794903,15.580832 19.572266,15.697266 L 10.714844,6.9804685 C 10.892,6.6283648 10.999658,6.2406319 11.025391,5.8281247 L 12.539062,5.8886716 12.589844,4.5898435 10.820312,4.5195309 C 10.371115,3.4180121 9.2899177,2.6328122 8.0332029,2.6328122 Z M 20.185547,2.6328122 C 18.53096,2.6328122 17.173828,3.989944 17.173828,5.6445309 17.173828,7.1552298 18.309479,8.4050837 19.765625,8.6132808 L 19.84375,9.6503908 21.140625,9.5527338 21.0625,8.5097658 C 22.291575,8.1296867 23.199219,6.9925629 23.199219,5.6445309 23.199219,3.989944 21.840134,2.6328122 20.185547,2.6328122 Z M 8.0332029,4.1328122 C 8.8771296,4.1328122 9.5449217,4.8006041 9.5449217,5.6445309 9.5449217,6.4884577 8.8771296,7.1562497 8.0332029,7.1562497 7.1892761,7.1562497 6.5214842,6.4884577 6.5214842,5.6445309 6.5214842,4.8006041 7.1892761,4.1328122 8.0332029,4.1328122 Z M 20.185547,4.1328122 C 21.029474,4.1328122 21.699219,4.8006041 21.699219,5.6445309 21.699219,6.4884577 21.029474,7.1562497 20.185547,7.1562497 19.34162,7.1562497 18.673828,6.4884577 18.673828,5.6445309 18.673828,4.8006041 19.34162,4.1328122 20.185547,4.1328122 Z M 13.888672,4.6406247 13.837891,5.9394528 16.435547,6.0429685 16.486328,4.7441403 13.888672,4.6406247 Z M 21.238281,10.849609 19.941406,10.947266 20.136719,13.541016 21.433594,13.443359 21.238281,10.849609 Z M 3.050781,14.148438 C 3.8947077,14.148438 4.5624998,14.816229 4.5624998,15.660156 4.5624998,16.504083 3.8947077,17.173828 3.050781,17.173828 2.2068544,17.173828 1.5390623,16.504083 1.5390623,15.660156 1.5390623,14.816229 2.2068544,14.148438 3.050781,14.148438 Z M 20.949219,16.84375 C 21.793146,16.84375 22.460938,17.511542 22.460938,18.355469 22.460938,19.199396 21.793146,19.867188 20.949219,19.867188 20.105292,19.867188 19.4375,19.199396 19.4375,18.355469 19.4375,17.511542 20.105292,16.84375 20.949219,16.84375 Z"
     id="path4181"
     inkscape:connector-curvature="0" />
</svg>
