<?xml version="1.0" encoding="UTF-8" standalone="no"?>
<!-- Created with Inkscape (http://www.inkscape.org/) -->

<svg
   xmlns:dc="http://purl.org/dc/elements/1.1/"
   xmlns:cc="http://creativecommons.org/ns#"
   xmlns:rdf="http://www.w3.org/1999/02/22-rdf-syntax-ns#"
   xmlns:svg="http://www.w3.org/2000/svg"
   xmlns="http://www.w3.org/2000/svg"
   xmlns:sodipodi="http://sodipodi.sourceforge.net/DTD/sodipodi-0.dtd"
   xmlns:inkscape="http://www.inkscape.org/namespaces/inkscape"
   version="1.1"
   width="24"
   height="24"
   id="svg4460"
   inkscape:version="0.91 r13725"
   sodipodi:docname="recherche-carte.svg">
  <sodipodi:namedview
     pagecolor="#ffffff"
     bordercolor="#666666"
     borderopacity="1"
     objecttolerance="10"
     gridtolerance="10"
     guidetolerance="10"
     inkscape:pageopacity="0"
     inkscape:pageshadow="2"
     inkscape:window-width="1280"
     inkscape:window-height="972"
     id="namedview11"
     showgrid="false"
     inkscape:zoom="13.906433"
     inkscape:cx="10.938287"
     inkscape:cy="8.8227472"
     inkscape:window-x="-8"
     inkscape:window-y="-8"
     inkscape:window-maximized="1"
     inkscape:current-layer="svg4460" />
  <defs
     id="defs4462" />
  <metadata
     id="metadata4465">
    <rdf:RDF>
      <cc:Work
         rdf:about="">
        <dc:format>image/svg+xml</dc:format>
        <dc:type
           rdf:resource="http://purl.org/dc/dcmitype/StillImage" />
        <dc:title></dc:title>
      </cc:Work>
    </rdf:RDF>
  </metadata>
  <path
     style="fill:#25bcee"
     d="m 15.384078,23.421095 c -0.088,-0.0457 -0.21991,-0.13786 -0.29322,-0.20489 -0.19578,-0.17903 -6.5980802,-4.98788 -6.6851202,-5.02128 -0.0434,-0.0166 -1.53219,1.06452 -3.59961,2.61406 -3.19408,2.39398 -3.54431,2.64235 -3.72438,2.64128 -0.21133001,-0.001 -0.38823001,-0.11119 -0.48574001,-0.30186 -0.0431,-0.0843 -0.0596,-2.41764 -0.0596,-8.45155 0,-7.44658 0.009,-8.34769 0.0827,-8.45322 0.0867,-0.12375 7.21320001,-5.5142 7.50582001,-5.67734 0.20549,-0.11457 0.4233,-0.0805 0.64827,0.10128 0.42194,0.341 6.7611802,5.09393 6.8285202,5.11977 0.0476,0.0183 1.42038,-0.97837 3.58163,-2.60017 2.52281,-1.89312 3.55106,-2.63545 3.67072,-2.65002 0.19264,-0.0235 0.47253,0.10504 0.55192,0.25339 0.0853,0.15935 0.0718,16.78592 -0.0137,16.93975 -0.0547,0.0984 -7.19239,5.51328 -7.52279,5.70704 -0.15066,0.0883 -0.29316,0.0836 -0.48549,-0.0162 z M 4.6903678,19.526715 c 1.62985,-1.22029 2.99334,-2.25648 3.02999,-2.30264 0.0938,-0.11815 0.0983,-14.93781 0.004,-14.93781 -0.0705,0 -5.95279,4.39202 -6.05549,4.52136 -0.0526,0.0662 -0.0666,1.63274 -0.0666,7.42654 0,4.03844 0.0146,7.38056 0.0324,7.42695 0.0178,0.0464 0.0458,0.0843 0.0622,0.0843 0.0164,0 1.3633,-0.99843 2.99314,-2.21873 z m 10.3873502,-5.30124 -0.0135,-7.43428 -2.98551,-2.24882 c -1.64204,-1.23684 -3.0155102,-2.25046 -3.0521602,-2.25246 -0.053,-0.003 -0.0666,1.52265 -0.0666,7.45991 l 0,7.46356 3.0220102,2.26685 c 1.66211,1.24676 3.04167,2.2472 3.06568,2.22319 0.024,-0.024 0.0376,-3.38909 0.0301,-7.47795 z m 4.22485,5.25636 c 1.59806,-1.19468 2.94754,-2.22035 2.99885,-2.27928 0.0879,-0.10093 0.0933,-0.53491 0.0933,-7.48674 0,-6.54364 -0.009,-7.3831 -0.0808,-7.41059 -0.0523,-0.0201 -1.0913,0.72577 -2.94553,2.11439 -1.57561,1.17997 -2.93072,2.20677 -3.01136,2.28179 l -0.14661,0.13639 0,7.41828 c 0,4.08006 0.0158,7.43407 0.0351,7.45336 0.0193,0.0193 0.0613,0.0147 0.0933,-0.0102 0.032,-0.0249 1.36571,-1.02273 2.96376,-2.2174 z"
     id="path4386"
     inkscape:connector-curvature="0" />
</svg>
