<?xml version="1.0" encoding="UTF-8" standalone="no"?>
<!-- Created with Inkscape (http://www.inkscape.org/) -->

<svg
   xmlns:dc="http://purl.org/dc/elements/1.1/"
   xmlns:cc="http://creativecommons.org/ns#"
   xmlns:rdf="http://www.w3.org/1999/02/22-rdf-syntax-ns#"
   xmlns:svg="http://www.w3.org/2000/svg"
   xmlns="http://www.w3.org/2000/svg"
   xmlns:sodipodi="http://sodipodi.sourceforge.net/DTD/sodipodi-0.dtd"
   xmlns:inkscape="http://www.inkscape.org/namespaces/inkscape"
   version="1.1"
   width="24"
   height="24"
   id="svg4460"
   inkscape:version="0.91 r13725"
   sodipodi:docname="recherche-poi.svg">
  <sodipodi:namedview
     pagecolor="#ffffff"
     bordercolor="#666666"
     borderopacity="1"
     objecttolerance="10"
     gridtolerance="10"
     guidetolerance="10"
     inkscape:pageopacity="0"
     inkscape:pageshadow="2"
     inkscape:window-width="1280"
     inkscape:window-height="972"
     id="namedview11"
     showgrid="false"
     inkscape:zoom="6.9532167"
     inkscape:cx="19.712819"
     inkscape:cy="6.9608878"
     inkscape:window-x="-8"
     inkscape:window-y="-8"
     inkscape:window-maximized="1"
     inkscape:current-layer="svg4460" />
  <defs
     id="defs4462" />
  <metadata
     id="metadata4465">
    <rdf:RDF>
      <cc:Work
         rdf:about="">
        <dc:format>image/svg+xml</dc:format>
        <dc:type
           rdf:resource="http://purl.org/dc/dcmitype/StillImage" />
        <dc:title></dc:title>
      </cc:Work>
    </rdf:RDF>
  </metadata>
  <path
     style="fill:#d2036d"
     d="m 10.592209,23.93147 c -0.26085,-0.14458 -0.25239,0.0101 -0.2543,-4.6521 l -0.002,-4.3462 -0.11275,-0.0238 c -0.062,-0.0131 -0.2818805,-0.0501 -0.4885905,-0.0822 -0.20671,-0.0322 -0.57878,-0.1242 -0.82683,-0.20452 -2.17646,-0.70472 -3.81695,-2.56581 -4.26836,-4.8423297 -0.11805,-0.59532 -0.11768,-1.78268 7.3e-4,-2.38014 0.56838,-2.86779 2.97076,-4.96647 5.8750305,-5.13233 l 0.50495,-0.0288 0.17155,0.15325 0.17155,0.15326 0.0251,2.74772 0.025,2.74773 2.74773,0.0251 2.74773,0.0251 0.1462,0.16365 c 0.13301,0.14891 0.14617,0.19632 0.14599,0.52617 -4.6e-4,0.82163 -0.29218,1.9504597 -0.71318,2.7596697 -0.8902,1.71107 -2.68106,3.01381 -4.52325,3.29038 -0.22049,0.0331 -0.43471,0.0773 -0.47605,0.0982 -0.0657,0.0332 -0.0783,0.59379 -0.10023,4.4342 l -0.025,4.39616 -0.1406,0.12093 c -0.15919,0.13691 -0.43531,0.15924 -0.63061,0.051 z m 1.7125,-10.22091 c 0.59374,-0.17919 1.02086,-0.37891 1.51856,-0.71007 0.80781,-0.5375 1.56586,-1.44952 1.92897,-2.32078 0.19046,-0.45699 0.42446,-1.3668797 0.38079,-1.4806897 -0.0279,-0.0727 -0.29225,-0.0807 -2.69091,-0.0807 -2.86901,0 -2.86604,2.6e-4 -3.0168,-0.2636 -0.049,-0.0858 -0.07,-0.74988 -0.0892,-2.81824 l -0.0251,-2.706 -0.20044,0.0155 c -0.6599105,0.051 -1.7940105,0.52016 -2.4350705,1.00744 -0.91514,0.69561 -1.57959,1.67057 -1.93256,2.83565 -0.12815,0.423 -0.13663,0.51011 -0.13663,1.40311 0,0.89301 0.008,0.98012 0.13663,1.40312 0.44111,1.4560197 1.34989,2.5937597 2.60154,3.2569897 0.9796,0.51907 1.45935,0.62931 2.6430305,0.60736 0.77641,-0.0144 0.92742,-0.0315 1.31713,-0.1491 z m 0.52446,-6.9514397 c -0.2373,-0.13821 -0.23803,-0.14848 -0.23803,-3.35344 0,-3.22368996 -2e-5,-3.22333996 0.24778,-3.35595996 0.14272,-0.0764 0.87872,-0.0626 1.38658,0.026 2.1479,0.37456 4.00705,1.90849996 4.79922,3.95970996 0.30661,0.79393 0.51684,2.15056 0.38324,2.4731 -0.1315,0.31747 0.009,0.3049 -3.39496,0.30322 -2.00961,-9.8e-4 -3.12691,-0.0195 -3.18383,-0.0526 z m 5.54089,-1.01807 c 0.0148,-0.0385 -0.007,-0.23579 -0.0489,-0.43847 -0.34836,-1.69367 -1.4373,-3.07499 -3.00226,-3.80835 -0.43078,-0.20187 -1.26559,-0.44378 -1.53147,-0.44378 l -0.14391,0 0,2.34688 c 0,1.29078 0.015,2.36191 0.0334,2.38028 0.0184,0.0184 1.07581,0.0334 2.34986,0.0334 1.93638,0 2.32087,-0.0115 2.34331,-0.07 z"
     id="path4360"
     inkscape:connector-curvature="0" />
</svg>
