<?xml version="1.0" encoding="UTF-8" standalone="no"?>
<!-- Created with Inkscape (http://www.inkscape.org/) -->

<svg
   xmlns:dc="http://purl.org/dc/elements/1.1/"
   xmlns:cc="http://creativecommons.org/ns#"
   xmlns:rdf="http://www.w3.org/1999/02/22-rdf-syntax-ns#"
   xmlns:svg="http://www.w3.org/2000/svg"
   xmlns="http://www.w3.org/2000/svg"
   xmlns:sodipodi="http://sodipodi.sourceforge.net/DTD/sodipodi-0.dtd"
   xmlns:inkscape="http://www.inkscape.org/namespaces/inkscape"
   version="1.1"
   width="24"
   height="24"
   id="svg4460"
   inkscape:version="0.91 r13725"
   sodipodi:docname="recherche-ecran.svg">
  <sodipodi:namedview
     pagecolor="#ffffff"
     bordercolor="#666666"
     borderopacity="1"
     objecttolerance="10"
     gridtolerance="10"
     guidetolerance="10"
     inkscape:pageopacity="0"
     inkscape:pageshadow="2"
     inkscape:window-width="1280"
     inkscape:window-height="972"
     id="namedview11"
     showgrid="false"
     inkscape:zoom="13.906433"
     inkscape:cx="10.938287"
     inkscape:cy="8.8227472"
     inkscape:window-x="-8"
     inkscape:window-y="-8"
     inkscape:window-maximized="1"
     inkscape:current-layer="svg4460" />
  <defs
     id="defs4462" />
  <metadata
     id="metadata4465">
    <rdf:RDF>
      <cc:Work
         rdf:about="">
        <dc:format>image/svg+xml</dc:format>
        <dc:type
           rdf:resource="http://purl.org/dc/dcmitype/StillImage" />
        <dc:title></dc:title>
      </cc:Work>
    </rdf:RDF>
  </metadata>
  <path
     style="fill:#1db099"
     d="M 4.8424,22.128226 C 4.6384475,22.017548 4.57054,21.879778 4.57054,21.576657 c 0,-0.203828 0.031817,-0.279766 0.1744933,-0.416492 l 0.1744934,-0.16721 3.1986483,-0.02846 3.198658,-0.02846 0,-1.622525 0,-1.622525 -4.6967822,-0.02846 -4.6967821,-0.02846 -0.3131162,-0.147699 C 1.2317067,17.307848 0.85666292,16.943432 0.6516275,16.554971 L 0.5,16.26772 0.5,9.7206935 0.5,3.1736575 0.6516275,2.8864067 C 0.85472708,2.5016263 1.2087737,2.1581979 1.6008279,1.9656688 L 1.9232687,1.8073233 11.855167,1.7924692 c 10.89371,-0.016292 10.208071,-0.0368 10.773928,0.3227187 0.318244,0.2022179 0.630172,0.6080242 0.769858,1.0015542 C 23.493445,3.3828617 23.5,3.8147154 23.5,9.7491655 l 0,6.3477705 -0.13087,0.32384 c -0.173928,0.430378 -0.577319,0.852064 -1.007745,1.053467 l -0.341579,0.159821 -4.696782,0.02846 -4.696782,0.02846 0,1.622526 0,1.622525 3.188116,0.02846 c 2.442409,0.02185 3.21794,0.04552 3.315623,0.101315 0.151014,0.08625 0.299565,0.352503 0.299259,0.536331 -2.69e-4,0.18974 -0.204116,0.494893 -0.373568,0.559312 -0.0921,0.03498 -2.715246,0.05472 -7.102074,0.05328 -6.0278213,-0.0019 -6.9767726,-0.01351 -7.111198,-0.08644 z m 17.073609,-5.751888 c 0.08836,-0.06545 0.218883,-0.204556 0.289963,-0.309005 0.125206,-0.18399 0.128762,-0.225553 0.11386,-1.332639 l -0.01533,-1.142726 -10.332922,0 -10.3329227,0 -0.017154,1.053217 c -0.00997,0.609788 0.00767,1.138108 0.0414,1.254842 0.073792,0.253681 0.3362312,0.508981 0.5831841,0.567257 0.1042859,0.02463 4.5365392,0.04102 9.8494336,0.03642 l 9.659818,-0.0086 0.160732,-0.119092 z M 22.319036,7.9505371 22.333603,3.5615717 22.205157,3.3728471 C 22.134528,3.26905 22.004387,3.1305229 21.91598,3.0650208 l -0.160731,-0.119092 -9.745206,0 c -9.6428167,0 -9.7472367,9.583e-4 -9.9385201,0.1138595 C 1.9652054,3.1224633 1.8243017,3.2459733 1.7584067,3.3343604 1.6393721,3.4940188 1.6385,3.5234875 1.6233104,7.8592558 c -0.00863,2.4002992 -0.00287,4.3967662 0.012554,4.4365942 0.022329,0.05827 2.0388733,0.06957 10.3482086,0.05807 l 10.320416,-0.01437 0.01457,-4.3889554 z"
     id="path4373"
     inkscape:connector-curvature="0" />
</svg>
