<?xml version="1.0" encoding="UTF-8" standalone="no"?>
<!-- Created with Inkscape (http://www.inkscape.org/) -->

<svg
   xmlns:dc="http://purl.org/dc/elements/1.1/"
   xmlns:cc="http://creativecommons.org/ns#"
   xmlns:rdf="http://www.w3.org/1999/02/22-rdf-syntax-ns#"
   xmlns:svg="http://www.w3.org/2000/svg"
   xmlns="http://www.w3.org/2000/svg"
   xmlns:sodipodi="http://sodipodi.sourceforge.net/DTD/sodipodi-0.dtd"
   xmlns:inkscape="http://www.inkscape.org/namespaces/inkscape"
   version="1.1"
   width="24"
   height="24"
   id="svg4460"
   inkscape:version="0.91 r13725"
   sodipodi:docname="recherche-idee.svg">
  <sodipodi:namedview
     pagecolor="#ffffff"
     bordercolor="#666666"
     borderopacity="1"
     objecttolerance="10"
     gridtolerance="10"
     guidetolerance="10"
     inkscape:pageopacity="0"
     inkscape:pageshadow="2"
     inkscape:window-width="1280"
     inkscape:window-height="972"
     id="namedview11"
     showgrid="false"
     inkscape:zoom="13.906433"
     inkscape:cx="10.938287"
     inkscape:cy="8.8227472"
     inkscape:window-x="-8"
     inkscape:window-y="-8"
     inkscape:window-maximized="1"
     inkscape:current-layer="svg4460" />
  <defs
     id="defs4462" />
  <metadata
     id="metadata4465">
    <rdf:RDF>
      <cc:Work
         rdf:about="">
        <dc:format>image/svg+xml</dc:format>
        <dc:type
           rdf:resource="http://purl.org/dc/dcmitype/StillImage" />
        <dc:title></dc:title>
      </cc:Work>
    </rdf:RDF>
  </metadata>
  <path
     style="fill:#f49f0d"
     d="M 10.702803,23.426379 C 10.045346,23.307794 9.740519,23.084483 9.4507185,22.50908 9.1759542,21.963547 8.9424463,21.014767 8.8939354,20.246834 8.8664312,19.811855 8.8675812,19.805569 9.0004352,19.666946 l 0.1342627,-0.140147 2.8935681,0 2.893568,0 0.1272,0.132767 c 0.106289,0.110937 0.127171,0.175155 0.127008,0.390541 -4.69e-4,0.621241 -0.276192,1.83456 -0.542302,2.386283 -0.316193,0.655559 -0.599975,0.867609 -1.331913,0.99525 -0.535988,0.09344 -2.068816,0.09037 -2.599024,-0.0048 z m 2.508911,-0.963069 c 0.334057,-0.0667 0.506519,-0.275598 0.682527,-0.826593 0.164939,-0.516332 0.26244,-0.990535 0.224164,-1.090269 -0.02463,-0.06411 -0.277065,-0.07293 -2.090139,-0.07293 -1.874963,0 -2.0648958,0.0067 -2.0922179,0.0783 -0.036225,0.09449 0.1484559,0.93865 0.2778789,1.270052 0.204174,0.522839 0.323851,0.611619 0.927784,0.688267 0.387205,0.04916 1.743067,0.0184 2.070003,-0.04686 z m -1.335679,-3.632023 c -0.05769,-0.0114 -0.158873,-0.08491 -0.224854,-0.163281 l -0.119965,-0.142572 0,-2.883227 0,-2.883237 0.138164,-0.154589 c 0.121085,-0.135499 0.165945,-0.154014 0.363141,-0.149865 0.18978,0.0038 0.245938,0.02818 0.358887,0.154599 l 0.133908,0.149855 0,2.886121 0,2.886113 -0.13018,0.139351 c -0.130573,0.139773 -0.323237,0.19943 -0.519101,0.160732 z M 8.7829698,18.686128 C 8.642775,18.560874 8.633182,18.527504 8.5480819,17.86955 8.4390617,17.026598 8.3504636,16.600772 8.2023338,16.207682 8.0472943,15.796259 7.5764164,14.863972 7.1052606,14.035606 6.1932994,12.432216 5.9824274,11.814224 5.9826574,10.745623 5.9830407,9.1161467 6.6116318,7.5965628 7.765563,6.4357317 8.6593446,5.5366026 9.7765811,4.9460861 10.98141,4.7359808 c 0.54213,-0.094492 1.551592,-0.094492 2.093713,0 2.168559,0.3781685 4.003262,1.990778 4.702301,4.1330784 0.192644,0.5903823 0.286417,1.2127828 0.286417,1.9010008 0,0.91385 -0.18584,1.521357 -0.776395,2.538007 -0.164374,0.282987 -0.440249,0.758129 -0.613056,1.055884 -0.537492,0.926116 -0.930333,2.031795 -1.194814,3.362855 -0.150852,0.759222 -0.176784,0.840603 -0.305834,0.959744 -0.205419,0.189635 -0.431749,0.178777 -0.641298,-0.03076 -0.09449,-0.09449 -0.160953,-0.208323 -0.160953,-0.275655 0,-0.06306 0.05415,-0.390071 0.120348,-0.726639 0.350674,-1.783087 0.767492,-2.866677 1.689899,-4.393257 0.764493,-1.265203 0.967219,-1.861163 0.919829,-2.703961 C 16.958613,8.0143616 15.140507,6.0170093 12.643661,5.6588795 12.185568,5.5931375 11.821046,5.5984085 11.294527,5.6782375 9.0996228,6.0109139 7.3734986,7.7402199 7.01212,9.9685495 6.8236539,11.130666 7.00733,11.886984 7.8219514,13.305185 c 0.6065974,1.055913 1.3141073,2.510321 1.4298742,2.939377 0.1262511,0.467878 0.2891872,1.519555 0.3038018,1.960782 0.010733,0.323888 0.00575,0.339021 -0.1435203,0.473015 -0.2055341,0.184029 -0.4288261,0.186808 -0.6291373,0.0077 z m 10.2112992,-8.2401 c -0.106269,-0.117425 -0.09868,-0.319135 0.01629,-0.434145 0.09037,-0.09037 0.1578,-0.09468 1.493297,-0.09468 l 1.398623,0 0.120721,0.120721 c 0.0943,0.0943 0.113726,0.148638 0.08874,0.248267 -0.06325,0.251984 -0.02731,0.246407 -1.585009,0.246407 -1.348819,0 -1.460024,-0.0067 -1.532685,-0.08654 z M 1.9479808,10.380095 c -0.1003473,-0.143281 -0.092479,-0.282767 0.022808,-0.4065831 0.095163,-0.102111 0.1168402,-0.103606 1.5114284,-0.103606 1.2225863,0 1.4250058,0.01006 1.4892239,0.07427 0.1184694,0.1184691 0.1409615,0.2917551 0.054913,0.4230761 l -0.077338,0.118 -1.4637033,0 c -1.4588734,0 -1.4639334,-3.36e-4 -1.5373898,-0.105206 z M 16.749111,5.651737 C 16.632299,5.608324 16.547257,5.4390632 16.585178,5.3254718 c 0.01303,-0.0391 0.462713,-0.5130255 0.999285,-1.0532677 1.023559,-1.0305647 1.093086,-1.0786156 1.28413,-0.8875811 0.191035,0.1910345 0.142974,0.2605617 -0.88759,1.284121 -0.540243,0.5365718 -1.014216,0.9862513 -1.053268,0.9992942 -0.0391,0.013033 -0.119437,0.00575 -0.178624,-0.016292 z M 6.0781076,4.6760657 C 5.1987106,3.8003008 5.093265,3.6787743 5.093265,3.541052 c 0,-0.1828215 0.1727687,-0.324866 0.3428635,-0.2818751 0.058746,0.014854 0.5382201,0.4604033 1.0654386,0.9901134 C 7.5243118,5.2768459 7.5745094,5.3531389 7.3654869,5.5621614 7.1779599,5.7496884 7.107436,5.7011487 6.0781076,4.6760657 Z M 11.798918,3.5820783 c -0.06919,-0.076475 -0.0783,-0.2517354 -0.0783,-1.5074705 0,-1.31643597 0.0067,-1.42667327 0.08654,-1.49924797 0.114905,-0.10398897 0.352859,-0.0996477 0.450475,0.00863 0.06929,0.076475 0.0783,0.2517354 0.0783,1.50747047 0,1.3164361 -0.0067,1.4266733 -0.08654,1.4992481 -0.114905,0.1039889 -0.352859,0.099648 -0.450475,-0.00863 z"
     id="path4399"
     inkscape:connector-curvature="0" />
</svg>
