<?xml version="1.0" encoding="UTF-8" standalone="no"?>
<!-- Created with Inkscape (http://www.inkscape.org/) -->

<svg
   xmlns:dc="http://purl.org/dc/elements/1.1/"
   xmlns:cc="http://creativecommons.org/ns#"
   xmlns:rdf="http://www.w3.org/1999/02/22-rdf-syntax-ns#"
   xmlns:svg="http://www.w3.org/2000/svg"
   xmlns="http://www.w3.org/2000/svg"
   xmlns:sodipodi="http://sodipodi.sourceforge.net/DTD/sodipodi-0.dtd"
   xmlns:inkscape="http://www.inkscape.org/namespaces/inkscape"
   version="1.0"
   width="580"
   height="580"
   id="svg2"
   sodipodi:version="0.32"
   inkscape:version="0.91 r13725"
   sodipodi:docname="currency_exchange.svg"
   inkscape:output_extension="org.inkscape.output.svg.inkscape">
  <metadata
     id="metadata2975">
    <rdf:RDF>
      <cc:Work
         rdf:about="">
        <dc:format>image/svg+xml</dc:format>
        <dc:type
           rdf:resource="http://purl.org/dc/dcmitype/StillImage" />
        <cc:license
           rdf:resource="http://web.resource.org/cc/PublicDomain" />
        <dc:language>en</dc:language>
      </cc:Work>
    </rdf:RDF>
  </metadata>
  <sodipodi:namedview
     inkscape:window-height="947"
     inkscape:window-width="1048"
     inkscape:pageshadow="2"
     inkscape:pageopacity="0.0"
     guidetolerance="10.0"
     gridtolerance="10.0"
     objecttolerance="10.0"
     borderopacity="1.0"
     bordercolor="#666666"
     pagecolor="#ffffff"
     id="base"
     inkscape:zoom="0.65172414"
     inkscape:cx="86.859447"
     inkscape:cy="234.07871"
     inkscape:window-x="91"
     inkscape:window-y="25"
     inkscape:current-layer="svg2"
     showgrid="false"
     showguides="true"
     inkscape:guide-bbox="true"
     inkscape:window-maximized="1" />
  <defs
     id="defs4">
    <inkscape:perspective
       sodipodi:type="inkscape:persp3d"
       inkscape:vp_x="0 : 290 : 1"
       inkscape:vp_y="0 : 1000 : 0"
       inkscape:vp_z="580 : 290 : 1"
       inkscape:persp3d-origin="290 : 193.33333 : 1"
       id="perspective2441" />
    <inkscape:perspective
       id="perspective3452"
       inkscape:persp3d-origin="30 : 20 : 1"
       inkscape:vp_z="60 : 30 : 1"
       inkscape:vp_y="0 : 1000 : 0"
       inkscape:vp_x="0 : 30 : 1"
       sodipodi:type="inkscape:persp3d" />
    <symbol
       viewBox="244.5 110 489 219.9"
       id="symbol-university">
      <path
         id="path4460"
         d="M79,43l57,119c0,0,21-96,104-96s124,106,124,106l43-133l82-17L0,17L79,43z" />
      <path
         id="path4462"
         d="M94,176l-21,39"
         stroke-width="20"
         stroke="#000000"
         fill="none" />
      <path
         id="path4464"
         d="M300,19c0,10.5-22.6,19-50.5,19S199,29.5,199,19s22.6-19,50.5-19S300,8.5,300,19z" />
      <path
         id="path4466"
         d="M112,216l-16-38L64,88c0,0-9-8-4-35s16-24,16-24"
         stroke-width="20"
         stroke="#000000"
         ill="none" />
    </symbol>
    <inkscape:perspective
       id="perspective4471"
       inkscape:persp3d-origin="372.04724 : 350.78739 : 1"
       inkscape:vp_z="744.09448 : 526.18109 : 1"
       inkscape:vp_y="0 : 1000 : 0"
       inkscape:vp_x="0 : 526.18109 : 1"
       sodipodi:type="inkscape:persp3d" />
    <inkscape:perspective
       id="perspective4668"
       inkscape:persp3d-origin="6 : 4 : 1"
       inkscape:vp_z="12 : 6 : 1"
       inkscape:vp_y="0 : 1000 : 0"
       inkscape:vp_x="0 : 6 : 1"
       sodipodi:type="inkscape:persp3d" />
    <marker
       viewBox="0 0 10 10"
       refY="5"
       refX="10"
       orient="auto"
       markerWidth="4"
       markerUnits="strokeWidth"
       markerHeight="3"
       id="ArrowStart">
      <path
         id="path3634"
         d="M 10 0 L 0 5 L 10 10 z" />
    </marker>
    <marker
       viewBox="0 0 10 10"
       refY="5"
       refX="0"
       orient="auto"
       markerWidth="4"
       markerUnits="strokeWidth"
       markerHeight="3"
       id="ArrowEnd">
      <path
         id="path3631"
         d="M 0 0 L 10 5 L 0 10 z" />
    </marker>
    <inkscape:perspective
       id="perspective2510"
       inkscape:persp3d-origin="306.082 : 204.39034 : 1"
       inkscape:vp_z="612.164 : 306.58551 : 1"
       inkscape:vp_y="0 : 1000 : 0"
       inkscape:vp_x="0 : 306.58551 : 1"
       sodipodi:type="inkscape:persp3d" />
    <marker
       viewBox="0 0 10 10"
       refY="5"
       refX="10"
       orient="auto"
       markerWidth="4"
       markerUnits="strokeWidth"
       markerHeight="3"
       id="marker2611">
      <path
         id="path1325"
         d="M 10 0 L 0 5 L 10 10 z" />
    </marker>
    <marker
       viewBox="0 0 10 10"
       refY="5"
       refX="0"
       orient="auto"
       markerWidth="4"
       markerUnits="strokeWidth"
       markerHeight="3"
       id="marker2608">
      <path
         id="path1322"
         d="M 0 0 L 10 5 L 0 10 z" />
    </marker>
    <inkscape:perspective
       id="perspective2605"
       inkscape:persp3d-origin="306.082 : 204.39034 : 1"
       inkscape:vp_z="612.164 : 306.58551 : 1"
       inkscape:vp_y="0 : 1000 : 0"
       inkscape:vp_x="0 : 306.58551 : 1"
       sodipodi:type="inkscape:persp3d" />
    <inkscape:perspective
       id="perspective2656"
       inkscape:persp3d-origin="372.04724 : 350.78739 : 1"
       inkscape:vp_z="744.09448 : 526.18109 : 1"
       inkscape:vp_y="0 : 1000 : 0"
       inkscape:vp_x="0 : 526.18109 : 1"
       sodipodi:type="inkscape:persp3d" />
    <marker
       viewBox="0 0 10 10"
       refY="5"
       refX="10"
       orient="auto"
       markerWidth="4"
       markerUnits="strokeWidth"
       markerHeight="3"
       id="marker4460">
      <path
         id="path2826"
         d="M 10 0 L 0 5 L 10 10 z" />
    </marker>
    <marker
       viewBox="0 0 10 10"
       refY="5"
       refX="0"
       orient="auto"
       markerWidth="4"
       markerUnits="strokeWidth"
       markerHeight="3"
       id="marker4457">
      <path
         id="path2823"
         d="M 0 0 L 10 5 L 0 10 z" />
    </marker>
    <inkscape:perspective
       id="perspective4454"
       inkscape:persp3d-origin="421.95551 : 208.05033 : 1"
       inkscape:vp_z="843.91101 : 312.0755 : 1"
       inkscape:vp_y="0 : 1000 : 0"
       inkscape:vp_x="0 : 312.0755 : 1"
       sodipodi:type="inkscape:persp3d" />
  </defs>
  <g
     id="layer3"
     inkscape:label="Layout"
     style="display:none;stroke:#757575;stroke-opacity:1"
     transform="matrix(48.14969,0,0,48.14969,-536.27327,-33.306752)">
    <rect
       style="fill:none;stroke:#757575;stroke-width:0.10000000000000001;stroke-miterlimit:4;stroke-dasharray:none;stroke-opacity:1;display:inline"
       id="rect4134"
       width="10"
       height="10"
       x="1"
       y="1" />
    <rect
       style="fill:none;stroke:#757575;stroke-width:0.10000000000000001;stroke-miterlimit:4;stroke-dasharray:none;stroke-opacity:1;display:inline"
       id="rect4136"
       width="8"
       height="8"
       x="2"
       y="2" />
  </g>
  <path
     id="path2836"
     style="fill:#000000;stroke:#000000;stroke-width:1.85899997"
     d="" />
  <path
     style="font-size:144px;font-style:normal;font-variant:normal;font-weight:normal;font-stretch:normal;text-align:start;line-height:125%;writing-mode:lr-tb;text-anchor:start;fill:#000080;fill-opacity:1;stroke:none;stroke-width:1px;stroke-linecap:butt;stroke-linejoin:miter;stroke-opacity:1;font-family:Arial Black;-inkscape-font-specification:Arial Black"
     d="M 85.166016 62.238281 A 5.0005 5.0005 0 0 0 80.166016 67.238281 L 80.166016 231.48438 A 5.0005 5.0005 0 0 0 85.166016 236.48438 L 384.03711 236.48438 C 367.22138 251.05884 356.57031 272.5595 356.57031 296.54102 C 356.57031 340.40125 392.17884 376.00978 436.03906 376.00977 C 479.89928 376.00977 515.50781 340.40126 515.50781 296.54102 C 515.50781 272.54875 504.8381 251.05208 488.00586 236.48438 L 496.78711 236.48438 A 5.0005 5.0005 0 0 0 501.78711 231.48438 L 501.78711 67.238281 A 5.0005 5.0005 0 0 0 496.78711 62.238281 L 85.166016 62.238281 z M 287.58203 72.238281 L 297.83203 72.238281 L 297.83203 86.597656 L 287.58203 86.597656 L 287.58203 72.238281 z M 287.58203 86.660156 L 297.83203 86.660156 L 297.83203 93.566406 C 308.33197 94.222756 316.37102 96.722752 321.92578 101.03516 C 327.48039 105.34775 331.08194 111.254 332.76953 118.75391 L 306.61328 122.87891 C 305.30073 119.55086 304.13666 117.2618 303.08203 115.97266 C 302.02729 114.68368 300.26947 113.379 297.83203 112.06641 L 297.83203 132.37891 C 312.08197 136.17584 321.6132 140.19147 326.39453 144.41016 C 332.72257 150.08209 335.86319 157.2852 335.86328 166.00391 C 335.8632 171.11331 334.73038 175.80081 332.45703 180.06641 C 330.18351 184.33205 327.27726 187.89455 323.73828 190.75391 C 320.19914 193.61329 316.44133 195.6836 312.45703 196.97266 C 308.4726 198.26172 303.59759 199.01954 297.83203 199.25391 L 297.83203 212.53516 L 287.58203 212.53516 L 287.58203 199.25391 C 280.69137 198.64453 275.08981 197.52735 270.80078 195.91016 C 266.51169 194.29298 262.8242 192.05079 259.70703 189.19141 C 256.58983 186.33204 254.17577 183.24611 252.48828 179.94141 C 250.80077 176.63674 249.51952 172.66019 248.67578 167.97266 L 277.08203 164.66016 C 277.92576 169.30081 279.0898 172.66019 280.51953 174.72266 C 281.94919 176.78518 284.30074 178.59768 287.58203 180.19141 L 287.58203 155.37891 C 278.11325 152.75396 271.38669 150.48833 267.42578 148.56641 C 263.46482 146.64459 260.01951 143.55865 257.11328 139.31641 C 254.20703 135.07428 252.76952 129.91023 252.76953 123.81641 C 252.76952 115.47274 255.68358 108.48056 261.51953 102.87891 C 267.35544 97.277442 276.05075 94.175876 287.58203 93.566406 L 287.58203 86.660156 z M 287.58203 111.72266 C 284.58199 112.70712 282.47262 113.92587 281.30078 115.37891 C 280.12888 116.83212 279.55074 118.53524 279.55078 120.50391 C 279.55075 122.56649 280.16793 124.35555 281.36328 125.87891 C 282.55856 127.40242 284.62887 128.69148 287.58203 129.72266 L 287.58203 111.72266 z M 297.83203 158.41016 L 297.83203 180.91016 C 301.81635 180.01955 304.73041 178.54299 306.58203 176.50391 C 308.43353 174.46487 309.36321 172.19144 309.36328 169.66016 C 309.36322 167.45707 308.58978 165.418 307.01953 163.56641 C 305.44916 161.71488 302.37884 160.00395 297.83203 158.41016 z M 90.166016 226.47266 L 398.58398 226.47266 C 398.57679 226.47651 398.56969 226.48052 398.5625 226.48438 L 90.166016 226.48438 L 90.166016 226.47266 z M 473.47461 226.47266 L 491.78711 226.47266 L 491.78711 226.48438 L 473.49805 226.48438 C 473.49036 226.48026 473.4823 226.47677 473.47461 226.47266 z M 440.75781 243.72852 C 449.71086 243.72861 458.78898 246.13487 467.97656 250.91602 L 461.66406 276.44727 C 455.28898 270.58796 448.63274 267.63485 441.69531 267.63477 C 432.6015 267.63484 426.44526 271.7286 423.25781 279.88477 L 448.57031 279.88477 L 445.53906 292.66602 L 420.78906 292.66602 C 420.69526 293.60356 420.66402 294.97857 420.66406 296.75977 L 420.66406 300.47852 L 446.82031 300.47852 L 443.78906 313.29102 L 422.47656 313.29102 C 425.24213 322.05666 431.24213 326.41604 440.47656 326.41602 C 450.60148 326.41603 460.07022 323.13479 468.88281 316.57227 L 468.88281 342.82227 C 461.57022 347.83788 452.74211 350.32226 442.38281 350.32227 C 425.64839 350.32225 413.2734 346.5254 405.25781 338.88477 C 397.24217 331.24415 392.35155 322.71292 390.57031 313.29102 L 377.85156 313.29102 L 381.22656 300.47852 L 388.94531 300.47852 C 388.85155 299.77546 388.8203 298.54107 388.82031 296.75977 C 388.8203 294.88483 388.85155 293.50982 388.94531 292.66602 L 379.60156 292.66602 L 382.91406 279.88477 L 390.57031 279.88477 C 396.66404 255.79112 413.38277 243.72862 440.75781 243.72852 z M 156.30273 281.15039 C 113.38859 282.23884 78.896484 317.413 78.896484 360.58789 C 78.896484 404.44812 114.50501 440.05665 158.36523 440.05664 C 202.22545 440.05664 237.83398 404.44813 237.83398 360.58789 C 237.83398 316.72767 202.22546 281.15038 158.36523 281.15039 C 157.67991 281.15039 156.98391 281.13311 156.30273 281.15039 z M 157.14648 301.77539 C 165.20892 301.77548 171.59172 302.68955 176.30273 304.49414 C 181.01359 306.29892 184.98234 309.29892 188.24023 313.49414 C 191.49796 317.68953 193.74014 322.75985 194.95898 328.71289 L 168.11523 332.93164 C 166.75579 327.91611 165.18548 324.6036 163.42773 322.96289 C 161.66986 321.32234 159.67768 320.49423 157.42773 320.49414 C 154.70893 320.49424 152.49018 321.36922 150.80273 323.15039 C 149.11518 324.93171 148.27143 327.46297 148.27148 330.74414 C 148.27143 332.47858 148.44332 334.15827 148.77148 335.77539 C 149.09956 337.39263 150.22456 341.21296 152.14648 347.21289 L 173.45898 347.21289 L 173.45898 364.02539 L 154.61523 364.02539 C 154.38081 368.00979 153.64643 371.58793 152.42773 374.77539 C 151.44331 377.21293 149.81831 379.74417 147.52148 382.36914 C 150.14643 381.7598 152.39643 381.46291 154.27148 381.46289 C 156.66205 381.4629 159.77143 381.93166 163.61523 382.86914 C 168.86517 384.0879 173.06829 384.68167 176.20898 384.68164 C 178.78703 384.68168 180.99797 384.47073 182.89648 384.02539 C 184.79484 383.58012 187.30265 382.65042 190.39648 381.24414 L 199.95898 402.18164 C 195.31827 404.52538 191.25577 406.16601 187.74023 407.05664 C 184.22452 407.94725 180.42765 408.36913 176.39648 408.36914 C 171.99016 408.36912 166.97454 407.60352 161.30273 406.05664 C 153.84955 403.99416 149.20893 402.79101 147.42773 402.46289 C 145.64644 402.13476 143.74019 401.99414 141.67773 401.99414 C 135.63083 401.99413 128.95895 404.10351 121.64648 408.36914 L 112.55273 388.40039 C 122.39646 381.32228 127.33396 374.2598 127.33398 367.18164 C 127.33396 366.80669 127.27145 365.7598 127.17773 364.02539 L 112.55273 364.02539 L 112.55273 347.21289 L 123.05273 347.21289 C 121.27146 341.02547 120.25584 337.44733 120.02148 336.46289 C 119.74022 334.96295 119.58396 333.10359 119.58398 330.90039 C 119.58396 325.04111 121.15427 319.78329 124.27148 315.11914 C 127.38864 310.45519 131.49801 307.07236 136.58398 304.96289 C 141.66988 302.85361 148.52144 301.77549 157.14648 301.77539 z M 318.625 380.4375 C 275.71085 381.52596 241.21875 416.70011 241.21875 459.875 C 241.21875 503.73524 276.82728 539.34376 320.6875 539.34375 C 364.54771 539.34372 400.15625 503.73524 400.15625 459.875 C 400.15624 416.01479 364.54773 380.43749 320.6875 380.4375 C 320.00217 380.43751 319.30618 380.42022 318.625 380.4375 z M 271.90625 414.4375 L 304.03125 414.4375 L 320.15625 449.4375 L 336.03125 414.4375 L 368.25 414.4375 L 343.6875 458.875 L 364.59375 458.875 L 364.59375 474.40625 L 334.96875 474.40625 L 334.96875 482.90625 L 364.59375 482.90625 L 364.59375 498.65625 L 334.96875 498.65625 L 334.96875 517.5 L 305.71875 517.5 L 305.71875 498.65625 L 275.625 498.65625 L 275.625 482.90625 L 305.71875 482.90625 L 305.71875 474.40625 L 275.625 474.40625 L 275.625 458.875 L 297.15625 458.875 L 271.90625 414.4375 z "
     id="path4552" />
  <g
     id="g2830"
     transform="matrix(1.0003476,0,0,0.7145342,-135.88909,-99.846725)"
     style="opacity:0.5;fill:#ffffff;fill-opacity:1;stroke:#ffffff;stroke-opacity:1">
    <path
       id="path2834"
       style="fill:#ffffff;fill-opacity:1;stroke:#ffffff;stroke-width:42;stroke-opacity:1"
       d="" />
  </g>
</svg>
