<?xml version="1.0" encoding="UTF-8" standalone="no"?>
<!-- Created with Inkscape (http://www.inkscape.org/) -->

<svg
   xmlns:dc="http://purl.org/dc/elements/1.1/"
   xmlns:cc="http://creativecommons.org/ns#"
   xmlns:rdf="http://www.w3.org/1999/02/22-rdf-syntax-ns#"
   xmlns:svg="http://www.w3.org/2000/svg"
   xmlns="http://www.w3.org/2000/svg"
   xmlns:sodipodi="http://sodipodi.sourceforge.net/DTD/sodipodi-0.dtd"
   xmlns:inkscape="http://www.inkscape.org/namespaces/inkscape"
   version="1.0"
   width="580"
   height="580"
   id="svg2"
   sodipodi:version="0.32"
   inkscape:version="0.91 r13725"
   sodipodi:docname="atm.svg"
   inkscape:output_extension="org.inkscape.output.svg.inkscape">
  <metadata
     id="metadata2975">
    <rdf:RDF>
      <cc:Work
         rdf:about="">
        <dc:format>image/svg+xml</dc:format>
        <dc:type
           rdf:resource="http://purl.org/dc/dcmitype/StillImage" />
        <cc:license
           rdf:resource="http://web.resource.org/cc/PublicDomain" />
        <dc:language>en</dc:language>
      </cc:Work>
    </rdf:RDF>
  </metadata>
  <sodipodi:namedview
     inkscape:window-height="1005"
     inkscape:window-width="1280"
     inkscape:pageshadow="2"
     inkscape:pageopacity="0.0"
     guidetolerance="10.0"
     gridtolerance="10.0"
     objecttolerance="10.0"
     borderopacity="1.0"
     bordercolor="#666666"
     pagecolor="#ffffff"
     id="base"
     inkscape:zoom="1.3034483"
     inkscape:cx="239.81471"
     inkscape:cy="337.92551"
     inkscape:window-x="0"
     inkscape:window-y="0"
     inkscape:current-layer="svg2"
     showgrid="false"
     inkscape:window-maximized="0" />
  <defs
     id="defs4">
    <inkscape:perspective
       sodipodi:type="inkscape:persp3d"
       inkscape:vp_x="0 : 290 : 1"
       inkscape:vp_y="0 : 1000 : 0"
       inkscape:vp_z="580 : 290 : 1"
       inkscape:persp3d-origin="290 : 193.33333 : 1"
       id="perspective2441" />
  </defs>
  <path
     style="color:#000000;font-style:normal;font-variant:normal;font-weight:normal;font-stretch:normal;font-size:medium;line-height:normal;font-family:sans-serif;text-indent:0;text-align:start;text-decoration:none;text-decoration-line:none;text-decoration-style:solid;text-decoration-color:#000000;letter-spacing:normal;word-spacing:normal;text-transform:none;direction:ltr;block-progression:tb;writing-mode:lr-tb;baseline-shift:baseline;text-anchor:start;white-space:normal;clip-rule:nonzero;display:inline;overflow:visible;visibility:visible;opacity:1;isolation:auto;mix-blend-mode:normal;color-interpolation:sRGB;color-interpolation-filters:linearRGB;solid-color:#000000;solid-opacity:1;fill:#000080;fill-opacity:1;fill-rule:nonzero;stroke:none;stroke-width:35.84500122;stroke-linecap:round;stroke-linejoin:round;stroke-miterlimit:4;stroke-dasharray:none;stroke-dashoffset:0;stroke-opacity:1;color-rendering:auto;image-rendering:auto;shape-rendering:auto;text-rendering:auto;enable-background:accumulate"
     d="M 103.97852 64.490234 C 94.081085 64.491567 86.057976 72.514682 86.056641 82.412109 L 86.056641 145.33789 C 86.057973 155.23532 94.081083 163.25844 103.97852 163.25977 L 175.62695 163.25977 C 174.72756 166.06467 173.72969 169.1516 172.32227 173.40625 C 168.88276 183.80389 164.04032 198.20044 158.27344 215.2168 C 146.73968 249.24952 131.50311 293.78069 116.31641 338.02148 C 85.942986 426.50307 55.767578 513.82812 55.767578 513.82812 A 10.001 10.001 0 0 0 65.302734 527.09375 L 469.11523 523.6875 A 10.001 10.001 0 0 0 478.35742 510.08008 L 467.98633 483.26953 L 524.2793 482.79297 A 10.001 10.001 0 0 0 533.65234 469.54492 L 427.74219 161.24023 C 430.05458 162.23705 432.9245 163.25963 435.00195 163.25977 L 504.61523 163.25977 C 514.51266 163.25844 522.53578 155.23532 522.53711 145.33789 L 522.53711 82.412109 C 522.53577 72.514682 514.51266 64.491566 504.61523 64.490234 L 103.97852 64.490234 z M 121.90039 100.33594 L 486.69336 100.33594 L 486.69336 127.41406 L 441.25195 127.41406 L 416.12305 127.41406 L 411.10938 112.82031 A 10.001 10.001 0 0 0 401.55664 106.06836 L 242.59766 107.58789 A 10.001 10.001 0 0 0 232.83984 115.88867 C 233.18714 113.87457 232.47234 117.13178 231.52344 120.12695 C 230.96573 121.88734 229.98324 124.86183 229.14844 127.41406 L 205.79492 127.41406 L 121.90039 127.41406 L 121.90039 100.33594 z M 394.53711 126.13672 L 510.22656 462.91211 L 453.73828 463.38867 A 10.001 10.001 0 0 0 453.35156 463.375 L 247.31445 465.13477 L 134.41992 466.08789 C 138.50508 454.26519 162.30752 385.39918 190.38281 303.63086 C 205.57703 259.37823 220.82055 214.83428 232.37305 180.75391 C 238.14929 163.71372 243.00139 149.2921 246.4707 138.80664 C 248.02014 134.1237 249.18665 130.5358 250.15039 127.51758 L 394.53711 126.13672 z M 322.00195 152.07617 A 15.0015 15.0015 0 0 0 307.22852 167.28906 L 307.22852 180.78906 C 287.14151 183.1932 271.92388 189.42383 261.60938 199.51172 C 250.17824 210.69203 244.46287 224.07592 244.46289 239.66016 C 244.46287 255.34151 250.23384 268.16669 261.7793 278.13672 C 272.18635 287.12396 287.34748 293.78225 307.22852 298.12891 L 307.22852 381.71289 C 298.06536 379.825 290.51764 375.74355 284.58594 369.46484 C 277.26998 361.72107 272.41025 350.68547 270.00977 336.35938 L 239.14648 341.00586 C 240.74682 360.07503 247.7764 374.91045 260.23633 385.50977 C 271.47623 395.07131 287.1514 401.21304 307.22852 403.96094 L 307.22852 432.33203 A 15.0015 15.0015 0 1 0 337.22852 432.33203 L 337.22852 404.11914 C 357.72156 402.35163 373.95872 395.69344 385.92188 384.12891 C 398.83886 371.64205 405.29669 356.88212 405.29688 339.8457 C 405.29669 323.19659 399.41059 309.7411 387.63672 299.48047 C 376.27148 289.57641 359.45731 282.6568 337.22852 278.70508 L 337.22852 203.25586 C 344.76054 205.20755 350.93471 208.55555 355.74414 213.30664 C 361.57387 219.06628 365.4033 226.88268 367.23242 236.75586 L 399.29688 232.83594 C 396.43893 216.96131 389.40935 204.61932 378.20703 195.81055 C 367.9808 187.7699 354.31274 182.72259 337.22852 180.65039 L 337.22852 167.28906 A 15.0015 15.0015 0 0 0 322.00195 152.07617 z M 213.57227 168.22852 C 178.89219 262.57131 110.82812 473.14453 110.82812 473.14453 A 10.001 10.001 0 0 0 110.625 473.90039 A 10.001 10.001 0 0 0 120.42969 486.21875 L 257.49023 485.04883 L 446.61133 483.44922 L 454.48828 503.80859 L 79.279297 506.97461 C 83.363438 495.15214 107.16288 426.28379 135.23242 344.51367 C 150.42347 300.26023 165.66473 255.71574 177.21484 221.63477 C 182.9899 204.59428 187.83998 190.17312 191.30859 179.6875 C 192.85717 175.00614 194.02095 171.41819 194.98438 168.40039 L 213.57227 168.22852 z M 307.22852 203.18945 L 307.22852 272.53516 C 298.36418 269.62292 291.13882 265.86084 285.61328 261.2207 C 278.75456 255.46139 275.32612 247.59725 275.32617 237.62695 C 275.32612 228.91534 278.64139 221.24409 285.27148 214.61328 C 290.66285 209.22154 297.98199 205.41303 307.22852 203.18945 z M 337.22852 304.36133 C 350.32149 308.24367 359.50116 312.83511 364.74609 318.13867 C 370.63296 324.0918 373.57602 331.95594 373.57617 341.73242 C 373.57602 352.8642 369.68902 362.0844 361.91602 369.39258 C 355.24552 375.66401 347.0134 379.80965 337.22852 381.83984 L 337.22852 304.36133 z "
     id="rect3241" />
</svg>
