<?xml version="1.0" encoding="UTF-8" standalone="no"?>
<!-- Created with Inkscape (http://www.inkscape.org/) -->

<svg
   xmlns:dc="http://purl.org/dc/elements/1.1/"
   xmlns:cc="http://creativecommons.org/ns#"
   xmlns:rdf="http://www.w3.org/1999/02/22-rdf-syntax-ns#"
   xmlns:svg="http://www.w3.org/2000/svg"
   xmlns="http://www.w3.org/2000/svg"
   xmlns:sodipodi="http://sodipodi.sourceforge.net/DTD/sodipodi-0.dtd"
   xmlns:inkscape="http://www.inkscape.org/namespaces/inkscape"
   version="1.0"
   width="580"
   height="580"
   id="svg2"
   sodipodi:version="0.32"
   inkscape:version="0.91 r13725"
   sodipodi:docname="jain.svg"
   inkscape:output_extension="org.inkscape.output.svg.inkscape">
  <metadata
     id="metadata2975">
    <rdf:RDF>
      <cc:Work
         rdf:about="">
        <dc:format>image/svg+xml</dc:format>
        <dc:type
           rdf:resource="http://purl.org/dc/dcmitype/StillImage" />
        <cc:license
           rdf:resource="http://web.resource.org/cc/PublicDomain" />
        <dc:language>en</dc:language>
      </cc:Work>
    </rdf:RDF>
  </metadata>
  <sodipodi:namedview
     inkscape:window-height="972"
     inkscape:window-width="1280"
     inkscape:pageshadow="2"
     inkscape:pageopacity="0.0"
     guidetolerance="10.0"
     gridtolerance="10.0"
     objecttolerance="10.0"
     borderopacity="1.0"
     bordercolor="#666666"
     pagecolor="#ffffff"
     id="base"
     inkscape:zoom="0.92167713"
     inkscape:cx="56.192008"
     inkscape:cy="353.23763"
     inkscape:window-x="-8"
     inkscape:window-y="-8"
     inkscape:current-layer="svg2"
     showgrid="false"
     inkscape:window-maximized="1" />
  <defs
     id="defs4">
    <inkscape:perspective
       sodipodi:type="inkscape:persp3d"
       inkscape:vp_x="0 : 290 : 1"
       inkscape:vp_y="0 : 1000 : 0"
       inkscape:vp_z="580 : 290 : 1"
       inkscape:persp3d-origin="290 : 193.33333 : 1"
       id="perspective2441" />
    <inkscape:perspective
       id="perspective2466"
       inkscape:persp3d-origin="372.04724 : 350.78739 : 1"
       inkscape:vp_z="744.09448 : 526.18109 : 1"
       inkscape:vp_y="0 : 1000 : 0"
       inkscape:vp_x="0 : 526.18109 : 1"
       sodipodi:type="inkscape:persp3d" />
    <inkscape:perspective
       id="perspective3333"
       inkscape:persp3d-origin="372.04724 : 350.78739 : 1"
       inkscape:vp_z="744.09448 : 526.18109 : 1"
       inkscape:vp_y="0 : 1000 : 0"
       inkscape:vp_x="0 : 526.18109 : 1"
       sodipodi:type="inkscape:persp3d" />
    <inkscape:perspective
       id="perspective3401"
       inkscape:persp3d-origin="372.04724 : 350.78739 : 1"
       inkscape:vp_z="744.09448 : 526.18109 : 1"
       inkscape:vp_y="0 : 1000 : 0"
       inkscape:vp_x="0 : 526.18109 : 1"
       sodipodi:type="inkscape:persp3d" />
    <inkscape:perspective
       id="perspective3464"
       inkscape:persp3d-origin="372.04724 : 350.78739 : 1"
       inkscape:vp_z="744.09448 : 526.18109 : 1"
       inkscape:vp_y="0 : 1000 : 0"
       inkscape:vp_x="0 : 526.18109 : 1"
       sodipodi:type="inkscape:persp3d" />
    <inkscape:perspective
       id="perspective3581"
       inkscape:persp3d-origin="225 : 150 : 1"
       inkscape:vp_z="450 : 225 : 1"
       inkscape:vp_y="0 : 1000 : 0"
       inkscape:vp_x="0 : 225 : 1"
       sodipodi:type="inkscape:persp3d" />
    <inkscape:perspective
       id="perspective4312"
       inkscape:persp3d-origin="225 : 150 : 1"
       inkscape:vp_z="450 : 225 : 1"
       inkscape:vp_y="0 : 1000 : 0"
       inkscape:vp_x="0 : 225 : 1"
       sodipodi:type="inkscape:persp3d" />
  </defs>
  <path
     style="color:#000000;font-style:normal;font-variant:normal;font-weight:normal;font-stretch:normal;font-size:medium;line-height:normal;font-family:sans-serif;text-indent:0;text-align:start;text-decoration:none;text-decoration-line:none;text-decoration-style:solid;text-decoration-color:#000000;letter-spacing:normal;word-spacing:normal;text-transform:none;direction:ltr;block-progression:tb;writing-mode:lr-tb;baseline-shift:baseline;text-anchor:start;white-space:normal;clip-rule:nonzero;display:inline;overflow:visible;visibility:visible;opacity:1;isolation:auto;mix-blend-mode:normal;color-interpolation:sRGB;color-interpolation-filters:linearRGB;solid-color:#000000;solid-opacity:1;fill:#000080;fill-opacity:1;fill-rule:nonzero;stroke:none;stroke-width:20.13593864;stroke-linecap:round;stroke-linejoin:round;stroke-miterlimit:4;stroke-dasharray:none;stroke-dashoffset:0;stroke-opacity:1;color-rendering:auto;image-rendering:auto;shape-rendering:auto;text-rendering:auto;enable-background:accumulate"
     d="M 292.72266 17.798828 C 283.00417 17.798828 279.21965 18.982416 274.27344 23.566406 C 270.85103 26.738196 268.05078 31.402184 268.05078 33.929688 C 268.05078 37.315032 266.85428 38.212074 263.50391 37.335938 C 256.8242 35.589141 242.73275 40.913799 238.66406 46.722656 C 236.14716 50.316053 235.12891 57.934783 235.12891 73.179688 L 235.12891 94.589844 L 228.32617 93.591797 C 218.63936 92.170072 204.88864 99.305958 202.76758 106.85547 C 201.81153 110.25836 201.25304 151.14119 201.0293 197.70312 C 200.81847 241.58103 200.46643 251.03015 201.54688 275.63867 C 201.85403 282.63469 207.42969 296.02344 207.42969 296.02344 C 214.24095 310.56096 234.58336 332.42881 247.56641 339.16992 C 251.71938 341.32623 259.87884 344.48115 265.69922 346.17969 C 282.90733 351.20149 312.54125 348.83089 328.17578 341.18164 C 345.64703 332.63375 362.4225 315.31723 371.93164 296.01562 C 371.93164 296.01562 376.94018 285.26481 379.23828 267.46289 C 381.53635 249.66097 381.12305 224.80859 381.12305 224.80859 C 382.55444 166.90782 383.8833 158.54872 394.02539 143.60352 C 397.30954 138.76404 399.67565 132.59596 399.2832 129.89648 C 397.98071 120.93717 362.6482 113.38685 351.08008 125.40625 C 350.1142 121.65157 350.43616 111.1839 349.84375 94.113281 C 348.83161 64.506027 349.11139 64.099309 342.7168 59.330078 C 338.77216 56.388069 332.34821 54.412862 326.25391 54.265625 L 316.26172 54.023438 L 315.07617 40.851562 C 313.4518 22.790533 308.61152 17.798828 292.72266 17.798828 z M 293.83594 34.449219 C 300.66736 34.47596 300.97461 46.358054 300.97461 109.80273 L 300.97461 180.06445 L 308.0293 180.06445 L 315.08594 180.06445 L 315.08594 128.49609 C 315.08594 84.750979 315.64643 76.367244 318.78125 73.232422 C 320.81376 71.199898 324.38659 69.537109 326.72266 69.537109 C 335.9937 69.537109 336.61048 73.917501 336.04297 135.82812 L 335.49805 195.35156 L 342.33984 195.35156 L 349.18359 195.35156 L 350.36133 172.60938 C 351.3783 152.96108 352.28249 149.07712 357.01367 144.04102 C 362.54087 138.15759 373.87695 134.21609 373.87695 138.17773 C 373.87695 139.35604 372.08655 143.70631 369.89844 147.8457 C 366.61729 154.05286 365.65367 165.46977 364.39844 212.98828 C 363.1387 260.67784 362.14212 272.42819 358.61523 281.1875 C 350.39008 301.61525 336.56061 316.4948 317.95703 324.9375 C 284.76969 339.9986 243.63928 324.61261 225.32422 290.28516 C 219.91933 280.1549 219.83343 278.83068 219.14453 195.93945 L 218.44531 111.86719 L 223.84766 111.90234 C 234.40042 111.9727 234.96413 113.83168 235.65039 150.76758 L 236.30469 185.94336 L 242.77148 186.6875 C 250.18756 187.54083 249.82873 189.06118 249.25781 159.16211 C 249.02591 147.0184 249.59441 118.79752 250.51953 96.449219 C 251.99635 60.774354 252.69773 55.685001 256.26562 54.751953 C 258.50075 54.167469 262.06561 54.663006 264.18945 55.851562 C 267.61259 57.767256 268.05078 64.806925 268.05078 117.86328 L 268.05078 177.71289 L 276.2832 177.71289 L 284.51367 177.71289 L 284.51367 107.32227 C 284.51367 38.446237 284.61757 36.898029 289.33008 35.402344 C 291.08203 34.846295 292.57086 34.444267 293.83594 34.449219 z M 288.89844 195.69531 C 272.48023 195.60813 256.53256 202.92943 246 215.65625 C 230.11212 233.24962 226.97142 260.15066 235.34375 281.875 C 241.42176 295.52535 253.42811 306.11176 266.27344 313.2832 C 280.79248 320.39932 298.46346 318.65104 313.0625 313.25 C 328.74383 306.21093 340.51492 291.61688 346.74805 275.9668 C 352.08334 258.79163 353.44934 238.26593 343.3125 222.46875 C 331.76584 206.13122 312.36316 195.29046 292.1875 195.8125 C 291.09024 195.74024 289.99298 195.70112 288.89844 195.69531 z M 207.05859 362.93359 A 10.068976 10.068976 0 0 0 196.99023 373 L 196.99023 541.92188 A 10.068976 10.068976 0 0 0 207.05859 551.98828 L 375.98047 551.98828 A 10.068976 10.068976 0 0 0 386.04688 541.92188 L 386.04688 373 A 10.068976 10.068976 0 0 0 375.98047 362.93359 L 207.05859 362.93359 z "
     id="path4149" />
</svg>
