<?xml version="1.0" encoding="UTF-8" standalone="no"?>
<!-- Created with Inkscape (http://www.inkscape.org/) -->

<svg
   xmlns:dc="http://purl.org/dc/elements/1.1/"
   xmlns:cc="http://creativecommons.org/ns#"
   xmlns:rdf="http://www.w3.org/1999/02/22-rdf-syntax-ns#"
   xmlns:svg="http://www.w3.org/2000/svg"
   xmlns="http://www.w3.org/2000/svg"
   xmlns:sodipodi="http://sodipodi.sourceforge.net/DTD/sodipodi-0.dtd"
   xmlns:inkscape="http://www.inkscape.org/namespaces/inkscape"
   version="1.0"
   width="580"
   height="580"
   id="svg2"
   sodipodi:version="0.32"
   inkscape:version="0.91 r13725"
   sodipodi:docname="bahai.svg"
   inkscape:output_extension="org.inkscape.output.svg.inkscape">
  <metadata
     id="metadata2975">
    <rdf:RDF>
      <cc:Work
         rdf:about="">
        <dc:format>image/svg+xml</dc:format>
        <dc:type
           rdf:resource="http://purl.org/dc/dcmitype/StillImage" />
        <cc:license
           rdf:resource="http://web.resource.org/cc/PublicDomain" />
        <dc:language>en</dc:language>
      </cc:Work>
    </rdf:RDF>
  </metadata>
  <sodipodi:namedview
     inkscape:window-height="972"
     inkscape:window-width="1280"
     inkscape:pageshadow="2"
     inkscape:pageopacity="0.0"
     guidetolerance="10.0"
     gridtolerance="10.0"
     objecttolerance="10.0"
     borderopacity="1.0"
     bordercolor="#666666"
     pagecolor="#ffffff"
     id="base"
     inkscape:zoom="0.65172414"
     inkscape:cx="213.63278"
     inkscape:cy="230.41101"
     inkscape:window-x="-8"
     inkscape:window-y="-8"
     inkscape:current-layer="svg2"
     showgrid="false"
     inkscape:window-maximized="1" />
  <defs
     id="defs4">
    <inkscape:perspective
       sodipodi:type="inkscape:persp3d"
       inkscape:vp_x="0 : 290 : 1"
       inkscape:vp_y="0 : 1000 : 0"
       inkscape:vp_z="580 : 290 : 1"
       inkscape:persp3d-origin="290 : 193.33333 : 1"
       id="perspective2441" />
    <inkscape:perspective
       id="perspective2466"
       inkscape:persp3d-origin="372.04724 : 350.78739 : 1"
       inkscape:vp_z="744.09448 : 526.18109 : 1"
       inkscape:vp_y="0 : 1000 : 0"
       inkscape:vp_x="0 : 526.18109 : 1"
       sodipodi:type="inkscape:persp3d" />
    <inkscape:perspective
       id="perspective3333"
       inkscape:persp3d-origin="372.04724 : 350.78739 : 1"
       inkscape:vp_z="744.09448 : 526.18109 : 1"
       inkscape:vp_y="0 : 1000 : 0"
       inkscape:vp_x="0 : 526.18109 : 1"
       sodipodi:type="inkscape:persp3d" />
    <inkscape:perspective
       id="perspective3401"
       inkscape:persp3d-origin="372.04724 : 350.78739 : 1"
       inkscape:vp_z="744.09448 : 526.18109 : 1"
       inkscape:vp_y="0 : 1000 : 0"
       inkscape:vp_x="0 : 526.18109 : 1"
       sodipodi:type="inkscape:persp3d" />
    <inkscape:perspective
       id="perspective3464"
       inkscape:persp3d-origin="372.04724 : 350.78739 : 1"
       inkscape:vp_z="744.09448 : 526.18109 : 1"
       inkscape:vp_y="0 : 1000 : 0"
       inkscape:vp_x="0 : 526.18109 : 1"
       sodipodi:type="inkscape:persp3d" />
    <inkscape:perspective
       id="perspective3581"
       inkscape:persp3d-origin="225 : 150 : 1"
       inkscape:vp_z="450 : 225 : 1"
       inkscape:vp_y="0 : 1000 : 0"
       inkscape:vp_x="0 : 225 : 1"
       sodipodi:type="inkscape:persp3d" />
    <inkscape:perspective
       id="perspective4312"
       inkscape:persp3d-origin="225 : 150 : 1"
       inkscape:vp_z="450 : 225 : 1"
       inkscape:vp_y="0 : 1000 : 0"
       inkscape:vp_x="0 : 225 : 1"
       sodipodi:type="inkscape:persp3d" />
  </defs>
  <path
     style="color:#000000;font-style:normal;font-variant:normal;font-weight:normal;font-stretch:normal;font-size:medium;line-height:normal;font-family:sans-serif;text-indent:0;text-align:start;text-decoration:none;text-decoration-line:none;text-decoration-style:solid;text-decoration-color:#000000;letter-spacing:normal;word-spacing:normal;text-transform:none;direction:ltr;block-progression:tb;writing-mode:lr-tb;baseline-shift:baseline;text-anchor:start;white-space:normal;clip-rule:nonzero;display:inline;overflow:visible;visibility:visible;opacity:1;isolation:auto;mix-blend-mode:normal;color-interpolation:sRGB;color-interpolation-filters:linearRGB;solid-color:#000000;solid-opacity:1;fill:#000080;fill-opacity:1;fill-rule:nonzero;stroke:none;stroke-width:20.13593864;stroke-linecap:round;stroke-linejoin:round;stroke-miterlimit:4;stroke-dasharray:none;stroke-dashoffset:0;stroke-opacity:1;color-rendering:auto;image-rendering:auto;shape-rendering:auto;text-rendering:auto;enable-background:accumulate"
     d="M 293.11914 25.011719 C 292.77717 25.019292 292.43115 25.050224 292.08398 25.103516 C 286.82693 25.910516 281.99873 36.398091 266.83203 79.966797 C 263.0482 90.836406 258.9068 99.730469 257.62891 99.730469 C 256.35105 99.730469 241.21688 91.558536 223.99805 81.570312 C 206.77925 71.582088 191.09172 63.410156 189.13477 63.410156 C 181.99432 63.410156 183.10307 71.178496 195.19141 105.84766 C 201.97282 125.29663 207.51953 142.0597 207.51953 143.09961 C 207.51953 144.91067 168.72908 153.51216 143.35352 157.32812 C 133.50491 158.80917 131.10761 160.12162 130.49805 164.36328 C 129.91687 168.40749 132.36032 171.05192 141.39258 176.14844 C 147.79764 179.76253 158.74357 186.38424 165.71484 190.86328 C 172.68609 195.34231 178.88779 199.00781 179.49805 199.00781 C 180.10829 199.00781 184.40357 201.24707 189.04297 203.98438 L 197.47852 208.96094 L 172.23242 240.2793 C 158.34681 257.50394 146.98633 272.63272 146.98633 273.90039 C 146.98633 278.41817 151.97213 279.13089 165.72656 276.58008 C 189.67573 272.13863 229.80068 266.48622 230.73633 267.42188 C 231.22782 267.91337 231.79236 286.49987 231.99023 308.72461 C 232.34368 348.42589 232.44101 349.13281 237.58789 349.13281 C 241.35525 349.13281 249.45984 340.97236 266.44531 320.07617 C 279.4356 304.09501 291.04864 291.01953 292.25195 291.01953 C 293.45526 291.01953 305.4488 304.09501 318.9043 320.07617 C 352.7668 360.29482 352.80273 360.28113 352.80273 307.96875 C 352.80273 274.57193 353.4338 266.80664 356.14648 266.80664 C 357.98542 266.80664 373.9146 268.98491 391.54492 271.64844 C 428.15073 277.17872 437.55273 277.615 437.55273 273.7832 C 437.55273 272.29373 426.65552 257.6599 413.33789 241.26367 C 400.02026 224.86741 389.125 210.52773 389.125 209.39844 C 389.125 208.26915 403.79512 198.65971 421.72656 188.04297 C 447.57661 172.73781 454.34771 167.64155 454.41602 163.43945 C 454.48931 158.92964 452.78722 157.90982 443 156.59961 C 417.79565 153.22548 375.83235 143.98181 376.25391 141.89648 C 376.50005 140.67891 382.45163 123.00123 389.47852 102.61133 C 399.79932 72.663433 401.61634 65.143139 398.93555 63.486328 C 394.4317 60.702798 392.30224 61.667366 358.01953 82 C 341.57734 91.751655 327.22829 99.730469 326.13477 99.730469 C 325.04124 99.730469 322.46157 95.099446 320.40039 89.439453 C 313.56956 70.682173 299.24734 30.771705 298.18164 27.523438 C 297.67694 25.985103 295.51291 24.958706 293.11914 25.011719 z M 292.24805 85.201172 C 293.0818 85.201172 296.78747 94.163245 300.48438 105.11523 C 308.10784 127.69965 310.90145 133.62891 313.91797 133.62891 C 315.07769 133.62891 325.46578 128.07495 337.00195 121.28516 C 348.53809 114.49535 358.45184 109.41277 359.03125 109.99219 C 359.61066 110.5716 356.81229 120.10903 352.8125 131.18555 C 342.5539 159.59433 342.85578 161.95971 357.04102 164.23633 C 363.36689 165.25159 369.08803 166.2324 369.75391 166.41797 C 370.41979 166.60352 376.66445 167.61155 383.63086 168.6582 C 390.59724 169.70482 395.82166 171.33 395.24219 172.26758 C 394.66273 173.20519 385.33474 179.20079 374.51172 185.5918 C 363.68872 191.98284 354.26532 198.69003 353.57227 200.49609 C 352.87919 202.30216 358.96035 212.10767 367.08594 222.28711 C 375.21154 232.46653 381.85938 241.64055 381.85938 242.67383 C 381.85938 244.78039 365.71432 243.26891 352.80273 239.95312 C 348.14156 238.75612 341.35378 237.77107 337.7168 237.76367 C 329.68949 237.74727 328.81926 240.6079 327.98438 269.7793 L 327.37891 290.91406 L 311.64062 271.61523 C 302.98417 261.00083 294.25434 252.3075 292.24219 252.29688 C 290.23002 252.28626 281.59352 260.99434 273.04883 271.64844 C 264.50414 282.30255 257.2866 291.01953 257.01172 291.01953 C 255.10512 291.01953 253.58861 276.91171 253.56055 258.93555 L 253.52734 237.75 L 246.86719 237.76367 C 243.20484 237.77107 236.39554 238.76379 231.73438 239.9707 C 227.07321 241.1776 218.01817 242.88269 211.61133 243.75977 L 199.96094 245.35352 L 208.7207 233.68164 C 213.53764 227.26203 220.62181 217.84875 224.46484 212.76172 C 228.3079 207.6747 230.9437 202.22609 230.32227 200.6543 C 229.3094 198.09232 220.73733 192.6132 196.12305 178.79492 C 191.74051 176.3346 188.67418 173.48155 189.30859 172.45508 C 189.94299 171.42858 195.6618 169.81616 202.01758 168.87109 C 233.2245 164.23082 238.99805 162.64954 238.99805 158.75 C 238.99805 156.7061 235.72967 145.77263 231.73438 134.45312 C 227.73909 123.13362 224.4707 112.76626 224.4707 111.41406 C 224.4707 110.06186 229.10173 111.6602 234.76172 114.9668 C 259.86202 129.63051 268.62681 133.92321 271.27344 132.8457 C 272.83233 132.21103 277.84858 121.2321 282.41992 108.44727 C 286.99123 95.662411 291.41431 85.201172 292.24805 85.201172 z M 207.05859 362.93359 A 10.068976 10.068976 0 0 0 196.99023 373 L 196.99023 541.92188 A 10.068976 10.068976 0 0 0 207.05859 551.98828 L 375.98047 551.98828 A 10.068976 10.068976 0 0 0 386.04688 541.92188 L 386.04688 373 A 10.068976 10.068976 0 0 0 375.98047 362.93359 L 207.05859 362.93359 z "
     id="path4148" />
</svg>
