<?xml version="1.0" encoding="UTF-8" standalone="no"?>
<!-- Created with Inkscape (http://www.inkscape.org/) -->

<svg
   xmlns:dc="http://purl.org/dc/elements/1.1/"
   xmlns:cc="http://creativecommons.org/ns#"
   xmlns:rdf="http://www.w3.org/1999/02/22-rdf-syntax-ns#"
   xmlns:svg="http://www.w3.org/2000/svg"
   xmlns="http://www.w3.org/2000/svg"
   xmlns:sodipodi="http://sodipodi.sourceforge.net/DTD/sodipodi-0.dtd"
   xmlns:inkscape="http://www.inkscape.org/namespaces/inkscape"
   version="1.0"
   width="580"
   height="580"
   id="svg2"
   sodipodi:version="0.32"
   inkscape:version="0.91 r13725"
   sodipodi:docname="islamic.svg"
   inkscape:output_extension="org.inkscape.output.svg.inkscape">
  <metadata
     id="metadata2975">
    <rdf:RDF>
      <cc:Work
         rdf:about="">
        <dc:format>image/svg+xml</dc:format>
        <dc:type
           rdf:resource="http://purl.org/dc/dcmitype/StillImage" />
        <cc:license
           rdf:resource="http://web.resource.org/cc/PublicDomain" />
        <dc:language>en</dc:language>
      </cc:Work>
    </rdf:RDF>
  </metadata>
  <sodipodi:namedview
     inkscape:window-height="972"
     inkscape:window-width="1280"
     inkscape:pageshadow="2"
     inkscape:pageopacity="0.0"
     guidetolerance="10.0"
     gridtolerance="10.0"
     objecttolerance="10.0"
     borderopacity="1.0"
     bordercolor="#666666"
     pagecolor="#ffffff"
     id="base"
     inkscape:zoom="0.65172414"
     inkscape:cx="100.08781"
     inkscape:cy="139.88191"
     inkscape:window-x="-8"
     inkscape:window-y="-8"
     inkscape:current-layer="svg2"
     showgrid="false"
     inkscape:window-maximized="1" />
  <defs
     id="defs4">
    <inkscape:perspective
       sodipodi:type="inkscape:persp3d"
       inkscape:vp_x="0 : 290 : 1"
       inkscape:vp_y="0 : 1000 : 0"
       inkscape:vp_z="580 : 290 : 1"
       inkscape:persp3d-origin="290 : 193.33333 : 1"
       id="perspective2441" />
    <inkscape:perspective
       id="perspective2466"
       inkscape:persp3d-origin="372.04724 : 350.78739 : 1"
       inkscape:vp_z="744.09448 : 526.18109 : 1"
       inkscape:vp_y="0 : 1000 : 0"
       inkscape:vp_x="0 : 526.18109 : 1"
       sodipodi:type="inkscape:persp3d" />
    <inkscape:perspective
       id="perspective3333"
       inkscape:persp3d-origin="372.04724 : 350.78739 : 1"
       inkscape:vp_z="744.09448 : 526.18109 : 1"
       inkscape:vp_y="0 : 1000 : 0"
       inkscape:vp_x="0 : 526.18109 : 1"
       sodipodi:type="inkscape:persp3d" />
    <inkscape:perspective
       id="perspective3401"
       inkscape:persp3d-origin="372.04724 : 350.78739 : 1"
       inkscape:vp_z="744.09448 : 526.18109 : 1"
       inkscape:vp_y="0 : 1000 : 0"
       inkscape:vp_x="0 : 526.18109 : 1"
       sodipodi:type="inkscape:persp3d" />
    <inkscape:perspective
       id="perspective3464"
       inkscape:persp3d-origin="372.04724 : 350.78739 : 1"
       inkscape:vp_z="744.09448 : 526.18109 : 1"
       inkscape:vp_y="0 : 1000 : 0"
       inkscape:vp_x="0 : 526.18109 : 1"
       sodipodi:type="inkscape:persp3d" />
    <inkscape:perspective
       id="perspective3581"
       inkscape:persp3d-origin="225 : 150 : 1"
       inkscape:vp_z="450 : 225 : 1"
       inkscape:vp_y="0 : 1000 : 0"
       inkscape:vp_x="0 : 225 : 1"
       sodipodi:type="inkscape:persp3d" />
    <inkscape:perspective
       id="perspective4312"
       inkscape:persp3d-origin="225 : 150 : 1"
       inkscape:vp_z="450 : 225 : 1"
       inkscape:vp_y="0 : 1000 : 0"
       inkscape:vp_x="0 : 225 : 1"
       sodipodi:type="inkscape:persp3d" />
  </defs>
  <path
     style="color:#000000;font-style:normal;font-variant:normal;font-weight:normal;font-stretch:normal;font-size:medium;line-height:normal;font-family:sans-serif;text-indent:0;text-align:start;text-decoration:none;text-decoration-line:none;text-decoration-style:solid;text-decoration-color:#000000;letter-spacing:normal;word-spacing:normal;text-transform:none;direction:ltr;block-progression:tb;writing-mode:lr-tb;baseline-shift:baseline;text-anchor:start;white-space:normal;clip-rule:nonzero;display:inline;overflow:visible;visibility:visible;opacity:1;isolation:auto;mix-blend-mode:normal;color-interpolation:sRGB;color-interpolation-filters:linearRGB;solid-color:#000000;solid-opacity:1;fill:#000080;fill-opacity:1;fill-rule:nonzero;stroke:none;stroke-width:20.13593864;stroke-linecap:round;stroke-linejoin:round;stroke-miterlimit:4;stroke-dasharray:none;stroke-dashoffset:0;stroke-opacity:1;color-rendering:auto;image-rendering:auto;shape-rendering:auto;text-rendering:auto;enable-background:accumulate"
     d="M 298.27148 29.292969 C 280.29148 29.292969 249.4204 35.006974 235.36328 40.960938 C 196.89422 57.254708 162.07572 94.70516 148.28516 134.61719 C 143.24579 149.2018 140.36635 162.97718 140.17969 184.36719 C 139.9884 205.75211 143.24335 221.66615 148.28516 236.25781 C 162.75237 278.1282 201.43378 317.78383 241.60352 331.90234 C 249.43134 334.65362 260.44572 337.81808 266.17383 338.95703 C 294.06107 344.50188 332.80634 339.76503 359.46875 327.55859 C 368.47749 323.43424 376.05449 319.18974 381.06641 315.62305 C 383.57237 313.8397 385.43521 312.23407 386.53711 310.84961 C 387.08806 310.15738 387.45785 309.52017 387.59375 308.89258 C 387.72965 308.26499 387.57124 307.61078 387.11328 307.16992 C 386.78017 306.84925 386.38901 306.79813 385.85352 306.73242 C 385.31802 306.66671 384.63999 306.64557 383.81836 306.66016 C 382.1751 306.68933 379.96541 306.86435 377.33398 307.16797 C 372.07113 307.7752 365.12219 308.89343 357.74023 310.37695 C 334.91731 314.96361 328.67401 315.3406 314.79297 312.96289 C 270.15451 305.31664 229.68237 270.59515 213.71875 226.22266 C 206.04282 204.88668 206.07141 165.91988 213.78125 144.44336 C 230.19831 98.71194 271.29732 64.292991 316.92969 58.023438 C 332.82161 55.839987 339.5248 56.230589 360.09766 60.541016 C 372.96841 63.2377 380.58708 64.547143 384.50781 64.375 C 385.48799 64.331964 386.24385 64.201479 386.82617 63.929688 C 387.4085 63.657896 387.82733 63.17571 387.91406 62.597656 C 388.0008 62.019602 387.81161 61.426163 387.46875 60.779297 C 387.12589 60.13243 386.61246 59.420652 385.94727 58.619141 C 383.3009 55.430466 378.19627 52.070096 371.58594 48.746094 C 364.9756 45.422091 356.86091 42.157748 348.23438 39.277344 C 330.98129 33.516534 311.69646 29.292969 298.27148 29.292969 z M 388.0918 123.58398 C 387.87644 123.57263 387.65753 123.59363 387.4375 123.65625 C 381.9531 127.60512 380.89728 135.34418 378 141.125 C 375.36376 148.34765 372.91789 155.65438 370.34375 162.90625 C 356.47025 164.08839 341.77081 162.26619 328.4375 166.59375 C 325.07115 170.56663 331.93173 173.67364 334.1875 176.25 C 342.68511 183.22024 351.94092 189.14692 360.53125 196.03125 C 356.87709 209.35922 350.13773 222.26102 349.375 236.15625 C 351.66797 242.32246 358.67449 237.27052 361.88281 234.83594 C 370.64664 229.05021 378.84257 221.46546 388.28125 217.15625 C 400.34968 223.6092 410.60543 233.44285 422.65625 240.09375 C 428.04045 240.24825 426.48082 232.65466 425.84375 229.21875 C 423.85538 218.16155 418.32773 207.39487 416.53125 196.625 C 426.43346 186.43615 439.58583 180.04072 449.03125 169.40625 C 449.63724 164.0692 441.80016 165.35879 438.40625 164.53125 C 427.54631 163.83454 416.65515 164.28453 405.78125 164.15625 C 400.63022 150.87404 398.27873 135.95555 389.84375 124.34375 C 389.34945 123.94674 388.73786 123.61805 388.0918 123.58398 z M 207.05859 362.93359 A 10.068976 10.068976 0 0 0 196.99023 373 L 196.99023 541.92188 A 10.068976 10.068976 0 0 0 207.05859 551.98828 L 375.98047 551.98828 A 10.068976 10.068976 0 0 0 386.04688 541.92188 L 386.04688 373 A 10.068976 10.068976 0 0 0 375.98047 362.93359 L 207.05859 362.93359 z "
     id="path4165" />
</svg>
