<?xml version="1.0" encoding="UTF-8" standalone="no"?>
<!-- Created with Inkscape (http://www.inkscape.org/) -->

<svg
   xmlns:dc="http://purl.org/dc/elements/1.1/"
   xmlns:cc="http://creativecommons.org/ns#"
   xmlns:rdf="http://www.w3.org/1999/02/22-rdf-syntax-ns#"
   xmlns:svg="http://www.w3.org/2000/svg"
   xmlns="http://www.w3.org/2000/svg"
   xmlns:sodipodi="http://sodipodi.sourceforge.net/DTD/sodipodi-0.dtd"
   xmlns:inkscape="http://www.inkscape.org/namespaces/inkscape"
   version="1.0"
   width="580"
   height="580"
   id="svg2"
   sodipodi:version="0.32"
   inkscape:version="0.91 r13725"
   sodipodi:docname="hindu3.svg"
   inkscape:output_extension="org.inkscape.output.svg.inkscape">
  <metadata
     id="metadata2975">
    <rdf:RDF>
      <cc:Work
         rdf:about="">
        <dc:format>image/svg+xml</dc:format>
        <dc:type
           rdf:resource="http://purl.org/dc/dcmitype/StillImage" />
        <cc:license
           rdf:resource="http://web.resource.org/cc/PublicDomain" />
        <dc:language>en</dc:language>
      </cc:Work>
    </rdf:RDF>
  </metadata>
  <sodipodi:namedview
     inkscape:window-height="972"
     inkscape:window-width="1280"
     inkscape:pageshadow="2"
     inkscape:pageopacity="0.0"
     guidetolerance="10.0"
     gridtolerance="10.0"
     objecttolerance="10.0"
     borderopacity="1.0"
     bordercolor="#666666"
     pagecolor="#ffffff"
     id="base"
     inkscape:zoom="0.65172414"
     inkscape:cx="98.553417"
     inkscape:cy="110.72847"
     inkscape:window-x="-8"
     inkscape:window-y="-8"
     inkscape:current-layer="svg2"
     showgrid="false"
     inkscape:window-maximized="1" />
  <defs
     id="defs4">
    <inkscape:perspective
       sodipodi:type="inkscape:persp3d"
       inkscape:vp_x="0 : 290 : 1"
       inkscape:vp_y="0 : 1000 : 0"
       inkscape:vp_z="580 : 290 : 1"
       inkscape:persp3d-origin="290 : 193.33333 : 1"
       id="perspective2441" />
    <inkscape:perspective
       id="perspective2466"
       inkscape:persp3d-origin="372.04724 : 350.78739 : 1"
       inkscape:vp_z="744.09448 : 526.18109 : 1"
       inkscape:vp_y="0 : 1000 : 0"
       inkscape:vp_x="0 : 526.18109 : 1"
       sodipodi:type="inkscape:persp3d" />
    <inkscape:perspective
       id="perspective3333"
       inkscape:persp3d-origin="372.04724 : 350.78739 : 1"
       inkscape:vp_z="744.09448 : 526.18109 : 1"
       inkscape:vp_y="0 : 1000 : 0"
       inkscape:vp_x="0 : 526.18109 : 1"
       sodipodi:type="inkscape:persp3d" />
    <inkscape:perspective
       id="perspective3401"
       inkscape:persp3d-origin="372.04724 : 350.78739 : 1"
       inkscape:vp_z="744.09448 : 526.18109 : 1"
       inkscape:vp_y="0 : 1000 : 0"
       inkscape:vp_x="0 : 526.18109 : 1"
       sodipodi:type="inkscape:persp3d" />
    <inkscape:perspective
       id="perspective3464"
       inkscape:persp3d-origin="372.04724 : 350.78739 : 1"
       inkscape:vp_z="744.09448 : 526.18109 : 1"
       inkscape:vp_y="0 : 1000 : 0"
       inkscape:vp_x="0 : 526.18109 : 1"
       sodipodi:type="inkscape:persp3d" />
    <inkscape:perspective
       id="perspective3581"
       inkscape:persp3d-origin="225 : 150 : 1"
       inkscape:vp_z="450 : 225 : 1"
       inkscape:vp_y="0 : 1000 : 0"
       inkscape:vp_x="0 : 225 : 1"
       sodipodi:type="inkscape:persp3d" />
    <inkscape:perspective
       id="perspective4312"
       inkscape:persp3d-origin="225 : 150 : 1"
       inkscape:vp_z="450 : 225 : 1"
       inkscape:vp_y="0 : 1000 : 0"
       inkscape:vp_x="0 : 225 : 1"
       sodipodi:type="inkscape:persp3d" />
  </defs>
  <path
     style="opacity:1;fill:#000080"
     d="M 203.55264,549.39176 C 172.63196,541.32292 145.90208,525.17009 120.76706,499.36452 80.73104,458.2604 58.863878,414.27053 45.914959,348.78542 38.529416,311.43533 38.516864,310.52626 45.318236,305.55295 59.250932,295.36511 64.757831,299.03651 69.431621,321.62917 93.789271,439.37128 170.09349,515.91323 244.32313,497.06557 266.46156,491.44439 287.58188,470.19128 293.93531,447.14142 302.12747,417.42069 287.69552,366.06196 262.60898,335.66088 L 253.69373,324.85698 238.62331,340.38599 C 222.68609,356.80822 203.04532,370.34401 195.12021,370.36692 190.35499,370.38071 168.59871,326.37564 168.59871,316.7236 168.59871,313.89694 178.94691,306.85319 191.59472,301.0709 227.08835,284.84398 242.1859,266.56676 242.1859,239.82482 242.1859,222.42146 239.11786,216.35268 227.20531,210.19246 211.86648,202.26044 186.32631,203.61701 155.37237,214.00791 140.30154,219.06706 127.1086,223.20633 126.05475,223.20633 123.34221,223.20633 102.37026,175.74572 102.37026,169.60713 102.37026,159.07632 125.11555,151.87901 163.07969,150.39679 197.89904,149.03735 200.95547,149.52928 220.04248,159.56517 244.03054,172.17803 261.86445,194.01661 269.68675,220.35716 276.06665,241.84056 276.98484,269.80714 271.76136,283.54593 266.19819,298.17811 273.27353,298.29181 292.16219,283.87376 312.80059,268.12014 326.76106,261.94645 349.43501,258.54628 365.78402,256.09461 366.59072,255.38128 371.05768,239.42682 381.71962,201.34616 409.95989,178.86773 447.81396,178.33099 476.07196,177.93031 491.95869,183.74031 508.26392,200.43838 529.78888,222.48193 537.49778,249.0922 539.37551,307.83158 541.70624,380.74264 531.91422,420.1514 503.39672,452.63109 478.81539,480.62766 440.14747,490.97519 409.97823,477.62991 384.51757,466.36745 377.80144,448.89177 374.87911,386.30093 373.00185,346.09316 371.43749,336.53 365.70051,330.19073 356.82347,320.38168 351.37158,320.60797 327.36874,331.78188 L 307.6899,340.94291 315.58683,352.90229 C 366.88956,430.59666 356.26611,515.19852 291.61635,543.79618 271.25641,552.80233 227.32049,555.59405 203.55264,549.39176 Z M 469.46239,418.20642 C 495.98763,402.03392 513.55204,356.57566 509.69802,314.07298 507.17891,286.29162 491.00605,253.54477 474.36125,242.52296 451.82694,227.60124 420.87348,232.5132 400.5835,254.23057 L 391.57033,263.87785 398.64224,275.73647 C 404.52672,285.60391 405.9103,296.24436 406.88221,339.10614 408.24688,399.28782 408.80744,402.83968 418.98222,415.77485 428.68094,428.10476 451.43037,429.20056 469.46239,418.20642 Z M 286.35803,169.23747 C 277.26253,166.05528 262.92275,158.70571 254.49193,152.90512 237.65781,141.32297 205.39231,106.2375 205.39231,99.514316 205.39231,97.18274 209.63071,92.497988 214.81096,89.103748 224.03079,83.062682 224.54425,83.216629 239.13314,96.396831 258.46582,113.86274 276.28296,121.14087 299.83548,121.19325 320.938,121.24016 346.35166,109.00955 359.26595,92.591674 363.2466,87.531117 367.7424,83.390701 369.25666,83.390701 372.18552,83.390701 411.33076,115.59913 416.11069,121.94187 420.71868,128.05645 382.55098,159.92291 360.93052,168.0122 337.54847,176.76053 309.19222,177.22644 286.35803,169.23747 Z M 287.65192,86.95003 C 277.82294,76.600253 269.31955,66.869386 268.75546,65.325853 268.19135,63.782332 276.2073,54.589707 286.56872,44.897833 L 305.40762,27.276244 325.00304,46.628274 C 335.78054,57.271885 343.71126,67.828012 342.62684,70.086287 341.54245,72.344598 332.75041,81.296771 323.089,89.980066 L 305.52278,105.76777 287.65192,86.95003 Z"
     id="path3603"
     sodipodi:nodetypes="csssssscccsssssssssssssssssssssscccsccsscccssccsssssssssccscccsccc"
     inkscape:connector-curvature="0" />
</svg>
