<?xml version="1.0" encoding="UTF-8" standalone="no"?>
<!-- Created with Inkscape (http://www.inkscape.org/) -->

<svg
   xmlns:dc="http://purl.org/dc/elements/1.1/"
   xmlns:cc="http://creativecommons.org/ns#"
   xmlns:rdf="http://www.w3.org/1999/02/22-rdf-syntax-ns#"
   xmlns:svg="http://www.w3.org/2000/svg"
   xmlns="http://www.w3.org/2000/svg"
   xmlns:sodipodi="http://sodipodi.sourceforge.net/DTD/sodipodi-0.dtd"
   xmlns:inkscape="http://www.inkscape.org/namespaces/inkscape"
   version="1.0"
   width="580"
   height="580"
   id="svg2"
   sodipodi:version="0.32"
   inkscape:version="0.91 r13725"
   sodipodi:docname="jewish.svg"
   inkscape:output_extension="org.inkscape.output.svg.inkscape">
  <metadata
     id="metadata2975">
    <rdf:RDF>
      <cc:Work
         rdf:about="">
        <dc:format>image/svg+xml</dc:format>
        <dc:type
           rdf:resource="http://purl.org/dc/dcmitype/StillImage" />
        <cc:license
           rdf:resource="http://web.resource.org/cc/PublicDomain" />
        <dc:language>en</dc:language>
      </cc:Work>
    </rdf:RDF>
  </metadata>
  <sodipodi:namedview
     inkscape:window-height="972"
     inkscape:window-width="1280"
     inkscape:pageshadow="2"
     inkscape:pageopacity="0.0"
     guidetolerance="10.0"
     gridtolerance="10.0"
     objecttolerance="10.0"
     borderopacity="1.0"
     bordercolor="#666666"
     pagecolor="#ffffff"
     id="base"
     inkscape:zoom="1.3034483"
     inkscape:cx="195.23413"
     inkscape:cy="268.06428"
     inkscape:window-x="-8"
     inkscape:window-y="-8"
     inkscape:current-layer="svg2"
     showgrid="false"
     inkscape:window-maximized="1" />
  <defs
     id="defs4">
    <inkscape:perspective
       sodipodi:type="inkscape:persp3d"
       inkscape:vp_x="0 : 290 : 1"
       inkscape:vp_y="0 : 1000 : 0"
       inkscape:vp_z="580 : 290 : 1"
       inkscape:persp3d-origin="290 : 193.33333 : 1"
       id="perspective2441" />
    <inkscape:perspective
       id="perspective2466"
       inkscape:persp3d-origin="372.04724 : 350.78739 : 1"
       inkscape:vp_z="744.09448 : 526.18109 : 1"
       inkscape:vp_y="0 : 1000 : 0"
       inkscape:vp_x="0 : 526.18109 : 1"
       sodipodi:type="inkscape:persp3d" />
    <inkscape:perspective
       id="perspective3333"
       inkscape:persp3d-origin="372.04724 : 350.78739 : 1"
       inkscape:vp_z="744.09448 : 526.18109 : 1"
       inkscape:vp_y="0 : 1000 : 0"
       inkscape:vp_x="0 : 526.18109 : 1"
       sodipodi:type="inkscape:persp3d" />
    <inkscape:perspective
       id="perspective3401"
       inkscape:persp3d-origin="372.04724 : 350.78739 : 1"
       inkscape:vp_z="744.09448 : 526.18109 : 1"
       inkscape:vp_y="0 : 1000 : 0"
       inkscape:vp_x="0 : 526.18109 : 1"
       sodipodi:type="inkscape:persp3d" />
    <inkscape:perspective
       id="perspective3464"
       inkscape:persp3d-origin="372.04724 : 350.78739 : 1"
       inkscape:vp_z="744.09448 : 526.18109 : 1"
       inkscape:vp_y="0 : 1000 : 0"
       inkscape:vp_x="0 : 526.18109 : 1"
       sodipodi:type="inkscape:persp3d" />
    <inkscape:perspective
       id="perspective3581"
       inkscape:persp3d-origin="225 : 150 : 1"
       inkscape:vp_z="450 : 225 : 1"
       inkscape:vp_y="0 : 1000 : 0"
       inkscape:vp_x="0 : 225 : 1"
       sodipodi:type="inkscape:persp3d" />
  </defs>
  <path
     style="color:#000000;font-style:normal;font-variant:normal;font-weight:normal;font-stretch:normal;font-size:medium;line-height:normal;font-family:sans-serif;text-indent:0;text-align:start;text-decoration:none;text-decoration-line:none;text-decoration-style:solid;text-decoration-color:#000000;letter-spacing:normal;word-spacing:normal;text-transform:none;direction:ltr;block-progression:tb;writing-mode:lr-tb;baseline-shift:baseline;text-anchor:start;white-space:normal;clip-rule:nonzero;display:inline;overflow:visible;visibility:visible;opacity:1;isolation:auto;mix-blend-mode:normal;color-interpolation:sRGB;color-interpolation-filters:linearRGB;solid-color:#000000;solid-opacity:1;fill:#000080;fill-opacity:1;fill-rule:nonzero;stroke:none;stroke-width:20.13593864;stroke-linecap:round;stroke-linejoin:round;stroke-miterlimit:4;stroke-dasharray:none;stroke-dashoffset:0;stroke-opacity:1;color-rendering:auto;image-rendering:auto;shape-rendering:auto;text-rendering:auto;enable-background:accumulate"
     d="M 292.64648 16.673828 C 291.67243 16.673828 280.21575 35.236613 267.1875 57.925781 L 243.5 99.179688 L 195.36719 99.183594 C 160.51419 99.186054 147.23438 99.987101 147.23438 102.08789 C 147.23438 103.68356 156.73324 121.40481 168.3418 141.46875 C 179.95039 161.53266 190.2021 179.92878 191.12305 182.34961 C 192.265 185.35145 185.49507 199.4477 169.83398 226.67578 C 157.20407 248.6339 147.58201 267.74992 148.45117 269.15625 C 149.436 270.74974 167.6404 271.72105 196.76562 271.73438 L 243.5 271.75586 L 267.25391 312.96875 C 280.31843 335.63624 291.77512 354.1933 292.71289 354.20508 C 295.30944 354.23763 302.09444 343.69601 323.68164 306.09375 L 343.41992 271.71289 L 391.59961 271.71289 C 425.26818 271.71289 439.78125 270.87718 439.78125 268.93555 C 439.78125 267.40737 429.27906 247.96335 416.44336 225.72656 L 393.10547 185.29492 L 416.33398 145.36719 C 429.10952 123.4063 439.61171 104.03151 439.67188 102.3125 C 439.7557 99.91644 428.5355 99.185547 391.59961 99.185547 L 343.41992 99.185547 L 323.68164 64.806641 C 301.98797 27.01894 295.3179 16.673828 292.64648 16.673828 z M 293.50781 69.181641 C 294.67004 69.181641 309.75977 95.581921 309.75977 97.615234 C 309.75977 98.479244 302.4467 99.185547 293.50781 99.185547 C 284.56891 99.185547 277.25586 98.479244 277.25586 97.615234 C 277.25586 95.581921 292.34557 69.181641 293.50781 69.181641 z M 192.04688 126.69141 L 209.58008 126.69141 L 227.11523 126.69141 L 219.05469 141.65234 C 214.6219 149.88072 210.43175 156.61843 209.74414 156.625 C 209.05653 156.63158 204.79288 149.89902 200.26953 141.66406 L 192.04688 126.69141 z M 359.57227 126.69141 L 377.10547 126.69141 L 394.64062 126.69141 L 386.58008 141.65234 C 382.14729 149.88072 377.95909 156.61843 377.27148 156.625 C 376.58387 156.63158 372.32022 149.89902 367.79688 141.66406 L 359.57227 126.69141 z M 258.85156 127.94141 L 293.61914 127.94141 L 328.38672 127.94141 L 344.58594 156.46875 L 360.7832 184.99805 L 353.72266 197.72461 C 349.83953 204.72514 342.24696 218.04933 336.85156 227.33203 L 327.04297 244.20898 L 293.70312 244.20898 C 269.99786 244.20898 259.66129 243.30633 257.92969 241.08398 C 253.17188 234.9777 227.24805 187.58892 227.24805 184.99805 C 227.24805 183.54912 234.35787 170.11839 243.04883 155.15234 L 258.85156 127.94141 z M 209.74414 214.26367 C 210.43175 214.26367 214.6954 221.00135 219.21875 229.23633 L 227.44336 244.20898 L 209.74414 244.20898 L 192.04688 244.20898 L 200.26953 229.23633 C 204.79288 221.00135 209.05653 214.26367 209.74414 214.26367 z M 377.27148 214.26367 C 377.95909 214.26367 382.22274 221.00135 386.74609 229.23633 L 394.96875 244.20898 L 377.27148 244.20898 L 359.57227 244.20898 L 367.79688 229.23633 C 372.32022 221.00135 376.58387 214.26367 377.27148 214.26367 z M 293.50781 271.71289 C 302.4467 271.71289 309.75977 272.41919 309.75977 273.2832 C 309.75977 274.14722 306.30273 280.89983 302.07617 288.28711 C 297.8496 295.67438 293.99355 301.71875 293.50781 301.71875 C 292.34557 301.71875 277.25586 275.31652 277.25586 273.2832 C 277.25586 272.41919 284.56891 271.71289 293.50781 271.71289 z M 207.05859 362.93359 A 10.068976 10.068976 0 0 0 196.99023 373 L 196.99023 541.92188 A 10.068976 10.068976 0 0 0 207.05859 551.98828 L 375.98047 551.98828 A 10.068976 10.068976 0 0 0 386.04688 541.92188 L 386.04688 373 A 10.068976 10.068976 0 0 0 375.98047 362.93359 L 207.05859 362.93359 z "
     id="path4147" />
</svg>
