<?xml version="1.0" encoding="UTF-8" standalone="no"?>
<!-- Created with Inkscape (http://www.inkscape.org/) -->

<svg
   xmlns:dc="http://purl.org/dc/elements/1.1/"
   xmlns:cc="http://creativecommons.org/ns#"
   xmlns:rdf="http://www.w3.org/1999/02/22-rdf-syntax-ns#"
   xmlns:svg="http://www.w3.org/2000/svg"
   xmlns="http://www.w3.org/2000/svg"
   xmlns:sodipodi="http://sodipodi.sourceforge.net/DTD/sodipodi-0.dtd"
   xmlns:inkscape="http://www.inkscape.org/namespaces/inkscape"
   version="1.0"
   width="580"
   height="580"
   id="svg2"
   sodipodi:version="0.32"
   inkscape:version="0.91 r13725"
   sodipodi:docname="shinto3.svg"
   inkscape:output_extension="org.inkscape.output.svg.inkscape">
  <metadata
     id="metadata2975">
    <rdf:RDF>
      <cc:Work
         rdf:about="">
        <dc:format>image/svg+xml</dc:format>
        <dc:type
           rdf:resource="http://purl.org/dc/dcmitype/StillImage" />
        <cc:license
           rdf:resource="http://web.resource.org/cc/PublicDomain" />
        <dc:language>en</dc:language>
      </cc:Work>
    </rdf:RDF>
  </metadata>
  <sodipodi:namedview
     inkscape:window-height="972"
     inkscape:window-width="1280"
     inkscape:pageshadow="2"
     inkscape:pageopacity="0.0"
     guidetolerance="10.0"
     gridtolerance="10.0"
     objecttolerance="10.0"
     borderopacity="1.0"
     bordercolor="#666666"
     pagecolor="#ffffff"
     id="base"
     inkscape:zoom="0.65172414"
     inkscape:cx="149.18834"
     inkscape:cy="66.231114"
     inkscape:window-x="-8"
     inkscape:window-y="-8"
     inkscape:current-layer="svg2"
     showgrid="false"
     inkscape:window-maximized="1" />
  <defs
     id="defs4">
    <inkscape:perspective
       sodipodi:type="inkscape:persp3d"
       inkscape:vp_x="0 : 290 : 1"
       inkscape:vp_y="0 : 1000 : 0"
       inkscape:vp_z="580 : 290 : 1"
       inkscape:persp3d-origin="290 : 193.33333 : 1"
       id="perspective2441" />
    <inkscape:perspective
       id="perspective2466"
       inkscape:persp3d-origin="372.04724 : 350.78739 : 1"
       inkscape:vp_z="744.09448 : 526.18109 : 1"
       inkscape:vp_y="0 : 1000 : 0"
       inkscape:vp_x="0 : 526.18109 : 1"
       sodipodi:type="inkscape:persp3d" />
    <inkscape:perspective
       id="perspective3333"
       inkscape:persp3d-origin="372.04724 : 350.78739 : 1"
       inkscape:vp_z="744.09448 : 526.18109 : 1"
       inkscape:vp_y="0 : 1000 : 0"
       inkscape:vp_x="0 : 526.18109 : 1"
       sodipodi:type="inkscape:persp3d" />
    <inkscape:perspective
       id="perspective3401"
       inkscape:persp3d-origin="372.04724 : 350.78739 : 1"
       inkscape:vp_z="744.09448 : 526.18109 : 1"
       inkscape:vp_y="0 : 1000 : 0"
       inkscape:vp_x="0 : 526.18109 : 1"
       sodipodi:type="inkscape:persp3d" />
    <inkscape:perspective
       id="perspective3464"
       inkscape:persp3d-origin="372.04724 : 350.78739 : 1"
       inkscape:vp_z="744.09448 : 526.18109 : 1"
       inkscape:vp_y="0 : 1000 : 0"
       inkscape:vp_x="0 : 526.18109 : 1"
       sodipodi:type="inkscape:persp3d" />
    <inkscape:perspective
       id="perspective3581"
       inkscape:persp3d-origin="225 : 150 : 1"
       inkscape:vp_z="450 : 225 : 1"
       inkscape:vp_y="0 : 1000 : 0"
       inkscape:vp_x="0 : 225 : 1"
       sodipodi:type="inkscape:persp3d" />
    <inkscape:perspective
       id="perspective4312"
       inkscape:persp3d-origin="225 : 150 : 1"
       inkscape:vp_z="450 : 225 : 1"
       inkscape:vp_y="0 : 1000 : 0"
       inkscape:vp_x="0 : 225 : 1"
       sodipodi:type="inkscape:persp3d" />
  </defs>
  <path
     style="fill:#000080"
     d="M 168.30831,514.45349 C 165.742,509.6583 164.6098,475.35572 165.00512,414.37458 165.51867,335.15019 164.75673,319.94812 159.79099,310.34541 152.15671,295.58237 152.20687,295.38746 164.76607,291.00933 174.89981,287.47664 175.55675,286.10303 175.55675,268.44483 L 175.55675,249.64202 140.48705,248.81382 C 121.19871,248.35831 104.29602,246.86169 102.9255,245.48796 99.638084,242.19277 98.149207,207.56621 101.09028,202.80738 102.49692,200.53146 113.7743,199.76125 130.22951,200.81726 152.76639,202.26361 158.42928,201.45665 165.51985,195.78844 179.87631,184.31199 174.5287,177.41111 149.27906,174.8303 100.74934,169.86996 100.95196,169.94335 98.412726,156.40817 97.140243,149.62533 94.51919,144.07572 92.588131,144.07572 90.65706,144.07572 82.600358,139.78963 74.684361,134.55109 63.471117,127.13048 59.416668,121.55156 56.330818,109.29651 54.152357,100.64506 47.65875,87.062941 41.900591,79.114016 36.142433,71.165103 32.392249,63.106448 33.566854,61.205885 36.818122,55.945253 52.315132,57.075722 64.692767,63.476461 78.450947,70.591076 107.12522,79.230301 122.55976,80.911096 128.95775,81.607847 152.8064,84.950981 175.55675,88.340296 209.67646,93.423423 234.2449,94.194672 315.83551,92.743731 370.2385,91.776304 422.03375,89.243981 430.93605,87.116426 439.83835,84.988826 457.431,81.620012 470.03081,79.630106 482.63062,77.6402 503.10521,71.255025 515.52986,65.440834 545.71117,51.317278 554.91698,59.327054 538.82934,85.713166 534.88019,92.190409 531.64902,101.29123 531.64902,105.93719 531.64902,114.24048 503.65433,144.07572 495.86333,144.07572 493.89735,144.07572 490.9392,149.2843 489.28959,155.65037 485.98576,168.40027 478.63807,171.89373 453.86624,172.49232 431.85383,173.02423 416.54849,176.78658 416.54849,181.66574 416.54849,184.041 420.26964,189.4803 424.81774,193.75301 432.4208,200.89571 435.10125,201.27215 458.08898,198.42573 473.45512,196.52305 484.74601,196.64836 487.38531,198.75089 491.71363,202.19896 490.05696,236.58101 485.30464,241.93153 484.06473,243.32751 467.20027,244.73762 447.82806,245.06508 L 412.60589,245.66039 413.67795,264.10825 C 414.68238,281.39176 415.48798,282.79455 426.4426,286.33545 445.329,292.44016 446.92644,296.28528 435.98044,309.29383 L 426.23203,320.87917 428.30734,413.26362 C 429.59341,470.51431 429.052,508.02578 426.88372,511.90026 422.57029,519.60791 390.81167,520.75208 384.72584,513.41913 382.24873,510.43439 379.91216,473.56074 378.40093,413.60538 377.08281,361.31116 374.45593,315.51864 372.56339,311.84425 370.27785,307.40681 370.44213,303.84385 373.05258,301.23342 375.21412,299.07185 376.98415,285.89217 376.98595,271.94522 L 376.98926,246.58713 295.1825,247.76026 C 250.18883,248.40547 212.81637,249.49277 212.13267,250.17651 211.44897,250.86021 210.00981,309.41124 208.93459,380.28995 207.85938,451.16859 205.51764,511.99278 203.73075,515.45481 198.87946,524.85402 173.4904,524.13628 168.30831,514.45349 Z M 272.67281,190.8353 272.67281,176.44774 245.87485,176.44774 C 224.68239,176.44774 218.38028,177.69253 215.7466,182.39867 213.24622,186.86659 214.77031,190.42373 221.86243,196.67256 229.35072,203.27052 235.59515,205.01911 251.99067,205.10922 L 272.67281,205.22288 272.67281,190.8353 Z M 366.15089,195.43127 C 370.13009,192.02421 373.38577,186.35909 373.38577,182.84216 373.38577,177.28257 369.8637,176.44774 346.4091,176.44774 L 319.43242,176.44774 319.43242,189.03688 319.43242,201.62598 339.1742,201.62598 C 352.65618,201.62598 361.21005,199.66172 366.15089,195.43127 Z"
     id="path6923"
     sodipodi:nodetypes="cssscccsssssssssssssssssssssssssssscccscccssssscccsssccccssccccscccccc"
     inkscape:connector-curvature="0" />
</svg>
