<?xml version="1.0" encoding="UTF-8" standalone="no"?>
<!-- Created with Inkscape (http://www.inkscape.org/) -->

<svg
   xmlns:dc="http://purl.org/dc/elements/1.1/"
   xmlns:cc="http://creativecommons.org/ns#"
   xmlns:rdf="http://www.w3.org/1999/02/22-rdf-syntax-ns#"
   xmlns:svg="http://www.w3.org/2000/svg"
   xmlns="http://www.w3.org/2000/svg"
   xmlns:sodipodi="http://sodipodi.sourceforge.net/DTD/sodipodi-0.dtd"
   xmlns:inkscape="http://www.inkscape.org/namespaces/inkscape"
   version="1.0"
   width="580"
   height="580"
   id="svg2"
   sodipodi:version="0.32"
   inkscape:version="0.91 r13725"
   sodipodi:docname="hindu.svg"
   inkscape:output_extension="org.inkscape.output.svg.inkscape">
  <metadata
     id="metadata2975">
    <rdf:RDF>
      <cc:Work
         rdf:about="">
        <dc:format>image/svg+xml</dc:format>
        <dc:type
           rdf:resource="http://purl.org/dc/dcmitype/StillImage" />
        <cc:license
           rdf:resource="http://web.resource.org/cc/PublicDomain" />
        <dc:language>en</dc:language>
      </cc:Work>
    </rdf:RDF>
  </metadata>
  <sodipodi:namedview
     inkscape:window-height="972"
     inkscape:window-width="1280"
     inkscape:pageshadow="2"
     inkscape:pageopacity="0.0"
     guidetolerance="10.0"
     gridtolerance="10.0"
     objecttolerance="10.0"
     borderopacity="1.0"
     bordercolor="#666666"
     pagecolor="#ffffff"
     id="base"
     inkscape:zoom="0.65172414"
     inkscape:cx="50.98728"
     inkscape:cy="290.25228"
     inkscape:window-x="-8"
     inkscape:window-y="-8"
     inkscape:current-layer="svg2"
     showgrid="false"
     inkscape:window-maximized="1" />
  <defs
     id="defs4">
    <inkscape:perspective
       sodipodi:type="inkscape:persp3d"
       inkscape:vp_x="0 : 290 : 1"
       inkscape:vp_y="0 : 1000 : 0"
       inkscape:vp_z="580 : 290 : 1"
       inkscape:persp3d-origin="290 : 193.33333 : 1"
       id="perspective2441" />
    <inkscape:perspective
       id="perspective2466"
       inkscape:persp3d-origin="372.04724 : 350.78739 : 1"
       inkscape:vp_z="744.09448 : 526.18109 : 1"
       inkscape:vp_y="0 : 1000 : 0"
       inkscape:vp_x="0 : 526.18109 : 1"
       sodipodi:type="inkscape:persp3d" />
    <inkscape:perspective
       id="perspective3333"
       inkscape:persp3d-origin="372.04724 : 350.78739 : 1"
       inkscape:vp_z="744.09448 : 526.18109 : 1"
       inkscape:vp_y="0 : 1000 : 0"
       inkscape:vp_x="0 : 526.18109 : 1"
       sodipodi:type="inkscape:persp3d" />
    <inkscape:perspective
       id="perspective3401"
       inkscape:persp3d-origin="372.04724 : 350.78739 : 1"
       inkscape:vp_z="744.09448 : 526.18109 : 1"
       inkscape:vp_y="0 : 1000 : 0"
       inkscape:vp_x="0 : 526.18109 : 1"
       sodipodi:type="inkscape:persp3d" />
    <inkscape:perspective
       id="perspective3464"
       inkscape:persp3d-origin="372.04724 : 350.78739 : 1"
       inkscape:vp_z="744.09448 : 526.18109 : 1"
       inkscape:vp_y="0 : 1000 : 0"
       inkscape:vp_x="0 : 526.18109 : 1"
       sodipodi:type="inkscape:persp3d" />
    <inkscape:perspective
       id="perspective3581"
       inkscape:persp3d-origin="225 : 150 : 1"
       inkscape:vp_z="450 : 225 : 1"
       inkscape:vp_y="0 : 1000 : 0"
       inkscape:vp_x="0 : 225 : 1"
       sodipodi:type="inkscape:persp3d" />
    <inkscape:perspective
       id="perspective4312"
       inkscape:persp3d-origin="225 : 150 : 1"
       inkscape:vp_z="450 : 225 : 1"
       inkscape:vp_y="0 : 1000 : 0"
       inkscape:vp_x="0 : 225 : 1"
       sodipodi:type="inkscape:persp3d" />
  </defs>
  <path
     style="color:#000000;font-style:normal;font-variant:normal;font-weight:normal;font-stretch:normal;font-size:medium;line-height:normal;font-family:sans-serif;text-indent:0;text-align:start;text-decoration:none;text-decoration-line:none;text-decoration-style:solid;text-decoration-color:#000000;letter-spacing:normal;word-spacing:normal;text-transform:none;direction:ltr;block-progression:tb;writing-mode:lr-tb;baseline-shift:baseline;text-anchor:start;white-space:normal;clip-rule:nonzero;display:inline;overflow:visible;visibility:visible;opacity:1;isolation:auto;mix-blend-mode:normal;color-interpolation:sRGB;color-interpolation-filters:linearRGB;solid-color:#000000;solid-opacity:1;fill:#000080;fill-opacity:1;fill-rule:nonzero;stroke:none;stroke-width:20.13593864;stroke-linecap:round;stroke-linejoin:round;stroke-miterlimit:4;stroke-dasharray:none;stroke-dashoffset:0;stroke-opacity:1;color-rendering:auto;image-rendering:auto;shape-rendering:auto;text-rendering:auto;enable-background:accumulate"
     d="M 298.69922 13.617188 L 286.64844 24.890625 C 280.01997 31.090776 274.89107 36.971548 275.25195 37.958984 C 275.61281 38.94642 281.05394 45.171938 287.3418 51.792969 L 298.77344 63.830078 L 310.01172 53.730469 C 316.19238 48.175537 321.81606 42.448611 322.50977 41.003906 C 323.2035 39.559223 318.13099 32.807051 311.23633 25.998047 L 298.69922 13.617188 z M 339.54492 49.515625 C 338.57622 49.515625 335.70082 52.164972 333.1543 55.402344 C 324.89268 65.905307 308.63462 73.72923 295.13477 73.699219 C 280.06759 73.665725 268.67036 69.009353 256.30273 57.835938 C 246.96983 49.40421 246.64037 49.30529 240.74219 53.169922 C 237.42825 55.341312 234.7168 58.338508 234.7168 59.830078 C 234.7168 64.131077 255.35772 86.576921 266.12695 93.986328 C 271.52038 97.697117 280.69502 102.39785 286.51367 104.43359 C 301.1213 109.54434 319.26063 109.24693 334.21875 103.65039 C 348.04994 98.475452 372.46739 78.089394 369.51953 74.177734 C 366.46168 70.120115 341.4186 49.515625 339.54492 49.515625 z M 221.02344 92.027344 C 217.51694 92.019823 213.21715 92.16344 207.64844 92.380859 C 183.36176 93.329081 168.81055 97.93308 168.81055 104.66992 C 168.81055 108.59695 182.22761 138.95898 183.96289 138.95898 C 184.63708 138.95898 193.07753 136.31068 202.71875 133.07422 C 222.52081 126.42688 238.85922 125.56044 248.67188 130.63477 C 256.29266 134.57562 258.25586 138.45644 258.25586 149.58984 C 258.25586 166.69738 248.59686 178.39068 225.89062 188.77148 C 217.79949 192.47057 211.17969 196.97687 211.17969 198.78516 C 211.17969 204.95984 225.09804 233.11039 228.14648 233.10156 C 233.21639 233.0869 245.78109 224.42762 255.97656 213.92188 L 265.61719 203.98828 L 271.32031 210.89844 C 287.36884 230.34682 296.60208 263.20365 291.36133 282.2168 C 287.29688 296.96241 273.7856 310.55828 259.62305 314.1543 C 212.13636 326.21165 163.32247 277.24661 147.74023 201.92383 C 144.75028 187.4707 141.22757 185.12123 132.31445 191.63867 C 127.96343 194.82023 127.97058 195.40106 132.69531 219.29492 C 140.97908 261.1875 154.96796 289.3296 180.58008 315.625 C 196.65963 332.13352 213.76024 342.46706 233.54102 347.62891 C 248.74595 351.59668 276.85215 349.81031 289.87695 344.04883 C 331.23514 325.75414 338.03067 271.63286 305.21094 221.92969 L 300.16016 214.2793 L 312.74805 208.41797 C 328.1033 201.26972 331.5926 201.12529 337.27148 207.40039 C 340.94159 211.45579 341.94165 217.57293 343.14258 243.29492 C 345.01207 283.33595 349.30784 294.51581 365.5957 301.7207 C 384.89577 310.25804 409.63405 303.63868 425.35938 285.72852 C 443.60278 264.95039 449.86603 239.73886 448.375 193.0957 C 447.17377 155.51854 442.24275 138.49638 428.47266 124.39453 C 418.04177 113.71233 407.87818 109.99562 389.80078 110.25195 C 365.58451 110.59532 347.518 124.97472 340.69727 149.33594 C 337.83964 159.54244 337.32413 159.99801 326.86523 161.56641 C 312.3601 163.74159 303.4295 167.69152 290.22656 177.76953 C 278.14298 186.99314 273.61688 186.92115 277.17578 177.56055 C 280.51738 168.77147 279.92905 150.88023 275.84766 137.13672 C 270.84353 120.28597 259.43564 106.31489 244.08984 98.246094 C 234.93199 93.430921 231.54294 92.049907 221.02344 92.027344 z M 388.9375 145.82812 C 395.21446 145.94143 401.37728 147.73672 406.7832 151.31641 C 417.43132 158.36736 427.77909 179.31736 429.39062 197.08984 C 431.85614 224.27994 420.6193 253.3591 403.65039 263.70508 C 392.11483 270.73833 377.56195 270.03816 371.35742 262.15039 C 364.84834 253.87542 364.48825 251.60336 363.61523 213.10352 C 362.99348 185.68369 362.10821 178.87692 358.34375 172.56445 L 353.82031 164.97852 L 359.58594 158.80664 C 367.69846 150.1234 378.4759 145.63928 388.9375 145.82812 z M 207.05859 362.93359 A 10.068976 10.068976 0 0 0 196.99023 373 L 196.99023 541.92188 A 10.068976 10.068976 0 0 0 207.05859 551.98828 L 375.98047 551.98828 A 10.068976 10.068976 0 0 0 386.04688 541.92188 L 386.04688 373 A 10.068976 10.068976 0 0 0 375.98047 362.93359 L 207.05859 362.93359 z "
     id="path4148" />
</svg>
