<?xml version="1.0" encoding="UTF-8" standalone="no"?>
<!-- Created with Inkscape (http://www.inkscape.org/) -->

<svg
   xmlns:dc="http://purl.org/dc/elements/1.1/"
   xmlns:cc="http://creativecommons.org/ns#"
   xmlns:rdf="http://www.w3.org/1999/02/22-rdf-syntax-ns#"
   xmlns:svg="http://www.w3.org/2000/svg"
   xmlns="http://www.w3.org/2000/svg"
   xmlns:sodipodi="http://sodipodi.sourceforge.net/DTD/sodipodi-0.dtd"
   xmlns:inkscape="http://www.inkscape.org/namespaces/inkscape"
   version="1.0"
   width="580"
   height="580"
   id="svg2"
   sodipodi:version="0.32"
   inkscape:version="0.91 r13725"
   sodipodi:docname="jewish3.svg"
   inkscape:output_extension="org.inkscape.output.svg.inkscape">
  <metadata
     id="metadata2975">
    <rdf:RDF>
      <cc:Work
         rdf:about="">
        <dc:format>image/svg+xml</dc:format>
        <dc:type
           rdf:resource="http://purl.org/dc/dcmitype/StillImage" />
        <cc:license
           rdf:resource="http://web.resource.org/cc/PublicDomain" />
        <dc:language>en</dc:language>
      </cc:Work>
    </rdf:RDF>
  </metadata>
  <sodipodi:namedview
     inkscape:window-height="972"
     inkscape:window-width="1280"
     inkscape:pageshadow="2"
     inkscape:pageopacity="0.0"
     guidetolerance="10.0"
     gridtolerance="10.0"
     objecttolerance="10.0"
     borderopacity="1.0"
     bordercolor="#666666"
     pagecolor="#ffffff"
     id="base"
     inkscape:zoom="0.65172414"
     inkscape:cx="313.36823"
     inkscape:cy="20.199369"
     inkscape:window-x="-8"
     inkscape:window-y="-8"
     inkscape:current-layer="svg2"
     showgrid="false"
     inkscape:window-maximized="1" />
  <defs
     id="defs4">
    <inkscape:perspective
       sodipodi:type="inkscape:persp3d"
       inkscape:vp_x="0 : 290 : 1"
       inkscape:vp_y="0 : 1000 : 0"
       inkscape:vp_z="580 : 290 : 1"
       inkscape:persp3d-origin="290 : 193.33333 : 1"
       id="perspective2441" />
    <inkscape:perspective
       id="perspective2466"
       inkscape:persp3d-origin="372.04724 : 350.78739 : 1"
       inkscape:vp_z="744.09448 : 526.18109 : 1"
       inkscape:vp_y="0 : 1000 : 0"
       inkscape:vp_x="0 : 526.18109 : 1"
       sodipodi:type="inkscape:persp3d" />
    <inkscape:perspective
       id="perspective3333"
       inkscape:persp3d-origin="372.04724 : 350.78739 : 1"
       inkscape:vp_z="744.09448 : 526.18109 : 1"
       inkscape:vp_y="0 : 1000 : 0"
       inkscape:vp_x="0 : 526.18109 : 1"
       sodipodi:type="inkscape:persp3d" />
    <inkscape:perspective
       id="perspective3401"
       inkscape:persp3d-origin="372.04724 : 350.78739 : 1"
       inkscape:vp_z="744.09448 : 526.18109 : 1"
       inkscape:vp_y="0 : 1000 : 0"
       inkscape:vp_x="0 : 526.18109 : 1"
       sodipodi:type="inkscape:persp3d" />
    <inkscape:perspective
       id="perspective3464"
       inkscape:persp3d-origin="372.04724 : 350.78739 : 1"
       inkscape:vp_z="744.09448 : 526.18109 : 1"
       inkscape:vp_y="0 : 1000 : 0"
       inkscape:vp_x="0 : 526.18109 : 1"
       sodipodi:type="inkscape:persp3d" />
    <inkscape:perspective
       id="perspective3581"
       inkscape:persp3d-origin="225 : 150 : 1"
       inkscape:vp_z="450 : 225 : 1"
       inkscape:vp_y="0 : 1000 : 0"
       inkscape:vp_x="0 : 225 : 1"
       sodipodi:type="inkscape:persp3d" />
    <inkscape:perspective
       id="perspective4312"
       inkscape:persp3d-origin="225 : 150 : 1"
       inkscape:vp_z="450 : 225 : 1"
       inkscape:vp_y="0 : 1000 : 0"
       inkscape:vp_x="0 : 225 : 1"
       sodipodi:type="inkscape:persp3d" />
  </defs>
  <path
     style="fill:#000080;fill-opacity:1"
     d="M 249.6671,485.91922 213.17537,422.6046 141.37895,422.57171 C 96.635183,422.55125 68.667761,421.05879 67.154811,418.61077 65.81956,416.45028 80.602051,387.08272 100.0048,353.34946 124.06422,311.52021 134.46447,289.86608 132.71015,285.25448 131.29533,281.53547 115.54657,253.27355 97.712814,222.45027 79.879115,191.62695 65.287893,164.4022 65.287893,161.95086 65.287893,158.72351 85.688551,157.49238 139.23164,157.48861 L 213.17537,157.48343 249.56575,94.108262 C 269.58047,59.25193 287.18044,30.733107 288.67682,30.733107 292.7808,30.733107 303.0279,46.625316 336.35489,104.67685 L 366.67677,157.49379 440.69444,157.49379 C 497.43738,157.49379 514.6729,158.61439 514.54411,162.29535 514.45168,164.93618 498.31807,194.70029 478.69158,228.4378 L 443.0071,289.77869 478.85958,351.89031 C 498.57849,386.05167 514.71211,415.92271 514.71211,418.27037 514.71211,421.25321 492.41793,422.53889 440.69444,422.53889 L 366.67677,422.53889 336.35489,475.35583 C 303.19146,533.12248 292.76713,549.31677 288.77817,549.26678 287.33751,549.24867 269.73753,520.74225 249.6671,485.91922 Z M 303.16241,447.99961 C 309.65551,436.65087 314.96805,426.27955 314.96805,424.9522 314.96805,423.62487 303.73244,422.53889 290.00003,422.53889 276.26761,422.53889 265.03202,423.62487 265.03202,424.9522 265.03202,428.0759 288.21453,468.63368 290.00003,468.63368 290.74625,468.63368 296.66934,459.34834 303.16241,447.99961 Z M 175.87394,357.2835 C 168.9249,344.63248 162.37506,334.28167 161.3187,334.28167 160.26236,334.28167 153.71254,344.63248 146.76351,357.2835 L 134.12893,380.28531 161.3187,380.28531 188.50849,380.28531 175.87394,357.2835 Z M 356.58814,354.35699 C 364.87684,340.09639 376.53931,319.62943 382.50479,308.87484 L 393.35104,289.32099 368.46739,245.49449 343.58377,201.66798 290.17102,201.66798 236.7583,201.66798 212.48283,243.47103 C 199.13131,266.46269 188.20734,287.09532 188.20734,289.32124 188.20734,293.30147 228.03362,366.10298 235.34285,375.48378 238.00301,378.89786 253.88357,380.28531 290.30091,380.28531 L 341.5178,380.28531 356.58814,354.35699 Z M 433.2365,357.2835 C 426.28747,344.63248 419.73765,334.28167 418.68131,334.28167 417.62495,334.28167 411.07511,344.63248 404.12608,357.2835 L 391.49156,380.28531 418.68131,380.28531 445.87108,380.28531 433.2365,357.2835 Z M 175.62093,222.73085 188.00253,199.74736 161.06574,199.74736 134.12893,199.74736 146.76351,222.7492 C 153.71254,235.4002 160.26236,245.74274 161.3187,245.73263 162.37506,245.72254 168.81104,235.37173 175.62093,222.73085 Z M 432.9835,222.73085 445.36512,199.74736 418.42832,199.74736 391.49156,199.74736 404.12608,222.7492 C 411.07511,235.4002 417.62495,245.74274 418.68131,245.73263 419.73765,245.72254 426.17361,235.37173 432.9835,222.73085 Z M 314.96805,155.08047 C 314.96805,151.95679 291.78551,111.39901 290.00003,111.39901 288.21453,111.39901 265.03202,151.95679 265.03202,155.08047 265.03202,156.4078 276.26761,157.49379 290.00003,157.49379 303.73244,157.49379 314.96805,156.4078 314.96805,155.08047 Z"
     id="path6812"
     sodipodi:nodetypes="cccssssscccscccscccscccsccssssccscccccccccccccssccccsccccccccccsccccccsccsssc"
     inkscape:connector-curvature="0" />
</svg>
