<?xml version="1.0" encoding="UTF-8" standalone="no"?>
<!-- Created with Inkscape (http://www.inkscape.org/) -->

<svg
   xmlns:dc="http://purl.org/dc/elements/1.1/"
   xmlns:cc="http://creativecommons.org/ns#"
   xmlns:rdf="http://www.w3.org/1999/02/22-rdf-syntax-ns#"
   xmlns:svg="http://www.w3.org/2000/svg"
   xmlns="http://www.w3.org/2000/svg"
   xmlns:sodipodi="http://sodipodi.sourceforge.net/DTD/sodipodi-0.dtd"
   xmlns:inkscape="http://www.inkscape.org/namespaces/inkscape"
   version="1.0"
   width="580"
   height="580"
   id="svg2"
   sodipodi:version="0.32"
   inkscape:version="0.91 r13725"
   sodipodi:docname="sikh.svg"
   inkscape:output_extension="org.inkscape.output.svg.inkscape">
  <metadata
     id="metadata2975">
    <rdf:RDF>
      <cc:Work
         rdf:about="">
        <dc:format>image/svg+xml</dc:format>
        <dc:type
           rdf:resource="http://purl.org/dc/dcmitype/StillImage" />
        <cc:license
           rdf:resource="http://web.resource.org/cc/PublicDomain" />
        <dc:language>en</dc:language>
      </cc:Work>
    </rdf:RDF>
  </metadata>
  <sodipodi:namedview
     inkscape:window-height="972"
     inkscape:window-width="1280"
     inkscape:pageshadow="2"
     inkscape:pageopacity="0.0"
     guidetolerance="10.0"
     gridtolerance="10.0"
     objecttolerance="10.0"
     borderopacity="1.0"
     bordercolor="#666666"
     pagecolor="#ffffff"
     id="base"
     inkscape:zoom="0.65172414"
     inkscape:cx="106.22537"
     inkscape:cy="76.971855"
     inkscape:window-x="-8"
     inkscape:window-y="-8"
     inkscape:current-layer="svg2"
     showgrid="false"
     inkscape:window-maximized="1" />
  <defs
     id="defs4">
    <inkscape:perspective
       sodipodi:type="inkscape:persp3d"
       inkscape:vp_x="0 : 290 : 1"
       inkscape:vp_y="0 : 1000 : 0"
       inkscape:vp_z="580 : 290 : 1"
       inkscape:persp3d-origin="290 : 193.33333 : 1"
       id="perspective2441" />
    <inkscape:perspective
       id="perspective2466"
       inkscape:persp3d-origin="372.04724 : 350.78739 : 1"
       inkscape:vp_z="744.09448 : 526.18109 : 1"
       inkscape:vp_y="0 : 1000 : 0"
       inkscape:vp_x="0 : 526.18109 : 1"
       sodipodi:type="inkscape:persp3d" />
    <inkscape:perspective
       id="perspective3333"
       inkscape:persp3d-origin="372.04724 : 350.78739 : 1"
       inkscape:vp_z="744.09448 : 526.18109 : 1"
       inkscape:vp_y="0 : 1000 : 0"
       inkscape:vp_x="0 : 526.18109 : 1"
       sodipodi:type="inkscape:persp3d" />
    <inkscape:perspective
       id="perspective3401"
       inkscape:persp3d-origin="372.04724 : 350.78739 : 1"
       inkscape:vp_z="744.09448 : 526.18109 : 1"
       inkscape:vp_y="0 : 1000 : 0"
       inkscape:vp_x="0 : 526.18109 : 1"
       sodipodi:type="inkscape:persp3d" />
    <inkscape:perspective
       id="perspective3464"
       inkscape:persp3d-origin="372.04724 : 350.78739 : 1"
       inkscape:vp_z="744.09448 : 526.18109 : 1"
       inkscape:vp_y="0 : 1000 : 0"
       inkscape:vp_x="0 : 526.18109 : 1"
       sodipodi:type="inkscape:persp3d" />
    <inkscape:perspective
       id="perspective3581"
       inkscape:persp3d-origin="225 : 150 : 1"
       inkscape:vp_z="450 : 225 : 1"
       inkscape:vp_y="0 : 1000 : 0"
       inkscape:vp_x="0 : 225 : 1"
       sodipodi:type="inkscape:persp3d" />
    <inkscape:perspective
       id="perspective4312"
       inkscape:persp3d-origin="225 : 150 : 1"
       inkscape:vp_z="450 : 225 : 1"
       inkscape:vp_y="0 : 1000 : 0"
       inkscape:vp_x="0 : 225 : 1"
       sodipodi:type="inkscape:persp3d" />
  </defs>
  <path
     style="color:#000000;font-style:normal;font-variant:normal;font-weight:normal;font-stretch:normal;font-size:medium;line-height:normal;font-family:sans-serif;text-indent:0;text-align:start;text-decoration:none;text-decoration-line:none;text-decoration-style:solid;text-decoration-color:#000000;letter-spacing:normal;word-spacing:normal;text-transform:none;direction:ltr;block-progression:tb;writing-mode:lr-tb;baseline-shift:baseline;text-anchor:start;white-space:normal;clip-rule:nonzero;display:inline;overflow:visible;visibility:visible;opacity:1;isolation:auto;mix-blend-mode:normal;color-interpolation:sRGB;color-interpolation-filters:linearRGB;solid-color:#000000;solid-opacity:1;fill:#000080;fill-opacity:1;fill-rule:nonzero;stroke:none;stroke-width:20.13593864;stroke-linecap:round;stroke-linejoin:round;stroke-miterlimit:4;stroke-dasharray:none;stroke-dashoffset:0;stroke-opacity:1;color-rendering:auto;image-rendering:auto;shape-rendering:auto;text-rendering:auto;enable-background:accumulate"
     d="M 292.59375 24.455078 C 290.07813 24.38177 287.81702 26.676762 284.93555 31.203125 C 282.39862 35.188288 274.51569 43.614051 267.41797 49.927734 C 258.74681 57.641086 254.97097 62.849761 255.9082 65.802734 C 256.88517 68.880913 254.45551 71.729598 247.79883 75.314453 C 236.32185 81.495236 222.54077 97.779264 215.32227 113.69141 C 207.92897 129.98884 207.92897 162.96233 215.32227 179.25977 C 222.54436 195.17981 236.32386 211.45732 247.81641 217.64648 C 256.42089 222.28028 257.18561 223.57798 255.76758 231.13672 C 254.4674 238.06722 255.14692 239.80173 259.72852 241.25586 C 269.50473 244.35873 281.03711 255.93415 281.03711 262.64258 C 281.03711 266.13664 280.03831 268.99414 278.81641 268.99414 C 273.5619 268.99414 238.93171 242.0888 225.46484 227.54297 C 208.71622 209.45246 201.00689 194.69387 195.10547 169.42773 C 188.51682 141.21923 194.69107 118.23015 213.59961 100.56641 C 228.40852 86.732426 217.5579 82.215559 200.02539 94.916016 C 176.2254 112.15666 164.11954 136.72199 164.22852 167.55469 C 164.34761 201.25968 175.00641 230.45231 199.3418 263.72461 C 213.31972 282.83579 220.4375 295.68128 220.4375 301.79883 C 220.4375 309.14141 227.66111 306.11516 242.49414 292.55859 C 256.63373 279.63581 257.29 279.3492 264.29883 283.02148 L 271.52539 286.80664 L 260.69531 292.33203 C 242.62193 301.55237 232.74364 322.40383 242.04297 331.70312 C 250.67592 340.33611 266.97067 330.22642 264.58008 317.7207 C 263.53895 312.27451 264.75171 310.17147 270.71094 307.08984 C 274.79706 304.97682 278.79329 303.24805 279.58984 303.24805 C 282.76196 303.24805 280.62459 325.96824 277.00195 330.75781 C 271.82137 337.60716 272.11348 340.7627 278.70508 349.14258 C 286.24533 358.72845 300.4834 357.89066 308.28125 347.40234 C 313.43851 340.46565 313.47461 339.80719 309.20117 330.8457 C 305.03576 322.11069 302.98403 303.24805 306.19922 303.24805 C 306.99575 303.24805 310.99004 304.97682 315.07617 307.08984 C 321.03539 310.17147 322.25007 312.27451 321.20898 317.7207 C 318.81835 330.22642 335.11311 340.33611 343.74609 331.70312 C 348.70145 326.74775 347.45581 312.55882 341.38867 304.8457 C 338.35339 300.98696 331.00874 295.3499 325.06641 292.31836 L 314.26172 286.80664 L 321.48828 283.02148 C 328.49711 279.3492 329.15337 279.63581 343.29297 292.55859 C 351.31112 299.88673 359.36775 305.88281 361.19531 305.88281 C 363.02287 305.88281 365.88117 301.3278 367.54883 295.76172 C 369.21649 290.19562 376.31315 278.04355 383.31836 268.75586 C 411.43949 231.47221 421.90745 203.90082 421.74219 167.55469 C 421.58935 133.94271 411.40846 113.49429 385.4707 94.705078 C 368.17934 82.179283 357.53514 86.876814 372.18945 100.56641 C 375.95023 104.0796 382.17422 112.28938 386.02148 118.81055 C 392.03774 129.00819 392.97241 133.43165 392.69141 150.42773 C 392.15588 182.81811 379.63176 209.59583 353.06836 235.14648 C 340.1337 247.58799 310.96637 268.99414 306.94922 268.99414 C 305.74031 268.99414 304.75 266.13664 304.75 262.64258 C 304.75 255.92516 316.28824 244.3576 326.0918 241.24609 C 330.5894 239.8186 331.36225 238.03189 330.13477 231.89453 C 328.94425 225.942 329.81678 223.66441 334.18945 221.32422 C 345.38076 215.3348 363.36148 196.41906 370.17383 183.46875 C 376.23038 171.95517 377.16016 167.03592 377.16016 146.47656 C 377.16016 125.91721 376.23038 120.99599 370.17383 109.48242 C 363.40213 96.609357 345.39585 77.625585 334.35156 71.714844 C 331.00389 69.923247 329.40764 67.029024 330.16602 64.128906 C 330.99807 60.947179 328.1115 56.972916 321.18359 51.761719 C 315.56866 47.538158 307.56734 39.553967 303.4043 34.019531 C 298.62235 27.662271 295.44478 24.53816 292.59375 24.455078 z M 321.09961 89.970703 L 328.59766 93.847656 C 344.04154 101.834 357.44727 126.29881 357.44727 146.49609 C 357.44727 161.04912 350.40036 175.73936 335.8457 191.5293 C 320.39225 208.29433 320.55 208.38917 313.92773 178.41406 C 308.92523 155.7709 309.53388 140.98464 316.78516 109.00195 L 321.09961 89.970703 z M 262.375 91.78125 C 266.00858 91.647392 267.40678 99.186894 271.68164 119.88281 C 276.85905 144.94829 276.8584 163.57558 271.67969 183.46875 C 269.43121 192.10584 266.72003 200.04526 265.6543 201.11328 C 261.84143 204.93427 245.17511 190.29632 237.53711 176.41797 C 222.88615 149.79697 228.45273 120.68635 252.31641 99.126953 C 257.21109 94.704903 260.19485 91.861565 262.375 91.78125 z M 207.05859 362.93359 A 10.068976 10.068976 0 0 0 196.99023 373 L 196.99023 541.92188 A 10.068976 10.068976 0 0 0 207.05859 551.98828 L 375.98047 551.98828 A 10.068976 10.068976 0 0 0 386.04688 541.92188 L 386.04688 373 A 10.068976 10.068976 0 0 0 375.98047 362.93359 L 207.05859 362.93359 z "
     id="path4148" />
</svg>
