<?xml version="1.0" encoding="UTF-8" standalone="no"?>
<!-- Created with Inkscape (http://www.inkscape.org/) -->

<svg
   xmlns:dc="http://purl.org/dc/elements/1.1/"
   xmlns:cc="http://creativecommons.org/ns#"
   xmlns:rdf="http://www.w3.org/1999/02/22-rdf-syntax-ns#"
   xmlns:svg="http://www.w3.org/2000/svg"
   xmlns="http://www.w3.org/2000/svg"
   xmlns:sodipodi="http://sodipodi.sourceforge.net/DTD/sodipodi-0.dtd"
   xmlns:inkscape="http://www.inkscape.org/namespaces/inkscape"
   version="1.0"
   width="580"
   height="580"
   id="svg2"
   sodipodi:version="0.32"
   inkscape:version="0.91 r13725"
   sodipodi:docname="shinto.svg"
   inkscape:output_extension="org.inkscape.output.svg.inkscape">
  <metadata
     id="metadata2975">
    <rdf:RDF>
      <cc:Work
         rdf:about="">
        <dc:format>image/svg+xml</dc:format>
        <dc:type
           rdf:resource="http://purl.org/dc/dcmitype/StillImage" />
        <cc:license
           rdf:resource="http://web.resource.org/cc/PublicDomain" />
        <dc:language>en</dc:language>
      </cc:Work>
    </rdf:RDF>
  </metadata>
  <sodipodi:namedview
     inkscape:window-height="972"
     inkscape:window-width="1280"
     inkscape:pageshadow="2"
     inkscape:pageopacity="0.0"
     guidetolerance="10.0"
     gridtolerance="10.0"
     objecttolerance="10.0"
     borderopacity="1.0"
     bordercolor="#666666"
     pagecolor="#ffffff"
     id="base"
     inkscape:zoom="0.65172414"
     inkscape:cx="18.765057"
     inkscape:cy="123.0036"
     inkscape:window-x="-8"
     inkscape:window-y="-8"
     inkscape:current-layer="svg2"
     showgrid="false"
     inkscape:window-maximized="1" />
  <defs
     id="defs4">
    <inkscape:perspective
       sodipodi:type="inkscape:persp3d"
       inkscape:vp_x="0 : 290 : 1"
       inkscape:vp_y="0 : 1000 : 0"
       inkscape:vp_z="580 : 290 : 1"
       inkscape:persp3d-origin="290 : 193.33333 : 1"
       id="perspective2441" />
    <inkscape:perspective
       id="perspective2466"
       inkscape:persp3d-origin="372.04724 : 350.78739 : 1"
       inkscape:vp_z="744.09448 : 526.18109 : 1"
       inkscape:vp_y="0 : 1000 : 0"
       inkscape:vp_x="0 : 526.18109 : 1"
       sodipodi:type="inkscape:persp3d" />
    <inkscape:perspective
       id="perspective3333"
       inkscape:persp3d-origin="372.04724 : 350.78739 : 1"
       inkscape:vp_z="744.09448 : 526.18109 : 1"
       inkscape:vp_y="0 : 1000 : 0"
       inkscape:vp_x="0 : 526.18109 : 1"
       sodipodi:type="inkscape:persp3d" />
    <inkscape:perspective
       id="perspective3401"
       inkscape:persp3d-origin="372.04724 : 350.78739 : 1"
       inkscape:vp_z="744.09448 : 526.18109 : 1"
       inkscape:vp_y="0 : 1000 : 0"
       inkscape:vp_x="0 : 526.18109 : 1"
       sodipodi:type="inkscape:persp3d" />
    <inkscape:perspective
       id="perspective3464"
       inkscape:persp3d-origin="372.04724 : 350.78739 : 1"
       inkscape:vp_z="744.09448 : 526.18109 : 1"
       inkscape:vp_y="0 : 1000 : 0"
       inkscape:vp_x="0 : 526.18109 : 1"
       sodipodi:type="inkscape:persp3d" />
    <inkscape:perspective
       id="perspective3581"
       inkscape:persp3d-origin="225 : 150 : 1"
       inkscape:vp_z="450 : 225 : 1"
       inkscape:vp_y="0 : 1000 : 0"
       inkscape:vp_x="0 : 225 : 1"
       sodipodi:type="inkscape:persp3d" />
    <inkscape:perspective
       id="perspective4312"
       inkscape:persp3d-origin="225 : 150 : 1"
       inkscape:vp_z="450 : 225 : 1"
       inkscape:vp_y="0 : 1000 : 0"
       inkscape:vp_x="0 : 225 : 1"
       sodipodi:type="inkscape:persp3d" />
  </defs>
  <path
     style="color:#000000;font-style:normal;font-variant:normal;font-weight:normal;font-stretch:normal;font-size:medium;line-height:normal;font-family:sans-serif;text-indent:0;text-align:start;text-decoration:none;text-decoration-line:none;text-decoration-style:solid;text-decoration-color:#000000;letter-spacing:normal;word-spacing:normal;text-transform:none;direction:ltr;block-progression:tb;writing-mode:lr-tb;baseline-shift:baseline;text-anchor:start;white-space:normal;clip-rule:nonzero;display:inline;overflow:visible;visibility:visible;opacity:1;isolation:auto;mix-blend-mode:normal;color-interpolation:sRGB;color-interpolation-filters:linearRGB;solid-color:#000000;solid-opacity:1;fill:#000080;fill-opacity:1;fill-rule:nonzero;stroke:none;stroke-width:20.13593864;stroke-linecap:round;stroke-linejoin:round;stroke-miterlimit:4;stroke-dasharray:none;stroke-dashoffset:0;stroke-opacity:1;color-rendering:auto;image-rendering:auto;shape-rendering:auto;text-rendering:auto;enable-background:accumulate"
     d="M 129.23438 39.765625 C 126.11225 39.73248 123.67459 40.430225 122.75391 41.919922 C 121.99363 43.150088 124.42139 48.364718 128.14844 53.509766 C 131.87549 58.654815 136.07824 67.447095 137.48828 73.046875 C 139.48564 80.979126 142.10926 84.589487 149.36719 89.392578 C 154.49093 92.783303 159.70712 95.558594 160.95703 95.558594 C 162.20694 95.558594 163.90293 99.150731 164.72656 103.54102 C 166.37012 112.30186 166.23883 112.25419 197.65039 115.46484 C 213.99358 117.1353 217.45453 121.601 208.16211 129.0293 C 203.57263 132.69813 199.90763 133.22133 185.32031 132.28516 C 174.66944 131.60165 167.36945 132.09914 166.45898 133.57227 C 164.55532 136.65249 165.51865 159.06636 167.64648 161.19922 C 168.53357 162.08838 179.47433 163.05673 191.95898 163.35156 L 214.6582 163.88672 L 214.6582 176.05859 C 214.6582 187.48811 214.23305 188.37553 207.67383 190.66211 C 199.54471 193.49592 199.51369 193.62214 204.45508 203.17773 C 207.66923 209.39322 208.16249 219.23456 207.83008 270.51367 C 207.57421 309.98458 208.30572 332.18726 209.9668 335.29102 C 213.32098 341.55834 229.75446 342.02128 232.89453 335.9375 C 234.05112 333.69666 235.56772 294.32839 236.26367 248.45117 C 236.95962 202.57392 237.89145 164.67495 238.33398 164.23242 C 238.77651 163.78986 262.96509 163.08754 292.08789 162.66992 L 345.03906 161.91016 L 345.03711 178.32422 C 345.03595 187.35158 343.88932 195.88215 342.49023 197.28125 C 340.80058 198.97089 340.69448 201.27624 342.17383 204.14844 C 343.3988 206.52675 345.09996 236.16743 345.95312 270.01562 C 346.93129 308.82259 348.44354 332.68918 350.04688 334.62109 C 353.98602 339.36745 374.54205 338.6256 377.33398 333.63672 C 378.73743 331.1289 379.08829 306.84929 378.25586 269.79297 L 376.91211 209.99609 L 383.22266 202.49805 C 390.30761 194.07808 389.27333 191.58808 377.04883 187.63672 C 369.9583 185.34482 369.43725 184.43701 368.78711 173.25 L 368.0918 161.31055 L 390.89062 160.92383 C 403.42957 160.71188 414.34589 159.80005 415.14844 158.89648 C 418.22445 155.43328 419.29571 133.17909 416.49414 130.94727 C 414.78582 129.58638 407.4772 129.50479 397.53125 130.73633 C 382.65211 132.57872 380.91728 132.33611 375.99609 127.71289 C 373.05227 124.94732 370.64453 121.4261 370.64453 119.88867 C 370.64453 116.73057 380.55098 114.29546 394.79883 113.95117 C 410.83274 113.56373 415.5881 111.30333 417.72656 103.05078 C 418.79429 98.930254 420.70992 95.558594 421.98242 95.558594 C 427.02526 95.558594 445.14453 76.247464 445.14453 70.873047 C 445.14453 67.865883 447.23682 61.97374 449.79297 57.78125 C 460.20592 40.702462 454.24622 35.518484 434.71094 44.660156 C 426.6689 48.423477 413.41712 52.555754 405.26172 53.84375 C 397.10631 55.131747 385.71918 57.312336 379.95703 58.689453 C 374.19489 60.066548 340.67014 61.705855 305.45703 62.332031 C 252.64635 63.271179 236.74267 62.77255 214.6582 59.482422 C 199.93272 57.28864 184.49665 55.124812 180.35547 54.673828 C 170.36524 53.585912 151.80557 47.993708 142.90039 43.388672 C 138.39387 41.058251 133.24854 39.80824 129.23438 39.765625 z M 260.17383 116.51172 L 277.51953 116.51172 L 277.51953 125.82422 L 277.51953 135.13672 L 264.13281 135.0625 C 253.52058 135.00418 249.47776 133.87218 244.63086 129.60156 C 240.04038 125.55691 239.05347 123.25521 240.67188 120.36328 C 242.37655 117.31717 246.45671 116.51172 260.17383 116.51172 z M 307.78516 116.51172 L 325.24609 116.51172 C 340.42742 116.51172 342.70703 117.05187 342.70703 120.65039 C 342.70703 122.92677 340.59903 126.59356 338.02344 128.79883 C 334.82541 131.53705 329.2889 132.80859 320.5625 132.80859 L 307.78516 132.80859 L 307.78516 124.66016 L 307.78516 116.51172 z M 207.05859 362.93359 A 10.068976 10.068976 0 0 0 196.99023 373 L 196.99023 541.92188 A 10.068976 10.068976 0 0 0 207.05859 551.98828 L 375.98047 551.98828 A 10.068976 10.068976 0 0 0 386.04688 541.92188 L 386.04688 373 A 10.068976 10.068976 0 0 0 375.98047 362.93359 L 207.05859 362.93359 z "
     id="path4148" />
</svg>
