<?xml version="1.0" encoding="UTF-8" standalone="no"?>
<!-- Created with Inkscape (http://www.inkscape.org/) -->

<svg
   xmlns:dc="http://purl.org/dc/elements/1.1/"
   xmlns:cc="http://creativecommons.org/ns#"
   xmlns:rdf="http://www.w3.org/1999/02/22-rdf-syntax-ns#"
   xmlns:svg="http://www.w3.org/2000/svg"
   xmlns="http://www.w3.org/2000/svg"
   xmlns:sodipodi="http://sodipodi.sourceforge.net/DTD/sodipodi-0.dtd"
   xmlns:inkscape="http://www.inkscape.org/namespaces/inkscape"
   version="1.0"
   width="580"
   height="580"
   id="svg2"
   sodipodi:version="0.32"
   inkscape:version="0.91 r13725"
   sodipodi:docname="islamic3.svg"
   inkscape:output_extension="org.inkscape.output.svg.inkscape">
  <metadata
     id="metadata2975">
    <rdf:RDF>
      <cc:Work
         rdf:about="">
        <dc:format>image/svg+xml</dc:format>
        <dc:type
           rdf:resource="http://purl.org/dc/dcmitype/StillImage" />
        <cc:license
           rdf:resource="http://web.resource.org/cc/PublicDomain" />
        <dc:language>en</dc:language>
      </cc:Work>
    </rdf:RDF>
  </metadata>
  <sodipodi:namedview
     inkscape:window-height="972"
     inkscape:window-width="1280"
     inkscape:pageshadow="2"
     inkscape:pageopacity="0.0"
     guidetolerance="10.0"
     gridtolerance="10.0"
     objecttolerance="10.0"
     borderopacity="1.0"
     bordercolor="#666666"
     pagecolor="#ffffff"
     id="base"
     inkscape:zoom="0.92167712"
     inkscape:cx="235.77639"
     inkscape:cy="242.898"
     inkscape:window-x="-8"
     inkscape:window-y="-8"
     inkscape:current-layer="svg2"
     showgrid="false"
     inkscape:window-maximized="1" />
  <defs
     id="defs4">
    <inkscape:perspective
       sodipodi:type="inkscape:persp3d"
       inkscape:vp_x="0 : 290 : 1"
       inkscape:vp_y="0 : 1000 : 0"
       inkscape:vp_z="580 : 290 : 1"
       inkscape:persp3d-origin="290 : 193.33333 : 1"
       id="perspective2441" />
    <inkscape:perspective
       id="perspective2466"
       inkscape:persp3d-origin="372.04724 : 350.78739 : 1"
       inkscape:vp_z="744.09448 : 526.18109 : 1"
       inkscape:vp_y="0 : 1000 : 0"
       inkscape:vp_x="0 : 526.18109 : 1"
       sodipodi:type="inkscape:persp3d" />
    <inkscape:perspective
       id="perspective3333"
       inkscape:persp3d-origin="372.04724 : 350.78739 : 1"
       inkscape:vp_z="744.09448 : 526.18109 : 1"
       inkscape:vp_y="0 : 1000 : 0"
       inkscape:vp_x="0 : 526.18109 : 1"
       sodipodi:type="inkscape:persp3d" />
    <inkscape:perspective
       id="perspective3401"
       inkscape:persp3d-origin="372.04724 : 350.78739 : 1"
       inkscape:vp_z="744.09448 : 526.18109 : 1"
       inkscape:vp_y="0 : 1000 : 0"
       inkscape:vp_x="0 : 526.18109 : 1"
       sodipodi:type="inkscape:persp3d" />
    <inkscape:perspective
       id="perspective3464"
       inkscape:persp3d-origin="372.04724 : 350.78739 : 1"
       inkscape:vp_z="744.09448 : 526.18109 : 1"
       inkscape:vp_y="0 : 1000 : 0"
       inkscape:vp_x="0 : 526.18109 : 1"
       sodipodi:type="inkscape:persp3d" />
    <inkscape:perspective
       id="perspective3581"
       inkscape:persp3d-origin="225 : 150 : 1"
       inkscape:vp_z="450 : 225 : 1"
       inkscape:vp_y="0 : 1000 : 0"
       inkscape:vp_x="0 : 225 : 1"
       sodipodi:type="inkscape:persp3d" />
    <inkscape:perspective
       id="perspective4312"
       inkscape:persp3d-origin="225 : 150 : 1"
       inkscape:vp_z="450 : 225 : 1"
       inkscape:vp_y="0 : 1000 : 0"
       inkscape:vp_x="0 : 225 : 1"
       sodipodi:type="inkscape:persp3d" />
  </defs>
  <path
     style="fill:#000080"
     d="M 295.41797 42.455078 C 266.96189 42.455078 217.73178 51.584113 195.57031 60.970703 C 134.5679 86.808603 79.246225 146.31068 57.375 209.60938 C 49.371581 232.77236 44.810268 254.57723 44.513672 288.56445 C 44.209879 322.52764 49.371581 347.74914 57.375 370.91211 C 80.315971 437.30687 141.79569 500.32271 205.46094 522.69922 C 217.88331 527.06536 235.43881 532.10805 244.47266 533.9043 C 288.64831 542.68779 350.26693 535.15919 392.52148 515.81445 C 421.13844 502.71313 440.65286 488.82483 436.31445 484.64844 C 434.45134 482.8549 413.72593 485.24465 390.25781 489.96094 C 353.90124 497.26741 343.74209 497.87882 321.58789 494.08398 C 250.20202 481.85609 185.567 426.39173 160.05078 355.4668 C 147.72597 321.20882 147.77307 259.20484 160.15039 224.72656 C 186.38812 151.63866 252.0402 96.63984 325.01758 86.613281 C 350.36276 83.131025 361.23618 83.764864 394.01562 90.632812 C 434.97541 99.214728 442.70845 98.876662 434.39648 88.861328 C 418.13785 69.270896 337.83083 42.455078 295.41797 42.455078 z M 438.42383 191.7832 C 438.08096 191.76512 437.73314 191.79874 437.38281 191.89844 C 428.65098 198.18552 426.96829 210.50718 422.35547 219.71094 C 418.15825 231.21028 414.26436 242.84281 410.16602 254.38867 C 388.07772 256.27078 364.67552 253.36977 343.44727 260.25977 C 338.08764 266.58508 349.0101 271.5329 352.60156 275.63477 C 366.13079 286.73224 380.86807 296.16823 394.54492 307.12891 C 388.72705 328.34866 377.99561 348.88883 376.78125 371.01172 C 380.43194 380.82908 391.58924 372.78631 396.69727 368.91016 C 410.65036 359.69858 423.69709 347.6225 438.72461 340.76172 C 457.93902 351.0356 474.26871 366.69221 493.45508 377.28125 C 502.02738 377.52723 499.54359 365.43719 498.5293 359.9668 C 495.36357 342.3624 486.56334 325.22116 483.70312 308.07422 C 499.46865 291.85233 520.40902 281.66965 535.44727 264.73828 C 536.41208 256.24105 523.93477 258.29411 518.53125 256.97656 C 501.24091 255.86732 483.90045 256.58314 466.58789 256.37891 C 458.38682 235.23202 454.6424 211.48153 441.21289 192.99414 C 440.42592 192.36205 439.45243 191.83745 438.42383 191.7832 z "
     id="path6579" />
</svg>
