<?xml version="1.0" encoding="UTF-8" standalone="no"?>
<!-- Created with Inkscape (http://www.inkscape.org/) -->

<svg
   xmlns:dc="http://purl.org/dc/elements/1.1/"
   xmlns:cc="http://creativecommons.org/ns#"
   xmlns:rdf="http://www.w3.org/1999/02/22-rdf-syntax-ns#"
   xmlns:svg="http://www.w3.org/2000/svg"
   xmlns="http://www.w3.org/2000/svg"
   xmlns:sodipodi="http://sodipodi.sourceforge.net/DTD/sodipodi-0.dtd"
   xmlns:inkscape="http://www.inkscape.org/namespaces/inkscape"
   version="1.0"
   width="580"
   height="580"
   id="svg2"
   sodipodi:version="0.32"
   inkscape:version="0.91 r13725"
   sodipodi:docname="sikh3.svg"
   inkscape:output_extension="org.inkscape.output.svg.inkscape">
  <metadata
     id="metadata2975">
    <rdf:RDF>
      <cc:Work
         rdf:about="">
        <dc:format>image/svg+xml</dc:format>
        <dc:type
           rdf:resource="http://purl.org/dc/dcmitype/StillImage" />
        <cc:license
           rdf:resource="http://web.resource.org/cc/PublicDomain" />
        <dc:language>en</dc:language>
      </cc:Work>
    </rdf:RDF>
  </metadata>
  <sodipodi:namedview
     inkscape:window-height="972"
     inkscape:window-width="1280"
     inkscape:pageshadow="2"
     inkscape:pageopacity="0.0"
     guidetolerance="10.0"
     gridtolerance="10.0"
     objecttolerance="10.0"
     borderopacity="1.0"
     bordercolor="#666666"
     pagecolor="#ffffff"
     id="base"
     inkscape:zoom="0.65172414"
     inkscape:cx="80.140719"
     inkscape:cy="89.246985"
     inkscape:window-x="-8"
     inkscape:window-y="-8"
     inkscape:current-layer="svg2"
     showgrid="false"
     inkscape:window-maximized="1" />
  <defs
     id="defs4">
    <inkscape:perspective
       sodipodi:type="inkscape:persp3d"
       inkscape:vp_x="0 : 290 : 1"
       inkscape:vp_y="0 : 1000 : 0"
       inkscape:vp_z="580 : 290 : 1"
       inkscape:persp3d-origin="290 : 193.33333 : 1"
       id="perspective2441" />
    <inkscape:perspective
       id="perspective2466"
       inkscape:persp3d-origin="372.04724 : 350.78739 : 1"
       inkscape:vp_z="744.09448 : 526.18109 : 1"
       inkscape:vp_y="0 : 1000 : 0"
       inkscape:vp_x="0 : 526.18109 : 1"
       sodipodi:type="inkscape:persp3d" />
    <inkscape:perspective
       id="perspective3333"
       inkscape:persp3d-origin="372.04724 : 350.78739 : 1"
       inkscape:vp_z="744.09448 : 526.18109 : 1"
       inkscape:vp_y="0 : 1000 : 0"
       inkscape:vp_x="0 : 526.18109 : 1"
       sodipodi:type="inkscape:persp3d" />
    <inkscape:perspective
       id="perspective3401"
       inkscape:persp3d-origin="372.04724 : 350.78739 : 1"
       inkscape:vp_z="744.09448 : 526.18109 : 1"
       inkscape:vp_y="0 : 1000 : 0"
       inkscape:vp_x="0 : 526.18109 : 1"
       sodipodi:type="inkscape:persp3d" />
    <inkscape:perspective
       id="perspective3464"
       inkscape:persp3d-origin="372.04724 : 350.78739 : 1"
       inkscape:vp_z="744.09448 : 526.18109 : 1"
       inkscape:vp_y="0 : 1000 : 0"
       inkscape:vp_x="0 : 526.18109 : 1"
       sodipodi:type="inkscape:persp3d" />
    <inkscape:perspective
       id="perspective3581"
       inkscape:persp3d-origin="225 : 150 : 1"
       inkscape:vp_z="450 : 225 : 1"
       inkscape:vp_y="0 : 1000 : 0"
       inkscape:vp_x="0 : 225 : 1"
       sodipodi:type="inkscape:persp3d" />
    <inkscape:perspective
       id="perspective4312"
       inkscape:persp3d-origin="225 : 150 : 1"
       inkscape:vp_z="450 : 225 : 1"
       inkscape:vp_y="0 : 1000 : 0"
       inkscape:vp_x="0 : 225 : 1"
       sodipodi:type="inkscape:persp3d" />
  </defs>
  <path
     style="fill:#000080"
     d="M 288.95703,38.051781 288.95703,41.225609 287.38672,43.614281 C 275.94111,61.457341 255.74103,71.907994 244.63672,90.083031 244.70243,99.922262 244.62347,110.83659 239.29297,119.27053 229.18061,126.41733 217.60046,132.0755 209.54883,141.75295 191.2607,158.92337 174.92914,180.65041 173.23047,206.48928 170.36334,229.96662 172.70505,254.73191 185.25586,275.13967 198.09963,295.87496 214.00587,315.92374 236.26172,326.98928 244.64513,333.13042 247.03499,344.66678 243.79297,354.33303 242.41884,359.01888 244.47245,364.29226 249.95508,364.71975 262.17505,369.80629 273.16519,378.72914 280.13672,390.14553 283.92032,397.07068 286.20804,407.59341 279.76172,413.61428 274.10982,417.7243 268.13237,411.11297 263.02344,409.20217 247.218,398.93963 232.82184,386.93594 218.09375,375.2178 187.81026,350.17887 154.05347,317.13193 142.35547,278.77053 130.60343,245.38837 127.31366,202.3676 144.04297,169.64553 151.58929,153.91621 164.2452,141.90527 175.91797,129.17678 178.00769,126.07703 173.82947,123.90336 171.26172,125.67678 156.82862,130.04848 145.13109,140.32895 134.27344,150.32131 107.48144,176.98878 92.628121,219.83492 95.07422,257.45803 96.382423,310.27375 125.47312,362.03477 157.1582,403.33889 169.56575,420.85076 183.23607,438.65492 188.69922,459.64553 187.49602,463.66199 192.10111,465.38911 194.57422,462.39553 212.07714,453.33463 222.9016,434.94482 240.82422,426.70803 248.72623,424.50108 255.68973,429.43662 262.04297,433.23928 265.1194,434.43877 272.6926,437.29133 268.73047,441.55178 260.83748,446.42041 251.51435,448.8124 244.08789,454.57912 229.97082,463.98 217.08373,478.99126 217.07422,496.73928 217.7877,506.13381 228.34879,513.57406 237.19922,509.20803 247.57969,505.52749 253.21824,492.92367 249.38672,482.67678 249.63485,472.226 260.78747,467.27234 269.01172,463.55178 273.1878,460.69362 281.39983,459.1613 282.82422,465.77053 285.91908,476.37379 282.52872,487.51297 281.48047,498.05178 279.9739,505.76134 274.84324,512.10384 272.19922,519.11428 272.13115,528.22301 279.74425,535.21547 286.41797,540.27053 288.16327,541.68239 289.28392,542.10792 290,541.89748 290.71608,542.10792 291.83674,541.68239 293.58203,540.27053 300.25575,535.21547 307.86885,528.22301 307.80078,519.11428 305.15676,512.10384 300.0261,505.76134 298.51953,498.05178 297.47128,487.51297 294.08092,476.37379 297.17578,465.77053 298.60017,459.1613 306.8122,460.69362 310.98828,463.55178 319.21253,467.27234 330.36515,472.226 330.61328,482.67678 326.78176,492.92367 332.42031,505.52749 342.80078,509.20803 351.65121,513.57406 362.2123,506.13381 362.92578,496.73928 362.91627,478.99126 350.02918,463.98 335.91211,454.57912 328.48565,448.8124 319.16252,446.42041 311.26953,441.55178 307.3074,437.29133 314.8806,434.43877 317.95703,433.23928 324.31027,429.43662 331.27377,424.50108 339.17578,426.70803 357.0984,434.94482 367.92286,453.33463 385.42578,462.39553 387.89889,465.38911 392.50398,463.66199 391.30078,459.64553 396.76393,438.65492 410.4362,420.85076 422.84375,403.33889 454.52883,362.03477 483.61758,310.27375 484.92578,257.45803 487.37188,219.83492 472.51856,176.98878 445.72656,150.32131 434.86891,140.32895 423.17138,130.04848 408.73828,125.67678 406.17053,123.90336 401.99231,126.07703 404.08203,129.17678 415.7548,141.90527 428.41071,153.91621 435.95703,169.64553 452.68634,202.3676 449.39657,245.38837 437.64453,278.77053 425.94653,317.13193 392.19169,350.17887 361.9082,375.2178 347.18011,386.93594 332.782,398.93963 316.97656,409.20217 311.86763,411.11297 305.89018,417.7243 300.23828,413.61428 293.79196,407.59341 296.07968,397.07068 299.86328,390.14553 306.83481,378.72914 317.82691,369.80629 330.04688,364.71975 335.52951,364.29226 337.58116,359.01888 336.20703,354.33303 332.96501,344.66678 335.35487,333.13042 343.73828,326.98928 365.99413,315.92374 381.90037,295.87496 394.74414,275.13967 407.29495,254.73191 409.63666,229.96662 406.76953,206.48928 405.07086,180.65041 388.7393,158.92337 370.45117,141.75295 362.39954,132.0755 350.81939,126.41733 340.70703,119.27053 335.37653,110.83659 335.29757,99.922262 335.36328,90.083031 324.25897,71.907994 304.05889,61.457341 292.61328,43.614281 L 291.04297,41.225609 291.04297,38.051781 290,39.637719 288.95703,38.051781 Z M 250.41797,147.86428 C 259.16715,148.5744 261.36039,159.28881 262.8457,166.30373 271.12952,198.60992 279.92576,228.2803 272.19336,261.59475 268.84621,274.22597 266.47513,283.2822 260.98047,295.14553 259.12903,300.03555 254.24984,303.2818 249.04297,301.23928 236.51731,295.88779 230.93518,287.48497 221.80664,277.7217 203.68516,257.59324 194.12485,230.52488 201.63281,203.77053 206.56925,181.2106 218.81126,167.28926 237.6543,155.06741 241.91738,152.91634 245.513,148.28367 250.41797,147.86428 Z M 329.58203,147.86428 C 334.487,148.28367 338.08262,152.91634 342.3457,155.06741 361.18874,167.28926 373.43075,181.2106 378.36719,203.77053 385.87515,230.52488 376.31484,257.59324 358.19336,277.7217 349.06482,287.48497 343.48269,295.88779 330.95703,301.23928 325.75016,303.2818 320.87097,300.03555 319.01953,295.14553 313.52487,283.2822 311.15379,274.22597 307.80664,261.59475 300.07424,228.2803 308.87048,198.60992 317.1543,166.30373 318.63961,159.28881 320.83285,148.5744 329.58203,147.86428 Z"
     id="path7034"
     inkscape:connector-curvature="0" />
</svg>
