<?xml version="1.0" encoding="UTF-8" standalone="no"?>
<!-- Created with Inkscape (http://www.inkscape.org/) -->

<svg
   xmlns:dc="http://purl.org/dc/elements/1.1/"
   xmlns:cc="http://creativecommons.org/ns#"
   xmlns:rdf="http://www.w3.org/1999/02/22-rdf-syntax-ns#"
   xmlns:svg="http://www.w3.org/2000/svg"
   xmlns="http://www.w3.org/2000/svg"
   xmlns:sodipodi="http://sodipodi.sourceforge.net/DTD/sodipodi-0.dtd"
   xmlns:inkscape="http://www.inkscape.org/namespaces/inkscape"
   version="1.0"
   width="580"
   height="580"
   id="svg2"
   sodipodi:version="0.32"
   inkscape:version="0.91 r13725"
   sodipodi:docname="jain3.svg"
   inkscape:output_extension="org.inkscape.output.svg.inkscape">
  <metadata
     id="metadata2975">
    <rdf:RDF>
      <cc:Work
         rdf:about="">
        <dc:format>image/svg+xml</dc:format>
        <dc:type
           rdf:resource="http://purl.org/dc/dcmitype/StillImage" />
        <cc:license
           rdf:resource="http://web.resource.org/cc/PublicDomain" />
        <dc:language>en</dc:language>
      </cc:Work>
    </rdf:RDF>
  </metadata>
  <sodipodi:namedview
     inkscape:window-height="972"
     inkscape:window-width="1280"
     inkscape:pageshadow="2"
     inkscape:pageopacity="0.0"
     guidetolerance="10.0"
     gridtolerance="10.0"
     objecttolerance="10.0"
     borderopacity="1.0"
     bordercolor="#666666"
     pagecolor="#ffffff"
     id="base"
     inkscape:zoom="0.65172414"
     inkscape:cx="161.46347"
     inkscape:cy="60.093548"
     inkscape:window-x="-8"
     inkscape:window-y="-8"
     inkscape:current-layer="svg2"
     showgrid="false"
     inkscape:window-maximized="1" />
  <defs
     id="defs4">
    <inkscape:perspective
       sodipodi:type="inkscape:persp3d"
       inkscape:vp_x="0 : 290 : 1"
       inkscape:vp_y="0 : 1000 : 0"
       inkscape:vp_z="580 : 290 : 1"
       inkscape:persp3d-origin="290 : 193.33333 : 1"
       id="perspective2441" />
    <inkscape:perspective
       id="perspective2466"
       inkscape:persp3d-origin="372.04724 : 350.78739 : 1"
       inkscape:vp_z="744.09448 : 526.18109 : 1"
       inkscape:vp_y="0 : 1000 : 0"
       inkscape:vp_x="0 : 526.18109 : 1"
       sodipodi:type="inkscape:persp3d" />
    <inkscape:perspective
       id="perspective3333"
       inkscape:persp3d-origin="372.04724 : 350.78739 : 1"
       inkscape:vp_z="744.09448 : 526.18109 : 1"
       inkscape:vp_y="0 : 1000 : 0"
       inkscape:vp_x="0 : 526.18109 : 1"
       sodipodi:type="inkscape:persp3d" />
    <inkscape:perspective
       id="perspective3401"
       inkscape:persp3d-origin="372.04724 : 350.78739 : 1"
       inkscape:vp_z="744.09448 : 526.18109 : 1"
       inkscape:vp_y="0 : 1000 : 0"
       inkscape:vp_x="0 : 526.18109 : 1"
       sodipodi:type="inkscape:persp3d" />
    <inkscape:perspective
       id="perspective3464"
       inkscape:persp3d-origin="372.04724 : 350.78739 : 1"
       inkscape:vp_z="744.09448 : 526.18109 : 1"
       inkscape:vp_y="0 : 1000 : 0"
       inkscape:vp_x="0 : 526.18109 : 1"
       sodipodi:type="inkscape:persp3d" />
    <inkscape:perspective
       id="perspective3581"
       inkscape:persp3d-origin="225 : 150 : 1"
       inkscape:vp_z="450 : 225 : 1"
       inkscape:vp_y="0 : 1000 : 0"
       inkscape:vp_x="0 : 225 : 1"
       sodipodi:type="inkscape:persp3d" />
    <inkscape:perspective
       id="perspective4312"
       inkscape:persp3d-origin="225 : 150 : 1"
       inkscape:vp_z="450 : 225 : 1"
       inkscape:vp_y="0 : 1000 : 0"
       inkscape:vp_x="0 : 225 : 1"
       sodipodi:type="inkscape:persp3d" />
  </defs>
  <path
     style="fill:#000080"
     d="M 278.55634,31.944517 C 263.40407,31.944517 257.50244,33.789724 249.79072,40.936705 244.45478,45.881899 240.08954,53.152284 240.08954,57.092955 240.08954,62.371114 238.22332,63.769507 232.9997,62.403502 222.58524,59.680035 200.6128,67.983538 194.26923,77.04022 190.34509,82.642755 188.75751,94.519654 188.75751,118.28827 L 188.75751,151.67108 178.15204,150.11444 C 163.04916,147.8978 141.61137,159.0216 138.30439,170.79218 136.81379,176.09769 135.94228,239.83921 135.59345,312.43476 135.26474,380.8456 134.71554,395.57889 136.40009,433.94647 136.87897,444.85409 145.57197,465.72772 145.57197,465.72772 156.19152,488.39343 187.90993,522.48903 208.15204,532.99921 214.62701,536.36115 227.34887,541.27872 236.42353,543.92694 263.253,551.75652 309.4537,548.06006 333.82978,536.13397 361.06951,522.8068 387.22461,495.8095 402.05048,465.71601 402.05048,465.71601 409.86006,448.95372 413.44306,421.19843 417.02603,393.44314 416.38251,354.69452 416.38251,354.69452 418.61422,264.4204 420.68503,251.38843 436.49775,228.0871 441.61812,220.54178 445.30689,210.92482 444.69501,206.71601 442.66428,192.74739 387.57678,180.97635 369.54072,199.71601 368.0348,193.86202 368.53662,177.54205 367.61298,150.92694 366.03494,104.76573 366.46962,104.13226 356.4997,96.69647 350.34954,92.109529 340.33541,89.027582 330.83368,88.798033 L 315.25361,88.42108 313.40595,67.885924 C 310.87336,39.726647 303.32895,31.944517 278.55634,31.944517 Z M 280.28876,57.901548 C 290.93976,57.943241 291.42157,76.47015 291.42157,175.38788 L 291.42157,284.93476 302.42157,284.93476 313.41962,284.93476 313.41962,204.53437 C 313.41962,136.33058 314.29379,123.25786 319.18134,118.3703 322.35026,115.20135 327.9239,112.60858 331.56611,112.60858 346.02075,112.60858 346.98021,119.4381 346.0954,215.96405 L 345.24579,308.76679 355.91572,308.76679 366.58564,308.76679 368.41962,273.31171 C 370.00519,242.67771 371.4162,236.62062 378.79267,228.76874 387.41023,219.59578 405.08368,213.45146 405.08368,219.62811 405.08368,221.46525 402.29208,228.24853 398.88056,234.70233 393.76486,244.38002 392.26145,262.17983 390.30439,336.26679 388.34031,410.62044 386.7876,428.94006 381.28876,442.59687 368.46478,474.44613 346.90331,497.6466 317.89814,510.80976 266.15516,534.2918 202.0277,510.30296 173.47236,456.78241 165.0455,440.98814 164.90972,438.92196 163.83564,309.68476 L 162.74775,178.60663 171.16962,178.66132 C 187.62262,178.77102 188.502,181.6696 189.57197,239.25702 L 190.5915,294.10077 200.67548,295.26093 C 212.23802,296.59137 211.67889,298.96108 210.78876,252.34491 210.4272,233.41143 211.31124,189.41121 212.75361,154.56757 215.05615,98.94624 216.14981,91.012533 221.71259,89.557798 225.1974,88.646509 230.75869,89.417584 234.07001,91.270689 239.40709,94.257475 240.08954,105.23316 240.08954,187.95429 L 240.08954,281.26874 252.92353,281.26874 265.75556,281.26874 265.75556,171.52069 C 265.75556,64.134838 265.91797,61.719818 273.26533,59.387877 275.99683,58.520931 278.31636,57.893828 280.28876,57.901548 Z M 272.59345,309.30585 C 246.99553,309.16991 222.13019,320.58434 205.70868,340.42694 180.93761,367.85708 176.04,409.79832 189.09345,443.66913 198.56979,464.95164 217.29068,481.45676 237.31806,492.63788 259.95496,503.73275 287.50565,501.00796 310.26728,492.5871 334.71632,481.61236 353.06862,458.85656 362.78681,434.45624 371.10515,407.67812 373.23392,375.67771 357.42939,351.04804 339.42679,325.57591 309.17663,308.67356 277.7204,309.48749 276.00965,309.37483 274.29998,309.31491 272.59345,309.30585 Z"
     id="path6702"
     inkscape:connector-curvature="0" />
</svg>
