<?xml version="1.0" encoding="UTF-8" standalone="no"?>
<!-- Created with Inkscape (http://www.inkscape.org/) -->

<svg
   xmlns:dc="http://purl.org/dc/elements/1.1/"
   xmlns:cc="http://creativecommons.org/ns#"
   xmlns:rdf="http://www.w3.org/1999/02/22-rdf-syntax-ns#"
   xmlns:svg="http://www.w3.org/2000/svg"
   xmlns="http://www.w3.org/2000/svg"
   xmlns:sodipodi="http://sodipodi.sourceforge.net/DTD/sodipodi-0.dtd"
   xmlns:inkscape="http://www.inkscape.org/namespaces/inkscape"
   version="1.0"
   width="580"
   height="580"
   id="svg2"
   sodipodi:version="0.32"
   inkscape:version="0.91 r13725"
   sodipodi:docname="buddhist3.svg"
   inkscape:output_extension="org.inkscape.output.svg.inkscape">
  <metadata
     id="metadata2975">
    <rdf:RDF>
      <cc:Work
         rdf:about="">
        <dc:format>image/svg+xml</dc:format>
        <dc:type
           rdf:resource="http://purl.org/dc/dcmitype/StillImage" />
        <cc:license
           rdf:resource="http://web.resource.org/cc/PublicDomain" />
        <dc:language>en</dc:language>
      </cc:Work>
    </rdf:RDF>
  </metadata>
  <sodipodi:namedview
     inkscape:window-height="972"
     inkscape:window-width="1280"
     inkscape:pageshadow="2"
     inkscape:pageopacity="0.0"
     guidetolerance="10.0"
     gridtolerance="10.0"
     objecttolerance="10.0"
     borderopacity="1.0"
     bordercolor="#666666"
     pagecolor="#ffffff"
     id="base"
     inkscape:zoom="0.65172414"
     inkscape:cx="86.490507"
     inkscape:cy="328.32384"
     inkscape:window-x="-8"
     inkscape:window-y="-8"
     inkscape:current-layer="svg2"
     showgrid="false"
     inkscape:window-maximized="1" />
  <defs
     id="defs4">
    <inkscape:perspective
       sodipodi:type="inkscape:persp3d"
       inkscape:vp_x="0 : 290 : 1"
       inkscape:vp_y="0 : 1000 : 0"
       inkscape:vp_z="580 : 290 : 1"
       inkscape:persp3d-origin="290 : 193.33333 : 1"
       id="perspective2441" />
    <inkscape:perspective
       id="perspective2466"
       inkscape:persp3d-origin="372.04724 : 350.78739 : 1"
       inkscape:vp_z="744.09448 : 526.18109 : 1"
       inkscape:vp_y="0 : 1000 : 0"
       inkscape:vp_x="0 : 526.18109 : 1"
       sodipodi:type="inkscape:persp3d" />
    <inkscape:perspective
       id="perspective3333"
       inkscape:persp3d-origin="372.04724 : 350.78739 : 1"
       inkscape:vp_z="744.09448 : 526.18109 : 1"
       inkscape:vp_y="0 : 1000 : 0"
       inkscape:vp_x="0 : 526.18109 : 1"
       sodipodi:type="inkscape:persp3d" />
    <inkscape:perspective
       id="perspective3401"
       inkscape:persp3d-origin="372.04724 : 350.78739 : 1"
       inkscape:vp_z="744.09448 : 526.18109 : 1"
       inkscape:vp_y="0 : 1000 : 0"
       inkscape:vp_x="0 : 526.18109 : 1"
       sodipodi:type="inkscape:persp3d" />
    <inkscape:perspective
       id="perspective3464"
       inkscape:persp3d-origin="372.04724 : 350.78739 : 1"
       inkscape:vp_z="744.09448 : 526.18109 : 1"
       inkscape:vp_y="0 : 1000 : 0"
       inkscape:vp_x="0 : 526.18109 : 1"
       sodipodi:type="inkscape:persp3d" />
    <inkscape:perspective
       id="perspective3581"
       inkscape:persp3d-origin="225 : 150 : 1"
       inkscape:vp_z="450 : 225 : 1"
       inkscape:vp_y="0 : 1000 : 0"
       inkscape:vp_x="0 : 225 : 1"
       sodipodi:type="inkscape:persp3d" />
    <inkscape:perspective
       id="perspective4312"
       inkscape:persp3d-origin="225 : 150 : 1"
       inkscape:vp_z="450 : 225 : 1"
       inkscape:vp_y="0 : 1000 : 0"
       inkscape:vp_x="0 : 225 : 1"
       sodipodi:type="inkscape:persp3d" />
  </defs>
  <path
     style="opacity:1;fill:#000080"
     d="M 268.06593,544.17217 C 263.29614,539.40241 260.78893,532.04387 260.78893,522.81461 L 260.78893,508.734 239.67877,504.58084 C 157.7628,488.46485 85.313118,403.55344 67.732846,315.56953 62.370881,315.15561 59.406122,314.94699 53.739856,314.94699 36.018388,314.94699 24.286756,303.12174 24.286756,285.25883 24.286756,269.02198 34.267108,259.52391 52.481085,258.42697 L 66.129453,257.605 72.571008,232.60816 C 83.317801,190.90475 99.275229,163.46902 131.58124,131.15139 164.69206,98.028683 192.40603,81.394791 232.41488,71.482547 244.57107,68.470827 245.50452,70.79388 259.1881,67.741342 260.99592,48.732858 259.34899,27.533248 288.411,28.529755 311.38163,29.331101 313.57451,43.356982 313.66925,66.629806 321.54696,67.401757 324.10417,67.634548 337.74096,70.438634 419.73484,87.298728 493.36543,161.27078 507.73289,243.99633 510.00685,257.08927 511.22742,258.43624 519.89151,257.41403 531.32811,256.06474 550.06246,264.96888 553.24686,273.26729 561.13429,293.82166 549.57111,311.48307 526.16934,314.62502 510.84871,316.68201 510.12207,317.34785 507.70059,331.54929 503.90819,353.79075 489.02696,387.85042 472.41152,412.3177 443.12716,455.44086 397.47551,487.52933 344.47431,502.2446 L 317.18561,509.82107 316.00731,524.26774 C 315.35922,532.21343 312.24017,541.57974 309.07601,545.08179 300.97876,554.04379 277.41486,553.5211 268.06593,544.17217 Z M 260.78893,404.09012 C 260.78893,379.07547 259.52481,358.60893 257.97972,358.60893 256.43466,358.60893 241.3367,372.51498 224.42872,389.51125 207.41213,406.61669 197.80316,417.12029 194.23141,422.27601 198.63411,425.49956 206.36265,434.18851 225.70344,442.1395 241.90907,448.80161 255.26577,450.71001 261.37865,451.63186 260.36784,444.03057 260.78893,432.62945 260.78893,404.09012 Z M 370.05751,433.59413 385.89502,423.8303 353.43542,391.21962 C 335.58264,373.28375 319.71371,358.60893 318.17109,358.60893 316.62848,358.60893 315.36635,379.28013 315.36635,404.54492 L 315.36635,450.48093 334.79319,446.91943 C 341.297,445.62077 357.16593,439.62439 370.05751,433.59413 Z M 187.99232,346.78382 221.70658,314.94699 173.53068,314.94699 125.35476,314.94699 127.82145,328.0956 C 130.64302,343.13587 148.36805,381.00539 151.9161,379.57372 153.21516,379.04951 169.44945,364.29407 187.99232,346.78382 Z M 442.09586,355.29877 C 447.7901,342.79144 450.26519,332.45651 451.50807,326.95329 L 453.76779,314.94699 405.56428,314.94699 357.36078,314.94699 389.95551,347.69343 C 407.88261,365.70398 423.8984,380.43991 425.54613,380.43991 427.19386,380.43991 436.40165,367.8061 442.09586,355.29877 Z M 301.71748,319.32518 C 307.97513,316.08925 318.24641,305.30425 321.27659,298.05204 326.10629,286.49294 323.15041,274.25922 314.07895,264.31284 299.61248,248.45112 280.81979,248.3561 264.76795,263.48084 249.10411,278.23996 252.93909,298.73527 261.83281,309.14304 272.03319,321.07989 288.53887,326.14012 301.71748,319.32518 Z M 217.12699,256.6552 C 217.12699,255.61288 202.61733,240.31768 184.88329,222.66581 L 152.63962,190.57152 144.87851,203.12919 C 136.15948,217.23688 130.56563,232.47766 125.76452,258.64179 128.16507,258.97969 132.09719,258.55032 171.6458,258.55032 196.66045,258.55032 217.12699,257.69753 217.12699,256.6552 Z M 450.79168,248.75165 C 450.20345,243.96549 447.38719,229.31042 441.50363,216.19078 435.55898,202.9349 426.54144,191.23815 424.96416,191.23815 422.33342,191.23815 359.02852,254.04436 359.02771,256.6552 359.02738,257.69753 379.90325,258.20968 405.41853,257.79333 451.37355,257.04347 451.80034,256.95843 450.79168,248.75165 Z M 260.78893,169.33786 260.78893,121.96812 250.78306,124.22785 C 232.54857,125.02577 194.41019,146.10779 195.29602,150.04194 195.85212,152.51164 257.35386,216.70762 259.80344,216.70762 260.34547,216.70762 260.78893,195.39124 260.78893,169.33786 Z M 360.48445,134.19723 C 346.89599,127.81865 331.28478,125.68885 326.28183,125.06332 L 317.18561,123.926 316.17491,171.22643 315.16417,218.52687 349.97743,183.96116 384.79067,149.39546 360.48445,134.19723 Z"
     id="path5316"
     sodipodi:nodetypes="cccccsscccsscscssssssscccsccsscscccccscccccccccscccccccsccssssccccccsccssssccccssccccccccc"
     inkscape:connector-curvature="0" />
</svg>
