<?xml version="1.0" encoding="UTF-8" standalone="no"?>
<!-- Created with Inkscape (http://www.inkscape.org/) -->

<svg
   xmlns:dc="http://purl.org/dc/elements/1.1/"
   xmlns:cc="http://creativecommons.org/ns#"
   xmlns:rdf="http://www.w3.org/1999/02/22-rdf-syntax-ns#"
   xmlns:svg="http://www.w3.org/2000/svg"
   xmlns="http://www.w3.org/2000/svg"
   xmlns:sodipodi="http://sodipodi.sourceforge.net/DTD/sodipodi-0.dtd"
   xmlns:inkscape="http://www.inkscape.org/namespaces/inkscape"
   version="1.0"
   width="580"
   height="580"
   id="svg2"
   sodipodi:version="0.32"
   inkscape:version="0.91 r13725"
   sodipodi:docname="buddhist.svg"
   inkscape:output_extension="org.inkscape.output.svg.inkscape">
  <metadata
     id="metadata2975">
    <rdf:RDF>
      <cc:Work
         rdf:about="">
        <dc:format>image/svg+xml</dc:format>
        <dc:type
           rdf:resource="http://purl.org/dc/dcmitype/StillImage" />
        <cc:license
           rdf:resource="http://web.resource.org/cc/PublicDomain" />
        <dc:language>en</dc:language>
      </cc:Work>
    </rdf:RDF>
  </metadata>
  <sodipodi:namedview
     inkscape:window-height="972"
     inkscape:window-width="1280"
     inkscape:pageshadow="2"
     inkscape:pageopacity="0.0"
     guidetolerance="10.0"
     gridtolerance="10.0"
     objecttolerance="10.0"
     borderopacity="1.0"
     bordercolor="#666666"
     pagecolor="#ffffff"
     id="base"
     inkscape:zoom="0.65172414"
     inkscape:cx="83.209502"
     inkscape:cy="198.18879"
     inkscape:window-x="-8"
     inkscape:window-y="-8"
     inkscape:current-layer="svg2"
     showgrid="false"
     inkscape:window-maximized="1" />
  <defs
     id="defs4">
    <inkscape:perspective
       sodipodi:type="inkscape:persp3d"
       inkscape:vp_x="0 : 290 : 1"
       inkscape:vp_y="0 : 1000 : 0"
       inkscape:vp_z="580 : 290 : 1"
       inkscape:persp3d-origin="290 : 193.33333 : 1"
       id="perspective2441" />
    <inkscape:perspective
       id="perspective2466"
       inkscape:persp3d-origin="372.04724 : 350.78739 : 1"
       inkscape:vp_z="744.09448 : 526.18109 : 1"
       inkscape:vp_y="0 : 1000 : 0"
       inkscape:vp_x="0 : 526.18109 : 1"
       sodipodi:type="inkscape:persp3d" />
    <inkscape:perspective
       id="perspective3333"
       inkscape:persp3d-origin="372.04724 : 350.78739 : 1"
       inkscape:vp_z="744.09448 : 526.18109 : 1"
       inkscape:vp_y="0 : 1000 : 0"
       inkscape:vp_x="0 : 526.18109 : 1"
       sodipodi:type="inkscape:persp3d" />
    <inkscape:perspective
       id="perspective3401"
       inkscape:persp3d-origin="372.04724 : 350.78739 : 1"
       inkscape:vp_z="744.09448 : 526.18109 : 1"
       inkscape:vp_y="0 : 1000 : 0"
       inkscape:vp_x="0 : 526.18109 : 1"
       sodipodi:type="inkscape:persp3d" />
    <inkscape:perspective
       id="perspective3464"
       inkscape:persp3d-origin="372.04724 : 350.78739 : 1"
       inkscape:vp_z="744.09448 : 526.18109 : 1"
       inkscape:vp_y="0 : 1000 : 0"
       inkscape:vp_x="0 : 526.18109 : 1"
       sodipodi:type="inkscape:persp3d" />
    <inkscape:perspective
       id="perspective3581"
       inkscape:persp3d-origin="225 : 150 : 1"
       inkscape:vp_z="450 : 225 : 1"
       inkscape:vp_y="0 : 1000 : 0"
       inkscape:vp_x="0 : 225 : 1"
       sodipodi:type="inkscape:persp3d" />
    <inkscape:perspective
       id="perspective4312"
       inkscape:persp3d-origin="225 : 150 : 1"
       inkscape:vp_z="450 : 225 : 1"
       inkscape:vp_y="0 : 1000 : 0"
       inkscape:vp_x="0 : 225 : 1"
       sodipodi:type="inkscape:persp3d" />
  </defs>
  <path
     style="color:#000000;font-style:normal;font-variant:normal;font-weight:normal;font-stretch:normal;font-size:medium;line-height:normal;font-family:sans-serif;text-indent:0;text-align:start;text-decoration:none;text-decoration-line:none;text-decoration-style:solid;text-decoration-color:#000000;letter-spacing:normal;word-spacing:normal;text-transform:none;direction:ltr;block-progression:tb;writing-mode:lr-tb;baseline-shift:baseline;text-anchor:start;white-space:normal;clip-rule:nonzero;display:inline;overflow:visible;visibility:visible;opacity:1;isolation:auto;mix-blend-mode:normal;color-interpolation:sRGB;color-interpolation-filters:linearRGB;solid-color:#000000;solid-opacity:1;fill:#000080;fill-opacity:1;fill-rule:nonzero;stroke:none;stroke-width:20.13593864;stroke-linecap:round;stroke-linejoin:round;stroke-miterlimit:4;stroke-dasharray:none;stroke-dashoffset:0;stroke-opacity:1;color-rendering:auto;image-rendering:auto;shape-rendering:auto;text-rendering:auto;enable-background:accumulate"
     d="M 291.6582 24.789062 C 274.99965 25.013987 275.94215 37.9672 274.83398 49.619141 C 266.17555 51.550674 265.58648 50.080626 257.89453 51.986328 C 232.57852 58.258401 215.04105 68.783452 194.08984 89.742188 C 173.64788 110.1915 163.55015 127.55119 156.75 153.93945 L 152.67578 169.75781 L 144.03906 170.27734 C 132.51398 170.97144 126.19922 176.98182 126.19922 187.25586 C 126.19922 198.55879 133.6225 206.04102 144.83594 206.04102 C 148.42133 206.04102 150.29661 206.17364 153.68945 206.43555 C 164.81354 262.10827 210.65706 315.83564 262.49023 326.0332 L 275.84766 328.66211 L 275.84766 337.57227 C 275.84766 343.41218 277.435 348.06782 280.45312 351.08594 C 286.36876 357.00157 301.27872 357.3329 306.40234 351.66211 C 308.40449 349.44615 310.37703 343.51794 310.78711 338.49023 L 311.5332 329.34961 L 328.80078 324.55469 C 362.33783 315.24345 391.22393 294.94092 409.75391 267.6543 C 420.2675 252.17238 429.6843 230.62038 432.08398 216.54688 C 433.6162 207.56077 434.07525 207.13947 443.76953 205.83789 C 458.57724 203.84979 465.89515 192.67396 460.9043 179.66797 C 458.88934 174.41706 447.0335 168.78294 439.79688 169.63672 C 434.31459 170.28353 433.54239 169.43117 432.10352 161.14648 C 423.01236 108.80104 376.42152 61.99457 324.53906 51.326172 C 315.91024 49.551863 314.29329 49.404471 309.30859 48.916016 C 309.24864 34.189893 307.86107 25.313699 293.32617 24.806641 C 292.75151 24.786936 292.19558 24.781807 291.6582 24.789062 z M 275.84766 83.931641 L 275.84766 113.90625 C 275.84766 130.39179 275.56758 143.87891 275.22461 143.87891 C 273.67461 143.87891 234.75813 103.25804 234.40625 101.69531 C 233.84573 99.205935 257.97756 85.866221 269.51562 85.361328 L 275.84766 83.931641 z M 311.5332 85.169922 L 317.28906 85.890625 C 320.45472 86.286436 330.3334 87.633815 338.93164 91.669922 L 354.31055 101.28711 L 332.2832 123.1582 L 310.25391 145.0293 L 310.89453 115.09961 L 311.5332 85.169922 z M 207.41602 127.3418 L 227.81836 147.64844 C 239.03975 158.81784 248.2207 168.49671 248.2207 169.15625 C 248.2207 169.81579 235.26969 170.35547 219.44141 170.35547 C 194.41662 170.35547 191.92913 170.62787 190.41016 170.41406 C 193.44811 153.85844 196.98685 144.21389 202.50391 135.28711 L 207.41602 127.3418 z M 379.73047 127.76367 C 380.72851 127.76367 386.43573 135.16494 390.19727 143.55273 C 393.92015 151.85432 395.70201 161.1258 396.07422 164.1543 C 396.71246 169.34722 396.44179 169.40247 367.36328 169.87695 C 351.21823 170.1404 338.00956 169.81579 338.00977 169.15625 C 338.01028 167.50421 378.06584 127.76367 379.73047 127.76367 z M 294.3418 166.38672 C 299.72846 166.46004 304.99145 168.98362 309.56836 174.00195 C 315.30842 180.29562 317.17713 188.03547 314.12109 195.34961 C 312.20371 199.93852 305.70567 206.76298 301.74609 208.81055 C 293.40718 213.12277 282.96221 209.92231 276.50781 202.36914 C 270.88022 195.78352 268.45378 182.81359 278.36523 173.47461 C 283.44372 168.68944 288.95513 166.3134 294.3418 166.38672 z M 190.15039 206.04102 L 220.63477 206.04102 L 251.11719 206.04102 L 229.78516 226.18555 C 218.05197 237.26534 207.77902 246.6019 206.95703 246.93359 C 204.71197 247.8395 193.49632 223.87821 191.71094 214.36133 L 190.15039 206.04102 z M 336.95508 206.04102 L 367.45508 206.04102 L 397.95703 206.04102 L 396.52734 213.63867 C 395.7409 217.12089 394.17536 223.66008 390.57227 231.57422 C 386.9692 239.48836 381.14223 247.48242 380.09961 247.48242 C 379.05699 247.48242 368.92364 238.15808 357.58008 226.76172 L 336.95508 206.04102 z M 274.07031 233.66797 C 275.04798 233.66797 275.84766 246.61899 275.84766 262.44727 C 275.84766 280.50582 275.5811 287.7195 276.2207 292.5293 C 272.35271 291.94599 263.90076 290.73896 253.64648 286.52344 C 241.4084 281.49237 236.51828 275.99482 233.73242 273.95508 C 235.99249 270.69275 242.07242 264.0463 252.83984 253.22266 C 263.53854 242.46809 273.09266 233.66797 274.07031 233.66797 z M 312.15625 233.66797 C 313.13236 233.66797 323.17417 242.95362 334.4707 254.30273 L 355.00977 274.9375 L 344.98828 281.11523 C 336.831 284.93094 326.78918 288.72709 322.67383 289.54883 L 310.38281 291.80078 L 310.38281 262.73438 C 310.38281 246.74782 311.18015 233.66797 312.15625 233.66797 z M 207.05859 362.93359 A 10.068976 10.068976 0 0 0 196.99023 373 L 196.99023 541.92188 A 10.068976 10.068976 0 0 0 207.05859 551.98828 L 375.98047 551.98828 A 10.068976 10.068976 0 0 0 386.04688 541.92188 L 386.04688 373 A 10.068976 10.068976 0 0 0 375.98047 362.93359 L 207.05859 362.93359 z "
     id="path4148" />
</svg>
