<?xml version="1.0" encoding="UTF-8" standalone="no"?>
<!-- Created with Inkscape (http://www.inkscape.org/) -->

<svg
   xmlns:dc="http://purl.org/dc/elements/1.1/"
   xmlns:cc="http://creativecommons.org/ns#"
   xmlns:rdf="http://www.w3.org/1999/02/22-rdf-syntax-ns#"
   xmlns:svg="http://www.w3.org/2000/svg"
   xmlns="http://www.w3.org/2000/svg"
   xmlns:sodipodi="http://sodipodi.sourceforge.net/DTD/sodipodi-0.dtd"
   xmlns:inkscape="http://www.inkscape.org/namespaces/inkscape"
   version="1.0"
   width="580"
   height="580"
   id="svg2"
   sodipodi:version="0.32"
   inkscape:version="0.91 r13725"
   sodipodi:docname="bahai3.svg"
   inkscape:output_extension="org.inkscape.output.svg.inkscape">
  <metadata
     id="metadata2975">
    <rdf:RDF>
      <cc:Work
         rdf:about="">
        <dc:format>image/svg+xml</dc:format>
        <dc:type
           rdf:resource="http://purl.org/dc/dcmitype/StillImage" />
        <cc:license
           rdf:resource="http://web.resource.org/cc/PublicDomain" />
        <dc:language>en</dc:language>
      </cc:Work>
    </rdf:RDF>
  </metadata>
  <sodipodi:namedview
     inkscape:window-height="972"
     inkscape:window-width="1280"
     inkscape:pageshadow="2"
     inkscape:pageopacity="0.0"
     guidetolerance="10.0"
     gridtolerance="10.0"
     objecttolerance="10.0"
     borderopacity="1.0"
     bordercolor="#666666"
     pagecolor="#ffffff"
     id="base"
     inkscape:zoom="0.65172414"
     inkscape:cx="80.140719"
     inkscape:cy="67.765506"
     inkscape:window-x="-8"
     inkscape:window-y="-8"
     inkscape:current-layer="svg2"
     showgrid="false"
     inkscape:window-maximized="1" />
  <defs
     id="defs4">
    <inkscape:perspective
       sodipodi:type="inkscape:persp3d"
       inkscape:vp_x="0 : 290 : 1"
       inkscape:vp_y="0 : 1000 : 0"
       inkscape:vp_z="580 : 290 : 1"
       inkscape:persp3d-origin="290 : 193.33333 : 1"
       id="perspective2441" />
    <inkscape:perspective
       id="perspective2466"
       inkscape:persp3d-origin="372.04724 : 350.78739 : 1"
       inkscape:vp_z="744.09448 : 526.18109 : 1"
       inkscape:vp_y="0 : 1000 : 0"
       inkscape:vp_x="0 : 526.18109 : 1"
       sodipodi:type="inkscape:persp3d" />
    <inkscape:perspective
       id="perspective3333"
       inkscape:persp3d-origin="372.04724 : 350.78739 : 1"
       inkscape:vp_z="744.09448 : 526.18109 : 1"
       inkscape:vp_y="0 : 1000 : 0"
       inkscape:vp_x="0 : 526.18109 : 1"
       sodipodi:type="inkscape:persp3d" />
    <inkscape:perspective
       id="perspective3401"
       inkscape:persp3d-origin="372.04724 : 350.78739 : 1"
       inkscape:vp_z="744.09448 : 526.18109 : 1"
       inkscape:vp_y="0 : 1000 : 0"
       inkscape:vp_x="0 : 526.18109 : 1"
       sodipodi:type="inkscape:persp3d" />
    <inkscape:perspective
       id="perspective3464"
       inkscape:persp3d-origin="372.04724 : 350.78739 : 1"
       inkscape:vp_z="744.09448 : 526.18109 : 1"
       inkscape:vp_y="0 : 1000 : 0"
       inkscape:vp_x="0 : 526.18109 : 1"
       sodipodi:type="inkscape:persp3d" />
    <inkscape:perspective
       id="perspective3581"
       inkscape:persp3d-origin="225 : 150 : 1"
       inkscape:vp_z="450 : 225 : 1"
       inkscape:vp_y="0 : 1000 : 0"
       inkscape:vp_x="0 : 225 : 1"
       sodipodi:type="inkscape:persp3d" />
    <inkscape:perspective
       id="perspective4312"
       inkscape:persp3d-origin="225 : 150 : 1"
       inkscape:vp_z="450 : 225 : 1"
       inkscape:vp_y="0 : 1000 : 0"
       inkscape:vp_x="0 : 225 : 1"
       sodipodi:type="inkscape:persp3d" />
  </defs>
  <path
     style="opacity:1;fill:#000080"
     d="M 193.51942,484.23458 C 193.20348,448.74987 192.30292,419.07484 191.51819,418.2901 190.0243,416.79622 125.95929,425.82177 87.721318,432.91314 65.760571,436.98584 57.799468,435.84732 57.799468,428.6341 57.799468,426.61009 75.93872,402.45297 98.108919,374.95159 L 138.41833,324.94903 124.95036,317.00273 C 117.54295,312.63227 110.68517,309.05642 109.71085,309.05642 108.73649,309.05642 98.832495,303.20533 87.70198,296.05398 76.571443,288.9026 59.097464,278.33029 48.870949,272.55992 34.449766,264.42266 30.545749,260.20009 31.473679,253.74298 32.446921,246.97061 36.275785,244.87543 52.000378,242.51076 92.515779,236.41808 154.45101,222.68398 154.45101,219.79238 154.45101,218.13202 145.59223,191.36673 134.76482,160.31391 115.46421,104.96007 113.69405,92.556976 125.09472,92.556976 128.21924,92.556976 153.26915,105.60493 180.76122,121.55245 208.25333,137.49994 232.41617,150.54789 234.45644,150.54789 236.49676,150.54789 243.10904,136.34852 249.15042,118.99377 273.36605,49.430627 281.07373,32.683825 289.4673,31.395343 293.90171,30.714636 298.28335,32.454372 299.20428,35.261408 300.90581,40.44768 323.77159,104.1687 334.67791,134.11714 337.96886,143.15407 342.09,150.54789 343.83596,150.54789 345.5819,150.54789 368.48941,137.80901 394.74151,122.2392 449.47834,89.775501 452.87943,88.236661 460.07041,92.680921 464.35064,95.326241 461.44863,107.33102 444.97012,155.14673 433.75078,187.70188 424.24981,215.92849 423.85682,217.8725 423.18374,221.202 490.18348,235.96154 530.42551,241.34878 546.05208,243.44069 548.76881,245.06839 548.65178,252.26888 548.54272,258.97808 537.73294,267.11403 496.45995,291.55071 467.83008,308.50173 444.40563,323.84596 444.40563,325.64903 444.40563,327.45208 461.80292,350.34623 483.06626,376.525 504.32959,402.70373 521.72686,426.06842 521.72686,428.44656 521.72686,434.56452 506.71766,433.8681 448.2717,425.03827 420.12259,420.7856 394.68923,417.30616 391.75313,417.30616 387.42198,417.30616 386.41471,429.70683 386.41471,483.02921 386.41471,566.55276 386.35575,566.57383 332.28984,502.35951 310.80638,476.8435 291.65711,455.96677 289.73587,455.96677 287.81463,455.96677 269.27308,476.8435 248.53239,502.35951 221.41287,535.723 208.47299,548.75224 202.45791,548.75224 194.24024,548.75224 194.08374,547.62285 193.51942,484.23458 Z M 259.07491,425.03827 C 272.71762,408.02761 286.50838,394.12366 289.72106,394.1406 292.93372,394.15757 306.87049,408.03739 320.69166,424.98466 L 345.82107,455.79786 346.7868,422.05426 C 348.11982,375.4783 349.50882,370.90881 362.32547,370.93499 368.13238,370.9468 378.97254,372.52022 386.41471,374.43141 407.02976,379.72549 432.80746,382.13965 432.80746,378.77625 432.80746,377.12649 422.19271,362.4789 409.21913,346.22613 396.24557,329.97333 386.53613,314.31629 387.64273,311.43265 388.74927,308.54905 403.79308,297.84091 421.07341,287.63678 438.35377,277.43269 453.24921,267.85909 454.17439,266.36208 455.09959,264.8651 446.75612,262.27302 435.63339,260.60195 424.5106,258.93084 414.5403,257.32117 413.47713,257.02492 412.41397,256.72863 403.2804,255.15997 393.18032,253.53898 370.53174,249.90405 370.04863,246.12877 386.42782,200.77044 392.81401,183.08533 397.28217,167.85881 396.35705,166.93371 395.43195,166.00858 379.60499,174.12141 361.18603,184.96221 342.76703,195.80301 326.18196,204.67276 324.33032,204.67276 319.51405,204.67276 315.053,195.20373 302.88114,159.14475 296.97855,141.65848 291.06004,127.35154 289.72884,127.35154 288.39767,127.35154 281.33681,144.0528 274.03812,164.46549 266.73937,184.87814 258.7313,202.4085 256.24232,203.42182 252.01664,205.14221 238.02011,198.28889 197.9442,174.87637 188.90729,169.59695 181.51343,167.04384 181.51343,169.20281 181.51343,171.36177 186.73263,187.91523 193.11163,205.98831 199.49064,224.06137 204.70981,241.51845 204.70981,244.7818 204.70981,251.00793 195.49153,253.53055 145.66561,260.93934 135.51777,262.44827 126.3863,265.02376 125.37339,266.6627 124.36047,268.30159 129.25681,272.85656 136.25411,276.78478 175.55403,298.84747 189.24084,307.59574 190.85801,311.68629 191.85021,314.19585 187.64169,322.89449 181.50574,331.01657 175.36984,339.13868 164.057,354.1702 156.36614,364.41994 L 142.38271,383.05587 160.98156,380.5098 C 171.21091,379.10942 185.66947,376.3871 193.11163,374.46013 200.5538,372.53314 211.4271,370.9468 217.27451,370.93499 L 227.90618,370.91341 227.95896,404.74146 C 228.00375,433.44275 230.42786,455.96677 233.47199,455.96677 233.91087,455.96677 245.43219,442.04895 259.07491,425.03827 Z"
     id="path4757"
     sodipodi:nodetypes="cssscccssssssssssssssssssssssssssssssssccscccssssssssssssssssssssssssssscccscccsc"
     inkscape:connector-curvature="0" />
</svg>
