<?xml version="1.0" encoding="UTF-8" standalone="no"?>
<!-- Created with Inkscape (http://www.inkscape.org/) -->

<svg
   xmlns:dc="http://purl.org/dc/elements/1.1/"
   xmlns:cc="http://creativecommons.org/ns#"
   xmlns:rdf="http://www.w3.org/1999/02/22-rdf-syntax-ns#"
   xmlns:svg="http://www.w3.org/2000/svg"
   xmlns="http://www.w3.org/2000/svg"
   xmlns:sodipodi="http://sodipodi.sourceforge.net/DTD/sodipodi-0.dtd"
   xmlns:inkscape="http://www.inkscape.org/namespaces/inkscape"
   version="1.0"
   width="580"
   height="580"
   id="svg2"
   sodipodi:version="0.32"
   inkscape:version="0.91 r13725"
   sodipodi:docname="diy.svg"
   inkscape:output_extension="org.inkscape.output.svg.inkscape">
  <metadata
     id="metadata2975">
    <rdf:RDF>
      <cc:Work
         rdf:about="">
        <dc:format>image/svg+xml</dc:format>
        <dc:type
           rdf:resource="http://purl.org/dc/dcmitype/StillImage" />
        <cc:license
           rdf:resource="http://web.resource.org/cc/PublicDomain" />
        <dc:language>en</dc:language>
      </cc:Work>
    </rdf:RDF>
  </metadata>
  <sodipodi:namedview
     inkscape:window-height="972"
     inkscape:window-width="1280"
     inkscape:pageshadow="2"
     inkscape:pageopacity="0.0"
     guidetolerance="10.0"
     gridtolerance="10.0"
     objecttolerance="10.0"
     borderopacity="1.0"
     bordercolor="#666666"
     pagecolor="#ffffff"
     id="base"
     inkscape:zoom="0.92167712"
     inkscape:cx="247.37791"
     inkscape:cy="339.96537"
     inkscape:window-x="-8"
     inkscape:window-y="-8"
     inkscape:current-layer="svg2"
     showgrid="false"
     inkscape:window-maximized="1" />
  <defs
     id="defs4">
    <clipPath
       id="clipoutline2"
       clipPathUnits="userSpaceOnUse">
      <path
         d="M 55.8,12 L 56.56,12.16 C 65.4,9.22 85.24,20.8 80.82,31.12 C 79.7,32.74 79.89,35.62 81.24,37.43 L 56.43,62.25 C 55.04,60.86 51.95,60.89 50.53,62.25 L 9.5,101.63 C 5.76,105.22 8.7,108.27 10.28,109.88 L 17.64,117.24 C 19.25,118.84 23.5,121 26.52,117.8 L 65.24,76.99 C 66.59,75.57 66.6,72.52 65.24,71.12 C 65.24,71.12 65.25,71.1 65.24,71.1 L 90.15,46.2 C 92.78,48.57 95.263827,48.774854 97.62,48.13 C 102.17057,46.884568 104.70725,51.336643 107.43,54.59 L 106.2,55.8 C 104.38,57.64 104.55,60.74 106.59,62.78 C 108.63,64.82 111.74,64.99 113.56,63.17 L 121.7,55.04 C 123.52,53.2 123.35,50.1 121.3,48.07 C 119.46,46.22 116.79,45.98 114.93,47.3 C 109.35,41.04 112.28,40.1 104.92,31.95 L 91.13,17.86 C 81.2,8.12 68.3,8.13 55.8,12 z"
         id="outline2" />
    </clipPath>
    <clipPath
       id="clipoutline1"
       clipPathUnits="userSpaceOnUse">
      <path
         d="M 22.42,17.2 L 35.38,30.15 L 32.88,38.93 L 24.1,41.43 L 11.14,28.47 L 5.28,34.33 L 20.17,55.79 L 37.73,52.45 L 99.36,118.07 C 108.8,127.58 121.53,113.32 112.7,105.2 L 46.85,42.92 L 50.86,25.16 L 28.72,10.89 L 22.42,17.2 z M 103.48,109.17 C 105.16,107.49 107.88,107.49 109.56,109.17 C 111.24,110.85 111.24,113.57 109.56,115.25 C 107.88,116.92 105.16,116.92 103.48,115.25 C 101.8,113.57 101.8,110.85 103.48,109.17 z"
         id="outline1" />
    </clipPath>
  </defs>
  <g
     id="layer3"
     inkscape:label="Layout"
     style="display:none;stroke:#757575;stroke-opacity:1"
     transform="matrix(48.14969,0,0,48.14969,-536.27327,-33.306752)">
    <rect
       style="fill:none;stroke:#757575;stroke-width:0.10000000000000001;stroke-miterlimit:4;stroke-dasharray:none;stroke-opacity:1;display:inline"
       id="rect4134"
       width="10"
       height="10"
       x="1"
       y="1" />
    <rect
       style="fill:none;stroke:#757575;stroke-width:0.10000000000000001;stroke-miterlimit:4;stroke-dasharray:none;stroke-opacity:1;display:inline"
       id="rect4136"
       width="8"
       height="8"
       x="2"
       y="2" />
  </g>
  <path
     style="fill:#000080;fill-rule:evenodd;stroke:none;stroke-width:4.02631807px;stroke-linecap:butt;stroke-linejoin:miter;stroke-opacity:1"
     d="M 160.59766 50.734375 C 105.95444 51.262193 70.145991 87.125765 46.171875 132.60156 L 48.726562 130.93555 C 65.11675 98.210717 152.40278 75.265175 168.79297 116.21289 C 170.18195 123.82459 178.70979 131.29634 187.48828 132.57422 L 187.51562 270.44727 C 179.79281 270.44727 171.29169 279.1131 171.125 286.83594 L 166.54102 510.21484 C 166.12432 530.57756 182.76513 530.88347 191.62695 530.9668 L 232.51953 530.9668 C 241.43689 530.939 259.24415 525.13264 258.74414 507.85352 L 252.9375 286.91992 C 252.74303 279.22486 244.29811 270.72443 236.63086 270.61328 C 236.63086 270.61328 236.60394 270.5308 236.57617 270.55859 L 236.60352 132.18555 C 250.4935 131.46326 257.96278 125.13178 262.7168 116.79492 C 271.89849 100.69365 291.31244 106.01623 307.91406 107.49023 L 307.85938 114.26758 C 307.91492 124.43505 316.99783 132.57422 328.33203 132.57422 C 339.66628 132.57422 348.7793 124.40683 348.7793 114.29492 L 348.80664 69.097656 C 348.75109 58.930148 339.66628 50.790152 328.33203 50.845703 C 318.08124 50.817927 309.99819 57.568309 308.49805 66.402344 C 275.60658 64.513315 281.13363 53.763001 238.04688 51.568359 L 160.59766 50.734375 z M 417.68164 52.839844 C 409.10893 53.010653 400.57852 56.061461 394.25 61.873047 C 387.92307 67.683171 383.87243 76.302181 384.32617 87.1875 C 384.32629 87.190239 384.32606 87.192573 384.32617 87.195312 L 393.09375 401.82422 L 339.28125 435.81055 L 359.20898 528.00391 L 393.3418 527.97656 L 393.3418 526.27734 L 393.31836 463.45312 L 419.40234 448.92969 L 445.48828 463.45312 L 445.48828 528.00195 L 477.47852 528.00195 L 494.11133 435.97656 L 442.48828 400.85352 L 452.28711 88.310547 L 452.28711 88.287109 C 452.33171 76.213864 448.0067 67.156022 441.46289 61.271484 C 434.91908 55.386947 426.25435 52.669035 417.68164 52.839844 z M 418.51172 71.802734 C 425.84628 71.824623 431.77108 77.749429 431.79297 85.083984 C 431.78977 92.44039 425.87282 98.355469 418.51562 98.355469 C 411.15646 98.355469 405.24023 92.437299 405.24023 85.078125 C 405.24023 77.720278 411.15439 71.804866 418.51172 71.802734 z "
     id="path4658" />
</svg>
