<?xml version="1.0" encoding="UTF-8" standalone="no"?>
<!-- Created with Inkscape (http://www.inkscape.org/) -->

<svg
   xmlns:dc="http://purl.org/dc/elements/1.1/"
   xmlns:cc="http://creativecommons.org/ns#"
   xmlns:rdf="http://www.w3.org/1999/02/22-rdf-syntax-ns#"
   xmlns:svg="http://www.w3.org/2000/svg"
   xmlns="http://www.w3.org/2000/svg"
   xmlns:sodipodi="http://sodipodi.sourceforge.net/DTD/sodipodi-0.dtd"
   xmlns:inkscape="http://www.inkscape.org/namespaces/inkscape"
   version="1.0"
   width="580"
   height="580"
   id="svg2"
   sodipodi:version="0.32"
   inkscape:version="0.91 r13725"
   sodipodi:docname="butcher.svg"
   inkscape:output_extension="org.inkscape.output.svg.inkscape">
  <metadata
     id="metadata10">
    <rdf:RDF>
      <cc:Work
         rdf:about="">
        <dc:format>image/svg+xml</dc:format>
        <dc:type
           rdf:resource="http://purl.org/dc/dcmitype/StillImage" />
        <cc:license
           rdf:resource="http://web.resource.org/cc/PublicDomain" />
        <dc:language>en</dc:language>
      </cc:Work>
    </rdf:RDF>
  </metadata>
  <sodipodi:namedview
     inkscape:window-height="972"
     inkscape:window-width="1280"
     inkscape:pageshadow="2"
     inkscape:pageopacity="0.0"
     guidetolerance="10.0"
     gridtolerance="10.0"
     objecttolerance="10.0"
     borderopacity="1.0"
     bordercolor="#666666"
     pagecolor="#ffffff"
     id="base"
     showgrid="false"
     inkscape:zoom="1.0610557"
     inkscape:cx="328.25684"
     inkscape:cy="153.73396"
     inkscape:window-x="-8"
     inkscape:window-y="-8"
     inkscape:current-layer="svg2"
     inkscape:window-maximized="1" />
  <defs
     id="defs4">
    <clipPath
       id="clipoutline2"
       clipPathUnits="userSpaceOnUse">
      <path
         d="M 55.8,12 L 56.56,12.16 C 65.4,9.22 85.24,20.8 80.82,31.12 C 79.7,32.74 79.89,35.62 81.24,37.43 L 56.43,62.25 C 55.04,60.86 51.95,60.89 50.53,62.25 L 9.5,101.63 C 5.76,105.22 8.7,108.27 10.28,109.88 L 17.64,117.24 C 19.25,118.84 23.5,121 26.52,117.8 L 65.24,76.99 C 66.59,75.57 66.6,72.52 65.24,71.12 C 65.24,71.12 65.25,71.1 65.24,71.1 L 90.15,46.2 C 92.78,48.57 95.263827,48.774854 97.62,48.13 C 102.17057,46.884568 104.70725,51.336643 107.43,54.59 L 106.2,55.8 C 104.38,57.64 104.55,60.74 106.59,62.78 C 108.63,64.82 111.74,64.99 113.56,63.17 L 121.7,55.04 C 123.52,53.2 123.35,50.1 121.3,48.07 C 119.46,46.22 116.79,45.98 114.93,47.3 C 109.35,41.04 112.28,40.1 104.92,31.95 L 91.13,17.86 C 81.2,8.12 68.3,8.13 55.8,12 z"
         id="outline2" />
    </clipPath>
    <clipPath
       id="clipoutline1"
       clipPathUnits="userSpaceOnUse">
      <path
         d="M 22.42,17.2 L 35.38,30.15 L 32.88,38.93 L 24.1,41.43 L 11.14,28.47 L 5.28,34.33 L 20.17,55.79 L 37.73,52.45 L 99.36,118.07 C 108.8,127.58 121.53,113.32 112.7,105.2 L 46.85,42.92 L 50.86,25.16 L 28.72,10.89 L 22.42,17.2 z M 103.48,109.17 C 105.16,107.49 107.88,107.49 109.56,109.17 C 111.24,110.85 111.24,113.57 109.56,115.25 C 107.88,116.92 105.16,116.92 103.48,115.25 C 101.8,113.57 101.8,110.85 103.48,109.17 z"
         id="outline1" />
    </clipPath>
    <inkscape:perspective
       sodipodi:type="inkscape:persp3d"
       inkscape:vp_x="0 : 290 : 1"
       inkscape:vp_y="0 : 1000 : 0"
       inkscape:vp_z="580 : 290 : 1"
       inkscape:persp3d-origin="290 : 193.33333 : 1"
       id="perspective12" />
    <style
       type="text/css"
       id="style6">
   
    .fil0 {fill:#EF7900}
   
  </style>
    <inkscape:perspective
       id="perspective6807"
       inkscape:persp3d-origin="29.116032 : 19.410688 : 1"
       inkscape:vp_z="58.232063 : 29.116032 : 1"
       inkscape:vp_y="0 : 1000 : 0"
       inkscape:vp_x="0 : 29.116032 : 1"
       sodipodi:type="inkscape:persp3d" />
    <inkscape:perspective
       id="perspective6954"
       inkscape:persp3d-origin="290 : 193.33333 : 1"
       inkscape:vp_z="580 : 290 : 1"
       inkscape:vp_y="0 : 1000 : 0"
       inkscape:vp_x="0 : 290 : 1"
       sodipodi:type="inkscape:persp3d" />
    <marker
       viewBox="0 0 10 10"
       refY="5"
       refX="10"
       orient="auto"
       markerWidth="4"
       markerUnits="strokeWidth"
       markerHeight="3"
       id="ArrowStart">
      <path
         id="path2295"
         d="M 10 0 L 0 5 L 10 10 z" />
    </marker>
    <marker
       viewBox="0 0 10 10"
       refY="5"
       refX="0"
       orient="auto"
       markerWidth="4"
       markerUnits="strokeWidth"
       markerHeight="3"
       id="ArrowEnd">
      <path
         id="path2292"
         d="M 0 0 L 10 5 L 0 10 z" />
    </marker>
    <inkscape:perspective
       id="perspective7597"
       inkscape:persp3d-origin="178.5405 : 158.483 : 1"
       inkscape:vp_z="357.08099 : 237.7245 : 1"
       inkscape:vp_y="0 : 1000 : 0"
       inkscape:vp_x="0 : 237.7245 : 1"
       sodipodi:type="inkscape:persp3d" />
  </defs>
  <path
     style="color:#000000;font-style:normal;font-variant:normal;font-weight:normal;font-stretch:normal;font-size:medium;line-height:normal;font-family:sans-serif;text-indent:0;text-align:start;text-decoration:none;text-decoration-line:none;text-decoration-style:solid;text-decoration-color:#000000;letter-spacing:normal;word-spacing:normal;text-transform:none;direction:ltr;block-progression:tb;writing-mode:lr-tb;baseline-shift:baseline;text-anchor:start;white-space:normal;clip-rule:nonzero;display:inline;overflow:visible;visibility:visible;opacity:1;isolation:auto;mix-blend-mode:normal;color-interpolation:sRGB;color-interpolation-filters:linearRGB;solid-color:#000000;solid-opacity:1;fill:#800000;fill-opacity:1;fill-rule:nonzero;stroke:none;stroke-width:1.85570145;stroke-linecap:butt;stroke-linejoin:miter;stroke-miterlimit:4;stroke-dasharray:none;stroke-dashoffset:0;stroke-opacity:1;color-rendering:auto;image-rendering:auto;shape-rendering:auto;text-rendering:auto;enable-background:accumulate"
     d="M 478.27148 118.07227 C 473.95038 118.0846 470.34668 119.259 467.4375 120.65625 L 467.43359 120.66016 L 467.42773 120.66211 C 462.36197 123.17214 458.74248 126.40324 455.36719 129.63867 L 455.36523 129.64062 L 455.36133 129.64453 C 450.37109 134.5205 445.99452 139.82052 442.27148 143.95312 L 442.27148 143.95508 C 440.42564 146.01362 438.76527 147.79804 437.58203 148.875 L 437.58008 148.87695 L 437.57617 148.87891 C 437.00656 149.40534 436.54309 149.76977 436.31445 149.93359 L 413.71875 159.65039 C 412.97424 159.64211 412.27049 159.65039 411.53125 159.65039 L 411.5293 159.65039 C 380.21377 159.69332 352.25165 168.77346 325.94922 177.0332 L 325.94727 177.0332 L 325.94531 177.0332 C 296.90297 186.23146 269.23017 197.131 241.38281 202.52344 L 241.38086 202.52344 C 228.63734 205.02794 214.18474 205.72509 199.03906 206.91602 L 199.03711 206.91602 L 199.03516 206.91602 C 183.90105 208.14205 167.9774 209.8151 152.29492 215.31641 C 138.41192 220.18559 126.62202 225.72582 114.00977 233.61523 L 114.00781 233.61523 L 114.00781 233.61719 C 108.43086 237.13949 103.57063 241.34152 98.988281 244.73047 L 98.982422 244.73633 L 98.976562 244.74023 C 96.759259 246.43778 94.582521 247.88437 92.775391 248.93945 C 90.96826 249.99454 89.450813 250.65799 88.90625 250.77539 L 88.734375 250.8125 L 81.429688 255.68164 L 81.40625 255.70117 C 81.40625 255.70117 74.989403 260.60221 71.607422 263.50195 L 58.185547 275.00781 C 51.186011 281.00929 46.701693 291.37246 43.892578 302.26953 C 41.083464 313.1666 39.980626 324.61684 39.984375 332.86914 L 39.984375 332.92773 L 39.984375 333.16211 L 39.984375 333.16406 C 40.102209 358.39728 48.288998 382.24162 61.347656 403.41016 C 74.464454 424.66571 92.470325 443.4222 112.89062 459.21094 L 112.89258 459.21289 L 112.89453 459.21289 C 153.92087 490.68235 205.41558 511.17121 254.14062 511.36523 L 254.14258 511.36523 L 254.14453 511.36523 C 263.66138 511.36151 273.11325 510.56187 282.32031 508.79688 C 291.05793 507.1927 298.64275 503.03335 304.41211 497.72266 L 304.41211 497.72461 C 306.10406 496.17055 308.63992 494.43538 311.05859 492.60938 C 313.38755 490.85109 315.57823 489.01273 316.9082 486.96484 C 318.9452 485.98856 320.18306 484.77363 321.15039 483.4707 C 322.15691 482.11499 322.9575 480.70851 324.45898 479.12891 L 324.46289 479.12305 C 329.2235 474.18486 332.3263 468.75059 335.85938 462.16211 L 335.85938 462.16016 L 335.86133 462.1582 C 341.66455 451.19186 348.77129 439.43675 354.44531 426.72852 L 354.44531 426.72656 L 354.44727 426.72461 C 360.947 411.99718 363.26477 396.52535 365.47461 382.12891 L 365.47656 382.125 L 365.47656 382.12305 C 367.61426 367.72682 369.62897 354.29899 373.59961 344.04883 L 373.60156 344.04688 L 373.60156 344.04492 C 377.64249 333.4487 384.68645 324.48084 393.53906 314.88281 L 393.54102 314.88281 L 393.54102 314.88086 C 402.3197 305.29602 412.83818 295.30828 421.85938 282.36719 L 421.86133 282.36523 L 421.86328 282.36328 C 428.78618 272.31334 437.02778 263.34627 444.26367 252.00977 L 444.26562 252.00781 C 450.56841 242.20881 455.68328 230.13266 456.85742 215.63477 L 474.55078 206.33203 L 476.14648 204.67383 L 476.14844 204.67188 C 478.00924 202.83287 479.36062 202.12521 481.75 201.35938 L 481.75195 201.35938 L 481.75586 201.35938 C 485.15275 200.25194 490.90217 199.98898 498.24609 199.37109 L 498.25 199.37109 L 498.25586 199.37109 C 505.45385 198.69651 515.26985 197.18861 524.09375 190.06445 L 524.0957 190.0625 C 527.69845 187.13173 530.78511 183.97942 533.16992 180.15039 L 533.16992 180.14844 C 535.55713 176.34411 537.15717 171.66217 537.13867 166.78516 C 537.1519 162.80475 536.06953 158.98962 534.48242 155.91992 L 534.48242 155.91797 L 534.48047 155.91602 C 531.67504 150.55607 527.83015 147.18383 524.10938 144.51562 L 524.10547 144.51172 L 524.09961 144.50977 C 518.43912 140.55346 512.40524 138.00868 506.77539 135.98828 L 506.77148 135.98633 L 506.76953 135.98633 C 504.45273 135.16936 502.20833 134.45106 500.08984 133.83203 C 498.87515 131.2057 497.44669 128.75037 495.52148 126.41211 L 495.51953 126.41016 L 495.51562 126.40625 C 493.57596 124.09171 491.08274 121.91045 488.03125 120.375 C 484.984 118.81654 481.47949 118.05146 478.27539 118.07227 L 478.27148 118.07227 z M 478.5332 133.83203 C 480.18221 133.89424 481.70133 134.60107 483.21875 136.30078 C 484.95294 138.24331 486.60698 141.52862 487.99609 146.50391 L 488.14648 147.03906 L 488.6875 147.16016 C 495.27314 148.64101 507.43601 152.08236 514.88477 157.28711 C 518.60915 159.88948 521.07005 162.86176 521.3457 166.11523 C 521.62136 169.3687 519.78677 173.23067 514.16992 177.77734 C 507.38124 183.27353 499.00434 183.52775 490.27344 184.18945 C 481.59634 184.84708 472.56583 185.97442 465.06055 193.49414 L 443.12891 205.00586 L 443.07227 203.87305 L 441.89062 204.30078 C 436.26092 206.34456 430.5593 208.68359 424.9043 209.86523 C 424.01843 203.98504 422.73205 198.24849 421.18164 192.63281 L 420.90625 191.63672 L 419.94531 192.01758 C 415.93282 193.60647 411.175 194.95077 407.02148 195.79883 C 408.63329 188.31982 410.47519 182.36344 414.32227 176.5625 L 442.86523 164.33008 L 442.86719 164.33008 C 445.47152 163.19811 448.1804 160.75209 451.08203 157.72266 C 453.98366 154.69322 457.04598 151.06563 460.15234 147.56055 C 463.25871 144.05546 466.41095 140.67286 469.43555 138.15039 C 472.46014 135.62792 475.35128 134.01157 477.81836 133.84375 C 478.05962 133.82734 478.29763 133.82314 478.5332 133.83203 z M 110.87695 266.23828 C 111.89857 266.20686 112.95602 266.23875 114.03906 266.23828 C 139.18391 266.28839 165.5654 274.90987 185.73242 282.53125 C 202.12683 288.76281 215.62331 294.51986 227.89062 302.50586 C 240.15765 310.47458 251.01272 320.67238 262.16406 335.23047 C 279.67182 358.10627 297.85116 386.66814 305.20312 416.36719 C 306.96193 423.54786 308.12913 432.68134 308.13281 442.24023 C 308.10871 452.79096 306.74397 463.81453 302.58594 473.35742 L 302.58398 473.36133 L 302.58203 473.36523 C 298.57544 482.77559 290.8739 491.14862 279.375 493.28711 L 279.37109 493.28711 L 279.36914 493.28906 C 271.24023 494.84855 262.80078 495.588 254.20312 495.5918 C 209.99408 495.51799 160.98348 476.34813 122.49219 446.72266 L 122.49219 446.72461 C 84.146706 417.09118 55.886381 376.70978 55.757812 332.92773 L 55.757812 332.92578 L 55.757812 332.92383 C 55.754684 318.75438 58.811989 304.3091 65.427734 290.16406 L 76.886719 277.39648 L 89.519531 269.65625 C 96.39285 267.5107 103.5551 266.46344 110.87695 266.23828 z M 141.92578 331.88281 C 135.62905 331.90585 129.55213 333.02847 124.42773 335.55469 C 121.87117 336.83477 119.56252 338.46411 117.71875 340.75781 L 117.71875 340.75977 L 117.7168 340.76172 C 115.90563 342.99324 114.65443 346.08538 114.67578 349.26953 L 114.67578 349.27148 L 114.67578 349.27344 C 114.74543 354.87305 117.80284 359.81288 122.95508 364.6543 L 123.5 365.10156 L 124.12109 365.46289 L 141.49219 374.92773 L 141.92969 375.07422 L 141.93555 375.07617 C 145.92391 376.37218 153.70405 378.93282 161.5957 378.97266 C 164.49662 378.96482 167.44167 378.61433 170.35742 377.4707 L 170.35938 377.46875 L 170.36133 377.46875 C 173.22014 376.36894 176.13118 374.24307 177.89062 371.14844 L 177.89258 371.14648 L 177.89258 371.14453 C 179.19286 368.88024 179.68979 366.34348 179.68359 364.01953 C 179.58968 358.26777 177.0803 353.4702 174.32617 349.21094 C 174.32502 349.20921 174.32537 349.2068 174.32422 349.20508 C 171.50529 344.98822 168.39579 341.56195 165.86133 339.37695 C 159.26441 333.8691 150.41504 331.94447 141.93555 331.88281 L 141.92578 331.88281 z M 141.92969 344.87305 L 141.93555 344.87305 L 141.94141 344.87305 C 148.18062 344.81004 154.61393 346.79966 157.37695 349.27539 L 157.38867 349.28711 L 157.40039 349.29688 C 158.74914 350.42509 161.54045 353.35729 163.54102 356.40039 L 163.54688 356.4082 L 163.55078 356.41602 C 164.58023 357.91654 165.40409 359.51693 165.94727 360.89844 C 166.49044 362.27995 166.72423 363.49969 166.69531 363.95117 L 166.69531 363.97461 L 166.69336 364 C 166.68739 364.50323 166.66237 364.48954 166.58008 364.63672 C 166.32999 365.04053 166.37975 365.06978 165.57812 365.41602 C 164.86295 365.70664 163.37774 365.99295 161.5957 365.98242 L 161.58984 365.98242 L 161.58203 365.98242 C 156.90454 366.02282 150.31961 364.17361 146.69141 362.9707 L 131.21484 354.51953 C 129.60565 352.9325 128.66816 351.63497 128.18164 350.73633 C 127.93385 350.27864 127.79467 349.91788 127.72461 349.67578 C 127.66467 349.46866 127.67283 349.32484 127.66211 349.38281 L 127.66406 349.34766 C 127.68988 348.98824 127.55017 349.31365 127.89453 348.8418 L 127.89453 348.83984 L 127.89648 348.83984 C 128.03078 348.65462 128.56185 348.16206 129.36133 347.68164 C 130.16081 347.20123 131.23794 346.69306 132.53125 346.2793 L 132.53516 346.27734 L 132.53906 346.27539 C 135.12692 345.41812 138.47775 344.86405 141.92969 344.87305 z "
     id="path4205" />
</svg>
