<?xml version="1.0" encoding="UTF-8" standalone="no"?>
<!-- Created with Inkscape (http://www.inkscape.org/) -->

<svg
   xmlns:dc="http://purl.org/dc/elements/1.1/"
   xmlns:cc="http://creativecommons.org/ns#"
   xmlns:rdf="http://www.w3.org/1999/02/22-rdf-syntax-ns#"
   xmlns:svg="http://www.w3.org/2000/svg"
   xmlns="http://www.w3.org/2000/svg"
   xmlns:sodipodi="http://sodipodi.sourceforge.net/DTD/sodipodi-0.dtd"
   xmlns:inkscape="http://www.inkscape.org/namespaces/inkscape"
   version="1.0"
   width="580"
   height="580"
   id="svg2"
   sodipodi:version="0.32"
   inkscape:version="0.91 r13725"
   sodipodi:docname="hifi.svg"
   inkscape:output_extension="org.inkscape.output.svg.inkscape">
  <metadata
     id="metadata2975">
    <rdf:RDF>
      <cc:Work
         rdf:about="">
        <dc:format>image/svg+xml</dc:format>
        <dc:type
           rdf:resource="http://purl.org/dc/dcmitype/StillImage" />
        <cc:license
           rdf:resource="http://web.resource.org/cc/PublicDomain" />
        <dc:language>en</dc:language>
        <dc:title />
      </cc:Work>
    </rdf:RDF>
  </metadata>
  <sodipodi:namedview
     inkscape:window-height="972"
     inkscape:window-width="1280"
     inkscape:pageshadow="2"
     inkscape:pageopacity="0.0"
     guidetolerance="10.0"
     gridtolerance="10.0"
     objecttolerance="10.0"
     borderopacity="1.0"
     bordercolor="#666666"
     pagecolor="#ffffff"
     id="base"
     inkscape:zoom="0.92167712"
     inkscape:cx="111.63769"
     inkscape:cy="198.28305"
     inkscape:window-x="-8"
     inkscape:window-y="-8"
     inkscape:current-layer="svg2"
     showgrid="false"
     inkscape:window-maximized="1"
     showguides="true"
     inkscape:guide-bbox="true" />
  <defs
     id="defs4">
    <inkscape:perspective
       sodipodi:type="inkscape:persp3d"
       inkscape:vp_x="0 : 290 : 1"
       inkscape:vp_y="6.1230318e-14 : 1000 : 0"
       inkscape:vp_z="580 : 290 : 1"
       inkscape:persp3d-origin="290 : 193.33333 : 1"
       id="perspective2441" />
    <inkscape:perspective
       id="perspective3452"
       inkscape:persp3d-origin="30 : 20 : 1"
       inkscape:vp_z="60 : 30 : 1"
       inkscape:vp_y="0 : 1000 : 0"
       inkscape:vp_x="0 : 30 : 1"
       sodipodi:type="inkscape:persp3d" />
    <symbol
       viewBox="244.5 110 489 219.9"
       id="symbol-university">
      <path
         id="path4460"
         d="M79,43l57,119c0,0,21-96,104-96s124,106,124,106l43-133l82-17L0,17L79,43z" />
      <path
         id="path4462"
         d="M94,176l-21,39"
         stroke-width="20"
         stroke="#000000"
         fill="none" />
      <path
         id="path4464"
         d="M300,19c0,10.5-22.6,19-50.5,19S199,29.5,199,19s22.6-19,50.5-19S300,8.5,300,19z" />
      <path
         id="path4466"
         d="M112,216l-16-38L64,88c0,0-9-8-4-35s16-24,16-24"
         stroke-width="20"
         stroke="#000000"
         ill="none" />
    </symbol>
    <inkscape:perspective
       id="perspective4471"
       inkscape:persp3d-origin="372.04724 : 350.78739 : 1"
       inkscape:vp_z="744.09448 : 526.18109 : 1"
       inkscape:vp_y="0 : 1000 : 0"
       inkscape:vp_x="0 : 526.18109 : 1"
       sodipodi:type="inkscape:persp3d" />
    <inkscape:perspective
       id="perspective4668"
       inkscape:persp3d-origin="6 : 4 : 1"
       inkscape:vp_z="12 : 6 : 1"
       inkscape:vp_y="0 : 1000 : 0"
       inkscape:vp_x="0 : 6 : 1"
       sodipodi:type="inkscape:persp3d" />
    <inkscape:perspective
       id="perspective3826"
       inkscape:persp3d-origin="0.5 : 0.33333333 : 1"
       inkscape:vp_z="1 : 0.5 : 1"
       inkscape:vp_y="0 : 1000 : 0"
       inkscape:vp_x="0 : 0.5 : 1"
       sodipodi:type="inkscape:persp3d" />
    <inkscape:perspective
       id="perspective3855"
       inkscape:persp3d-origin="0.5 : 0.33333333 : 1"
       inkscape:vp_z="1 : 0.5 : 1"
       inkscape:vp_y="0 : 1000 : 0"
       inkscape:vp_x="0 : 0.5 : 1"
       sodipodi:type="inkscape:persp3d" />
    <inkscape:perspective
       id="perspective3909"
       inkscape:persp3d-origin="0.5 : 0.33333333 : 1"
       inkscape:vp_z="1 : 0.5 : 1"
       inkscape:vp_y="0 : 1000 : 0"
       inkscape:vp_x="0 : 0.5 : 1"
       sodipodi:type="inkscape:persp3d" />
    <inkscape:perspective
       id="perspective3950"
       inkscape:persp3d-origin="0.5 : 0.33333333 : 1"
       inkscape:vp_z="1 : 0.5 : 1"
       inkscape:vp_y="0 : 1000 : 0"
       inkscape:vp_x="0 : 0.5 : 1"
       sodipodi:type="inkscape:persp3d" />
    <inkscape:perspective
       id="perspective3972"
       inkscape:persp3d-origin="0.5 : 0.33333333 : 1"
       inkscape:vp_z="1 : 0.5 : 1"
       inkscape:vp_y="0 : 1000 : 0"
       inkscape:vp_x="0 : 0.5 : 1"
       sodipodi:type="inkscape:persp3d" />
    <inkscape:perspective
       id="perspective3994"
       inkscape:persp3d-origin="0.5 : 0.33333333 : 1"
       inkscape:vp_z="1 : 0.5 : 1"
       inkscape:vp_y="0 : 1000 : 0"
       inkscape:vp_x="0 : 0.5 : 1"
       sodipodi:type="inkscape:persp3d" />
    <inkscape:perspective
       id="perspective4016"
       inkscape:persp3d-origin="0.5 : 0.33333333 : 1"
       inkscape:vp_z="1 : 0.5 : 1"
       inkscape:vp_y="0 : 1000 : 0"
       inkscape:vp_x="0 : 0.5 : 1"
       sodipodi:type="inkscape:persp3d" />
    <inkscape:perspective
       id="perspective4837"
       inkscape:persp3d-origin="0.5 : 0.33333333 : 1"
       inkscape:vp_z="1 : 0.5 : 1"
       inkscape:vp_y="0 : 1000 : 0"
       inkscape:vp_x="0 : 0.5 : 1"
       sodipodi:type="inkscape:persp3d" />
    <inkscape:perspective
       id="perspective4971"
       inkscape:persp3d-origin="0.5 : 0.33333333 : 1"
       inkscape:vp_z="1 : 0.5 : 1"
       inkscape:vp_y="0 : 1000 : 0"
       inkscape:vp_x="0 : 0.5 : 1"
       sodipodi:type="inkscape:persp3d" />
  </defs>
  <g
     id="layer3"
     inkscape:label="Layout"
     style="display:none;stroke:#757575;stroke-opacity:1"
     transform="matrix(48.14969,0,0,48.14969,-536.27327,-33.306752)">
    <rect
       style="fill:none;stroke:#757575;stroke-width:0.10000000000000001;stroke-miterlimit:4;stroke-dasharray:none;stroke-opacity:1;display:inline"
       id="rect4134"
       width="10"
       height="10"
       x="1"
       y="1" />
    <rect
       style="fill:none;stroke:#757575;stroke-width:0.10000000000000001;stroke-miterlimit:4;stroke-dasharray:none;stroke-opacity:1;display:inline"
       id="rect4136"
       width="8"
       height="8"
       x="2"
       y="2" />
  </g>
  <path
     style="fill:#800000;fill-opacity:1;stroke:none"
     d="M 64.115234,150.61914 C 55.184732,150.61914 47.990234,157.81559 47.990234,166.74609 L 47.990234,254.625 C 47.990234,263.5555 55.184732,270.75195 64.115234,270.75195 L 78.90625,270.75195 C 78.346008,272.34156 78.025391,274.04597 78.025391,275.83203 78.025391,284.26351 84.812663,291.05078 93.244141,291.05078 L 149.04883,291.05078 C 157.48031,291.05078 164.26758,284.26351 164.26758,275.83203 164.26758,274.04597 163.94696,272.34156 163.38672,270.75195 L 424.91211,270.75195 C 424.35187,272.34156 424.03125,274.04597 424.03125,275.83203 424.03125,284.26351 430.81853,291.05078 439.25,291.05078 L 495.05469,291.05078 C 503.48617,291.05078 510.27344,284.26351 510.27344,275.83203 510.27344,274.04597 509.95282,272.34156 509.39258,270.75195 L 523.94336,270.75195 C 532.87386,270.75195 540.06836,263.5555 540.06836,254.625 L 540.06836,166.74609 C 540.06836,157.81559 532.87386,150.61914 523.94336,150.61914 Z M 466.83984,169.17969 C 492.05596,169.17969 512.48438,189.6081 512.48438,214.82422 512.48438,240.04034 492.05596,260.46875 466.83984,260.46875 441.62372,260.46875 421.15625,240.04034 421.15625,214.82422 421.15625,189.6081 441.62372,169.17969 466.83984,169.17969 Z M 80.46875,174.03516 147.47461,174.03516 C 153.85944,174.03516 159.00977,179.18549 159.00977,185.57031 L 159.00977,199.34375 C 159.00977,205.72858 153.85944,210.87695 147.47461,210.87695 L 80.46875,210.87695 C 74.083926,210.87695 68.972656,205.72858 68.972656,199.34375 L 68.972656,185.57031 C 68.972656,179.18549 74.083926,174.03516 80.46875,174.03516 Z M 64.115234,334.22852 C 55.184732,334.22852 47.990234,341.42302 47.990234,350.35352 L 47.990234,406.27148 C 47.990234,415.20198 55.184732,422.39844 64.115234,422.39844 L 78.898438,422.39844 C 78.343294,423.98162 78.025391,425.67955 78.025391,427.45703 78.025391,435.88851 84.812663,442.67578 93.244141,442.67578 L 149.04883,442.67578 C 157.48031,442.67578 164.26758,435.88851 164.26758,427.45703 164.26758,425.6797 163.95154,423.98151 163.39648,422.39844 L 424.90234,422.39844 C 424.34729,423.98151 424.03125,425.6797 424.03125,427.45703 424.03125,435.88851 430.81853,442.67578 439.25,442.67578 L 495.05469,442.67578 C 503.48617,442.67578 510.27344,435.88851 510.27344,427.45703 510.27344,425.6797 509.9574,423.98151 509.40234,422.39844 L 523.94336,422.39844 C 532.87386,422.39844 540.06836,415.20198 540.06836,406.27148 L 540.06836,350.35352 C 540.06836,341.42302 532.87386,334.22852 523.94336,334.22852 Z M 74.738281,361.1582 141.74609,361.1582 C 148.13091,361.1582 153.24219,366.30854 153.24219,372.69336 L 153.24219,386.4668 C 153.24219,392.85162 148.13091,398 141.74609,398 L 74.738281,398 C 68.353457,398 63.205078,392.85162 63.205078,386.4668 L 63.205078,372.69336 C 63.205078,366.30854 68.353457,361.1582 74.738281,361.1582 Z M 196.15625,361.1582 263.16211,361.1582 C 269.54693,361.1582 274.66016,366.30854 274.66016,372.69336 L 274.66016,386.4668 C 274.66016,392.85162 269.54693,398 263.16211,398 L 196.15625,398 C 189.77143,398 184.62109,392.85162 184.62109,386.4668 L 184.62109,372.69336 C 184.62109,366.30854 189.77143,361.1582 196.15625,361.1582 Z M 317.57227,361.1582 384.58008,361.1582 C 390.9649,361.1582 396.07617,366.30854 396.07617,372.69336 L 396.07617,386.4668 C 396.07617,392.85162 390.9649,398 384.58008,398 L 317.57227,398 C 311.18745,398 306.03906,392.85162 306.03906,386.4668 L 306.03906,372.69336 C 306.03906,366.30854 311.18745,361.1582 317.57227,361.1582 Z M 438.99023,361.1582 505.99609,361.1582 C 512.38091,361.1582 517.49219,366.30854 517.49219,372.69336 L 517.49219,386.4668 C 517.49219,392.85162 512.38091,398 505.99609,398 L 438.99023,398 C 432.60541,398 427.45508,392.85162 427.45508,386.4668 L 427.45508,372.69336 C 427.45508,366.30854 432.60541,361.1582 438.99023,361.1582 Z"
     id="rect4866"
     inkscape:connector-curvature="0"
     sodipodi:nodetypes="sssscssssccsssscssssszzzzzssssssssssssscssssccsssscsssssssssssssssssssssssssssssssssssssssss" />
</svg>
