<?xml version="1.0" encoding="UTF-8" standalone="no"?>
<!-- Created with Inkscape (http://www.inkscape.org/) -->

<svg
   xmlns:dc="http://purl.org/dc/elements/1.1/"
   xmlns:cc="http://creativecommons.org/ns#"
   xmlns:rdf="http://www.w3.org/1999/02/22-rdf-syntax-ns#"
   xmlns:svg="http://www.w3.org/2000/svg"
   xmlns="http://www.w3.org/2000/svg"
   xmlns:sodipodi="http://sodipodi.sourceforge.net/DTD/sodipodi-0.dtd"
   xmlns:inkscape="http://www.inkscape.org/namespaces/inkscape"
   version="1.0"
   width="580"
   height="580"
   id="svg2"
   sodipodi:version="0.32"
   inkscape:version="0.91 r13725"
   sodipodi:docname="alcohol.svg"
   inkscape:output_extension="org.inkscape.output.svg.inkscape">
  <metadata
     id="metadata2975">
    <rdf:RDF>
      <cc:Work
         rdf:about="">
        <dc:format>image/svg+xml</dc:format>
        <dc:type
           rdf:resource="http://purl.org/dc/dcmitype/StillImage" />
        <cc:license
           rdf:resource="http://web.resource.org/cc/PublicDomain" />
        <dc:language>en</dc:language>
      </cc:Work>
    </rdf:RDF>
  </metadata>
  <sodipodi:namedview
     inkscape:window-height="972"
     inkscape:window-width="1280"
     inkscape:pageshadow="2"
     inkscape:pageopacity="0.0"
     guidetolerance="10.0"
     gridtolerance="10.0"
     objecttolerance="10.0"
     borderopacity="1.0"
     bordercolor="#666666"
     pagecolor="#ffffff"
     id="base"
     inkscape:zoom="0.32586207"
     inkscape:cx="555.64106"
     inkscape:cy="628.12832"
     inkscape:window-x="-8"
     inkscape:window-y="-8"
     inkscape:current-layer="svg2"
     showgrid="false"
     inkscape:window-maximized="1" />
  <defs
     id="defs4">
    <inkscape:perspective
       sodipodi:type="inkscape:persp3d"
       inkscape:vp_x="0 : 290 : 1"
       inkscape:vp_y="6.1230318e-14 : 1000 : 0"
       inkscape:vp_z="580 : 290 : 1"
       inkscape:persp3d-origin="290 : 193.33333 : 1"
       id="perspective2441" />
    <inkscape:perspective
       id="perspective3452"
       inkscape:persp3d-origin="30 : 20 : 1"
       inkscape:vp_z="60 : 30 : 1"
       inkscape:vp_y="0 : 1000 : 0"
       inkscape:vp_x="0 : 30 : 1"
       sodipodi:type="inkscape:persp3d" />
    <symbol
       viewBox="244.5 110 489 219.9"
       id="symbol-university">
      <path
         id="path4460"
         d="M79,43l57,119c0,0,21-96,104-96s124,106,124,106l43-133l82-17L0,17L79,43z" />
      <path
         id="path4462"
         d="M94,176l-21,39"
         stroke-width="20"
         stroke="#000000"
         fill="none" />
      <path
         id="path4464"
         d="M300,19c0,10.5-22.6,19-50.5,19S199,29.5,199,19s22.6-19,50.5-19S300,8.5,300,19z" />
      <path
         id="path4466"
         d="M112,216l-16-38L64,88c0,0-9-8-4-35s16-24,16-24"
         stroke-width="20"
         stroke="#000000"
         ill="none" />
    </symbol>
    <inkscape:perspective
       id="perspective4471"
       inkscape:persp3d-origin="372.04724 : 350.78739 : 1"
       inkscape:vp_z="744.09448 : 526.18109 : 1"
       inkscape:vp_y="0 : 1000 : 0"
       inkscape:vp_x="0 : 526.18109 : 1"
       sodipodi:type="inkscape:persp3d" />
    <inkscape:perspective
       id="perspective4668"
       inkscape:persp3d-origin="6 : 4 : 1"
       inkscape:vp_z="12 : 6 : 1"
       inkscape:vp_y="0 : 1000 : 0"
       inkscape:vp_x="0 : 6 : 1"
       sodipodi:type="inkscape:persp3d" />
    <inkscape:perspective
       id="perspective3826"
       inkscape:persp3d-origin="0.5 : 0.33333333 : 1"
       inkscape:vp_z="1 : 0.5 : 1"
       inkscape:vp_y="0 : 1000 : 0"
       inkscape:vp_x="0 : 0.5 : 1"
       sodipodi:type="inkscape:persp3d" />
    <inkscape:perspective
       id="perspective3855"
       inkscape:persp3d-origin="0.5 : 0.33333333 : 1"
       inkscape:vp_z="1 : 0.5 : 1"
       inkscape:vp_y="0 : 1000 : 0"
       inkscape:vp_x="0 : 0.5 : 1"
       sodipodi:type="inkscape:persp3d" />
    <inkscape:perspective
       id="perspective3909"
       inkscape:persp3d-origin="0.5 : 0.33333333 : 1"
       inkscape:vp_z="1 : 0.5 : 1"
       inkscape:vp_y="0 : 1000 : 0"
       inkscape:vp_x="0 : 0.5 : 1"
       sodipodi:type="inkscape:persp3d" />
  </defs>
  <g
     id="layer3"
     inkscape:label="Layout"
     style="display:none;stroke:#757575;stroke-opacity:1"
     transform="matrix(48.14969,0,0,48.14969,-536.27327,-33.306752)">
    <rect
       style="fill:none;stroke:#757575;stroke-width:0.10000000000000001;stroke-miterlimit:4;stroke-dasharray:none;stroke-opacity:1;display:inline"
       id="rect4134"
       width="10"
       height="10"
       x="1"
       y="1" />
    <rect
       style="fill:none;stroke:#757575;stroke-width:0.10000000000000001;stroke-miterlimit:4;stroke-dasharray:none;stroke-opacity:1;display:inline"
       id="rect4136"
       width="8"
       height="8"
       x="2"
       y="2" />
  </g>
  <path
     style="color:#000000;font-style:normal;font-variant:normal;font-weight:normal;font-stretch:normal;font-size:medium;line-height:normal;font-family:sans-serif;text-indent:0;text-align:start;text-decoration:none;text-decoration-line:none;text-decoration-style:solid;text-decoration-color:#000000;letter-spacing:normal;word-spacing:normal;text-transform:none;direction:ltr;block-progression:tb;writing-mode:lr-tb;baseline-shift:baseline;text-anchor:start;white-space:normal;clip-rule:nonzero;display:inline;overflow:visible;visibility:visible;opacity:1;isolation:auto;mix-blend-mode:normal;color-interpolation:sRGB;color-interpolation-filters:linearRGB;solid-color:#000000;solid-opacity:1;fill:#800000;fill-opacity:1;fill-rule:nonzero;stroke:none;stroke-width:15.72027683;stroke-linecap:round;stroke-linejoin:round;stroke-miterlimit:4;stroke-dasharray:none;stroke-dashoffset:0;stroke-opacity:1;color-rendering:auto;image-rendering:auto;shape-rendering:auto;text-rendering:auto;enable-background:accumulate"
     d="M 131.36914 22.083984 A 7.8609244 7.8609244 0 0 0 123.50977 29.943359 L 123.50977 131.88477 C 117.25036 134.41961 111.29216 137.60917 105.01758 140.94336 C 97.846617 144.75387 91.178679 148.8471 85.107422 154.04883 C 82.071793 156.64969 79.116334 159.45608 76.224609 163.81836 C 73.623628 167.74204 70.407429 173.84962 70.994141 182.21484 L 70.994141 515.33789 A 23.760667 23.760667 0 0 0 80.269531 534.16992 C 90.414486 541.97263 99.924738 544.02578 110.97656 546.19531 C 122.0284 548.36484 134.30998 549.51259 147.0332 549.72266 C 172.47965 550.1428 198.69597 548.20193 220.68359 536.18555 A 23.760667 23.760667 0 0 0 233.04883 515.33789 L 233.04883 181.14844 A 23.760667 23.760667 0 0 0 231.29492 172.19141 C 228.21588 164.62714 225.42938 162.89503 222.9043 160.5 C 220.37921 158.10497 217.84049 156.10275 215.0625 154.07227 C 209.50652 150.01129 203.04303 145.98121 196.08594 142.14258 C 189.65461 138.59404 183.6637 134.97328 177.12305 132.09766 L 177.12305 29.943359 A 7.8609244 7.8609244 0 0 0 169.26367 22.083984 L 131.36914 22.083984 z M 331.99805 41.242188 C 305.92157 41.242188 289.14062 61.123 289.14062 95.203125 C 289.14062 129.54143 305.66339 149.67969 331.99805 149.67969 C 358.33271 149.67969 375.11523 129.28325 375.11523 95.203125 C 375.11523 61.381183 358.07453 41.242188 331.99805 41.242188 z M 439.91797 44.341797 L 331.99805 217.58203 L 350.07031 217.58203 L 457.99219 44.341797 L 439.91797 44.341797 z M 331.22461 52.861328 C 342.84284 52.861328 349.29688 67.061208 349.29688 95.203125 C 349.29688 123.60323 342.84284 137.80273 331.22461 137.80273 C 319.60638 137.80273 313.66797 123.60323 313.66797 95.203125 C 313.66797 67.061208 319.86456 52.861328 331.22461 52.861328 z M 459.2832 112.50195 C 433.20672 112.50195 416.16602 132.38082 416.16602 166.46094 C 416.16602 200.79925 432.94854 220.67969 459.2832 220.67969 C 485.61786 220.67969 502.39844 200.54107 502.39844 166.46094 C 502.39844 132.89718 485.35968 112.50195 459.2832 112.50195 z M 458.76562 123.86133 C 470.38386 123.86133 476.58008 138.31903 476.58008 166.46094 C 476.58008 194.86104 470.64204 209.0625 458.76562 209.0625 C 447.14739 209.0625 440.95117 194.60286 440.95117 166.46094 C 440.95117 138.31903 447.40557 123.86133 458.76562 123.86133 z M 404.91406 277.62891 C 401.80037 277.60945 398.71701 277.63698 395.67188 277.70703 C 371.31078 278.26741 349.35415 281.58665 333.17969 285.99219 A 4.9946749 4.9946749 0 0 0 329.50781 290.70117 L 329.5 290.69336 C 329.46056 292.36269 329.4375 294.04043 329.4375 295.73438 C 329.4375 329.20621 337.22581 359.56087 350.17188 381.92969 C 360.28687 399.40686 373.82765 412.25424 389.39844 417.03711 L 389.39844 503.66211 A 65.176632 23.383568 0 0 0 335.78125 526.66602 A 65.176632 23.383568 0 0 0 400.95898 550.04883 A 65.176632 23.383568 0 0 0 466.13477 526.66602 A 65.176632 23.383568 0 0 0 413.39844 503.7207 L 413.39844 417.85156 C 430.24721 413.88328 444.9021 400.53483 455.66992 381.92969 C 468.61598 359.56087 476.40234 329.20621 476.40234 295.73438 C 476.40234 294.04091 476.3815 292.36367 476.3418 290.69336 A 4.9946749 4.9946749 0 0 0 472.5918 285.97461 C 450.02294 280.1745 426.70988 277.76507 404.91406 277.62891 z M 404.33008 287.70703 C 423.23582 287.80535 443.31728 289.70185 462.83203 294.04297 C 428.70111 304.43029 391.74469 310.06889 341.98438 294.19531 C 356.51864 290.8032 375.13186 288.26355 395.82031 287.7832 C 398.62593 287.71806 401.46426 287.69213 404.33008 287.70703 z "
     id="path4178" />
</svg>
