<?xml version="1.0" encoding="UTF-8" standalone="no"?>
<!-- Created with Inkscape (http://www.inkscape.org/) -->

<svg
   xmlns:dc="http://purl.org/dc/elements/1.1/"
   xmlns:cc="http://creativecommons.org/ns#"
   xmlns:rdf="http://www.w3.org/1999/02/22-rdf-syntax-ns#"
   xmlns:svg="http://www.w3.org/2000/svg"
   xmlns="http://www.w3.org/2000/svg"
   xmlns:sodipodi="http://sodipodi.sourceforge.net/DTD/sodipodi-0.dtd"
   xmlns:inkscape="http://www.inkscape.org/namespaces/inkscape"
   version="1.0"
   width="580"
   height="580"
   id="svg2"
   sodipodi:version="0.32"
   inkscape:version="0.91 r13725"
   sodipodi:docname="gift.svg"
   inkscape:output_extension="org.inkscape.output.svg.inkscape">
  <metadata
     id="metadata2975">
    <rdf:RDF>
      <cc:Work
         rdf:about="">
        <dc:format>image/svg+xml</dc:format>
        <dc:type
           rdf:resource="http://purl.org/dc/dcmitype/StillImage" />
        <cc:license
           rdf:resource="http://web.resource.org/cc/PublicDomain" />
        <dc:language>en</dc:language>
        <dc:title />
      </cc:Work>
    </rdf:RDF>
  </metadata>
  <sodipodi:namedview
     inkscape:window-height="972"
     inkscape:window-width="1280"
     inkscape:pageshadow="2"
     inkscape:pageopacity="0.0"
     guidetolerance="10.0"
     gridtolerance="10.0"
     objecttolerance="10.0"
     borderopacity="1.0"
     bordercolor="#666666"
     pagecolor="#ffffff"
     id="base"
     inkscape:zoom="0.92167712"
     inkscape:cx="277.86499"
     inkscape:cy="314.78185"
     inkscape:window-x="-8"
     inkscape:window-y="-8"
     inkscape:current-layer="svg2"
     showgrid="false"
     inkscape:window-maximized="1"
     showguides="true"
     inkscape:guide-bbox="true" />
  <defs
     id="defs4">
    <inkscape:perspective
       sodipodi:type="inkscape:persp3d"
       inkscape:vp_x="0 : 290 : 1"
       inkscape:vp_y="6.1230318e-14 : 1000 : 0"
       inkscape:vp_z="580 : 290 : 1"
       inkscape:persp3d-origin="290 : 193.33333 : 1"
       id="perspective2441" />
    <inkscape:perspective
       id="perspective3452"
       inkscape:persp3d-origin="30 : 20 : 1"
       inkscape:vp_z="60 : 30 : 1"
       inkscape:vp_y="0 : 1000 : 0"
       inkscape:vp_x="0 : 30 : 1"
       sodipodi:type="inkscape:persp3d" />
    <symbol
       viewBox="244.5 110 489 219.9"
       id="symbol-university">
      <path
         id="path4460"
         d="M79,43l57,119c0,0,21-96,104-96s124,106,124,106l43-133l82-17L0,17L79,43z" />
      <path
         id="path4462"
         d="M94,176l-21,39"
         stroke-width="20"
         stroke="#000000"
         fill="none" />
      <path
         id="path4464"
         d="M300,19c0,10.5-22.6,19-50.5,19S199,29.5,199,19s22.6-19,50.5-19S300,8.5,300,19z" />
      <path
         id="path4466"
         d="M112,216l-16-38L64,88c0,0-9-8-4-35s16-24,16-24"
         stroke-width="20"
         stroke="#000000"
         ill="none" />
    </symbol>
    <inkscape:perspective
       id="perspective4471"
       inkscape:persp3d-origin="372.04724 : 350.78739 : 1"
       inkscape:vp_z="744.09448 : 526.18109 : 1"
       inkscape:vp_y="0 : 1000 : 0"
       inkscape:vp_x="0 : 526.18109 : 1"
       sodipodi:type="inkscape:persp3d" />
    <inkscape:perspective
       id="perspective4668"
       inkscape:persp3d-origin="6 : 4 : 1"
       inkscape:vp_z="12 : 6 : 1"
       inkscape:vp_y="0 : 1000 : 0"
       inkscape:vp_x="0 : 6 : 1"
       sodipodi:type="inkscape:persp3d" />
    <inkscape:perspective
       id="perspective3826"
       inkscape:persp3d-origin="0.5 : 0.33333333 : 1"
       inkscape:vp_z="1 : 0.5 : 1"
       inkscape:vp_y="0 : 1000 : 0"
       inkscape:vp_x="0 : 0.5 : 1"
       sodipodi:type="inkscape:persp3d" />
    <inkscape:perspective
       id="perspective3855"
       inkscape:persp3d-origin="0.5 : 0.33333333 : 1"
       inkscape:vp_z="1 : 0.5 : 1"
       inkscape:vp_y="0 : 1000 : 0"
       inkscape:vp_x="0 : 0.5 : 1"
       sodipodi:type="inkscape:persp3d" />
    <inkscape:perspective
       id="perspective3909"
       inkscape:persp3d-origin="0.5 : 0.33333333 : 1"
       inkscape:vp_z="1 : 0.5 : 1"
       inkscape:vp_y="0 : 1000 : 0"
       inkscape:vp_x="0 : 0.5 : 1"
       sodipodi:type="inkscape:persp3d" />
    <inkscape:perspective
       id="perspective3950"
       inkscape:persp3d-origin="0.5 : 0.33333333 : 1"
       inkscape:vp_z="1 : 0.5 : 1"
       inkscape:vp_y="0 : 1000 : 0"
       inkscape:vp_x="0 : 0.5 : 1"
       sodipodi:type="inkscape:persp3d" />
    <inkscape:perspective
       id="perspective3972"
       inkscape:persp3d-origin="0.5 : 0.33333333 : 1"
       inkscape:vp_z="1 : 0.5 : 1"
       inkscape:vp_y="0 : 1000 : 0"
       inkscape:vp_x="0 : 0.5 : 1"
       sodipodi:type="inkscape:persp3d" />
    <inkscape:perspective
       id="perspective3994"
       inkscape:persp3d-origin="0.5 : 0.33333333 : 1"
       inkscape:vp_z="1 : 0.5 : 1"
       inkscape:vp_y="0 : 1000 : 0"
       inkscape:vp_x="0 : 0.5 : 1"
       sodipodi:type="inkscape:persp3d" />
    <inkscape:perspective
       id="perspective4016"
       inkscape:persp3d-origin="0.5 : 0.33333333 : 1"
       inkscape:vp_z="1 : 0.5 : 1"
       inkscape:vp_y="0 : 1000 : 0"
       inkscape:vp_x="0 : 0.5 : 1"
       sodipodi:type="inkscape:persp3d" />
    <inkscape:perspective
       id="perspective4837"
       inkscape:persp3d-origin="0.5 : 0.33333333 : 1"
       inkscape:vp_z="1 : 0.5 : 1"
       inkscape:vp_y="0 : 1000 : 0"
       inkscape:vp_x="0 : 0.5 : 1"
       sodipodi:type="inkscape:persp3d" />
    <inkscape:perspective
       id="perspective4971"
       inkscape:persp3d-origin="0.5 : 0.33333333 : 1"
       inkscape:vp_z="1 : 0.5 : 1"
       inkscape:vp_y="0 : 1000 : 0"
       inkscape:vp_x="0 : 0.5 : 1"
       sodipodi:type="inkscape:persp3d" />
  </defs>
  <g
     id="layer3"
     inkscape:label="Layout"
     style="display:none;stroke:#757575;stroke-opacity:1"
     transform="matrix(48.14969,0,0,48.14969,-536.27327,-33.306752)">
    <rect
       style="fill:none;stroke:#757575;stroke-width:0.10000000000000001;stroke-miterlimit:4;stroke-dasharray:none;stroke-opacity:1;display:inline"
       id="rect4134"
       width="10"
       height="10"
       x="1"
       y="1" />
    <rect
       style="fill:none;stroke:#757575;stroke-width:0.10000000000000001;stroke-miterlimit:4;stroke-dasharray:none;stroke-opacity:1;display:inline"
       id="rect4136"
       width="8"
       height="8"
       x="2"
       y="2" />
  </g>
  <path
     style="color:#000000;font-style:normal;font-variant:normal;font-weight:normal;font-stretch:normal;font-size:medium;line-height:normal;font-family:sans-serif;text-indent:0;text-align:start;text-decoration:none;text-decoration-line:none;text-decoration-style:solid;text-decoration-color:#000000;letter-spacing:normal;word-spacing:normal;text-transform:none;direction:ltr;block-progression:tb;writing-mode:lr-tb;baseline-shift:baseline;text-anchor:start;white-space:normal;clip-rule:nonzero;display:inline;overflow:visible;visibility:visible;opacity:1;isolation:auto;mix-blend-mode:normal;color-interpolation:sRGB;color-interpolation-filters:linearRGB;solid-color:#000000;solid-opacity:1;fill:#000080;fill-opacity:1;fill-rule:nonzero;stroke:none;stroke-width:6.65240908;stroke-linecap:round;stroke-linejoin:round;stroke-miterlimit:4;stroke-dasharray:none;stroke-dashoffset:0;stroke-opacity:1;color-rendering:auto;image-rendering:auto;shape-rendering:auto;text-rendering:auto;enable-background:accumulate"
     d="M 80.019531 84.957031 C 73.634919 85.012229 68.892544 86.116506 66.335938 88.402344 C 60.948841 92.365154 52.685778 103.91312 61.476562 114.69922 C 98.327726 110.00958 157.3743 132.60807 198.68359 159.33203 C 219.63012 160.92485 232.30066 158.48158 240.06836 154.32031 C 208.35834 118.95204 117.87632 84.629741 80.019531 84.957031 z M 507.47656 86.589844 C 469.61977 86.262554 379.13774 120.58681 347.42773 155.95508 C 355.19542 160.11636 367.86596 162.55766 388.8125 160.96484 C 430.12179 134.24089 489.16642 111.64434 526.01758 116.33398 C 534.80837 105.54789 526.5453 93.999919 521.1582 90.037109 C 518.60159 87.751271 513.86117 86.645042 507.47656 86.589844 z M 61.970703 88.599609 C 61.930691 88.564086 60.91109 89.649694 59.460938 91.408203 C 61.178063 89.602116 62.006718 88.631584 61.970703 88.599609 z M 59.460938 91.408203 C 59.259518 91.620058 59.177255 91.718431 58.947266 91.957031 C 56.996594 93.980742 55.54764 95.996288 54.556641 97.998047 C 56.438971 95.201457 58.127226 93.025511 59.460938 91.408203 z M 54.556641 97.998047 C 45.907194 110.84858 34.726321 134.43251 50.951172 153.04102 C 91.69939 199.77573 240.57973 205.49836 237.41016 203.23438 C 230.10148 188.1116 229.61053 172.988 239.22461 157.86523 C 210.6559 175.00644 34.050528 139.41915 54.556641 97.998047 z M 525.52344 90.234375 C 525.48734 90.266427 526.3167 91.239526 528.04297 93.054688 C 526.58678 91.287985 525.56355 90.198765 525.52344 90.234375 z M 528.04297 93.054688 C 529.37525 94.671068 531.05846 96.84214 532.93555 99.630859 C 531.94456 97.629442 530.49721 95.615158 528.54688 93.591797 C 528.32164 93.358135 528.24079 93.262694 528.04297 93.054688 z M 532.93555 99.630859 C 553.44512 141.05241 376.84043 176.64135 348.27148 159.5 C 357.88556 174.62277 357.39462 189.74636 350.08594 204.86914 C 346.91638 207.13312 495.79475 201.40855 536.54297 154.67383 C 552.76821 136.06486 541.58508 112.48118 532.93555 99.630859 z M 292.34375 145.36133 C 270.34282 145.36133 252.4375 163.26665 252.4375 185.26758 C 252.4375 207.2685 270.34283 225.17578 292.34375 225.17578 C 314.34467 225.17578 332.25 207.2685 332.25 185.26758 C 332.25 163.26665 314.34468 145.36133 292.34375 145.36133 z M 87.511719 225.60547 C 76.308989 225.60547 67.1875 234.72501 67.1875 245.92773 L 67.1875 342.53125 L 67.1875 342.57617 L 67.1875 396.38281 L 67.1875 488.87109 C 67.1875 500.07383 76.308989 509.19531 87.511719 509.19531 L 291.63672 509.19531 L 488.00195 509.19531 C 499.20469 509.19531 508.32422 500.07382 508.32422 488.87109 L 508.32422 396.42578 C 508.32431 396.41146 508.32431 396.39713 508.32422 396.38281 L 508.32422 342.57617 L 508.32422 245.92773 C 508.32422 234.72501 499.20469 225.60547 488.00195 225.60547 L 341.66406 225.60547 C 340.63117 225.60559 339.65694 226.08549 339.02734 226.9043 C 338.80551 227.19295 338.74694 227.28616 338.83594 227.17188 C 337.47313 228.92186 336.00727 230.56814 334.4043 232.13867 C 334.35315 232.18914 334.30364 232.24125 334.25586 232.29492 C 332.65261 234.0825 330.94306 235.72288 329.14648 237.21289 C 327.34415 238.70768 325.46136 240.05446 323.49805 241.25781 C 321.54678 242.45377 319.50282 243.49722 317.37695 244.43164 C 316.33973 244.88755 315.10608 245.28124 313.73047 245.76953 C 312.40301 246.24021 311.51585 247.49586 311.51562 248.9043 L 311.51562 342.57617 L 311.51562 396.38281 L 311.51562 502.63281 L 271.04688 502.63281 L 271.04688 396.42578 C 271.04697 396.41146 271.04697 396.39713 271.04688 396.38281 L 271.04688 342.57617 L 271.04688 247.27344 C 271.04658 245.92855 270.23652 244.71615 268.99414 244.20117 C 266.94934 243.35471 264.94428 242.41308 263.03125 241.375 C 260.95562 240.2487 258.97508 239.04042 257.08398 237.70703 C 255.18992 236.37155 253.33315 234.87712 251.61523 233.31641 C 249.89427 231.75292 248.31378 230.1322 246.82227 228.37109 C 246.62074 228.13314 246.28302 227.59517 245.71484 226.87305 C 245.08395 226.07247 244.12085 225.60531 243.10156 225.60547 L 87.511719 225.60547 z M 73.839844 345.90234 L 264.39453 345.90234 L 264.39453 393.05664 L 73.839844 393.05664 L 73.839844 345.90234 z M 318.16797 345.90234 L 501.67188 345.90234 L 501.67188 393.05664 L 318.16797 393.05664 L 318.16797 345.90234 z "
     id="path4192" />
</svg>
