<?xml version="1.0" encoding="UTF-8" standalone="no"?>
<!-- Created with Inkscape (http://www.inkscape.org/) -->

<svg
   xmlns:dc="http://purl.org/dc/elements/1.1/"
   xmlns:cc="http://creativecommons.org/ns#"
   xmlns:rdf="http://www.w3.org/1999/02/22-rdf-syntax-ns#"
   xmlns:svg="http://www.w3.org/2000/svg"
   xmlns="http://www.w3.org/2000/svg"
   xmlns:sodipodi="http://sodipodi.sourceforge.net/DTD/sodipodi-0.dtd"
   xmlns:inkscape="http://www.inkscape.org/namespaces/inkscape"
   version="1.0"
   width="580"
   height="580"
   id="svg2"
   sodipodi:version="0.32"
   inkscape:version="0.91 r13725"
   sodipodi:docname="hairdresser.svg"
   inkscape:output_extension="org.inkscape.output.svg.inkscape">
  <metadata
     id="metadata2975">
    <rdf:RDF>
      <cc:Work
         rdf:about="">
        <dc:format>image/svg+xml</dc:format>
        <dc:type
           rdf:resource="http://purl.org/dc/dcmitype/StillImage" />
        <cc:license
           rdf:resource="http://web.resource.org/cc/PublicDomain" />
        <dc:language>en</dc:language>
      </cc:Work>
    </rdf:RDF>
  </metadata>
  <sodipodi:namedview
     inkscape:window-height="972"
     inkscape:window-width="1280"
     inkscape:pageshadow="2"
     inkscape:pageopacity="0.0"
     guidetolerance="10.0"
     gridtolerance="10.0"
     objecttolerance="10.0"
     borderopacity="1.0"
     bordercolor="#666666"
     pagecolor="#ffffff"
     id="base"
     inkscape:zoom="0.92167712"
     inkscape:cx="177.39894"
     inkscape:cy="183.60889"
     inkscape:window-x="-8"
     inkscape:window-y="-8"
     inkscape:current-layer="svg2"
     showgrid="false"
     inkscape:window-maximized="1" />
  <defs
     id="defs4">
    <inkscape:perspective
       sodipodi:type="inkscape:persp3d"
       inkscape:vp_x="0 : 290 : 1"
       inkscape:vp_y="0 : 1000 : 0"
       inkscape:vp_z="580 : 290 : 1"
       inkscape:persp3d-origin="290 : 193.33333 : 1"
       id="perspective2441" />
    <inkscape:perspective
       id="perspective3452"
       inkscape:persp3d-origin="30 : 20 : 1"
       inkscape:vp_z="60 : 30 : 1"
       inkscape:vp_y="0 : 1000 : 0"
       inkscape:vp_x="0 : 30 : 1"
       sodipodi:type="inkscape:persp3d" />
    <symbol
       viewBox="244.5 110 489 219.9"
       id="symbol-university">
      <path
         id="path4460"
         d="M79,43l57,119c0,0,21-96,104-96s124,106,124,106l43-133l82-17L0,17L79,43z" />
      <path
         id="path4462"
         d="M94,176l-21,39"
         stroke-width="20"
         stroke="#000000"
         fill="none" />
      <path
         id="path4464"
         d="M300,19c0,10.5-22.6,19-50.5,19S199,29.5,199,19s22.6-19,50.5-19S300,8.5,300,19z" />
      <path
         id="path4466"
         d="M112,216l-16-38L64,88c0,0-9-8-4-35s16-24,16-24"
         stroke-width="20"
         stroke="#000000"
         ill="none" />
    </symbol>
    <inkscape:perspective
       id="perspective4471"
       inkscape:persp3d-origin="372.04724 : 350.78739 : 1"
       inkscape:vp_z="744.09448 : 526.18109 : 1"
       inkscape:vp_y="0 : 1000 : 0"
       inkscape:vp_x="0 : 526.18109 : 1"
       sodipodi:type="inkscape:persp3d" />
    <inkscape:perspective
       id="perspective4668"
       inkscape:persp3d-origin="6 : 4 : 1"
       inkscape:vp_z="12 : 6 : 1"
       inkscape:vp_y="0 : 1000 : 0"
       inkscape:vp_x="0 : 6 : 1"
       sodipodi:type="inkscape:persp3d" />
    <inkscape:perspective
       id="perspective2918"
       inkscape:persp3d-origin="0.5 : 0.33333333 : 1"
       inkscape:vp_z="1 : 0.5 : 1"
       inkscape:vp_y="0 : 1000 : 0"
       inkscape:vp_x="0 : 0.5 : 1"
       sodipodi:type="inkscape:persp3d" />
  </defs>
  <g
     id="layer3"
     inkscape:label="Layout"
     style="display:none;stroke:#757575;stroke-opacity:1"
     transform="matrix(48.14969,0,0,48.14969,-536.27327,-33.306752)">
    <rect
       style="fill:none;stroke:#757575;stroke-width:0.10000000000000001;stroke-miterlimit:4;stroke-dasharray:none;stroke-opacity:1;display:inline"
       id="rect4134"
       width="10"
       height="10"
       x="1"
       y="1" />
    <rect
       style="fill:none;stroke:#757575;stroke-width:0.10000000000000001;stroke-miterlimit:4;stroke-dasharray:none;stroke-opacity:1;display:inline"
       id="rect4136"
       width="8"
       height="8"
       x="2"
       y="2" />
  </g>
  <path
     style="color:#000000;font-style:normal;font-variant:normal;font-weight:normal;font-stretch:normal;font-size:medium;line-height:normal;font-family:sans-serif;text-indent:0;text-align:start;text-decoration:none;text-decoration-line:none;text-decoration-style:solid;text-decoration-color:#000000;letter-spacing:normal;word-spacing:normal;text-transform:none;direction:ltr;block-progression:tb;writing-mode:lr-tb;baseline-shift:baseline;text-anchor:start;white-space:normal;clip-rule:nonzero;display:inline;overflow:visible;visibility:visible;opacity:1;isolation:auto;mix-blend-mode:normal;color-interpolation:sRGB;color-interpolation-filters:linearRGB;solid-color:#000000;solid-opacity:1;fill:#000080;fill-opacity:1;fill-rule:evenodd;stroke:none;stroke-width:9.30612183;stroke-linecap:round;stroke-linejoin:round;stroke-miterlimit:4;stroke-dasharray:none;stroke-dashoffset:0;stroke-opacity:1;color-rendering:auto;image-rendering:auto;shape-rendering:auto;text-rendering:auto;enable-background:accumulate"
     d="M 359.10352 30.128906 C 358.70759 30.112167 358.35132 30.133791 358.00977 30.166016 C 356.31942 30.325493 354.97176 31.411876 354.37305 32.189453 C 353.77434 32.96703 353.58433 33.539103 353.43555 34.005859 C 353.13798 34.939371 353.09057 35.56504 353.03711 36.259766 C 352.93018 37.649217 352.95791 39.195955 353.05273 41.132812 C 353.24238 45.006529 353.74497 50.307371 354.48438 56.748047 C 355.96319 69.629399 358.3986 86.989231 361.22461 105.34375 C 366.87663 142.05279 374.00252 182.42176 378.33008 199.08008 C 384.67132 223.48975 384.68409 224.45946 385.54883 229.625 C 386.41356 234.79054 388.05027 243.72388 397.37109 282.75 C 399.165 290.26106 400.9635 297.66883 402.76367 304.98633 L 376.99414 399.21484 C 373.39962 397.2156 368.4215 394.84801 362.4375 393.17383 C 350.12967 389.73039 333.12865 389.27087 316.71484 400.85938 C 300.36384 412.40354 293.12003 427.97303 291.51172 443.4375 C 289.90341 458.90197 293.5551 474.28736 298.10547 487.05469 C 310.86493 522.85492 352.33995 531.14405 373.9082 507.92188 C 378.35851 503.13029 382.1157 494.74463 387.06445 482.07617 C 392.01321 469.40772 397.64401 452.75685 403.73242 432.9707 C 409.07917 415.59482 414.78596 395.69753 420.65039 374.12109 C 426.38602 395.17612 431.96554 414.61216 437.20117 431.62695 C 443.28959 451.4131 448.92039 468.06397 453.86914 480.73242 C 458.81789 493.40088 462.57508 501.7846 467.02539 506.57617 C 488.59364 529.79836 530.06867 521.51117 542.82812 485.71094 C 547.37851 472.94361 551.03017 457.55822 549.42188 442.09375 C 547.81356 426.62928 540.56976 411.0598 524.21875 399.51562 C 507.80495 387.92713 490.80392 388.38664 478.49609 391.83008 C 472.51209 393.50426 467.53397 395.87184 463.93945 397.87109 L 438.51953 304.91797 C 440.20312 298.06128 441.88467 291.11881 443.5625 284.09375 C 452.88332 245.06763 454.52003 236.13429 455.38477 230.96875 C 456.2495 225.80321 456.26228 224.8335 462.60352 200.42383 C 466.93108 183.76551 474.05696 143.39654 479.70898 106.6875 C 482.535 88.332981 484.9704 70.97315 486.44922 58.091797 C 487.18863 51.65112 487.69122 46.350279 487.88086 42.476562 C 487.97568 40.539705 488.00341 38.992967 487.89648 37.603516 C 487.84302 36.90879 487.79562 36.28312 487.49805 35.349609 C 487.34926 34.882854 487.15925 34.31078 486.56055 33.533203 C 485.96184 32.755626 484.61418 31.669244 482.92383 31.509766 C 482.58227 31.477542 482.22601 31.455918 481.83008 31.472656 C 481.43415 31.489395 480.99855 31.544496 480.50195 31.667969 C 479.50876 31.914914 478.02895 32.558523 477.04688 34.140625 A 4.9567782 4.9567782 0 0 0 476.47656 35.447266 L 420.65039 239.58008 L 364.45703 34.101562 A 4.9567782 4.9567782 0 0 0 363.88672 32.794922 C 362.90464 31.21282 361.42483 30.571163 360.43164 30.324219 C 359.93505 30.200746 359.49945 30.145645 359.10352 30.128906 z M 157.93945 51.150391 C 156.68616 51.142973 155.4692 51.14415 154.29102 51.15625 C 149.94064 51.20093 146.11564 51.381238 142.89648 51.759766 C 139.67733 52.138293 137.15147 52.544656 134.7207 53.876953 C 132.57707 55.05187 132.1352 56.245572 131.41016 57.541016 C 130.68512 58.836459 130.0185 60.34355 129.30469 62.160156 C 127.87706 65.793368 126.30564 70.643829 124.55664 76.652344 C 121.05864 88.669372 116.88321 105.27205 112.29688 125.01953 C 103.12416 164.5145 92.31992 216.54463 82.253906 268.85938 C 72.187892 321.1741 62.864806 373.75518 56.660156 414.35742 C 53.557832 434.65854 51.23442 451.95461 49.986328 464.80273 C 49.362282 471.2268 49.004487 476.52757 48.962891 480.64258 C 48.942093 482.70008 48.996592 484.45623 49.167969 486.00195 C 49.339346 487.54767 49.43926 488.82015 50.458984 490.53125 C 52.838505 494.52408 56.82889 496.24138 61.714844 497.9375 C 66.600797 499.63362 72.640705 500.97487 79.535156 502.11719 C 93.324058 504.40183 110.4881 505.83658 127.33008 506.76367 C 161.01403 508.61785 193.39258 508.40234 193.39258 508.40234 A 4.6535262 4.6535262 0 0 0 194.01758 499.14258 L 64.671875 480.73047 L 70.166016 452.50977 L 200.19336 454.96875 A 4.6535262 4.6535262 0 0 0 200.9043 445.70508 L 74.810547 428.64844 L 79.492188 404.59375 L 207.61328 407.01953 A 4.6535262 4.6535262 0 0 0 208.32422 397.75586 L 84.09375 380.94922 L 88.832031 356.60352 L 219.10156 359.06836 A 4.6535262 4.6535262 0 0 0 219.8125 349.80469 L 93.482422 332.7168 L 98.162109 308.68164 L 226.94727 311.11914 A 4.6535262 4.6535262 0 0 0 227.6582 301.85547 L 102.77734 284.96094 L 107.49219 260.74023 L 235.80273 263.16797 A 4.6535262 4.6535262 0 0 0 236.51367 253.9043 L 112.09961 237.07422 L 116.82617 212.78711 L 245.32031 215.21875 A 4.6535262 4.6535262 0 0 0 246.03125 205.95508 L 121.4375 189.09961 L 126.1582 164.84766 L 253.96289 167.26758 A 4.6535262 4.6535262 0 0 0 254.67383 158.00391 L 130.75391 141.24219 L 135.48438 116.93555 L 261.34961 119.31836 A 4.6535262 4.6535262 0 0 0 262.06055 110.05469 L 140.03711 93.546875 L 145.35547 66.230469 L 269.27734 69.958984 A 4.6535262 4.6535262 0 0 0 270 60.691406 C 270 60.691406 196.79148 51.380351 157.93945 51.150391 z M 498.36133 412.70703 C 512.36609 412.74148 529.45209 430.92599 529.44727 455.16797 A 4.9567782 4.9567782 0 0 0 529.44727 455.16992 L 529.44727 455.24805 C 529.43234 467.37692 525.20532 478.55834 519.0918 486.51758 C 512.97727 494.47812 505.15353 498.95444 498.26953 498.9375 C 491.725 498.92139 483.58852 493.67649 477.23828 484.71289 C 470.88804 475.74929 466.50017 463.4899 466.51367 451.40039 C 466.54068 427.22247 483.66882 412.67088 498.36133 412.70703 z M 342.57227 414.05078 C 357.26478 414.01464 374.39291 428.56818 374.41992 452.74609 C 374.43342 464.8356 370.04555 477.09304 363.69531 486.05664 C 357.34507 495.02024 349.20859 500.2671 342.66406 500.2832 C 335.78006 500.30014 327.95632 495.82187 321.8418 487.86133 C 315.72827 479.90209 311.50125 468.72068 311.48633 456.5918 L 311.48633 456.51367 C 311.4815 432.27169 328.56749 414.08524 342.57227 414.05078 z "
     id="path4209" />
</svg>
