<?xml version="1.0" encoding="UTF-8" standalone="no"?>
<!-- Created with Inkscape (http://www.inkscape.org/) -->

<svg
   xmlns:dc="http://purl.org/dc/elements/1.1/"
   xmlns:cc="http://creativecommons.org/ns#"
   xmlns:rdf="http://www.w3.org/1999/02/22-rdf-syntax-ns#"
   xmlns:svg="http://www.w3.org/2000/svg"
   xmlns="http://www.w3.org/2000/svg"
   xmlns:xlink="http://www.w3.org/1999/xlink"
   xmlns:sodipodi="http://sodipodi.sourceforge.net/DTD/sodipodi-0.dtd"
   xmlns:inkscape="http://www.inkscape.org/namespaces/inkscape"
   version="1.0"
   width="580"
   height="580"
   id="svg2"
   sodipodi:version="0.32"
   inkscape:version="0.91 r13725"
   sodipodi:docname="department_store.svg"
   inkscape:output_extension="org.inkscape.output.svg.inkscape">
  <metadata
     id="metadata2975">
    <rdf:RDF>
      <cc:Work
         rdf:about="">
        <dc:format>image/svg+xml</dc:format>
        <dc:type
           rdf:resource="http://purl.org/dc/dcmitype/StillImage" />
        <cc:license
           rdf:resource="http://web.resource.org/cc/PublicDomain" />
        <dc:language>en</dc:language>
        <dc:title />
      </cc:Work>
    </rdf:RDF>
  </metadata>
  <sodipodi:namedview
     inkscape:window-height="972"
     inkscape:window-width="1280"
     inkscape:pageshadow="2"
     inkscape:pageopacity="0.0"
     guidetolerance="10.0"
     gridtolerance="10.0"
     objecttolerance="10.0"
     borderopacity="1.0"
     bordercolor="#666666"
     pagecolor="#ffffff"
     id="base"
     inkscape:zoom="0.9216771"
     inkscape:cx="228.67088"
     inkscape:cy="179.42334"
     inkscape:window-x="-8"
     inkscape:window-y="-8"
     inkscape:current-layer="svg2"
     showgrid="false"
     inkscape:window-maximized="1"
     showguides="true"
     inkscape:guide-bbox="true" />
  <defs
     id="defs4">
    <inkscape:perspective
       sodipodi:type="inkscape:persp3d"
       inkscape:vp_x="0 : 290 : 1"
       inkscape:vp_y="6.1230318e-14 : 1000 : 0"
       inkscape:vp_z="580 : 290 : 1"
       inkscape:persp3d-origin="290 : 193.33333 : 1"
       id="perspective2441" />
    <inkscape:perspective
       id="perspective3452"
       inkscape:persp3d-origin="30 : 20 : 1"
       inkscape:vp_z="60 : 30 : 1"
       inkscape:vp_y="0 : 1000 : 0"
       inkscape:vp_x="0 : 30 : 1"
       sodipodi:type="inkscape:persp3d" />
    <symbol
       viewBox="244.5 110 489 219.9"
       id="symbol-university">
      <path
         id="path4460"
         d="M79,43l57,119c0,0,21-96,104-96s124,106,124,106l43-133l82-17L0,17L79,43z" />
      <path
         id="path4462"
         d="M94,176l-21,39"
         stroke-width="20"
         stroke="#000000"
         fill="none" />
      <path
         id="path4464"
         d="M300,19c0,10.5-22.6,19-50.5,19S199,29.5,199,19s22.6-19,50.5-19S300,8.5,300,19z" />
      <path
         id="path4466"
         d="M112,216l-16-38L64,88c0,0-9-8-4-35s16-24,16-24"
         stroke-width="20"
         stroke="#000000"
         ill="none" />
    </symbol>
    <inkscape:perspective
       id="perspective4471"
       inkscape:persp3d-origin="372.04724 : 350.78739 : 1"
       inkscape:vp_z="744.09448 : 526.18109 : 1"
       inkscape:vp_y="0 : 1000 : 0"
       inkscape:vp_x="0 : 526.18109 : 1"
       sodipodi:type="inkscape:persp3d" />
    <inkscape:perspective
       id="perspective4668"
       inkscape:persp3d-origin="6 : 4 : 1"
       inkscape:vp_z="12 : 6 : 1"
       inkscape:vp_y="0 : 1000 : 0"
       inkscape:vp_x="0 : 6 : 1"
       sodipodi:type="inkscape:persp3d" />
    <inkscape:perspective
       id="perspective3826"
       inkscape:persp3d-origin="0.5 : 0.33333333 : 1"
       inkscape:vp_z="1 : 0.5 : 1"
       inkscape:vp_y="0 : 1000 : 0"
       inkscape:vp_x="0 : 0.5 : 1"
       sodipodi:type="inkscape:persp3d" />
    <inkscape:perspective
       id="perspective3855"
       inkscape:persp3d-origin="0.5 : 0.33333333 : 1"
       inkscape:vp_z="1 : 0.5 : 1"
       inkscape:vp_y="0 : 1000 : 0"
       inkscape:vp_x="0 : 0.5 : 1"
       sodipodi:type="inkscape:persp3d" />
    <inkscape:perspective
       id="perspective3909"
       inkscape:persp3d-origin="0.5 : 0.33333333 : 1"
       inkscape:vp_z="1 : 0.5 : 1"
       inkscape:vp_y="0 : 1000 : 0"
       inkscape:vp_x="0 : 0.5 : 1"
       sodipodi:type="inkscape:persp3d" />
    <inkscape:perspective
       id="perspective3950"
       inkscape:persp3d-origin="0.5 : 0.33333333 : 1"
       inkscape:vp_z="1 : 0.5 : 1"
       inkscape:vp_y="0 : 1000 : 0"
       inkscape:vp_x="0 : 0.5 : 1"
       sodipodi:type="inkscape:persp3d" />
    <inkscape:perspective
       id="perspective3972"
       inkscape:persp3d-origin="0.5 : 0.33333333 : 1"
       inkscape:vp_z="1 : 0.5 : 1"
       inkscape:vp_y="0 : 1000 : 0"
       inkscape:vp_x="0 : 0.5 : 1"
       sodipodi:type="inkscape:persp3d" />
    <inkscape:perspective
       id="perspective3994"
       inkscape:persp3d-origin="0.5 : 0.33333333 : 1"
       inkscape:vp_z="1 : 0.5 : 1"
       inkscape:vp_y="0 : 1000 : 0"
       inkscape:vp_x="0 : 0.5 : 1"
       sodipodi:type="inkscape:persp3d" />
    <inkscape:perspective
       id="perspective4016"
       inkscape:persp3d-origin="0.5 : 0.33333333 : 1"
       inkscape:vp_z="1 : 0.5 : 1"
       inkscape:vp_y="0 : 1000 : 0"
       inkscape:vp_x="0 : 0.5 : 1"
       sodipodi:type="inkscape:persp3d" />
    <inkscape:perspective
       id="perspective4837"
       inkscape:persp3d-origin="0.5 : 0.33333333 : 1"
       inkscape:vp_z="1 : 0.5 : 1"
       inkscape:vp_y="0 : 1000 : 0"
       inkscape:vp_x="0 : 0.5 : 1"
       sodipodi:type="inkscape:persp3d" />
    <inkscape:perspective
       id="perspective4971"
       inkscape:persp3d-origin="0.5 : 0.33333333 : 1"
       inkscape:vp_z="1 : 0.5 : 1"
       inkscape:vp_y="0 : 1000 : 0"
       inkscape:vp_x="0 : 0.5 : 1"
       sodipodi:type="inkscape:persp3d" />
    <inkscape:perspective
       id="perspective6216"
       inkscape:persp3d-origin="0.5 : 0.33333333 : 1"
       inkscape:vp_z="1 : 0.5 : 1"
       inkscape:vp_y="0 : 1000 : 0"
       inkscape:vp_x="0 : 0.5 : 1"
       sodipodi:type="inkscape:persp3d" />
    <inkscape:perspective
       id="perspective6764"
       inkscape:persp3d-origin="0.5 : 0.33333333 : 1"
       inkscape:vp_z="1 : 0.5 : 1"
       inkscape:vp_y="0 : 1000 : 0"
       inkscape:vp_x="0 : 0.5 : 1"
       sodipodi:type="inkscape:persp3d" />
    <inkscape:perspective
       id="perspective6817"
       inkscape:persp3d-origin="0.5 : 0.33333333 : 1"
       inkscape:vp_z="1 : 0.5 : 1"
       inkscape:vp_y="0 : 1000 : 0"
       inkscape:vp_x="0 : 0.5 : 1"
       sodipodi:type="inkscape:persp3d" />
    <radialGradient
       gradientUnits="userSpaceOnUse"
       gradientTransform="scale(0.79354273,1.2601716)"
       xlink:href="#linearGradient829"
       id="radialGradient874"
       cx="180.2453"
       cy="198.41902"
       r="101.58017"
       fx="180.2453"
       fy="198.41902" />
    <linearGradient
       id="linearGradient829">
      <stop
         style="stop-color: rgb(255, 255, 255); stop-opacity: 0.341667;"
         offset="0.0000000"
         id="stop830" />
      <stop
         style="stop-color: rgb(255, 255, 255); stop-opacity: 0;"
         offset="1.0000000"
         id="stop831" />
    </linearGradient>
    <radialGradient
       gradientUnits="userSpaceOnUse"
       gradientTransform="scale(1.007004,0.99304475)"
       xlink:href="#linearGradient829"
       id="radialGradient832"
       cx="360.85146"
       cy="167.47372"
       r="46.394721"
       fx="360.85146"
       fy="167.47372" />
    <linearGradient
       id="linearGradient6826">
      <stop
         style="stop-color: rgb(255, 255, 255); stop-opacity: 0.341667;"
         offset="0.0000000"
         id="stop6828" />
      <stop
         style="stop-color: rgb(255, 255, 255); stop-opacity: 0;"
         offset="1.0000000"
         id="stop6830" />
    </linearGradient>
    <linearGradient
       gradientUnits="userSpaceOnUse"
       gradientTransform="scale(0.74491357,1.3424376)"
       xlink:href="#linearGradient855"
       id="linearGradient850"
       x1="465.29425"
       y1="248.24467"
       x2="463.27056"
       y2="405.7687"
       spreadMethod="pad" />
    <linearGradient
       id="linearGradient855">
      <stop
         style="stop-color: rgb(255, 255, 255); stop-opacity: 0;"
         offset="0.0000000"
         id="stop856" />
      <stop
         style="stop-color: rgb(255, 166, 23); stop-opacity: 0.733333;"
         offset="1.0000000"
         id="stop857" />
    </linearGradient>
    <linearGradient
       gradientUnits="userSpaceOnUse"
       gradientTransform="scale(1.4586159,0.68558144)"
       xlink:href="#linearGradient855"
       id="linearGradient854"
       x1="157.80581"
       y1="120.96176"
       x2="155.40575"
       y2="231.63491" />
    <linearGradient
       id="linearGradient6837">
      <stop
         style="stop-color: rgb(255, 255, 255); stop-opacity: 0;"
         offset="0.0000000"
         id="stop6839" />
      <stop
         style="stop-color: rgb(255, 166, 23); stop-opacity: 0.733333;"
         offset="1.0000000"
         id="stop6841" />
    </linearGradient>
    <inkscape:perspective
       id="perspective6928"
       inkscape:persp3d-origin="0.5 : 0.33333333 : 1"
       inkscape:vp_z="1 : 0.5 : 1"
       inkscape:vp_y="0 : 1000 : 0"
       inkscape:vp_x="0 : 0.5 : 1"
       sodipodi:type="inkscape:persp3d" />
    <inkscape:perspective
       id="perspective10781"
       inkscape:persp3d-origin="0.5 : 0.33333333 : 1"
       inkscape:vp_z="1 : 0.5 : 1"
       inkscape:vp_y="0 : 1000 : 0"
       inkscape:vp_x="0 : 0.5 : 1"
       sodipodi:type="inkscape:persp3d" />
    <inkscape:perspective
       id="perspective10806"
       inkscape:persp3d-origin="0.5 : 0.33333333 : 1"
       inkscape:vp_z="1 : 0.5 : 1"
       inkscape:vp_y="0 : 1000 : 0"
       inkscape:vp_x="0 : 0.5 : 1"
       sodipodi:type="inkscape:persp3d" />
    <inkscape:perspective
       id="perspective10878"
       inkscape:persp3d-origin="0.5 : 0.33333333 : 1"
       inkscape:vp_z="1 : 0.5 : 1"
       inkscape:vp_y="0 : 1000 : 0"
       inkscape:vp_x="0 : 0.5 : 1"
       sodipodi:type="inkscape:persp3d" />
    <inkscape:perspective
       id="perspective10919"
       inkscape:persp3d-origin="0.5 : 0.33333333 : 1"
       inkscape:vp_z="1 : 0.5 : 1"
       inkscape:vp_y="0 : 1000 : 0"
       inkscape:vp_x="0 : 0.5 : 1"
       sodipodi:type="inkscape:persp3d" />
    <clipPath
       id="clipoutline2"
       clipPathUnits="userSpaceOnUse">
      <path
         inkscape:connector-curvature="0"
         d="m 55.8,12 0.76,0.16 c 8.84,-2.94 28.68,8.64 24.26,18.96 -1.12,1.62 -0.93,4.5 0.42,6.31 L 56.43,62.25 c -1.39,-1.39 -4.48,-1.36 -5.9,0 L 9.5,101.63 c -3.74,3.59 -0.8,6.64 0.78,8.25 l 7.36,7.36 c 1.61,1.6 5.86,3.76 8.88,0.56 L 65.24,76.99 c 1.35,-1.42 1.36,-4.47 0,-5.87 0,0 0.01,-0.02 0,-0.02 L 90.15,46.2 c 2.63,2.37 5.113827,2.574854 7.47,1.93 4.55057,-1.245432 7.08725,3.206643 9.81,6.46 l -1.23,1.21 c -1.82,1.84 -1.65,4.94 0.39,6.98 2.04,2.04 5.15,2.21 6.97,0.39 l 8.14,-8.13 c 1.82,-1.84 1.65,-4.94 -0.4,-6.97 -1.84,-1.85 -4.51,-2.09 -6.37,-0.77 -5.58,-6.26 -2.65,-7.2 -10.01,-15.35 L 91.13,17.86 C 81.2,8.12 68.3,8.13 55.8,12 z"
         id="outline2" />
    </clipPath>
  </defs>
  <g
     id="layer3"
     inkscape:label="Layout"
     style="display:none;stroke:#757575;stroke-opacity:1"
     transform="matrix(48.14969,0,0,48.14969,-536.27327,-33.306752)">
    <rect
       style="fill:none;stroke:#757575;stroke-width:0.10000000000000001;stroke-miterlimit:4;stroke-dasharray:none;stroke-opacity:1;display:inline"
       id="rect4134"
       width="10"
       height="10"
       x="1"
       y="1" />
    <rect
       style="fill:none;stroke:#757575;stroke-width:0.10000000000000001;stroke-miterlimit:4;stroke-dasharray:none;stroke-opacity:1;display:inline"
       id="rect4136"
       width="8"
       height="8"
       x="2"
       y="2" />
  </g>
  <path
     style="color:#000000;font-style:normal;font-variant:normal;font-weight:normal;font-stretch:normal;font-size:medium;line-height:normal;font-family:sans-serif;text-indent:0;text-align:start;text-decoration:none;text-decoration-line:none;text-decoration-style:solid;text-decoration-color:#000000;letter-spacing:normal;word-spacing:normal;text-transform:none;direction:ltr;block-progression:tb;writing-mode:lr-tb;baseline-shift:baseline;text-anchor:start;white-space:normal;clip-rule:nonzero;display:inline;overflow:visible;visibility:visible;opacity:1;isolation:auto;mix-blend-mode:normal;color-interpolation:sRGB;color-interpolation-filters:linearRGB;solid-color:#000000;solid-opacity:1;fill-opacity:1;fill-rule:nonzero;stroke:none;stroke-width:1;stroke-linecap:butt;stroke-linejoin:miter;stroke-miterlimit:4;stroke-dasharray:none;stroke-dashoffset:0;stroke-opacity:1;color-rendering:auto;image-rendering:auto;shape-rendering:auto;text-rendering:auto;enable-background:accumulate;fill:#800000"
     d="M 194.21875 29.751953 L 193.63867 29.882812 C 180.36566 32.874708 166.23144 34.545876 147.0332 30.339844 L 146.39258 30.201172 L 145.81836 30.513672 C 110.00708 50.05511 73.289013 47.768923 29.943359 70.976562 L 28.779297 71.599609 L 29.054688 72.890625 C 32.959021 91.135104 38.834114 109.27455 51.429688 126.44727 L 52.25 127.56445 L 53.527344 127.02539 C 66.005706 121.76223 77.801909 116.14931 92.943359 116.1582 L 93.402344 252.94336 L 94.914062 253.15234 C 141.66061 259.58131 189.68173 264.14532 246.3125 253.59766 L 247.73633 253.33203 L 248.65234 115.80664 C 260.93807 116.34464 273.58438 119.30074 287.00977 126.49609 L 288.27148 127.17188 L 289.1875 126.07227 C 301.21561 111.63591 308.3981 93.780755 311.64648 73.257812 L 311.8457 71.992188 L 310.70117 71.416016 C 271.74615 51.825525 235.58141 48.793995 194.75977 30 L 194.21875 29.751953 z M 368.63477 63.007812 A 7.3862066 7.3862066 0 0 0 362.96094 65.664062 L 326.0332 109.97656 A 7.3862066 7.3862066 0 0 0 325.96094 110.07227 A 7.3862066 7.3862066 0 0 0 325.80664 110.27734 A 7.3862066 7.3862066 0 0 0 325.53516 110.65625 A 7.3862066 7.3862066 0 0 0 325.37109 110.92773 A 7.3862066 7.3862066 0 0 0 325.20703 111.19922 A 7.3862061 7.3862061 0 0 0 325.16211 111.29297 A 7.3862066 7.3862066 0 0 0 325.01758 111.59766 A 7.3862066 7.3862066 0 0 0 324.85938 111.95312 A 7.3862061 7.3862061 0 0 0 324.85742 111.95703 A 7.3862066 7.3862066 0 0 0 324.74414 112.26953 A 7.3862066 7.3862066 0 0 0 324.61523 112.66211 A 7.3862061 7.3862061 0 0 0 324.61523 112.66406 A 7.3862066 7.3862066 0 0 0 324.54297 112.94531 A 7.3862066 7.3862066 0 0 0 324.44531 113.38281 A 7.3862066 7.3862066 0 0 0 324.40234 113.68164 A 7.3862061 7.3862061 0 0 0 324.40234 113.68555 A 7.3862066 7.3862066 0 0 0 324.35156 114.11133 A 7.3862061 7.3862061 0 0 0 324.34961 114.12109 A 7.3862066 7.3862066 0 0 0 324.33594 114.41992 A 7.3862066 7.3862066 0 0 0 324.32812 114.84375 A 7.3862061 7.3862061 0 0 0 324.32812 114.84766 A 7.3862066 7.3862066 0 0 0 324.3457 115.17773 A 7.3862066 7.3862066 0 0 0 324.37891 115.57617 A 7.3862061 7.3862061 0 0 0 324.37891 115.58594 A 7.3862066 7.3862066 0 0 0 324.43945 115.96289 A 7.3862061 7.3862061 0 0 0 324.44141 115.9707 A 7.3862066 7.3862066 0 0 0 324.49609 116.2793 A 7.3862066 7.3862066 0 0 0 324.60547 116.70312 A 7.3862066 7.3862066 0 0 0 324.68945 116.99609 A 7.3862066 7.3862066 0 0 0 324.85156 117.42969 A 7.3862066 7.3862066 0 0 0 324.94727 117.66797 A 7.3862066 7.3862066 0 0 0 324.94922 117.67188 A 7.3862061 7.3862061 0 0 0 324.95117 117.67773 A 7.3862066 7.3862066 0 0 0 325.14844 118.08203 A 7.3862066 7.3862066 0 0 0 325.28711 118.34766 A 7.3862066 7.3862066 0 0 0 325.50195 118.69336 A 7.3862061 7.3862061 0 0 0 325.50781 118.70312 A 7.3862066 7.3862066 0 0 0 325.68359 118.97266 A 7.3862066 7.3862066 0 0 0 326.0332 119.43359 L 436.75781 252.30273 A 7.3862061 7.3862061 0 0 0 436.77148 252.31836 L 436.81641 252.37109 A 7.3862066 7.3862066 0 0 0 436.97461 252.54297 A 7.3862061 7.3862061 0 0 0 437.29688 252.89258 A 7.3862066 7.3862066 0 0 0 437.48828 253.06641 A 7.3862061 7.3862061 0 0 0 437.84766 253.38477 A 7.3862066 7.3862066 0 0 0 438.04102 253.5293 A 7.3862061 7.3862061 0 0 0 438.44922 253.82227 A 7.3862066 7.3862066 0 0 0 438.65234 253.94336 A 7.3862061 7.3862061 0 0 0 439.07617 254.18945 A 7.3862066 7.3862066 0 0 0 439.31641 254.30273 A 7.3862061 7.3862061 0 0 0 439.75977 254.50391 A 7.3862066 7.3862066 0 0 0 439.93945 254.56641 A 7.3862061 7.3862061 0 0 0 440.45703 254.74023 A 7.3862066 7.3862066 0 0 0 440.6582 254.78906 A 7.3862061 7.3862061 0 0 0 441.17188 254.9082 A 7.3862066 7.3862066 0 0 0 441.36914 254.93555 A 7.3862061 7.3862061 0 0 0 441.91992 255.00391 A 7.3862066 7.3862066 0 0 0 442.01172 255.00781 A 7.3862061 7.3862061 0 0 0 442.6543 255.02539 A 7.3862066 7.3862066 0 0 0 442.79297 255.01562 A 7.3862061 7.3862061 0 0 0 443.38477 254.97266 A 7.3862066 7.3862066 0 0 0 443.52734 254.94922 A 7.3862061 7.3862061 0 0 0 444.12891 254.8418 A 7.3862061 7.3862061 0 0 0 444.13086 254.8418 A 7.3862066 7.3862066 0 0 0 444.15625 254.83398 A 7.3862061 7.3862061 0 0 0 444.81836 254.64844 A 7.3862066 7.3862066 0 0 0 445.02734 254.57031 A 7.3862061 7.3862061 0 0 0 445.50195 254.38281 A 7.3862066 7.3862066 0 0 0 445.72656 254.27148 A 7.3862061 7.3862061 0 0 0 446.16211 254.04688 A 7.3862066 7.3862066 0 0 0 446.38281 253.9082 A 7.3862061 7.3862061 0 0 0 446.77344 253.65625 A 7.3862066 7.3862066 0 0 0 447.01172 253.4707 A 7.3862061 7.3862061 0 0 0 447.36328 253.18945 A 7.3862066 7.3862066 0 0 0 447.50586 253.05469 A 7.3862061 7.3862061 0 0 0 447.90039 252.66602 A 7.3862061 7.3862061 0 0 0 447.91016 252.65625 A 7.3862066 7.3862066 0 0 0 448.16211 252.37109 L 558.94531 119.43359 A 7.3862061 7.3862061 0 0 0 559.01758 119.33789 A 7.3862066 7.3862066 0 0 0 559.17188 119.13281 A 7.3862066 7.3862066 0 0 0 559.44336 118.75391 A 7.3862066 7.3862066 0 0 0 559.48633 118.69336 A 7.3862061 7.3862061 0 0 0 559.60742 118.48242 A 7.3862066 7.3862066 0 0 0 559.8125 118.12305 A 7.3862066 7.3862066 0 0 0 559.96094 117.8125 A 7.3862066 7.3862066 0 0 0 560.11914 117.45703 A 7.3862066 7.3862066 0 0 0 560.23438 117.14062 A 7.3862066 7.3862066 0 0 0 560.36328 116.74805 A 7.3862066 7.3862066 0 0 0 560.36328 116.74609 A 7.3862066 7.3862066 0 0 0 560.43555 116.46484 A 7.3862066 7.3862066 0 0 0 560.5332 116.02734 A 7.3862066 7.3862066 0 0 0 560.57617 115.72852 A 7.3862066 7.3862066 0 0 0 560.62695 115.29883 A 7.3862066 7.3862066 0 0 0 560.64258 114.99023 A 7.3862066 7.3862066 0 0 0 560.65039 114.56641 A 7.3862066 7.3862066 0 0 0 560.63281 114.23242 A 7.3862066 7.3862066 0 0 0 560.59961 113.83398 A 7.3862066 7.3862066 0 0 0 560.53906 113.44727 A 7.3862066 7.3862066 0 0 0 560.48242 113.13086 A 7.3862066 7.3862066 0 0 0 560.37305 112.70703 A 7.3862066 7.3862066 0 0 0 560.28906 112.41406 A 7.3862066 7.3862066 0 0 0 560.12695 111.98047 A 7.3862066 7.3862066 0 0 0 560.0293 111.73828 A 7.3862066 7.3862066 0 0 0 559.83008 111.32812 A 7.3862066 7.3862066 0 0 0 559.69141 111.0625 A 7.3862066 7.3862066 0 0 0 559.47656 110.7168 A 7.3862066 7.3862066 0 0 0 559.29492 110.4375 A 7.3862066 7.3862066 0 0 0 558.94531 109.97656 L 522.01758 65.664062 A 7.3862066 7.3862066 0 0 0 516.34375 63.007812 L 368.63477 63.007812 z M 372.09375 77.777344 L 385.25195 77.777344 L 393.86914 107.32031 L 347.47461 107.32031 L 372.09375 77.777344 z M 400.63867 77.777344 L 484.33984 77.777344 L 475.72266 107.32031 L 409.25391 107.32031 L 400.63867 77.777344 z M 499.72656 77.777344 L 512.88477 77.777344 L 537.50391 107.32031 L 491.10938 107.32031 L 499.72656 77.777344 z M 347.47461 122.08984 L 398.17578 122.08984 L 425.47656 215.69531 L 347.47461 122.08984 z M 413.5625 122.08984 L 471.41602 122.08984 L 442.48828 221.26562 L 413.5625 122.08984 z M 486.80273 122.08984 L 537.50391 122.08984 L 459.50195 215.69336 L 486.80273 122.08984 z M 360.875 275.63086 C 358.13313 275.60018 355.26166 275.68404 352.25391 275.89453 L 351.6875 275.93555 L 351.79883 276.49219 C 351.79883 276.49219 354.87528 291.8653 364.66992 305.60938 C 374.46456 319.35345 391.10879 331.48825 417.9082 324.86523 L 417.29492 324.45508 C 417.29494 324.45523 418.28915 324.37135 418.28906 324.36719 C 418.28898 324.36303 418.28918 324.35943 418.28906 324.35547 C 418.28883 324.34755 418.28761 324.33761 418.28711 324.32422 C 418.2861 324.29745 418.28375 324.25788 418.28125 324.20703 C 418.27624 324.10534 418.26771 323.95604 418.25391 323.76172 C 418.2263 323.37308 418.17889 322.80571 418.09375 322.08594 C 417.92348 320.64639 417.60676 318.59883 417.02734 316.1543 C 415.86851 311.26524 413.65312 304.79109 409.41602 298.44727 C 402.00108 287.34557 388.36147 276.68622 363.57422 275.69922 C 362.68896 275.66397 361.78896 275.64108 360.875 275.63086 z M 186.45312 279.51172 A 2.7457956 2.7457956 0 0 0 185.2207 279.76367 L 57.339844 338.85156 A 2.7457956 2.7457956 0 0 0 56.306641 343.00586 L 171.30273 494.07227 A 2.7457956 2.7457956 0 0 0 174.68359 494.88086 L 299.45898 434.50586 A 2.7457956 2.7457956 0 0 0 300.46289 430.39062 L 188.57227 280.61328 A 2.7457956 2.7457956 0 0 0 186.45312 279.51172 z M 432.47461 284.57031 C 432.21 284.57079 431.94932 284.58287 431.69336 284.60742 C 431.01081 284.6729 430.36095 284.82708 429.75 285.0957 C 428.5281 285.63295 427.57489 286.8484 427.37109 288.33398 C 427.16729 289.81957 427.5191 291.53797 428.37891 293.70312 C 429.90044 297.53463 431.18185 304.50314 432.14648 312.64648 C 433.11112 320.78983 433.79401 330.15244 434.27344 339.00586 C 435.23229 356.71271 435.38086 372.38281 435.38086 372.38281 L 438 372.61133 L 452.95117 292.53906 L 452.14258 292.07031 C 452.14258 292.07031 445.01017 287.93545 438.51367 285.81836 C 436.38201 285.12369 434.3269 284.56699 432.47461 284.57031 z M 521.7207 296.08594 C 495.95186 296.16423 480.46008 306.53862 471.29102 317.92969 C 465.70225 324.87281 462.45174 332.17955 460.5957 337.75 C 459.66769 340.53523 459.08964 342.88572 458.74219 344.54297 C 458.56846 345.37159 458.45129 346.02775 458.37891 346.47656 C 458.34271 346.70097 458.31907 346.87289 458.30273 346.99023 C 458.29457 347.04891 458.28712 347.09435 458.2832 347.125 C 458.28124 347.14032 458.28034 347.15146 458.2793 347.16016 C 458.27877 347.1645 458.27779 347.16791 458.27734 347.17188 C 458.2769 347.17583 459.26363 347.34001 459.26367 347.33984 L 458.61133 347.70312 C 489.12616 358.19493 509.7378 345.80065 522.56641 330.81641 C 535.39501 315.83216 540.57422 298.25 540.57422 298.25 L 540.73633 297.70508 L 540.17383 297.61523 C 535.53201 296.87206 531.1499 296.41447 527.01172 296.21094 C 525.20126 296.12189 523.43863 296.08072 521.7207 296.08594 z M 44.537109 353.56641 A 2.7457956 2.7457956 0 0 0 41.742188 356.08789 L 37.441406 408.81641 A 2.7457956 2.7457956 0 0 0 37.996094 410.70703 L 152.06445 559.83984 A 2.7457956 2.7457956 0 0 0 156.98633 558.3418 L 160.24414 505.27344 A 2.7457956 2.7457956 0 0 0 159.69141 503.44336 L 46.664062 354.65039 A 2.7457956 2.7457956 0 0 0 44.537109 353.56641 z M 397.64258 367.54883 C 365.18738 367.54883 338.85742 393.76357 338.85742 426.16406 C 338.85742 427.40414 338.85648 428.45051 339.03125 429.67383 L 339.09375 430.10352 L 339.37109 430.10352 C 340.33977 442.56614 344.3523 458.18555 353.73438 477.39648 L 353.73633 477.40234 L 353.74023 477.41016 C 353.74023 477.41016 370.11354 508.57237 383.17969 523.00195 L 383.19141 523.01562 L 384.38867 524.15625 L 384.37891 524.14453 C 390.83843 530.66119 399.7619 534.66602 409.64844 534.66602 C 421.47459 534.66602 431.9375 528.9669 438.42383 520.1543 C 444.91014 528.96694 455.37493 534.66602 467.20117 534.66602 C 476.97845 534.66602 486.00911 530.60671 492.41406 524.14453 L 492.4043 524.15625 L 493.59961 523.01562 L 493.61133 523.00391 C 506.79296 508.57228 523.05273 477.4082 523.05273 477.4082 L 523.05664 477.40234 L 523.05859 477.39648 C 532.44182 458.18327 536.45614 442.66958 537.5332 430.10352 L 537.6875 430.10352 L 537.70898 429.625 C 537.76585 428.37254 537.76562 427.34778 537.76562 426.16406 C 537.76562 393.76357 511.43719 367.54883 479.09375 367.54883 C 463.23594 367.54883 448.93831 373.74401 438.39453 384.00781 C 427.74263 373.74523 413.44589 367.54883 397.64258 367.54883 z M 295.27344 455.91406 A 4.5243395 4.5243395 0 0 0 293.26953 456.38086 L 175.57617 514.50195 A 4.5243395 4.5243395 0 0 0 173.08594 518.03125 L 172.88281 519.76953 A 4.5243395 4.5243395 0 0 0 179.37891 524.35156 L 296.97461 466.27344 A 4.5243395 4.5243395 0 0 0 299.43164 462.97461 L 299.73438 461.19531 A 4.5243395 4.5243395 0 0 0 295.27344 455.91406 z M 293.16406 487.87695 A 4.5243395 4.5243395 0 0 0 290.98633 488.3418 L 173.29102 546.46094 A 4.5243395 4.5243395 0 0 0 170.80078 549.99023 L 170.59766 551.73047 A 4.5243395 4.5243395 0 0 0 177.09375 556.3125 L 294.69141 498.23242 A 4.5243395 4.5243395 0 0 0 297.14844 494.93359 L 297.44922 493.1543 A 4.5243395 4.5243395 0 0 0 293.16406 487.87695 z "
     id="path4294" />
</svg>
