<?xml version="1.0" encoding="UTF-8" standalone="no"?>
<!-- Created with Inkscape (http://www.inkscape.org/) -->

<svg
   xmlns:dc="http://purl.org/dc/elements/1.1/"
   xmlns:cc="http://creativecommons.org/ns#"
   xmlns:rdf="http://www.w3.org/1999/02/22-rdf-syntax-ns#"
   xmlns:svg="http://www.w3.org/2000/svg"
   xmlns="http://www.w3.org/2000/svg"
   xmlns:sodipodi="http://sodipodi.sourceforge.net/DTD/sodipodi-0.dtd"
   xmlns:inkscape="http://www.inkscape.org/namespaces/inkscape"
   version="1.0"
   width="580"
   height="580"
   id="svg2"
   sodipodi:version="0.32"
   inkscape:version="0.91 r13725"
   sodipodi:docname="bakery.svg"
   inkscape:output_extension="org.inkscape.output.svg.inkscape">
  <metadata
     id="metadata2975">
    <rdf:RDF>
      <cc:Work
         rdf:about="">
        <dc:format>image/svg+xml</dc:format>
        <dc:type
           rdf:resource="http://purl.org/dc/dcmitype/StillImage" />
        <cc:license
           rdf:resource="http://web.resource.org/cc/PublicDomain" />
        <dc:language>en</dc:language>
      </cc:Work>
    </rdf:RDF>
  </metadata>
  <sodipodi:namedview
     inkscape:window-height="972"
     inkscape:window-width="1280"
     inkscape:pageshadow="2"
     inkscape:pageopacity="0.0"
     guidetolerance="10.0"
     gridtolerance="10.0"
     objecttolerance="10.0"
     borderopacity="1.0"
     bordercolor="#666666"
     pagecolor="#ffffff"
     id="base"
     inkscape:zoom="0.92167712"
     inkscape:cx="264.75478"
     inkscape:cy="416.89168"
     inkscape:window-x="-8"
     inkscape:window-y="-8"
     inkscape:current-layer="svg2"
     showgrid="false"
     inkscape:window-maximized="1" />
  <defs
     id="defs4">
    <inkscape:perspective
       sodipodi:type="inkscape:persp3d"
       inkscape:vp_x="0 : 290 : 1"
       inkscape:vp_y="6.1230318e-14 : 1000 : 0"
       inkscape:vp_z="580 : 290 : 1"
       inkscape:persp3d-origin="290 : 193.33333 : 1"
       id="perspective2441" />
    <inkscape:perspective
       id="perspective3452"
       inkscape:persp3d-origin="30 : 20 : 1"
       inkscape:vp_z="60 : 30 : 1"
       inkscape:vp_y="0 : 1000 : 0"
       inkscape:vp_x="0 : 30 : 1"
       sodipodi:type="inkscape:persp3d" />
    <symbol
       viewBox="244.5 110 489 219.9"
       id="symbol-university">
      <path
         id="path4460"
         d="M79,43l57,119c0,0,21-96,104-96s124,106,124,106l43-133l82-17L0,17L79,43z" />
      <path
         id="path4462"
         d="M94,176l-21,39"
         stroke-width="20"
         stroke="#000000"
         fill="none" />
      <path
         id="path4464"
         d="M300,19c0,10.5-22.6,19-50.5,19S199,29.5,199,19s22.6-19,50.5-19S300,8.5,300,19z" />
      <path
         id="path4466"
         d="M112,216l-16-38L64,88c0,0-9-8-4-35s16-24,16-24"
         stroke-width="20"
         stroke="#000000"
         ill="none" />
    </symbol>
    <inkscape:perspective
       id="perspective4471"
       inkscape:persp3d-origin="372.04724 : 350.78739 : 1"
       inkscape:vp_z="744.09448 : 526.18109 : 1"
       inkscape:vp_y="0 : 1000 : 0"
       inkscape:vp_x="0 : 526.18109 : 1"
       sodipodi:type="inkscape:persp3d" />
    <inkscape:perspective
       id="perspective4668"
       inkscape:persp3d-origin="6 : 4 : 1"
       inkscape:vp_z="12 : 6 : 1"
       inkscape:vp_y="0 : 1000 : 0"
       inkscape:vp_x="0 : 6 : 1"
       sodipodi:type="inkscape:persp3d" />
    <inkscape:perspective
       id="perspective7157"
       inkscape:persp3d-origin="372.04724 : 350.78739 : 1"
       inkscape:vp_z="744.09448 : 526.18109 : 1"
       inkscape:vp_y="0 : 1000 : 0"
       inkscape:vp_x="0 : 526.18109 : 1"
       sodipodi:type="inkscape:persp3d" />
  </defs>
  <g
     id="layer3"
     inkscape:label="Layout"
     style="display:none;stroke:#757575;stroke-opacity:1"
     transform="matrix(48.14969,0,0,48.14969,-536.27327,-33.306752)">
    <rect
       style="fill:none;stroke:#757575;stroke-width:0.10000000000000001;stroke-miterlimit:4;stroke-dasharray:none;stroke-opacity:1;display:inline"
       id="rect4134"
       width="10"
       height="10"
       x="1"
       y="1" />
    <rect
       style="fill:none;stroke:#757575;stroke-width:0.10000000000000001;stroke-miterlimit:4;stroke-dasharray:none;stroke-opacity:1;display:inline"
       id="rect4136"
       width="8"
       height="8"
       x="2"
       y="2" />
  </g>
  <path
     style="fill:#800000;fill-opacity:1;fill-rule:evenodd;stroke:none;stroke-width:72.95391083;stroke-linecap:round;stroke-linejoin:miter;stroke-miterlimit:4;stroke-dasharray:none;stroke-opacity:1"
     d="M 200.53148,120.55983 C 179.75461,120.81544 158.93331,125.73309 139.69951,135.49446 C 139.48328,135.59414 139.28186,135.71043 139.06644,135.81099 C 138.78234,135.95703 138.48655,136.06568 138.20317,136.21385 L 138.20317,136.24263 C 56.909305,174.84645 33.632664,276.90265 71.41461,352.11845 C 123.88789,461.93242 258.13839,499.47648 365.73317,464.80436 C 464.39383,437.56553 546.64649,340.44254 526.21563,230.74225 C 526.0886,230.06015 526.00533,229.38223 525.87032,228.69917 L 525.81277,228.69917 C 514.31342,152.46885 436.09489,106.71422 364.06418,124.64599 C 338.17194,131.09305 315.10898,141.8068 294.51314,155.49362 C 268.22865,132.18091 234.49669,120.14198 200.53148,120.55983 z M 399.91878,139.92593 C 402.48288,139.74553 404.89869,141.38217 405.61639,143.95453 L 411.31399,164.32778 C 411.35183,164.44702 411.39945,164.58032 411.42909,164.70186 C 412.14955,167.66966 410.31073,170.65737 407.34293,171.37784 C 404.37513,172.0983 401.38741,170.25949 400.66695,167.29168 L 394.96935,146.91844 C 394.14913,143.9786 395.8567,140.94758 398.79653,140.12736 C 399.16401,140.02483 399.55248,139.9517 399.91878,139.92593 z M 239.81041,152.7887 C 242.86175,152.66156 245.43842,155.03208 245.56556,158.08344 C 245.6927,161.13478 243.32217,163.71144 240.27082,163.83859 L 219.17818,165.45003 C 216.13478,165.68047 213.48081,163.40011 213.25037,160.35672 C 213.01994,157.31332 215.30028,154.65934 218.34368,154.42891 L 239.43632,152.81747 C 239.56065,152.80365 239.68542,152.79404 239.81041,152.7887 z M 137.33989,163.1192 C 137.70703,163.12665 138.06124,163.17901 138.43337,163.26308 L 159.09438,167.89597 C 159.21729,167.91923 159.31863,167.95074 159.43968,167.9823 C 162.39408,168.7559 164.18434,171.79021 163.41074,174.74461 C 162.63716,177.699 159.60283,179.46048 156.64844,178.68689 L 136.01621,174.02521 C 133.03911,173.35271 131.17122,170.41266 131.84372,167.43556 C 132.43218,164.8306 134.76998,163.06697 137.33989,163.1192 z M 332.66981,169.21966 C 334.44491,169.23033 336.18616,170.10635 337.24516,171.69438 C 338.93956,174.23522 338.2609,177.65433 335.72004,179.34873 L 318.51213,191.69353 C 316.03176,193.47205 312.60754,192.90779 310.829,190.4274 C 309.0505,187.94702 309.61477,184.49402 312.09514,182.71549 L 329.27427,170.37069 C 329.37331,170.29427 329.45805,170.23878 329.56203,170.16926 C 330.51485,169.53386 331.60475,169.21325 332.66981,169.21966 z M 484.77853,181.96732 C 487.82987,181.84019 490.40654,184.21072 490.53368,187.26207 C 490.66082,190.31341 488.29028,192.89008 485.23894,193.01722 L 464.1463,194.62866 C 461.1029,194.8591 458.44893,192.57875 458.21849,189.53535 C 457.98806,186.49195 460.2684,183.83798 463.3118,183.60754 L 484.40444,181.9961 C 484.52877,181.98228 484.65354,181.97267 484.77853,181.96732 z M 201.9415,188.09656 C 216.54729,188.15691 231.23013,192.41564 243.23472,200.47014 C 209.86378,237.60493 181.34731,290.27666 162.77751,331.80309 C 157.62325,342.79891 158.79323,355.70735 165.85651,365.58584 C 172.9198,375.46433 184.77618,380.77687 196.84802,379.45576 C 208.91984,378.13465 219.33914,370.39874 224.09867,359.2264 C 241.38694,320.56578 267.21524,274.70892 294.31171,244.92871 C 319.24692,271.4648 346.98733,314.64576 358.59712,348.4932 C 362.35813,360.01861 372.03311,368.6111 383.91979,370.99585 C 395.80649,373.38061 408.06043,369.18632 415.976,360.00351 C 423.89158,350.8207 426.24504,338.08643 422.13401,326.68117 C 407.76693,284.79504 376.44644,234.97259 347.11525,202.80098 C 357.61428,197.23609 368.62483,192.75739 380.29371,189.85189 C 384.60839,188.77776 389.00464,188.20588 393.41546,188.09656 C 424.29122,187.33131 455.55058,209.19145 459.6285,239.66274 L 459.77238,240.69867 L 459.97381,241.7346 C 473.59796,310.66853 414.60784,381.66113 346.51096,400.46174 L 345.82034,400.66317 L 345.12972,400.8646 C 267.5288,425.87128 166.83755,395.98007 131.7574,322.56573 L 131.61352,322.27797 L 131.46964,321.96144 C 109.9663,279.15287 124.82774,216.31489 167.81343,196.49909 L 168.5616,196.15378 L 169.30977,195.75092 C 179.26521,190.54551 190.58143,188.04963 201.9415,188.09656 z M 103.06796,225.15975 C 104.77066,225.23261 106.42259,226.10598 107.44187,227.63447 C 109.13627,230.17531 108.45761,233.6232 105.91676,235.3176 L 88.737623,247.6624 C 86.257249,249.44092 82.804234,248.84787 81.025717,246.3675 C 79.247204,243.88712 79.811475,240.43411 82.291851,238.65559 L 99.470985,226.33956 C 99.570021,226.26314 99.683518,226.17888 99.787518,226.10935 C 100.58153,225.57985 101.46054,225.26912 102.34856,225.18853 C 102.59277,225.16637 102.82471,225.14935 103.06796,225.15975 z M 357.12922,242.45399 C 359.48646,242.47698 361.6526,244.01978 362.36641,246.39627 C 363.24496,249.32116 361.57924,252.42392 358.65433,253.30246 L 338.6264,260.06476 C 335.73476,261.04142 332.58177,259.50331 331.60511,256.61167 C 330.62846,253.72004 332.19535,250.59582 335.08698,249.61916 L 355.11491,242.82808 C 355.23194,242.78391 355.34047,242.74908 355.46022,242.71297 C 356.00864,242.54825 356.58524,242.44869 357.12922,242.45399 z M 255.29177,245.70565 C 258.34312,245.57851 260.91979,247.94904 261.04692,251.00039 C 261.17406,254.05174 258.80353,256.6284 255.75218,256.75555 L 234.65954,258.36699 C 231.61615,258.59743 228.96217,256.31707 228.73174,253.27368 C 228.5013,250.23028 230.78165,247.5763 233.82505,247.34587 L 254.91769,245.73443 C 255.04202,245.72061 255.16679,245.71099 255.29177,245.70565 z M 488.20284,247.89261 C 489.26699,247.86826 490.34783,248.16579 491.31063,248.78466 L 509.12283,260.20864 C 509.23037,260.27254 509.33642,260.339 509.43936,260.41007 C 511.95091,262.1476 512.58689,265.58165 510.84937,268.0932 C 509.11184,270.60475 505.64901,271.24074 503.13747,269.50321 L 485.35404,258.07923 C 482.78658,256.42892 482.03475,252.99235 483.68505,250.42488 C 484.71649,248.82021 486.42926,247.93318 488.20284,247.89261 z M 372.20772,304.75353 C 372.57485,304.76099 372.92907,304.81335 373.3012,304.89741 L 393.93342,309.55908 C 394.05634,309.58234 394.18646,309.5851 394.30751,309.61663 C 397.2619,310.39023 399.02338,313.42456 398.24979,316.37894 C 397.47621,319.33333 394.47066,321.09482 391.51626,320.32122 L 370.88403,315.68832 C 367.90693,315.01582 366.03905,312.04699 366.71155,309.0699 C 367.3,306.46493 369.63782,304.70131 372.20772,304.75353 z M 196.38777,309.61663 C 197.45192,309.59229 198.53276,309.86104 199.49556,310.47991 L 217.30776,321.90389 C 217.4153,321.96778 217.52133,322.03427 217.62429,322.10532 C 220.13584,323.84285 220.74306,327.30568 219.00553,329.81722 C 217.26799,332.32877 213.83395,332.96476 211.3224,331.22724 L 193.5102,319.77448 C 190.94273,318.12417 190.21967,314.71637 191.86998,312.1489 C 192.90142,310.54424 194.61419,309.65721 196.38777,309.61663 z M 103.55714,310.88277 C 106.60849,310.75563 109.18516,313.12616 109.3123,316.17751 C 109.43944,319.22886 107.0689,321.80553 104.01756,321.93266 L 82.924918,323.54411 C 79.88152,323.77454 77.227549,321.49419 76.997109,318.4508 C 76.766669,315.4074 79.047022,312.75342 82.09042,312.52299 L 103.18306,310.91154 C 103.30739,310.89772 103.43216,310.88812 103.55714,310.88277 z M 486.53385,324.58003 C 488.30895,324.59071 490.0502,325.46672 491.1092,327.05475 C 492.8036,329.59559 492.09616,333.01471 489.5553,334.70911 L 472.37617,347.05391 C 469.89579,348.83243 466.44278,348.26816 464.66426,345.78778 C 462.88575,343.3074 463.45001,339.85439 465.9304,338.07587 L 483.13831,325.73107 C 483.23734,325.65465 483.32207,325.59916 483.42607,325.52963 C 484.37889,324.89424 485.46879,324.57363 486.53385,324.58003 z M 125.71448,361.70078 C 128.06936,361.77018 130.19892,363.36954 130.86535,365.75816 L 136.56295,386.1314 C 136.60079,386.25064 136.6484,386.35518 136.67805,386.47671 C 137.39851,389.44451 135.55968,392.43222 132.59189,393.15269 C 129.62409,393.87315 126.63637,392.0631 125.91591,389.09531 L 120.21831,368.72206 C 119.39809,365.78223 121.13443,362.72244 124.07427,361.90221 C 124.62548,361.74842 125.17105,361.68476 125.71448,361.70078 z M 431.42825,374.30456 C 434.47738,374.16962 437.04846,376.55018 437.1834,379.5993 L 438.13301,400.72072 C 438.14293,400.84543 438.16034,400.96971 438.16178,401.0948 C 438.19324,404.14864 435.71944,406.64587 432.66561,406.6773 C 429.61178,406.70876 427.11457,404.26374 427.08311,401.20991 L 426.13351,380.08849 C 425.99856,377.03937 428.37912,374.43951 431.42825,374.30456 z M 180.79131,416.37474 C 181.15844,416.3822 181.54143,416.43455 181.91356,416.51862 L 202.54579,421.18029 C 202.6687,421.20355 202.79882,421.23508 202.91987,421.26662 C 205.87426,422.04021 207.63575,425.04576 206.86215,428.00015 C 206.08857,430.95454 203.05424,432.71603 200.09985,431.94243 L 179.46762,427.30953 C 176.49052,426.63702 174.62263,423.66819 175.29513,420.6911 C 175.88359,418.08614 178.22139,416.32252 180.79131,416.37474 z M 373.76161,425.81319 C 376.81296,425.68605 379.38962,428.05658 379.51676,431.10793 C 379.6439,434.15928 377.27336,436.73595 374.22202,436.86308 L 353.12938,438.47453 C 350.08599,438.70496 347.432,436.42462 347.20158,433.38122 C 346.97114,430.33782 349.25148,427.68384 352.29489,427.45341 L 373.38753,425.84196 C 373.51186,425.82814 373.63662,425.81854 373.76161,425.81319 z M 262.68714,431.16548 C 263.75129,431.14114 264.83212,431.40989 265.79493,432.02876 L 283.60713,443.45274 C 283.71467,443.51663 283.82071,443.58311 283.92366,443.65417 C 286.43521,445.3917 287.04243,448.85452 285.3049,451.36607 C 283.56737,453.87762 280.13333,454.51361 277.62177,452.77608 L 259.80957,441.32333 C 257.2421,439.67302 256.51904,436.26522 258.16935,433.69775 C 259.20079,432.09308 260.91356,431.20605 262.68714,431.16548 z"
     id="path7165"
     sodipodi:nodetypes="ccsccccsccccccccssccsccsccsccccccssccsccsccsccsccsccsccccccsscccssccssccccccccccccccsccsccssccsccsccsccsccsccccccssccsccccssccsccccssccsccsccsccccsccsccsccccssccsccccssccccccssccsccsccsccccccssccsc" />
</svg>
