<?xml version="1.0" encoding="UTF-8" standalone="no"?>
<!-- Created with Inkscape (http://www.inkscape.org/) -->

<svg
   xmlns:dc="http://purl.org/dc/elements/1.1/"
   xmlns:cc="http://creativecommons.org/ns#"
   xmlns:rdf="http://www.w3.org/1999/02/22-rdf-syntax-ns#"
   xmlns:svg="http://www.w3.org/2000/svg"
   xmlns="http://www.w3.org/2000/svg"
   xmlns:sodipodi="http://sodipodi.sourceforge.net/DTD/sodipodi-0.dtd"
   xmlns:inkscape="http://www.inkscape.org/namespaces/inkscape"
   version="1.0"
   width="580"
   height="580"
   id="svg2"
   sodipodi:version="0.32"
   inkscape:version="0.91 r13725"
   sodipodi:docname="mobile_phone.svg"
   inkscape:output_extension="org.inkscape.output.svg.inkscape">
  <metadata
     id="metadata2975">
    <rdf:RDF>
      <cc:Work
         rdf:about="">
        <dc:format>image/svg+xml</dc:format>
        <dc:type
           rdf:resource="http://purl.org/dc/dcmitype/StillImage" />
        <cc:license
           rdf:resource="http://web.resource.org/cc/PublicDomain" />
        <dc:language>en</dc:language>
        <dc:title />
      </cc:Work>
    </rdf:RDF>
  </metadata>
  <sodipodi:namedview
     inkscape:window-height="972"
     inkscape:window-width="1280"
     inkscape:pageshadow="2"
     inkscape:pageopacity="0.0"
     guidetolerance="10.0"
     gridtolerance="10.0"
     objecttolerance="10.0"
     borderopacity="1.0"
     bordercolor="#666666"
     pagecolor="#ffffff"
     id="base"
     inkscape:zoom="0.65172416"
     inkscape:cx="373.51825"
     inkscape:cy="142.72994"
     inkscape:window-x="-8"
     inkscape:window-y="-8"
     inkscape:current-layer="svg2"
     showgrid="false"
     inkscape:window-maximized="1" />
  <defs
     id="defs4">
    <inkscape:perspective
       sodipodi:type="inkscape:persp3d"
       inkscape:vp_x="0 : 290 : 1"
       inkscape:vp_y="6.1230318e-14 : 1000 : 0"
       inkscape:vp_z="580 : 290 : 1"
       inkscape:persp3d-origin="290 : 193.33333 : 1"
       id="perspective2441" />
    <inkscape:perspective
       id="perspective3452"
       inkscape:persp3d-origin="30 : 20 : 1"
       inkscape:vp_z="60 : 30 : 1"
       inkscape:vp_y="0 : 1000 : 0"
       inkscape:vp_x="0 : 30 : 1"
       sodipodi:type="inkscape:persp3d" />
    <symbol
       viewBox="244.5 110 489 219.9"
       id="symbol-university">
      <path
         id="path4460"
         d="M79,43l57,119c0,0,21-96,104-96s124,106,124,106l43-133l82-17L0,17L79,43z" />
      <path
         id="path4462"
         d="M94,176l-21,39"
         stroke-width="20"
         stroke="#000000"
         fill="none" />
      <path
         id="path4464"
         d="M300,19c0,10.5-22.6,19-50.5,19S199,29.5,199,19s22.6-19,50.5-19S300,8.5,300,19z" />
      <path
         id="path4466"
         d="M112,216l-16-38L64,88c0,0-9-8-4-35s16-24,16-24"
         stroke-width="20"
         stroke="#000000"
         ill="none" />
    </symbol>
    <inkscape:perspective
       id="perspective4471"
       inkscape:persp3d-origin="372.04724 : 350.78739 : 1"
       inkscape:vp_z="744.09448 : 526.18109 : 1"
       inkscape:vp_y="0 : 1000 : 0"
       inkscape:vp_x="0 : 526.18109 : 1"
       sodipodi:type="inkscape:persp3d" />
    <inkscape:perspective
       id="perspective4668"
       inkscape:persp3d-origin="6 : 4 : 1"
       inkscape:vp_z="12 : 6 : 1"
       inkscape:vp_y="0 : 1000 : 0"
       inkscape:vp_x="0 : 6 : 1"
       sodipodi:type="inkscape:persp3d" />
    <inkscape:perspective
       id="perspective3826"
       inkscape:persp3d-origin="0.5 : 0.33333333 : 1"
       inkscape:vp_z="1 : 0.5 : 1"
       inkscape:vp_y="0 : 1000 : 0"
       inkscape:vp_x="0 : 0.5 : 1"
       sodipodi:type="inkscape:persp3d" />
    <inkscape:perspective
       id="perspective3855"
       inkscape:persp3d-origin="0.5 : 0.33333333 : 1"
       inkscape:vp_z="1 : 0.5 : 1"
       inkscape:vp_y="0 : 1000 : 0"
       inkscape:vp_x="0 : 0.5 : 1"
       sodipodi:type="inkscape:persp3d" />
    <inkscape:perspective
       id="perspective3909"
       inkscape:persp3d-origin="0.5 : 0.33333333 : 1"
       inkscape:vp_z="1 : 0.5 : 1"
       inkscape:vp_y="0 : 1000 : 0"
       inkscape:vp_x="0 : 0.5 : 1"
       sodipodi:type="inkscape:persp3d" />
    <inkscape:perspective
       id="perspective3950"
       inkscape:persp3d-origin="0.5 : 0.33333333 : 1"
       inkscape:vp_z="1 : 0.5 : 1"
       inkscape:vp_y="0 : 1000 : 0"
       inkscape:vp_x="0 : 0.5 : 1"
       sodipodi:type="inkscape:persp3d" />
    <inkscape:perspective
       id="perspective3972"
       inkscape:persp3d-origin="0.5 : 0.33333333 : 1"
       inkscape:vp_z="1 : 0.5 : 1"
       inkscape:vp_y="0 : 1000 : 0"
       inkscape:vp_x="0 : 0.5 : 1"
       sodipodi:type="inkscape:persp3d" />
    <inkscape:perspective
       id="perspective3994"
       inkscape:persp3d-origin="0.5 : 0.33333333 : 1"
       inkscape:vp_z="1 : 0.5 : 1"
       inkscape:vp_y="0 : 1000 : 0"
       inkscape:vp_x="0 : 0.5 : 1"
       sodipodi:type="inkscape:persp3d" />
    <inkscape:perspective
       id="perspective4016"
       inkscape:persp3d-origin="0.5 : 0.33333333 : 1"
       inkscape:vp_z="1 : 0.5 : 1"
       inkscape:vp_y="0 : 1000 : 0"
       inkscape:vp_x="0 : 0.5 : 1"
       sodipodi:type="inkscape:persp3d" />
  </defs>
  <g
     id="layer3"
     inkscape:label="Layout"
     style="display:none;stroke:#757575;stroke-opacity:1"
     transform="matrix(48.14969,0,0,48.14969,-536.27327,-33.306752)">
    <rect
       style="fill:none;stroke:#757575;stroke-width:0.10000000000000001;stroke-miterlimit:4;stroke-dasharray:none;stroke-opacity:1;display:inline"
       id="rect4134"
       width="10"
       height="10"
       x="1"
       y="1" />
    <rect
       style="fill:none;stroke:#757575;stroke-width:0.10000000000000001;stroke-miterlimit:4;stroke-dasharray:none;stroke-opacity:1;display:inline"
       id="rect4136"
       width="8"
       height="8"
       x="2"
       y="2" />
  </g>
  <path
     style="color:#000000;font-style:normal;font-variant:normal;font-weight:normal;font-stretch:normal;font-size:medium;line-height:normal;font-family:sans-serif;text-indent:0;text-align:start;text-decoration:none;text-decoration-line:none;text-decoration-style:solid;text-decoration-color:#000000;letter-spacing:normal;word-spacing:normal;text-transform:none;direction:ltr;block-progression:tb;writing-mode:lr-tb;baseline-shift:baseline;text-anchor:start;white-space:normal;clip-rule:nonzero;display:inline;overflow:visible;visibility:visible;opacity:1;isolation:auto;mix-blend-mode:normal;color-interpolation:sRGB;color-interpolation-filters:linearRGB;solid-color:#000000;solid-opacity:1;fill:#000080;fill-opacity:1;fill-rule:nonzero;stroke:none;stroke-width:5;stroke-linecap:butt;stroke-linejoin:miter;stroke-miterlimit:4;stroke-dasharray:none;stroke-dashoffset:0;stroke-opacity:1;color-rendering:auto;image-rendering:auto;shape-rendering:auto;text-rendering:auto;enable-background:accumulate"
     d="M 404.28125 22.587891 C 399.81338 22.492248 395.7046 25.55525 394.67188 30.070312 L 385.13281 71.779297 L 255.67969 42.169922 C 255.39739 42.105353 254.99215 41.988197 254.46094 41.894531 C 252.8957 41.618525 251.33563 41.501443 249.79883 41.533203 C 239.04118 41.755527 229.40883 49.246813 226.90234 60.205078 L 130.73828 480.63281 C 127.7809 493.5624 135.87705 506.46059 148.80664 509.41797 L 317.55469 548.01562 C 330.48427 550.97303 343.35032 542.86439 346.30664 529.93945 L 442.4707 109.51367 C 445.12275 97.918991 438.89417 86.37838 428.25391 81.990234 L 437.86914 39.951172 C 439.0494 34.791101 435.78703 29.592373 430.62695 28.412109 L 406.21094 22.828125 C 405.56593 22.680592 404.91952 22.601554 404.28125 22.587891 z M 262.33789 76.517578 C 263.39872 76.544137 264.47564 76.677017 265.55469 76.923828 L 400.39453 107.76562 C 409.02693 109.74013 414.34558 118.21525 412.37109 126.84766 L 371.30469 306.39062 C 369.3302 315.02303 360.85506 320.34363 352.22266 318.36914 L 217.38281 287.52734 C 208.75041 285.55286 203.46177 277.089 205.4375 268.45117 L 246.50586 88.910156 C 248.23462 81.352056 254.91211 76.331665 262.33789 76.517578 z M 200.91406 319.55469 C 201.53693 319.57219 202.1683 319.65176 202.80273 319.79688 L 226.41602 325.19727 C 231.49153 326.35818 234.59258 331.26303 233.43359 336.33008 L 228.32812 358.64844 C 227.16914 363.71547 222.24543 366.78592 217.16992 365.625 L 193.55664 360.22266 C 188.48115 359.06174 185.38008 354.15687 186.53906 349.08984 L 191.64453 326.77148 C 192.51377 322.97121 195.49969 320.29464 199.08008 319.68359 C 199.67681 319.58175 200.29119 319.53718 200.91406 319.55469 z M 262.88672 333.73047 C 263.5091 333.74748 264.14096 333.82559 264.77539 333.9707 L 288.38867 339.37305 C 293.46418 340.53396 296.53396 345.42255 295.37305 350.49805 L 290.26758 372.81641 C 289.10666 377.8919 284.21808 380.95974 279.14258 379.79883 L 255.5293 374.39844 C 250.4538 373.23751 247.35274 368.33266 248.51172 363.26562 L 253.61719 340.94727 C 254.48642 337.14699 257.4743 334.47043 261.05469 333.85938 C 261.65142 333.75752 262.26434 333.71346 262.88672 333.73047 z M 324.82812 347.89844 C 325.44946 347.91546 326.08041 347.99356 326.71484 348.13867 L 350.36133 353.54688 C 355.43682 354.70779 358.50663 359.59638 357.3457 364.67188 L 352.24023 386.99023 C 351.07932 392.06572 346.19073 395.13553 341.11523 393.97461 L 317.46875 388.56641 C 312.39325 387.40549 309.32541 382.51494 310.48633 377.43945 L 315.58984 355.12305 C 316.46053 351.31643 319.42941 348.63855 323 348.02734 C 323.5951 347.92548 324.2068 347.88142 324.82812 347.89844 z M 186.73242 381.5625 C 187.35454 381.579 187.98576 381.65786 188.61914 381.80273 L 212.23438 387.20312 C 217.30142 388.36211 220.40117 393.30211 219.24219 398.36914 L 214.14453 420.6543 C 212.98555 425.72133 208.04556 428.82304 202.97852 427.66406 L 179.36523 422.26172 C 174.2982 421.10274 171.19844 416.16275 172.35742 411.0957 L 177.45508 388.81055 C 178.32432 385.01027 181.31906 382.31598 184.90039 381.69531 C 185.49728 381.59187 186.1103 381.546 186.73242 381.5625 z M 248.70508 395.73828 C 249.32769 395.75478 249.96037 395.83364 250.59375 395.97852 L 274.20703 401.37891 C 279.27407 402.53789 282.34256 407.46162 281.18164 412.53711 L 276.08398 434.82227 C 274.92307 439.89776 270.01822 442.99687 264.95117 441.83789 L 241.33789 436.4375 C 236.27085 435.27852 233.1711 430.33852 234.33008 425.27148 L 239.42773 402.98633 C 240.29697 399.18605 243.29172 396.49176 246.87305 395.87109 C 247.46993 395.76765 248.08247 395.72178 248.70508 395.73828 z M 310.64648 409.90625 C 311.26804 409.92227 311.89982 409.99966 312.5332 410.14453 L 336.17969 415.55469 C 341.24672 416.71367 344.31521 421.6374 343.1543 426.71289 L 338.05859 448.99805 C 336.89768 454.07354 331.99281 457.17265 326.92578 456.01367 L 303.2793 450.60547 C 298.21226 449.44649 295.14181 444.52276 296.30273 439.44727 L 301.40039 417.16211 C 302.27108 413.35549 305.24682 410.65988 308.81836 410.03906 C 309.41361 409.93559 310.02493 409.89023 310.64648 409.90625 z M 172.54102 443.60156 C 173.1634 443.61858 173.79525 443.69668 174.42969 443.8418 L 198.04297 449.24219 C 203.11848 450.40311 206.21953 455.30795 205.06055 460.375 L 199.95508 482.69336 C 198.7961 487.76039 193.87238 490.83084 188.79688 489.66992 L 165.18359 484.26758 C 160.1081 483.10666 157.00704 478.2018 158.16602 473.13477 L 163.27148 450.81836 C 164.14073 447.01807 167.1286 444.34152 170.70898 443.73047 C 171.30572 443.62863 171.91863 443.58455 172.54102 443.60156 z M 234.51367 457.77539 C 235.13606 457.79289 235.76791 457.87246 236.40234 458.01758 L 260.01562 463.41797 C 265.09114 464.57889 268.16092 469.46746 267 474.54297 L 261.89453 496.86133 C 260.73362 501.93682 255.84503 505.00467 250.76953 503.84375 L 227.15625 498.44336 C 222.08075 497.28244 218.97969 492.37759 220.13867 487.31055 L 225.24414 464.99219 C 226.11338 461.19191 229.10126 458.51535 232.68164 457.9043 C 233.27837 457.80245 233.89129 457.75789 234.51367 457.77539 z M 296.45508 471.94336 C 297.07641 471.96038 297.70736 472.03848 298.3418 472.18359 L 321.98828 477.59375 C 327.06377 478.75467 330.13357 483.64325 328.97266 488.71875 L 323.86719 511.03711 C 322.70627 516.1126 317.81769 519.18045 312.74219 518.01953 L 289.0957 512.61133 C 284.0202 511.45041 280.95237 506.56182 282.11328 501.48633 L 287.2168 479.16797 C 288.08748 475.36134 291.05636 472.68347 294.62695 472.07227 C 295.22205 471.9704 295.83375 471.92634 296.45508 471.94336 z "
     id="path4215" />
</svg>
