<?xml version="1.0" encoding="UTF-8" standalone="no"?>
<!-- Created with Inkscape (http://www.inkscape.org/) -->

<svg
   xmlns:dc="http://purl.org/dc/elements/1.1/"
   xmlns:cc="http://creativecommons.org/ns#"
   xmlns:rdf="http://www.w3.org/1999/02/22-rdf-syntax-ns#"
   xmlns:svg="http://www.w3.org/2000/svg"
   xmlns="http://www.w3.org/2000/svg"
   xmlns:sodipodi="http://sodipodi.sourceforge.net/DTD/sodipodi-0.dtd"
   xmlns:inkscape="http://www.inkscape.org/namespaces/inkscape"
   version="1.0"
   width="580"
   height="580"
   id="svg2"
   sodipodi:version="0.32"
   inkscape:version="0.91 r13725"
   sodipodi:docname="video_rental.svg"
   inkscape:output_extension="org.inkscape.output.svg.inkscape">
  <metadata
     id="metadata10">
    <rdf:RDF>
      <cc:Work
         rdf:about="">
        <dc:format>image/svg+xml</dc:format>
        <dc:type
           rdf:resource="http://purl.org/dc/dcmitype/StillImage" />
        <cc:license
           rdf:resource="http://web.resource.org/cc/PublicDomain" />
        <dc:language>en</dc:language>
        <dc:title />
      </cc:Work>
    </rdf:RDF>
  </metadata>
  <sodipodi:namedview
     inkscape:window-height="1003"
     inkscape:window-width="1400"
     inkscape:pageshadow="2"
     inkscape:pageopacity="0.0"
     guidetolerance="10.0"
     gridtolerance="10.0"
     objecttolerance="10.0"
     borderopacity="1.0"
     bordercolor="#666666"
     pagecolor="#ffffff"
     id="base"
     showgrid="false"
     inkscape:zoom="0.79655172"
     inkscape:cx="361.15831"
     inkscape:cy="202.95073"
     inkscape:window-x="-4"
     inkscape:window-y="-4"
     inkscape:current-layer="svg2"
     inkscape:window-maximized="0" />
  <defs
     id="defs4">
    <inkscape:perspective
       sodipodi:type="inkscape:persp3d"
       inkscape:vp_x="0 : 290 : 1"
       inkscape:vp_y="0 : 1000 : 0"
       inkscape:vp_z="580 : 290 : 1"
       inkscape:persp3d-origin="290 : 193.33333 : 1"
       id="perspective12" />
    <inkscape:perspective
       id="perspective2539"
       inkscape:persp3d-origin="16 : 10.666667 : 1"
       inkscape:vp_z="32 : 16 : 1"
       inkscape:vp_y="0 : 1000 : 0"
       inkscape:vp_x="0 : 16 : 1"
       sodipodi:type="inkscape:persp3d" />
    <inkscape:perspective
       id="perspective18697"
       inkscape:persp3d-origin="0.5 : 0.33333333 : 1"
       inkscape:vp_z="1 : 0.5 : 1"
       inkscape:vp_y="0 : 1000 : 0"
       inkscape:vp_x="0 : 0.5 : 1"
       sodipodi:type="inkscape:persp3d" />
    <inkscape:perspective
       id="perspective18782"
       inkscape:persp3d-origin="0.5 : 0.33333333 : 1"
       inkscape:vp_z="1 : 0.5 : 1"
       inkscape:vp_y="0 : 1000 : 0"
       inkscape:vp_x="0 : 0.5 : 1"
       sodipodi:type="inkscape:persp3d" />
  </defs>
  <path
     style="fill:#000080;fill-opacity:1;stroke:none"
     d="M 185.70703 27.033203 C 184.64236 27.02165 183.57794 27.030768 182.51172 27.0625 C 132.34903 26.829402 91.149631 77.97694 101.77539 126.98828 C 108.83162 167.69134 147.66283 200.73453 189.86719 196.65625 C 217.37452 194.93063 242.72215 178.96663 256.96094 155.70703 C 260.77928 153.05327 265.94829 153.30729 273.07422 153.94922 C 280.49565 154.61778 290.10794 155.52076 297.93164 148.79297 C 298.06678 148.67663 298.19648 148.5541 298.32031 148.42578 C 306.30198 140.16669 312.26118 131.34746 319.94727 127.77539 C 322.1884 128.8117 324.2783 130.47048 326.64844 133.04102 C 329.53727 136.17411 332.65734 140.25088 337.56055 143.23633 C 339.4498 144.38602 341.82903 144.35873 343.69141 143.16602 C 348.75784 139.92006 351.81028 135.46251 354.73047 132.41211 C 357.07001 129.96825 358.81145 128.60697 360.92773 128.15234 C 365.93341 131.82696 370.38654 138.4648 378.05469 143.57617 C 379.9658 144.85056 382.44964 144.87432 384.38477 143.63672 C 389.59358 140.30397 392.78472 135.68851 395.86133 132.47852 C 398.37417 129.85672 400.29716 128.38698 402.60547 127.91211 C 404.77332 129.45114 406.94297 131.59435 409.4375 134.26172 C 412.40744 137.43744 415.88523 141.15636 421.08594 143.39062 C 423.16284 144.28319 425.56931 143.88503 427.24805 142.37109 C 437.98471 132.68748 449.2221 122.4739 458.58008 110.44531 C 459.37612 109.42154 459.80531 108.1601 459.79883 106.86328 C 459.76953 101.00383 455.98074 97.098682 453.01562 94.427734 C 450.05052 91.756787 447.36671 89.57427 446.51367 88.275391 C 446.23093 87.844911 445.892 87.454091 445.50586 87.113281 C 442.58951 84.539462 439.19076 79.941535 434.66602 75.902344 C 430.25065 71.960782 423.7284 68.494463 416.17188 69.880859 C 401.51156 71.026972 385.88178 69.474746 369.82812 70.103516 C 332.67903 70.088574 295.43279 70.931873 258.81055 69.244141 C 250.71388 61.445228 244.75948 48.097556 230.59375 40.919922 C 217.39823 32.211454 201.67708 27.206496 185.70703 27.033203 z M 151.70703 90.050781 C 168.37891 90.041585 179.24942 115.84526 166.85352 127.61914 C 166.7509 127.71639 166.65187 127.81737 166.55664 127.92188 C 156.44799 139.04651 133.32725 135.4114 129.0918 120.53711 C 129.05888 120.42207 129.0224 120.30809 128.98242 120.19531 C 124.37953 107.15406 135.03516 90.059978 151.70703 90.050781 z M 340.24805 174.66016 C 337.4908 176.63914 334.88899 178.85571 332.36523 181.19141 L 341.5 200.18945 L 326.92188 207.21484 L 320.0625 192.93164 C 317.58784 195.16369 315.06523 197.2575 312.37695 199.06641 L 341.17188 258.93164 L 205.54492 324.20508 L 169.36133 249.00391 C 168.73532 249.2574 168.12792 249.53313 167.51367 249.82812 C 161.4211 252.80533 155.90201 257.79762 150.52734 263.12109 L 162.30273 257.44727 L 173.64844 280.96484 L 159.07031 287.99023 L 148.21875 265.42969 C 146.28474 267.37503 144.35601 269.35008 142.41406 271.23438 L 282.69141 562.77344 L 287.96875 555.84766 L 276.62305 532.33008 L 291.20117 525.30469 L 301.39258 546.51172 C 302.27356 545.98518 303.19192 545.50315 304.09766 545.06055 C 306.22055 544.04102 308.41329 543.296 310.66211 542.71875 L 280.44922 479.88672 L 416.07617 414.64648 L 452.95117 491.29883 C 462.37046 483.70942 470.3829 473.32344 481.01953 467.1875 L 340.24805 174.66016 z M 355.94727 230.26953 L 367.25977 253.78711 L 352.71484 260.7793 L 341.40234 237.26172 L 355.94727 230.26953 z M 347.33789 271.79492 L 409.9082 401.81445 L 274.28125 467.05664 L 211.71094 337.03711 L 347.33789 271.79492 z M 381.74023 283.83398 L 393.05273 307.35156 L 378.47461 314.34375 L 367.16211 290.82617 L 381.74023 283.83398 z M 188.0957 311.01172 L 199.4082 334.5293 L 184.86328 341.55469 L 173.51758 318.03711 L 188.0957 311.01172 z M 407.5 337.39844 L 418.81445 360.91602 L 404.26758 367.94141 L 392.95508 344.39062 L 407.5 337.39844 z M 213.85547 364.60938 L 225.20117 388.12695 L 210.62305 395.11914 L 199.31055 371.60352 L 213.85547 364.60938 z M 433.29297 390.96289 L 444.60547 414.48047 L 430.02734 421.50586 L 418.71484 397.98828 L 433.29297 390.96289 z M 239.64844 418.17578 L 250.96094 441.69141 L 236.41602 448.68359 L 225.07031 425.16797 L 239.64844 418.17578 z M 459.05273 444.5293 L 470.36719 468.07812 L 455.82031 475.07031 L 444.50781 451.55469 L 459.05273 444.5293 z M 265.44141 471.74023 L 276.75391 495.25586 L 262.17578 502.28125 L 250.86328 478.73242 L 265.44141 471.74023 z "
     id="rect3391" />
</svg>
