<?xml version="1.0" encoding="UTF-8" standalone="no"?>
<!-- Created with Inkscape (http://www.inkscape.org/) -->

<svg
   xmlns:dc="http://purl.org/dc/elements/1.1/"
   xmlns:cc="http://creativecommons.org/ns#"
   xmlns:rdf="http://www.w3.org/1999/02/22-rdf-syntax-ns#"
   xmlns:svg="http://www.w3.org/2000/svg"
   xmlns="http://www.w3.org/2000/svg"
   xmlns:xlink="http://www.w3.org/1999/xlink"
   xmlns:sodipodi="http://sodipodi.sourceforge.net/DTD/sodipodi-0.dtd"
   xmlns:inkscape="http://www.inkscape.org/namespaces/inkscape"
   version="1.0"
   width="580"
   height="580"
   id="svg2"
   sodipodi:version="0.32"
   inkscape:version="0.91 r13725"
   sodipodi:docname="marketplace.svg"
   inkscape:output_extension="org.inkscape.output.svg.inkscape">
  <metadata
     id="metadata2975">
    <rdf:RDF>
      <cc:Work
         rdf:about="">
        <dc:format>image/svg+xml</dc:format>
        <dc:type
           rdf:resource="http://purl.org/dc/dcmitype/StillImage" />
        <cc:license
           rdf:resource="http://web.resource.org/cc/PublicDomain" />
        <dc:language>en</dc:language>
        <dc:title />
      </cc:Work>
    </rdf:RDF>
  </metadata>
  <sodipodi:namedview
     inkscape:window-height="972"
     inkscape:window-width="1280"
     inkscape:pageshadow="2"
     inkscape:pageopacity="0.0"
     guidetolerance="10.0"
     gridtolerance="10.0"
     objecttolerance="10.0"
     borderopacity="1.0"
     bordercolor="#666666"
     pagecolor="#ffffff"
     id="base"
     inkscape:zoom="0.65172413"
     inkscape:cx="378.84448"
     inkscape:cy="16.134318"
     inkscape:window-x="-8"
     inkscape:window-y="-8"
     inkscape:current-layer="svg2"
     showgrid="false"
     inkscape:window-maximized="1"
     showguides="true"
     inkscape:guide-bbox="true" />
  <defs
     id="defs4">
    <inkscape:perspective
       sodipodi:type="inkscape:persp3d"
       inkscape:vp_x="0 : 290 : 1"
       inkscape:vp_y="6.1230318e-14 : 1000 : 0"
       inkscape:vp_z="580 : 290 : 1"
       inkscape:persp3d-origin="290 : 193.33333 : 1"
       id="perspective2441" />
    <inkscape:perspective
       id="perspective3452"
       inkscape:persp3d-origin="30 : 20 : 1"
       inkscape:vp_z="60 : 30 : 1"
       inkscape:vp_y="0 : 1000 : 0"
       inkscape:vp_x="0 : 30 : 1"
       sodipodi:type="inkscape:persp3d" />
    <symbol
       viewBox="244.5 110 489 219.9"
       id="symbol-university">
      <path
         id="path4460"
         d="M79,43l57,119c0,0,21-96,104-96s124,106,124,106l43-133l82-17L0,17L79,43z" />
      <path
         id="path4462"
         d="M94,176l-21,39"
         stroke-width="20"
         stroke="#000000"
         fill="none" />
      <path
         id="path4464"
         d="M300,19c0,10.5-22.6,19-50.5,19S199,29.5,199,19s22.6-19,50.5-19S300,8.5,300,19z" />
      <path
         id="path4466"
         d="M112,216l-16-38L64,88c0,0-9-8-4-35s16-24,16-24"
         stroke-width="20"
         stroke="#000000"
         ill="none" />
    </symbol>
    <inkscape:perspective
       id="perspective4471"
       inkscape:persp3d-origin="372.04724 : 350.78739 : 1"
       inkscape:vp_z="744.09448 : 526.18109 : 1"
       inkscape:vp_y="0 : 1000 : 0"
       inkscape:vp_x="0 : 526.18109 : 1"
       sodipodi:type="inkscape:persp3d" />
    <inkscape:perspective
       id="perspective4668"
       inkscape:persp3d-origin="6 : 4 : 1"
       inkscape:vp_z="12 : 6 : 1"
       inkscape:vp_y="0 : 1000 : 0"
       inkscape:vp_x="0 : 6 : 1"
       sodipodi:type="inkscape:persp3d" />
    <inkscape:perspective
       id="perspective3826"
       inkscape:persp3d-origin="0.5 : 0.33333333 : 1"
       inkscape:vp_z="1 : 0.5 : 1"
       inkscape:vp_y="0 : 1000 : 0"
       inkscape:vp_x="0 : 0.5 : 1"
       sodipodi:type="inkscape:persp3d" />
    <inkscape:perspective
       id="perspective3855"
       inkscape:persp3d-origin="0.5 : 0.33333333 : 1"
       inkscape:vp_z="1 : 0.5 : 1"
       inkscape:vp_y="0 : 1000 : 0"
       inkscape:vp_x="0 : 0.5 : 1"
       sodipodi:type="inkscape:persp3d" />
    <inkscape:perspective
       id="perspective3909"
       inkscape:persp3d-origin="0.5 : 0.33333333 : 1"
       inkscape:vp_z="1 : 0.5 : 1"
       inkscape:vp_y="0 : 1000 : 0"
       inkscape:vp_x="0 : 0.5 : 1"
       sodipodi:type="inkscape:persp3d" />
    <inkscape:perspective
       id="perspective3950"
       inkscape:persp3d-origin="0.5 : 0.33333333 : 1"
       inkscape:vp_z="1 : 0.5 : 1"
       inkscape:vp_y="0 : 1000 : 0"
       inkscape:vp_x="0 : 0.5 : 1"
       sodipodi:type="inkscape:persp3d" />
    <inkscape:perspective
       id="perspective3972"
       inkscape:persp3d-origin="0.5 : 0.33333333 : 1"
       inkscape:vp_z="1 : 0.5 : 1"
       inkscape:vp_y="0 : 1000 : 0"
       inkscape:vp_x="0 : 0.5 : 1"
       sodipodi:type="inkscape:persp3d" />
    <inkscape:perspective
       id="perspective3994"
       inkscape:persp3d-origin="0.5 : 0.33333333 : 1"
       inkscape:vp_z="1 : 0.5 : 1"
       inkscape:vp_y="0 : 1000 : 0"
       inkscape:vp_x="0 : 0.5 : 1"
       sodipodi:type="inkscape:persp3d" />
    <inkscape:perspective
       id="perspective4016"
       inkscape:persp3d-origin="0.5 : 0.33333333 : 1"
       inkscape:vp_z="1 : 0.5 : 1"
       inkscape:vp_y="0 : 1000 : 0"
       inkscape:vp_x="0 : 0.5 : 1"
       sodipodi:type="inkscape:persp3d" />
    <inkscape:perspective
       id="perspective4837"
       inkscape:persp3d-origin="0.5 : 0.33333333 : 1"
       inkscape:vp_z="1 : 0.5 : 1"
       inkscape:vp_y="0 : 1000 : 0"
       inkscape:vp_x="0 : 0.5 : 1"
       sodipodi:type="inkscape:persp3d" />
    <inkscape:perspective
       id="perspective4971"
       inkscape:persp3d-origin="0.5 : 0.33333333 : 1"
       inkscape:vp_z="1 : 0.5 : 1"
       inkscape:vp_y="0 : 1000 : 0"
       inkscape:vp_x="0 : 0.5 : 1"
       sodipodi:type="inkscape:persp3d" />
    <inkscape:perspective
       id="perspective6216"
       inkscape:persp3d-origin="0.5 : 0.33333333 : 1"
       inkscape:vp_z="1 : 0.5 : 1"
       inkscape:vp_y="0 : 1000 : 0"
       inkscape:vp_x="0 : 0.5 : 1"
       sodipodi:type="inkscape:persp3d" />
    <inkscape:perspective
       id="perspective6764"
       inkscape:persp3d-origin="0.5 : 0.33333333 : 1"
       inkscape:vp_z="1 : 0.5 : 1"
       inkscape:vp_y="0 : 1000 : 0"
       inkscape:vp_x="0 : 0.5 : 1"
       sodipodi:type="inkscape:persp3d" />
    <inkscape:perspective
       id="perspective6817"
       inkscape:persp3d-origin="0.5 : 0.33333333 : 1"
       inkscape:vp_z="1 : 0.5 : 1"
       inkscape:vp_y="0 : 1000 : 0"
       inkscape:vp_x="0 : 0.5 : 1"
       sodipodi:type="inkscape:persp3d" />
    <radialGradient
       gradientUnits="userSpaceOnUse"
       gradientTransform="scale(0.79354273,1.2601716)"
       xlink:href="#linearGradient829"
       id="radialGradient874"
       cx="180.2453"
       cy="198.41902"
       r="101.58017"
       fx="180.2453"
       fy="198.41902" />
    <linearGradient
       id="linearGradient829">
      <stop
         style="stop-color: rgb(255, 255, 255); stop-opacity: 0.341667;"
         offset="0.0000000"
         id="stop830" />
      <stop
         style="stop-color: rgb(255, 255, 255); stop-opacity: 0;"
         offset="1.0000000"
         id="stop831" />
    </linearGradient>
    <radialGradient
       gradientUnits="userSpaceOnUse"
       gradientTransform="scale(1.007004,0.99304475)"
       xlink:href="#linearGradient829"
       id="radialGradient832"
       cx="360.85146"
       cy="167.47372"
       r="46.394721"
       fx="360.85146"
       fy="167.47372" />
    <linearGradient
       id="linearGradient6826">
      <stop
         style="stop-color: rgb(255, 255, 255); stop-opacity: 0.341667;"
         offset="0.0000000"
         id="stop6828" />
      <stop
         style="stop-color: rgb(255, 255, 255); stop-opacity: 0;"
         offset="1.0000000"
         id="stop6830" />
    </linearGradient>
    <linearGradient
       gradientUnits="userSpaceOnUse"
       gradientTransform="scale(0.74491357,1.3424376)"
       xlink:href="#linearGradient855"
       id="linearGradient850"
       x1="465.29425"
       y1="248.24467"
       x2="463.27056"
       y2="405.7687"
       spreadMethod="pad" />
    <linearGradient
       id="linearGradient855">
      <stop
         style="stop-color: rgb(255, 255, 255); stop-opacity: 0;"
         offset="0.0000000"
         id="stop856" />
      <stop
         style="stop-color: rgb(255, 166, 23); stop-opacity: 0.733333;"
         offset="1.0000000"
         id="stop857" />
    </linearGradient>
    <linearGradient
       gradientUnits="userSpaceOnUse"
       gradientTransform="scale(1.4586159,0.68558144)"
       xlink:href="#linearGradient855"
       id="linearGradient854"
       x1="157.80581"
       y1="120.96176"
       x2="155.40575"
       y2="231.63491" />
    <linearGradient
       id="linearGradient6837">
      <stop
         style="stop-color: rgb(255, 255, 255); stop-opacity: 0;"
         offset="0.0000000"
         id="stop6839" />
      <stop
         style="stop-color: rgb(255, 166, 23); stop-opacity: 0.733333;"
         offset="1.0000000"
         id="stop6841" />
    </linearGradient>
    <inkscape:perspective
       id="perspective6928"
       inkscape:persp3d-origin="0.5 : 0.33333333 : 1"
       inkscape:vp_z="1 : 0.5 : 1"
       inkscape:vp_y="0 : 1000 : 0"
       inkscape:vp_x="0 : 0.5 : 1"
       sodipodi:type="inkscape:persp3d" />
    <inkscape:perspective
       id="perspective10781"
       inkscape:persp3d-origin="0.5 : 0.33333333 : 1"
       inkscape:vp_z="1 : 0.5 : 1"
       inkscape:vp_y="0 : 1000 : 0"
       inkscape:vp_x="0 : 0.5 : 1"
       sodipodi:type="inkscape:persp3d" />
    <inkscape:perspective
       id="perspective10806"
       inkscape:persp3d-origin="0.5 : 0.33333333 : 1"
       inkscape:vp_z="1 : 0.5 : 1"
       inkscape:vp_y="0 : 1000 : 0"
       inkscape:vp_x="0 : 0.5 : 1"
       sodipodi:type="inkscape:persp3d" />
    <inkscape:perspective
       id="perspective10878"
       inkscape:persp3d-origin="0.5 : 0.33333333 : 1"
       inkscape:vp_z="1 : 0.5 : 1"
       inkscape:vp_y="0 : 1000 : 0"
       inkscape:vp_x="0 : 0.5 : 1"
       sodipodi:type="inkscape:persp3d" />
    <inkscape:perspective
       id="perspective10919"
       inkscape:persp3d-origin="0.5 : 0.33333333 : 1"
       inkscape:vp_z="1 : 0.5 : 1"
       inkscape:vp_y="0 : 1000 : 0"
       inkscape:vp_x="0 : 0.5 : 1"
       sodipodi:type="inkscape:persp3d" />
  </defs>
  <g
     id="layer3"
     inkscape:label="Layout"
     style="display:none;stroke:#757575;stroke-opacity:1"
     transform="matrix(48.14969,0,0,48.14969,-536.27327,-33.306752)">
    <rect
       style="fill:none;stroke:#757575;stroke-width:0.10000000000000001;stroke-miterlimit:4;stroke-dasharray:none;stroke-opacity:1;display:inline"
       id="rect4134"
       width="10"
       height="10"
       x="1"
       y="1" />
    <rect
       style="fill:none;stroke:#757575;stroke-width:0.10000000000000001;stroke-miterlimit:4;stroke-dasharray:none;stroke-opacity:1;display:inline"
       id="rect4136"
       width="8"
       height="8"
       x="2"
       y="2" />
  </g>
  <path
     style="color:#000000;font-style:normal;font-variant:normal;font-weight:normal;font-stretch:normal;font-size:medium;line-height:normal;font-family:sans-serif;text-indent:0;text-align:start;text-decoration:none;text-decoration-line:none;text-decoration-style:solid;text-decoration-color:#000000;letter-spacing:normal;word-spacing:normal;text-transform:none;direction:ltr;block-progression:tb;writing-mode:lr-tb;baseline-shift:baseline;text-anchor:start;white-space:normal;clip-rule:nonzero;display:inline;overflow:visible;visibility:visible;opacity:1;isolation:auto;mix-blend-mode:normal;color-interpolation:sRGB;color-interpolation-filters:linearRGB;solid-color:#000000;solid-opacity:1;fill:#000080;fill-opacity:1;fill-rule:nonzero;stroke:none;stroke-width:10.98984432;stroke-linecap:round;stroke-linejoin:round;stroke-miterlimit:4;stroke-dasharray:none;stroke-dashoffset:0;stroke-opacity:1;color-rendering:auto;image-rendering:auto;shape-rendering:auto;text-rendering:auto;enable-background:accumulate"
     d="M 102.39844 48.132812 A 5.4954717 5.4954717 0 0 0 97.457031 51.222656 L 47.623047 153.58594 A 5.4954717 5.4954717 0 0 0 50.210938 160.95898 C 80.32313 175.22091 112.94211 177.08744 147.00195 161.95312 C 176.36521 175.22821 208.06841 176.71631 241.13672 162.17578 C 270.50975 175.31378 302.21543 176.64489 335.2793 161.95312 C 364.6421 175.22753 396.34441 176.71605 429.41211 162.17578 C 459.42982 175.60213 491.88239 176.71012 525.73242 160.97461 A 5.4954717 5.4954717 0 0 0 528.38477 153.64648 L 480.04883 51.28125 A 5.4954717 5.4954717 0 0 0 475.08008 48.132812 L 400.93945 48.132812 L 326.76758 48.132812 A 5.4954717 5.4954717 0 0 0 326.30469 48.15625 A 5.4954717 5.4954717 0 0 0 325.82422 48.132812 L 251.68359 48.132812 L 251.65234 48.132812 L 177.51367 48.132812 A 5.4954717 5.4954717 0 0 0 177.01953 48.158203 A 5.4954717 5.4954717 0 0 0 176.56836 48.132812 L 102.39844 48.132812 z M 181.61719 59.121094 L 245.54883 59.121094 L 235.68945 152.4375 C 206.47629 165.01968 179.80205 163.97867 153.85547 152.83203 L 181.61719 59.121094 z M 332.75 59.121094 L 396.72266 59.121094 L 422.58789 152.98633 C 393.36535 165.17651 366.66035 163.77934 340.66016 152.2168 L 332.75 59.121094 z M 131.48047 200.05078 C 130.42802 200.06862 129.34228 200.115 128.22266 200.19336 C 128.22266 200.19336 135.10189 234.4783 164.95117 227.10156 C 164.95436 227.12227 164.10646 199.49773 131.48047 200.05078 z M 173.33594 204.78125 C 172.73607 204.76553 172.17209 204.84827 171.6582 205.07422 C 170.97303 205.37548 170.4385 206.05563 170.32422 206.88867 C 170.20994 207.7217 170.4085 208.68433 170.89062 209.89844 C 171.74382 212.04695 172.46103 215.95707 173.00195 220.52344 C 173.54286 225.08979 173.92647 230.34015 174.19531 235.30469 C 174.73299 245.23377 174.81641 254.01953 174.81641 254.01953 L 176.28516 254.14844 L 184.66992 209.24805 L 184.21484 208.98438 C 184.21484 208.98438 180.21712 206.66371 176.57422 205.47656 C 175.6635 205.17977 174.7771 204.93031 173.94727 204.82812 C 173.73981 204.80259 173.53589 204.78649 173.33594 204.78125 z M 222.82227 211.51758 C 191.30484 211.84113 187.93058 239.93827 187.93555 239.91602 C 221.957 251.61348 233.53516 212.37109 233.53516 212.37109 C 229.645 211.74826 226.08269 211.48411 222.82227 211.51758 z M 448.07227 216.43164 L 447.76953 216.43359 L 447.76953 216.4707 C 446.48715 216.52757 445.38222 216.85957 444.49609 217.28516 L 444.49219 217.28711 C 442.81975 218.11579 441.62606 219.18184 440.51172 220.25 L 440.50977 220.25 L 440.50977 220.25195 C 438.86227 221.86173 437.41859 223.6122 436.18945 224.97656 L 436.1875 224.97656 C 435.57811 225.65617 435.03127 226.24601 434.64062 226.60156 L 434.63867 226.60156 C 434.45011 226.77583 434.29594 226.89733 434.2207 226.95117 L 426.76172 230.1582 C 426.51566 230.15545 426.28335 230.1582 426.03906 230.1582 C 415.7004 230.17237 406.46878 233.16957 397.78516 235.89648 C 388.19699 238.93324 379.0589 242.53221 369.86523 244.3125 C 365.65803 245.13935 360.88699 245.3705 355.88672 245.76367 L 355.88477 245.76367 C 350.88832 246.16844 345.63063 246.72088 340.45312 248.53711 C 335.86973 250.14465 331.97832 251.97348 327.81445 254.57812 L 327.8125 254.57812 C 325.97129 255.74098 324.36831 257.1292 322.85547 258.24805 L 322.85352 258.25 L 322.85156 258.25 C 322.11953 258.81043 321.39934 259.28839 320.80273 259.63672 C 320.20612 259.98505 319.70712 260.20343 319.52734 260.24219 L 319.4707 260.25586 L 317.05859 261.86328 L 317.05078 261.86914 C 317.05078 261.86914 314.93099 263.48602 313.81445 264.44336 L 309.38477 268.24414 C 307.07391 270.22549 305.59344 273.64653 304.66602 277.24414 C 303.73861 280.84175 303.37376 284.62321 303.375 287.34766 L 303.375 287.36523 L 303.375 287.44336 C 303.4139 295.77398 306.11648 303.64608 310.42773 310.63477 C 314.75816 317.65218 320.70365 323.84407 327.44531 329.05664 L 327.44531 329.05859 C 340.98993 339.44807 357.9918 346.21133 374.07812 346.27539 C 377.22012 346.27416 380.34114 346.01046 383.38086 345.42773 C 386.26554 344.89813 388.76911 343.52478 390.67383 341.77148 C 391.23242 341.25842 392.07063 340.68683 392.86914 340.08398 C 393.65538 339.4904 394.40284 338.87052 394.83789 338.17578 C 395.46808 337.85921 395.89305 337.48144 396.20117 337.06641 C 396.53343 336.61889 396.7974 336.15422 397.29297 335.63281 L 397.29492 335.63086 C 398.86643 334.00063 399.8903 332.20627 401.05664 330.03125 L 401.05664 330.0293 C 402.97255 326.40882 405.32011 322.52954 407.19336 318.33398 L 407.19336 318.33203 C 409.33921 313.46985 410.10441 308.36033 410.83398 303.60742 C 411.53973 298.85458 412.2067 294.42115 413.51758 291.03711 L 413.51758 291.03516 C 414.85168 287.53688 417.17697 284.57695 420.09961 281.4082 L 420.09961 281.40625 C 422.99785 278.24186 426.47092 274.94626 429.44922 270.67383 L 429.44922 270.67188 L 429.45117 270.67188 C 431.73659 267.35415 434.45691 264.39275 436.8457 260.65039 L 436.84766 260.65039 C 438.92826 257.41548 440.61625 253.42854 441.00391 248.64258 L 446.8457 245.57031 L 447.37109 245.02148 L 447.37305 245.02148 L 447.37695 245.01758 C 447.98877 244.41404 448.43592 244.18185 449.22266 243.92969 C 450.34413 243.56408 452.24341 243.47547 454.66797 243.27148 L 454.66992 243.27148 L 454.67188 243.27148 C 457.04825 243.04877 460.288 242.55317 463.20117 240.20117 L 463.20117 240.19922 L 463.20312 240.19922 C 464.3927 239.23152 465.4099 238.19012 466.19727 236.92578 C 466.98557 235.66969 467.51393 234.12403 467.50781 232.51367 C 467.51207 231.19976 467.15476 229.94103 466.63086 228.92773 L 466.63086 228.92578 C 465.70466 227.15622 464.43544 226.043 463.20703 225.16211 L 463.20508 225.16016 L 463.20312 225.16016 C 461.33434 223.85401 459.34303 223.01273 457.48438 222.3457 L 457.48242 222.3457 C 456.71203 222.07404 455.96548 221.83419 455.26172 221.62891 C 454.86163 220.76552 454.40275 219.95463 453.76953 219.18555 L 453.76758 219.18555 L 453.76562 219.18359 C 453.12579 218.42008 452.3032 217.70021 451.29688 217.19336 C 450.29003 216.67801 449.13106 216.42456 448.07227 216.43164 z M 447.92383 221.63867 C 448.56104 221.59533 449.1345 221.8079 449.70703 222.44922 C 450.27957 223.09054 450.82655 224.1758 451.28516 225.81836 L 451.33398 225.99609 L 451.51172 226.03516 C 453.68594 226.52406 457.70099 227.6606 460.16016 229.37891 C 461.38974 230.23808 462.20391 231.21885 462.29492 232.29297 C 462.38592 233.36708 461.78016 234.64153 459.92578 236.14258 C 457.68454 237.95712 454.91957 238.04131 452.03711 238.25977 C 449.17898 238.47638 446.20493 238.85503 443.73047 241.32227 L 436.4707 245.13281 L 436.45312 244.75781 L 436.0625 244.90039 C 434.20057 245.57633 432.3136 246.35087 430.44336 246.74023 C 430.1509 244.7997 429.73823 242.90015 429.22656 241.04688 L 429.13477 240.71875 L 428.81836 240.84375 C 427.49567 241.36753 425.92846 241.78628 424.55859 242.06641 C 425.08966 239.60975 425.70003 237.64906 426.9668 235.74023 L 436.38477 231.70312 C 437.24458 231.32941 438.13774 230.52164 439.0957 229.52148 C 440.05366 228.52133 441.06625 227.32515 442.0918 226.16797 C 443.11735 225.01078 444.15769 223.89333 445.15625 223.06055 C 446.1548 222.22777 447.10934 221.69407 447.92383 221.63867 z M 153.6543 251.58984 C 135.60601 251.58984 120.97266 266.16104 120.97266 284.17773 C 120.97266 284.87311 120.97158 285.4417 121.06641 286.10547 L 121.22461 286.10547 C 121.73035 293.09089 123.97498 301.90996 129.28516 312.7832 C 129.28516 312.7832 138.48206 330.26252 145.75195 338.29102 L 146.41602 338.92188 C 149.98775 342.52521 154.91849 344.73828 160.38672 344.73828 C 167.02444 344.73828 172.90483 341.51558 176.47656 336.52148 L 176.57031 336.52148 C 180.14204 341.51558 186.0224 344.73828 192.66016 344.73828 C 198.06514 344.73828 203.05756 342.4936 206.59766 338.92188 L 207.26172 338.29102 C 214.59483 330.26252 223.73047 312.7832 223.73047 312.7832 C 229.04067 301.90996 231.28456 293.1541 231.85352 286.10547 L 231.91602 286.10547 C 231.94759 285.41008 231.94727 284.84151 231.94727 284.17773 C 231.94727 266.16104 217.31322 251.58984 199.32812 251.58984 C 190.41464 251.58984 182.38693 255.09815 176.50781 260.91406 C 170.56547 255.09815 162.5362 251.58984 153.6543 251.58984 z M 326.78125 265.34766 C 327.11852 265.33727 327.46664 265.34781 327.82422 265.34766 C 336.12566 265.36406 344.83599 268.21038 351.49414 270.72656 C 356.90667 272.78388 361.36017 274.68573 365.41016 277.32227 L 365.41211 277.32227 C 369.46201 279.9531 373.045 283.31873 376.72656 288.125 C 382.50636 295.67696 388.5081 305.10765 390.93555 314.91211 C 391.51628 317.28286 391.90112 320.29901 391.90234 323.45508 C 391.89433 326.93819 391.443 330.57618 390.07031 333.72656 L 390.07031 333.72852 L 390.07031 333.73047 C 388.74756 336.83725 386.2045 339.60063 382.4082 340.30664 L 382.40625 340.30664 C 379.7227 340.82146 376.93789 341.06512 374.09961 341.06641 C 359.50452 341.04205 343.32282 334.71591 330.61523 324.93555 L 330.61328 324.93555 C 317.95372 315.15199 308.62393 301.81986 308.58203 287.36523 C 308.58082 282.68736 309.59154 277.91789 311.77539 273.24805 L 315.55859 269.03125 L 319.73047 266.47656 C 321.99957 265.76829 324.3641 265.42199 326.78125 265.34766 z M 336.72656 286.40625 L 336.72656 286.4375 C 334.68435 286.47924 332.69579 286.83862 330.98242 287.68359 L 330.98047 287.68359 L 330.97852 287.68555 C 330.08018 288.13536 329.23914 288.72465 328.5625 289.56641 C 327.87815 290.40995 327.41334 291.55334 327.42188 292.76562 L 327.42188 292.76758 C 327.44709 294.83767 328.5832 296.63061 330.35156 298.29102 L 330.35938 298.29883 L 330.59766 298.49219 L 330.85156 298.64062 L 336.64258 301.79492 L 336.8418 301.86328 C 338.15375 302.28959 340.78547 303.16589 343.52148 303.17969 L 343.52344 303.17969 C 344.52957 303.17718 345.58481 303.05356 346.63867 302.64062 C 347.69775 302.23319 348.77145 301.4542 349.43555 300.28711 L 349.4375 300.28711 C 349.93114 299.42682 350.11196 298.48228 350.10938 297.62695 L 350.10938 297.625 L 350.10938 297.62109 C 350.07612 295.54799 349.17186 293.84677 348.24023 292.40625 L 348.24023 292.4043 L 348.23828 292.40234 C 347.27601 290.96204 346.21987 289.79604 345.33008 289.0293 L 345.33008 289.02734 L 345.32812 289.02539 C 342.99676 287.07783 339.92548 286.42873 337.03516 286.4082 L 337.03125 286.4082 L 336.72656 286.40625 z M 337.03125 291.30859 L 337.0332 291.30859 L 337.03711 291.30859 C 339.09695 291.28779 341.21866 291.94437 342.13086 292.76172 L 342.13477 292.76562 L 342.13867 292.76953 C 342.58396 293.14201 343.50554 294.11057 344.16602 295.11523 L 344.16992 295.11719 L 344.16992 295.11914 C 344.50978 295.61454 344.78161 296.14351 344.96094 296.59961 C 345.14026 297.0557 345.21852 297.45836 345.20898 297.60742 L 345.20703 297.61523 L 345.20703 297.62305 C 345.20505 297.78888 345.19696 297.78566 345.16992 297.83398 C 345.08735 297.96726 345.10264 297.97627 344.83984 298.08984 C 344.60404 298.1859 344.1144 298.28083 343.52539 298.27734 L 343.52344 298.27734 L 343.51953 298.27734 C 341.97639 298.29067 339.8058 297.68231 338.60742 297.28516 L 333.49609 294.49414 C 332.96429 293.9698 332.6529 293.54099 332.49219 293.24414 C 332.41038 293.09304 332.36493 292.97446 332.3418 292.89453 C 332.31867 292.81461 332.32618 292.75636 332.31836 292.80859 L 332.32227 292.79883 L 332.32227 292.78711 C 332.33079 292.66845 332.28475 292.77492 332.39844 292.61914 C 332.44278 292.55799 332.61886 292.39493 332.88281 292.23633 C 333.14675 292.07772 333.50075 291.91004 333.92773 291.77344 L 333.92969 291.77344 L 333.93164 291.77148 C 334.786 291.48844 335.89162 291.30561 337.03125 291.30859 z M 88.673828 375.72461 A 14.495309 14.495309 0 1 0 88.673828 404.71289 L 114.20312 404.71289 L 114.20312 528.91797 A 12.50125 12.50125 0 1 0 139.20312 528.91797 L 139.20312 404.71289 L 433.75977 404.71289 L 433.75977 528.91797 A 12.50125 12.50125 0 1 0 458.75977 528.91797 L 458.75977 404.71289 L 488.33008 404.71289 A 14.495309 14.495309 0 1 0 488.33008 375.72461 L 88.673828 375.72461 z "
     id="path4228" />
</svg>
