<?xml version="1.0" encoding="UTF-8" standalone="no"?>
<!-- Created with Inkscape (http://www.inkscape.org/) -->

<svg
   xmlns:dc="http://purl.org/dc/elements/1.1/"
   xmlns:cc="http://creativecommons.org/ns#"
   xmlns:rdf="http://www.w3.org/1999/02/22-rdf-syntax-ns#"
   xmlns:svg="http://www.w3.org/2000/svg"
   xmlns="http://www.w3.org/2000/svg"
   xmlns:sodipodi="http://sodipodi.sourceforge.net/DTD/sodipodi-0.dtd"
   xmlns:inkscape="http://www.inkscape.org/namespaces/inkscape"
   version="1.0"
   width="580"
   height="580"
   id="svg2"
   sodipodi:version="0.32"
   inkscape:version="0.91 r13725"
   sodipodi:docname="bicycle.svg"
   inkscape:output_extension="org.inkscape.output.svg.inkscape">
  <defs
     id="defs22">
    <inkscape:perspective
       sodipodi:type="inkscape:persp3d"
       inkscape:vp_x="0 : 290 : 1"
       inkscape:vp_y="0 : 1000 : 0"
       inkscape:vp_z="580 : 290 : 1"
       inkscape:persp3d-origin="290 : 193.33333 : 1"
       id="perspective24" />
  </defs>
  <metadata
     id="metadata10">
    <rdf:RDF>
      <cc:Work
         rdf:about="">
        <dc:format>image/svg+xml</dc:format>
        <dc:type
           rdf:resource="http://purl.org/dc/dcmitype/StillImage" />
        <cc:license
           rdf:resource="http://web.resource.org/cc/PublicDomain" />
        <dc:language>en</dc:language>
      </cc:Work>
    </rdf:RDF>
  </metadata>
  <sodipodi:namedview
     inkscape:window-height="972"
     inkscape:window-width="1280"
     inkscape:pageshadow="2"
     inkscape:pageopacity="0.0"
     guidetolerance="10.0"
     gridtolerance="10.0"
     objecttolerance="10.0"
     borderopacity="1.0"
     bordercolor="#666666"
     pagecolor="#ffffff"
     id="base"
     showgrid="false"
     inkscape:zoom="1"
     inkscape:cx="274.67387"
     inkscape:cy="123.65576"
     inkscape:window-x="-8"
     inkscape:window-y="-8"
     inkscape:current-layer="svg2"
     inkscape:window-maximized="1" />
  <path
     style="color:#000000;font-style:normal;font-variant:normal;font-weight:normal;font-stretch:normal;font-size:12px;line-height:normal;font-family:sans-serif;text-indent:0;text-align:start;text-decoration:none;text-decoration-line:none;text-decoration-style:solid;text-decoration-color:#000000;letter-spacing:normal;word-spacing:normal;text-transform:none;direction:ltr;block-progression:tb;writing-mode:lr-tb;baseline-shift:baseline;text-anchor:start;white-space:normal;clip-rule:nonzero;display:inline;overflow:visible;visibility:visible;opacity:1;isolation:auto;mix-blend-mode:normal;color-interpolation:sRGB;color-interpolation-filters:linearRGB;solid-color:#000000;solid-opacity:1;fill:#800000;fill-opacity:1;fill-rule:evenodd;stroke:none;stroke-width:26;stroke-linecap:butt;stroke-linejoin:miter;stroke-miterlimit:4;stroke-dasharray:none;stroke-dashoffset:0;stroke-opacity:1;color-rendering:auto;image-rendering:auto;shape-rendering:auto;text-rendering:auto;enable-background:accumulate"
     d="M 350.35938,141.79102 350.44727,164.78516 386.44727,164.85742 C 390.74331,164.86618 392.97129,170.90663 384.57422,173.25586 380.89546,174.27432 376.7972,178.65552 375.42578,184.08398 374.05435,189.51246 375.07979,194.92804 377.08594,199.94336 377.54293,201.08587 378.47426,204.70899 379.77734,209.59961 L 216.33203,210.42578 206.67773,186.79492 C 217.05415,184.43542 242.48576,178.4011 246.04297,175.01562 250.15443,171.27108 246.04289,165.63672 242.85742,165.63672 L 157.55859,165.63672 C 158.61308,184.46681 173.36287,188.53848 181.33789,189.77344 L 190.76953,212.86133 C 189.73761,213.70718 188.88048,214.74609 188.24609,215.91992 L 159.64453,269.03906 C 149.29855,264.86547 138.01169,262.56055 126.20508,262.56055 76.72316,262.56055 36.337891,302.94777 36.337891,352.42969 36.337891,401.9116 76.72316,442.29883 126.20508,442.29883 172.73086,442.29883 211.21222,406.59242 215.64453,361.19336 L 237.13867,361.19336 C 239.56417,365.59679 243.53507,369.22276 248.41797,371.51953 L 239.4082,392.48828 223.25,392.63672 C 219.75988,392.63007 216.93607,395.47453 216.96814,398.96451 217.00021,402.45448 219.87582,405.24657 223.36523,405.17578 L 259.63477,404.84375 C 263.12489,404.85039 265.94869,402.00593 265.91662,398.51596 265.88454,395.02598 263.00894,392.2339 259.51953,392.30469 L 249.21484,392.39844 257.12109,373.99609 C 258.26138,374.1319 259.4226,374.20703 260.60352,374.20703 274.95268,374.20703 286.67773,363.8515 286.67773,351.17773 286.67773,349.58159 286.49049,348.0222 286.13672,346.51562 L 397.5332,270.92578 C 398.50366,274.28836 399.46606,277.61878 400.4043,280.87305 379.88104,297.3706 366.69922,322.66254 366.69922,350.92773 366.69922,400.40964 407.0845,440.79688 456.56641,440.79688 506.04832,440.79688 546.43555,400.40964 546.43555,350.92773 546.43555,301.44581 506.04832,261.05859 456.56641,261.05859 444.42325,261.05859 432.83115,263.49635 422.24609,267.89844 421.16622,264.16317 420.30238,261.20241 419.19727,257.38281 415.03072,242.98203 410.78561,228.36187 407.21094,216.41602 403.68936,204.64747 400.43106,197.39904 399.36328,192.18359 398.53108,188.11893 403.67957,188.46886 409.10547,183.94727 413.20307,180.53262 416.67861,174.7636 417.74219,168.89258 418.62879,163.72943 417.53198,158.54305 415.13086,154.29492 406.78923,141.55137 398.65156,141.79102 387.88477,141.79102 373.72724,141.79102 350.3596,141.79052 350.35938,141.79102 Z M 385.62305,230.09961 C 387.50043,236.43656 389.45474,243.09354 391.52148,250.19531 L 304.57227,309.19922 C 309.07236,305.37491 306.27321,298.01806 300.36914,298.15234 L 264.09961,298.48438 C 260.60172,298.46623 257.76532,301.31357 257.79692,304.81136 257.82852,308.30915 260.7159,311.10478 264.21289,311.02344 L 274.44727,310.92969 266.76758,328.80664 C 266.03204,328.64777 265.28734,328.51223 264.5293,328.41016 L 224.70117,230.91211 Z M 200.44922,236.55664 241.0625,335.97461 C 239.64398,337.39458 238.42039,338.96826 237.42773,340.66406 L 215.30078,340.66406 C 211.9398,315.17582 197.81932,292.99175 177.67773,278.8457 Z M 456.56641,286.62891 C 492.22929,286.62891 520.86523,315.26483 520.86523,350.92773 520.86523,386.59062 492.22929,415.22852 456.56641,415.22852 420.90352,415.22852 392.26953,386.59062 392.26953,350.92773 392.26953,334.51064 398.34871,319.59258 408.37695,308.26172 409.42096,311.78348 410.5099,315.46553 411.29883,318.04883 412.43582,321.77196 413.01159,323.8588 413.97266,326.22461 L 414.37109,327.20898 414.95508,328.09961 C 415.37264,328.76768 419.4769,340.31449 430.56836,349.82812 L 430.66016,349.88867 430.72266,349.98242 C 438.69384,356.58456 445.56758,358.95155 449.91016,360.33008 454.48359,361.7362 460.74158,361.01452 463.77148,356.31445 466.17569,352.86572 464.05869,345.88741 459.50586,342.58008 457.71338,341.32724 452.5486,337.22561 446.20508,331.67383 440.54739,326.6226 440.08792,322.755 436.71484,316.82031 436.80108,317.01212 435.86635,314.32101 434.80859,310.85742 433.72291,307.30245 432.31024,302.5574 430.69141,297.0293 430.32902,295.79176 429.78695,293.90373 429.4043,292.5918 437.64605,288.77094 446.84109,286.62891 456.56641,286.62891 Z M 126.20508,288.13086 C 133.65861,288.13086 140.799,289.39672 147.44141,291.70117 L 118.16992,346.0625 C 114.48979,352.90078 119.44137,361.19122 127.20703,361.19336 L 189.90234,361.19336 C 185.65987,392.66762 158.89204,416.73047 126.20508,416.73047 90.54218,416.73047 61.908203,388.09258 61.908203,352.42969 61.908203,316.76679 90.54218,288.13086 126.20508,288.13086 Z M 165.50391,301.45703 C 177.78822,310.92068 186.50896,324.7396 189.42383,340.66406 L 144.39258,340.66406 Z M 303.45703,309.95508 276.88867,327.98438 284.25391,310.83984 300.48438,310.69141 C 301.52089,310.69543 302.54224,310.44244 303.45703,309.95508 Z"
     id="path596"
     inkscape:connector-curvature="0"
     sodipodi:nodetypes="ccccscccccscccccssscccccsccscccsscccsssscssssccsccccccsccccccccccccsssscscccccccccccsscssccccsssccccccccc" />
</svg>
