<?xml version="1.0" encoding="UTF-8" standalone="no"?>
<!-- Created with Inkscape (http://www.inkscape.org/) -->

<svg
   xmlns:dc="http://purl.org/dc/elements/1.1/"
   xmlns:cc="http://creativecommons.org/ns#"
   xmlns:rdf="http://www.w3.org/1999/02/22-rdf-syntax-ns#"
   xmlns:svg="http://www.w3.org/2000/svg"
   xmlns="http://www.w3.org/2000/svg"
   xmlns:sodipodi="http://sodipodi.sourceforge.net/DTD/sodipodi-0.dtd"
   xmlns:inkscape="http://www.inkscape.org/namespaces/inkscape"
   version="1.0"
   width="580"
   height="580"
   id="svg2"
   sodipodi:version="0.32"
   inkscape:version="0.91 r13725"
   sodipodi:docname="kiosk.svg"
   inkscape:output_extension="org.inkscape.output.svg.inkscape">
  <metadata
     id="metadata10">
    <rdf:RDF>
      <cc:Work
         rdf:about="">
        <dc:format>image/svg+xml</dc:format>
        <dc:type
           rdf:resource="http://purl.org/dc/dcmitype/StillImage" />
        <cc:license
           rdf:resource="http://web.resource.org/cc/PublicDomain" />
        <dc:language>en</dc:language>
        <dc:title />
      </cc:Work>
    </rdf:RDF>
  </metadata>
  <sodipodi:namedview
     inkscape:window-height="972"
     inkscape:window-width="1280"
     inkscape:pageshadow="2"
     inkscape:pageopacity="0.0"
     guidetolerance="10.0"
     gridtolerance="10.0"
     objecttolerance="10.0"
     borderopacity="1.0"
     bordercolor="#666666"
     pagecolor="#ffffff"
     id="base"
     showgrid="false"
     inkscape:zoom="0.70710678"
     inkscape:cx="218.40886"
     inkscape:cy="288.38381"
     inkscape:window-x="-8"
     inkscape:window-y="-8"
     inkscape:current-layer="svg2"
     inkscape:window-maximized="1" />
  <defs
     id="defs4">
    <inkscape:perspective
       sodipodi:type="inkscape:persp3d"
       inkscape:vp_x="0 : 290 : 1"
       inkscape:vp_y="0 : 1000 : 0"
       inkscape:vp_z="580 : 290 : 1"
       inkscape:persp3d-origin="290 : 193.33333 : 1"
       id="perspective12" />
    <style
       type="text/css"
       id="style6">
   
    .fil0 {fill:#EF7900}
   
  </style>
    <inkscape:perspective
       id="perspective6807"
       inkscape:persp3d-origin="29.116032 : 19.410688 : 1"
       inkscape:vp_z="58.232063 : 29.116032 : 1"
       inkscape:vp_y="0 : 1000 : 0"
       inkscape:vp_x="0 : 29.116032 : 1"
       sodipodi:type="inkscape:persp3d" />
    <inkscape:perspective
       id="perspective6954"
       inkscape:persp3d-origin="290 : 193.33333 : 1"
       inkscape:vp_z="580 : 290 : 1"
       inkscape:vp_y="0 : 1000 : 0"
       inkscape:vp_x="0 : 290 : 1"
       sodipodi:type="inkscape:persp3d" />
    <inkscape:perspective
       id="perspective2541"
       inkscape:persp3d-origin="240 : 160 : 1"
       inkscape:vp_z="480 : 240 : 1"
       inkscape:vp_y="0 : 1000 : 0"
       inkscape:vp_x="0 : 240 : 1"
       sodipodi:type="inkscape:persp3d" />
    <inkscape:perspective
       id="perspective2750"
       inkscape:persp3d-origin="215 : 143.33333 : 1"
       inkscape:vp_z="430 : 215 : 1"
       inkscape:vp_y="0 : 1000 : 0"
       inkscape:vp_x="0 : 215 : 1"
       sodipodi:type="inkscape:persp3d" />
    <inkscape:perspective
       id="perspective3730"
       inkscape:persp3d-origin="88.929146 : 101.19778 : 1"
       inkscape:vp_z="177.85829 : 151.79668 : 1"
       inkscape:vp_y="0 : 1000 : 0"
       inkscape:vp_x="0 : 151.79668 : 1"
       sodipodi:type="inkscape:persp3d" />
  </defs>
  <path
     style="color:#000000;font-style:normal;font-variant:normal;font-weight:normal;font-stretch:normal;font-size:medium;line-height:normal;font-family:sans-serif;text-indent:0;text-align:start;text-decoration:none;text-decoration-line:none;text-decoration-style:solid;text-decoration-color:#000000;letter-spacing:normal;word-spacing:normal;text-transform:none;direction:ltr;block-progression:tb;writing-mode:lr-tb;baseline-shift:baseline;text-anchor:start;white-space:normal;clip-rule:nonzero;display:inline;overflow:visible;visibility:visible;opacity:1;isolation:auto;mix-blend-mode:normal;color-interpolation:sRGB;color-interpolation-filters:linearRGB;solid-color:#000000;solid-opacity:1;fill:#000080;fill-opacity:1;fill-rule:evenodd;stroke:none;stroke-width:10;stroke-linecap:round;stroke-linejoin:round;stroke-miterlimit:4;stroke-dasharray:none;stroke-dashoffset:0;stroke-opacity:1;color-rendering:auto;image-rendering:auto;shape-rendering:auto;text-rendering:auto;enable-background:accumulate"
     d="M 155.3125 21.03125 A 5.0005 5.0005 0 0 0 150.3125 26.03125 L 150.3125 529.375 A 5.0005 5.0005 0 0 0 153.67773 534.09961 C 251.20455 567.84925 360.46275 565.20608 454.07617 534.12109 A 5.0005 5.0005 0 0 0 457.5 529.375 L 457.5 26.03125 A 5.0005 5.0005 0 0 0 452.5 21.03125 L 155.3125 21.03125 z M 186.98438 37.875 A 5.0005 5.0005 0 0 1 187.08594 37.875 C 261.63336 38.677358 350.53096 37.183851 425.19531 38.689453 A 5.0005 5.0005 0 0 1 425.88477 38.75 C 431.81534 39.700695 436.28503 43.562139 438.8125 48.009766 C 441.33997 52.457392 442.29915 57.503892 442.18555 62.244141 L 442.1875 62.177734 C 441.38765 137.57615 442.98017 213.16361 441.52148 288.82227 C 441.9373 292.00948 441.05358 295.1242 439.53516 297.54297 C 437.82843 300.2617 435.48621 302.39237 432.93555 304.21289 C 427.8807 307.82076 422.01458 310.20076 417.10156 311.15039 C 414.78433 311.73939 412.47577 312.03228 410.19141 312.16016 C 410.58747 321.24839 409.86297 330.86212 407.06836 339.91992 C 403.71361 350.79325 397.29409 360.92564 386.59961 367.25781 C 373.95553 374.84317 358.2665 375.26554 344.79492 370.30273 C 331.32201 365.33944 319.7298 354.69107 316.22461 339.70117 A 5.0005 5.0005 0 0 1 316.16992 339.43555 C 314.53985 330.25067 313.88894 320.99649 313.64258 311.78125 L 296.14648 311.78125 C 296.83905 331.07878 293.05557 353.49293 274.87305 365.82227 L 274.86719 365.82617 C 262.27538 374.46902 246.07436 375.47254 232.08203 370.74219 C 218.07968 366.00844 205.89128 355.23273 202.22852 339.8125 A 5.0005 5.0005 0 0 1 202.18555 339.61133 C 200.37136 330.28924 199.96674 321.06729 199.61133 312.0332 C 194.7188 312.15439 189.35735 311.84743 183.9668 310.34375 C 180.25499 309.30835 176.65006 307.80822 173.5625 305.45508 C 170.47494 303.10193 167.88895 299.70554 167.01172 295.48633 A 5.0005 5.0005 0 0 1 166.99023 295.38477 C 164.35955 281.26886 167.41243 268.06233 166.23242 256.2793 A 5.0005 5.0005 0 0 1 166.20703 255.75 C 166.63743 187.84168 164.90545 119.71756 167.28516 51.544922 A 5.0005 5.0005 0 0 1 167.63477 49.873047 C 170.91432 41.613967 179.38295 37.945357 186.98438 37.875 z M 307.09375 72.34375 C 294.54474 72.34375 284.71332 76.435625 276.34375 84.59375 C 267.97494 92.752678 263.78166 102.66745 263.78125 114.375 C 263.78165 126.09608 267.97494 136.06057 276.34375 144.21875 C 284.71332 152.37761 294.54474 156.4375 307.09375 156.4375 C 319.64276 156.4375 329.4742 152.37761 337.84375 144.21875 C 346.21257 136.06057 350.3746 126.09608 350.375 114.375 C 350.37462 102.66745 346.21257 92.752678 337.84375 84.59375 C 329.4742 76.435625 319.64276 72.34375 307.09375 72.34375 z M 315.54883 165.41406 C 297.70095 165.41197 279.56337 166.24904 262.8125 166.53125 C 253.43845 166.75764 244.22237 170.84028 237.75 177.625 C 231.27762 184.40972 227.62842 193.81319 227.84375 203.1875 L 228.5625 283.375 L 228.71875 283.375 L 228.71875 325.4375 C 228.56886 336.036 237.1192 344.70898 247.71875 344.70898 C 258.3183 344.70898 266.86864 336.036 266.71875 325.4375 L 266.71875 283.375 L 342.71875 283.375 L 342.71875 325.4375 C 342.56886 336.036 351.1192 344.70898 361.71875 344.70898 C 372.3183 344.70898 380.86864 336.036 380.71875 325.4375 L 380.71875 283.375 L 381.40625 283.375 L 380.6875 202.53125 C 380.7197 193.48575 377.15786 184.47175 370.96875 177.875 C 364.77963 171.27826 356.02919 167.16906 347 166.625 C 336.862 165.71898 326.25755 165.41532 315.54883 165.41406 z "
     id="path4167" />
</svg>
