<?xml version="1.0" encoding="UTF-8" standalone="no"?>
<!-- Created with Inkscape (http://www.inkscape.org/) -->

<svg
   xmlns:dc="http://purl.org/dc/elements/1.1/"
   xmlns:cc="http://creativecommons.org/ns#"
   xmlns:rdf="http://www.w3.org/1999/02/22-rdf-syntax-ns#"
   xmlns:svg="http://www.w3.org/2000/svg"
   xmlns="http://www.w3.org/2000/svg"
   xmlns:sodipodi="http://sodipodi.sourceforge.net/DTD/sodipodi-0.dtd"
   xmlns:inkscape="http://www.inkscape.org/namespaces/inkscape"
   version="1.0"
   width="580"
   height="580"
   id="svg2"
   sodipodi:version="0.32"
   inkscape:version="0.91 r13725"
   sodipodi:docname="convenience.svg"
   inkscape:output_extension="org.inkscape.output.svg.inkscape">
  <metadata
     id="metadata2975">
    <rdf:RDF>
      <cc:Work
         rdf:about="">
        <dc:format>image/svg+xml</dc:format>
        <dc:type
           rdf:resource="http://purl.org/dc/dcmitype/StillImage" />
        <cc:license
           rdf:resource="http://web.resource.org/cc/PublicDomain" />
        <dc:language>en</dc:language>
      </cc:Work>
    </rdf:RDF>
  </metadata>
  <sodipodi:namedview
     inkscape:window-height="783"
     inkscape:window-width="1103"
     inkscape:pageshadow="2"
     inkscape:pageopacity="0.0"
     guidetolerance="10.0"
     gridtolerance="10.0"
     objecttolerance="10.0"
     borderopacity="1.0"
     bordercolor="#666666"
     pagecolor="#ffffff"
     id="base"
     inkscape:zoom="0.32586207"
     inkscape:cx="-286.43174"
     inkscape:cy="721.94246"
     inkscape:window-x="91"
     inkscape:window-y="88"
     inkscape:current-layer="svg2"
     showgrid="false"
     inkscape:window-maximized="0" />
  <defs
     id="defs4">
    <inkscape:perspective
       sodipodi:type="inkscape:persp3d"
       inkscape:vp_x="0 : 290 : 1"
       inkscape:vp_y="0 : 1000 : 0"
       inkscape:vp_z="580 : 290 : 1"
       inkscape:persp3d-origin="290 : 193.33333 : 1"
       id="perspective2441" />
    <inkscape:perspective
       id="perspective2466"
       inkscape:persp3d-origin="372.04724 : 350.78739 : 1"
       inkscape:vp_z="744.09448 : 526.18109 : 1"
       inkscape:vp_y="0 : 1000 : 0"
       inkscape:vp_x="0 : 526.18109 : 1"
       sodipodi:type="inkscape:persp3d" />
  </defs>
  <path
     style="color:#000000;font-style:normal;font-variant:normal;font-weight:normal;font-stretch:normal;font-size:medium;line-height:normal;font-family:sans-serif;text-indent:0;text-align:start;text-decoration:none;text-decoration-line:none;text-decoration-style:solid;text-decoration-color:#000000;letter-spacing:normal;word-spacing:normal;text-transform:none;direction:ltr;block-progression:tb;writing-mode:lr-tb;baseline-shift:baseline;text-anchor:start;white-space:normal;clip-rule:nonzero;display:inline;overflow:visible;visibility:visible;opacity:1;isolation:auto;mix-blend-mode:normal;color-interpolation:sRGB;color-interpolation-filters:linearRGB;solid-color:#000000;solid-opacity:1;fill:#000080;fill-opacity:1;fill-rule:evenodd;stroke:none;stroke-width:28.1733551;stroke-linecap:round;stroke-linejoin:round;stroke-miterlimit:4;stroke-dasharray:none;stroke-dashoffset:0;stroke-opacity:1;color-rendering:auto;image-rendering:auto;shape-rendering:auto;text-rendering:auto;enable-background:accumulate"
     d="M 340.4043 68.568359 A 10.001 10.001 0 0 0 331.4707 75.072266 L 278.84766 216.49023 L 80.197266 216.49023 A 14.088086 14.088086 0 0 0 66.482422 233.79297 L 116.15039 445.61914 A 14.088086 14.088086 0 0 0 129.92578 456.48828 L 459.45703 455.03125 A 14.088086 14.088086 0 0 0 473.10547 444.18164 L 522.7793 233.81445 A 14.088086 14.088086 0 0 0 509.06836 216.49023 L 318.02734 216.49023 L 365.88477 87.876953 A 10.001 10.001 0 0 0 360 75.017578 L 344.33008 69.1875 A 10.001 10.001 0 0 0 340.4043 68.568359 z M 97.96875 244.66406 L 150.67773 244.66406 L 150.67773 299.60938 L 118.42383 299.60938 A 9.3920572 9.3920572 0 0 0 111.53516 302.52734 L 97.96875 244.66406 z M 169.45898 244.66406 L 237.76172 244.66406 L 237.76172 299.60938 L 169.45898 299.60938 L 169.45898 244.66406 z M 256.54297 244.66406 L 328.8457 244.66406 L 328.8457 299.60938 L 256.54297 299.60938 L 256.54297 244.66406 z M 347.62695 244.66406 L 417.92969 244.66406 L 417.92969 299.60938 L 347.62695 299.60938 L 347.62695 244.66406 z M 436.71094 244.66406 L 491.26953 244.66406 L 478.2793 299.67383 A 9.3920572 9.3920572 0 0 0 477.19141 299.60938 L 436.71094 299.60938 L 436.71094 244.66406 z M 115.12305 317.82617 A 9.3920572 9.3920572 0 0 0 118.42383 318.39258 L 150.67773 318.39258 L 150.67773 378.69336 L 136.24219 378.69336 A 9.3920572 9.3920572 0 0 0 129.94531 381.04688 L 115.12305 317.82617 z M 169.45898 318.39258 L 237.76172 318.39258 L 237.76172 378.69336 L 169.45898 378.69336 L 169.45898 318.39258 z M 256.54297 318.39258 L 328.8457 318.39258 L 328.8457 378.69336 L 256.54297 378.69336 L 256.54297 318.39258 z M 347.62695 318.39258 L 417.92969 318.39258 L 417.92969 378.69336 L 347.62695 378.69336 L 347.62695 318.39258 z M 436.71094 318.39258 L 473.85938 318.39258 L 459.61914 378.69922 A 9.3920572 9.3920572 0 0 0 459.375 378.69336 L 436.71094 378.69336 L 436.71094 318.39258 z M 133.72266 397.1543 A 9.3920572 9.3920572 0 0 0 136.24219 397.47656 L 150.67773 397.47656 L 150.67773 428.22266 L 141.01758 428.26562 L 133.72266 397.1543 z M 169.45898 397.47656 L 237.76172 397.47656 L 237.76172 427.83789 L 169.45898 428.14062 L 169.45898 397.47656 z M 256.54297 397.47656 L 328.8457 397.47656 L 328.8457 427.43555 L 256.54297 427.75586 L 256.54297 397.47656 z M 347.62695 397.47656 L 417.92969 397.47656 L 417.92969 427.04102 L 347.62695 427.35156 L 347.62695 397.47656 z M 436.71094 397.47656 L 455.18555 397.47656 L 448.23633 426.90625 L 436.71094 426.95703 L 436.71094 397.47656 z "
     id="path3264" />
</svg>
