<?xml version="1.0" encoding="UTF-8" standalone="no"?>
<!-- Created with Inkscape (http://www.inkscape.org/) -->

<svg
   xmlns:dc="http://purl.org/dc/elements/1.1/"
   xmlns:cc="http://creativecommons.org/ns#"
   xmlns:rdf="http://www.w3.org/1999/02/22-rdf-syntax-ns#"
   xmlns:svg="http://www.w3.org/2000/svg"
   xmlns="http://www.w3.org/2000/svg"
   xmlns:sodipodi="http://sodipodi.sourceforge.net/DTD/sodipodi-0.dtd"
   xmlns:inkscape="http://www.inkscape.org/namespaces/inkscape"
   version="1.0"
   width="580"
   height="580"
   id="svg2"
   sodipodi:version="0.32"
   inkscape:version="0.91 r13725"
   sodipodi:docname="book.svg"
   inkscape:output_extension="org.inkscape.output.svg.inkscape">
  <metadata
     id="metadata2975">
    <rdf:RDF>
      <cc:Work
         rdf:about="">
        <dc:format>image/svg+xml</dc:format>
        <dc:type
           rdf:resource="http://purl.org/dc/dcmitype/StillImage" />
        <cc:license
           rdf:resource="http://web.resource.org/cc/PublicDomain" />
        <dc:language>en</dc:language>
      </cc:Work>
    </rdf:RDF>
  </metadata>
  <sodipodi:namedview
     inkscape:window-height="1003"
     inkscape:window-width="1400"
     inkscape:pageshadow="2"
     inkscape:pageopacity="0.0"
     guidetolerance="10.0"
     gridtolerance="10.0"
     objecttolerance="10.0"
     borderopacity="1.0"
     bordercolor="#666666"
     pagecolor="#ffffff"
     id="base"
     inkscape:zoom="0.65172414"
     inkscape:cx="490.49514"
     inkscape:cy="217.54743"
     inkscape:window-x="-4"
     inkscape:window-y="-4"
     inkscape:current-layer="svg2"
     showgrid="false"
     inkscape:window-maximized="0" />
  <defs
     id="defs4">
    <inkscape:perspective
       sodipodi:type="inkscape:persp3d"
       inkscape:vp_x="0 : 290 : 1"
       inkscape:vp_y="0 : 1000 : 0"
       inkscape:vp_z="580 : 290 : 1"
       inkscape:persp3d-origin="290 : 193.33333 : 1"
       id="perspective2441" />
    <inkscape:perspective
       id="perspective2466"
       inkscape:persp3d-origin="372.04724 : 350.78739 : 1"
       inkscape:vp_z="744.09448 : 526.18109 : 1"
       inkscape:vp_y="0 : 1000 : 0"
       inkscape:vp_x="0 : 526.18109 : 1"
       sodipodi:type="inkscape:persp3d" />
    <inkscape:perspective
       id="perspective3333"
       inkscape:persp3d-origin="372.04724 : 350.78739 : 1"
       inkscape:vp_z="744.09448 : 526.18109 : 1"
       inkscape:vp_y="0 : 1000 : 0"
       inkscape:vp_x="0 : 526.18109 : 1"
       sodipodi:type="inkscape:persp3d" />
    <inkscape:perspective
       id="perspective3401"
       inkscape:persp3d-origin="372.04724 : 350.78739 : 1"
       inkscape:vp_z="744.09448 : 526.18109 : 1"
       inkscape:vp_y="0 : 1000 : 0"
       inkscape:vp_x="0 : 526.18109 : 1"
       sodipodi:type="inkscape:persp3d" />
    <inkscape:perspective
       id="perspective3464"
       inkscape:persp3d-origin="372.04724 : 350.78739 : 1"
       inkscape:vp_z="744.09448 : 526.18109 : 1"
       inkscape:vp_y="0 : 1000 : 0"
       inkscape:vp_x="0 : 526.18109 : 1"
       sodipodi:type="inkscape:persp3d" />
  </defs>
  <path
     style="color:#000000;font-style:normal;font-variant:normal;font-weight:normal;font-stretch:normal;font-size:medium;line-height:normal;font-family:sans-serif;text-indent:0;text-align:start;text-decoration:none;text-decoration-line:none;text-decoration-style:solid;text-decoration-color:#000000;letter-spacing:normal;word-spacing:normal;text-transform:none;direction:ltr;block-progression:tb;writing-mode:lr-tb;baseline-shift:baseline;text-anchor:start;white-space:normal;clip-rule:nonzero;display:inline;overflow:visible;visibility:visible;opacity:1;isolation:auto;mix-blend-mode:normal;color-interpolation:sRGB;color-interpolation-filters:linearRGB;solid-color:#000000;solid-opacity:1;fill:#000080;fill-opacity:1;fill-rule:evenodd;stroke:none;stroke-width:10;stroke-linecap:round;stroke-linejoin:round;stroke-miterlimit:4;stroke-dasharray:none;stroke-dashoffset:0;stroke-opacity:1;color-rendering:auto;image-rendering:auto;shape-rendering:auto;text-rendering:auto;enable-background:accumulate"
     d="M 298.34961 30.958984 A 5.0005 5.0005 0 0 0 296.14453 31.578125 L 71.515625 155.50977 A 5.0005 5.0005 0 0 0 70.179688 163.19336 L 298.67969 422.67773 A 5.0005 5.0005 0 0 0 304.92578 423.70703 L 523.74609 297.83789 A 5.0005 5.0005 0 0 0 525.03516 290.23242 L 302.3418 32.685547 A 5.0005 5.0005 0 0 0 298.34961 30.958984 z M 61.402344 183.60742 A 5.0005 5.0005 0 0 0 56.654297 188.55078 L 55.685547 284.88867 A 5.0005 5.0005 0 0 0 56.939453 288.25195 L 283.50586 544.34766 A 5.0005 5.0005 0 0 0 292.25 540.98438 L 291.28125 444.16211 A 5.0005 5.0005 0 0 0 290.03711 440.91211 L 65.410156 185.30078 A 5.0005 5.0005 0 0 0 61.402344 183.60742 z M 519.23828 318.9043 A 8.2394914 8.2394914 0 0 0 515.34375 320.0293 L 309.0957 440.88281 A 8.2394914 8.2394914 0 0 0 305.0293 447.61719 L 304.88477 450.80273 A 8.2394914 8.2394914 0 0 0 317.28125 458.2832 L 523.35742 337.51758 A 8.2394914 8.2394914 0 0 0 527.39258 331.20508 L 527.70898 327.93164 A 8.2394914 8.2394914 0 0 0 519.23828 318.9043 z M 519.23828 358.9043 A 8.2394914 8.2394914 0 0 0 515.34375 360.0293 L 309.0957 480.88281 A 8.2394914 8.2394914 0 0 0 305.0293 487.61719 L 304.88477 490.80273 A 8.2394914 8.2394914 0 0 0 317.28125 498.2832 L 523.35742 377.51758 A 8.2394914 8.2394914 0 0 0 527.39258 371.20508 L 527.70898 367.93164 A 8.2394914 8.2394914 0 0 0 519.23828 358.9043 z M 519.23828 398.9043 A 8.2394914 8.2394914 0 0 0 515.34375 400.0293 L 309.0957 520.88281 A 8.2394914 8.2394914 0 0 0 305.0293 527.61719 L 304.88477 530.80273 A 8.2394914 8.2394914 0 0 0 317.28125 538.2832 L 523.35742 417.51758 A 8.2394914 8.2394914 0 0 0 527.39258 411.20508 L 527.70898 407.93164 A 8.2394914 8.2394914 0 0 0 519.23828 398.9043 z "
     id="path4166" />
</svg>
