<?xml version="1.0" encoding="UTF-8" standalone="no"?>
<!-- Created with Inkscape (http://www.inkscape.org/) -->

<svg
   xmlns:dc="http://purl.org/dc/elements/1.1/"
   xmlns:cc="http://creativecommons.org/ns#"
   xmlns:rdf="http://www.w3.org/1999/02/22-rdf-syntax-ns#"
   xmlns:svg="http://www.w3.org/2000/svg"
   xmlns="http://www.w3.org/2000/svg"
   xmlns:sodipodi="http://sodipodi.sourceforge.net/DTD/sodipodi-0.dtd"
   xmlns:inkscape="http://www.inkscape.org/namespaces/inkscape"
   version="1.1"
   width="24"
   height="24"
   id="svg4460"
   inkscape:version="0.91 r13725"
   sodipodi:docname="octopus.svg">
  <sodipodi:namedview
     pagecolor="#ffffff"
     bordercolor="#666666"
     borderopacity="1"
     objecttolerance="10"
     gridtolerance="10"
     guidetolerance="10"
     inkscape:pageopacity="0"
     inkscape:pageshadow="2"
     inkscape:window-width="1280"
     inkscape:window-height="972"
     id="namedview11"
     showgrid="false"
     inkscape:zoom="27.812866"
     inkscape:cx="13.01872"
     inkscape:cy="10.959103"
     inkscape:window-x="-8"
     inkscape:window-y="-8"
     inkscape:window-maximized="1"
     inkscape:current-layer="svg4460"
     showguides="false" />
  <defs
     id="defs4462" />
  <metadata
     id="metadata4465">
    <rdf:RDF>
      <cc:Work
         rdf:about="">
        <dc:format>image/svg+xml</dc:format>
        <dc:type
           rdf:resource="http://purl.org/dc/dcmitype/StillImage" />
        <dc:title></dc:title>
      </cc:Work>
    </rdf:RDF>
  </metadata>
  <path
     style="color:#000000;font-style:normal;font-variant:normal;font-weight:normal;font-stretch:normal;font-size:medium;line-height:normal;font-family:sans-serif;text-indent:0;text-align:start;text-decoration:none;text-decoration-line:none;text-decoration-style:solid;text-decoration-color:#000000;letter-spacing:normal;word-spacing:normal;text-transform:none;direction:ltr;block-progression:tb;writing-mode:lr-tb;baseline-shift:baseline;text-anchor:start;white-space:normal;clip-rule:nonzero;display:inline;overflow:visible;visibility:visible;opacity:1;isolation:auto;mix-blend-mode:normal;color-interpolation:sRGB;color-interpolation-filters:linearRGB;solid-color:#000000;solid-opacity:1;fill:#000000;fill-opacity:1;fill-rule:evenodd;stroke:none;stroke-width:5;stroke-linecap:round;stroke-linejoin:round;stroke-miterlimit:4;stroke-dasharray:none;stroke-dashoffset:0;stroke-opacity:1;color-rendering:auto;image-rendering:auto;shape-rendering:auto;text-rendering:auto;enable-background:accumulate"
     d="M 10.695708,6.0430185 C 10.492908,6.0441402 10.297798,6.0605221 10.113688,6.0930441 9.1503878,6.2632126 8.0953378,6.7772144 7.3434778,7.7982284 6.5916078,8.8192411 6.1636978,10.350106 6.4495978,12.449404 6.6747678,14.102796 7.3618878,14.85694 7.9908578,15.350206 8.1290178,15.458558 8.2626278,15.555353 8.3895378,15.649064 8.0432178,16.069036 7.8043378,16.365055 7.6100978,16.522019 7.3879778,16.701505 7.2239978,16.742298 6.8839778,16.666334 6.3586978,16.548983 6.0652278,16.130132 5.9686478,15.968007 6.0168178,15.667285 6.1131678,15.351676 6.2160278,15.005784 6.3908678,14.417843 6.5716078,13.741802 6.4287378,12.958039 6.2948578,12.223557 5.9966378,11.02962 5.4202778,10.18463 5.1320978,9.7621333 4.7667278,9.4244867 4.3176578,9.3107437 3.8685778,9.1970005 3.3496378,9.3148202 2.7759578,9.7384807 1.9372978,10.357825 1.6799478,11.366494 1.7870278,12.240184 1.8941178,13.113876 2.3283678,13.884434 2.9002278,14.114789 3.0341208,14.168575 3.1656321,14.024279 3.1426078,13.848848 3.0608978,13.228155 3.1241378,12.811322 3.2430878,12.550202 3.3620478,12.289082 3.5358978,12.163019 3.7421078,12.124139 4.1545178,12.046378 4.6730378,12.393172 4.8124078,12.922519 4.8844478,13.196132 4.8661978,13.441727 4.7962478,13.716622 4.7263078,13.991517 4.6003878,14.286139 4.4714578,14.609104 4.4089278,14.765741 4.3462178,14.931393 4.2903278,15.105838 3.9162078,14.738089 3.4662478,14.485372 3.0487478,14.361389 2.8147878,14.291913 2.5912378,14.262559 2.3909278,14.283281 2.1906278,14.304002 2.0060078,14.372058 1.8723778,14.541225 1.7304478,14.720912 1.7151878,14.973137 1.7394378,15.183946 1.7636878,15.394756 1.8214978,15.599767 1.8689978,15.793564 1.9165078,15.987362 1.9520778,16.168924 1.9511178,16.294203 1.9501578,16.419483 1.9368478,16.471391 1.8576878,16.538199 1.6351878,16.725987 1.5456078,16.70372 1.3877578,16.644948 1.2299178,16.586174 1.0139378,16.443538 0.70732783,16.443538 0.37981783,16.443538 0.16715783,16.705007 0.08226783,16.937854 -0.00261217,17.170702 7.831431e-6,17.393674 7.831431e-6,17.393674 -1.8726717e-5,17.529622 0.08973386,17.637996 0.19699783,17.631533 0.19699783,17.631533 0.41164783,17.618758 0.67853783,17.651245 0.94541783,17.683733 1.2593178,17.773602 1.4215478,17.917373 1.7167978,18.179024 2.0887278,18.092452 2.4113478,17.895799 2.7339678,17.699147 3.0383578,17.382509 3.2693878,17.060782 3.3442678,16.956506 3.4222678,16.91893 3.5226378,16.909586 3.6230178,16.900244 3.7432278,16.930303 3.8571278,16.981372 4.0849278,17.083511 4.2734378,17.256611 4.2734378,17.256611 L 4.2756378,17.25847 C 4.4941978,17.910196 4.8808078,18.443215 5.3361078,18.847421 5.0190078,19.178243 4.2596378,19.862665 3.3560578,19.917136 2.7462878,19.953897 2.4877878,19.772889 2.3735978,19.628321 2.2594078,19.483754 2.2679778,19.380234 2.2679778,19.380234 L 1.8919178,19.380234 C 1.8919178,19.380234 1.9006578,19.702804 2.1077078,19.964931 2.3147678,20.227058 2.9528551,20.626491 3.6280651,20.585785 4.7723851,20.5168 5.4017278,19.419029 5.6697078,19.113735 5.7155178,19.146272 5.7617178,19.177681 5.8082378,19.207838 6.5165978,19.666988 7.2260366,20.117985 7.8489266,19.966338 8.9035166,19.709586 9.6675578,19.041987 9.7869878,18.969234 9.8318378,19.003362 9.8512778,19.025723 9.9742878,19.09179 10.164798,19.194111 10.457678,19.321708 10.879618,19.434165 11.798628,19.432204 12.36775,18.840074 13.043148,18.189823 13.283528,18.611472 13.868948,19.439373 14.769208,19.439373 15.387768,19.439373 15.973518,18.979027 16.415938,18.539451 16.710068,18.247212 16.899638,18.007223 17.022338,17.843913 L 17.925618,18.98746 C 17.935757,19.045418 17.962634,19.09649 18.000978,19.130658 18.341968,19.444612 18.753998,19.799742 19.282518,19.879757 19.811038,19.95977 20.434738,19.748516 21.164588,19.025398 21.308516,18.886813 21.230089,18.596044 21.049268,18.597846 21.006861,18.598259 20.96581,18.616806 20.932778,18.650476 20.255268,19.032061 19.89964,19.245283 19.47972,19.18171 19.1637,19.133868 18.733078,19.181905 18.473258,18.966816 18.641368,18.840804 18.874298,18.652579 19.125638,18.402575 19.595698,17.935 20.123628,17.267169 20.315218,16.418247 20.513148,15.541253 20.274338,14.395559 20.113088,13.395261 20.032458,12.895111 19.968348,12.432874 19.969568,12.094197 19.970178,11.924857 19.987628,11.788677 20.016578,11.697516 20.045518,11.606356 20.077518,11.560841 20.131888,11.526422 20.282988,11.430775 20.437918,11.420596 20.619298,11.469328 20.800688,11.51806 21.002158,11.631051 21.208948,11.770231 21.622528,12.048594 22.042778,12.435847 22.481388,12.533835 23.324638,12.722228 23.945088,11.919941 23.945088,11.919941 24.069727,11.761756 23.96912,11.492953 23.793488,11.514891 23.793488,11.514891 23.430048,11.565009 23.004498,11.222171 22.944768,11.174049 22.789828,10.949439 22.629758,10.655511 22.469678,10.361585 22.288178,9.996482 22.096368,9.6391712 21.904558,9.28186 21.703268,8.93206 21.492168,8.6602109 21.281078,8.3883619 21.055758,8.1722189 20.783388,8.1722189 20.079478,8.1722189 19.112508,8.6346012 18.541568,9.8976731 18.457338,9.7925299 18.346698,9.6480724 18.224268,9.4636135 18.006078,9.1349049 17.812948,8.7094543 17.812948,8.5199871 17.812948,7.9287952 18.020658,7.0571265 18.020658,7.0571265 18.059063,6.9013141 17.965041,6.7438964 17.836158,6.7482256 17.819579,6.7487659 17.80313,6.7520805 17.787238,6.7580827 17.787238,6.7580827 17.520678,6.8651198 17.235198,7.2114839 16.949708,7.5578493 16.627148,8.1515149 16.446638,9.1227248 16.256458,10.145977 16.524418,11.322911 16.779368,12.414813 17.034318,13.506717 17.264118,14.52654 17.140888,15.083707 16.920688,16.0793 16.311678,16.527896 16.068968,16.671913 15.916388,16.615735 15.777418,16.514256 15.647508,16.377705 15.233778,15.942822 14.944058,15.135379 14.821358,14.539923 14.713278,14.015447 14.918628,13.45304 15.169798,12.692657 15.420968,11.932273 15.696058,10.990062 15.605498,9.7576352 15.509248,8.447728 14.586678,7.4585348 13.489128,6.8307975 12.665968,6.3599951 11.731128,6.0829023 10.900918,6.0469228 10.831738,6.0439249 10.763298,6.0426438 10.695708,6.0430185 Z M 10.695708,6.5209674 C 10.758168,6.5208914 10.821708,6.522384 10.886088,6.5254312 11.658638,6.5619867 12.559268,6.8213937 13.334298,7.2646721 14.367678,7.8557095 15.154238,8.75642 15.231058,9.8018972 15.313568,10.924856 15.069378,11.762949 14.822968,12.508916 14.576568,13.254881 14.305958,13.924868 14.457488,14.660246 14.594388,15.324649 14.890158,16.200267 15.407338,16.743886 15.542478,16.88594 15.695348,17.003275 16.210963,17.099488 16.726578,17.195699 17.131368,17.009522 17.564688,16.598082 18.402558,15.802529 18.559088,14.654565 18.564628,13.567658 18.570168,12.480751 18.454728,11.415378 18.666718,10.683408 19.115618,9.1335123 20.121578,8.6483094 20.783388,8.6483094 20.878788,8.6483094 21.042918,8.7609105 21.223938,8.9940316 21.404958,9.2271527 21.598608,9.5588516 21.785378,9.9067853 21.972158,10.254721 22.152958,10.618829 22.320098,10.92573 22.487228,11.23263 22.624268,11.480277 22.802508,11.623871 22.981718,11.768252 23.149608,11.844272 23.304318,11.897996 23.103378,12.024864 22.841438,12.130834 22.546758,12.064999 22.446718,12.042649 22.331408,11.986123 22.206838,11.911943 22.291478,11.798452 22.343888,11.646082 22.343888,11.478813 22.343888,11.131108 22.118788,10.846135 21.844138,10.846135 21.609308,10.846135 21.411268,11.054709 21.358638,11.332452 21.146418,11.19127 20.926948,11.065311 20.697448,11.003654 20.458328,10.939409 20.202148,10.949698 19.963838,11.100544 19.823508,11.189374 19.722918,11.345965 19.667688,11.519913 19.612468,11.693861 19.594248,11.885757 19.593508,12.092151 19.593248,12.165057 19.595898,12.240719 19.599818,12.317549 19.512178,12.22164 19.398428,12.163006 19.274298,12.163006 18.999648,12.163006 18.774548,12.447981 18.774548,12.795685 18.774548,13.14339 18.999648,13.428364 19.274298,13.428364 19.447548,13.428364 19.600898,13.314837 19.690608,13.143826 19.707608,13.257757 19.725748,13.373141 19.744668,13.490479 19.790108,13.772403 19.837218,14.062773 19.879368,14.349859 19.842168,14.338554 19.803588,14.332006 19.763758,14.332006 19.489108,14.332006 19.264008,14.616979 19.264008,14.964685 19.264008,15.31239 19.489108,15.597364 19.763758,15.597364 19.849898,15.597364 19.931208,15.569385 20.002178,15.520184 20.013308,15.811964 20.001588,16.074683 19.953558,16.287508 19.799008,16.972324 19.331798,17.591977 18.893238,18.028212 18.555828,18.363842 18.302088,18.545552 18.176378,18.631694 L 17.152048,17.334906 C 17.075034,17.237423 16.948918,17.242887 16.877348,17.346808 16.877348,17.346808 16.595808,17.75563 16.183698,18.165089 15.771578,18.574547 15.206904,18.737979 14.743784,18.737979 13.787444,18.737979 13.245868,17.715592 13.245868,17.715592 13.186196,17.580832 13.042516,17.552603 12.953388,17.658127 12.398879,18.400124 11.519812,18.863229 10.957188,18.968304 10.394564,19.073379 10.248316,18.682498 9.9027478,18.514531 9.8460769,18.463333 9.7717002,18.455964 9.7094278,18.495376 9.7094278,18.495376 8.9539078,18.973773 7.8542378,19.241497 7.3521678,19.363731 6.6234178,19.201276 5.9796678,18.784005 5.8021378,18.668933 5.6318378,18.534623 5.4730178,18.384164 5.7348878,18.365724 5.9451478,18.089426 5.9451478,17.753531 5.9451478,17.405824 5.7200478,17.120851 5.4453978,17.120851 5.1721378,17.120851 4.9480578,17.403012 4.9457978,17.748324 4.7785078,17.48579 4.6463278,17.195079 4.5634178,16.880202 4.4948778,16.619875 4.4691378,16.381571 4.4736578,16.157327 4.5612078,16.252726 4.6746878,16.31094 4.7984578,16.31094 5.0731078,16.31094 5.2982078,16.025966 5.2982078,15.678261 5.2982078,15.330557 5.0731078,15.045583 4.7984578,15.045583 4.7707478,15.045583 4.7437378,15.049123 4.7172178,15.054696 4.7460778,14.977776 4.7761778,14.901058 4.8069778,14.823903 4.9322478,14.510094 5.0686978,14.198814 5.1542478,13.86261 5.2397878,13.526406 5.2701078,13.155585 5.1690778,12.771881 4.9839878,12.068919 4.4267678,11.638209 3.8784278,11.637076 3.8856478,11.59448 3.8895878,11.550427 3.8895878,11.505222 3.8895878,11.157515 3.6644978,10.872542 3.3898478,10.872542 3.1151978,10.872542 2.8900978,11.157515 2.8900978,11.505222 2.8900978,11.716146 2.9732378,11.903546 3.0997178,12.018692 3.0311178,12.10281 2.9688578,12.199424 2.9174178,12.312342 2.7830478,12.607308 2.7170178,12.990932 2.7334978,13.464444 2.4595378,13.190439 2.2244778,12.703872 2.1586878,12.167097 2.0710678,11.452274 2.2464778,10.680625 2.9654578,10.149666 3.4813878,9.7686493 3.8964578,9.6895324 4.2439078,9.7775353 4.5913678,9.8655387 4.8849078,10.128242 5.1355878,10.495761 5.6369478,11.230801 5.9366478,12.375457 6.0623678,13.06516 6.1791078,13.705583 6.0353578,14.26198 5.8640578,14.838038 5.6927578,15.414095 5.4849978,16.008023 5.5848078,16.671355 5.6427078,17.056237 5.8730878,17.357705 6.1682878,17.604381 6.4634878,17.851057 6.8364578,18.048555 7.2363878,18.197261 8.0222578,18.489471 8.8988678,18.597551 9.5059678,18.396995 9.5261178,18.39898 9.5406878,18.408463 9.5645878,18.402203 9.6169378,18.38849 9.6718178,18.343579 9.7050178,18.28969 9.7382178,18.235801 9.7549278,18.178244 9.7658378,18.11748 9.8094678,17.87442 9.7841078,17.516351 9.6303978,16.682327 9.5433978,16.210313 9.3188478,15.877965 9.0546978,15.624143 8.7905478,15.370322 8.4855478,15.17819 8.1888778,14.94553 7.5955378,14.480207 7.0277278,13.892145 6.8202178,12.368507 6.5498878,10.383481 6.9440678,9.0387655 7.6184678,8.1229364 8.2928778,7.2071061 9.2683478,6.7231615 10.165548,6.5646707 10.330288,6.5355693 10.508318,6.5211965 10.695708,6.5209674 Z M 17.539278,7.5127597 C 17.486888,7.8139114 17.436888,8.181529 17.436888,8.5199871 17.436888,8.9878383 17.699128,9.412537 17.936338,9.7699102 18.139798,10.076425 18.313968,10.283331 18.367488,10.346054 18.348878,10.402606 18.330858,10.460236 18.313728,10.51938 18.307168,10.542034 18.302018,10.565308 18.295948,10.58819 18.204418,10.461616 18.073388,10.381388 17.928118,10.381388 17.653468,10.381388 17.428368,10.666362 17.428368,11.014067 17.428368,11.361772 17.653468,11.646561 17.928118,11.646561 18.012268,11.646561 18.091608,11.619634 18.161388,11.572543 18.135028,12.21899 18.191928,12.904475 18.188568,13.564682 18.183288,14.60036 18.058808,15.533802 17.339048,16.21721 17.149768,16.396935 16.975668,16.520292 16.815208,16.6005 17.087168,16.291613 17.363548,15.843157 17.503138,15.212029 17.682778,14.399785 17.393448,13.365442 17.140008,12.279984 16.886558,11.194524 16.656748,10.07085 16.812718,9.2317052 16.978348,8.3405187 17.261628,7.8387249 17.495348,7.5551616 17.513218,7.5334891 17.522248,7.5318661 17.539278,7.5127597 Z M 13.429048,8.7589622 C 13.333223,8.7567818 13.279023,8.8972814 13.339298,8.9916148 13.339298,8.9916148 13.433038,9.146728 13.428758,9.3583526 13.424468,9.5699759 13.334568,9.8566305 12.860108,10.143901 12.737938,10.217874 12.626928,10.292785 12.525178,10.36744 12.467378,10.366698 12.409928,10.369718 12.353608,10.380458 12.045718,10.439177 11.772098,10.679718 11.626598,11.053122 11.481108,11.426525 11.462258,11.917992 11.604718,12.481578 11.890468,13.612072 12.627238,14.23727 13.266428,14.221167 13.586028,14.213114 13.893788,14.020068 14.050138,13.644465 14.206488,13.26886 14.211108,12.754056 14.038528,12.113166 13.790918,11.193626 13.346938,10.64077 12.888168,10.445735 12.911458,10.431043 12.933158,10.416308 12.957358,10.401659 13.478058,10.086389 13.647718,9.6882373 13.654248,9.3657915 13.660778,9.0433458 13.516598,8.8151266 13.516598,8.8151266 13.495712,8.7804748 13.463472,8.759792 13.429048,8.7589622 Z M 20.681588,9.5292616 C 20.406938,9.5292616 20.181838,9.8142352 20.181838,10.16194 20.181838,10.509646 20.406938,10.794434 20.681588,10.794434 20.956238,10.794434 21.181338,10.509646 21.181338,10.16194 21.181338,9.8142352 20.956238,9.5292616 20.681588,9.5292616 Z M 20.681588,9.8149146 C 20.834288,9.8149146 20.955698,9.9686139 20.955698,10.16194 20.955698,10.355267 20.834288,10.508779 20.681588,10.508779 20.528878,10.508779 20.407468,10.355267 20.407468,10.16194 20.407468,9.9686139 20.528878,9.8149146 20.681588,9.8149146 Z M 8.6107678,10.382131 C 8.5650878,10.378629 8.5098578,10.391272 8.4665178,10.436993 8.3120878,10.599917 8.2023578,10.845585 8.1233578,11.052749 8.0443678,11.259914 7.9989378,11.432692 7.9989378,11.432692 7.9513698,11.613441 8.1655088,11.703807 8.2131178,11.523075 8.2131178,11.523075 8.2542278,11.366943 8.3266678,11.176979 8.3970978,10.99228 8.5000778,10.782732 8.6023978,10.669088 8.6122378,10.670542 8.6305578,10.675092 8.6574878,10.6888 8.7165078,10.718847 8.8031778,10.782155 8.9025078,10.866405 9.0509278,10.992286 9.2329178,11.167322 9.4215078,11.34826 9.2669778,11.41559 9.1079178,11.520559 8.9471678,11.668878 8.5624378,12.023862 8.3683478,12.493601 8.3381278,12.954877 8.3078978,13.416155 8.4333378,13.861521 8.6511678,14.202569 8.8689978,14.543617 9.1844378,14.786549 9.5423978,14.820555 9.9003678,14.854564 10.289568,14.667117 10.623138,14.214657 11.014088,13.684362 11.062868,12.90923 10.872428,12.280913 10.921198,12.260353 10.966248,12.22652 11.002278,12.175838 11.217978,11.872434 11.251328,11.540673 11.183118,11.258063 11.114908,10.975453 10.964908,10.734004 10.835548,10.515661 10.746124,10.356041 10.559031,10.533879 10.655158,10.687127 10.785418,10.906994 10.916548,11.131187 10.967318,11.341566 11.018098,11.551943 11.008238,11.740485 10.834528,11.984844 10.820008,12.005261 10.803518,12.016617 10.775328,12.019622 10.765418,11.997403 10.756078,11.974636 10.745498,11.953043 10.582978,11.621093 10.330658,11.357235 10.011308,11.280566 9.9314678,11.261399 9.8484978,11.25425 9.7631878,11.259923 9.7457878,11.26108 9.7280478,11.264027 9.7104578,11.266246 9.4679278,11.035696 9.2287478,10.799278 9.0281078,10.629104 8.9225978,10.539609 8.8284878,10.467992 8.7416578,10.42379 8.6982378,10.401689 8.6564478,10.385634 8.6107678,10.382131 Z M 17.928118,10.667042 C 18.080818,10.667042 18.202078,10.820741 18.202078,11.014067 18.202078,11.207393 18.080818,11.360906 17.928118,11.360906 17.775408,11.360906 17.653998,11.207393 17.653998,11.014067 17.653998,10.820741 17.775408,10.667042 17.928118,10.667042 Z M 12.485228,10.842228 C 12.872528,10.824298 13.397118,11.206646 13.682598,12.266779 13.834518,12.830969 13.807628,13.206028 13.717558,13.422414 13.627488,13.638799 13.473968,13.739844 13.258938,13.745262 12.828878,13.756096 12.202778,13.285732 11.962848,12.336518 11.842468,11.860251 11.870658,11.503068 11.963878,11.263828 11.964338,11.262653 11.964888,11.261651 11.965348,11.260481 11.973778,11.249469 11.978908,11.241079 11.987968,11.22961 12.069888,11.125909 12.178718,11.00583 12.317028,10.878494 12.346948,10.867034 12.377588,10.857284 12.409718,10.851155 12.434208,10.846486 12.459408,10.843424 12.485228,10.842228 Z M 21.844138,11.131788 C 21.996848,11.131788 22.118258,11.285487 22.118258,11.478813 22.118258,11.603845 22.067048,11.711626 21.989868,11.77265 21.856488,11.681772 21.714958,11.580819 21.570178,11.478813 21.570178,11.285487 21.691438,11.131788 21.844138,11.131788 Z M 3.3898478,11.158197 C 3.5425478,11.158197 3.6639578,11.311894 3.6639578,11.505222 3.6639578,11.56439 3.6515078,11.618914 3.6313478,11.667389 3.5144178,11.697193 3.4006178,11.751268 3.2950978,11.830116 3.1900678,11.781711 3.1157278,11.65607 3.1157278,11.505222 3.1157278,11.311894 3.2371378,11.158197 3.3898478,11.158197 Z M 12.289558,11.454822 C 12.255878,11.4523 12.223308,11.455107 12.192308,11.464121 12.130318,11.482149 12.075178,11.527635 12.038648,11.600998 11.965608,11.747722 11.962228,11.990383 12.050548,12.367762 12.138808,12.744856 12.252018,12.977209 12.376958,13.102355 12.501898,13.2275 12.640618,13.238818 12.756838,13.17414 12.989278,13.044783 13.144928,12.641989 13.075018,12.28798 13.039768,12.109459 12.937808,11.93279 12.811488,11.786597 12.685168,11.640405 12.534208,11.524906 12.393268,11.47714 12.358028,11.465197 12.323238,11.457345 12.289558,11.454822 Z M 9.7803778,11.734525 C 9.7986178,11.733398 9.8158878,11.73467 9.8334078,11.735269 10.018198,11.902608 10.200698,12.055308 10.368418,12.161147 10.385508,12.171934 10.402148,12.181251 10.418948,12.191088 10.421168,12.195504 10.423668,12.199452 10.425848,12.20392 10.663778,12.689895 10.669058,13.454846 10.348288,13.889949 10.076108,14.259134 9.8106478,14.368573 9.5706078,14.345768 9.3305678,14.322963 9.1046978,14.155319 8.9436478,13.903153 8.7825878,13.650988 8.6914878,13.320585 8.7128678,12.994305 8.7342478,12.668023 8.8599578,12.338515 9.1686878,12.053655 9.4063578,11.834369 9.6091278,11.745115 9.7803778,11.734525 Z M 9.8463378,12.05849 C 9.8309078,12.059002 9.8154878,12.060796 9.8002078,12.063882 9.5558278,12.113267 9.3458678,12.463715 9.3665678,12.904851 9.3873278,13.347587 9.6442778,13.740416 9.8987778,13.847919 10.026028,13.901671 10.160358,13.876806 10.247668,13.739497 10.334968,13.602188 10.375658,13.367535 10.350198,13.007322 10.324758,12.64739 10.251808,12.401896 10.151888,12.248926 10.064448,12.115077 9.9543578,12.054906 9.8463378,12.05849 Z M 19.274298,12.448661 C 19.426998,12.448661 19.548258,12.602359 19.548258,12.795685 19.548258,12.989011 19.426998,13.142711 19.274298,13.142711 19.121588,13.142711 19.000178,12.989011 19.000178,12.795685 19.000178,12.602359 19.121588,12.448661 19.274298,12.448661 Z M 11.974168,15.066598 C 10.590865,14.385954 10.551555,15.814403 10.646198,17.431612 10.686155,17.745037 11.057515,17.66916 11.017558,17.355735 10.925582,16.016283 11.731104,15.461163 11.900858,15.676961 12.001721,15.953992 12.29089,15.925529 12.274128,15.622656 12.538912,15.078041 13.201447,16.060852 13.413628,16.756159 13.43017,17.07883 13.814314,17.038223 13.788358,16.716548 13.396863,14.543707 12.96788,14.033727 11.974168,15.066598 Z M 19.763758,14.61766 C 19.824978,14.61766 19.880588,14.643123 19.925938,14.685168 19.947608,14.852834 19.966538,15.017628 19.980288,15.176507 19.930398,15.258448 19.852828,15.31171 19.763758,15.31171 19.611058,15.31171 19.489648,15.158011 19.489648,14.964685 19.489648,14.771358 19.611058,14.61766 19.763758,14.61766 Z M 2.5394478,14.753234 C 2.6645878,14.755819 2.8098578,14.779557 2.9629578,14.82502 3.3674678,14.945144 3.8265778,15.217101 4.1644378,15.59011 4.1035578,15.901694 4.0800778,16.239346 4.1255078,16.605894 4.0801378,16.580107 4.0329978,16.554973 3.9827278,16.532434 3.8370178,16.467102 3.6704778,16.418466 3.4950178,16.434799 3.3195678,16.451131 3.1326178,16.543543 2.9911578,16.740536 2.7895078,17.02135 2.5097878,17.307367 2.2482978,17.46676 1.9867978,17.626154 1.7746178,17.64917 1.6371978,17.527388 1.3667578,17.287724 1.0101178,17.213184 0.71452783,17.177201 0.55111783,17.157309 0.51672783,17.165282 0.41851783,17.165299 0.42245783,17.151844 0.41877783,17.150808 0.42366783,17.137402 0.46857783,17.014204 0.51561783,16.919629 0.70732783,16.919629 0.91992783,16.919629 1.0716178,17.02353 1.2815478,17.101696 1.4914878,17.179864 1.7695778,17.18493 2.0662878,16.934507 2.2467378,16.78221 2.3254378,16.526009 2.3271778,16.298667 2.3289178,16.071323 2.2780078,15.855744 2.2281678,15.652411 2.1783278,15.44908 2.1278478,15.257136 2.1115278,15.115323 2.0952178,14.973509 2.1071278,14.917439 2.1382678,14.878022 2.1777078,14.828083 2.2742978,14.772923 2.4214878,14.757696 2.4582778,14.753891 2.4977278,14.752372 2.5394478,14.753234 Z M 3.1813978,14.951853 C 2.9067478,14.951853 2.6816478,15.236826 2.6816478,15.584532 2.6816478,15.932237 2.9067478,16.217025 3.1813978,16.217025 3.4560478,16.217025 3.6811478,15.932237 3.6811478,15.584532 3.6811478,15.236826 3.4560478,14.951853 3.1813978,14.951853 Z M 3.1813978,15.237507 C 3.3340978,15.237507 3.4555078,15.391206 3.4555078,15.584532 3.4555078,15.777857 3.3340978,15.93137 3.1813978,15.93137 3.0286878,15.93137 2.9072778,15.777857 2.9072778,15.584532 2.9072778,15.391206 3.0286878,15.237507 3.1813978,15.237507 Z M 4.7984578,15.331237 C 4.9511578,15.331237 5.0725678,15.484935 5.0725678,15.678261 5.0725678,15.871587 4.9511578,16.025287 4.7984578,16.025287 4.6505278,16.025287 4.5330878,15.880686 4.5258078,15.695929 4.5412278,15.619227 4.5595778,15.543732 4.5803078,15.469042 4.6300678,15.385537 4.7083978,15.331237 4.7984578,15.331237 Z M 8.7207978,15.907566 C 8.7576678,15.939145 8.7935878,15.97095 8.8272978,16.003342 9.0512578,16.218543 9.1997378,16.440746 9.2641778,16.790378 9.3968878,17.510442 9.4039578,17.827778 9.3975578,17.939318 9.2852578,17.974696 9.1525278,17.99705 9.0066578,18.007755 9.1173578,17.891418 9.1882278,17.716131 9.1882278,17.521064 9.1882278,17.173359 8.9631278,16.888386 8.6884778,16.888386 8.4138278,16.888386 8.1887278,17.173359 8.1887278,17.521064 8.1887278,17.703339 8.2510078,17.8678 8.3494378,17.983578 8.0187678,17.942691 7.6692178,17.862072 7.3422978,17.740513 6.9688278,17.601644 6.6251078,17.41561 6.3754078,17.206957 6.1483978,17.017263 6.0106978,16.813728 5.9658578,16.635277 6.1647078,16.841039 6.4472978,17.052217 6.8186078,17.135172 7.2141378,17.223537 7.5260978,17.154686 7.8123778,16.923349 8.0799078,16.70716 8.3379078,16.371889 8.7207978,15.907566 Z M 18.539948,16.811021 C 18.265298,16.811021 18.040198,17.095995 18.040198,17.443699 18.040198,17.791406 18.265298,18.076193 18.539948,18.076193 18.814598,18.076193 19.039698,17.791406 19.039698,17.443699 19.039698,17.095995 18.814598,16.811021 18.539948,16.811021 Z M 18.539948,17.096675 C 18.692658,17.096675 18.814058,17.250373 18.814058,17.443699 18.814058,17.637026 18.692658,17.79054 18.539948,17.79054 18.387238,17.79054 18.265838,17.637026 18.265838,17.443699 18.265838,17.250373 18.387238,17.096675 18.539948,17.096675 Z M 8.6884778,17.174039 C 8.8411878,17.174039 8.9625978,17.327738 8.9625978,17.521064 8.9625978,17.714391 8.8411878,17.868089 8.6884778,17.868089 8.5357678,17.868089 8.4143678,17.714391 8.4143678,17.521064 8.4143678,17.327738 8.5357678,17.174039 8.6884778,17.174039 Z M 5.4453978,17.406506 C 5.5981078,17.406506 5.7195078,17.560205 5.7195078,17.753531 5.7195078,17.946857 5.5981078,18.10037 5.4453978,18.10037 5.2926878,18.10037 5.1712878,17.946857 5.1712878,17.753531 5.1712878,17.560205 5.2926878,17.406506 5.4453978,17.406506 Z"
     id="path4523"
     inkscape:connector-curvature="0"
     sodipodi:nodetypes="cssssccscscsssccccsscscsscscsscscccsssscscccsscccsccscsccsscccscccsccscscccssccscscsccsccccssscscsssscscsscsccsscssccscscsscsccccssscccssscsccccsscczccsscsscccssscscscssscsccssssscssccsccsscssscsccccssscccccsccccccccscssssccsccssssssssssscccccccccscsssccsccccccsscccssssssccsscccscccssccsssccssccccsscsccsccccsscscscccscsccsssssccccccccsccssssccccsscssccscsssccsssssssssssssssccscssccssscsscsscssssssssssssssssssss" />
</svg>
