<?xml version="1.0" encoding="UTF-8" standalone="no"?>
<!-- Created with Inkscape (http://www.inkscape.org/) -->

<svg
   xmlns:dc="http://purl.org/dc/elements/1.1/"
   xmlns:cc="http://creativecommons.org/ns#"
   xmlns:rdf="http://www.w3.org/1999/02/22-rdf-syntax-ns#"
   xmlns:svg="http://www.w3.org/2000/svg"
   xmlns="http://www.w3.org/2000/svg"
   xmlns:sodipodi="http://sodipodi.sourceforge.net/DTD/sodipodi-0.dtd"
   xmlns:inkscape="http://www.inkscape.org/namespaces/inkscape"
   version="1.1"
   width="24"
   height="24"
   id="svg4460"
   inkscape:version="0.91 r13725"
   sodipodi:docname="treasure.svg">
  <sodipodi:namedview
     pagecolor="#ffffff"
     bordercolor="#666666"
     borderopacity="1"
     objecttolerance="10"
     gridtolerance="10"
     guidetolerance="10"
     inkscape:pageopacity="0"
     inkscape:pageshadow="2"
     inkscape:window-width="1280"
     inkscape:window-height="972"
     id="namedview11"
     showgrid="false"
     inkscape:zoom="13.906433"
     inkscape:cx="13.514629"
     inkscape:cy="6.796779"
     inkscape:window-x="-8"
     inkscape:window-y="-8"
     inkscape:window-maximized="1"
     inkscape:current-layer="svg4460" />
  <defs
     id="defs4462" />
  <metadata
     id="metadata4465">
    <rdf:RDF>
      <cc:Work
         rdf:about="">
        <dc:format>image/svg+xml</dc:format>
        <dc:type
           rdf:resource="http://purl.org/dc/dcmitype/StillImage" />
        <dc:title />
      </cc:Work>
    </rdf:RDF>
  </metadata>
  <path
     style="color:#000000;font-style:normal;font-variant:normal;font-weight:normal;font-stretch:normal;font-size:medium;line-height:normal;font-family:sans-serif;text-indent:0;text-align:start;text-decoration:none;text-decoration-line:none;text-decoration-style:solid;text-decoration-color:#000000;letter-spacing:normal;word-spacing:normal;text-transform:none;direction:ltr;block-progression:tb;writing-mode:lr-tb;baseline-shift:baseline;text-anchor:start;white-space:normal;clip-rule:nonzero;display:inline;overflow:visible;visibility:visible;opacity:1;isolation:auto;mix-blend-mode:normal;color-interpolation:sRGB;color-interpolation-filters:linearRGB;solid-color:#000000;solid-opacity:1;fill:#000000;fill-opacity:1;fill-rule:evenodd;stroke:none;stroke-width:0.2;stroke-linecap:round;stroke-linejoin:miter;stroke-miterlimit:4;stroke-dasharray:none;stroke-dashoffset:0;stroke-opacity:1;color-rendering:auto;image-rendering:auto;shape-rendering:auto;text-rendering:auto;enable-background:accumulate"
     d="M 15.345703 1.8984375 L 15.333984 1.9023438 C 14.413311 2.1307437 13.443297 2.1051234 12.476562 2.296875 C 10.47121 2.6955018 8.3633164 2.9933924 6.5136719 3.9726562 C 5.94487 4.2163625 5.2300287 4.1996869 4.5976562 4.5019531 C 3.4357962 4.9386667 2.3932033 5.6481217 1.3886719 6.3183594 L 1.3808594 6.3242188 L 1.375 6.3300781 C 1.1043314 6.5928191 0.7200965 6.8772856 0.41015625 7.2109375 C 0.100216 7.5445894 -0.140513 7.9398362 -0.09375 8.4179688 L 0.4609375 18.953125 L 0.53125 18.972656 C 2.3794911 19.434007 4.1674487 20.108077 5.9628906 20.755859 L 5.9648438 20.757812 L 5.96875 20.759766 C 7.9621979 21.328677 10.056601 21.639251 12.042969 22.041016 L 12.003906 22.023438 C 12.112754 22.103095 12.250218 22.11378 12.384766 22.091797 C 12.519313 22.069814 12.658922 22.01518 12.796875 21.949219 C 13.068942 21.819131 13.332667 21.639716 13.492188 21.539062 L 13.501953 21.533203 L 23.126953 16.830078 L 23.132812 16.775391 C 23.459058 13.425013 23.801699 10.090582 24.099609 6.7421875 L 24.103516 6.7070312 L 24.082031 6.6757812 C 22.796251 4.8224385 21.046059 3.1307716 18.779297 2.5625 C 17.677237 2.2210653 16.535967 1.9073628 15.359375 1.8984375 L 15.345703 1.8984375 z M 16.0625 2.4941406 C 17.534037 2.6640937 18.984515 3.0700265 20.328125 3.6894531 C 21.653864 4.4552985 22.719017 5.6089711 23.619141 6.8476562 L 23.234375 10.798828 C 22.887078 10.948422 22.545868 11.108075 22.205078 11.246094 C 22.241658 10.755882 22.322716 10.262067 22.390625 9.765625 C 22.409065 9.8418297 22.449194 9.9094701 22.505859 9.9570312 C 22.574041 10.014259 22.659717 10.052068 22.748047 10.072266 C 22.924707 10.112661 23.13308 10.088735 23.25 9.9316406 C 23.30846 9.8530935 23.333314 9.7437839 23.316406 9.6230469 C 23.299499 9.5023098 23.245027 9.3673729 23.144531 9.2070312 L 23.121094 9.1699219 L 22.896484 9.1269531 L 22.865234 9.1445312 C 22.690226 9.2391666 22.56832 9.3305003 22.488281 9.4257812 C 22.455246 9.4651088 22.43468 9.5059578 22.416016 9.546875 C 22.471755 9.1037968 22.513732 8.6590369 22.492188 8.2089844 L 22.492188 8.203125 L 22.490234 8.1992188 C 22.266143 6.803216 21.6191 5.4085078 20.365234 4.6347656 C 19.208077 3.8529198 17.973057 2.9961231 16.560547 2.6542969 C 16.559138 2.6539558 16.55805 2.6526835 16.556641 2.6523438 L 16.554688 2.6523438 C 16.385834 2.611724 16.23823 2.514504 16.0625 2.4941406 z M 14.070312 2.671875 C 14.193914 2.6869837 14.464466 2.7422376 14.691406 2.7929688 L 14.683594 2.7949219 C 13.381627 3.041014 12.108312 3.4630611 10.822266 3.828125 C 10.653524 3.8736153 10.475509 3.8879605 10.308594 3.9335938 L 10.302734 3.9355469 L 10.296875 3.9375 C 10.198301 3.9779525 9.9250134 4.0601146 9.6992188 4.1269531 C 9.3448575 4.2526331 8.9579306 4.2643471 8.6132812 4.4179688 C 8.4229022 4.4998017 7.9893956 4.4721209 7.59375 4.4003906 C 7.3512727 4.3564296 7.2290985 4.3196795 7.0625 4.2773438 C 8.9721397 3.3951032 11.096086 3.0423684 13.173828 2.6738281 C 13.465103 2.6814408 13.780015 2.665975 14.070312 2.671875 z M 15.582031 2.7578125 C 16.445291 2.8236706 17.295655 2.9784424 18.007812 3.4785156 L 18.009766 3.4804688 L 18.011719 3.4824219 C 19.200285 4.2319897 20.470323 4.9404407 21.341797 6.0273438 C 21.964743 7.0941107 22.369219 8.3546479 22.056641 9.5644531 C 21.985687 9.7301497 21.969854 9.9346652 21.964844 10.150391 C 21.95967 10.373184 21.966485 10.607629 21.951172 10.802734 C 21.935858 10.99784 21.893681 11.147139 21.830078 11.208984 C 21.798277 11.239907 21.762635 11.255733 21.701172 11.257812 C 21.651957 11.259481 21.57238 11.236943 21.488281 11.207031 C 21.400128 10.940162 21.414252 10.566629 21.464844 10.154297 C 21.517501 9.7251243 21.595405 9.2679742 21.574219 8.8632812 C 21.717502 8.278329 21.600732 7.7473637 21.367188 7.2675781 C 21.129677 6.7796465 20.778038 6.3386348 20.458984 5.9179688 L 20.457031 5.9179688 L 20.457031 5.9160156 C 19.791591 5.0722939 19.206023 4.1307257 18.152344 3.7460938 C 17.331512 3.3380835 16.460587 3.034519 15.582031 2.7578125 z M 15.582031 3.0449219 C 16.413016 3.3311988 17.460312 3.7742069 18.109375 4.1660156 C 17.154153 4.2625065 16.239253 4.5792951 15.296875 4.7792969 C 14.962988 4.8521958 14.616287 4.8690848 14.285156 4.9453125 L 14.279297 4.9453125 L 14.275391 4.9472656 C 13.977047 5.053297 13.599677 5.1375483 13.236328 5.2285156 C 12.871944 5.3416579 12.478548 5.3379081 12.121094 5.4707031 L 12.101562 5.4785156 L 12.085938 5.4921875 C 11.864985 5.7060787 11.664385 5.7576833 11.443359 5.7304688 C 11.222333 5.7032542 10.979673 5.5845313 10.724609 5.4316406 C 10.222467 5.1306448 9.6718288 4.701664 9.0410156 4.6953125 C 8.9654739 4.6727456 8.9398407 4.6536961 8.9238281 4.6425781 C 8.9411149 4.6267895 8.9665035 4.6044682 9.0175781 4.578125 C 9.0800806 4.5458875 9.1614493 4.5124466 9.2539062 4.4785156 C 9.4301611 4.4138316 9.5902509 4.3664146 9.7871094 4.3085938 C 10.128281 4.1880543 10.489047 4.127233 10.837891 4.0273438 C 12.404073 3.6047463 14.028396 3.1755219 15.582031 3.0449219 z M 18.578125 4.4414062 C 19.319612 4.7521289 19.751256 5.6619351 20.328125 6.3125 C 20.483207 6.5784603 20.793565 6.9080972 20.923828 7.1464844 C 20.957101 7.2073751 20.976868 7.2603282 20.982422 7.296875 C 20.987976 7.3334218 20.983529 7.3460874 20.972656 7.359375 C 20.961783 7.3726626 20.93177 7.3949176 20.863281 7.4082031 C 20.794792 7.4214887 20.691811 7.4250859 20.552734 7.4140625 L 20.541016 7.4121094 L 20.527344 7.4160156 C 18.362831 7.7957396 16.203428 8.3861814 14.261719 9.4609375 C 13.702021 8.2103098 12.915059 7.028949 11.871094 6.1367188 C 12.104335 5.8468552 12.470773 5.6533488 12.914062 5.5214844 C 13.045822 5.4822914 13.175868 5.4479368 13.3125 5.4140625 C 13.972426 5.2096853 14.65684 5.1185486 15.333984 4.9746094 C 16.409529 4.7399649 17.48607 4.4860534 18.578125 4.4414062 z M 6.2617188 4.5996094 L 6.2636719 4.5996094 C 8.7067395 4.664955 11.322042 5.5271914 12.783203 7.578125 C 13.561981 8.7231368 14.379496 9.9657323 14.371094 11.365234 C 14.351356 12.107239 14.527312 12.932335 14.353516 13.560547 L 14.347656 13.582031 L 14.351562 13.603516 C 14.365267 13.690964 14.353021 13.739912 14.332031 13.775391 C 14.311042 13.81087 14.274001 13.839877 14.21875 13.865234 C 14.108247 13.915949 13.932022 13.939692 13.769531 13.998047 L 13.798828 13.992188 C 13.699831 13.996847 13.601159 14.03408 13.498047 14.074219 C 13.394935 14.114358 13.290633 14.159695 13.208984 14.183594 C 13.16816 14.195543 13.132978 14.200562 13.111328 14.201172 C 13.089678 14.201782 13.087048 14.197251 13.091797 14.201172 C 13.096546 14.205093 13.092687 14.211086 13.091797 14.1875 C 13.090907 14.163914 13.098463 14.118595 13.119141 14.052734 L 13.123047 14.041016 L 13.123047 14.027344 C 13.182836 13.068621 13.257575 12.107422 13.308594 11.146484 C 13.31042 11.149927 13.316436 11.147045 13.318359 11.150391 C 13.368382 11.21245 13.380391 11.296827 13.445312 11.341797 C 13.597055 11.446903 13.783942 11.51553 13.943359 11.427734 C 14.023068 11.383837 14.079418 11.295783 14.097656 11.189453 C 14.115895 11.083123 14.104411 10.954038 14.060547 10.791016 L 14.058594 10.783203 L 14.054688 10.775391 C 13.975174 10.603005 13.815316 10.446274 13.601562 10.427734 L 13.582031 10.425781 L 13.5625 10.431641 C 13.417237 10.476706 13.311028 10.53859 13.240234 10.619141 C 13.211164 10.652218 13.218636 10.69456 13.203125 10.732422 C 12.243531 7.8485975 9.7235018 5.4213845 6.6132812 5.140625 C 6.6116429 5.1402556 6.6090642 5.1409915 6.6074219 5.140625 C 6.1487651 5.0382772 5.5355235 5.0479953 4.9726562 5.0898438 C 4.8309701 5.1003779 4.7777122 5.1135954 4.6464844 5.1269531 C 5.1783966 4.9104501 5.6989314 4.63599 6.2617188 4.5996094 z M 5.4863281 5.5449219 L 5.4882812 5.5449219 L 5.4902344 5.5449219 C 7.9706892 5.4895017 10.433268 6.7380772 11.769531 8.8398438 C 12.233527 9.6186336 12.788703 10.434846 12.824219 11.3125 C 12.735895 12.358896 12.718051 13.432246 12.585938 14.445312 L 12.587891 14.4375 C 12.560736 14.557545 12.576028 14.669298 12.585938 14.771484 C 12.59584 14.873671 12.601976 14.964264 12.576172 15.050781 L 12.572266 15.0625 L 12.138672 21.541016 C 9.3885243 21.056402 6.5977866 20.642833 4.0332031 19.539062 L 4.0292969 19.537109 L 4.0273438 19.537109 C 3.9559785 19.512045 3.8820582 19.49532 3.8105469 19.470703 C 3.9729551 19.493417 4.1536452 19.485633 4.2578125 19.345703 C 4.3162748 19.26717 4.3410708 19.159807 4.3242188 19.039062 C 4.3073667 18.918318 4.2527336 18.781484 4.1523438 18.621094 L 4.1289062 18.583984 L 3.9042969 18.542969 L 3.8730469 18.558594 C 3.6980845 18.653178 3.5780801 18.746535 3.4980469 18.841797 C 3.4180136 18.937059 3.3789627 19.039705 3.3867188 19.136719 C 3.3944743 19.233733 3.4474862 19.31579 3.515625 19.373047 C 3.5277325 19.383221 3.5455537 19.383638 3.5585938 19.392578 C 2.6867941 19.0993 1.8085809 18.825022 0.921875 18.583984 L 0.91601562 18.455078 C 0.98159075 18.506142 1.0581099 18.543631 1.140625 18.5625 C 1.3172329 18.602886 1.5256907 18.577008 1.6425781 18.419922 C 1.7010218 18.341379 1.7258652 18.234009 1.7089844 18.113281 C 1.6921036 17.992554 1.6375397 17.855643 1.5371094 17.695312 L 1.5136719 17.658203 L 1.2890625 17.617188 L 1.2578125 17.632812 C 1.0854776 17.72605 0.96675451 17.818308 0.88671875 17.912109 L 0.75585938 15.416016 C 0.81311886 15.452716 0.87200502 15.488465 0.93945312 15.503906 C 1.1160318 15.54433 1.3245341 15.520344 1.4414062 15.363281 C 1.4998424 15.28475 1.5247135 15.177352 1.5078125 15.056641 C 1.4909115 14.935929 1.4363849 14.798997 1.3359375 14.638672 L 1.3125 14.601562 L 1.0878906 14.558594 L 1.0566406 14.576172 C 0.9024194 14.659547 0.8039381 14.742615 0.72460938 14.826172 L 0.61523438 12.769531 C 0.66737435 12.799711 0.71769779 12.833993 0.77734375 12.847656 C 0.95397059 12.888115 1.1643439 12.864108 1.28125 12.707031 C 1.339703 12.628493 1.364571 12.52112 1.3476562 12.400391 C 1.3307415 12.279661 1.2762729 12.142776 1.1757812 11.982422 L 1.1523438 11.945312 L 0.92773438 11.902344 L 0.89648438 11.919922 C 0.75148927 11.998309 0.66235429 12.075882 0.58398438 12.154297 L 0.453125 9.6816406 C 0.47642957 9.7372256 0.49263539 9.7985673 0.53710938 9.8359375 C 0.60526071 9.8932031 0.68903201 9.93092 0.77734375 9.9511719 C 0.95396723 9.9916756 1.1643096 9.967593 1.28125 9.8105469 C 1.2876057 9.8020114 1.2835175 9.7865464 1.2890625 9.7773438 C 1.4217984 12.434369 1.5662583 15.10699 1.6835938 17.744141 L 1.6855469 17.804688 L 1.7402344 17.830078 C 2.3297465 18.102404 3.3316785 18.263326 4.0273438 18.523438 L 4.0292969 18.523438 L 4.03125 18.525391 C 5.7204365 19.066515 7.4872231 19.180715 9.1464844 19.714844 L 9.1738281 19.724609 L 9.1992188 19.716797 C 9.2839468 19.697652 9.4596389 19.734718 9.65625 19.808594 C 9.8528611 19.88247 10.073943 19.987066 10.283203 20.070312 C 10.492463 20.15356 10.68557 20.220092 10.859375 20.205078 C 10.946278 20.197571 11.034007 20.163958 11.091797 20.091797 C 11.149587 20.019635 11.172789 19.921017 11.171875 19.804688 C 11.300713 16.879765 11.43603 13.95421 11.560547 11.029297 L 11.5625 11.013672 L 11.558594 11 C 11.111734 9.2738231 9.7696987 7.874803 8.1210938 7.2714844 C 8.1613084 7.2666947 8.2003316 7.2552707 8.2382812 7.234375 C 8.3179939 7.1904839 8.3724433 7.1024237 8.390625 6.9960938 C 8.4088067 6.8897638 8.3974775 6.7606692 8.3535156 6.5976562 L 8.3515625 6.5898438 L 8.3476562 6.5820312 C 8.2682459 6.4100499 8.1087546 6.2524486 7.8945312 6.234375 L 7.875 6.2324219 L 7.8574219 6.2382812 C 7.712105 6.2833049 7.6059813 6.3452506 7.5351562 6.4257812 C 7.4643313 6.5063119 7.4342474 6.6059193 7.4414062 6.6992188 C 7.4486226 6.7932677 7.5373116 6.8498239 7.5917969 6.9257812 C 7.5940786 6.9315538 7.5891591 6.9397378 7.5917969 6.9453125 C 7.5957672 6.9537035 7.6087662 6.949183 7.6132812 6.9570312 C 7.6631835 7.0187 7.6756251 7.1036904 7.7402344 7.1484375 C 7.7619489 7.1634766 7.7875792 7.1684473 7.8105469 7.1816406 C 7.3792392 7.0527403 6.9357074 6.9611851 6.4785156 6.9492188 L 6.4746094 6.9492188 C 6.3221578 6.9394275 6.1683939 6.9346839 6.015625 6.9355469 C 4.2761572 6.9494548 2.5688475 7.6533942 1.2773438 8.8046875 L 1.2402344 8.8359375 L 1.2441406 8.8847656 C 1.250929 9.0239649 1.2587475 9.1634279 1.265625 9.3027344 C 1.2369798 9.2311682 1.2279573 9.1692139 1.1757812 9.0859375 L 1.1523438 9.0488281 L 0.92773438 9.0058594 L 0.89648438 9.0234375 C 0.72145406 9.1179872 0.59959805 9.2113913 0.51953125 9.3066406 C 0.46504329 9.3714608 0.45798828 9.438403 0.44335938 9.5058594 L 0.37109375 8.1367188 C 1.3988888 6.3910866 3.5042845 5.4994434 5.4863281 5.5449219 z M 5.2734375 5.7070312 L 5.2421875 5.7226562 C 5.0672073 5.8172709 4.9452669 5.9105878 4.8652344 6.0058594 C 4.7852018 6.101131 4.7461328 6.2037656 4.7539062 6.3007812 C 4.7616797 6.397797 4.8146554 6.4798718 4.8828125 6.5371094 C 4.9509696 6.5943469 5.0347405 6.632135 5.1230469 6.6523438 C 5.2996596 6.6927613 5.5100775 6.6668626 5.6269531 6.5097656 C 5.6853909 6.4312171 5.7102744 6.3238564 5.6933594 6.203125 C 5.6764444 6.0823936 5.6200135 5.9455056 5.5195312 5.7851562 L 5.4980469 5.7480469 L 5.2734375 5.7070312 z M 5.2734375 6.0332031 C 5.331107 6.0706394 5.3802147 6.1088598 5.3964844 6.1367188 C 5.4163978 6.170817 5.4157694 6.1927582 5.4082031 6.2207031 C 5.3930706 6.2765929 5.3154893 6.3525656 5.2285156 6.3886719 C 5.1850288 6.406725 5.1405424 6.4152267 5.1113281 6.4140625 C 5.0821139 6.4128983 5.0736652 6.4066614 5.0703125 6.4023438 C 5.0669598 6.3980261 5.0576173 6.381584 5.0683594 6.328125 C 5.0785808 6.2772572 5.1125512 6.1957073 5.1738281 6.09375 L 5.2402344 6.0429688 L 5.2734375 6.0332031 z M 2.3359375 6.5917969 L 2.3046875 6.609375 C 2.129733 6.7039876 2.0077616 6.7973134 1.9277344 6.8925781 C 1.8477072 6.9878429 1.8086479 7.0885381 1.8164062 7.1855469 C 1.8241646 7.2825557 1.8771702 7.3646346 1.9453125 7.421875 C 2.0134548 7.4791154 2.0972523 7.5168947 2.1855469 7.5371094 C 2.3621361 7.5775388 2.5725242 7.5535057 2.6894531 7.3964844 C 2.7479176 7.3179737 2.7727157 7.2105469 2.7558594 7.0898438 C 2.739003 6.9691406 2.6843786 6.8321781 2.5839844 6.671875 L 2.5605469 6.6347656 L 2.3359375 6.5917969 z M 7.890625 6.59375 C 7.9723659 6.6632498 8.0548487 6.7343099 8.0898438 6.7832031 C 8.137501 6.8497875 8.1446389 6.8916905 8.1425781 6.9082031 C 8.1405173 6.9247158 8.1365704 6.9319826 8.1113281 6.9453125 C 8.0860858 6.9586424 8.0406397 6.9683232 7.9921875 6.9667969 C 7.8952831 6.9637441 7.7969855 6.9132699 7.7714844 6.859375 C 7.7587338 6.8324275 7.7540174 6.8002742 7.7753906 6.7441406 C 7.78963 6.706743 7.8445095 6.6483564 7.890625 6.59375 z M 2.3359375 6.9199219 C 2.3934764 6.9572831 2.4427312 6.9936714 2.4589844 7.0214844 C 2.4789059 7.0555747 2.4802215 7.0775181 2.4726562 7.1054688 C 2.4575267 7.16137 2.3780214 7.2392573 2.2910156 7.2753906 C 2.2475127 7.2934573 2.2030613 7.3019421 2.1738281 7.3007812 C 2.144595 7.2996205 2.1361811 7.2914456 2.1328125 7.2871094 C 2.1294439 7.2827731 2.1201277 7.2663829 2.1308594 7.2128906 C 2.1410002 7.1623436 2.1759041 7.0814483 2.2363281 6.9804688 L 2.3027344 6.9296875 L 2.3359375 6.9199219 z M 23.097656 7.0742188 L 23.066406 7.0917969 C 22.891421 7.1863462 22.7695 7.2797668 22.689453 7.375 C 22.609406 7.4702332 22.570368 7.5729157 22.578125 7.6699219 C 22.585882 7.7669281 22.638888 7.847057 22.707031 7.9042969 C 22.775174 7.9615368 22.85897 7.9993078 22.947266 8.0195312 C 23.123857 8.0599799 23.334265 8.035955 23.451172 7.8789062 C 23.509625 7.8003819 23.53447 7.6929819 23.517578 7.5722656 C 23.500686 7.4515493 23.44615 7.3146373 23.345703 7.1542969 L 23.322266 7.1171875 L 23.097656 7.0742188 z M 6.0175781 7.2753906 L 6.0195312 7.2753906 C 8.1334854 7.1958948 10.240103 8.4666467 11.013672 10.458984 L 11.015625 10.464844 L 11.017578 10.46875 C 11.262966 10.951426 11.146472 11.525391 11.101562 12.082031 C 11.02559 12.051553 10.946113 12.029293 10.859375 12.017578 C 10.646533 11.988832 10.408055 11.974107 10.314453 11.923828 L 10.302734 11.916016 L 2.578125 10.28125 L 2.5507812 9.2089844 C 3.1445711 8.3790234 3.8644224 7.5262266 4.8183594 7.3964844 L 4.8203125 7.3964844 L 4.8242188 7.3964844 C 5.2169912 7.319059 5.6174852 7.2775429 6.0175781 7.2753906 z M 23.099609 7.4023438 C 23.156909 7.4396646 23.204497 7.4761245 23.220703 7.5039062 C 23.240602 7.5380185 23.241955 7.5618799 23.234375 7.5898438 C 23.219216 7.6457715 23.139712 7.7217231 23.052734 7.7578125 C 23.009246 7.7758572 22.966712 7.7843767 22.9375 7.7832031 C 22.908288 7.7820295 22.899857 7.7738768 22.896484 7.7695312 C 22.893112 7.7651857 22.881837 7.7488012 22.892578 7.6953125 C 22.9028 7.6444093 22.938712 7.5629418 23 7.4609375 L 23.064453 7.4121094 L 23.099609 7.4023438 z M 21.162109 7.6523438 C 21.352381 8.5638961 21.141481 9.5525134 21.105469 10.525391 L 21.105469 10.539062 L 21.107422 10.552734 C 21.182211 10.888125 21.113298 11.063202 20.964844 11.193359 C 20.816389 11.323517 20.564831 11.400618 20.277344 11.455078 L 20.275391 11.457031 L 20.273438 11.457031 C 20.068567 11.503492 19.792559 11.633312 19.634766 11.658203 C 19.595317 11.664426 19.566792 11.663212 19.554688 11.660156 C 19.542583 11.657101 19.549796 11.662295 19.548828 11.660156 C 19.546893 11.655878 19.542309 11.563437 19.623047 11.388672 L 19.615234 11.402344 C 19.674017 11.313636 19.682652 11.204402 19.644531 11.125 C 19.60641 11.045598 19.540888 10.995339 19.474609 10.949219 C 19.408331 10.903098 19.338219 10.863404 19.279297 10.826172 C 19.220374 10.78894 19.174212 10.750692 19.160156 10.730469 L 19.148438 10.710938 L 19.126953 10.699219 C 18.991934 10.624896 18.859814 10.497699 18.716797 10.373047 C 18.57378 10.248395 18.417905 10.125677 18.21875 10.083984 L 18.193359 10.078125 L 18.167969 10.085938 C 17.386222 10.323631 16.547502 10.465218 15.769531 10.763672 L 15.726562 10.779297 L 15.710938 10.824219 C 15.477232 11.508338 15.465436 12.270211 15.542969 12.984375 C 15.244416 13.074694 14.956708 13.205784 14.824219 13.214844 C 14.788115 13.217313 14.766861 13.21096 14.755859 13.205078 C 14.744858 13.199197 14.738505 13.193764 14.728516 13.166016 C 14.708537 13.110518 14.704461 12.967585 14.753906 12.732422 L 14.755859 12.71875 L 14.755859 12.705078 C 14.694792 11.75341 14.785813 10.714324 14.382812 9.7773438 C 16.464658 8.6102275 18.812574 8.0461282 21.162109 7.6523438 z M 10.570312 7.8828125 L 10.552734 7.8886719 C 10.407484 7.9336273 10.301274 7.995674 10.230469 8.0761719 C 10.159664 8.1566697 10.129568 8.2563316 10.136719 8.3496094 C 10.143905 8.4433569 10.232919 8.4984244 10.287109 8.5742188 C 10.28958 8.5805904 10.284208 8.5895699 10.287109 8.5957031 C 10.291079 8.6040942 10.304079 8.5995736 10.308594 8.6074219 C 10.358357 8.6687805 10.371226 8.7522955 10.435547 8.796875 C 10.587257 8.9020233 10.774148 8.9705213 10.933594 8.8828125 C 11.013316 8.8389581 11.069647 8.7527925 11.087891 8.6464844 C 11.106134 8.5401763 11.09268 8.4110553 11.048828 8.2480469 L 11.046875 8.2402344 L 11.042969 8.2324219 C 10.963517 8.060366 10.804261 7.9026368 10.589844 7.8847656 L 10.570312 7.8828125 z M 10.585938 8.2421875 C 10.668831 8.3124422 10.751813 8.3823217 10.787109 8.4316406 C 10.834759 8.4982205 10.839953 8.5400914 10.837891 8.5566406 C 10.835828 8.5731898 10.831872 8.5804071 10.806641 8.59375 C 10.781409 8.6070929 10.735927 8.6167405 10.6875 8.6152344 C 10.590647 8.612222 10.494253 8.563672 10.46875 8.5097656 C 10.455998 8.4828124 10.449335 8.450707 10.470703 8.3945312 C 10.485056 8.3567983 10.539153 8.2974063 10.585938 8.2421875 z M 0.92773438 9.3339844 C 0.98526106 9.371393 1.0345279 9.407712 1.0507812 9.4355469 C 1.070703 9.4696641 1.0720154 9.4935597 1.0644531 9.5214844 C 1.0493287 9.5773337 0.9697866 9.6533927 0.8828125 9.6894531 C 0.83932545 9.7074833 0.79680847 9.714067 0.76757812 9.7128906 C 0.73834779 9.7117142 0.72993307 9.7055108 0.7265625 9.7011719 C 0.72319193 9.6968329 0.71192951 9.6803744 0.72265625 9.6269531 C 0.73279238 9.5764731 0.76771649 9.4953896 0.828125 9.3945312 L 0.89453125 9.34375 L 0.92773438 9.3339844 z M 22.896484 9.453125 C 22.955706 9.491161 23.003026 9.5283847 23.019531 9.5566406 C 23.039451 9.5907412 23.040764 9.612701 23.033203 9.640625 C 23.018081 9.696473 22.938541 9.7725172 22.851562 9.8085938 C 22.808073 9.8266316 22.765558 9.8351574 22.736328 9.8339844 C 22.707098 9.8328113 22.698685 9.8266071 22.695312 9.8222656 C 22.69194 9.8179241 22.68068 9.80149 22.691406 9.7480469 C 22.701614 9.697187 22.737558 9.6156228 22.798828 9.5136719 L 22.863281 9.4628906 L 22.896484 9.453125 z M 18.183594 10.578125 C 18.306431 10.685958 18.466066 10.795153 18.613281 10.900391 C 18.695508 10.959171 18.771178 11.017527 18.824219 11.066406 C 18.82971 11.071467 18.827143 11.07123 18.832031 11.076172 L 16.796875 11.541016 C 16.755475 11.480364 16.713932 11.419919 16.658203 11.361328 C 16.581277 11.28045 16.499137 11.199765 16.445312 11.132812 C 16.4184 11.099338 16.399411 11.070206 16.390625 11.050781 C 16.381839 11.031357 16.385803 11.028143 16.382812 11.037109 C 16.379823 11.046076 16.370878 11.047498 16.392578 11.039062 C 16.414278 11.030629 16.461153 11.02014 16.53125 11.017578 L 16.542969 11.017578 L 18.183594 10.578125 z M 2.5859375 10.628906 C 2.6727433 10.673311 2.7713838 10.693039 2.875 10.707031 C 3.0878048 10.735769 3.324247 10.750458 3.4179688 10.800781 L 3.4316406 10.808594 L 11.121094 12.4375 C 11.112458 12.586715 11.137599 12.715321 11.142578 12.865234 C 11.097802 13.355952 11.118751 13.938744 11.042969 14.332031 C 8.2569361 13.567467 5.4330962 12.955661 2.6269531 12.291016 L 2.5859375 10.628906 z M 13.597656 10.787109 C 13.679363 10.856641 13.761898 10.927658 13.796875 10.976562 C 13.844508 11.043166 13.851672 11.085066 13.849609 11.101562 C 13.847547 11.118063 13.841632 11.125366 13.816406 11.138672 C 13.791181 11.151977 13.747656 11.161709 13.699219 11.160156 C 13.602345 11.15705 13.504003 11.106641 13.478516 11.052734 C 13.465772 11.025781 13.461045 10.995552 13.482422 10.939453 C 13.49678 10.901772 13.55086 10.842247 13.597656 10.787109 z M 11.980469 10.939453 L 11.960938 10.945312 C 11.815663 10.990368 11.70947 11.052271 11.638672 11.132812 C 11.567874 11.213356 11.537762 11.314908 11.544922 11.408203 C 11.552118 11.501968 11.641103 11.557023 11.695312 11.632812 C 11.697591 11.638587 11.69268 11.646767 11.695312 11.652344 C 11.699003 11.660152 11.710683 11.656728 11.714844 11.664062 C 11.76495 11.726331 11.778646 11.81038 11.84375 11.855469 C 11.995505 11.96057 12.182374 12.029188 12.341797 11.941406 C 12.421508 11.897515 12.477871 11.809451 12.496094 11.703125 C 12.514316 11.596799 12.500926 11.46965 12.457031 11.306641 L 12.455078 11.296875 L 12.453125 11.289062 C 12.37351 11.116741 12.213512 10.960229 12 10.941406 L 11.980469 10.939453 z M 11.994141 11.300781 C 12.076516 11.370812 12.16017 11.441051 12.195312 11.490234 C 12.242935 11.55687 12.248163 11.598719 12.246094 11.615234 C 12.244025 11.63175 12.24007 11.639045 12.214844 11.652344 C 12.189618 11.665642 12.144137 11.675398 12.095703 11.673828 C 11.998835 11.670688 11.902436 11.620356 11.876953 11.566406 C 11.864212 11.539431 11.857512 11.509236 11.878906 11.453125 C 11.893277 11.415435 11.947328 11.355916 11.994141 11.300781 z M 23.183594 11.345703 L 23.072266 12.472656 C 23.071404 12.461087 23.075872 12.451259 23.074219 12.439453 C 23.057313 12.318719 23.002827 12.18377 22.902344 12.023438 L 22.878906 11.986328 L 22.654297 11.943359 L 22.623047 11.960938 C 22.448067 12.05558 22.326118 12.148855 22.246094 12.244141 C 22.16607 12.339426 22.128927 12.440091 22.136719 12.537109 C 22.144511 12.634128 22.19745 12.716207 22.265625 12.773438 C 22.3338 12.830659 22.417537 12.868477 22.505859 12.888672 C 22.682503 12.929062 22.890912 12.905144 23.007812 12.748047 C 23.031638 12.716029 23.044531 12.675696 23.056641 12.634766 L 22.921875 14.013672 C 22.896535 13.910011 22.86341 13.802992 22.78125 13.671875 L 22.757812 13.634766 L 22.533203 13.59375 L 22.501953 13.609375 C 22.326983 13.703953 22.206986 13.797323 22.126953 13.892578 C 22.04692 13.987833 22.007858 14.090488 22.015625 14.1875 C 22.023392 14.284512 22.076387 14.366579 22.144531 14.423828 C 22.212675 14.481077 22.29647 14.516877 22.384766 14.537109 C 22.559909 14.577242 22.767329 14.552039 22.884766 14.398438 L 22.675781 16.517578 L 12.625 21.427734 L 13.078125 14.708984 L 14.427734 14.298828 C 14.477855 15.136561 14.374405 16.04441 14.375 16.796875 C 14.360999 17.543383 14.138551 18.308567 14.248047 18.951172 L 14.269531 19.078125 L 21.732422 15.742188 L 21.738281 15.685547 C 21.8841 14.391045 21.983195 13.063053 22.166016 11.798828 C 22.515401 11.671878 22.847634 11.48941 23.183594 11.345703 z M 16.080078 11.505859 C 16.158126 11.58499 16.255151 11.669175 16.294922 11.744141 C 16.365718 11.877587 16.377524 12.005496 16.246094 12.228516 L 16.236328 12.246094 L 16.234375 12.265625 C 16.121656 13.066605 16.483085 13.835015 17.082031 14.371094 C 16.587074 14.164003 16.24225 13.820826 16.091797 13.328125 C 15.920826 12.768233 15.978541 12.101612 16.080078 11.505859 z M 19.105469 11.505859 C 19.069662 12.04256 19.076913 12.614876 18.990234 13.142578 C 18.899716 13.693655 18.687315 14.174595 18.246094 14.537109 C 17.161956 14.328733 16.491362 13.162615 16.753906 12.105469 C 16.846588 12.021595 16.997154 11.968011 17.185547 11.933594 C 17.381506 11.897795 17.599667 11.876337 17.791016 11.806641 L 17.804688 11.802734 L 19.105469 11.505859 z M 21.347656 11.667969 C 21.553576 11.674651 21.730529 11.703445 21.794922 11.783203 C 21.833029 11.830404 21.854737 11.891593 21.851562 11.982422 C 21.848388 12.073251 21.81732 12.193032 21.75 12.339844 L 21.742188 12.353516 L 21.740234 12.371094 C 21.634939 13.358815 21.532479 14.345818 21.431641 15.333984 C 21.210393 15.224426 21.030255 15.102927 20.984375 14.914062 C 20.927127 14.678408 20.974306 14.369802 21.072266 14.03125 L 21.076172 14.023438 L 21.076172 14.015625 C 21.175596 13.233576 21.247126 12.434257 21.347656 11.667969 z M 17.904297 12.011719 C 17.649316 12.014961 17.493144 12.11064 17.404297 12.236328 C 17.314147 12.363859 17.45259 12.722041 17.582031 12.847656 C 17.497356 13.137819 17.514581 13.261998 17.392578 13.496094 L 17.390625 13.498047 C 17.341136 13.597984 17.329225 13.712659 17.376953 13.814453 C 17.400817 13.86535 17.449104 13.915593 17.513672 13.931641 C 17.57824 13.947689 17.645485 13.9306 17.710938 13.894531 L 17.693359 13.902344 C 17.81013 13.865028 17.965471 13.860043 18.125 13.847656 C 18.284529 13.83527 18.452004 13.815095 18.595703 13.720703 L 18.652344 13.685547 L 18.638672 13.619141 C 18.596527 13.388154 18.451667 13.197615 18.365234 13.021484 C 18.322018 12.933419 18.228877 12.852103 18.224609 12.775391 C 18.220342 12.698678 18.300585 12.624739 18.361328 12.537109 C 18.445151 12.230779 18.329416 11.973642 17.904297 12.011719 z M 20.962891 12.029297 C 20.893207 12.380691 20.903654 12.771248 20.878906 13.105469 C 20.864331 13.302309 20.827738 13.473131 20.748047 13.595703 C 20.668356 13.718275 20.549032 13.801963 20.328125 13.835938 L 20.316406 13.837891 L 18.935547 14.433594 C 19.156408 14.150644 19.317885 13.826482 19.359375 13.488281 C 19.385985 13.271371 19.411599 13.066106 19.46875 12.904297 C 19.525901 12.742487 19.605027 12.628272 19.755859 12.558594 L 20.962891 12.029297 z M 0.92773438 12.230469 C 0.98524744 12.267886 1.0345303 12.304177 1.0507812 12.332031 C 1.0707 12.366172 1.0720282 12.389996 1.0644531 12.417969 C 1.0493029 12.473915 0.96977962 12.549848 0.8828125 12.585938 C 0.83932894 12.603979 0.79482885 12.612502 0.765625 12.611328 C 0.73642115 12.610154 0.72992867 12.601995 0.7265625 12.597656 C 0.72319633 12.593317 0.71190211 12.578884 0.72265625 12.525391 C 0.73282213 12.474823 0.76762971 12.39202 0.828125 12.291016 L 0.89453125 12.240234 L 0.92773438 12.230469 z M 22.65625 12.269531 C 22.713964 12.307009 22.763009 12.345156 22.779297 12.373047 C 22.799233 12.407184 22.798586 12.429074 22.791016 12.457031 C 22.775875 12.512946 22.698354 12.590849 22.611328 12.626953 C 22.567815 12.645005 22.523382 12.651561 22.494141 12.650391 C 22.464899 12.64922 22.456485 12.642999 22.453125 12.638672 C 22.449765 12.634344 22.440417 12.617917 22.451172 12.564453 C 22.461335 12.513933 22.496163 12.432957 22.556641 12.332031 L 22.623047 12.279297 L 22.65625 12.269531 z M 13.722656 12.425781 L 13.691406 12.443359 C 13.51643 12.537876 13.394494 12.631348 13.314453 12.726562 C 13.234413 12.821784 13.195353 12.92253 13.203125 13.019531 C 13.210897 13.116533 13.263885 13.198623 13.332031 13.255859 C 13.400178 13.313096 13.48397 13.350862 13.572266 13.371094 C 13.748857 13.411556 13.95927 13.387509 14.076172 13.230469 C 14.134623 13.151949 14.159489 13.044536 14.142578 12.923828 C 14.125667 12.803121 14.071174 12.666193 13.970703 12.505859 L 13.947266 12.46875 L 13.722656 12.425781 z M 2.4082031 12.589844 C 5.2962705 13.275437 8.2018193 13.893468 11.056641 14.685547 C 11.059859 14.696801 11.063564 14.703292 11.066406 14.722656 C 11.075952 14.787683 11.077225 14.883857 11.0625 14.962891 C 11.047775 15.041924 11.01331 15.09344 10.998047 15.101562 C 10.990415 15.105628 10.984522 15.108785 10.958984 15.101562 C 10.933447 15.094349 10.892024 15.072829 10.837891 15.027344 L 10.818359 15.011719 L 2.5761719 13.056641 C 2.4897724 13.008609 2.3731598 12.889261 2.3320312 12.787109 C 2.311155 12.735259 2.3078274 12.693632 2.3183594 12.664062 C 2.3272021 12.63924 2.359564 12.614167 2.4082031 12.589844 z M 13.724609 12.753906 C 13.781932 12.791222 13.829488 12.827689 13.845703 12.855469 C 13.865613 12.889578 13.866949 12.913449 13.859375 12.941406 C 13.844227 12.997322 13.764722 13.073276 13.677734 13.109375 C 13.634241 13.127425 13.591717 13.135937 13.5625 13.134766 C 13.533283 13.133595 13.524852 13.125433 13.521484 13.121094 C 13.518117 13.116755 13.506832 13.100365 13.517578 13.046875 C 13.527805 12.995971 13.563697 12.914512 13.625 12.8125 L 13.689453 12.763672 L 13.724609 12.753906 z M 2.7285156 13.441406 L 11.027344 15.410156 L 10.939453 17.380859 C 8.2486651 16.695096 5.5617375 15.98886 2.859375 15.341797 L 2.7285156 13.441406 z M 11.939453 13.474609 L 11.919922 13.480469 C 11.774667 13.525558 11.668436 13.587406 11.597656 13.667969 C 11.526876 13.748532 11.498692 13.850062 11.505859 13.943359 C 11.513005 14.036374 11.600793 14.090669 11.654297 14.166016 C 11.656767 14.172386 11.651396 14.181368 11.654297 14.1875 C 11.658266 14.195889 11.671268 14.191373 11.675781 14.199219 C 11.725817 14.261274 11.737802 14.345658 11.802734 14.390625 C 11.954498 14.495724 12.141343 14.564305 12.300781 14.476562 C 12.3805 14.432697 12.436826 14.34459 12.455078 14.238281 C 12.47333 14.131972 12.46183 14.004772 12.417969 13.841797 L 12.416016 13.832031 L 12.412109 13.824219 C 12.332495 13.651898 12.172946 13.495108 11.958984 13.476562 L 11.939453 13.474609 z M 15.744141 13.757812 C 15.793588 13.971986 15.874518 14.174093 16.029297 14.324219 C 16.217121 14.506396 16.455949 14.645722 16.691406 14.757812 C 16.926864 14.869912 17.159678 14.955098 17.339844 15.019531 C 17.39122 15.037905 17.425772 15.051179 17.466797 15.066406 L 14.734375 16.246094 C 14.820993 15.858605 14.775615 15.41937 14.740234 15.017578 C 14.719872 14.786341 14.719398 14.573204 14.769531 14.410156 C 14.819665 14.247108 14.909748 14.131901 15.103516 14.056641 L 15.105469 14.054688 L 15.744141 13.757812 z M 11.955078 13.835938 C 12.036762 13.905373 12.119329 13.976534 12.154297 14.025391 C 12.201917 14.091925 12.207139 14.133864 12.205078 14.150391 C 12.203017 14.166917 12.199052 14.17416 12.173828 14.1875 C 12.148604 14.20084 12.105047 14.210483 12.056641 14.208984 C 11.959828 14.205986 11.861408 14.155406 11.835938 14.101562 C 11.823199 14.074644 11.81848 14.044429 11.839844 13.988281 C 11.854194 13.950567 11.908306 13.891133 11.955078 13.835938 z M 22.535156 13.919922 C 22.592819 13.957364 22.641939 13.995577 22.658203 14.023438 C 22.67811 14.057536 22.677493 14.079479 22.669922 14.107422 C 22.654779 14.163308 22.577219 14.239301 22.490234 14.275391 C 22.446742 14.293436 22.402267 14.301952 22.373047 14.300781 C 22.343827 14.29961 22.335395 14.293401 22.332031 14.289062 C 22.328668 14.284733 22.319335 14.268311 22.330078 14.214844 C 22.3403 14.163968 22.374266 14.08243 22.435547 13.980469 L 22.501953 13.929688 L 22.535156 13.919922 z M 20.734375 14.029297 C 20.694047 14.439068 20.705168 14.824473 20.636719 15.068359 C 20.596701 15.210944 20.534034 15.316799 20.412109 15.402344 C 20.290185 15.487889 20.102076 15.55222 19.810547 15.582031 L 19.794922 15.583984 L 19.78125 15.589844 C 18.068633 16.310802 16.360697 17.039321 14.640625 17.738281 C 14.660498 17.443586 14.6532 17.13491 14.705078 16.896484 C 14.73613 16.753772 14.787642 16.637637 14.873047 16.550781 C 14.958451 16.463925 15.080018 16.400908 15.277344 16.376953 L 15.292969 16.375 L 15.304688 16.369141 C 16.34386 15.924657 17.398901 15.457165 18.427734 15.035156 L 18.429688 15.033203 L 18.431641 15.033203 C 19.18566 14.682651 19.965391 14.364828 20.734375 14.029297 z M 1.0898438 14.886719 C 1.1471785 14.92405 1.1947146 14.96049 1.2109375 14.988281 C 1.230857 15.022405 1.2321801 15.046263 1.2246094 15.074219 C 1.2094678 15.13013 1.1299567 15.206091 1.0429688 15.242188 C 0.99947429 15.260234 0.95695878 15.266797 0.92773438 15.265625 C 0.89850996 15.264453 0.89008803 15.258246 0.88671875 15.253906 C 0.88334947 15.249567 0.87402662 15.233154 0.88476562 15.179688 C 0.8949841 15.128806 0.92895768 15.047277 0.99023438 14.945312 L 1.0566406 14.896484 L 1.0898438 14.886719 z M 20.886719 15.490234 C 21.006964 15.529519 21.101493 15.568765 21.142578 15.597656 C 21.15853 15.608874 21.161639 15.61391 21.166016 15.619141 C 21.162885 15.620842 21.145142 15.647626 21.083984 15.679688 C 21.016021 15.71531 20.913817 15.75453 20.787109 15.792969 L 20.78125 15.794922 L 14.613281 18.550781 C 14.641792 18.383651 14.665005 18.215272 14.773438 18.105469 C 14.925033 17.951951 15.150121 17.836646 15.410156 17.740234 C 15.923397 17.549944 16.559691 17.435407 16.998047 17.130859 L 17.005859 17.126953 C 18.300536 16.583838 19.594016 16.037812 20.886719 15.490234 z M 2.8867188 15.699219 C 5.5718324 16.345279 8.2460033 17.043947 10.923828 17.726562 L 10.867188 19.023438 C 8.2391933 18.378948 5.6101695 17.722501 2.9824219 17.085938 L 2.8867188 15.699219 z M 22.050781 15.726562 L 22.019531 15.742188 C 21.844538 15.836752 21.724578 15.930154 21.644531 16.025391 C 21.564485 16.120627 21.525435 16.223307 21.533203 16.320312 C 21.540971 16.417319 21.593952 16.497464 21.662109 16.554688 C 21.730266 16.611911 21.814038 16.64972 21.902344 16.669922 C 22.078955 16.710326 22.287408 16.686385 22.404297 16.529297 C 22.462741 16.450753 22.48761 16.343387 22.470703 16.222656 C 22.453796 16.101925 22.399303 15.965037 22.298828 15.804688 L 22.275391 15.767578 L 22.050781 15.726562 z M 13.691406 15.744141 L 13.654297 15.767578 C 13.494248 15.868495 13.385936 15.968859 13.318359 16.070312 C 13.250782 16.171767 13.225532 16.278888 13.244141 16.375 C 13.255173 16.431984 13.329223 16.433351 13.361328 16.476562 C 13.362409 16.480947 13.352245 16.487846 13.353516 16.492188 C 13.377633 16.574594 13.438415 16.637045 13.505859 16.671875 C 13.53625 16.68757 13.570724 16.684076 13.603516 16.691406 C 13.618406 16.695852 13.621764 16.717304 13.636719 16.720703 C 13.72505 16.740782 13.816115 16.742722 13.902344 16.720703 C 13.988573 16.698684 14.072027 16.648497 14.121094 16.564453 C 14.170161 16.480409 14.179246 16.37249 14.148438 16.251953 C 14.117622 16.131416 14.04829 15.99509 13.931641 15.833984 L 13.912109 15.804688 L 13.691406 15.744141 z M 11.779297 15.849609 L 11.759766 15.855469 C 11.614535 15.900491 11.508288 15.962437 11.4375 16.042969 C 11.366712 16.123501 11.336613 16.223116 11.34375 16.316406 C 11.350923 16.410166 11.439963 16.465209 11.494141 16.541016 C 11.496435 16.546833 11.491485 16.55493 11.494141 16.560547 C 11.497824 16.56834 11.509517 16.564941 11.513672 16.572266 C 11.56375 16.634546 11.577498 16.71856 11.642578 16.763672 C 11.794279 16.868826 11.981166 16.937302 12.140625 16.849609 C 12.220354 16.805763 12.276619 16.719585 12.294922 16.613281 C 12.313225 16.506978 12.301584 16.377848 12.257812 16.214844 L 12.253906 16.207031 L 12.251953 16.199219 C 12.172337 16.026897 12.012788 15.870108 11.798828 15.851562 L 11.779297 15.849609 z M 22.052734 16.052734 C 22.110294 16.090088 22.15756 16.128444 22.173828 16.15625 C 22.193774 16.190342 22.195055 16.212303 22.1875 16.240234 C 22.172391 16.296098 22.094849 16.372061 22.007812 16.408203 C 21.964294 16.426274 21.919877 16.434751 21.890625 16.433594 C 21.861373 16.432437 21.852962 16.426189 21.849609 16.421875 C 21.846257 16.417561 21.836912 16.401122 21.847656 16.347656 C 21.857813 16.297115 21.892614 16.214292 21.953125 16.113281 L 22.019531 16.0625 L 22.052734 16.052734 z M 13.712891 16.148438 C 13.803012 16.25983 13.894349 16.380078 13.884766 16.417969 C 13.871333 16.471077 13.80065 16.511837 13.712891 16.515625 C 13.689806 16.516621 13.673207 16.508286 13.652344 16.503906 C 13.602985 16.487396 13.585086 16.454747 13.550781 16.425781 C 13.542098 16.388323 13.626514 16.266981 13.712891 16.148438 z M 13.511719 16.158203 C 13.491607 16.195392 13.469329 16.232833 13.458984 16.267578 C 13.46434 16.24019 13.459325 16.219247 13.484375 16.181641 C 13.488822 16.174965 13.506462 16.165178 13.511719 16.158203 z M 11.792969 16.208984 C 11.875365 16.278962 11.958978 16.34927 11.994141 16.398438 C 12.04178 16.465052 12.046989 16.506871 12.044922 16.523438 C 12.042855 16.540004 12.038901 16.547212 12.013672 16.560547 C 11.988443 16.573882 11.942954 16.583553 11.894531 16.582031 C 11.797686 16.578988 11.701285 16.530513 11.675781 16.476562 C 11.663029 16.449587 11.656354 16.417514 11.677734 16.361328 C 11.692095 16.323588 11.746175 16.2642 11.792969 16.208984 z M 19.837891 16.851562 L 19.806641 16.869141 C 19.631605 16.963719 19.50976 17.057093 19.429688 17.152344 C 19.349615 17.247595 19.310614 17.350244 19.318359 17.447266 C 19.326105 17.544287 19.381067 17.624393 19.449219 17.681641 C 19.517371 17.738889 19.601142 17.776653 19.689453 17.796875 C 19.866076 17.837319 20.074473 17.813318 20.191406 17.65625 C 20.249873 17.577716 20.274696 17.470347 20.257812 17.349609 C 20.24093 17.228872 20.186391 17.092007 20.085938 16.931641 L 20.0625 16.894531 L 19.837891 16.851562 z M 19.839844 17.179688 C 19.897177 17.217008 19.944714 17.253465 19.960938 17.28125 C 19.980857 17.315367 19.982177 17.339232 19.974609 17.367188 C 19.959474 17.423098 19.881905 17.499047 19.794922 17.535156 C 19.751431 17.553211 19.70696 17.561711 19.677734 17.560547 C 19.648509 17.559382 19.64008 17.551202 19.636719 17.546875 C 19.633357 17.542548 19.624035 17.526108 19.634766 17.472656 C 19.644905 17.422147 19.67982 17.341148 19.740234 17.240234 L 19.806641 17.189453 L 19.839844 17.179688 z M 18.269531 17.617188 L 18.238281 17.632812 C 18.0633 17.727354 17.941382 17.820775 17.861328 17.916016 C 17.781274 18.011256 17.742268 18.113924 17.75 18.210938 C 17.757732 18.30795 17.810785 18.389996 17.878906 18.447266 C 17.947027 18.504535 18.030856 18.542253 18.119141 18.5625 C 18.295711 18.602995 18.506129 18.576979 18.623047 18.419922 C 18.681506 18.341393 18.706308 18.234024 18.689453 18.113281 C 18.672598 17.992538 18.617964 17.855719 18.517578 17.695312 L 18.494141 17.658203 L 18.269531 17.617188 z M 13.521484 17.818359 L 13.490234 17.833984 C 13.315285 17.928622 13.193299 18.021902 13.113281 18.117188 C 13.033264 18.212473 12.994182 18.315094 13.001953 18.412109 C 13.009724 18.509125 13.06271 18.591192 13.130859 18.648438 C 13.199009 18.705683 13.282793 18.743457 13.371094 18.763672 C 13.547696 18.804101 13.75809 18.778148 13.875 18.621094 C 13.933455 18.542567 13.95828 18.43517 13.941406 18.314453 C 13.924532 18.193736 13.869952 18.05681 13.769531 17.896484 L 13.746094 17.859375 L 13.521484 17.818359 z M 11.697266 17.900391 L 11.679688 17.90625 C 11.534375 17.951266 11.428249 18.013225 11.357422 18.09375 C 11.286594 18.174275 11.256524 18.275842 11.263672 18.369141 C 11.270856 18.462909 11.359853 18.517953 11.414062 18.59375 C 11.416341 18.599524 11.41143 18.607704 11.414062 18.613281 C 11.417753 18.621089 11.429434 18.617662 11.433594 18.625 C 11.483702 18.68727 11.497391 18.771308 11.5625 18.816406 C 11.714267 18.921528 11.901094 18.990096 12.060547 18.902344 C 12.140273 18.858468 12.196606 18.770391 12.214844 18.664062 C 12.233081 18.557734 12.219669 18.430599 12.175781 18.267578 L 12.173828 18.257812 L 12.169922 18.25 C 12.090411 18.077613 11.930549 17.920883 11.716797 17.902344 L 11.697266 17.900391 z M 1.2910156 17.943359 C 1.3485443 17.98073 1.3958564 18.019065 1.4121094 18.046875 C 1.4320366 18.080971 1.4333449 18.102933 1.4257812 18.130859 C 1.4106539 18.186713 1.3311681 18.262729 1.2441406 18.298828 C 1.2006269 18.316878 1.158151 18.325388 1.1289062 18.324219 C 1.0996616 18.323049 1.0912507 18.316826 1.0878906 18.3125 C 1.0845305 18.308174 1.0751868 18.291741 1.0859375 18.238281 C 1.09627 18.186901 1.1308031 18.105428 1.1933594 18.001953 L 1.2578125 17.953125 L 1.2910156 17.943359 z M 18.269531 17.943359 C 18.327224 17.98079 18.376302 18.019021 18.392578 18.046875 C 18.412499 18.080968 18.413814 18.102922 18.40625 18.130859 C 18.391122 18.186734 18.311606 18.262724 18.224609 18.298828 C 18.181111 18.31688 18.1386 18.325388 18.109375 18.324219 C 18.08015 18.323049 18.071727 18.316838 18.068359 18.3125 C 18.064992 18.308162 18.053707 18.291773 18.064453 18.238281 C 18.074678 18.187383 18.108629 18.105907 18.169922 18.003906 L 18.236328 17.953125 L 18.269531 17.943359 z M 13.523438 18.144531 C 13.580965 18.181897 13.628275 18.220234 13.644531 18.248047 C 13.664462 18.282147 13.665767 18.30409 13.658203 18.332031 C 13.643076 18.387914 13.563588 18.463876 13.476562 18.5 C 13.433053 18.518062 13.390571 18.526553 13.361328 18.525391 C 13.332085 18.524228 13.323671 18.517993 13.320312 18.513672 C 13.316956 18.509351 13.305661 18.492919 13.316406 18.439453 C 13.326735 18.388061 13.363219 18.306637 13.425781 18.203125 L 13.488281 18.154297 L 13.523438 18.144531 z M 11.712891 18.261719 C 11.794549 18.331262 11.877157 18.402255 11.912109 18.451172 C 11.959708 18.517788 11.966915 18.559628 11.964844 18.576172 C 11.962773 18.592716 11.956858 18.599969 11.931641 18.613281 C 11.906424 18.626593 11.862858 18.636313 11.814453 18.634766 C 11.717644 18.631671 11.619221 18.58128 11.59375 18.527344 C 11.581014 18.500376 11.576265 18.470208 11.597656 18.414062 C 11.612025 18.37635 11.666093 18.316887 11.712891 18.261719 z M 16.056641 18.582031 L 16.025391 18.599609 C 15.850453 18.694297 15.72844 18.787505 15.648438 18.882812 C 15.568433 18.97812 15.529326 19.080718 15.537109 19.177734 C 15.544893 19.274751 15.597856 19.354876 15.666016 19.412109 C 15.734176 19.469342 15.817945 19.507149 15.90625 19.527344 C 16.082861 19.567732 16.293273 19.543796 16.410156 19.386719 C 16.468598 19.30818 16.493453 19.200793 16.476562 19.080078 C 16.459672 18.959363 16.405131 18.822413 16.304688 18.662109 L 16.28125 18.625 L 16.056641 18.582031 z M 3.90625 18.869141 C 3.9637 18.906507 4.0111155 18.944847 4.0273438 18.972656 C 4.0472406 19.006752 4.0485869 19.028694 4.0410156 19.056641 C 4.0258732 19.112533 3.948278 19.18852 3.8613281 19.224609 C 3.8178532 19.242654 3.7733436 19.251167 3.7441406 19.25 C 3.7149376 19.248833 3.7064798 19.242602 3.703125 19.238281 C 3.6997702 19.233961 3.6904371 19.21751 3.7011719 19.164062 C 3.7113194 19.113539 3.7461883 19.030641 3.8066406 18.929688 L 3.8730469 18.878906 L 3.90625 18.869141 z M 16.058594 18.910156 C 16.115913 18.947506 16.163476 18.983923 16.179688 19.011719 C 16.199593 19.045848 16.200941 19.069702 16.193359 19.097656 C 16.178196 19.153564 16.098728 19.229556 16.011719 19.265625 C 15.968214 19.283659 15.923763 19.292195 15.894531 19.291016 C 15.8653 19.289836 15.856884 19.281684 15.853516 19.277344 C 15.850147 19.273004 15.840815 19.25658 15.851562 19.203125 C 15.861721 19.152613 15.896574 19.0716 15.957031 18.970703 L 16.023438 18.919922 L 16.058594 18.910156 z M 6.3984375 19.226562 L 6.3671875 19.242188 C 6.1922312 19.336829 6.0722088 19.430113 5.9921875 19.525391 C 5.9121662 19.620668 5.8730889 19.723302 5.8808594 19.820312 C 5.8886299 19.917323 5.9416097 19.999414 6.0097656 20.056641 C 6.0779215 20.113867 6.1616956 20.151683 6.25 20.171875 C 6.4266087 20.21226 6.6370042 20.18637 6.7539062 20.029297 C 6.8123574 19.95076 6.8352318 19.84338 6.8183594 19.722656 C 6.8014869 19.601933 6.7469065 19.46501 6.6464844 19.304688 L 6.6230469 19.267578 L 6.3984375 19.226562 z M 6.4003906 19.552734 C 6.4580661 19.590214 6.507174 19.628377 6.5234375 19.65625 C 6.5433435 19.690365 6.5427342 19.712309 6.5351562 19.740234 C 6.5200004 19.796085 6.442487 19.872166 6.3554688 19.908203 C 6.3119596 19.926222 6.2675155 19.934783 6.2382812 19.933594 C 6.209047 19.932405 6.2006344 19.926218 6.1972656 19.921875 C 6.1938969 19.917532 6.1845459 19.90111 6.1953125 19.847656 C 6.2055573 19.796793 6.2394449 19.715202 6.3007812 19.613281 L 6.3671875 19.5625 L 6.4003906 19.552734 z M 13.642578 19.667969 L 13.611328 19.685547 C 13.436329 19.780172 13.314407 19.873482 13.234375 19.96875 C 13.154343 20.064018 13.115245 20.166658 13.123047 20.263672 C 13.130848 20.360685 13.183768 20.440838 13.251953 20.498047 C 13.320138 20.555256 13.403859 20.593095 13.492188 20.613281 C 13.668831 20.653654 13.879223 20.629751 13.996094 20.472656 C 14.054529 20.394109 14.079457 20.286726 14.0625 20.166016 C 14.045543 20.045305 13.989228 19.908337 13.888672 19.748047 L 13.867188 19.710938 L 13.642578 19.667969 z M 8.7734375 19.830078 L 8.7421875 19.845703 C 8.5671517 19.940203 8.4453105 20.03368 8.3652344 20.128906 C 8.2851583 20.224132 8.2461538 20.326805 8.2539062 20.423828 C 8.2616588 20.520851 8.3146692 20.602883 8.3828125 20.660156 C 8.4509558 20.71743 8.5347396 20.755121 8.6230469 20.775391 C 8.7996614 20.815929 9.0099932 20.791789 9.1269531 20.634766 C 9.1854331 20.556254 9.210253 20.446897 9.1933594 20.326172 C 9.1764658 20.205446 9.1219488 20.070539 9.0214844 19.910156 L 8.9980469 19.873047 L 8.7734375 19.830078 z M 13.642578 19.996094 C 13.70024 20.033536 13.749361 20.07175 13.765625 20.099609 C 13.785531 20.133708 13.784915 20.155651 13.777344 20.183594 C 13.762201 20.23948 13.684641 20.315473 13.597656 20.351562 C 13.554164 20.369607 13.509688 20.378124 13.480469 20.376953 C 13.451249 20.375782 13.442817 20.367614 13.439453 20.363281 C 13.436089 20.358949 13.426757 20.344483 13.4375 20.291016 C 13.447655 20.240473 13.482488 20.157622 13.542969 20.056641 L 13.609375 20.005859 L 13.642578 19.996094 z M 8.7753906 20.15625 C 8.8328459 20.193588 8.8802595 20.231971 8.8964844 20.259766 C 8.9163771 20.293843 8.917733 20.315785 8.9101562 20.34375 C 8.8950031 20.39968 8.8154941 20.475585 8.7285156 20.511719 C 8.6850264 20.529786 8.6424858 20.538268 8.6132812 20.537109 C 8.5840768 20.53595 8.5756181 20.529709 8.5722656 20.525391 C 8.5689131 20.521072 8.5576131 20.504673 8.5683594 20.451172 C 8.578689 20.399745 8.6151991 20.318398 8.6777344 20.214844 L 8.7402344 20.166016 L 8.7753906 20.15625 z M 11.496094 20.314453 L 11.478516 20.320312 C 11.333191 20.365331 11.227089 20.427286 11.15625 20.507812 C 11.085411 20.58834 11.055365 20.689899 11.0625 20.783203 C 11.069671 20.876978 11.158688 20.932006 11.212891 21.007812 C 11.215169 21.013588 11.210256 21.021766 11.212891 21.027344 C 11.21658 21.035153 11.22826 21.031723 11.232422 21.039062 C 11.282522 21.101342 11.296228 21.185361 11.361328 21.230469 C 11.513076 21.335613 11.699925 21.404127 11.859375 21.316406 C 11.9391 21.272546 11.993499 21.186392 12.011719 21.080078 C 12.029938 20.973764 12.018519 20.844638 11.974609 20.681641 L 11.972656 20.673828 L 11.96875 20.666016 C 11.889381 20.494113 11.730101 20.3344 11.515625 20.316406 L 11.496094 20.314453 z M 11.511719 20.675781 C 11.5936 20.74544 11.677877 20.816255 11.712891 20.865234 C 11.760509 20.931845 11.765744 20.973703 11.763672 20.990234 C 11.7616 21.006765 11.757675 21.014018 11.732422 21.027344 C 11.707169 21.04067 11.661728 21.050371 11.613281 21.048828 C 11.516387 21.045743 11.418049 20.99532 11.392578 20.941406 C 11.379842 20.914449 11.375077 20.884272 11.396484 20.828125 C 11.410864 20.790411 11.464887 20.73096 11.511719 20.675781 z "
     id="path4886" />
</svg>
