<?xml version="1.0" encoding="UTF-8" standalone="no"?>
<!-- Created with Inkscape (http://www.inkscape.org/) -->

<svg
   xmlns:dc="http://purl.org/dc/elements/1.1/"
   xmlns:cc="http://creativecommons.org/ns#"
   xmlns:rdf="http://www.w3.org/1999/02/22-rdf-syntax-ns#"
   xmlns:svg="http://www.w3.org/2000/svg"
   xmlns="http://www.w3.org/2000/svg"
   xmlns:sodipodi="http://sodipodi.sourceforge.net/DTD/sodipodi-0.dtd"
   xmlns:inkscape="http://www.inkscape.org/namespaces/inkscape"
   version="1.1"
   width="24"
   height="24"
   id="svg4460"
   inkscape:version="0.91 r13725"
   sodipodi:docname="camera2-24.svg">
  <sodipodi:namedview
     pagecolor="#ffffff"
     bordercolor="#666666"
     borderopacity="1"
     objecttolerance="10"
     gridtolerance="10"
     guidetolerance="10"
     inkscape:pageopacity="0"
     inkscape:pageshadow="2"
     inkscape:window-width="1280"
     inkscape:window-height="972"
     id="namedview11"
     showgrid="false"
     inkscape:zoom="9.8333333"
     inkscape:cx="-3.7627119"
     inkscape:cy="12"
     inkscape:window-x="-8"
     inkscape:window-y="-8"
     inkscape:window-maximized="1"
     inkscape:current-layer="svg4460" />
  <defs
     id="defs4462" />
  <metadata
     id="metadata4465">
    <rdf:RDF>
      <cc:Work
         rdf:about="">
        <dc:format>image/svg+xml</dc:format>
        <dc:type
           rdf:resource="http://purl.org/dc/dcmitype/StillImage" />
        <dc:title></dc:title>
      </cc:Work>
    </rdf:RDF>
  </metadata>
  <path
     inkscape:connector-curvature="0"
     id="path3046"
     style="fill:#454545"
     d="M 14,10 C 12.89543,10 12,10.89543 12,12 12,13.10457 12.89543,14 14,14 15.10457,14 16,13.10457 16,12 16,10.89543 15.10457,10 14,10 Z M 14,8 C 16.209,8 18,9.791 18,12 18,14.209 16.209,16 14,16 11.791,16 10,14.209 10,12 10,9.791 11.791,8 14,8 Z M 12,4 C 11.448,4 11,4.447 11,5 L 11,6 8,6 C 8,5.447 7.552,5 7,5 L 6,5 C 5.448,5 5,5.447 5,6 L 4,6 C 3.448,6 3,6.447 3,7 L 3,17 C 3,17.553 3.448,18 4,18 L 21,18 C 21.552,18 22,17.553 22,17 L 22,7 C 22,6.447 21.552,6 21,6 L 17,6 17,5 C 17,4.447 16.552,4 16,4 Z" />
</svg>
