<?xml version="1.0" encoding="UTF-8" standalone="no"?>
<!-- Created with Inkscape (http://www.inkscape.org/) -->

<svg
   xmlns:dc="http://purl.org/dc/elements/1.1/"
   xmlns:cc="http://creativecommons.org/ns#"
   xmlns:rdf="http://www.w3.org/1999/02/22-rdf-syntax-ns#"
   xmlns:svg="http://www.w3.org/2000/svg"
   xmlns="http://www.w3.org/2000/svg"
   xmlns:sodipodi="http://sodipodi.sourceforge.net/DTD/sodipodi-0.dtd"
   xmlns:inkscape="http://www.inkscape.org/namespaces/inkscape"
   version="1.1"
   width="24"
   height="24"
   id="svg4460"
   inkscape:version="0.91 r13725"
   sodipodi:docname="commercial.svg">
  <sodipodi:namedview
     pagecolor="#ffffff"
     bordercolor="#666666"
     borderopacity="1"
     objecttolerance="10"
     gridtolerance="10"
     guidetolerance="10"
     inkscape:pageopacity="0"
     inkscape:pageshadow="2"
     inkscape:window-width="1280"
     inkscape:window-height="972"
     id="namedview10"
     showgrid="false"
     inkscape:zoom="9.8333333"
     inkscape:cx="-3.7627119"
     inkscape:cy="12"
     inkscape:window-x="-8"
     inkscape:window-y="-8"
     inkscape:window-maximized="1"
     inkscape:current-layer="svg4460" />
  <defs
     id="defs4462" />
  <metadata
     id="metadata4465">
    <rdf:RDF>
      <cc:Work
         rdf:about="">
        <dc:format>image/svg+xml</dc:format>
        <dc:type
           rdf:resource="http://purl.org/dc/dcmitype/StillImage" />
        <dc:title />
      </cc:Work>
    </rdf:RDF>
  </metadata>
  <path
     d="M 5.99998,2 C 5.49998,2 4.99998,2.5 4.99998,3 L 4.99998,21 10.99998,21 10.99998,18 13.99998,18 13.99998,21 19.99998,21 19.99998,3 C 19.99998,2.5 19.49998,2 18.99998,2 Z M 7.99998,5 10.99998,5 10.99998,6 7.99998,6 Z M 13.99998,5 16.99998,5 16.99998,6 13.99998,6 Z M 7.99998,8 10.99998,8 10.99998,9 7.99998,9 Z M 13.99998,8 16.99998,8 16.99998,9 13.99998,9 Z M 7.99998,11 10.99998,11 10.99998,12 7.99998,12 Z M 13.99998,11 16.99998,11 16.99998,12 13.99998,12 Z M 7.99998,14 10.99998,14 10.99998,15 7.99998,15 Z M 13.99998,14 16.99998,14 16.99998,15 13.99998,15 Z"
     inkscape:connector-curvature="0"
     id="path9260"
     style="color:#000000;display:inline;overflow:visible;visibility:visible;fill:#444444;fill-opacity:1;fill-rule:nonzero;stroke:none;stroke-width:2;marker:none;enable-background:accumulate" />
</svg>
