<?xml version="1.0" encoding="UTF-8" standalone="no"?>
<!-- Created with Inkscape (http://www.inkscape.org/) -->

<svg
   xmlns:dc="http://purl.org/dc/elements/1.1/"
   xmlns:cc="http://creativecommons.org/ns#"
   xmlns:rdf="http://www.w3.org/1999/02/22-rdf-syntax-ns#"
   xmlns:svg="http://www.w3.org/2000/svg"
   xmlns="http://www.w3.org/2000/svg"
   xmlns:sodipodi="http://sodipodi.sourceforge.net/DTD/sodipodi-0.dtd"
   xmlns:inkscape="http://www.inkscape.org/namespaces/inkscape"
   version="1.1"
   width="24"
   height="24"
   id="svg4460"
   inkscape:version="0.91 r13725"
   sodipodi:docname="ice-cream-24.svg">
  <sodipodi:namedview
     pagecolor="#ffffff"
     bordercolor="#666666"
     borderopacity="1"
     objecttolerance="10"
     gridtolerance="10"
     guidetolerance="10"
     inkscape:pageopacity="0"
     inkscape:pageshadow="2"
     inkscape:window-width="1280"
     inkscape:window-height="972"
     id="namedview10"
     showgrid="false"
     inkscape:zoom="9.8333333"
     inkscape:cx="-3.7627119"
     inkscape:cy="12"
     inkscape:window-x="-8"
     inkscape:window-y="-8"
     inkscape:window-maximized="1"
     inkscape:current-layer="svg4460" />
  <defs
     id="defs4462" />
  <metadata
     id="metadata4465">
    <rdf:RDF>
      <cc:Work
         rdf:about="">
        <dc:format>image/svg+xml</dc:format>
        <dc:type
           rdf:resource="http://purl.org/dc/dcmitype/StillImage" />
        <dc:title></dc:title>
      </cc:Work>
    </rdf:RDF>
  </metadata>
  <path
     d="M 10,4.5 C 8.067,4.5 6.5,6.067 6.5,8 6.46449,8.51007 6.64355,8.92235 6.78125,9.375 6.96225,9.795 7.21025,10.184 7.53125,10.5 L 12.46875,10.5 C 13.11275,9.865 13.5,8.974 13.5,8 13.5,6.812 12.905,5.758 12,5.125 11.38808,4.69971 10.70216,4.58694 10,4.5 Z M 14,4.5 C 13.86,4.5 13.72975,4.51625 13.59375,4.53125 14.46375,5.43225 15,6.652 15,8 15,8.911 14.7395,9.764 14.3125,10.5 L 16.46875,10.5 C 17.11275,9.865 17.5,8.974 17.5,8 17.5,6.067 15.933,4.5 14,4.5 Z M 8,12 C 8,12 10.92,19.869 11,20 11.171,20.457 11.625,21 12,21 12.375,21 12.829,20.457 13,20 13.08,19.869 16,12 16,12 Z"
     inkscape:connector-curvature="0"
     id="path15"
     style="fill:#444444;fill-opacity:1"
     sodipodi:nodetypes="cccccsccscsccssccsccc" />
</svg>
