<?xml version="1.0" encoding="UTF-8" standalone="no"?>
<!-- Created with Inkscape (http://www.inkscape.org/) -->

<svg
   xmlns:dc="http://purl.org/dc/elements/1.1/"
   xmlns:cc="http://creativecommons.org/ns#"
   xmlns:rdf="http://www.w3.org/1999/02/22-rdf-syntax-ns#"
   xmlns:svg="http://www.w3.org/2000/svg"
   xmlns="http://www.w3.org/2000/svg"
   xmlns:sodipodi="http://sodipodi.sourceforge.net/DTD/sodipodi-0.dtd"
   xmlns:inkscape="http://www.inkscape.org/namespaces/inkscape"
   version="1.1"
   width="24"
   height="24"
   id="svg4460"
   inkscape:version="0.91 r13725"
   sodipodi:docname="laundry-24.svg">
  <sodipodi:namedview
     pagecolor="#ffffff"
     bordercolor="#666666"
     borderopacity="1"
     objecttolerance="10"
     gridtolerance="10"
     guidetolerance="10"
     inkscape:pageopacity="0"
     inkscape:pageshadow="2"
     inkscape:window-width="1280"
     inkscape:window-height="972"
     id="namedview10"
     showgrid="false"
     inkscape:zoom="9.8333333"
     inkscape:cx="-3.7627119"
     inkscape:cy="12"
     inkscape:window-x="-8"
     inkscape:window-y="-8"
     inkscape:window-maximized="1"
     inkscape:current-layer="svg4460" />
  <defs
     id="defs4462" />
  <metadata
     id="metadata4465">
    <rdf:RDF>
      <cc:Work
         rdf:about="">
        <dc:format>image/svg+xml</dc:format>
        <dc:type
           rdf:resource="http://purl.org/dc/dcmitype/StillImage" />
        <dc:title></dc:title>
      </cc:Work>
    </rdf:RDF>
  </metadata>
  <path
     d="M 12.5,3 C 12.01621,3 11.35355,3.64645 11,4 L 10,5 C 9.64645,5.35355 9,6 8.5,6 L 6,6 C 5.5,6 5,6.5 5,7 L 5,20 C 5,20.553 5.448,21 6,21 L 19,21 C 19.552,21 20,20.553 20,20 L 20,4 C 20,3.447 19.552,3 19,3 Z M 14,4 C 14.55228,4 15,4.44772 15,5 15,5.55228 14.55228,6 14,6 13.44772,6 13,5.55228 13,5 13,4.44772 13.44772,4 14,4 Z M 17,4 C 17.55228,4 18,4.44772 18,5 18,5.55228 17.55228,6 17,6 16.44772,6 16,5.55228 16,5 16,4.44772 16.44772,4 17,4 Z M 12.5,9 C 14.98528,9 17,11.01472 17,13.5 17,15.98528 14.98528,18 12.5,18 10.01472,18 8,15.98528 8,13.5 8,11.01472 10.01472,9 12.5,9 Z M 10,13 10,13.5 C 10,14.88071 11.11929,16 12.5,16 13.88071,16 15,14.88071 15,13.5 L 15,13 Z"
     inkscape:connector-curvature="0"
     id="path3291"
     style="fill:#454545"
     sodipodi:nodetypes="ssssssssssssszzzzzzzzzzzzzzzcszscc" />
</svg>
