<?xml version="1.0" encoding="UTF-8" standalone="no"?>
<!-- Created with Inkscape (http://www.inkscape.org/) -->

<svg
   xmlns:dc="http://purl.org/dc/elements/1.1/"
   xmlns:cc="http://creativecommons.org/ns#"
   xmlns:rdf="http://www.w3.org/1999/02/22-rdf-syntax-ns#"
   xmlns:svg="http://www.w3.org/2000/svg"
   xmlns="http://www.w3.org/2000/svg"
   xmlns:sodipodi="http://sodipodi.sourceforge.net/DTD/sodipodi-0.dtd"
   xmlns:inkscape="http://www.inkscape.org/namespaces/inkscape"
   version="1.1"
   width="24"
   height="24"
   id="svg4460"
   inkscape:version="0.91 r13725"
   sodipodi:docname="soccer-24.svg">
  <sodipodi:namedview
     pagecolor="#ffffff"
     bordercolor="#666666"
     borderopacity="1"
     objecttolerance="10"
     gridtolerance="10"
     guidetolerance="10"
     inkscape:pageopacity="0"
     inkscape:pageshadow="2"
     inkscape:window-width="1280"
     inkscape:window-height="972"
     id="namedview11"
     showgrid="false"
     inkscape:zoom="9.8333333"
     inkscape:cx="-3.7627119"
     inkscape:cy="12"
     inkscape:window-x="-8"
     inkscape:window-y="-8"
     inkscape:window-maximized="1"
     inkscape:current-layer="svg4460" />
  <defs
     id="defs4462" />
  <metadata
     id="metadata4465">
    <rdf:RDF>
      <cc:Work
         rdf:about="">
        <dc:format>image/svg+xml</dc:format>
        <dc:type
           rdf:resource="http://purl.org/dc/dcmitype/StillImage" />
        <dc:title />
      </cc:Work>
    </rdf:RDF>
  </metadata>
  <path
     style="color:#000000;display:inline;overflow:visible;visibility:visible;fill:#444444;fill-opacity:1;fill-rule:nonzero;stroke:none;stroke-width:2;marker:none;enable-background:accumulate"
     id="path10911-4-1-7-6-7"
     inkscape:connector-curvature="0"
     d="M 12.5,3 C 7.81676,3 4,6.8168 4,11.5 4,16.1832 7.81676,20 12.5,20 17.18324,20 21,16.1832 21,11.5 21,6.8168 17.18324,3 12.5,3 Z M 12.5,4.5 C 15.16601,4.5 17.47358,5.9738 18.65625,8.1563 17.54025,8.8967 16.51446,9.2836 16.5,10 16.4899,10.4999 16.5,10.6412 16.5,11 16.5,11.5 16.76049,12.1434 17.5,12.5 L 19.25,13.3438 C 19.04966,14.0846 18.72761,14.7544 18.3125,15.375 L 17,14.5 C 16.25,14 15.5,13.6667 15,14 L 13.5,15 C 12.80662,15.4623 12.87903,16 13,16.5 L 13.46875,18.4375 C 13.15151,18.4815 12.82962,18.4995 12.5,18.4995 11.80671,18.4995 11.13146,18.4045 10.5,18.2183 L 10.5,16.4995 C 10.5,15.4995 10,14.9995 9.5,14.4995 9,13.9995 8.5,13.4995 7.5,13.4995 L 5.78125,13.4995 C 5.59519,12.8685 5.5,12.1933 5.5,11.5 5.5,7.6222 8.62216,4.5 12.5,4.5 Z M 9.5,8 9,10 C 8.8581107,10.5676 8.47997,11.1533 9,11.5 L 10.5,12.5 C 11.5,13.1667 11.94098,12.7795 12.5,12.5 L 13.5,12 C 14.24536,11.6273 14.5,11.5 14.5,10.5 L 14.5,8.5 C 14.5,8 14.5082,7.7016 13.5,7.5 L 11,7 C 9.95274,6.7905 9.755655,6.977 9.5,8 Z" />
</svg>
