<?xml version="1.0" encoding="UTF-8" standalone="no"?>
<!-- Created with Inkscape (http://www.inkscape.org/) -->

<svg
   xmlns:dc="http://purl.org/dc/elements/1.1/"
   xmlns:cc="http://creativecommons.org/ns#"
   xmlns:rdf="http://www.w3.org/1999/02/22-rdf-syntax-ns#"
   xmlns:svg="http://www.w3.org/2000/svg"
   xmlns="http://www.w3.org/2000/svg"
   xmlns:sodipodi="http://sodipodi.sourceforge.net/DTD/sodipodi-0.dtd"
   xmlns:inkscape="http://www.inkscape.org/namespaces/inkscape"
   version="1.0"
   width="580"
   height="580"
   id="svg2"
   sodipodi:version="0.32"
   inkscape:version="0.91 r13725"
   sodipodi:docname="quary.svg"
   inkscape:output_extension="org.inkscape.output.svg.inkscape">
  <metadata
     id="metadata10">
    <rdf:RDF>
      <cc:Work
         rdf:about="">
        <dc:format>image/svg+xml</dc:format>
        <dc:type
           rdf:resource="http://purl.org/dc/dcmitype/StillImage" />
        <cc:license
           rdf:resource="http://web.resource.org/cc/PublicDomain" />
        <dc:language>en</dc:language>
        <dc:title />
      </cc:Work>
    </rdf:RDF>
  </metadata>
  <sodipodi:namedview
     inkscape:window-height="972"
     inkscape:window-width="1280"
     inkscape:pageshadow="2"
     inkscape:pageopacity="0.0"
     guidetolerance="10.0"
     gridtolerance="10.0"
     objecttolerance="10.0"
     borderopacity="1.0"
     bordercolor="#666666"
     pagecolor="#ffffff"
     id="base"
     showgrid="false"
     inkscape:zoom="1"
     inkscape:cx="287.94155"
     inkscape:cy="223.60156"
     inkscape:window-x="-8"
     inkscape:window-y="-8"
     inkscape:current-layer="svg2"
     showguides="true"
     inkscape:guide-bbox="true"
     inkscape:window-maximized="1" />
  <defs
     id="defs4">
    <inkscape:perspective
       sodipodi:type="inkscape:persp3d"
       inkscape:vp_x="0 : 290 : 1"
       inkscape:vp_y="0 : 1000 : 0"
       inkscape:vp_z="580 : 290 : 1"
       inkscape:persp3d-origin="290 : 193.33333 : 1"
       id="perspective12" />
    <style
       type="text/css"
       id="style6">
   
    .fil0 {fill:#EF7900}
   
  </style>
    <inkscape:perspective
       id="perspective6807"
       inkscape:persp3d-origin="29.116032 : 19.410688 : 1"
       inkscape:vp_z="58.232063 : 29.116032 : 1"
       inkscape:vp_y="0 : 1000 : 0"
       inkscape:vp_x="0 : 29.116032 : 1"
       sodipodi:type="inkscape:persp3d" />
    <inkscape:perspective
       id="perspective6954"
       inkscape:persp3d-origin="290 : 193.33333 : 1"
       inkscape:vp_z="580 : 290 : 1"
       inkscape:vp_y="0 : 1000 : 0"
       inkscape:vp_x="0 : 290 : 1"
       sodipodi:type="inkscape:persp3d" />
    <inkscape:perspective
       id="perspective2541"
       inkscape:persp3d-origin="240 : 160 : 1"
       inkscape:vp_z="480 : 240 : 1"
       inkscape:vp_y="0 : 1000 : 0"
       inkscape:vp_x="0 : 240 : 1"
       sodipodi:type="inkscape:persp3d" />
    <inkscape:perspective
       id="perspective2750"
       inkscape:persp3d-origin="215 : 143.33333 : 1"
       inkscape:vp_z="430 : 215 : 1"
       inkscape:vp_y="0 : 1000 : 0"
       inkscape:vp_x="0 : 215 : 1"
       sodipodi:type="inkscape:persp3d" />
    <inkscape:perspective
       id="perspective2830"
       inkscape:persp3d-origin="0.5 : 0.33333333 : 1"
       inkscape:vp_z="1 : 0.5 : 1"
       inkscape:vp_y="0 : 1000 : 0"
       inkscape:vp_x="0 : 0.5 : 1"
       sodipodi:type="inkscape:persp3d" />
    <inkscape:perspective
       id="perspective3648"
       inkscape:persp3d-origin="0.5 : 0.33333333 : 1"
       inkscape:vp_z="1 : 0.5 : 1"
       inkscape:vp_y="0 : 1000 : 0"
       inkscape:vp_x="0 : 0.5 : 1"
       sodipodi:type="inkscape:persp3d" />
  </defs>
  <path
     style="color:#000000;font-style:normal;font-variant:normal;font-weight:normal;font-stretch:normal;font-size:medium;line-height:normal;font-family:sans-serif;text-indent:0;text-align:start;text-decoration:none;text-decoration-line:none;text-decoration-style:solid;text-decoration-color:#000000;letter-spacing:normal;word-spacing:normal;text-transform:none;direction:ltr;block-progression:tb;writing-mode:lr-tb;baseline-shift:baseline;text-anchor:start;white-space:normal;clip-rule:nonzero;display:inline;overflow:visible;visibility:visible;opacity:1;isolation:auto;mix-blend-mode:normal;color-interpolation:sRGB;color-interpolation-filters:linearRGB;solid-color:#000000;solid-opacity:1;fill:#008000;fill-opacity:1;fill-rule:nonzero;stroke:none;stroke-width:8.69999981;stroke-linecap:round;stroke-linejoin:round;stroke-miterlimit:4;stroke-dasharray:none;stroke-dashoffset:0;stroke-opacity:1;color-rendering:auto;image-rendering:auto;shape-rendering:auto;text-rendering:auto;enable-background:accumulate"
     d="M 242.80859 17.53125 C 242.36227 17.520207 241.9054 17.532257 241.43945 17.572266 A 4.3504349 4.3504349 0 0 0 241.08594 17.617188 C 237.44249 18.235164 232.04607 17.861702 226.50391 18.539062 C 220.96175 19.216423 214.62007 21.522086 211.18555 27.783203 A 4.3504349 4.3504349 0 0 0 210.81836 28.675781 C 206.73221 42.920148 220.60437 56.911387 234.78516 54.074219 C 239.22697 54.429918 244.95204 55.380765 250.80273 55.021484 C 256.72537 54.657786 263.25262 52.603701 267.36914 46.720703 A 4.3504349 4.3504349 0 0 0 268.14453 44.523438 C 268.62081 37.546225 265.04871 31.885192 260.79492 27.873047 C 256.54114 23.860901 251.47212 20.998764 247.59375 18.609375 A 4.3504349 4.3504349 0 0 0 246.52539 18.134766 C 245.39401 17.806544 244.14755 17.564379 242.80859 17.53125 z M 242.20898 26.242188 C 242.59843 26.213833 243.14701 26.314576 243.70508 26.439453 C 247.58407 28.819863 251.80475 31.351383 254.82617 34.201172 C 257.64925 36.863883 259.22211 39.442311 259.38867 42.662109 C 257.18093 45.134789 254.29072 46.090957 250.26953 46.337891 C 245.73644 46.61626 240.31864 45.770595 235.27344 45.380859 A 4.3504349 4.3504349 0 0 0 233.78516 45.523438 C 226.40045 47.553804 217.4579 38.963524 219.13281 31.533203 C 220.94903 28.597483 223.4709 27.675616 227.56055 27.175781 C 231.78469 26.659508 237.0268 27.066999 242.20898 26.242188 z M 164.00195 45.996094 A 4.3504349 4.3504349 0 0 0 162.8457 46.109375 C 161.44918 46.438733 158.7168 46.175827 155.49609 46.044922 C 152.27539 45.914017 147.99155 46.087083 144.62695 49.226562 A 4.3504349 4.3504349 0 0 0 143.32812 53.257812 C 144.2228 57.739981 147.86374 60.733825 151.35547 61.828125 C 154.46864 62.803786 157.56568 62.688589 160.38867 62.134766 C 162.03855 62.163539 164.82594 62.671616 167.77539 62.990234 C 170.74195 63.310701 174.09981 63.68689 177.47656 61.673828 A 4.3504349 4.3504349 0 0 0 178.56445 55.119141 C 175.3771 51.369623 170.82022 46.912747 164.43555 46.035156 A 4.3504349 4.3504349 0 0 0 164.00195 45.996094 z M 270.44336 69.023438 C 270.1303 69.019295 269.81666 69.031209 269.50195 69.064453 C 268.87254 69.130941 268.24001 69.279764 267.60156 69.537109 C 266.32467 70.0518 264.91676 71.15254 264.31641 72.900391 C 263.71605 74.648241 264.22403 76.636285 265.09766 77.851562 C 265.9687 79.063244 267.07143 79.759377 268.23438 80.251953 C 271.93926 81.828475 275.48673 81.619571 278.35547 81.472656 C 281.22421 81.325741 283.47606 81.252925 285.16797 81.796875 A 4.3504349 4.3504349 0 0 0 285.4375 81.875 C 286.76486 82.209648 287.55887 82.578745 289.48047 82.183594 C 290.44127 81.986018 292.31594 81.109065 293.00781 79.195312 C 293.69969 77.281561 293.03287 75.929529 292.64844 75.236328 C 291.87957 73.849927 291.25142 73.469959 290.57812 72.927734 C 289.97818 72.444574 289.34168 72.027878 288.69336 71.632812 C 285.38738 69.299762 281.69208 69.013915 278.76172 69.070312 C 275.80308 69.127254 273.32988 69.38884 271.5918 69.111328 A 4.3504349 4.3504349 0 0 0 271.38086 69.082031 C 271.06889 69.047778 270.75642 69.02758 270.44336 69.023438 z M 270.2207 77.701172 C 270.31469 77.716178 270.38913 77.701286 270.48242 77.714844 C 270.49163 77.714843 270.41464 77.728602 270.43164 77.730469 L 270.2207 77.701172 z M 456.44336 85.023438 C 456.1303 85.019295 455.81666 85.031209 455.50195 85.064453 C 454.87254 85.130941 454.24001 85.279764 453.60156 85.537109 C 452.32467 86.0518 450.91676 87.15254 450.31641 88.900391 C 449.71605 90.648241 450.22403 92.636285 451.09766 93.851562 C 451.9687 95.063244 453.07143 95.759377 454.23438 96.251953 C 457.93926 97.828475 461.48673 97.619571 464.35547 97.472656 C 467.22421 97.325741 469.47606 97.252925 471.16797 97.796875 A 4.3504349 4.3504349 0 0 0 471.4375 97.875 C 472.76486 98.209648 473.55887 98.578745 475.48047 98.183594 C 476.44127 97.986018 478.31594 97.109064 479.00781 95.195312 C 479.69969 93.281562 479.03287 91.929529 478.64844 91.236328 C 477.87957 89.849927 477.25142 89.469959 476.57812 88.927734 C 475.97818 88.444574 475.34168 88.027878 474.69336 87.632812 C 471.38738 85.299762 467.69208 85.013915 464.76172 85.070312 C 461.80308 85.127254 459.32988 85.38884 457.5918 85.111328 A 4.3504349 4.3504349 0 0 0 457.38086 85.082031 C 457.06889 85.047778 456.75642 85.02758 456.44336 85.023438 z M 456.2207 93.701172 C 456.31469 93.716178 456.38913 93.701286 456.48242 93.714844 C 456.49163 93.714843 456.41464 93.728602 456.43164 93.730469 L 456.2207 93.701172 z M 162.39648 114.53125 C 162.1375 114.53668 161.87089 114.55416 161.5957 114.58594 A 4.3504349 4.3504349 0 0 0 161.05273 114.68359 C 158.37274 115.34449 154.10703 115.01994 149.45312 115.22656 C 144.79922 115.43319 139.1218 116.55747 135.33203 121.37109 A 4.3504349 4.3504349 0 0 0 134.50586 123.11328 C 133.18876 128.99935 135.57591 134.70706 139.49414 138.55078 C 143.11237 142.10022 148.46717 144.15511 153.94336 143.00977 C 157.77245 143.13723 162.49919 143.996 167.5332 144.08203 C 172.59615 144.16856 178.2754 143.33392 183.02734 139.4668 A 4.3504349 4.3504349 0 0 0 184.5918 135.51172 C 183.86531 130.13522 180.6441 126.1332 177.27734 123.17188 C 173.91059 120.21054 170.23487 117.9963 167.5918 115.99805 A 4.3504349 4.3504349 0 0 0 166.58203 115.42969 C 165.62228 115.04644 164.20941 114.49325 162.39648 114.53125 z M 163.13477 123.12891 L 162.79102 123.19141 L 162.75586 123.16992 C 162.88604 123.14026 163.00429 123.16108 163.13477 123.12891 z M 162.67188 123.17969 C 162.68402 123.18874 162.69488 123.19603 162.70703 123.20508 L 162.5918 123.22656 C 162.51556 123.23537 162.8291 123.31942 162.87891 123.33203 C 165.89806 125.56468 169.11555 127.58028 171.53125 129.70508 C 173.22081 131.19118 174.27303 132.66607 175.02148 134.20898 C 172.92804 135.12378 170.54275 135.43171 167.68164 135.38281 C 163.61333 135.31328 158.93619 134.45818 154.13477 134.30859 A 4.3504349 4.3504349 0 0 0 152.70117 134.50391 C 150.2713 135.2635 147.66489 134.37736 145.58789 132.33984 C 143.79087 130.57699 142.83139 128.18643 142.93359 126.01953 C 144.53161 124.53888 146.59884 124.06186 149.83984 123.91797 C 153.47912 123.75639 157.98052 124.22977 162.67188 123.17969 z M 499.39648 129.53125 C 499.1375 129.53668 498.87089 129.55416 498.5957 129.58594 A 4.3504349 4.3504349 0 0 0 498.05273 129.68359 C 495.37274 130.34449 491.10703 130.01994 486.45312 130.22656 C 481.79922 130.43319 476.1218 131.55747 472.33203 136.37109 A 4.3504349 4.3504349 0 0 0 471.50586 138.11328 C 470.18876 143.99935 472.57591 149.70706 476.49414 153.55078 C 480.11237 157.10022 485.46717 159.15511 490.94336 158.00977 C 494.77245 158.13723 499.49919 158.996 504.5332 159.08203 C 509.59615 159.16856 515.2754 158.33392 520.02734 154.4668 A 4.3504349 4.3504349 0 0 0 521.5918 150.51172 C 520.86531 145.13522 517.6441 141.1332 514.27734 138.17188 C 510.91059 135.21055 507.23487 132.9963 504.5918 130.99805 A 4.3504349 4.3504349 0 0 0 503.58203 130.42969 C 502.62228 130.04644 501.20941 129.49325 499.39648 129.53125 z M 500.13477 138.12891 L 499.79102 138.19141 L 499.75586 138.16992 C 499.88604 138.14026 500.00429 138.16108 500.13477 138.12891 z M 499.67188 138.17969 C 499.68401 138.18874 499.69488 138.19603 499.70703 138.20508 L 499.5918 138.22656 C 499.51556 138.23537 499.8291 138.31942 499.87891 138.33203 C 502.89806 140.56468 506.11555 142.58028 508.53125 144.70508 C 510.22081 146.19118 511.27303 147.66607 512.02148 149.20898 C 509.92804 150.12378 507.54275 150.43171 504.68164 150.38281 C 500.61333 150.31328 495.93619 149.45818 491.13477 149.30859 A 4.3504349 4.3504349 0 0 0 489.70117 149.50391 C 487.2713 150.2635 484.66489 149.37736 482.58789 147.33984 C 480.79087 145.57699 479.83139 143.18643 479.93359 141.01953 C 481.53161 139.53888 483.59884 139.06186 486.83984 138.91797 C 490.47912 138.75639 494.98052 139.22977 499.67188 138.17969 z M 47.808594 147.53125 C 47.362274 147.52021 46.905401 147.53226 46.439453 147.57227 A 4.3504349 4.3504349 0 0 0 46.085938 147.61719 C 42.442487 148.23517 37.046067 147.8617 31.503906 148.53906 C 25.961745 149.21642 19.62007 151.52209 16.185547 157.7832 A 4.3504349 4.3504349 0 0 0 15.818359 158.67578 C 11.732211 172.92015 25.604367 186.91139 39.785156 184.07422 C 44.226968 184.42992 49.952044 185.38076 55.802734 185.02148 C 61.725368 184.65779 68.252622 182.6037 72.369141 176.7207 A 4.3504349 4.3504349 0 0 0 73.144531 174.52344 C 73.62081 167.54623 70.048705 161.88519 65.794922 157.87305 C 61.541139 153.8609 56.472119 150.99876 52.59375 148.60938 A 4.3504349 4.3504349 0 0 0 51.525391 148.13477 C 50.394006 147.80654 49.147552 147.56438 47.808594 147.53125 z M 47.208984 156.24219 C 47.598435 156.21384 48.147006 156.31458 48.705078 156.43945 C 52.584066 158.81986 56.804751 161.35138 59.826172 164.20117 C 62.649249 166.86388 64.222113 169.44231 64.388672 172.66211 C 62.180926 175.13479 59.290721 176.09096 55.269531 176.33789 C 50.736437 176.61626 45.318637 175.77059 40.273438 175.38086 A 4.3504349 4.3504349 0 0 0 38.785156 175.52344 C 31.400449 177.5538 22.457901 168.96352 24.132812 161.5332 C 25.949027 158.59748 28.470904 157.67562 32.560547 157.17578 C 36.784695 156.65951 42.026802 157.067 47.208984 156.24219 z M 554.00195 166.99609 A 4.3504349 4.3504349 0 0 0 552.8457 167.10938 C 551.44918 167.43873 548.7168 167.17583 545.49609 167.04492 C 542.27539 166.91402 537.99155 167.08708 534.62695 170.22656 A 4.3504349 4.3504349 0 0 0 533.32812 174.25781 C 534.2228 178.73998 537.86374 181.73383 541.35547 182.82812 C 544.46864 183.80379 547.56568 183.68859 550.38867 183.13477 C 552.03855 183.16354 554.82594 183.67162 557.77539 183.99023 C 560.74195 184.3107 564.09981 184.68689 567.47656 182.67383 A 4.3504349 4.3504349 0 0 0 568.56445 176.11914 C 565.3771 172.36962 560.82022 167.91275 554.43555 167.03516 A 4.3504349 4.3504349 0 0 0 554.00195 166.99609 z M 388.00195 169.99609 A 4.3504349 4.3504349 0 0 0 386.8457 170.10938 C 385.44918 170.43873 382.7168 170.17583 379.49609 170.04492 C 376.27539 169.91402 371.99155 170.08708 368.62695 173.22656 A 4.3504349 4.3504349 0 0 0 367.32812 177.25781 C 368.2228 181.73998 371.86374 184.73383 375.35547 185.82812 C 378.46864 186.80379 381.56568 186.68859 384.38867 186.13477 C 386.03855 186.16354 388.82594 186.67162 391.77539 186.99023 C 394.74195 187.3107 398.09981 187.68689 401.47656 185.67383 A 4.3504349 4.3504349 0 0 0 402.56445 179.11914 C 399.3771 175.36962 394.82022 170.91275 388.43555 170.03516 A 4.3504349 4.3504349 0 0 0 388.00195 169.99609 z M 179.44336 212.02344 C 179.1303 212.0193 178.81666 212.03121 178.50195 212.06445 C 177.87254 212.13094 177.24001 212.27976 176.60156 212.53711 C 175.32467 213.0518 173.91676 214.15254 173.31641 215.90039 C 172.71605 217.64824 173.22403 219.63629 174.09766 220.85156 C 174.9687 222.06324 176.07143 222.75938 177.23438 223.25195 C 180.93926 224.82847 184.48673 224.61957 187.35547 224.47266 C 190.22421 224.32574 192.47606 224.25293 194.16797 224.79688 A 4.3504349 4.3504349 0 0 0 194.4375 224.875 C 195.76486 225.20965 196.55887 225.57875 198.48047 225.18359 C 199.44127 224.98602 201.31594 224.10906 202.00781 222.19531 C 202.69969 220.28156 202.03287 218.92953 201.64844 218.23633 C 200.87957 216.84993 200.25141 216.46996 199.57812 215.92773 C 198.97818 215.44457 198.34168 215.02788 197.69336 214.63281 C 194.38738 212.29976 190.69208 212.01392 187.76172 212.07031 C 184.80308 212.12725 182.32988 212.38884 180.5918 212.11133 A 4.3504349 4.3504349 0 0 0 180.38086 212.08203 C 180.06889 212.04778 179.75642 212.02758 179.44336 212.02344 z M 318.70117 214.55664 A 4.3504349 4.3504349 0 0 0 318.61328 214.55859 C 318.06737 214.53699 317.3043 214.67326 316.50977 214.99023 L 316.79688 214.80078 C 314.38378 215.38075 310.74073 215.07133 306.60352 215.14648 C 302.4663 215.22164 297.34433 215.98119 293.47266 219.9707 A 4.3504349 4.3504349 0 0 0 292.28711 222.38867 C 290.78594 232.97108 301.0889 241.38422 311.06445 239.05469 C 314.30661 239.17248 318.36124 239.90989 322.73438 240.08398 C 327.19092 240.2614 332.25107 239.7662 336.60547 236.57031 A 4.3504349 4.3504349 0 0 0 338.14258 231.64062 C 335.07891 222.78102 326.71396 218.36066 320.78516 215.0957 A 4.3504349 4.3504349 0 0 0 318.70117 214.55664 z M 179.2207 220.70117 C 179.31469 220.71618 179.38913 220.70129 179.48242 220.71484 C 179.49163 220.71484 179.41464 220.7286 179.43164 220.73047 L 179.2207 220.70117 z M 317.71875 223.37695 C 321.6703 225.61222 325.53799 228.12298 327.93164 231.05859 C 326.51514 231.36453 324.92219 231.46396 323.08008 231.39062 C 319.51094 231.24854 315.37886 230.46424 311.0957 230.33984 A 4.3504349 4.3504349 0 0 0 309.60938 230.55469 C 306.06667 231.71931 301.83401 228.77943 301.16992 225.16602 C 302.60293 224.32399 304.25427 223.8893 306.76172 223.84375 C 309.82211 223.78816 313.63197 224.12887 317.71875 223.37695 z M 111.00195 252.99609 A 4.3504349 4.3504349 0 0 0 109.8457 253.10938 C 108.44918 253.43873 105.7168 253.17583 102.49609 253.04492 C 99.275394 252.91402 94.991549 253.08708 91.626953 256.22656 A 4.3504349 4.3504349 0 0 0 90.328125 260.25781 C 91.222798 264.73998 94.863737 267.73383 98.355469 268.82812 C 101.46864 269.80379 104.56568 269.68859 107.38867 269.13477 C 109.03855 269.16354 111.82594 269.67162 114.77539 269.99023 C 117.74195 270.3107 121.09981 270.68689 124.47656 268.67383 A 4.3504349 4.3504349 0 0 0 125.56445 262.11914 C 122.3771 258.36962 117.82022 253.91275 111.43555 253.03516 A 4.3504349 4.3504349 0 0 0 111.00195 252.99609 z M 467.39648 277.53125 C 467.1375 277.53668 466.87089 277.55416 466.5957 277.58594 A 4.3504349 4.3504349 0 0 0 466.05273 277.68359 C 463.37274 278.34449 459.10703 278.01994 454.45312 278.22656 C 449.79922 278.43319 444.1218 279.55747 440.33203 284.37109 A 4.3504349 4.3504349 0 0 0 439.50586 286.11328 C 438.18876 291.99935 440.57591 297.70706 444.49414 301.55078 C 448.11237 305.10022 453.46717 307.15511 458.94336 306.00977 C 462.77245 306.13723 467.49919 306.996 472.5332 307.08203 C 477.59615 307.16856 483.2754 306.33392 488.02734 302.4668 A 4.3504349 4.3504349 0 0 0 489.5918 298.51172 C 488.86531 293.13522 485.6441 289.1332 482.27734 286.17188 C 478.91059 283.21055 475.23487 280.9963 472.5918 278.99805 A 4.3504349 4.3504349 0 0 0 471.58203 278.42969 C 470.62228 278.04644 469.20941 277.49325 467.39648 277.53125 z M 468.13477 286.12891 L 467.79102 286.19141 L 467.75586 286.16992 C 467.88604 286.14026 468.00429 286.16108 468.13477 286.12891 z M 467.67188 286.17969 C 467.68401 286.18874 467.69488 286.19603 467.70703 286.20508 L 467.5918 286.22656 C 467.51556 286.23537 467.8291 286.31942 467.87891 286.33203 C 470.89806 288.56468 474.11555 290.58028 476.53125 292.70508 C 478.22081 294.19118 479.27303 295.66607 480.02148 297.20898 C 477.92804 298.12378 475.54275 298.43171 472.68164 298.38281 C 468.61333 298.31328 463.93619 297.45818 459.13477 297.30859 A 4.3504349 4.3504349 0 0 0 457.70117 297.50391 C 455.2713 298.2635 452.66489 297.37736 450.58789 295.33984 C 448.79087 293.57699 447.83139 291.18643 447.93359 289.01953 C 449.53161 287.53888 451.59884 287.06186 454.83984 286.91797 C 458.47912 286.75639 462.98052 287.22977 467.67188 286.17969 z M 278.44336 287.02344 C 278.1303 287.0193 277.81666 287.03121 277.50195 287.06445 C 276.87254 287.13094 276.24001 287.27976 275.60156 287.53711 C 274.32467 288.0518 272.91676 289.15254 272.31641 290.90039 C 271.71605 292.64824 272.22403 294.63629 273.09766 295.85156 C 273.9687 297.06324 275.07143 297.75938 276.23438 298.25195 C 279.93926 299.82847 283.48673 299.61957 286.35547 299.47266 C 289.22421 299.32574 291.47606 299.25293 293.16797 299.79688 A 4.3504349 4.3504349 0 0 0 293.4375 299.875 C 294.76486 300.20965 295.55887 300.57875 297.48047 300.18359 C 298.44127 299.98602 300.31594 299.10906 301.00781 297.19531 C 301.69969 295.28156 301.03287 293.92953 300.64844 293.23633 C 299.87957 291.84993 299.25142 291.46996 298.57812 290.92773 C 297.97818 290.44457 297.34168 290.02788 296.69336 289.63281 C 293.38738 287.29976 289.69208 287.01392 286.76172 287.07031 C 283.80308 287.12725 281.32988 287.38884 279.5918 287.11133 A 4.3504349 4.3504349 0 0 0 279.38086 287.08203 C 279.06889 287.04778 278.75642 287.02758 278.44336 287.02344 z M 278.2207 295.70117 C 278.31469 295.71618 278.38913 295.70129 278.48242 295.71484 C 278.49163 295.71484 278.41464 295.7286 278.43164 295.73047 L 278.2207 295.70117 z M 213.39648 302.53125 C 213.1375 302.53668 212.87089 302.55416 212.5957 302.58594 A 4.3504349 4.3504349 0 0 0 212.05273 302.68359 C 209.37274 303.34449 205.10703 303.01994 200.45312 303.22656 C 195.79922 303.43319 190.1218 304.55747 186.33203 309.37109 A 4.3504349 4.3504349 0 0 0 185.50586 311.11328 C 184.18876 316.99935 186.57591 322.70706 190.49414 326.55078 C 194.11237 330.10022 199.46717 332.15511 204.94336 331.00977 C 208.77245 331.13723 213.49919 331.996 218.5332 332.08203 C 223.59615 332.16856 229.2754 331.33392 234.02734 327.4668 A 4.3504349 4.3504349 0 0 0 235.5918 323.51172 C 234.86531 318.13522 231.6441 314.1332 228.27734 311.17188 C 224.91059 308.21055 221.23487 305.9963 218.5918 303.99805 A 4.3504349 4.3504349 0 0 0 217.58203 303.42969 C 216.62228 303.04644 215.20941 302.49325 213.39648 302.53125 z M 214.13477 311.12891 L 213.79102 311.19141 L 213.75586 311.16992 C 213.88604 311.14026 214.00429 311.16108 214.13477 311.12891 z M 213.67188 311.17969 C 213.68402 311.18874 213.69488 311.19603 213.70703 311.20508 L 213.5918 311.22656 C 213.51556 311.23537 213.8291 311.31942 213.87891 311.33203 C 216.89806 313.56468 220.11555 315.58028 222.53125 317.70508 C 224.22081 319.19118 225.27303 320.66607 226.02148 322.20898 C 223.92804 323.12378 221.54275 323.43171 218.68164 323.38281 C 214.61333 323.31328 209.93619 322.45818 205.13477 322.30859 A 4.3504349 4.3504349 0 0 0 203.70117 322.50391 C 201.2713 323.2635 198.66489 322.37736 196.58789 320.33984 C 194.79087 318.57699 193.83139 316.18643 193.93359 314.01953 C 195.53161 312.53888 197.59884 312.06186 200.83984 311.91797 C 204.47912 311.75639 208.98052 312.22977 213.67188 311.17969 z M 354.80859 321.53125 C 354.36227 321.52021 353.9054 321.53226 353.43945 321.57227 A 4.3504349 4.3504349 0 0 0 353.08594 321.61719 C 349.44249 322.23517 344.04607 321.8617 338.50391 322.53906 C 332.96175 323.21642 326.62007 325.52209 323.18555 331.7832 A 4.3504349 4.3504349 0 0 0 322.81836 332.67578 C 318.73221 346.92015 332.60437 360.91139 346.78516 358.07422 C 351.22697 358.42992 356.95204 359.38076 362.80273 359.02148 C 368.72537 358.65779 375.25262 356.6037 379.36914 350.7207 A 4.3504349 4.3504349 0 0 0 380.14453 348.52344 C 380.62081 341.54623 377.04871 335.88519 372.79492 331.87305 C 368.54114 327.8609 363.47212 324.99876 359.59375 322.60938 A 4.3504349 4.3504349 0 0 0 358.52539 322.13477 C 357.39401 321.80654 356.14755 321.56438 354.80859 321.53125 z M 354.20898 330.24219 C 354.59843 330.21384 355.14701 330.31458 355.70508 330.43945 C 359.58407 332.81986 363.80475 335.35138 366.82617 338.20117 C 369.64925 340.86388 371.22211 343.44231 371.38867 346.66211 C 369.18093 349.13479 366.29072 350.09096 362.26953 350.33789 C 357.73644 350.61626 352.31864 349.77059 347.27344 349.38086 A 4.3504349 4.3504349 0 0 0 345.78516 349.52344 C 338.40045 351.5538 329.4579 342.96352 331.13281 335.5332 C 332.94903 332.59748 335.4709 331.67562 339.56055 331.17578 C 343.78469 330.65951 349.0268 331.067 354.20898 330.24219 z M 87.701172 331.55664 A 4.3504349 4.3504349 0 0 0 87.613281 331.55859 C 87.06737 331.53699 86.3043 331.67326 85.509766 331.99023 L 85.796875 331.80078 C 83.383775 332.38075 79.740731 332.07133 75.603516 332.14648 C 71.466301 332.22164 66.344334 332.98119 62.472656 336.9707 A 4.3504349 4.3504349 0 0 0 61.287109 339.38867 C 59.785938 349.97108 70.088896 358.38422 80.064453 356.05469 C 83.306611 356.17248 87.361249 356.90989 91.734375 357.08398 C 96.190935 357.2614 101.25107 356.7662 105.60547 353.57031 A 4.3504349 4.3504349 0 0 0 107.14258 348.64062 C 104.07891 339.78102 95.713958 335.36066 89.785156 332.0957 A 4.3504349 4.3504349 0 0 0 87.701172 331.55664 z M 86.71875 340.37695 C 90.6703 342.61222 94.537994 345.12298 96.931641 348.05859 C 95.515142 348.36453 93.922193 348.46396 92.080078 348.39062 C 88.510943 348.24854 84.378865 347.46424 80.095703 347.33984 A 4.3504349 4.3504349 0 0 0 78.609375 347.55469 C 75.066669 348.71931 70.834008 345.77943 70.169922 342.16602 C 71.602934 341.32399 73.254266 340.8893 75.761719 340.84375 C 78.822112 340.78816 82.631967 341.12887 86.71875 340.37695 z M 126.00195 398.99609 A 4.3504349 4.3504349 0 0 0 124.8457 399.10938 C 123.44918 399.43873 120.7168 399.17583 117.49609 399.04492 C 114.27539 398.91402 109.99155 399.08708 106.62695 402.22656 A 4.3504349 4.3504349 0 0 0 105.32812 406.25781 C 106.22281 410.73998 109.86374 413.73383 113.35547 414.82812 C 116.46864 415.80379 119.56568 415.68859 122.38867 415.13477 C 124.03855 415.16354 126.82594 415.67162 129.77539 415.99023 C 132.74195 416.3107 136.09981 416.68689 139.47656 414.67383 A 4.3504349 4.3504349 0 0 0 140.56445 408.11914 C 137.3771 404.36962 132.82022 399.91275 126.43555 399.03516 A 4.3504349 4.3504349 0 0 0 126.00195 398.99609 z M 408.70117 413.55664 A 4.3504349 4.3504349 0 0 0 408.61328 413.55859 C 408.06737 413.53699 407.3043 413.67326 406.50977 413.99023 L 406.79688 413.80078 C 404.38378 414.38075 400.74073 414.07133 396.60352 414.14648 C 392.4663 414.22164 387.34433 414.98119 383.47266 418.9707 A 4.3504349 4.3504349 0 0 0 382.28711 421.38867 C 380.78594 431.97108 391.0889 440.38422 401.06445 438.05469 C 404.30661 438.17248 408.36124 438.90989 412.73438 439.08398 C 417.19092 439.2614 422.25107 438.7662 426.60547 435.57031 A 4.3504349 4.3504349 0 0 0 428.14258 430.64062 C 425.07891 421.78102 416.71396 417.36066 410.78516 414.0957 A 4.3504349 4.3504349 0 0 0 408.70117 413.55664 z M 407.71875 422.37695 C 411.6703 424.61222 415.53799 427.12298 417.93164 430.05859 C 416.51514 430.36453 414.92219 430.46396 413.08008 430.39062 C 409.51094 430.24854 405.37886 429.46424 401.0957 429.33984 A 4.3504349 4.3504349 0 0 0 399.60938 429.55469 C 396.06667 430.71931 391.83401 427.77943 391.16992 424.16602 C 392.60293 423.32399 394.25427 422.8893 396.76172 422.84375 C 399.82211 422.78816 403.63197 423.12887 407.71875 422.37695 z M 284.39648 446.53125 C 284.1375 446.53668 283.87089 446.55416 283.5957 446.58594 A 4.3504349 4.3504349 0 0 0 283.05273 446.68359 C 280.37274 447.34449 276.10703 447.01994 271.45312 447.22656 C 266.79922 447.43319 261.1218 448.55747 257.33203 453.37109 A 4.3504349 4.3504349 0 0 0 256.50586 455.11328 C 255.18876 460.99935 257.57591 466.70706 261.49414 470.55078 C 265.11237 474.10022 270.46717 476.15511 275.94336 475.00977 C 279.77245 475.13723 284.49919 475.996 289.5332 476.08203 C 294.59615 476.16856 300.2754 475.33392 305.02734 471.4668 A 4.3504349 4.3504349 0 0 0 306.5918 467.51172 C 305.86531 462.13522 302.6441 458.1332 299.27734 455.17188 C 295.91059 452.21055 292.23487 449.9963 289.5918 447.99805 A 4.3504349 4.3504349 0 0 0 288.58203 447.42969 C 287.62228 447.04644 286.20941 446.49325 284.39648 446.53125 z M 496.44336 455.02344 C 496.1303 455.0193 495.81666 455.03121 495.50195 455.06445 C 494.87254 455.13094 494.24001 455.27976 493.60156 455.53711 C 492.32467 456.0518 490.91676 457.15254 490.31641 458.90039 C 489.71605 460.64824 490.22403 462.63629 491.09766 463.85156 C 491.9687 465.06324 493.07143 465.75938 494.23438 466.25195 C 497.93926 467.82847 501.48673 467.61957 504.35547 467.47266 C 507.22421 467.32574 509.47606 467.25293 511.16797 467.79688 A 4.3504349 4.3504349 0 0 0 511.4375 467.875 C 512.76486 468.20965 513.55887 468.57875 515.48047 468.18359 C 516.44127 467.98602 518.31594 467.10906 519.00781 465.19531 C 519.69969 463.28156 519.03287 461.92953 518.64844 461.23633 C 517.87957 459.84993 517.25141 459.46996 516.57812 458.92773 C 515.97818 458.44457 515.34168 458.02788 514.69336 457.63281 C 511.38738 455.29976 507.69208 455.01392 504.76172 455.07031 C 501.80308 455.12725 499.32988 455.38884 497.5918 455.11133 A 4.3504349 4.3504349 0 0 0 497.38086 455.08203 C 497.06889 455.04778 496.75642 455.02758 496.44336 455.02344 z M 285.13477 455.12891 L 284.79102 455.19141 L 284.75586 455.16992 C 284.88604 455.14026 285.00429 455.16108 285.13477 455.12891 z M 284.67188 455.17969 C 284.68401 455.18874 284.69488 455.19603 284.70703 455.20508 L 284.5918 455.22656 C 284.51556 455.23537 284.8291 455.31942 284.87891 455.33203 C 287.89806 457.56468 291.11555 459.58028 293.53125 461.70508 C 295.22081 463.19118 296.27303 464.66607 297.02148 466.20898 C 294.92804 467.12378 292.54275 467.43171 289.68164 467.38281 C 285.61333 467.31328 280.93619 466.45818 276.13477 466.30859 A 4.3504349 4.3504349 0 0 0 274.70117 466.50391 C 272.2713 467.2635 269.66489 466.37736 267.58789 464.33984 C 265.79087 462.57699 264.83139 460.18643 264.93359 458.01953 C 266.53161 456.53888 268.59884 456.06186 271.83984 455.91797 C 275.47912 455.75639 279.98052 456.22977 284.67188 455.17969 z M 496.2207 463.70117 C 496.31469 463.71618 496.38913 463.70129 496.48242 463.71484 C 496.49163 463.71484 496.41464 463.7286 496.43164 463.73047 L 496.2207 463.70117 z M 184.44336 488.02344 C 184.1303 488.0193 183.81666 488.03121 183.50195 488.06445 C 182.87254 488.13094 182.24001 488.27976 181.60156 488.53711 C 180.32467 489.0518 178.91676 490.15254 178.31641 491.90039 C 177.71605 493.64824 178.22403 495.63629 179.09766 496.85156 C 179.9687 498.06324 181.07143 498.75938 182.23438 499.25195 C 185.93926 500.82847 189.48673 500.61957 192.35547 500.47266 C 195.22421 500.32574 197.47606 500.25293 199.16797 500.79688 A 4.3504349 4.3504349 0 0 0 199.4375 500.875 C 200.76486 501.20965 201.55887 501.57875 203.48047 501.18359 C 204.44127 500.98602 206.31594 500.10906 207.00781 498.19531 C 207.69969 496.28156 207.03287 494.92953 206.64844 494.23633 C 205.87957 492.84993 205.25141 492.46996 204.57812 491.92773 C 203.97818 491.44457 203.34168 491.02788 202.69336 490.63281 C 199.38738 488.29976 195.69208 488.01392 192.76172 488.07031 C 189.80308 488.12725 187.32988 488.38884 185.5918 488.11133 A 4.3504349 4.3504349 0 0 0 185.38086 488.08203 C 185.06889 488.04778 184.75642 488.02758 184.44336 488.02344 z M 184.2207 496.70117 C 184.31469 496.71618 184.38913 496.70129 184.48242 496.71484 C 184.49163 496.71484 184.41464 496.7286 184.43164 496.73047 L 184.2207 496.70117 z M 521.80859 500.53125 C 521.36227 500.52021 520.9054 500.53226 520.43945 500.57227 A 4.3504349 4.3504349 0 0 0 520.08594 500.61719 C 516.44249 501.23517 511.04607 500.8617 505.50391 501.53906 C 499.96175 502.21642 493.62007 504.52209 490.18555 510.7832 A 4.3504349 4.3504349 0 0 0 489.81836 511.67578 C 485.73221 525.92015 499.60437 539.91139 513.78516 537.07422 C 518.22697 537.42992 523.95204 538.38076 529.80273 538.02148 C 535.72537 537.65779 542.25262 535.6037 546.36914 529.7207 A 4.3504349 4.3504349 0 0 0 547.14453 527.52344 C 547.62081 520.54623 544.04871 514.88519 539.79492 510.87305 C 535.54114 506.8609 530.47212 503.99876 526.59375 501.60938 A 4.3504349 4.3504349 0 0 0 525.52539 501.13477 C 524.39401 500.80654 523.14755 500.56438 521.80859 500.53125 z M 81.396484 505.53125 C 81.137496 505.53668 80.870891 505.55416 80.595703 505.58594 A 4.3504349 4.3504349 0 0 0 80.052734 505.68359 C 77.372736 506.34449 73.107028 506.01994 68.453125 506.22656 C 63.799222 506.43319 58.121795 507.55747 54.332031 512.37109 A 4.3504349 4.3504349 0 0 0 53.505859 514.11328 C 52.188761 519.99935 54.575915 525.70706 58.494141 529.55078 C 62.112374 533.10022 67.467167 535.15511 72.943359 534.00977 C 76.772452 534.13723 81.499187 534.996 86.533203 535.08203 C 91.59615 535.16856 97.275408 534.33392 102.02734 530.4668 A 4.3504349 4.3504349 0 0 0 103.5918 526.51172 C 102.86531 521.13522 99.644097 517.1332 96.277344 514.17188 C 92.91059 511.21055 89.234866 508.9963 86.591797 506.99805 A 4.3504349 4.3504349 0 0 0 85.582031 506.42969 C 84.622281 506.04644 83.209404 505.49325 81.396484 505.53125 z M 521.20898 509.24219 C 521.59843 509.21384 522.14701 509.31458 522.70508 509.43945 C 526.58407 511.81986 530.80475 514.35138 533.82617 517.20117 C 536.64925 519.86388 538.22211 522.44231 538.38867 525.66211 C 536.18093 528.13479 533.29072 529.09096 529.26953 529.33789 C 524.73644 529.61626 519.31864 528.77059 514.27344 528.38086 A 4.3504349 4.3504349 0 0 0 512.78516 528.52344 C 505.40045 530.5538 496.4579 521.96352 498.13281 514.5332 C 499.94903 511.59748 502.4709 510.67562 506.56055 510.17578 C 510.78469 509.65951 516.0268 510.067 521.20898 509.24219 z M 398.00195 509.99609 A 4.3504349 4.3504349 0 0 0 396.8457 510.10938 C 395.44918 510.43873 392.7168 510.17583 389.49609 510.04492 C 386.27539 509.91402 381.99155 510.08708 378.62695 513.22656 A 4.3504349 4.3504349 0 0 0 377.32812 517.25781 C 378.2228 521.73998 381.86374 524.73383 385.35547 525.82812 C 388.46864 526.8038 391.56568 526.68859 394.38867 526.13477 C 396.03855 526.16354 398.82594 526.67162 401.77539 526.99023 C 404.74195 527.3107 408.09981 527.68689 411.47656 525.67383 A 4.3504349 4.3504349 0 0 0 412.56445 519.11914 C 409.3771 515.36962 404.82022 510.91275 398.43555 510.03516 A 4.3504349 4.3504349 0 0 0 398.00195 509.99609 z M 82.134766 514.12891 L 81.791016 514.19141 L 81.755859 514.16992 C 81.886037 514.14026 82.004293 514.16108 82.134766 514.12891 z M 81.671875 514.17969 C 81.684022 514.18874 81.694878 514.19603 81.707031 514.20508 L 81.591797 514.22656 C 81.515559 514.23537 81.829104 514.31942 81.878906 514.33203 C 84.898061 516.56468 88.115553 518.58028 90.53125 520.70508 C 92.220815 522.19118 93.273027 523.66607 94.021484 525.20898 C 91.928035 526.12378 89.542754 526.43171 86.681641 526.38281 C 82.613332 526.31328 77.93619 525.45818 73.134766 525.30859 A 4.3504349 4.3504349 0 0 0 71.701172 525.50391 C 69.271302 526.2635 66.664895 525.37736 64.587891 523.33984 C 62.790867 521.57699 61.831395 519.18643 61.933594 517.01953 C 63.531611 515.53888 65.598843 515.06186 68.839844 514.91797 C 72.479124 514.75639 76.980516 515.22977 81.671875 514.17969 z "
     id="path2845" />
</svg>
