<?xml version="1.0" encoding="UTF-8" standalone="no"?>
<!-- Created with Inkscape (http://www.inkscape.org/) -->

<svg
   xmlns:dc="http://purl.org/dc/elements/1.1/"
   xmlns:cc="http://creativecommons.org/ns#"
   xmlns:rdf="http://www.w3.org/1999/02/22-rdf-syntax-ns#"
   xmlns:svg="http://www.w3.org/2000/svg"
   xmlns="http://www.w3.org/2000/svg"
   xmlns:sodipodi="http://sodipodi.sourceforge.net/DTD/sodipodi-0.dtd"
   xmlns:inkscape="http://www.inkscape.org/namespaces/inkscape"
   version="1.0"
   width="580"
   height="580"
   id="svg2"
   sodipodi:version="0.32"
   inkscape:version="0.91 r13725"
   sodipodi:docname="scrub.svg"
   inkscape:output_extension="org.inkscape.output.svg.inkscape">
  <metadata
     id="metadata10">
    <rdf:RDF>
      <cc:Work
         rdf:about="">
        <dc:format>image/svg+xml</dc:format>
        <dc:type
           rdf:resource="http://purl.org/dc/dcmitype/StillImage" />
        <cc:license
           rdf:resource="http://web.resource.org/cc/PublicDomain" />
        <dc:language>en</dc:language>
        <dc:title />
      </cc:Work>
    </rdf:RDF>
  </metadata>
  <sodipodi:namedview
     inkscape:window-height="972"
     inkscape:window-width="1280"
     inkscape:pageshadow="2"
     inkscape:pageopacity="0.0"
     guidetolerance="10.0"
     gridtolerance="10.0"
     objecttolerance="10.0"
     borderopacity="1.0"
     bordercolor="#666666"
     pagecolor="#ffffff"
     id="base"
     showgrid="false"
     inkscape:zoom="0.5"
     inkscape:cx="401.44222"
     inkscape:cy="511.39434"
     inkscape:window-x="-8"
     inkscape:window-y="-8"
     inkscape:current-layer="svg2"
     showguides="true"
     inkscape:guide-bbox="true"
     inkscape:window-maximized="1" />
  <defs
     id="defs4">
    <inkscape:perspective
       sodipodi:type="inkscape:persp3d"
       inkscape:vp_x="0 : 290 : 1"
       inkscape:vp_y="0 : 1000 : 0"
       inkscape:vp_z="580 : 290 : 1"
       inkscape:persp3d-origin="290 : 193.33333 : 1"
       id="perspective12" />
    <style
       type="text/css"
       id="style6">
   
    .fil0 {fill:#EF7900}
   
  </style>
    <inkscape:perspective
       id="perspective6807"
       inkscape:persp3d-origin="29.116032 : 19.410688 : 1"
       inkscape:vp_z="58.232063 : 29.116032 : 1"
       inkscape:vp_y="0 : 1000 : 0"
       inkscape:vp_x="0 : 29.116032 : 1"
       sodipodi:type="inkscape:persp3d" />
    <inkscape:perspective
       id="perspective6954"
       inkscape:persp3d-origin="290 : 193.33333 : 1"
       inkscape:vp_z="580 : 290 : 1"
       inkscape:vp_y="0 : 1000 : 0"
       inkscape:vp_x="0 : 290 : 1"
       sodipodi:type="inkscape:persp3d" />
    <inkscape:perspective
       id="perspective2541"
       inkscape:persp3d-origin="240 : 160 : 1"
       inkscape:vp_z="480 : 240 : 1"
       inkscape:vp_y="0 : 1000 : 0"
       inkscape:vp_x="0 : 240 : 1"
       sodipodi:type="inkscape:persp3d" />
    <inkscape:perspective
       id="perspective2750"
       inkscape:persp3d-origin="215 : 143.33333 : 1"
       inkscape:vp_z="430 : 215 : 1"
       inkscape:vp_y="0 : 1000 : 0"
       inkscape:vp_x="0 : 215 : 1"
       sodipodi:type="inkscape:persp3d" />
    <inkscape:perspective
       id="perspective2830"
       inkscape:persp3d-origin="0.5 : 0.33333333 : 1"
       inkscape:vp_z="1 : 0.5 : 1"
       inkscape:vp_y="0 : 1000 : 0"
       inkscape:vp_x="0 : 0.5 : 1"
       sodipodi:type="inkscape:persp3d" />
    <inkscape:perspective
       id="perspective3648"
       inkscape:persp3d-origin="0.5 : 0.33333333 : 1"
       inkscape:vp_z="1 : 0.5 : 1"
       inkscape:vp_y="0 : 1000 : 0"
       inkscape:vp_x="0 : 0.5 : 1"
       sodipodi:type="inkscape:persp3d" />
    <inkscape:perspective
       id="perspective3675"
       inkscape:persp3d-origin="0.5 : 0.33333333 : 1"
       inkscape:vp_z="1 : 0.5 : 1"
       inkscape:vp_y="0 : 1000 : 0"
       inkscape:vp_x="0 : 0.5 : 1"
       sodipodi:type="inkscape:persp3d" />
    <inkscape:perspective
       id="perspective3736"
       inkscape:persp3d-origin="0.5 : 0.33333333 : 1"
       inkscape:vp_z="1 : 0.5 : 1"
       inkscape:vp_y="0 : 1000 : 0"
       inkscape:vp_x="0 : 0.5 : 1"
       sodipodi:type="inkscape:persp3d" />
  </defs>
  <path
     style="color:#000000;font-style:normal;font-variant:normal;font-weight:normal;font-stretch:normal;font-size:medium;line-height:normal;font-family:sans-serif;text-indent:0;text-align:start;text-decoration:none;text-decoration-line:none;text-decoration-style:solid;text-decoration-color:#000000;letter-spacing:normal;word-spacing:normal;text-transform:none;direction:ltr;block-progression:tb;writing-mode:lr-tb;baseline-shift:baseline;text-anchor:start;white-space:normal;clip-rule:nonzero;display:inline;overflow:visible;visibility:visible;opacity:1;isolation:auto;mix-blend-mode:normal;color-interpolation:sRGB;color-interpolation-filters:linearRGB;solid-color:#000000;solid-opacity:1;fill:#008000;fill-opacity:1;fill-rule:nonzero;stroke:none;stroke-width:12;stroke-linecap:round;stroke-linejoin:round;stroke-miterlimit:4;stroke-dasharray:none;stroke-dashoffset:0;stroke-opacity:1;color-rendering:auto;image-rendering:auto;shape-rendering:auto;text-rendering:auto;enable-background:accumulate"
     d="M 411.89062 136.76953 A 5.8277736 5.8277736 0 0 0 406.12695 142.65625 L 405.79883 226.05469 A 5.8277736 5.8277736 0 1 0 417.45312 226.09961 L 417.78125 142.70117 A 5.8277736 5.8277736 0 0 0 411.89062 136.76953 z M 366.63672 163.91797 A 5.8277736 5.8277736 0 0 0 361.25586 172.00195 L 384 228.37109 A 5.8277736 5.8277736 0 1 0 394.80859 224.00977 L 372.0625 167.64258 A 5.8277736 5.8277736 0 0 0 366.63672 163.91797 z M 461.27539 166.23242 A 5.8277736 5.8277736 0 0 0 455.77734 169.57422 L 429.40625 223.63477 A 5.8277736 5.8277736 0 1 0 439.88086 228.74414 L 466.25195 174.68359 A 5.8277736 5.8277736 0 0 0 461.27539 166.23242 z M 493.85938 187.23047 A 5.8277736 5.8277736 0 0 0 489.87305 189.03516 L 457.56836 221.99805 A 5.8277736 5.8277736 0 1 0 465.89258 230.15625 L 498.19531 197.19141 A 5.8277736 5.8277736 0 0 0 493.85938 187.23047 z M 330.28125 188.2168 A 5.8277736 5.8277736 0 0 0 326.22266 198.22266 L 358.19727 230.19727 A 5.8277736 5.8277736 0 1 0 366.4375 221.95703 L 334.46289 189.98242 A 5.8277736 5.8277736 0 0 0 330.28125 188.2168 z M 211.89062 232.76953 A 5.8277736 5.8277736 0 0 0 206.12695 238.65625 L 205.79883 322.05469 A 5.8277736 5.8277736 0 1 0 217.45312 322.09961 L 217.78125 238.70117 A 5.8277736 5.8277736 0 0 0 211.89062 232.76953 z M 166.63672 259.91797 A 5.8277736 5.8277736 0 0 0 161.25586 268.00195 L 184 324.37109 A 5.8277736 5.8277736 0 1 0 194.80859 320.00977 L 172.0625 263.64258 A 5.8277736 5.8277736 0 0 0 166.63672 259.91797 z M 261.27539 262.23242 A 5.8277736 5.8277736 0 0 0 255.77734 265.57422 L 229.40625 319.63477 A 5.8277736 5.8277736 0 1 0 239.88086 324.74414 L 266.25195 270.68359 A 5.8277736 5.8277736 0 0 0 261.27539 262.23242 z M 293.85938 283.23047 A 5.8277736 5.8277736 0 0 0 289.87305 285.03516 L 257.56836 317.99805 A 5.8277736 5.8277736 0 1 0 265.89258 326.15625 L 298.19531 293.19141 A 5.8277736 5.8277736 0 0 0 293.85938 283.23047 z M 130.28125 284.2168 A 5.8277736 5.8277736 0 0 0 126.22266 294.22266 L 158.19727 326.19727 A 5.8277736 5.8277736 0 1 0 166.4375 317.95703 L 134.46289 285.98242 A 5.8277736 5.8277736 0 0 0 130.28125 284.2168 z M 346.41992 388.74609 A 6.0006 6.0006 0 1 0 346.41992 400.74609 L 516.07227 400.74609 A 6.0006 6.0006 0 1 0 516.07227 388.74609 L 346.41992 388.74609 z M 91.847656 448.74609 A 6.0006 6.0006 0 1 0 91.847656 460.74609 L 468.64453 460.74609 A 6.0006 6.0006 0 1 0 468.64453 448.74609 L 91.847656 448.74609 z "
     id="path3752" />
</svg>
