<?xml version="1.0" encoding="UTF-8" standalone="no"?>
<!-- Created with Inkscape (http://www.inkscape.org/) -->

<svg
   xmlns:dc="http://purl.org/dc/elements/1.1/"
   xmlns:cc="http://creativecommons.org/ns#"
   xmlns:rdf="http://www.w3.org/1999/02/22-rdf-syntax-ns#"
   xmlns:svg="http://www.w3.org/2000/svg"
   xmlns="http://www.w3.org/2000/svg"
   xmlns:sodipodi="http://sodipodi.sourceforge.net/DTD/sodipodi-0.dtd"
   xmlns:inkscape="http://www.inkscape.org/namespaces/inkscape"
   version="1.0"
   width="580"
   height="580"
   id="svg2"
   sodipodi:version="0.32"
   inkscape:version="0.91 r13725"
   sodipodi:docname="grass.svg"
   inkscape:output_extension="org.inkscape.output.svg.inkscape">
  <metadata
     id="metadata10">
    <rdf:RDF>
      <cc:Work
         rdf:about="">
        <dc:format>image/svg+xml</dc:format>
        <dc:type
           rdf:resource="http://purl.org/dc/dcmitype/StillImage" />
        <cc:license
           rdf:resource="http://web.resource.org/cc/PublicDomain" />
        <dc:language>en</dc:language>
        <dc:title />
      </cc:Work>
    </rdf:RDF>
  </metadata>
  <sodipodi:namedview
     inkscape:window-height="1003"
     inkscape:window-width="1400"
     inkscape:pageshadow="2"
     inkscape:pageopacity="0.0"
     guidetolerance="10.0"
     gridtolerance="10.0"
     objecttolerance="10.0"
     borderopacity="1.0"
     bordercolor="#666666"
     pagecolor="#ffffff"
     id="base"
     showgrid="false"
     inkscape:zoom="0.5"
     inkscape:cx="-100.55778"
     inkscape:cy="-102.60565"
     inkscape:window-x="0"
     inkscape:window-y="20"
     inkscape:current-layer="svg2"
     showguides="true"
     inkscape:guide-bbox="true"
     inkscape:window-maximized="0" />
  <defs
     id="defs4">
    <inkscape:perspective
       sodipodi:type="inkscape:persp3d"
       inkscape:vp_x="0 : 290 : 1"
       inkscape:vp_y="0 : 1000 : 0"
       inkscape:vp_z="580 : 290 : 1"
       inkscape:persp3d-origin="290 : 193.33333 : 1"
       id="perspective12" />
    <style
       type="text/css"
       id="style6">
   
    .fil0 {fill:#EF7900}
   
  </style>
    <inkscape:perspective
       id="perspective6807"
       inkscape:persp3d-origin="29.116032 : 19.410688 : 1"
       inkscape:vp_z="58.232063 : 29.116032 : 1"
       inkscape:vp_y="0 : 1000 : 0"
       inkscape:vp_x="0 : 29.116032 : 1"
       sodipodi:type="inkscape:persp3d" />
    <inkscape:perspective
       id="perspective6954"
       inkscape:persp3d-origin="290 : 193.33333 : 1"
       inkscape:vp_z="580 : 290 : 1"
       inkscape:vp_y="0 : 1000 : 0"
       inkscape:vp_x="0 : 290 : 1"
       sodipodi:type="inkscape:persp3d" />
    <inkscape:perspective
       id="perspective2541"
       inkscape:persp3d-origin="240 : 160 : 1"
       inkscape:vp_z="480 : 240 : 1"
       inkscape:vp_y="0 : 1000 : 0"
       inkscape:vp_x="0 : 240 : 1"
       sodipodi:type="inkscape:persp3d" />
    <inkscape:perspective
       id="perspective2750"
       inkscape:persp3d-origin="215 : 143.33333 : 1"
       inkscape:vp_z="430 : 215 : 1"
       inkscape:vp_y="0 : 1000 : 0"
       inkscape:vp_x="0 : 215 : 1"
       sodipodi:type="inkscape:persp3d" />
    <inkscape:perspective
       id="perspective2830"
       inkscape:persp3d-origin="0.5 : 0.33333333 : 1"
       inkscape:vp_z="1 : 0.5 : 1"
       inkscape:vp_y="0 : 1000 : 0"
       inkscape:vp_x="0 : 0.5 : 1"
       sodipodi:type="inkscape:persp3d" />
    <inkscape:perspective
       id="perspective3648"
       inkscape:persp3d-origin="0.5 : 0.33333333 : 1"
       inkscape:vp_z="1 : 0.5 : 1"
       inkscape:vp_y="0 : 1000 : 0"
       inkscape:vp_x="0 : 0.5 : 1"
       sodipodi:type="inkscape:persp3d" />
    <inkscape:perspective
       id="perspective3675"
       inkscape:persp3d-origin="0.5 : 0.33333333 : 1"
       inkscape:vp_z="1 : 0.5 : 1"
       inkscape:vp_y="0 : 1000 : 0"
       inkscape:vp_x="0 : 0.5 : 1"
       sodipodi:type="inkscape:persp3d" />
    <inkscape:perspective
       id="perspective3736"
       inkscape:persp3d-origin="0.5 : 0.33333333 : 1"
       inkscape:vp_z="1 : 0.5 : 1"
       inkscape:vp_y="0 : 1000 : 0"
       inkscape:vp_x="0 : 0.5 : 1"
       sodipodi:type="inkscape:persp3d" />
  </defs>
  <path
     style="color:#000000;font-style:normal;font-variant:normal;font-weight:normal;font-stretch:normal;font-size:medium;line-height:normal;font-family:sans-serif;text-indent:0;text-align:start;text-decoration:none;text-decoration-line:none;text-decoration-style:solid;text-decoration-color:#000000;letter-spacing:normal;word-spacing:normal;text-transform:none;direction:ltr;block-progression:tb;writing-mode:lr-tb;baseline-shift:baseline;text-anchor:start;white-space:normal;clip-rule:nonzero;display:inline;overflow:visible;visibility:visible;opacity:1;isolation:auto;mix-blend-mode:normal;color-interpolation:sRGB;color-interpolation-filters:linearRGB;solid-color:#000000;solid-opacity:1;fill:#008000;fill-opacity:1;fill-rule:nonzero;stroke:none;stroke-width:11.65438175;stroke-linecap:round;stroke-linejoin:round;stroke-miterlimit:4;stroke-dasharray:none;stroke-dashoffset:0;stroke-opacity:1;color-rendering:auto;image-rendering:auto;shape-rendering:auto;text-rendering:auto;enable-background:accumulate"
     d="M 385.89062 100.76953 A 5.8277736 5.8277736 0 0 0 380.12695 106.65625 L 379.79883 190.05469 A 5.8277736 5.8277736 0 1 0 391.45312 190.09961 L 391.78125 106.70117 A 5.8277736 5.8277736 0 0 0 385.89062 100.76953 z M 340.63672 127.91797 A 5.8277736 5.8277736 0 0 0 335.25586 136.00195 L 358 192.37109 A 5.8277736 5.8277736 0 1 0 368.80859 188.00977 L 346.0625 131.64258 A 5.8277736 5.8277736 0 0 0 340.63672 127.91797 z M 435.27539 130.23242 A 5.8277736 5.8277736 0 0 0 429.77734 133.57422 L 403.40625 187.63477 A 5.8277736 5.8277736 0 1 0 413.88086 192.74414 L 440.25195 138.68359 A 5.8277736 5.8277736 0 0 0 435.27539 130.23242 z M 467.85938 151.23047 A 5.8277736 5.8277736 0 0 0 463.87305 153.03516 L 431.56836 185.99805 A 5.8277736 5.8277736 0 1 0 439.89258 194.15625 L 472.19531 161.19141 A 5.8277736 5.8277736 0 0 0 467.85938 151.23047 z M 304.28125 152.2168 A 5.8277736 5.8277736 0 0 0 300.22266 162.22266 L 332.19727 194.19727 A 5.8277736 5.8277736 0 1 0 340.4375 185.95703 L 308.46289 153.98242 A 5.8277736 5.8277736 0 0 0 304.28125 152.2168 z M 185.89062 196.76953 A 5.8277736 5.8277736 0 0 0 180.12695 202.65625 L 179.79883 286.05469 A 5.8277736 5.8277736 0 1 0 191.45312 286.09961 L 191.78125 202.70117 A 5.8277736 5.8277736 0 0 0 185.89062 196.76953 z M 140.63672 223.91797 A 5.8277736 5.8277736 0 0 0 135.25586 232.00195 L 158 288.37109 A 5.8277736 5.8277736 0 1 0 168.80859 284.00977 L 146.0625 227.64258 A 5.8277736 5.8277736 0 0 0 140.63672 223.91797 z M 235.27539 226.23242 A 5.8277736 5.8277736 0 0 0 229.77734 229.57422 L 203.40625 283.63477 A 5.8277736 5.8277736 0 1 0 213.88086 288.74414 L 240.25195 234.68359 A 5.8277736 5.8277736 0 0 0 235.27539 226.23242 z M 267.85938 247.23047 A 5.8277736 5.8277736 0 0 0 263.87305 249.03516 L 231.56836 281.99805 A 5.8277736 5.8277736 0 1 0 239.89258 290.15625 L 272.19531 257.19141 A 5.8277736 5.8277736 0 0 0 267.85938 247.23047 z M 104.28125 248.2168 A 5.8277736 5.8277736 0 0 0 100.22266 258.22266 L 132.19727 290.19727 A 5.8277736 5.8277736 0 1 0 140.4375 281.95703 L 108.46289 249.98242 A 5.8277736 5.8277736 0 0 0 104.28125 248.2168 z M 289.89062 346.76953 A 5.8277736 5.8277736 0 0 0 284.12695 352.65625 L 283.79883 436.05469 A 5.8277736 5.8277736 0 1 0 295.45312 436.09961 L 295.78125 352.70117 A 5.8277736 5.8277736 0 0 0 289.89062 346.76953 z M 244.63672 373.91797 A 5.8277736 5.8277736 0 0 0 239.25586 382.00195 L 262 438.37109 A 5.8277736 5.8277736 0 1 0 272.80859 434.00977 L 250.0625 377.64258 A 5.8277736 5.8277736 0 0 0 244.63672 373.91797 z M 339.27539 376.23242 A 5.8277736 5.8277736 0 0 0 333.77734 379.57422 L 307.40625 433.63477 A 5.8277736 5.8277736 0 1 0 317.88086 438.74414 L 344.25195 384.68359 A 5.8277736 5.8277736 0 0 0 339.27539 376.23242 z M 371.85938 397.23047 A 5.8277736 5.8277736 0 0 0 367.87305 399.03516 L 335.56836 431.99805 A 5.8277736 5.8277736 0 1 0 343.89258 440.15625 L 376.19531 407.19141 A 5.8277736 5.8277736 0 0 0 371.85938 397.23047 z M 208.28125 398.2168 A 5.8277736 5.8277736 0 0 0 204.22266 408.22266 L 236.19727 440.19727 A 5.8277736 5.8277736 0 1 0 244.4375 431.95703 L 212.46289 399.98242 A 5.8277736 5.8277736 0 0 0 208.28125 398.2168 z "
     id="path3781" />
</svg>
